<svg width="58" height="58" viewBox="0 0 58 58" fill="none" xmlns="http://www.w3.org/2000/svg">
<path d="M40.8498 28.6101C40.7138 28.036 40.2922 27.5746 39.7331 27.3888L31.3963 24.6093L37.317 12.7679C37.6887 12.0229 37.4663 11.1169 36.7909 10.629C36.1123 10.1427 35.183 10.2158 34.5955 10.8065L17.6034 27.7987C17.1868 28.2152 17.0159 28.8175 17.1503 29.39C17.2864 29.9641 17.7079 30.4255 18.2671 30.6113L26.6039 33.3908L20.6831 45.2322C20.3115 45.9772 20.5338 46.8833 21.2092 47.3712C21.8856 47.8559 22.8131 47.785 23.4046 47.1936L40.3968 30.2015C40.8133 29.7849 40.9843 29.1826 40.8498 28.6101Z" fill="url(#paint0_linear)"/>
<path d="M29 0C20.3759 0 12.23 4.01084 6.79688 10.4818V8.60938C6.79688 7.67016 6.03687 6.91016 5.09766 6.91016C4.15844 6.91016 3.39844 7.67016 3.39844 8.60938V15.8278C3.39844 17.4494 5.49301 17.6815 5.09766 17.527C5.13255 17.527 5.16732 17.5253 5.20221 17.5237L11.9991 17.1022C12.9366 17.0441 13.6486 16.2376 13.5905 15.3017C13.5324 14.3658 12.7143 13.6606 11.79 13.7103L8.3469 13.9244C13.116 7.43703 20.8324 3.39844 29 3.39844C43.055 3.39844 54.6016 14.945 54.6016 29C54.6016 29.9392 55.3616 30.6992 56.3008 30.6992C57.24 30.6992 58 29.9392 58 29C58 13.0715 44.9285 0 29 0Z" fill="url(#paint1_linear)"/>
<path d="M52.7978 40.4763L46.0009 40.8978C45.0634 40.9559 44.3514 41.7624 44.4095 42.6983C44.4676 43.6342 45.304 44.3478 46.21 44.2897L49.6531 44.0756C44.884 50.563 37.1676 54.6016 29 54.6016C14.945 54.6016 3.39844 43.055 3.39844 29C3.39844 28.0608 2.63843 27.3008 1.69922 27.3008C0.760004 27.3008 0 28.0608 0 29C0 44.9285 13.0715 58 29 58C37.6241 58 45.77 53.9892 51.2031 47.5182V49.3906C51.2031 50.3298 51.9631 51.0898 52.9023 51.0898C53.8416 51.0898 54.6016 50.3298 54.6016 49.3906V42.1722C54.6016 41.2388 53.7065 40.4251 52.7978 40.4763Z" fill="url(#paint2_linear)"/>
<defs>
<linearGradient id="paint0_linear" x1="40.8949" y1="28.9999" x2="17.1053" y2="28.9999" gradientUnits="userSpaceOnUse">
<stop stop-color="#06EA84"/>
<stop offset="1" stop-color="#2BC47B"/>
</linearGradient>
<linearGradient id="paint1_linear" x1="58" y1="15.3496" x2="3.39844" y2="15.3496" gradientUnits="userSpaceOnUse">
<stop stop-color="#06EA84"/>
<stop offset="1" stop-color="#2BC47B"/>
</linearGradient>
<linearGradient id="paint2_linear" x1="54.6016" y1="42.6504" x2="9.15594e-07" y2="42.6504" gradientUnits="userSpaceOnUse">
<stop stop-color="#06EA84"/>
<stop offset="1" stop-color="#2BC47B"/>
</linearGradient>
</defs>
</svg>
