<svg width="79" height="60" viewBox="0 0 79 60" fill="none" xmlns="http://www.w3.org/2000/svg">
<path fill-rule="evenodd" clip-rule="evenodd" d="M48.6904 1H53.846C54.5578 1 55.1349 1.57711 55.1349 2.28891V14.2163C55.1312 17.5932 52.3946 20.3299 49.0176 20.3336H47.4015V47.4007H49.9793C50.6911 47.4007 51.2682 47.9778 51.2682 48.6896V57.7119C51.2682 58.4237 50.6911 59.0008 49.9793 59.0008H29.3568C28.645 59.0008 28.0679 58.4237 28.0679 57.7119V48.6896C28.0679 47.9778 28.645 47.4007 29.3568 47.4007H31.9346V20.3336H30.3185C26.9415 20.3299 24.2049 17.5932 24.2012 14.2163V2.28891C24.2012 1.57711 24.7783 1 25.4901 1H30.6457C31.3575 1 31.9346 1.57711 31.9346 2.28891V10.7889C31.8653 11.3857 31.9353 11.9904 32.1386 12.5555C32.2402 12.5936 32.349 12.6089 32.4571 12.6002H34.5455C33.6928 11.4909 33.2284 10.1324 33.2235 8.73344C33.2235 5.17429 36.1089 2.28891 39.6681 2.28891C43.2272 2.28891 46.1126 5.17429 46.1126 8.73344C46.1078 10.1324 45.6433 11.4909 44.7908 12.6002H46.8792C46.9882 12.61 47.0983 12.594 47.2001 12.5536C47.401 11.9884 47.4698 11.3849 47.4015 10.7889V2.28891C47.4015 1.57711 47.9786 1 48.6904 1ZM43.5348 8.73344C43.5348 6.59789 41.8036 4.86672 39.6681 4.86672C37.5335 4.86914 35.8036 6.59885 35.8013 8.73344C35.8013 10.869 37.5325 12.6002 39.6681 12.6002C41.8036 12.6002 43.5348 10.869 43.5348 8.73344ZM48.6904 56.423V49.9785H30.6457V56.423H48.6904ZM49.0176 17.7558C50.9716 17.7535 52.5549 16.1701 52.5571 14.2163V3.57781H49.9793V10.7889C49.9793 12.2138 49.9793 15.178 46.8792 15.178H32.4569C29.3568 15.178 29.3568 12.2138 29.3568 10.7889V3.57781H26.779V14.2163C26.7812 16.1703 28.3647 17.7535 30.3185 17.7558H33.2235C33.9353 17.7558 34.5124 18.3329 34.5124 19.0447V47.4007H38.3792V30.6449H40.957V47.4007H44.8237V19.0447C44.8237 18.3329 45.4008 17.7558 46.1126 17.7558H49.0176ZM18.9854 20.3666C19.8541 19.2522 20.3283 17.8809 20.3336 16.468C20.3336 12.9088 17.4482 10.0234 13.8891 10.0234C10.3299 10.0234 7.44454 12.9088 7.44454 16.468C7.44985 17.8809 7.92401 19.2522 8.79273 20.3666C4.40223 20.698 1.00693 24.3537 1 28.7567V40.9574C1 41.6692 1.57711 42.2463 2.28891 42.2463H6.15563V57.7132C6.15563 58.425 6.73274 59.0021 7.44454 59.0021H20.3336C21.0454 59.0021 21.6225 58.425 21.6225 57.7132V42.2463H25.4892C26.201 42.2463 26.7781 41.6692 26.7781 40.9574V28.7567C26.7712 24.3537 23.3759 20.698 18.9854 20.3666ZM13.8891 12.6013C16.0246 12.6013 17.7558 14.3324 17.7558 16.468C17.7558 18.6035 16.0246 20.3347 13.8891 20.3347C11.7535 20.3347 10.0223 18.6035 10.0223 16.468C10.0246 14.3334 11.7545 12.6037 13.8891 12.6013ZM24.2002 39.6683H21.6225V26.7792H19.0447V56.4241H15.178V39.6683H12.6002V56.4241H8.73344V26.7792H6.15563V39.6683H3.57781V28.7566C3.58152 25.5304 6.19591 22.9162 9.42188 22.9125H18.3561C21.5822 22.9162 24.1965 25.5306 24.2002 28.7566V39.6683ZM70.542 20.3666C71.4108 19.2522 71.8849 17.8809 71.8902 16.468C71.8902 12.9088 69.0049 10.0234 65.4457 10.0234C61.8866 10.0234 59.0012 12.9088 59.0012 16.468C59.0065 17.8809 59.4806 19.2522 60.3494 20.3666C55.9589 20.698 52.5636 24.3537 52.5566 28.7567V40.9574C52.5566 41.6692 53.1337 42.2463 53.8455 42.2463H57.7123V57.7132C57.7123 58.425 58.2894 59.0021 59.0012 59.0021H71.8902C72.602 59.0021 73.1792 58.425 73.1792 57.7132V42.2463H77.0459C77.7577 42.2463 78.3348 41.6692 78.3348 40.9574V28.7567C78.3279 24.3537 74.9325 20.698 70.542 20.3666ZM65.4457 12.6013C67.5813 12.6013 69.3124 14.3324 69.3124 16.468C69.3124 18.6035 67.5813 20.3347 65.4457 20.3347C63.3102 20.3347 61.579 18.6035 61.579 16.468C61.5814 14.3334 63.3111 12.6037 65.4457 12.6013ZM75.7568 39.6683H73.1792V26.7792H70.6013V56.4241H66.7346V39.6683H64.1568V56.4241H60.2901V26.7792H57.7123V39.6683H55.1345V28.7566C55.1382 25.5304 57.7525 22.9162 60.9785 22.9125H69.9127C73.1389 22.9162 75.7531 25.5306 75.7568 28.7566V39.6683Z" fill="url(#paint0_linear)"/>
<path d="M55.1349 14.2163L55.3849 14.2166V14.2163H55.1349ZM49.0176 20.3336L49.0176 20.5836L49.0179 20.5836L49.0176 20.3336ZM47.4015 20.3336V20.0836H47.1515V20.3336H47.4015ZM47.4015 47.4007H47.1515V47.6507H47.4015V47.4007ZM31.9346 47.4007V47.6507H32.1846V47.4007H31.9346ZM31.9346 20.3336H32.1846V20.0836H31.9346V20.3336ZM30.3185 20.3336L30.3182 20.5836H30.3185V20.3336ZM24.2012 14.2163L23.9512 14.2163L23.9512 14.2166L24.2012 14.2163ZM31.9346 10.7889L32.1829 10.8178L32.1846 10.8034V10.7889H31.9346ZM32.1386 12.5555L31.9033 12.6402L31.9425 12.7491L32.051 12.7897L32.1386 12.5555ZM32.4571 12.6002V12.3502H32.4471L32.4371 12.351L32.4571 12.6002ZM34.5455 12.6002V12.8502H35.0529L34.7437 12.4478L34.5455 12.6002ZM33.2235 8.73344H32.9735L32.9735 8.73431L33.2235 8.73344ZM46.1126 8.73344L46.3626 8.73431V8.73344H46.1126ZM44.7908 12.6002L44.5926 12.4478L44.2834 12.8502H44.7908V12.6002ZM46.8792 12.6002L46.9016 12.3512L46.8904 12.3502H46.8792V12.6002ZM47.2001 12.5536L47.2924 12.7859L47.3977 12.7441L47.4357 12.6373L47.2001 12.5536ZM47.4015 10.7889H47.1515V10.8032L47.1531 10.8174L47.4015 10.7889ZM39.6681 4.86672V4.61672L39.6678 4.61672L39.6681 4.86672ZM35.8013 8.73344L35.5513 8.73318V8.73344H35.8013ZM48.6904 49.9785H48.9404V49.7285H48.6904V49.9785ZM48.6904 56.423V56.673H48.9404V56.423H48.6904ZM30.6457 49.9785V49.7285H30.3957V49.9785H30.6457ZM30.6457 56.423H30.3957V56.673H30.6457V56.423ZM52.5571 14.2163L52.8071 14.2166V14.2163H52.5571ZM49.0176 17.7558L49.0176 18.0058L49.0179 18.0058L49.0176 17.7558ZM52.5571 3.57781H52.8071V3.32781H52.5571V3.57781ZM49.9793 3.57781V3.32781H49.7293V3.57781H49.9793ZM29.3568 3.57781H29.6068V3.32781H29.3568V3.57781ZM26.779 3.57781V3.32781H26.529V3.57781H26.779ZM26.779 14.2163L26.529 14.2163L26.529 14.2166L26.779 14.2163ZM30.3185 17.7558L30.3182 18.0058H30.3185V17.7558ZM34.5124 47.4007H34.2624V47.6507H34.5124V47.4007ZM38.3792 47.4007V47.6507H38.6292V47.4007H38.3792ZM38.3792 30.6449V30.3949H38.1292V30.6449H38.3792ZM40.957 30.6449H41.207V30.3949H40.957V30.6449ZM40.957 47.4007H40.707V47.6507H40.957V47.4007ZM44.8237 47.4007V47.6507H45.0737V47.4007H44.8237ZM20.3336 16.468L20.5836 16.4689V16.468H20.3336ZM18.9854 20.3666L18.7882 20.2129L18.5015 20.5808L18.9666 20.6159L18.9854 20.3666ZM7.44454 16.468H7.19453L7.19454 16.4689L7.44454 16.468ZM8.79273 20.3666L8.81155 20.6159L9.27668 20.5808L8.9899 20.2129L8.79273 20.3666ZM1 28.7567L0.75 28.7563V28.7567H1ZM6.15563 42.2463H6.40563V41.9963H6.15563V42.2463ZM21.6225 42.2463V41.9963H21.3725V42.2463H21.6225ZM26.7781 28.7567L27.0281 28.7567L27.0281 28.7563L26.7781 28.7567ZM13.8891 12.6013L13.8891 12.3513L13.8888 12.3513L13.8891 12.6013ZM10.0223 16.468L9.77235 16.4677V16.468H10.0223ZM21.6225 39.6683H21.3725V39.9183H21.6225V39.6683ZM24.2002 39.6683V39.9183H24.4502V39.6683H24.2002ZM21.6225 26.7792H21.8725V26.5292H21.6225V26.7792ZM19.0447 26.7792V26.5292H18.7947V26.7792H19.0447ZM19.0447 56.4241V56.6741H19.2947V56.4241H19.0447ZM15.178 56.4241H14.928V56.6741H15.178V56.4241ZM15.178 39.6683H15.428V39.4183H15.178V39.6683ZM12.6002 39.6683V39.4183H12.3502V39.6683H12.6002ZM12.6002 56.4241V56.6741H12.8502V56.4241H12.6002ZM8.73344 56.4241H8.48344V56.6741H8.73344V56.4241ZM8.73344 26.7792H8.98344V26.5292H8.73344V26.7792ZM6.15563 26.7792V26.5292H5.90563V26.7792H6.15563ZM6.15563 39.6683V39.9183H6.40563V39.6683H6.15563ZM3.57781 39.6683H3.32781V39.9183H3.57781V39.6683ZM3.57781 28.7566L3.32781 28.7563V28.7566H3.57781ZM9.42188 22.9125L9.42188 22.6625L9.42159 22.6625L9.42188 22.9125ZM18.3561 22.9125L18.3564 22.6625H18.3561V22.9125ZM24.2002 28.7566L24.4502 28.7566L24.4502 28.7563L24.2002 28.7566ZM71.8902 16.468L72.1402 16.4689V16.468H71.8902ZM70.542 20.3666L70.3449 20.2129L70.0581 20.5808L70.5232 20.6159L70.542 20.3666ZM59.0012 16.468L58.7512 16.468L58.7512 16.4689L59.0012 16.468ZM60.3494 20.3666L60.3682 20.6159L60.8333 20.5808L60.5465 20.2129L60.3494 20.3666ZM52.5566 28.7567L52.3066 28.7563V28.7567H52.5566ZM57.7123 42.2463H57.9623V41.9963H57.7123V42.2463ZM73.1792 42.2463V41.9963H72.9292V42.2463H73.1792ZM78.3348 28.7567L78.5848 28.7567L78.5848 28.7563L78.3348 28.7567ZM65.4457 12.6013V12.3513L65.4454 12.3513L65.4457 12.6013ZM61.579 16.468L61.329 16.4677V16.468H61.579ZM73.1792 39.6683H72.9292V39.9183H73.1792V39.6683ZM75.7568 39.6683V39.9183H76.0068V39.6683H75.7568ZM73.1792 26.7792H73.4292V26.5292H73.1792V26.7792ZM70.6013 26.7792V26.5292H70.3513V26.7792H70.6013ZM70.6013 56.4241V56.6741H70.8513V56.4241H70.6013ZM66.7346 56.4241H66.4846V56.6741H66.7346V56.4241ZM66.7346 39.6683H66.9846V39.4183H66.7346V39.6683ZM64.1568 39.6683V39.4183H63.9068V39.6683H64.1568ZM64.1568 56.4241V56.6741H64.4068V56.4241H64.1568ZM60.2901 56.4241H60.0401V56.6741H60.2901V56.4241ZM60.2901 26.7792H60.5401V26.5292H60.2901V26.7792ZM57.7123 26.7792V26.5292H57.4623V26.7792H57.7123ZM57.7123 39.6683V39.9183H57.9623V39.6683H57.7123ZM55.1345 39.6683H54.8845V39.9183H55.1345V39.6683ZM55.1345 28.7566L54.8845 28.7563V28.7566H55.1345ZM60.9785 22.9125L60.9785 22.6625L60.9782 22.6625L60.9785 22.9125ZM69.9127 22.9125L69.913 22.6625H69.9127V22.9125ZM75.7568 28.7566H76.0068L76.0068 28.7563L75.7568 28.7566ZM53.846 0.75H48.6904V1.25H53.846V0.75ZM55.3849 2.28891C55.3849 1.43904 54.6959 0.75 53.846 0.75V1.25C54.4198 1.25 54.8849 1.71518 54.8849 2.28891H55.3849ZM55.3849 14.2163V2.28891H54.8849V14.2163H55.3849ZM49.0179 20.5836C52.5327 20.5798 55.3811 17.7314 55.3849 14.2166L54.8849 14.216C54.8814 17.4551 52.2564 20.0801 49.0174 20.0836L49.0179 20.5836ZM47.4015 20.5836H49.0176V20.0836H47.4015V20.5836ZM47.6515 47.4007V20.3336H47.1515V47.4007H47.6515ZM49.9793 47.1507H47.4015V47.6507H49.9793V47.1507ZM51.5182 48.6896C51.5182 47.8397 50.8292 47.1507 49.9793 47.1507V47.6507C50.553 47.6507 51.0182 48.1158 51.0182 48.6896H51.5182ZM51.5182 57.7119V48.6896H51.0182V57.7119H51.5182ZM49.9793 59.2508C50.8292 59.2508 51.5182 58.5618 51.5182 57.7119H51.0182C51.0182 58.2856 50.553 58.7508 49.9793 58.7508V59.2508ZM29.3568 59.2508H49.9793V58.7508H29.3568V59.2508ZM27.8179 57.7119C27.8179 58.5618 28.5069 59.2508 29.3568 59.2508V58.7508C28.7831 58.7508 28.3179 58.2856 28.3179 57.7119H27.8179ZM27.8179 48.6896V57.7119H28.3179V48.6896H27.8179ZM29.3568 47.1507C28.5069 47.1507 27.8179 47.8397 27.8179 48.6896H28.3179C28.3179 48.1158 28.7831 47.6507 29.3568 47.6507V47.1507ZM31.9346 47.1507H29.3568V47.6507H31.9346V47.1507ZM31.6846 20.3336V47.4007H32.1846V20.3336H31.6846ZM30.3185 20.5836H31.9346V20.0836H30.3185V20.5836ZM23.9512 14.2166C23.955 17.7314 26.8034 20.5798 30.3182 20.5836L30.3188 20.0836C27.0797 20.0801 24.4547 17.4551 24.4512 14.216L23.9512 14.2166ZM23.9512 2.28891V14.2163H24.4512V2.28891H23.9512ZM25.4901 0.75C24.6402 0.75 23.9512 1.43904 23.9512 2.28891H24.4512C24.4512 1.71518 24.9164 1.25 25.4901 1.25V0.75ZM30.6457 0.75H25.4901V1.25H30.6457V0.75ZM32.1846 2.28891C32.1846 1.43904 31.4956 0.75 30.6457 0.75V1.25C31.2194 1.25 31.6846 1.71518 31.6846 2.28891H32.1846ZM32.1846 10.7889V2.28891H31.6846V10.7889H32.1846ZM32.3738 12.4709C32.1835 11.942 32.1181 11.3762 32.1829 10.8178L31.6863 10.7601C31.6125 11.3952 31.687 12.0387 31.9033 12.6402L32.3738 12.4709ZM32.4371 12.351C32.3657 12.3567 32.2937 12.3466 32.2262 12.3214L32.051 12.7897C32.1868 12.8405 32.3323 12.861 32.4772 12.8494L32.4371 12.351ZM34.5455 12.3502H32.4571V12.8502H34.5455V12.3502ZM32.9735 8.73431C32.9785 10.1881 33.4612 11.5998 34.3472 12.7525L34.7437 12.4478C33.9244 11.382 33.4782 10.0767 33.4735 8.73258L32.9735 8.73431ZM39.6681 2.03891C35.9708 2.03891 32.9735 5.03622 32.9735 8.73344H33.4735C33.4735 5.31236 36.247 2.53891 39.6681 2.53891V2.03891ZM46.3626 8.73344C46.3626 5.03622 43.3653 2.03891 39.6681 2.03891V2.53891C43.0891 2.53891 45.8626 5.31236 45.8626 8.73344H46.3626ZM44.989 12.7525C45.8749 11.5998 46.3576 10.1881 46.3626 8.73431L45.8626 8.73258C45.858 10.0767 45.4117 11.382 44.5926 12.4478L44.989 12.7525ZM46.8792 12.3502H44.7908V12.8502H46.8792V12.3502ZM47.1078 12.3213C47.0424 12.3472 46.9717 12.3575 46.9016 12.3512L46.8567 12.8492C47.0048 12.8625 47.1541 12.8409 47.2924 12.7859L47.1078 12.3213ZM47.1531 10.8174C47.2171 11.3755 47.1527 11.9407 46.9645 12.4699L47.4357 12.6373C47.6494 12.0362 47.7225 11.3943 47.6499 10.7605L47.1531 10.8174ZM47.1515 2.28891V10.7889H47.6515V2.28891H47.1515ZM48.6904 0.75C47.8405 0.75 47.1515 1.43904 47.1515 2.28891H47.6515C47.6515 1.71518 48.1167 1.25 48.6904 1.25V0.75ZM39.6681 5.11672C41.6655 5.11672 43.2848 6.73596 43.2848 8.73344H43.7848C43.7848 6.45981 41.9417 4.61672 39.6681 4.61672V5.11672ZM36.0513 8.73371C36.0534 6.737 37.6716 5.11898 39.6683 5.11672L39.6678 4.61672C37.3954 4.61929 35.5537 6.46071 35.5513 8.73318L36.0513 8.73371ZM39.6681 12.3502C37.6706 12.3502 36.0513 10.7309 36.0513 8.73344H35.5513C35.5513 11.0071 37.3944 12.8502 39.6681 12.8502V12.3502ZM43.2848 8.73344C43.2848 10.7309 41.6655 12.3502 39.6681 12.3502V12.8502C41.9417 12.8502 43.7848 11.0071 43.7848 8.73344H43.2848ZM48.4404 49.9785V56.423H48.9404V49.9785H48.4404ZM30.6457 50.2285H48.6904V49.7285H30.6457V50.2285ZM30.8957 56.423V49.9785H30.3957V56.423H30.8957ZM48.6904 56.173H30.6457V56.673H48.6904V56.173ZM52.3071 14.216C52.305 16.032 50.8335 17.5037 49.0173 17.5058L49.0179 18.0058C51.1098 18.0034 52.8047 16.3082 52.8071 14.2166L52.3071 14.216ZM52.3071 3.57781V14.2163H52.8071V3.57781H52.3071ZM49.9793 3.82781H52.5571V3.32781H49.9793V3.82781ZM50.2293 10.7889V3.57781H49.7293V10.7889H50.2293ZM46.8792 15.428C47.6953 15.428 48.3284 15.2323 48.8132 14.8985C49.2972 14.5652 49.6145 14.1075 49.8222 13.6149C50.2325 12.6417 50.2293 11.4931 50.2293 10.7889H49.7293C49.7293 11.5096 49.7262 12.5556 49.3614 13.4207C49.1816 13.8472 48.9176 14.2196 48.5297 14.4866C48.1426 14.7531 47.6131 14.928 46.8792 14.928V15.428ZM32.4569 15.428H46.8792V14.928H32.4569V15.428ZM29.1068 10.7889C29.1068 11.4931 29.1036 12.6417 29.514 13.6149C29.7216 14.1075 30.0389 14.5652 30.5229 14.8985C31.0077 15.2323 31.6408 15.428 32.4569 15.428V14.928C31.723 14.928 31.1935 14.7531 30.8064 14.4866C30.4186 14.2196 30.1545 13.8472 29.9747 13.4207C29.61 12.5556 29.6068 11.5096 29.6068 10.7889H29.1068ZM29.1068 3.57781V10.7889H29.6068V3.57781H29.1068ZM26.779 3.82781H29.3568V3.32781H26.779V3.82781ZM27.029 14.2163V3.57781H26.529V14.2163H27.029ZM30.3188 17.5058C28.5028 17.5037 27.0311 16.0321 27.029 14.216L26.529 14.2166C26.5314 16.3084 28.2265 18.0034 30.3182 18.0058L30.3188 17.5058ZM33.2235 17.5058H30.3185V18.0058H33.2235V17.5058ZM34.7624 19.0447C34.7624 18.1948 34.0734 17.5058 33.2235 17.5058V18.0058C33.7973 18.0058 34.2624 18.471 34.2624 19.0447H34.7624ZM34.7624 47.4007V19.0447H34.2624V47.4007H34.7624ZM38.3792 47.1507H34.5124V47.6507H38.3792V47.1507ZM38.1292 30.6449V47.4007H38.6292V30.6449H38.1292ZM40.957 30.3949H38.3792V30.8949H40.957V30.3949ZM41.207 47.4007V30.6449H40.707V47.4007H41.207ZM44.8237 47.1507H40.957V47.6507H44.8237V47.1507ZM44.5737 19.0447V47.4007H45.0737V19.0447H44.5737ZM46.1126 17.5058C45.2627 17.5058 44.5737 18.1948 44.5737 19.0447H45.0737C45.0737 18.471 45.5389 18.0058 46.1126 18.0058V17.5058ZM49.0176 17.5058H46.1126V18.0058H49.0176V17.5058ZM20.0836 16.467C20.0785 17.8246 19.6229 19.1421 18.7882 20.2129L19.1826 20.5203C20.0853 19.3622 20.5781 17.9372 20.5836 16.4689L20.0836 16.467ZM13.8891 10.2734C17.3102 10.2734 20.0836 13.0469 20.0836 16.468H20.5836C20.5836 12.7707 17.5863 9.77344 13.8891 9.77344V10.2734ZM7.69454 16.468C7.69454 13.0469 10.468 10.2734 13.8891 10.2734V9.77344C10.1918 9.77344 7.19454 12.7707 7.19454 16.468H7.69454ZM8.9899 20.2129C8.15522 19.1421 7.69964 17.8246 7.69453 16.467L7.19454 16.4689C7.20006 17.9372 7.6928 19.3622 8.59556 20.5203L8.9899 20.2129ZM1.25 28.7571C1.25672 24.4847 4.55131 20.9375 8.81155 20.6159L8.77391 20.1173C4.25316 20.4585 0.757134 24.2227 0.75 28.7563L1.25 28.7571ZM1.25 40.9574V28.7567H0.75V40.9574H1.25ZM2.28891 41.9963C1.71518 41.9963 1.25 41.5311 1.25 40.9574H0.75C0.75 41.8072 1.43904 42.4963 2.28891 42.4963V41.9963ZM6.15563 41.9963H2.28891V42.4963H6.15563V41.9963ZM6.40563 57.7132V42.2463H5.90563V57.7132H6.40563ZM7.44454 58.7521C6.87081 58.7521 6.40563 58.2869 6.40563 57.7132H5.90563C5.90563 58.563 6.59466 59.2521 7.44454 59.2521V58.7521ZM20.3336 58.7521H7.44454V59.2521H20.3336V58.7521ZM21.3725 57.7132C21.3725 58.2869 20.9073 58.7521 20.3336 58.7521V59.2521C21.1835 59.2521 21.8725 58.563 21.8725 57.7132H21.3725ZM21.3725 42.2463V57.7132H21.8725V42.2463H21.3725ZM25.4892 41.9963H21.6225V42.4963H25.4892V41.9963ZM26.5281 40.9574C26.5281 41.5311 26.063 41.9963 25.4892 41.9963V42.4963C26.3391 42.4963 27.0281 41.8072 27.0281 40.9574H26.5281ZM26.5281 28.7567V40.9574H27.0281V28.7567H26.5281ZM18.9666 20.6159C23.2268 20.9375 26.5214 24.4847 26.5281 28.7571L27.0281 28.7563C27.021 24.2227 23.525 20.4585 19.0042 20.1173L18.9666 20.6159ZM18.0058 16.468C18.0058 14.1943 16.1627 12.3513 13.8891 12.3513V12.8513C15.8866 12.8513 17.5058 14.4705 17.5058 16.468H18.0058ZM13.8891 20.5847C16.1627 20.5847 18.0058 18.7416 18.0058 16.468H17.5058C17.5058 18.4655 15.8866 20.0847 13.8891 20.0847V20.5847ZM9.77235 16.468C9.77235 18.7416 11.6154 20.5847 13.8891 20.5847V20.0847C11.8916 20.0847 10.2723 18.4655 10.2723 16.468H9.77235ZM13.8888 12.3513C11.6164 12.3538 9.77475 14.1952 9.77235 16.4677L10.2723 16.4682C10.2745 14.4715 11.8926 12.8535 13.8894 12.8513L13.8888 12.3513ZM21.6225 39.9183H24.2002V39.4183H21.6225V39.9183ZM21.3725 26.7792V39.6683H21.8725V26.7792H21.3725ZM19.0447 27.0292H21.6225V26.5292H19.0447V27.0292ZM19.2947 56.4241V26.7792H18.7947V56.4241H19.2947ZM15.178 56.6741H19.0447V56.1741H15.178V56.6741ZM14.928 39.6683V56.4241H15.428V39.6683H14.928ZM12.6002 39.9183H15.178V39.4183H12.6002V39.9183ZM12.8502 56.4241V39.6683H12.3502V56.4241H12.8502ZM8.73344 56.6741H12.6002V56.1741H8.73344V56.6741ZM8.48344 26.7792V56.4241H8.98344V26.7792H8.48344ZM6.15563 27.0292H8.73344V26.5292H6.15563V27.0292ZM6.40563 39.6683V26.7792H5.90563V39.6683H6.40563ZM3.57781 39.9183H6.15563V39.4183H3.57781V39.9183ZM3.32781 28.7566V39.6683H3.82781V28.7566H3.32781ZM9.42159 22.6625C6.05778 22.6664 3.33168 25.3923 3.32781 28.7563L3.82781 28.7569C3.83136 25.6686 6.33404 23.1661 9.42217 23.1625L9.42159 22.6625ZM18.3561 22.6625H9.42188V23.1625H18.3561V22.6625ZM24.4502 28.7563C24.4463 25.3925 21.7204 22.6664 18.3564 22.6625L18.3558 23.1625C21.4441 23.1661 23.9466 25.6687 23.9502 28.7569L24.4502 28.7563ZM24.4502 39.6683V28.7566H23.9502V39.6683H24.4502ZM71.6402 16.467C71.6351 17.8246 71.1796 19.1421 70.3449 20.2129L70.7392 20.5203C71.642 19.3622 72.1347 17.9372 72.1402 16.4689L71.6402 16.467ZM65.4457 10.2734C68.8668 10.2734 71.6402 13.0469 71.6402 16.468H72.1402C72.1402 12.7707 69.1429 9.77344 65.4457 9.77344V10.2734ZM59.2512 16.468C59.2512 13.0469 62.0246 10.2734 65.4457 10.2734V9.77344C61.7485 9.77344 58.7512 12.7707 58.7512 16.468H59.2512ZM60.5465 20.2129C59.7119 19.1421 59.2563 17.8246 59.2512 16.467L58.7512 16.4689C58.7567 17.9372 59.2494 19.3622 60.1522 20.5203L60.5465 20.2129ZM52.8066 28.7571C52.8134 24.4847 56.1079 20.9375 60.3682 20.6159L60.3306 20.1173C55.8098 20.4585 52.3138 24.2227 52.3066 28.7563L52.8066 28.7571ZM52.8066 40.9574V28.7567H52.3066V40.9574H52.8066ZM53.8455 41.9963C53.2718 41.9963 52.8066 41.5311 52.8066 40.9574H52.3066C52.3066 41.8072 52.9957 42.4963 53.8455 42.4963V41.9963ZM57.7123 41.9963H53.8455V42.4963H57.7123V41.9963ZM57.9623 57.7132V42.2463H57.4623V57.7132H57.9623ZM59.0012 58.7521C58.4274 58.7521 57.9623 58.2869 57.9623 57.7132H57.4623C57.4623 58.563 58.1513 59.2521 59.0012 59.2521V58.7521ZM71.8902 58.7521H59.0012V59.2521H71.8902V58.7521ZM72.9292 57.7132C72.9292 58.2869 72.464 58.7521 71.8902 58.7521V59.2521C72.7401 59.2521 73.4292 58.563 73.4292 57.7132H72.9292ZM72.9292 42.2463V57.7132H73.4292V42.2463H72.9292ZM77.0459 41.9963H73.1792V42.4963H77.0459V41.9963ZM78.0848 40.9574C78.0848 41.5311 77.6196 41.9963 77.0459 41.9963V42.4963C77.8957 42.4963 78.5848 41.8072 78.5848 40.9574H78.0848ZM78.0848 28.7567V40.9574H78.5848V28.7567H78.0848ZM70.5232 20.6159C74.7835 20.9375 78.0781 24.4847 78.0848 28.7571L78.5848 28.7563C78.5776 24.2227 75.0816 20.4585 70.5609 20.1173L70.5232 20.6159ZM69.5624 16.468C69.5624 14.1943 67.7193 12.3513 65.4457 12.3513V12.8513C67.4432 12.8513 69.0624 14.4705 69.0624 16.468H69.5624ZM65.4457 20.5847C67.7193 20.5847 69.5624 18.7416 69.5624 16.468H69.0624C69.0624 18.4655 67.4432 20.0847 65.4457 20.0847V20.5847ZM61.329 16.468C61.329 18.7416 63.1721 20.5847 65.4457 20.5847V20.0847C63.4482 20.0847 61.829 18.4655 61.829 16.468H61.329ZM65.4454 12.3513C63.173 12.3538 61.3316 14.1952 61.329 16.4677L61.829 16.4683C61.8312 14.4715 63.4493 12.8535 65.446 12.8513L65.4454 12.3513ZM73.1792 39.9183H75.7568V39.4183H73.1792V39.9183ZM72.9292 26.7792V39.6683H73.4292V26.7792H72.9292ZM70.6013 27.0292H73.1792V26.5292H70.6013V27.0292ZM70.8513 56.4241V26.7792H70.3513V56.4241H70.8513ZM66.7346 56.6741H70.6013V56.1741H66.7346V56.6741ZM66.4846 39.6683V56.4241H66.9846V39.6683H66.4846ZM64.1568 39.9183H66.7346V39.4183H64.1568V39.9183ZM64.4068 56.4241V39.6683H63.9068V56.4241H64.4068ZM60.2901 56.6741H64.1568V56.1741H60.2901V56.6741ZM60.0401 26.7792V56.4241H60.5401V26.7792H60.0401ZM57.7123 27.0292H60.2901V26.5292H57.7123V27.0292ZM57.9623 39.6683V26.7792H57.4623V39.6683H57.9623ZM55.1345 39.9183H57.7123V39.4183H55.1345V39.9183ZM54.8845 28.7566V39.6683H55.3845V28.7566H54.8845ZM60.9782 22.6625C57.6144 22.6664 54.8883 25.3923 54.8845 28.7563L55.3845 28.7569C55.388 25.6686 57.8907 23.1661 60.9788 23.1625L60.9782 22.6625ZM69.9127 22.6625H60.9785V23.1625H69.9127V22.6625ZM76.0068 28.7563C76.0029 25.3925 73.277 22.6664 69.913 22.6625L69.9124 23.1625C73.0007 23.1661 75.5033 25.6687 75.5068 28.7569L76.0068 28.7563ZM76.0068 39.6683V28.7566H75.5068V39.6683H76.0068Z" fill="url(#paint1_linear)"/>
<defs>
<linearGradient id="paint0_linear" x1="78.3348" y1="30.001" x2="1" y2="30.001" gradientUnits="userSpaceOnUse">
<stop stop-color="#06EA84"/>
<stop offset="1" stop-color="#2BC47B"/>
</linearGradient>
<linearGradient id="paint1_linear" x1="78.3348" y1="30.001" x2="1" y2="30.001" gradientUnits="userSpaceOnUse">
<stop stop-color="#06EA84"/>
<stop offset="1" stop-color="#2BC47B"/>
</linearGradient>
</defs>
</svg>
