<svg width="47" height="58" viewBox="0 0 47 58" fill="none" xmlns="http://www.w3.org/2000/svg">
<path fill-rule="evenodd" clip-rule="evenodd" d="M9.65334 19.4586C10.2376 19.6517 10.8674 19.3351 11.0601 18.7509C12.8084 13.4634 17.727 9.91112 23.2999 9.91112C30.4066 9.91112 36.1886 15.6928 36.1886 22.7999C36.1886 28.2927 33.7282 31.5744 31.7516 34.2114C30.3135 36.1293 29.0715 37.7862 29.0715 39.7955C29.0715 39.9278 29.0698 40.0587 29.0667 40.1888H24.4135V37.6305C24.4135 37.0154 23.915 36.5169 23.2999 36.5169C22.6848 36.5169 22.1863 37.0154 22.1863 37.6305V40.1888H17.5326C17.5295 40.0587 17.5278 39.9278 17.5278 39.7955C17.5278 37.7858 16.2859 36.1293 14.8477 34.2109C13.3918 32.2686 11.7418 30.0671 10.9236 26.9389C10.7678 26.3439 10.1588 25.9876 9.56416 26.1433C8.96951 26.2986 8.61324 26.9076 8.76898 27.5023C9.69771 31.0532 11.5652 33.5449 13.066 35.5468C14.3144 37.2125 15.3006 38.5279 15.3006 39.7955C15.3006 40.3288 15.3232 40.8491 15.3671 41.3454V50.765C15.3671 50.795 15.3693 50.8242 15.3715 50.8533C15.3723 50.8603 15.3719 50.8677 15.3728 50.8746C15.3767 50.916 15.3832 50.956 15.3915 50.996C15.7782 52.81 16.7683 54.4604 18.1803 55.6414C19.6193 56.8455 21.4376 57.5085 23.2999 57.5085C25.1621 57.5085 26.98 56.8455 28.4194 55.6414C29.831 54.4604 30.8215 52.8109 31.2078 50.9969C31.2078 50.9965 31.2083 50.996 31.2083 50.9956C31.2165 50.956 31.2226 50.916 31.227 50.8746C31.2274 50.8677 31.2274 50.8603 31.2278 50.8533C31.23 50.8238 31.2322 50.7946 31.2322 50.7646V41.3454C31.2761 40.8491 31.2992 40.3288 31.2992 39.7955C31.2992 38.5279 32.2853 37.2125 33.5338 35.5468C35.594 32.7985 38.4159 29.0348 38.4159 22.7999C38.4159 14.4647 31.6346 7.68389 23.2999 7.68389C16.7644 7.68389 10.9962 11.8504 8.94559 18.0518C8.75245 18.6356 9.06956 19.2655 9.65334 19.4586ZM23.2999 55.2812C21.0357 55.2812 18.9938 53.9119 18.0263 51.8782H28.5734C27.6056 53.9119 25.5636 55.2812 23.2999 55.2812ZM29.0054 49.651H17.5944V47.1471H29.0054V49.651ZM29.0054 44.9199H17.5944V42.416H29.0054V44.9199Z" fill="url(#paint0_linear)"/>
<path fill-rule="evenodd" clip-rule="evenodd" d="M8.47891 17.8975C10.5961 11.4946 16.5525 7.19237 23.2999 7.19237C31.906 7.19237 38.9074 14.1933 38.9074 22.7999C38.9074 29.1978 36.0034 33.0718 33.9357 35.8302L33.9271 35.8416C33.2975 36.6815 32.7587 37.4016 32.3737 38.0667C31.9889 38.7315 31.7907 39.2879 31.7907 39.7955C31.7907 40.3351 31.7677 40.8624 31.7237 41.367V50.7646C31.7237 50.8111 31.7206 50.8544 31.7186 50.8817L31.7184 50.8881L31.7175 50.9053L31.7169 50.9157L31.7158 50.9261C31.7117 50.9652 31.7063 51.0045 31.6994 51.0442V51.0486L31.6927 51.0799C31.6919 51.0838 31.6911 51.0878 31.6903 51.0917C31.6897 51.0948 31.6891 51.0978 31.6884 51.1008C31.6877 51.1043 31.6869 51.1077 31.6861 51.111C31.2753 53.027 30.2283 54.7689 28.7349 56.0184C27.2077 57.2959 25.2784 58 23.2999 58C21.3214 58 19.3916 57.2959 17.8649 56.0184C16.3679 54.7663 15.3202 53.0197 14.9108 51.0994L14.9 51.0487V51.0424C14.8935 51.0053 14.8879 50.9662 14.8838 50.9251C14.8825 50.9128 14.8819 50.9026 14.8815 50.8956L14.8812 50.888C14.8792 50.8612 14.8756 50.8151 14.8756 50.765V41.367C14.8316 40.8621 14.809 40.3348 14.809 39.7955C14.809 39.2879 14.6109 38.7315 14.226 38.0667C13.8411 37.4016 13.3022 36.6816 12.6727 35.8417C12.6727 35.8416 12.6727 35.8417 12.6727 35.8417L12.6624 35.828C11.1634 33.8285 9.24691 31.272 8.29348 27.6268C8.06903 26.7697 8.58221 25.8919 9.43964 25.6678C10.297 25.4433 11.1746 25.9569 11.3991 26.8145C12.1902 29.8391 13.7834 31.9716 15.241 33.9161C15.241 33.9161 15.241 33.9161 15.241 33.9161L15.2993 33.9939C16.6684 35.8197 17.9791 37.5677 18.0184 39.6972H21.6947V37.6305C21.6947 36.7439 22.4133 36.0254 23.2999 36.0254C24.1864 36.0254 24.905 36.7439 24.905 37.6305V39.6972H28.5809C28.6202 37.5673 29.9319 35.8184 31.3015 33.9923L31.3583 33.9165C31.3583 33.9165 31.3583 33.9166 31.3583 33.9165C33.3282 31.2885 35.6971 28.1197 35.6971 22.7999C35.6971 15.9642 30.1351 10.4026 23.2999 10.4026C17.9388 10.4026 13.2085 13.8192 11.5268 18.9052C11.2488 19.7474 10.3407 20.2035 9.49905 19.9253C8.65786 19.647 8.20046 18.7392 8.47891 17.8975ZM9.80773 18.992C10.1344 19.0999 10.4859 18.9228 10.5934 18.5969C12.4083 13.1079 17.5152 9.41959 23.2999 9.41959C30.678 9.41959 36.6802 15.4213 36.6802 22.7999C36.6802 28.4558 34.137 31.8485 32.1551 34.4925L32.1449 34.5062C30.6796 36.4603 29.563 37.9811 29.563 39.7955C29.563 39.9321 29.5612 40.0669 29.5581 40.2003L29.5469 40.6803H23.922V37.6305C23.922 37.2869 23.6435 37.0084 23.2999 37.0084C22.9562 37.0084 22.6778 37.2869 22.6778 37.6305V40.6803H17.0524L17.0412 40.2003C17.0381 40.0669 17.0363 39.9321 17.0363 39.7955C17.0363 37.9806 15.9198 36.4604 14.4544 34.5057L14.4416 34.4886C12.9901 32.5522 11.2909 30.2855 10.448 27.0633C10.361 26.7308 10.0206 26.5319 9.68869 26.6188C9.35701 26.7054 9.15749 27.0456 9.24446 27.3778C10.1464 30.8261 11.9582 33.2498 13.4592 35.252L13.4731 35.2705C14.0868 36.0892 14.6597 36.8536 15.0768 37.5742C15.4972 38.3004 15.7921 39.0355 15.7921 39.7955C15.7921 40.3151 15.8141 40.8209 15.8567 41.3021L15.8587 41.3237V50.765C15.8587 50.7732 15.8592 50.7834 15.8612 50.8106C15.862 50.8194 15.8625 50.8269 15.8628 50.8324L15.8629 50.836C15.8649 50.8538 15.8681 50.8734 15.8729 50.8966L15.8772 50.9174C16.2446 52.6159 17.1746 54.1595 18.4957 55.2644C19.8469 56.3951 21.5539 57.0169 23.2999 57.0169C25.0458 57.0169 26.7523 56.3952 28.104 55.2645C29.4298 54.1552 30.3622 52.604 30.7263 50.898C30.7268 50.8959 30.7272 50.8938 30.7277 50.8917C30.7281 50.8899 30.7285 50.888 30.7289 50.8863C30.7319 50.871 30.7344 50.8548 30.7365 50.8373L30.7373 50.8227L30.7376 50.8173C30.74 50.7845 30.7407 50.7735 30.7407 50.7646V41.3237L30.7426 41.3021C30.7852 40.8206 30.8077 40.3148 30.8077 39.7955C30.8077 39.0355 31.1026 38.3004 31.5229 37.5742C31.94 36.8536 32.513 36.0892 33.1266 35.2705L33.1405 35.252C35.1926 32.5144 37.9243 28.8629 37.9243 22.7999C37.9243 14.7362 31.3631 8.17542 23.2999 8.17542C16.9762 8.17542 11.3963 12.2061 9.41226 18.2061C9.30448 18.5319 9.48139 18.884 9.80773 18.992ZM17.1028 41.9245H29.4969V45.4114H17.1028V41.9245ZM18.0859 42.9075V44.4283H28.5139V42.9075H18.0859ZM17.1028 46.6556H29.4969V50.1425H17.1028V46.6556ZM18.0859 47.6386V49.1595H28.5139V47.6386H18.0859ZM17.2482 51.3867H29.3517L29.0173 52.0894C27.9729 54.2839 25.7646 55.7728 23.2999 55.7728C20.8348 55.7728 18.6264 54.2839 17.5825 52.0894L17.2482 51.3867ZM18.8693 52.3697C19.8558 53.8459 21.5069 54.7897 23.2999 54.7897C25.0924 54.7897 26.7435 53.846 27.7303 52.3697H18.8693Z" fill="url(#paint1_linear)"/>
<path fill-rule="evenodd" clip-rule="evenodd" d="M23.2999 5.68592C23.915 5.68592 24.4135 5.1874 24.4135 4.57231V1.60514C24.4135 0.990041 23.915 0.491525 23.2999 0.491525C22.6848 0.491525 22.1863 0.990041 22.1863 1.60514V4.57231C22.1863 5.1874 22.6848 5.68592 23.2999 5.68592Z" fill="url(#paint2_linear)"/>
<path fill-rule="evenodd" clip-rule="evenodd" d="M21.6947 1.60514C21.6947 0.718579 22.4133 0 23.2999 0C24.1864 0 24.905 0.718579 24.905 1.60514V4.57231C24.905 5.45886 24.1864 6.17744 23.2999 6.17744C22.4133 6.17744 21.6947 5.45886 21.6947 4.57231V1.60514ZM23.2999 0.983051C22.9562 0.983051 22.6778 1.2615 22.6778 1.60514V4.57231C22.6778 4.91594 22.9562 5.19439 23.2999 5.19439C23.6435 5.19439 23.922 4.91594 23.922 4.57231V1.60514C23.922 1.2615 23.6435 0.983051 23.2999 0.983051Z" fill="url(#paint3_linear)"/>
<path fill-rule="evenodd" clip-rule="evenodd" d="M2.10514 23.9135H5.07231C5.6874 23.9135 6.18592 23.415 6.18592 22.7999C6.18592 22.1848 5.6874 21.6863 5.07231 21.6863H2.10514C1.49004 21.6863 0.991525 22.1848 0.991525 22.7999C0.991525 23.415 1.49004 23.9135 2.10514 23.9135Z" fill="url(#paint4_linear)"/>
<path fill-rule="evenodd" clip-rule="evenodd" d="M0.5 22.7999C0.5 21.9133 1.21858 21.1947 2.10514 21.1947H5.07231C5.95886 21.1947 6.67744 21.9133 6.67744 22.7999C6.67744 23.6864 5.95886 24.405 5.07231 24.405H2.10514C1.21858 24.405 0.5 23.6864 0.5 22.7999ZM2.10514 22.1778C1.7615 22.1778 1.48305 22.4562 1.48305 22.7999C1.48305 23.1435 1.7615 23.422 2.10514 23.422H5.07231C5.41594 23.422 5.69439 23.1435 5.69439 22.7999C5.69439 22.4562 5.41594 22.1778 5.07231 22.1778H2.10514Z" fill="url(#paint5_linear)"/>
<path fill-rule="evenodd" clip-rule="evenodd" d="M28.3986 25.0497C28.3986 24.4346 27.9001 23.9361 27.285 23.9361H19.3148C18.6997 23.9361 18.2012 24.4346 18.2012 25.0497C18.2012 25.6648 18.6997 26.1633 19.3148 26.1633H22.1863V28.7216C22.1863 29.3367 22.6848 29.8352 23.2999 29.8352C23.915 29.8352 24.4135 29.3367 24.4135 28.7216V26.1633H27.285C27.9001 26.1633 28.3986 25.6648 28.3986 25.0497Z" fill="url(#paint6_linear)"/>
<path fill-rule="evenodd" clip-rule="evenodd" d="M17.7097 25.0497C17.7097 24.1632 18.4282 23.4446 19.3148 23.4446H27.285C28.1715 23.4446 28.8901 24.1632 28.8901 25.0497C28.8901 25.9363 28.1715 26.6549 27.285 26.6549H24.905V28.7216C24.905 29.6082 24.1864 30.3267 23.2999 30.3267C22.4133 30.3267 21.6947 29.6082 21.6947 28.7216V26.6549H19.3148C18.4282 26.6549 17.7097 25.9363 17.7097 25.0497ZM19.3148 24.4276C18.9712 24.4276 18.6927 24.7061 18.6927 25.0497C18.6927 25.3934 18.9712 25.6718 19.3148 25.6718H22.6778V28.7216C22.6778 29.0652 22.9562 29.3437 23.2999 29.3437C23.6435 29.3437 23.922 29.0652 23.922 28.7216V25.6718H27.285C27.6286 25.6718 27.907 25.3934 27.907 25.0497C27.907 24.7061 27.6286 24.4276 27.285 24.4276H19.3148Z" fill="url(#paint7_linear)"/>
<path fill-rule="evenodd" clip-rule="evenodd" d="M9.62376 10.6985C9.84126 10.916 10.1262 11.0247 10.4111 11.0247C10.696 11.0247 10.981 10.916 11.1985 10.6985C11.6335 10.2635 11.6335 9.55833 11.1985 9.12376L9.10045 7.02573C8.66545 6.59073 7.9603 6.59073 7.5253 7.02573C7.09073 7.4603 7.09073 8.16545 7.5253 8.60045L9.62376 10.6985Z" fill="url(#paint8_linear)"/>
<path fill-rule="evenodd" clip-rule="evenodd" d="M7.17774 6.67817C7.80469 6.05121 8.82105 6.05121 9.44801 6.67817L11.5459 8.77603C11.5459 8.77608 11.5458 8.77597 11.5459 8.77603C12.173 9.4027 12.1728 10.4192 11.546 11.046C11.2327 11.3594 10.8212 11.5163 10.4111 11.5163C10.0011 11.5163 9.58955 11.3594 9.27624 11.0461C9.27622 11.0461 9.27625 11.0461 9.27624 11.0461L7.17777 8.94805C6.55158 8.32123 6.55112 7.30479 7.17774 6.67817ZM8.75289 7.37329C8.50984 7.13024 8.11591 7.13024 7.87286 7.37329C7.63036 7.61579 7.63009 8.00979 7.87296 8.25299C7.87298 8.25301 7.87293 8.25296 7.87296 8.25299L9.97129 10.3509C10.093 10.4726 10.2513 10.5332 10.4111 10.5332C10.5709 10.5332 10.7292 10.4726 10.8509 10.3509C11.0941 10.1078 11.0938 9.71398 10.8511 9.4715L8.75289 7.37329Z" fill="url(#paint9_linear)"/>
<path fill-rule="evenodd" clip-rule="evenodd" d="M7.54487 39.6685C7.8298 39.6685 8.11473 39.5597 8.33223 39.3422L10.4303 37.2442C10.8653 36.8092 10.8653 36.1045 10.4303 35.6695C9.99526 35.2345 9.29011 35.2345 8.85554 35.6695L6.75708 37.7675C6.32251 38.2025 6.32251 38.9077 6.75708 39.3422C6.97458 39.5597 7.25951 39.6685 7.54487 39.6685Z" fill="url(#paint10_linear)"/>
<path fill-rule="evenodd" clip-rule="evenodd" d="M8.50802 35.3219C9.13469 34.6948 10.151 34.6951 10.7778 35.3219C11.4048 35.9489 11.4048 36.9648 10.7778 37.5918L8.67979 39.6898C8.36648 40.0031 7.95493 40.16 7.54487 40.16C7.13448 40.16 6.7229 40.0032 6.40952 39.6898C5.7829 39.0632 5.78315 38.047 6.40934 37.4201L8.50802 35.3219C8.50795 35.322 8.50809 35.3218 8.50802 35.3219ZM10.0827 36.0171C9.83955 35.7739 9.44576 35.7742 9.20328 36.0169L7.10481 38.1149C6.86208 38.3581 6.86219 38.7522 7.10464 38.9947C7.22626 39.1163 7.38454 39.177 7.54487 39.177C7.70467 39.177 7.86298 39.1164 7.98467 38.9947L10.0827 36.8966C10.3258 36.6536 10.3258 36.2601 10.0827 36.0171Z" fill="url(#paint11_linear)"/>
<path fill-rule="evenodd" clip-rule="evenodd" d="M36.1886 11.0247C36.4736 11.0247 36.7585 10.916 36.976 10.6985L39.074 8.60045C39.509 8.16545 39.509 7.4603 39.074 7.0253C38.6395 6.59029 37.9343 6.59073 37.4993 7.0253L35.4013 9.12333C34.9663 9.55833 34.9663 10.2635 35.4008 10.6985C35.6183 10.916 35.9037 11.0247 36.1886 11.0247Z" fill="url(#paint12_linear)"/>
<path fill-rule="evenodd" clip-rule="evenodd" d="M39.4216 6.67774C38.7947 6.0504 37.7785 6.05165 37.1519 6.67756L39.4216 6.67774ZM39.4216 6.67774C40.0484 7.30471 40.0485 8.32111 39.4216 8.94801L37.3236 11.046C37.0102 11.3594 36.5987 11.5163 36.1886 11.5163C35.7788 11.5163 35.3667 11.3595 35.0533 11.046C34.427 10.4191 34.4268 9.40269 35.0537 8.77576L37.1519 6.67756M37.8468 7.37294L35.7488 9.47089C35.5058 9.71394 35.5058 10.108 35.7485 10.351C35.7485 10.351 35.7485 10.351 35.7485 10.351M35.7485 10.351C35.87 10.4725 36.0287 10.5332 36.1886 10.5332C36.3484 10.5332 36.5067 10.4726 36.6284 10.3509L38.7265 8.25289C38.9695 8.00984 38.9695 7.61591 38.7265 7.37286C38.4843 7.13041 38.0902 7.12994 37.8468 7.37294" fill="url(#paint13_linear)"/>
<path fill-rule="evenodd" clip-rule="evenodd" d="M36.1695 35.6695C35.7345 36.1041 35.7345 36.8092 36.1695 37.2442L38.2675 39.3422C38.485 39.5597 38.77 39.6685 39.0549 39.6685C39.3398 39.6685 39.6247 39.5597 39.8422 39.3422C40.2772 38.9077 40.2772 38.2025 39.8422 37.7675L37.7442 35.6695C37.3092 35.2345 36.6041 35.2345 36.1695 35.6695Z" fill="url(#paint14_linear)"/>
<path fill-rule="evenodd" clip-rule="evenodd" d="M35.8219 35.3219C36.4486 34.6948 37.465 34.6951 38.0918 35.3219L40.1898 37.42C40.8166 38.0468 40.8169 39.0631 40.1898 39.6898M40.1898 39.6898C39.8765 40.003 39.4649 40.16 39.0549 40.16C38.6448 40.16 38.2333 40.0031 37.92 39.6898L35.8219 37.5918C35.1951 36.965 35.1948 35.9486 35.8219 35.3219M37.3967 36.0171C37.1535 35.7739 36.7597 35.7742 36.5172 36.0169C36.2745 36.2594 36.2739 36.6535 36.5171 36.8966L38.6151 38.9947C38.7368 39.1164 38.8951 39.177 39.0549 39.177C39.2147 39.177 39.373 39.1164 39.4947 38.9947C39.7374 38.7522 39.7378 38.3582 39.4947 38.1151L37.3967 36.0171Z" fill="url(#paint15_linear)"/>
<path fill-rule="evenodd" clip-rule="evenodd" d="M41.5275 23.9135H44.4946C45.1097 23.9135 45.6082 23.415 45.6082 22.7999C45.6082 22.1848 45.1097 21.6863 44.4946 21.6863H41.5275C40.9124 21.6863 40.4138 22.1848 40.4138 22.7999C40.4138 23.415 40.9124 23.9135 41.5275 23.9135Z" fill="url(#paint16_linear)"/>
<path fill-rule="evenodd" clip-rule="evenodd" d="M39.9223 22.7999C39.9223 21.9133 40.6409 21.1947 41.5275 21.1947H44.4946C45.3812 21.1947 46.0998 21.9133 46.0998 22.7999C46.0998 23.6864 45.3812 24.405 44.4946 24.405H41.5275C40.6409 24.405 39.9223 23.6864 39.9223 22.7999ZM41.5275 22.1778C41.1838 22.1778 40.9054 22.4562 40.9054 22.7999C40.9054 23.1435 41.1838 23.422 41.5275 23.422H44.4946C44.8383 23.422 45.1167 23.1435 45.1167 22.7999C45.1167 22.4562 44.8383 22.1778 44.4946 22.1778H41.5275Z" fill="url(#paint17_linear)"/>
<path fill-rule="evenodd" clip-rule="evenodd" d="M23.2999 32.0624C22.6865 32.0624 22.1863 32.5627 22.1863 33.176C22.1863 33.7894 22.6865 34.2897 23.2999 34.2897C23.9132 34.2897 24.4135 33.7894 24.4135 33.176C24.4135 32.5627 23.9132 32.0624 23.2999 32.0624Z" fill="url(#paint18_linear)"/>
<path fill-rule="evenodd" clip-rule="evenodd" d="M21.6947 33.176C21.6947 32.2912 22.4151 31.5709 23.2999 31.5709C24.1847 31.5709 24.905 32.2912 24.905 33.176C24.905 34.0609 24.1847 34.7812 23.2999 34.7812C22.4151 34.7812 21.6947 34.0609 21.6947 33.176ZM23.2999 32.554C22.958 32.554 22.6778 32.8342 22.6778 33.176C22.6778 33.5179 22.958 33.7981 23.2999 33.7981C23.6418 33.7981 23.922 33.5179 23.922 33.176C23.922 32.8342 23.6418 32.554 23.2999 32.554Z" fill="url(#paint19_linear)"/>
<path fill-rule="evenodd" clip-rule="evenodd" d="M10.4111 22.7999C10.4111 22.1865 9.91086 21.6863 9.29751 21.6863C8.68372 21.6863 8.1839 22.1865 8.1839 22.7999C8.1839 23.4132 8.68372 23.9135 9.29751 23.9135C9.91086 23.9135 10.4111 23.4132 10.4111 22.7999Z" fill="url(#paint20_linear)"/>
<path fill-rule="evenodd" clip-rule="evenodd" d="M7.69237 22.7999C7.69237 21.9152 8.41213 21.1947 9.29751 21.1947C10.1823 21.1947 10.9026 21.9151 10.9026 22.7999C10.9026 23.6847 10.1823 24.405 9.29751 24.405C8.41213 24.405 7.69237 23.6846 7.69237 22.7999ZM9.29751 22.1778C8.9553 22.1778 8.67542 22.4579 8.67542 22.7999C8.67542 23.1419 8.9553 23.422 9.29751 23.422C9.6394 23.422 9.91959 23.1418 9.91959 22.7999C9.91959 22.458 9.6394 22.1778 9.29751 22.1778Z" fill="url(#paint21_linear)"/>
<defs>
<linearGradient id="paint0_linear" x1="46.0998" y1="29" x2="0.500001" y2="29" gradientUnits="userSpaceOnUse">
<stop stop-color="#06EA84"/>
<stop offset="1" stop-color="#2BC47B"/>
</linearGradient>
<linearGradient id="paint1_linear" x1="46.0998" y1="29" x2="0.500001" y2="29" gradientUnits="userSpaceOnUse">
<stop stop-color="#06EA84"/>
<stop offset="1" stop-color="#2BC47B"/>
</linearGradient>
<linearGradient id="paint2_linear" x1="46.0998" y1="29" x2="0.500001" y2="29" gradientUnits="userSpaceOnUse">
<stop stop-color="#06EA84"/>
<stop offset="1" stop-color="#2BC47B"/>
</linearGradient>
<linearGradient id="paint3_linear" x1="46.0998" y1="29" x2="0.500001" y2="29" gradientUnits="userSpaceOnUse">
<stop stop-color="#06EA84"/>
<stop offset="1" stop-color="#2BC47B"/>
</linearGradient>
<linearGradient id="paint4_linear" x1="46.0998" y1="29" x2="0.500001" y2="29" gradientUnits="userSpaceOnUse">
<stop stop-color="#06EA84"/>
<stop offset="1" stop-color="#2BC47B"/>
</linearGradient>
<linearGradient id="paint5_linear" x1="46.0998" y1="29" x2="0.500001" y2="29" gradientUnits="userSpaceOnUse">
<stop stop-color="#06EA84"/>
<stop offset="1" stop-color="#2BC47B"/>
</linearGradient>
<linearGradient id="paint6_linear" x1="46.0998" y1="29" x2="0.500001" y2="29" gradientUnits="userSpaceOnUse">
<stop stop-color="#06EA84"/>
<stop offset="1" stop-color="#2BC47B"/>
</linearGradient>
<linearGradient id="paint7_linear" x1="46.0998" y1="29" x2="0.500001" y2="29" gradientUnits="userSpaceOnUse">
<stop stop-color="#06EA84"/>
<stop offset="1" stop-color="#2BC47B"/>
</linearGradient>
<linearGradient id="paint8_linear" x1="46.0998" y1="29" x2="0.500001" y2="29" gradientUnits="userSpaceOnUse">
<stop stop-color="#06EA84"/>
<stop offset="1" stop-color="#2BC47B"/>
</linearGradient>
<linearGradient id="paint9_linear" x1="46.0998" y1="29" x2="0.500001" y2="29" gradientUnits="userSpaceOnUse">
<stop stop-color="#06EA84"/>
<stop offset="1" stop-color="#2BC47B"/>
</linearGradient>
<linearGradient id="paint10_linear" x1="46.0998" y1="29" x2="0.500001" y2="29" gradientUnits="userSpaceOnUse">
<stop stop-color="#06EA84"/>
<stop offset="1" stop-color="#2BC47B"/>
</linearGradient>
<linearGradient id="paint11_linear" x1="46.0998" y1="29" x2="0.500001" y2="29" gradientUnits="userSpaceOnUse">
<stop stop-color="#06EA84"/>
<stop offset="1" stop-color="#2BC47B"/>
</linearGradient>
<linearGradient id="paint12_linear" x1="46.0998" y1="29" x2="0.500001" y2="29" gradientUnits="userSpaceOnUse">
<stop stop-color="#06EA84"/>
<stop offset="1" stop-color="#2BC47B"/>
</linearGradient>
<linearGradient id="paint13_linear" x1="46.0998" y1="29" x2="0.500001" y2="29" gradientUnits="userSpaceOnUse">
<stop stop-color="#06EA84"/>
<stop offset="1" stop-color="#2BC47B"/>
</linearGradient>
<linearGradient id="paint14_linear" x1="46.0998" y1="29" x2="0.500001" y2="29" gradientUnits="userSpaceOnUse">
<stop stop-color="#06EA84"/>
<stop offset="1" stop-color="#2BC47B"/>
</linearGradient>
<linearGradient id="paint15_linear" x1="46.0998" y1="29" x2="0.500001" y2="29" gradientUnits="userSpaceOnUse">
<stop stop-color="#06EA84"/>
<stop offset="1" stop-color="#2BC47B"/>
</linearGradient>
<linearGradient id="paint16_linear" x1="46.0998" y1="29" x2="0.500001" y2="29" gradientUnits="userSpaceOnUse">
<stop stop-color="#06EA84"/>
<stop offset="1" stop-color="#2BC47B"/>
</linearGradient>
<linearGradient id="paint17_linear" x1="46.0998" y1="29" x2="0.500001" y2="29" gradientUnits="userSpaceOnUse">
<stop stop-color="#06EA84"/>
<stop offset="1" stop-color="#2BC47B"/>
</linearGradient>
<linearGradient id="paint18_linear" x1="46.0998" y1="29" x2="0.500001" y2="29" gradientUnits="userSpaceOnUse">
<stop stop-color="#06EA84"/>
<stop offset="1" stop-color="#2BC47B"/>
</linearGradient>
<linearGradient id="paint19_linear" x1="46.0998" y1="29" x2="0.500001" y2="29" gradientUnits="userSpaceOnUse">
<stop stop-color="#06EA84"/>
<stop offset="1" stop-color="#2BC47B"/>
</linearGradient>
<linearGradient id="paint20_linear" x1="46.0998" y1="29" x2="0.500001" y2="29" gradientUnits="userSpaceOnUse">
<stop stop-color="#06EA84"/>
<stop offset="1" stop-color="#2BC47B"/>
</linearGradient>
<linearGradient id="paint21_linear" x1="46.0998" y1="29" x2="0.500001" y2="29" gradientUnits="userSpaceOnUse">
<stop stop-color="#06EA84"/>
<stop offset="1" stop-color="#2BC47B"/>
</linearGradient>
</defs>
</svg>
