<svg width="60" height="60" viewBox="0 0 60 60" fill="none" xmlns="http://www.w3.org/2000/svg">
<path d="M28.4446 9.88727C27.4768 9.88727 26.567 10.2643 25.8829 10.9488C25.1984 11.6329 24.8214 12.5427 24.8218 13.5105C24.8218 15.5482 24.0859 17.4749 22.7425 18.9914C22.8288 18.5754 22.8743 18.1449 22.8743 17.7037C22.8743 14.2074 20.0304 11.363 16.5341 11.363C13.0379 11.363 10.1935 14.2074 10.1935 17.7037C10.1935 18.1449 10.2391 18.5754 10.3253 18.9914C9.03323 17.5293 8.24646 15.6106 8.24646 13.5105C8.24646 11.5126 6.62114 9.88727 4.62323 9.88727C2.62532 9.88727 1 11.5126 1 13.5105C1 19.5401 4.45641 24.9665 9.8678 27.5401V39.1736C9.8678 39.1793 9.86691 39.1851 9.86691 39.1913V57.838C9.86691 58.4632 10.374 58.9699 10.9993 58.9699C11.6245 58.9699 12.1312 58.4632 12.1312 57.838V40.3236H22.3752V53.3089C22.3752 53.9342 22.8823 54.4413 23.5076 54.4413C24.1328 54.4413 24.6399 53.9342 24.6399 53.3089V26.7564C25.6825 26.1166 26.6467 25.3564 27.5131 24.4899C30.4505 21.5526 32.0678 17.6537 32.0678 13.5105C32.0678 11.5126 30.4425 9.88727 28.4446 9.88727ZM16.5341 13.6273C18.7816 13.6273 20.61 15.4557 20.61 17.7037C20.61 19.9512 18.7816 21.7796 16.5341 21.7796C14.2862 21.7796 12.4578 19.9512 12.4578 17.7037C12.4578 15.4557 14.2862 13.6273 16.5341 13.6273ZM25.9121 22.8885C25.0351 23.7651 24.0412 24.5152 22.9575 25.1178C22.5982 25.3174 22.3752 25.6962 22.3752 26.1073V38.0589H12.1321V26.806C12.1321 26.3493 11.8577 25.9374 11.4365 25.7612C6.47202 23.6872 3.2643 18.8785 3.2643 13.5105C3.2643 12.7613 3.87363 12.152 4.62279 12.152C5.37195 12.152 5.98172 12.7618 5.98172 13.5105C5.98172 19.329 10.7156 24.0625 16.5337 24.0625H16.5341C19.348 24.0625 21.9964 22.9642 23.9921 20.9689C25.9874 18.9741 27.0861 16.3253 27.0861 13.5105C27.0861 13.1476 27.2273 12.8065 27.4839 12.5498C27.7406 12.2932 28.0817 12.152 28.4446 12.152C29.1938 12.152 29.8031 12.7613 29.8035 13.5105C29.8035 17.0488 28.4211 20.3791 25.9121 22.8885Z" fill="url(#paint0_linear)"/>
<path d="M23.5076 56.7061C23.2084 56.7061 22.9177 56.8269 22.7071 57.0375C22.4964 57.2481 22.3752 57.5393 22.3752 57.838C22.3752 58.1358 22.4964 58.4278 22.7071 58.6385C22.9177 58.8491 23.2098 58.9704 23.5076 58.9704C23.8054 58.9704 24.0974 58.8491 24.3081 58.6385C24.5187 58.4278 24.6399 58.1358 24.6399 57.838C24.6399 57.5402 24.5187 57.2481 24.3081 57.0375C24.0974 56.8269 23.8054 56.7061 23.5076 56.7061Z" fill="url(#paint1_linear)"/>
<path d="M17.2665 44.9213C16.6412 44.9213 16.1341 45.4284 16.1341 46.0536V57.8676C16.1341 58.4929 16.6412 59 17.2665 59C17.8917 59 18.3984 58.4929 18.3984 57.8676V46.0536C18.3984 45.4284 17.8917 44.9213 17.2665 44.9213Z" fill="url(#paint2_linear)"/>
<path d="M55.3471 25.3798C54.3794 25.3798 53.4691 25.7568 52.785 26.4409C52.1005 27.1255 51.7239 28.0353 51.7239 29.003C51.7239 31.0408 50.9884 32.9674 49.645 34.4839C49.7309 34.0679 49.7764 33.6374 49.7764 33.1962C49.7764 29.7 46.9324 26.8556 43.4362 26.8556C39.94 26.8556 37.0956 29.7 37.0956 33.1962C37.0956 33.6374 37.1411 34.0679 37.2274 34.4839C35.9353 33.0219 35.1485 31.1032 35.1485 29.003C35.1485 27.0051 33.5232 25.3798 31.5253 25.3798C29.5274 25.3798 27.9021 27.0051 27.9021 29.003C27.9021 30.3837 28.0844 31.7536 28.4442 33.0759C28.6079 33.679 29.2296 34.0356 29.8336 33.871C30.4372 33.7069 30.793 33.0847 30.6288 32.4816C30.3221 31.3532 30.1664 30.1828 30.1664 29.003C30.1664 28.2539 30.7762 27.6441 31.5253 27.6441C32.2745 27.6445 32.8838 28.2539 32.8838 29.003C32.8838 34.8215 37.6177 39.555 43.4358 39.555H43.4362C46.2501 39.555 48.8985 38.4563 50.8942 36.4615C52.8895 34.4666 53.9882 31.8178 53.9882 29.0026C53.9882 28.6402 54.1293 28.299 54.386 28.0424C54.6427 27.7857 54.9838 27.6441 55.3467 27.6441C56.0958 27.6441 56.7052 28.2539 56.7056 29.003C56.7052 32.5413 55.3232 35.8716 52.8138 38.381C51.9376 39.2576 50.9433 40.0077 49.8596 40.6099C49.5003 40.81 49.2773 41.1887 49.2773 41.5998V53.5514H39.0342V42.2985C39.0342 41.8419 38.7598 41.4299 38.3386 41.2538C37.2341 40.7923 36.1946 40.1812 35.2494 39.4382C34.7578 39.0514 34.0463 39.1368 33.6595 39.6285C33.2732 40.1196 33.3582 40.8316 33.8498 41.2184C34.7552 41.9304 35.7349 42.5384 36.7699 43.0322V54.6661C36.7694 54.6719 36.769 54.6776 36.769 54.6838V57.838C36.769 58.4632 37.2757 58.9699 37.9009 58.9699C38.5262 58.9699 39.0333 58.4632 39.0333 57.838V55.8157H49.2773V57.838C49.2773 58.4632 49.7844 58.9699 50.4097 58.9699C51.0349 58.9699 51.5416 58.4632 51.5416 57.838V42.249C52.5846 41.6091 53.5488 40.8484 54.4152 39.982C57.3521 37.0451 58.9699 33.1458 58.9699 29.0026C58.9699 27.0051 57.3446 25.3798 55.3471 25.3798ZM43.4362 29.1199C45.6837 29.1199 47.5121 30.9483 47.5121 33.1962C47.5121 35.4437 45.6837 37.2721 43.4362 37.2721C41.1887 37.2721 39.3603 35.4437 39.3603 33.1962C39.3603 30.9483 41.1887 29.1199 43.4362 29.1199Z" fill="url(#paint3_linear)"/>
<path d="M32.4316 36.4088C32.0811 35.8906 31.3771 35.7548 30.8593 36.1044C30.3412 36.4548 30.2049 37.1584 30.5549 37.6766L30.5677 37.6956C30.7859 38.0226 31.1448 38.1996 31.5107 38.1996C31.7262 38.1996 31.9448 38.1381 32.1377 38.0093C32.6581 37.6624 32.7984 36.9597 32.4515 36.4393L32.4316 36.4088Z" fill="url(#paint4_linear)"/>
<path d="M51.7239 15.6974C52.3492 15.6974 52.8563 15.1907 52.8563 14.5654V13.0016C52.8563 12.3764 52.3492 11.8692 51.7239 11.8692C51.0986 11.8692 50.5915 12.3764 50.5915 13.0016V14.5654C50.5915 15.1907 51.0986 15.6974 51.7239 15.6974Z" fill="url(#paint5_linear)"/>
<path d="M51.7239 23.1916C52.3492 23.1916 52.8563 22.6845 52.8563 22.0592V20.4954C52.8563 19.8706 52.3492 19.3635 51.7239 19.3635C51.0986 19.3635 50.5915 19.8706 50.5915 20.4954V22.0592C50.5915 22.6845 51.0986 23.1916 51.7239 23.1916Z" fill="url(#paint6_linear)"/>
<path d="M54.6891 18.6626H56.2529C56.8782 18.6626 57.3849 18.1559 57.3849 17.5307C57.3849 16.9054 56.8782 16.3983 56.2529 16.3983H54.6891C54.0639 16.3983 53.5567 16.9054 53.5567 17.5307C53.5567 18.1559 54.0639 18.6626 54.6891 18.6626Z" fill="url(#paint7_linear)"/>
<path d="M47.1949 18.6626H48.7587C49.3839 18.6626 49.891 18.1559 49.891 17.5307C49.891 16.9054 49.3839 16.3983 48.7587 16.3983H47.1949C46.5696 16.3983 46.0625 16.9054 46.0625 17.5307C46.0625 18.1559 46.5696 18.6626 47.1949 18.6626Z" fill="url(#paint8_linear)"/>
<path d="M39.9488 4.82811C40.5741 4.82811 41.0808 4.321 41.0808 3.69574V2.13237C41.0808 1.50711 40.5741 1 39.9488 1C39.3236 1 38.8165 1.50711 38.8165 2.13237V3.69574C38.8165 4.321 39.3231 4.82811 39.9488 4.82811Z" fill="url(#paint9_linear)"/>
<path d="M39.9488 12.3224C40.5741 12.3224 41.0808 11.8153 41.0808 11.19V9.62619C41.0808 9.00093 40.5741 8.49382 39.9488 8.49382C39.3236 8.49382 38.8165 9.00093 38.8165 9.62619V11.19C38.8165 11.8153 39.3231 12.3224 39.9488 12.3224Z" fill="url(#paint10_linear)"/>
<path d="M42.9136 7.79333H44.4774C45.1027 7.79333 45.6098 7.28622 45.6098 6.66096C45.6098 6.03571 45.1027 5.52904 44.4774 5.52904H42.9136C42.2884 5.52904 41.7817 6.03571 41.7817 6.66096C41.7817 7.28622 42.2884 7.79333 42.9136 7.79333Z" fill="url(#paint11_linear)"/>
<path d="M35.4198 7.79333H36.9836C37.6089 7.79333 38.116 7.28622 38.116 6.66096C38.116 6.03571 37.6089 5.52904 36.9836 5.52904H35.4198C34.7945 5.52904 34.2874 6.03571 34.2874 6.66096C34.2874 7.28622 34.7945 7.79333 35.4198 7.79333Z" fill="url(#paint12_linear)"/>
<path d="M28.4446 9.88727C27.4768 9.88727 26.567 10.2643 25.8829 10.9488C25.1984 11.6329 24.8214 12.5427 24.8218 13.5105C24.8218 15.5482 24.0859 17.4749 22.7425 18.9914C22.8288 18.5754 22.8743 18.1449 22.8743 17.7037C22.8743 14.2074 20.0304 11.363 16.5341 11.363C13.0379 11.363 10.1935 14.2074 10.1935 17.7037C10.1935 18.1449 10.2391 18.5754 10.3253 18.9914C9.03323 17.5293 8.24646 15.6106 8.24646 13.5105C8.24646 11.5126 6.62114 9.88727 4.62323 9.88727C2.62532 9.88727 1 11.5126 1 13.5105C1 19.5401 4.45641 24.9665 9.8678 27.5401V39.1736C9.8678 39.1793 9.86691 39.1851 9.86691 39.1913V57.838C9.86691 58.4632 10.374 58.9699 10.9993 58.9699C11.6245 58.9699 12.1312 58.4632 12.1312 57.838V40.3236H22.3752V53.3089C22.3752 53.9342 22.8823 54.4413 23.5076 54.4413C24.1328 54.4413 24.6399 53.9342 24.6399 53.3089V26.7564C25.6825 26.1166 26.6467 25.3564 27.5131 24.4899C30.4505 21.5526 32.0678 17.6537 32.0678 13.5105C32.0678 11.5126 30.4425 9.88727 28.4446 9.88727ZM16.5341 13.6273C18.7816 13.6273 20.61 15.4557 20.61 17.7037C20.61 19.9512 18.7816 21.7796 16.5341 21.7796C14.2862 21.7796 12.4578 19.9512 12.4578 17.7037C12.4578 15.4557 14.2862 13.6273 16.5341 13.6273ZM25.9121 22.8885C25.0351 23.7651 24.0412 24.5152 22.9575 25.1178C22.5982 25.3174 22.3752 25.6962 22.3752 26.1073V38.0589H12.1321V26.806C12.1321 26.3493 11.8577 25.9374 11.4365 25.7612C6.47202 23.6872 3.2643 18.8785 3.2643 13.5105C3.2643 12.7613 3.87363 12.152 4.62279 12.152C5.37195 12.152 5.98172 12.7618 5.98172 13.5105C5.98172 19.329 10.7156 24.0625 16.5337 24.0625H16.5341C19.348 24.0625 21.9964 22.9642 23.9921 20.9689C25.9874 18.9741 27.0861 16.3253 27.0861 13.5105C27.0861 13.1476 27.2273 12.8065 27.4839 12.5498C27.7406 12.2932 28.0817 12.152 28.4446 12.152C29.1938 12.152 29.8031 12.7613 29.8035 13.5105C29.8035 17.0488 28.4211 20.3791 25.9121 22.8885Z" stroke="url(#paint13_linear)"/>
<path d="M23.5076 56.7061C23.2084 56.7061 22.9177 56.8269 22.7071 57.0375C22.4964 57.2481 22.3752 57.5393 22.3752 57.838C22.3752 58.1358 22.4964 58.4278 22.7071 58.6385C22.9177 58.8491 23.2098 58.9704 23.5076 58.9704C23.8054 58.9704 24.0974 58.8491 24.3081 58.6385C24.5187 58.4278 24.6399 58.1358 24.6399 57.838C24.6399 57.5402 24.5187 57.2481 24.3081 57.0375C24.0974 56.8269 23.8054 56.7061 23.5076 56.7061Z" stroke="url(#paint14_linear)"/>
<path d="M17.2665 44.9213C16.6412 44.9213 16.1341 45.4284 16.1341 46.0536V57.8676C16.1341 58.4929 16.6412 59 17.2665 59C17.8917 59 18.3984 58.4929 18.3984 57.8676V46.0536C18.3984 45.4284 17.8917 44.9213 17.2665 44.9213Z" stroke="url(#paint15_linear)"/>
<path d="M55.3471 25.3798C54.3794 25.3798 53.4691 25.7568 52.785 26.4409C52.1005 27.1255 51.7239 28.0353 51.7239 29.003C51.7239 31.0408 50.9884 32.9674 49.645 34.4839C49.7309 34.0679 49.7764 33.6374 49.7764 33.1962C49.7764 29.7 46.9324 26.8556 43.4362 26.8556C39.94 26.8556 37.0956 29.7 37.0956 33.1962C37.0956 33.6374 37.1411 34.0679 37.2274 34.4839C35.9353 33.0219 35.1485 31.1032 35.1485 29.003C35.1485 27.0051 33.5232 25.3798 31.5253 25.3798C29.5274 25.3798 27.9021 27.0051 27.9021 29.003C27.9021 30.3837 28.0844 31.7536 28.4442 33.0759C28.6079 33.679 29.2296 34.0356 29.8336 33.871C30.4372 33.7069 30.793 33.0847 30.6288 32.4816C30.3221 31.3532 30.1664 30.1828 30.1664 29.003C30.1664 28.2539 30.7762 27.6441 31.5253 27.6441C32.2745 27.6445 32.8838 28.2539 32.8838 29.003C32.8838 34.8215 37.6177 39.555 43.4358 39.555H43.4362C46.2501 39.555 48.8985 38.4563 50.8942 36.4615C52.8895 34.4666 53.9882 31.8178 53.9882 29.0026C53.9882 28.6402 54.1293 28.299 54.386 28.0424C54.6427 27.7857 54.9838 27.6441 55.3467 27.6441C56.0958 27.6441 56.7052 28.2539 56.7056 29.003C56.7052 32.5413 55.3232 35.8716 52.8138 38.381C51.9376 39.2576 50.9433 40.0077 49.8596 40.6099C49.5003 40.81 49.2773 41.1887 49.2773 41.5998V53.5514H39.0342V42.2985C39.0342 41.8419 38.7598 41.4299 38.3386 41.2538C37.2341 40.7923 36.1946 40.1812 35.2494 39.4382C34.7578 39.0514 34.0463 39.1368 33.6595 39.6285C33.2732 40.1196 33.3582 40.8316 33.8498 41.2184C34.7552 41.9304 35.7349 42.5384 36.7699 43.0322V54.6661C36.7694 54.6719 36.769 54.6776 36.769 54.6838V57.838C36.769 58.4632 37.2757 58.9699 37.9009 58.9699C38.5262 58.9699 39.0333 58.4632 39.0333 57.838V55.8157H49.2773V57.838C49.2773 58.4632 49.7844 58.9699 50.4097 58.9699C51.0349 58.9699 51.5416 58.4632 51.5416 57.838V42.249C52.5846 41.6091 53.5488 40.8484 54.4152 39.982C57.3521 37.0451 58.9699 33.1458 58.9699 29.0026C58.9699 27.0051 57.3446 25.3798 55.3471 25.3798ZM43.4362 29.1199C45.6837 29.1199 47.5121 30.9483 47.5121 33.1962C47.5121 35.4437 45.6837 37.2721 43.4362 37.2721C41.1887 37.2721 39.3603 35.4437 39.3603 33.1962C39.3603 30.9483 41.1887 29.1199 43.4362 29.1199Z" stroke="url(#paint16_linear)"/>
<path d="M32.4316 36.4088C32.0811 35.8906 31.3771 35.7548 30.8593 36.1044C30.3412 36.4548 30.2049 37.1584 30.5549 37.6766L30.5677 37.6956C30.7859 38.0226 31.1448 38.1996 31.5107 38.1996C31.7262 38.1996 31.9448 38.1381 32.1377 38.0093C32.6581 37.6624 32.7984 36.9597 32.4515 36.4393L32.4316 36.4088Z" stroke="url(#paint17_linear)"/>
<path d="M51.7239 15.6974C52.3492 15.6974 52.8563 15.1907 52.8563 14.5654V13.0016C52.8563 12.3764 52.3492 11.8692 51.7239 11.8692C51.0986 11.8692 50.5915 12.3764 50.5915 13.0016V14.5654C50.5915 15.1907 51.0986 15.6974 51.7239 15.6974Z" stroke="url(#paint18_linear)"/>
<path d="M51.7239 23.1916C52.3492 23.1916 52.8563 22.6845 52.8563 22.0592V20.4954C52.8563 19.8706 52.3492 19.3635 51.7239 19.3635C51.0986 19.3635 50.5915 19.8706 50.5915 20.4954V22.0592C50.5915 22.6845 51.0986 23.1916 51.7239 23.1916Z" stroke="url(#paint19_linear)"/>
<path d="M54.6891 18.6626H56.2529C56.8782 18.6626 57.3849 18.1559 57.3849 17.5307C57.3849 16.9054 56.8782 16.3983 56.2529 16.3983H54.6891C54.0639 16.3983 53.5567 16.9054 53.5567 17.5307C53.5567 18.1559 54.0639 18.6626 54.6891 18.6626Z" stroke="url(#paint20_linear)"/>
<path d="M47.1949 18.6626H48.7587C49.3839 18.6626 49.891 18.1559 49.891 17.5307C49.891 16.9054 49.3839 16.3983 48.7587 16.3983H47.1949C46.5696 16.3983 46.0625 16.9054 46.0625 17.5307C46.0625 18.1559 46.5696 18.6626 47.1949 18.6626Z" stroke="url(#paint21_linear)"/>
<path d="M39.9488 4.82811C40.5741 4.82811 41.0808 4.321 41.0808 3.69574V2.13237C41.0808 1.50711 40.5741 1 39.9488 1C39.3236 1 38.8165 1.50711 38.8165 2.13237V3.69574C38.8165 4.321 39.3231 4.82811 39.9488 4.82811Z" stroke="url(#paint22_linear)"/>
<path d="M39.9488 12.3224C40.5741 12.3224 41.0808 11.8153 41.0808 11.19V9.62619C41.0808 9.00093 40.5741 8.49382 39.9488 8.49382C39.3236 8.49382 38.8165 9.00093 38.8165 9.62619V11.19C38.8165 11.8153 39.3231 12.3224 39.9488 12.3224Z" stroke="url(#paint23_linear)"/>
<path d="M42.9136 7.79333H44.4774C45.1027 7.79333 45.6098 7.28622 45.6098 6.66096C45.6098 6.03571 45.1027 5.52904 44.4774 5.52904H42.9136C42.2884 5.52904 41.7817 6.03571 41.7817 6.66096C41.7817 7.28622 42.2884 7.79333 42.9136 7.79333Z" stroke="url(#paint24_linear)"/>
<path d="M35.4198 7.79333H36.9836C37.6089 7.79333 38.116 7.28622 38.116 6.66096C38.116 6.03571 37.6089 5.52904 36.9836 5.52904H35.4198C34.7945 5.52904 34.2874 6.03571 34.2874 6.66096C34.2874 7.28622 34.7945 7.79333 35.4198 7.79333Z" stroke="url(#paint25_linear)"/>
<defs>
<linearGradient id="paint0_linear" x1="58.9699" y1="30" x2="1" y2="30" gradientUnits="userSpaceOnUse">
<stop stop-color="#06EA84"/>
<stop offset="1" stop-color="#2BC47B"/>
</linearGradient>
<linearGradient id="paint1_linear" x1="58.9699" y1="30" x2="1" y2="30" gradientUnits="userSpaceOnUse">
<stop stop-color="#06EA84"/>
<stop offset="1" stop-color="#2BC47B"/>
</linearGradient>
<linearGradient id="paint2_linear" x1="58.9699" y1="30" x2="1" y2="30" gradientUnits="userSpaceOnUse">
<stop stop-color="#06EA84"/>
<stop offset="1" stop-color="#2BC47B"/>
</linearGradient>
<linearGradient id="paint3_linear" x1="58.9699" y1="30" x2="1" y2="30" gradientUnits="userSpaceOnUse">
<stop stop-color="#06EA84"/>
<stop offset="1" stop-color="#2BC47B"/>
</linearGradient>
<linearGradient id="paint4_linear" x1="58.9699" y1="30" x2="1" y2="30" gradientUnits="userSpaceOnUse">
<stop stop-color="#06EA84"/>
<stop offset="1" stop-color="#2BC47B"/>
</linearGradient>
<linearGradient id="paint5_linear" x1="58.9699" y1="30" x2="1" y2="30" gradientUnits="userSpaceOnUse">
<stop stop-color="#06EA84"/>
<stop offset="1" stop-color="#2BC47B"/>
</linearGradient>
<linearGradient id="paint6_linear" x1="58.9699" y1="30" x2="1" y2="30" gradientUnits="userSpaceOnUse">
<stop stop-color="#06EA84"/>
<stop offset="1" stop-color="#2BC47B"/>
</linearGradient>
<linearGradient id="paint7_linear" x1="58.9699" y1="30" x2="1" y2="30" gradientUnits="userSpaceOnUse">
<stop stop-color="#06EA84"/>
<stop offset="1" stop-color="#2BC47B"/>
</linearGradient>
<linearGradient id="paint8_linear" x1="58.9699" y1="30" x2="1" y2="30" gradientUnits="userSpaceOnUse">
<stop stop-color="#06EA84"/>
<stop offset="1" stop-color="#2BC47B"/>
</linearGradient>
<linearGradient id="paint9_linear" x1="58.9699" y1="30" x2="1" y2="30" gradientUnits="userSpaceOnUse">
<stop stop-color="#06EA84"/>
<stop offset="1" stop-color="#2BC47B"/>
</linearGradient>
<linearGradient id="paint10_linear" x1="58.9699" y1="30" x2="1" y2="30" gradientUnits="userSpaceOnUse">
<stop stop-color="#06EA84"/>
<stop offset="1" stop-color="#2BC47B"/>
</linearGradient>
<linearGradient id="paint11_linear" x1="58.9699" y1="30" x2="1" y2="30" gradientUnits="userSpaceOnUse">
<stop stop-color="#06EA84"/>
<stop offset="1" stop-color="#2BC47B"/>
</linearGradient>
<linearGradient id="paint12_linear" x1="58.9699" y1="30" x2="1" y2="30" gradientUnits="userSpaceOnUse">
<stop stop-color="#06EA84"/>
<stop offset="1" stop-color="#2BC47B"/>
</linearGradient>
<linearGradient id="paint13_linear" x1="58.9699" y1="30" x2="1" y2="30" gradientUnits="userSpaceOnUse">
<stop stop-color="#06EA84"/>
<stop offset="1" stop-color="#2BC47B"/>
</linearGradient>
<linearGradient id="paint14_linear" x1="58.9699" y1="30" x2="1" y2="30" gradientUnits="userSpaceOnUse">
<stop stop-color="#06EA84"/>
<stop offset="1" stop-color="#2BC47B"/>
</linearGradient>
<linearGradient id="paint15_linear" x1="58.9699" y1="30" x2="1" y2="30" gradientUnits="userSpaceOnUse">
<stop stop-color="#06EA84"/>
<stop offset="1" stop-color="#2BC47B"/>
</linearGradient>
<linearGradient id="paint16_linear" x1="58.9699" y1="30" x2="1" y2="30" gradientUnits="userSpaceOnUse">
<stop stop-color="#06EA84"/>
<stop offset="1" stop-color="#2BC47B"/>
</linearGradient>
<linearGradient id="paint17_linear" x1="58.9699" y1="30" x2="1" y2="30" gradientUnits="userSpaceOnUse">
<stop stop-color="#06EA84"/>
<stop offset="1" stop-color="#2BC47B"/>
</linearGradient>
<linearGradient id="paint18_linear" x1="58.9699" y1="30" x2="1" y2="30" gradientUnits="userSpaceOnUse">
<stop stop-color="#06EA84"/>
<stop offset="1" stop-color="#2BC47B"/>
</linearGradient>
<linearGradient id="paint19_linear" x1="58.9699" y1="30" x2="1" y2="30" gradientUnits="userSpaceOnUse">
<stop stop-color="#06EA84"/>
<stop offset="1" stop-color="#2BC47B"/>
</linearGradient>
<linearGradient id="paint20_linear" x1="58.9699" y1="30" x2="1" y2="30" gradientUnits="userSpaceOnUse">
<stop stop-color="#06EA84"/>
<stop offset="1" stop-color="#2BC47B"/>
</linearGradient>
<linearGradient id="paint21_linear" x1="58.9699" y1="30" x2="1" y2="30" gradientUnits="userSpaceOnUse">
<stop stop-color="#06EA84"/>
<stop offset="1" stop-color="#2BC47B"/>
</linearGradient>
<linearGradient id="paint22_linear" x1="58.9699" y1="30" x2="1" y2="30" gradientUnits="userSpaceOnUse">
<stop stop-color="#06EA84"/>
<stop offset="1" stop-color="#2BC47B"/>
</linearGradient>
<linearGradient id="paint23_linear" x1="58.9699" y1="30" x2="1" y2="30" gradientUnits="userSpaceOnUse">
<stop stop-color="#06EA84"/>
<stop offset="1" stop-color="#2BC47B"/>
</linearGradient>
<linearGradient id="paint24_linear" x1="58.9699" y1="30" x2="1" y2="30" gradientUnits="userSpaceOnUse">
<stop stop-color="#06EA84"/>
<stop offset="1" stop-color="#2BC47B"/>
</linearGradient>
<linearGradient id="paint25_linear" x1="58.9699" y1="30" x2="1" y2="30" gradientUnits="userSpaceOnUse">
<stop stop-color="#06EA84"/>
<stop offset="1" stop-color="#2BC47B"/>
</linearGradient>
</defs>
</svg>
