<svg width="60" height="61" viewBox="0 0 60 61" fill="none" xmlns="http://www.w3.org/2000/svg">
<path d="M10.2863 33.734C10.2863 34.3752 9.76667 34.8948 9.12551 34.8948C8.48436 34.8948 7.96472 34.3752 7.96472 33.734C7.96472 33.0929 8.48436 32.5732 9.12551 32.5732C9.76667 32.5732 10.2863 33.0929 10.2863 33.734Z" fill="url(#paint0_linear)" stroke="url(#paint1_linear)" stroke-width="0.5"/>
<path d="M16.7151 46.6359C13.6422 44.6721 11.4907 41.6387 10.6573 38.0946C10.5103 37.4702 9.88551 37.0835 9.26158 37.2304C8.63766 37.3768 8.25043 38.0017 8.39734 38.626C9.36995 42.7618 11.8802 46.3013 15.4655 48.5921C16.0023 48.9353 16.721 48.7825 17.0684 48.2388C17.4134 47.6988 17.2556 46.981 16.7151 46.6359Z" fill="url(#paint2_linear)" stroke="url(#paint3_linear)" stroke-width="0.5"/>
<path d="M57.1732 24.9147C55.8365 23.4378 53.9275 22.5908 51.9356 22.5908H45.11V20.7335C45.11 20.0924 44.5904 19.5728 43.9492 19.5728H4.48237C3.84122 19.5728 3.32158 20.0924 3.32158 20.7335V34.8952C3.32158 41.285 6.22174 47.2209 11.0821 51.1462H2.16079C1.51963 51.1462 1 51.6659 1 52.307C1 52.9482 1.51963 53.4678 2.16079 53.4678C2.84366 53.4678 3.45398 53.9263 3.64533 54.5828C4.64742 58.0271 7.85546 60.4326 11.4471 60.4326H39.3061C42.8973 60.4326 46.1058 58.0271 47.1079 54.5833C47.2992 53.9263 47.9095 53.4678 48.5924 53.4678C49.2336 53.4678 49.7532 52.9482 49.7532 52.307C49.7532 51.6659 49.2336 51.1462 48.5924 51.1462H37.3509C38.2351 50.4312 39.0603 49.6431 39.823 48.7861C40.2039 48.8079 40.5816 48.8201 40.9557 48.8201C45.6124 48.8197 49.7459 47.1202 52.9903 43.8505C56.3071 40.5078 58.4287 35.7159 58.9651 30.3581C59.1633 28.3757 58.5099 26.3915 57.1732 24.9147ZM45.11 29.5555H51.9356C51.9691 29.5555 51.9823 29.5574 52.0068 29.5841C52.0385 29.6195 52.0376 29.6322 52.034 29.6639C51.7197 32.8089 50.3114 39.8177 44.0472 41.4899C44.7527 39.3733 45.11 37.1637 45.11 34.8952V29.5555ZM44.8788 53.9331C44.1633 56.392 41.8716 58.111 39.3061 58.111H11.4471C8.88158 58.111 6.58993 56.3934 5.87441 53.9335C5.82771 53.7734 5.77103 53.6166 5.70483 53.4665H45.0484C44.9822 53.617 44.9255 53.7725 44.8788 53.9331ZM15.2224 51.1462C9.30736 47.867 5.64316 41.6677 5.64316 34.8952V21.8943H42.7884V34.8952C42.7884 41.7384 39.0603 47.9006 33.2119 51.1462H15.2224ZM56.6554 30.1273C55.8641 38.0307 50.8373 46.1281 41.6009 46.485C42.1201 45.7073 42.5876 44.897 42.9979 44.0573C46.2645 43.6288 49.0168 42.0268 50.9888 39.3969C52.8043 36.9755 53.9647 33.69 54.3442 29.8965C54.4136 29.2109 54.1973 28.5498 53.7307 28.0288C53.265 27.5165 52.6275 27.234 51.9356 27.234H45.11V24.9124H51.9356C53.2927 24.9124 54.5415 25.4665 55.4519 26.4727C56.3629 27.4788 56.79 28.777 56.6554 30.1273Z" fill="url(#paint4_linear)" stroke="url(#paint5_linear)" stroke-width="0.5"/>
<path d="M23.2537 10.8667C23.2537 12.2247 23.6858 13.5129 24.4702 14.4937C24.872 14.9961 25.6024 15.0745 26.1017 14.6751C26.6023 14.2747 26.6834 13.5442 26.2831 13.0436C25.8332 12.4809 25.5752 11.6878 25.5752 10.8667C25.5752 10.0455 25.8332 9.25244 26.2831 8.69019C27.9104 6.65608 27.9104 3.46935 26.2831 1.4357C25.8827 0.935109 25.1522 0.853944 24.6516 1.25433C24.1506 1.65471 24.0698 2.38519 24.4702 2.88623C25.4143 4.06607 25.4143 6.05982 24.4702 7.23965C23.6858 8.22043 23.2537 9.50863 23.2537 10.8667Z" fill="url(#paint6_linear)" stroke="url(#paint7_linear)" stroke-width="0.5"/>
<path d="M30.2184 10.8667C30.2184 12.2247 30.6505 13.5129 31.4349 14.4937C31.8367 14.9961 32.5672 15.0745 33.0664 14.6751C33.567 14.2747 33.6482 13.5442 33.2478 13.0436C32.798 12.4809 32.54 11.6878 32.54 10.8667C32.54 10.0455 32.798 9.25244 33.2478 8.69019C34.8751 6.65608 34.8751 3.46935 33.2478 1.4357C32.8474 0.935109 32.1169 0.853944 31.6163 1.25433C31.1153 1.65471 31.0346 2.38519 31.4349 2.88623C32.379 4.06607 32.379 6.05982 31.4349 7.23965C30.6505 8.22043 30.2184 9.50863 30.2184 10.8667Z" fill="url(#paint8_linear)" stroke="url(#paint9_linear)" stroke-width="0.5"/>
<path d="M16.2888 10.8667C16.2888 12.2247 16.7209 13.5129 17.5054 14.4937C17.9071 14.9961 18.6376 15.0745 19.1368 14.6751C19.6374 14.2747 19.7186 13.5442 19.3182 13.0436C18.8684 12.4809 18.6104 11.6878 18.6104 10.8667C18.6104 10.0455 18.8684 9.25244 19.3182 8.69019C20.9456 6.65608 20.9456 3.46935 19.3182 1.4357C18.9178 0.935109 18.1869 0.853944 17.6868 1.25433C17.1857 1.65471 17.105 2.38519 17.5054 2.88623C18.4494 4.06607 18.4494 6.05982 17.5054 7.23965C16.7209 8.22043 16.2888 9.50863 16.2888 10.8667Z" fill="url(#paint10_linear)" stroke="url(#paint11_linear)" stroke-width="0.5"/>
<defs>
<linearGradient id="paint0_linear" x1="10.2863" y1="33.734" x2="7.96472" y2="33.734" gradientUnits="userSpaceOnUse">
<stop stop-color="#06EA84"/>
<stop offset="1" stop-color="#2BC47B"/>
</linearGradient>
<linearGradient id="paint1_linear" x1="10.2863" y1="33.734" x2="7.96472" y2="33.734" gradientUnits="userSpaceOnUse">
<stop stop-color="#06EA84"/>
<stop offset="1" stop-color="#2BC47B"/>
</linearGradient>
<linearGradient id="paint2_linear" x1="17.2511" y1="42.987" x2="8.36621" y2="42.987" gradientUnits="userSpaceOnUse">
<stop stop-color="#06EA84"/>
<stop offset="1" stop-color="#2BC47B"/>
</linearGradient>
<linearGradient id="paint3_linear" x1="17.2511" y1="42.987" x2="8.36621" y2="42.987" gradientUnits="userSpaceOnUse">
<stop stop-color="#06EA84"/>
<stop offset="1" stop-color="#2BC47B"/>
</linearGradient>
<linearGradient id="paint4_linear" x1="59" y1="40.0027" x2="1" y2="40.0027" gradientUnits="userSpaceOnUse">
<stop stop-color="#06EA84"/>
<stop offset="1" stop-color="#2BC47B"/>
</linearGradient>
<linearGradient id="paint5_linear" x1="59" y1="40.0027" x2="1" y2="40.0027" gradientUnits="userSpaceOnUse">
<stop stop-color="#06EA84"/>
<stop offset="1" stop-color="#2BC47B"/>
</linearGradient>
<linearGradient id="paint6_linear" x1="27.5036" y1="7.96478" x2="23.2537" y2="7.96478" gradientUnits="userSpaceOnUse">
<stop stop-color="#06EA84"/>
<stop offset="1" stop-color="#2BC47B"/>
</linearGradient>
<linearGradient id="paint7_linear" x1="27.5036" y1="7.96478" x2="23.2537" y2="7.96478" gradientUnits="userSpaceOnUse">
<stop stop-color="#06EA84"/>
<stop offset="1" stop-color="#2BC47B"/>
</linearGradient>
<linearGradient id="paint8_linear" x1="34.4683" y1="7.96478" x2="30.2184" y2="7.96478" gradientUnits="userSpaceOnUse">
<stop stop-color="#06EA84"/>
<stop offset="1" stop-color="#2BC47B"/>
</linearGradient>
<linearGradient id="paint9_linear" x1="34.4683" y1="7.96478" x2="30.2184" y2="7.96478" gradientUnits="userSpaceOnUse">
<stop stop-color="#06EA84"/>
<stop offset="1" stop-color="#2BC47B"/>
</linearGradient>
<linearGradient id="paint10_linear" x1="20.5387" y1="7.96478" x2="16.2888" y2="7.96478" gradientUnits="userSpaceOnUse">
<stop stop-color="#06EA84"/>
<stop offset="1" stop-color="#2BC47B"/>
</linearGradient>
<linearGradient id="paint11_linear" x1="20.5387" y1="7.96478" x2="16.2888" y2="7.96478" gradientUnits="userSpaceOnUse">
<stop stop-color="#06EA84"/>
<stop offset="1" stop-color="#2BC47B"/>
</linearGradient>
</defs>
</svg>
