<svg width="543" height="416" viewBox="0 0 543 416" fill="none" xmlns="http://www.w3.org/2000/svg">
<g filter="url(#filter0_d)">
<path d="M45 34.6954C45 26.1445 52.1372 19.3235 60.6793 19.7108L483.679 38.8862C491.691 39.2494 498 45.8507 498 53.8709V310.751C498 318.779 491.679 325.384 483.658 325.736L60.6581 344.312C52.1238 344.687 45 337.869 45 329.327V34.6954Z" fill="url(#paint0_linear)"/>
</g>
<path d="M45 33.6954C45 25.1445 52.1372 18.3235 60.6793 18.7108L483.679 37.8862C491.691 38.2494 498 44.8507 498 52.8709V74.1063L45 53V33.6954Z" fill="#ECF2F4" fill-opacity="0.7"/>
<path d="M68.8807 42.9617C69.6341 42.9928 70.3863 42.8779 71.0927 42.6241C71.799 42.3702 72.4451 41.9825 72.9926 41.4839C73.5401 40.9853 73.9777 40.386 74.2796 39.7216C74.5815 39.0572 74.7415 38.3413 74.75 37.6164C74.7175 36.1326 74.0877 34.7189 72.993 33.6726C71.8983 32.6263 70.4242 32.029 68.8807 32.0065C68.1266 31.9708 67.3727 32.082 66.6644 32.3334C65.956 32.5848 65.3078 32.9712 64.7586 33.4693C64.2093 33.9675 63.7705 34.5672 63.4683 35.2325C63.1661 35.8978 63.0068 36.6149 63 37.3408C63.0296 38.8284 63.6598 40.2465 64.7572 41.2955C65.8547 42.3444 67.3334 42.9419 68.8807 42.9617V42.9617Z" fill="#99B2C5" fill-opacity="0.3"/>
<path d="M86.9042 43.7459C87.6576 43.7769 88.4098 43.6621 89.1161 43.4082C89.8225 43.1544 90.4686 42.7666 91.016 42.268C91.5635 41.7695 92.0012 41.1702 92.303 40.5058C92.6049 39.8414 92.7649 39.1255 92.7734 38.4005C92.741 36.9168 92.1111 35.503 91.0164 34.4567C89.9217 33.4104 88.4476 32.8132 86.9042 32.7907C86.15 32.755 85.3961 32.8662 84.6878 33.1176C83.9794 33.369 83.3312 33.7553 82.782 34.2535C82.2328 34.7517 81.7939 35.3514 81.4917 36.0167C81.1895 36.682 81.0302 37.3991 81.0234 38.125C81.0531 39.6125 81.6832 41.0307 82.7807 42.0797C83.8781 43.1286 85.3568 43.7261 86.9042 43.7459V43.7459Z" fill="#99B2C5" fill-opacity="0.3"/>
<path d="M104.131 44.5301C104.884 44.5611 105.636 44.4463 106.343 44.1924C107.049 43.9386 107.695 43.5508 108.243 43.0522C108.79 42.5536 109.228 41.9544 109.53 41.29C109.832 40.6256 109.991 39.9097 110 39.1847C109.968 37.701 109.338 36.2872 108.243 35.2409C107.148 34.1946 105.674 33.5974 104.131 33.5749C103.377 33.5392 102.623 33.6504 101.914 33.9018C101.206 34.1531 100.558 34.5395 100.009 35.0377C99.4593 35.5359 99.0205 36.1356 98.7183 36.8009C98.4161 37.4661 98.2568 38.1833 98.25 38.9092C98.2796 40.3967 98.9098 41.8149 100.007 42.8638C101.105 43.9128 102.583 44.5103 104.131 44.5301V44.5301Z" fill="#99B2C5" fill-opacity="0.3"/>
<defs>
<filter id="filter0_d" x="0" y="0.694824" width="543" height="414.632" filterUnits="userSpaceOnUse" color-interpolation-filters="sRGB">
<feFlood flood-opacity="0" result="BackgroundImageFix"/>
<feColorMatrix in="SourceAlpha" type="matrix" values="0 0 0 0 0 0 0 0 0 0 0 0 0 0 0 0 0 0 127 0"/>
<feOffset dy="26"/>
<feGaussianBlur stdDeviation="22.5"/>
<feColorMatrix type="matrix" values="0 0 0 0 0.0942361 0 0 0 0 0.270089 0 0 0 0 0.397431 0 0 0 0.07 0"/>
<feBlend mode="normal" in2="BackgroundImageFix" result="effect1_dropShadow"/>
<feBlend mode="normal" in="SourceGraphic" in2="effect1_dropShadow" result="shape"/>
</filter>
<linearGradient id="paint0_linear" x1="271.5" y1="19" x2="271.5" y2="345" gradientUnits="userSpaceOnUse">
<stop stop-color="#FEFEFE"/>
<stop offset="1" stop-color="#FAFDFF"/>
</linearGradient>
</defs>
</svg>
