<svg width="387" height="237" viewBox="0 0 387 237" fill="none" xmlns="http://www.w3.org/2000/svg">
<path d="M222.831 65.96C222.251 64.27 215.061 58.4 219.471 57.56L223.081 62.41C229.731 55.99 233.081 52.81 239.701 46.48L241.371 48.17C233.951 55.25 230.271 58.79 222.831 65.96Z" fill="#2BC47C"/>
<path d="M222.831 109.92C222.251 108.24 215.061 102.49 219.471 101.57L223.081 106.36C229.731 99.8402 233.081 96.6002 239.701 90.1602C240.361 90.8302 240.701 91.1602 241.371 91.8202C233.951 99.0102 230.271 102.63 222.831 109.92Z" fill="#2BC47C"/>
<path d="M222.831 155.67C222.251 154 215.061 148.37 219.471 147.38L223.081 152.11C229.731 145.47 233.081 142.18 239.701 135.62C240.361 136.28 240.701 136.62 241.371 137.26C233.951 144.57 230.271 148.25 222.831 155.67Z" fill="#2BC47C"/>
<path d="M273.15 65.36C273.807 65.3881 274.463 65.284 275.079 65.0536C275.695 64.8233 276.259 64.4715 276.736 64.0191C277.214 63.5667 277.596 63.023 277.859 62.4201C278.123 61.8173 278.262 61.1678 278.27 60.51C278.241 59.1637 277.692 57.881 276.737 56.9316C275.782 55.9823 274.496 55.4404 273.15 55.42C272.492 55.3876 271.834 55.4885 271.216 55.7166C270.598 55.9447 270.033 56.2952 269.554 56.7472C269.074 57.1993 268.692 57.7434 268.428 58.347C268.164 58.9507 268.025 59.6013 268.02 60.26C268.045 61.6097 268.595 62.8964 269.552 63.8482C270.51 64.7999 271.8 65.342 273.15 65.36V65.36Z" fill="#99B2C5"/>
<path d="M374.907 62.3799L292.367 60.3799V61.3799L374.907 63.3799V62.3799Z" fill="#99B2C5"/>
<path d="M273.15 108.5C273.81 108.516 274.468 108.401 275.084 108.161C275.7 107.921 276.262 107.562 276.738 107.103C277.214 106.645 277.595 106.096 277.858 105.49C278.12 104.884 278.26 104.231 278.27 103.57C278.246 102.231 277.695 100.954 276.737 100.018C275.778 99.0823 274.489 98.562 273.15 98.5701C272.488 98.5528 271.829 98.667 271.212 98.9062C270.595 99.1454 270.032 99.5046 269.555 99.9632C269.077 100.422 268.696 100.971 268.432 101.578C268.169 102.185 268.029 102.838 268.02 103.5C268.046 104.84 268.599 106.117 269.559 107.052C270.519 107.988 271.809 108.508 273.15 108.5V108.5Z" fill="#99B2C5"/>
<path d="M374.907 103.85L292.367 103.18V104.18L374.907 104.81V103.85Z" fill="#99B2C5"/>
<path d="M273.15 153.39C274.488 153.393 275.774 152.871 276.731 151.936C277.688 151.001 278.241 149.728 278.27 148.39C278.259 147.73 278.118 147.079 277.855 146.473C277.591 145.868 277.211 145.321 276.735 144.864C276.259 144.406 275.697 144.047 275.081 143.808C274.466 143.569 273.809 143.454 273.15 143.47C271.809 143.462 270.519 143.982 269.559 144.918C268.599 145.854 268.046 147.13 268.02 148.47C268.03 149.131 268.171 149.783 268.435 150.389C268.699 150.995 269.081 151.543 269.558 152.001C270.035 152.458 270.598 152.816 271.215 153.055C271.831 153.294 272.489 153.407 273.15 153.39V153.39Z" fill="#99B2C5"/>
<path d="M374.907 147L292.367 147.75V148.75L374.907 147.98V147Z" fill="#99B2C5"/>
<path d="M235.771 163.03L210.141 163.4V137.4L227.571 137.32V138.32L211.171 138.4V162.32L234.751 161.98V150.38H235.751L235.771 163.03Z" fill="#99B2C5"/>
<path d="M235.771 117.38L210.141 117.32V91.3203L227.571 91.5303V92.5303L211.171 92.3403V116.25L234.751 116.32V104.72H235.751L235.771 117.38Z" fill="#99B2C5"/>
<path d="M235.771 71.71L210.141 71.21V45.25L227.571 45.76V46.76L211.171 46.29V70.25L234.751 70.72V59.09H235.751L235.771 71.71Z" fill="#99B2C5"/>
<path d="M223.5 210.62C227.478 210.504 231.258 208.859 234.052 206.025C236.847 203.192 238.44 199.389 238.5 195.41C238.492 193.469 238.094 191.55 237.33 189.766C236.566 187.982 235.451 186.37 234.052 185.025C232.653 183.68 230.998 182.63 229.186 181.937C227.373 181.244 225.44 180.922 223.5 180.99C219.512 181.078 215.714 182.717 212.914 185.558C210.114 188.4 208.53 192.221 208.5 196.21C208.494 198.154 208.883 200.079 209.642 201.869C210.401 203.659 211.516 205.276 212.918 206.623C214.32 207.97 215.981 209.019 217.799 209.706C219.618 210.393 221.558 210.704 223.5 210.62V210.62Z" fill="#2BC47C"/>
<path d="M229.73 194.4L224.63 194.53V189.53C224.63 189.375 224.599 189.222 224.539 189.079C224.479 188.937 224.391 188.808 224.28 188.7C224.167 188.591 224.034 188.506 223.888 188.449C223.742 188.392 223.586 188.365 223.43 188.37V188.37C223.109 188.38 222.805 188.512 222.58 188.74C222.359 188.965 222.234 189.265 222.23 189.58V194.58L217.13 194.72C216.809 194.73 216.505 194.862 216.28 195.09C216.058 195.318 215.932 195.622 215.93 195.94C215.932 196.252 216.058 196.551 216.28 196.77C216.509 196.987 216.814 197.105 217.13 197.1L222.23 196.96V201.96C222.232 202.272 222.358 202.571 222.58 202.79C222.81 203.004 223.115 203.119 223.43 203.11V203.11C223.749 203.102 224.053 202.971 224.277 202.743C224.501 202.515 224.627 202.21 224.63 201.89V196.89L229.73 196.75C230.047 196.742 230.35 196.612 230.573 196.387C230.797 196.161 230.925 195.858 230.93 195.54V195.54C230.927 195.228 230.802 194.93 230.58 194.71C230.349 194.496 230.044 194.381 229.73 194.39V194.4Z" fill="white"/>
<path d="M310.141 207.953L370.709 206.01C379.671 205.727 386.919 211.394 387 218.67C387 225.946 379.81 232.139 370.859 232.503L310.291 234.983C301.341 235.357 294.081 229.569 294 222.06C293.965 214.551 301.19 208.237 310.141 207.953Z" fill="#2BC47C"/>
<path d="M97.9072 135.25L15.3672 135.61V136.7L97.9072 136.32V135.25Z" fill="#99B2C5"/>
<path d="M21.1479 175.59C22.5537 175.518 23.8757 174.899 24.8321 173.866C25.7885 172.833 26.3037 171.467 26.2679 170.06C26.2906 169.37 26.1754 168.683 25.9291 168.038C25.6828 167.393 25.3104 166.804 24.8336 166.305C24.3569 165.806 23.7853 165.407 23.1524 165.131C22.5196 164.856 21.8381 164.709 21.1479 164.7C19.7367 164.77 18.4092 165.391 17.4502 166.428C16.4911 167.466 15.9769 168.838 16.0179 170.25C15.9979 170.939 16.1154 171.625 16.3635 172.269C16.6117 172.912 16.9854 173.499 17.463 173.996C17.9406 174.493 18.5124 174.89 19.1451 175.164C19.7777 175.438 20.4586 175.583 21.1479 175.59V175.59Z" fill="#99B2C5"/>
<path d="M122.907 167.97L40.3672 169.25V170.33L122.907 168.98V167.97Z" fill="#99B2C5"/>
<path d="M21.1488 197.9C22.5572 197.815 23.8778 197.187 24.8327 196.148C25.7876 195.109 26.3024 193.74 26.2688 192.33C26.2915 191.642 26.1761 190.956 25.9294 190.314C25.6826 189.671 25.3096 189.084 24.8323 188.589C24.355 188.093 23.7831 187.697 23.1504 187.426C22.5177 187.155 21.8371 187.013 21.1488 187.01C19.7385 187.092 18.4154 187.719 17.4584 188.758C16.5014 189.797 15.9853 191.168 16.0188 192.58C15.9946 193.269 16.1094 193.956 16.3562 194.6C16.6031 195.244 16.977 195.831 17.4556 196.328C17.9343 196.824 18.5079 197.219 19.1424 197.489C19.7769 197.759 20.4592 197.899 21.1488 197.9Z" fill="#99B2C5"/>
<path d="M122.907 189.49L40.3672 191.49V192.58L122.907 190.58V189.49Z" fill="#99B2C5"/>
<path d="M21.1492 220.25C22.5602 220.153 23.8795 219.515 24.833 218.471C25.7865 217.426 26.3008 216.054 26.2692 214.64C26.2934 213.954 26.1788 213.269 25.9321 212.628C25.6854 211.987 25.3118 211.403 24.8336 210.91C24.3555 210.416 23.7827 210.025 23.1496 209.759C22.5164 209.492 21.836 209.357 21.1492 209.36C19.7363 209.455 18.4145 210.091 17.459 211.136C16.5034 212.181 15.9877 213.554 16.0192 214.97C15.9935 215.658 16.1075 216.343 16.3542 216.986C16.601 217.628 16.9755 218.214 17.455 218.707C17.9345 219.201 18.5091 219.592 19.144 219.857C19.779 220.122 20.4611 220.256 21.1492 220.25V220.25Z" fill="#99B2C5"/>
<path d="M122.907 211.01L40.3672 213.62V214.7L122.907 212.06V211.01Z" fill="#99B2C5"/>
<path d="M1 121.04L165 121.16V147.41L1 148.86V121.04Z" stroke="#99B2C5"/>
<path d="M1 121.04L165 121.16V229.16L1 235.5V121.04Z" stroke="#99B2C5"/>
<path d="M146.96 129.9C144.46 132.44 143.22 133.71 140.73 136.26C140.657 136.332 140.598 136.417 140.559 136.512C140.519 136.606 140.499 136.708 140.5 136.81C140.499 136.913 140.519 137.014 140.558 137.109C140.598 137.204 140.656 137.289 140.73 137.36L141.18 137.83C141.251 137.903 141.336 137.961 141.429 138.001C141.523 138.04 141.623 138.06 141.725 138.06C141.827 138.06 141.927 138.04 142.021 138.001C142.115 137.961 142.199 137.903 142.27 137.83L147.5 132.49C149.59 134.61 150.64 135.67 152.74 137.78C152.808 137.855 152.892 137.913 152.985 137.951C153.079 137.989 153.179 138.006 153.28 138C153.482 138 153.676 137.921 153.82 137.78L154.28 137.31C154.421 137.162 154.499 136.965 154.499 136.76C154.499 136.556 154.421 136.359 154.28 136.21L148.04 129.91C147.97 129.838 147.886 129.78 147.793 129.74C147.701 129.701 147.601 129.681 147.5 129.681C147.399 129.681 147.299 129.701 147.207 129.74C147.114 129.78 147.03 129.838 146.96 129.91V129.9Z" fill="#2BC47C"/>
<path d="M1 36.46L165 41.46V67.65L1 64.25V36.46Z" stroke="#99B2C5"/>
<path d="M97.9072 52.5099L15.3672 50.3999V51.4899L97.9072 53.5699V52.5099Z" fill="#99B2C5"/>
<path d="M148.052 58.5601L154.282 52.3901C154.353 52.319 154.408 52.2347 154.446 52.1421C154.484 52.0494 154.503 51.9502 154.502 51.8501C154.506 51.7398 154.488 51.6298 154.448 51.5267C154.409 51.4235 154.349 51.3295 154.272 51.2501L153.812 50.7801C153.742 50.7075 153.658 50.6498 153.566 50.6104C153.473 50.5709 153.373 50.5506 153.272 50.5506C153.171 50.5506 153.072 50.5709 152.979 50.6104C152.886 50.6498 152.802 50.7075 152.732 50.7801C150.632 52.8401 149.592 53.8801 147.502 55.9501C145.402 53.7701 144.352 52.6801 142.262 50.4901C142.119 50.345 141.926 50.2593 141.722 50.2501C141.519 50.2466 141.322 50.3219 141.172 50.4601L140.722 50.9201C140.648 50.9912 140.59 51.0767 140.55 51.1713C140.511 51.2659 140.491 51.3676 140.492 51.4701C140.493 51.6767 140.576 51.8745 140.722 52.0201C143.212 54.6301 144.462 55.9301 146.952 58.5201C147.023 58.5949 147.108 58.6547 147.203 58.6959C147.297 58.7371 147.399 58.759 147.502 58.7601C147.603 58.7659 147.703 58.7512 147.798 58.7168C147.892 58.6824 147.979 58.6291 148.052 58.5601V58.5601Z" fill="#2BC47C"/>
<path d="M309.66 223.024C309.678 223.46 309.586 223.866 309.384 224.241C309.191 224.615 308.89 224.92 308.482 225.155C308.081 225.389 307.587 225.518 306.999 225.541C306.114 225.577 305.375 225.38 304.784 224.951C304.193 224.521 303.856 223.903 303.771 223.094L305.803 223.013C305.845 223.324 305.959 223.565 306.145 223.737C306.338 223.909 306.576 223.989 306.859 223.978C307.104 223.968 307.295 223.891 307.431 223.745C307.566 223.599 307.63 223.409 307.62 223.175C307.612 222.965 307.538 222.792 307.399 222.657C307.266 222.522 307.102 222.415 306.905 222.337C306.708 222.252 306.436 222.153 306.088 222.042C305.583 221.883 305.167 221.727 304.84 221.577C304.521 221.418 304.239 221.179 303.996 220.861C303.759 220.535 303.63 220.107 303.609 219.577C303.59 219.086 303.692 218.656 303.916 218.288C304.139 217.921 304.456 217.635 304.865 217.431C305.282 217.219 305.761 217.103 306.305 217.081C307.183 217.046 307.887 217.237 308.418 217.653C308.956 218.068 309.274 218.657 309.371 219.418L307.306 219.5C307.258 219.229 307.153 219.018 306.991 218.869C306.835 218.711 306.627 218.637 306.367 218.647C306.144 218.656 305.964 218.726 305.827 218.856C305.698 218.986 305.639 219.172 305.648 219.414C305.656 219.608 305.722 219.774 305.847 219.909C305.979 220.037 306.139 220.139 306.329 220.218C306.518 220.296 306.79 220.395 307.146 220.513C307.659 220.672 308.079 220.835 308.406 221.001C308.733 221.16 309.018 221.402 309.262 221.728C309.506 222.054 309.639 222.486 309.66 223.024Z" fill="white"/>
<path d="M312.911 218.609C313.388 218.59 313.801 218.687 314.153 218.9C314.504 219.112 314.769 219.41 314.949 219.793L314.902 218.612L316.799 218.537L317.059 225.059L315.161 225.135L315.114 223.954C314.966 224.35 314.725 224.668 314.392 224.908C314.059 225.147 313.654 225.277 313.178 225.296C312.664 225.316 312.198 225.202 311.778 224.953C311.365 224.696 311.03 224.32 310.771 223.822C310.52 223.325 310.382 222.737 310.355 222.06C310.327 221.374 310.419 220.777 310.63 220.269C310.848 219.753 311.152 219.355 311.544 219.074C311.942 218.785 312.398 218.63 312.911 218.609ZM313.595 220.338C313.186 220.355 312.86 220.508 312.618 220.799C312.384 221.089 312.277 221.484 312.297 221.982C312.317 222.481 312.455 222.866 312.712 223.136C312.976 223.407 313.312 223.534 313.722 223.518C314.124 223.502 314.445 223.345 314.687 223.046C314.936 222.747 315.051 222.357 315.031 221.873C315.012 221.382 314.866 221.002 314.595 220.732C314.33 220.453 313.997 220.322 313.595 220.338Z" fill="white"/>
<path d="M324.308 218.238L324.568 224.76L322.648 224.837L322.601 223.656C322.437 224.045 322.182 224.36 321.833 224.6C321.493 224.84 321.088 224.969 320.619 224.988C319.905 225.016 319.326 224.789 318.882 224.307C318.445 223.825 318.209 223.148 318.175 222.275L318.024 218.488L319.921 218.412L320.062 221.954C320.08 222.398 320.202 222.741 320.427 222.982C320.66 223.214 320.963 223.323 321.335 223.308C321.722 223.293 322.022 223.152 322.235 222.886C322.448 222.62 322.545 222.249 322.526 221.774L322.388 218.314L324.308 218.238Z" fill="white"/>
<path d="M328.685 222.641L329.854 218.017L331.885 217.936L329.935 224.547L327.568 224.641L325.099 218.206L327.13 218.125L328.685 222.641Z" fill="white"/>
<path d="M338.714 220.755C338.721 220.919 338.709 221.099 338.68 221.295L334.36 221.467C334.402 221.957 334.535 222.307 334.76 222.516C334.984 222.718 335.264 222.812 335.598 222.799C335.881 222.788 336.113 222.705 336.293 222.549C336.473 222.394 336.588 222.198 336.638 221.962L338.659 221.881C338.595 222.344 338.433 222.764 338.172 223.142C337.911 223.511 337.573 223.809 337.157 224.037C336.741 224.256 336.272 224.376 335.751 224.397C335.141 224.421 334.593 224.31 334.106 224.064C333.626 223.81 333.243 223.435 332.954 222.94C332.666 222.444 332.509 221.857 332.482 221.179C332.455 220.493 332.561 219.896 332.802 219.387C333.05 218.869 333.406 218.469 333.872 218.185C334.337 217.893 334.875 217.735 335.485 217.711C336.103 217.686 336.651 217.797 337.131 218.043C337.61 218.29 337.986 218.649 338.258 219.123C338.538 219.587 338.69 220.132 338.714 220.755ZM336.771 220.528C336.762 220.099 336.637 219.784 336.398 219.583C336.166 219.374 335.883 219.276 335.548 219.289C335.198 219.303 334.913 219.423 334.691 219.651C334.469 219.878 334.351 220.203 334.338 220.625L336.771 220.528Z" fill="white"/>
<path d="M341.95 217.454C342.426 217.435 342.84 217.531 343.191 217.744C343.542 217.956 343.807 218.254 343.987 218.637L343.94 217.456L345.837 217.381L346.095 223.868C346.12 224.476 346.03 225.026 345.826 225.518C345.622 226.018 345.295 226.421 344.845 226.728C344.395 227.034 343.828 227.201 343.144 227.229C342.206 227.266 341.445 227.062 340.861 226.617C340.285 226.18 339.925 225.566 339.782 224.775L341.668 224.7C341.738 224.963 341.88 225.164 342.094 225.304C342.316 225.443 342.598 225.506 342.94 225.492C343.335 225.477 343.646 225.343 343.875 225.092C344.111 224.849 344.219 224.466 344.198 223.944L344.152 222.798C344.004 223.194 343.763 223.512 343.43 223.752C343.097 223.991 342.692 224.121 342.216 224.14C341.702 224.16 341.236 224.046 340.816 223.797C340.403 223.541 340.068 223.164 339.809 222.667C339.559 222.169 339.42 221.582 339.393 220.904C339.365 220.218 339.457 219.621 339.668 219.113C339.886 218.597 340.191 218.199 340.582 217.918C340.98 217.629 341.436 217.474 341.95 217.454ZM342.633 219.183C342.224 219.199 341.898 219.352 341.657 219.643C341.422 219.933 341.315 220.328 341.335 220.826C341.355 221.325 341.493 221.71 341.75 221.981C342.014 222.251 342.351 222.378 342.76 222.362C343.162 222.346 343.483 222.189 343.725 221.89C343.974 221.592 344.089 221.201 344.069 220.718C344.05 220.227 343.904 219.846 343.633 219.576C343.368 219.298 343.035 219.167 342.633 219.183Z" fill="white"/>
<path d="M349.514 217.153C349.991 217.134 350.404 217.23 350.756 217.443C351.107 217.655 351.372 217.953 351.551 218.336L351.504 217.155L353.402 217.08L353.662 223.602L351.764 223.678L351.717 222.497C351.569 222.893 351.328 223.211 350.995 223.451C350.662 223.69 350.257 223.82 349.78 223.839C349.267 223.859 348.8 223.745 348.381 223.496C347.968 223.24 347.632 222.863 347.374 222.366C347.123 221.868 346.984 221.281 346.957 220.603C346.93 219.917 347.022 219.32 347.233 218.812C347.451 218.296 347.755 217.898 348.147 217.617C348.545 217.328 349.001 217.173 349.514 217.153ZM350.198 218.881C349.789 218.898 349.463 219.051 349.221 219.342C348.987 219.632 348.88 220.027 348.9 220.525C348.919 221.024 349.058 221.409 349.314 221.68C349.579 221.95 349.915 222.077 350.325 222.061C350.726 222.045 351.048 221.888 351.29 221.589C351.539 221.291 351.653 220.9 351.634 220.416C351.615 219.926 351.469 219.545 351.198 219.275C350.933 218.997 350.6 218.865 350.198 218.881Z" fill="white"/>
<path d="M356.674 218.179C356.896 217.772 357.188 217.444 357.551 217.196C357.921 216.947 358.326 216.813 358.765 216.796L358.85 218.935L358.303 218.957C357.797 218.977 357.407 219.106 357.134 219.343C356.867 219.58 356.745 219.967 356.766 220.505L356.884 223.474L354.976 223.55L354.716 217.027L356.625 216.951L356.674 218.179Z" fill="white"/>
<path d="M361.93 216.658C362.406 216.639 362.82 216.736 363.171 216.948C363.522 217.161 363.784 217.459 363.956 217.842L363.824 214.534L365.733 214.458L366.077 223.108L364.168 223.184L364.121 222.003C363.98 222.399 363.743 222.717 363.41 222.957C363.077 223.196 362.672 223.325 362.196 223.344C361.682 223.365 361.216 223.251 360.796 223.002C360.383 222.745 360.048 222.368 359.79 221.871C359.539 221.374 359.4 220.786 359.373 220.108C359.345 219.423 359.437 218.826 359.648 218.318C359.866 217.802 360.171 217.403 360.562 217.123C360.96 216.834 361.416 216.679 361.93 216.658ZM362.613 218.387C362.204 218.404 361.879 218.557 361.637 218.848C361.402 219.138 361.295 219.532 361.315 220.031C361.335 220.53 361.473 220.915 361.73 221.185C361.994 221.456 362.331 221.583 362.74 221.567C363.142 221.551 363.463 221.393 363.705 221.095C363.954 220.796 364.069 220.405 364.05 219.922C364.03 219.431 363.884 219.051 363.613 218.781C363.348 218.502 363.015 218.371 362.613 218.387Z" fill="white"/>
<path d="M373.17 219.384C373.177 219.547 373.165 219.727 373.136 219.924L368.816 220.096C368.858 220.586 368.991 220.935 369.215 221.145C369.44 221.347 369.719 221.441 370.054 221.428C370.337 221.416 370.568 221.333 370.748 221.178C370.929 221.022 371.044 220.826 371.094 220.59L373.114 220.51C373.051 220.973 372.889 221.393 372.628 221.77C372.367 222.14 372.028 222.438 371.613 222.665C371.196 222.885 370.728 223.005 370.207 223.026C369.597 223.05 369.048 222.939 368.562 222.693C368.082 222.439 367.698 222.064 367.41 221.568C367.122 221.072 366.965 220.485 366.938 219.807C366.91 219.122 367.017 218.524 367.257 218.015C367.505 217.498 367.862 217.097 368.328 216.813C368.793 216.522 369.331 216.364 369.941 216.339C370.559 216.315 371.107 216.426 371.586 216.672C372.066 216.918 372.442 217.278 372.714 217.751C372.993 218.216 373.145 218.76 373.17 219.384ZM371.227 219.157C371.217 218.728 371.093 218.413 370.854 218.211C370.622 218.002 370.339 217.904 370.004 217.917C369.654 217.931 369.368 218.052 369.146 218.279C368.924 218.507 368.807 218.831 368.794 219.253L371.227 219.157Z" fill="white"/>
<path d="M376 217.41C376.222 217.003 376.514 216.675 376.877 216.426C377.247 216.177 377.652 216.044 378.091 216.027L378.176 218.166L377.629 218.188C377.123 218.208 376.733 218.336 376.46 218.574C376.193 218.811 376.071 219.198 376.092 219.736L376.21 222.705L374.302 222.781L374.042 216.258L375.951 216.182L376 217.41Z" fill="white"/>
<path d="M5.41941 4.50695L5.30089 7.12986L9.30467 7.31078L9.20136 9.59697L5.19758 9.41604L5.07184 12.1984L9.57819 12.4021L9.46847 14.83L2.09749 14.497L2.6637 1.96726L10.0347 2.30035L9.92576 4.71059L5.41941 4.50695Z" fill="#99B2C5"/>
<path d="M15.2986 5.09545C16.5495 5.15198 17.4535 5.70191 18.0106 6.74524L18.0755 5.30973L20.9234 5.43843L20.2635 20.0416L17.4156 19.9129L17.7007 13.6038C17.0017 14.7087 16.0491 15.234 14.843 15.1795C14.0612 15.1441 13.3558 14.9051 12.7267 14.4623C12.1093 14.0082 11.6279 13.3945 11.2823 12.6212C10.9368 11.8479 10.7862 10.9709 10.8305 9.99024C10.8748 9.0096 11.1042 8.14388 11.5186 7.39307C11.9335 6.63045 12.4745 6.0511 13.1415 5.65504C13.809 5.24716 14.528 5.06063 15.2986 5.09545ZM15.8997 7.76863C15.3413 7.7434 14.8514 7.93437 14.4301 8.34153C14.0094 8.73689 13.7811 9.33036 13.7454 10.122C13.7101 10.9017 13.8789 11.5013 14.2516 11.9207C14.636 12.3288 15.1131 12.5457 15.6826 12.5714C16.241 12.5966 16.7306 12.4116 17.1514 12.0162C17.5838 11.6095 17.8174 11.0222 17.8521 10.2543C17.8868 9.4863 17.7069 8.88622 17.3123 8.45402C16.929 8.02233 16.4581 7.79387 15.8997 7.76863Z" fill="#99B2C5"/>
<path d="M32.1932 5.9477L31.7463 15.8368L28.8649 15.7066L28.9458 13.9166C28.6516 14.4834 28.2287 14.926 27.6772 15.2444C27.1368 15.5634 26.5148 15.7069 25.8112 15.6751C24.7391 15.6267 23.9018 15.21 23.2994 14.4251C22.7081 13.6406 22.4424 12.5868 22.5022 11.2635L22.7617 5.5215L25.6096 5.65019L25.3669 11.0201C25.3365 11.6935 25.4746 12.2266 25.7814 12.6193C26.0999 13.0007 26.5384 13.204 27.0968 13.2293C27.6775 13.2555 28.1442 13.0812 28.4969 12.7065C28.8496 12.3317 29.0422 11.784 29.0747 11.0633L29.3118 5.81749L32.1932 5.9477Z" fill="#99B2C5"/>
<path d="M34.0252 3.2424C34.046 2.78162 34.2194 2.41061 34.5455 2.12936C34.8721 1.83631 35.2922 1.70139 35.806 1.7246C36.3197 1.74782 36.726 1.92009 37.0248 2.2414C37.3242 2.55091 37.4634 2.93605 37.4426 3.39683C37.4223 3.8458 37.2489 4.21681 36.9223 4.50986C36.5962 4.79111 36.1763 4.92012 35.6626 4.8969C35.1489 4.87369 34.7423 4.70733 34.443 4.39782C34.1441 4.07651 34.0049 3.69136 34.0252 3.2424ZM37.0321 6.16637L36.5852 16.0554L33.7206 15.926L34.1675 6.03692L37.0321 6.16637Z" fill="#99B2C5"/>
<path d="M44.8453 6.39513C45.6159 6.42996 46.2934 6.66775 46.8778 7.10853C47.4739 7.53799 47.9277 8.14453 48.2392 8.92814C48.5624 9.70045 48.7005 10.6065 48.6535 11.6462C48.6071 12.6741 48.3878 13.5639 47.9957 14.3157C47.6148 15.0681 47.1079 15.6371 46.4749 16.0229C45.8537 16.3973 45.1578 16.5671 44.3872 16.5323C43.6724 16.5 43.0659 16.3009 42.5677 15.9351C42.0694 15.5692 41.7164 15.0856 41.5085 14.4843L41.2146 20.9884L38.35 20.859L39.0099 6.25574L41.8745 6.3852L41.7936 8.17515C42.0549 7.59501 42.4501 7.14522 42.9793 6.82581C43.5085 6.50639 44.1305 6.36283 44.8453 6.39513ZM43.8038 9.01185C43.2007 8.9846 42.6938 9.18071 42.2832 9.6002C41.8843 10.0084 41.668 10.5846 41.6343 11.329C41.6012 12.0615 41.7647 12.6549 42.1246 13.1092C42.4957 13.564 42.9829 13.8051 43.5859 13.8323C44.2002 13.8601 44.7012 13.6696 45.089 13.2609C45.4879 12.8528 45.7045 12.2706 45.7386 11.5144C45.7728 10.7583 45.6096 10.159 45.2491 9.71647C44.8998 9.27448 44.418 9.03961 43.8038 9.01185Z" fill="#99B2C5"/>
<path d="M59.0307 11.8487C59.0195 12.0968 58.9793 12.3673 58.9101 12.6602L52.427 12.3672C52.4269 13.1131 52.5813 13.6587 52.8902 14.0042C53.1996 14.3378 53.6056 14.516 54.1082 14.5387C54.5326 14.5579 54.8895 14.4615 55.1788 14.2497C55.4682 14.0378 55.6655 13.7566 55.7709 13.4062L58.803 13.5433C58.6487 14.2348 58.3524 14.8489 57.914 15.3855C57.4763 15.9103 56.9319 16.3178 56.2809 16.6081C55.6304 16.8865 54.9143 17.008 54.1325 16.9727C53.2167 16.9313 52.4105 16.6936 51.7139 16.2596C51.029 15.8143 50.5029 15.1986 50.1355 14.4124C49.7682 13.6263 49.6077 12.7193 49.6542 11.6914C49.7012 10.6517 49.9372 9.76258 50.3623 9.02409C50.799 8.27429 51.3838 7.71468 52.1168 7.34528C52.8502 6.96405 53.6748 6.79414 54.5906 6.83552C55.5176 6.87741 56.3238 7.1151 57.0092 7.5486C57.6946 7.98211 58.2107 8.5737 58.5573 9.32338C58.9156 10.0618 59.0734 10.9035 59.0307 11.8487ZM56.1534 11.257C56.1939 10.6077 56.0483 10.1157 55.7165 9.78104C55.3964 9.43508 54.9851 9.25075 54.4825 9.22804C53.9576 9.20432 53.5146 9.35004 53.1534 9.66521C52.7922 9.98039 52.5749 10.456 52.5014 11.092L56.1534 11.257Z" fill="#99B2C5"/>
<path d="M72.8521 7.6785C74.0024 7.73049 74.8899 8.14944 75.5147 8.93537C76.14 9.70949 76.4224 10.7641 76.3621 12.0992L76.1026 17.8412L73.2548 17.7125L73.4982 12.3249C73.5265 11.6987 73.3865 11.207 73.0781 10.8497C72.7814 10.4812 72.3594 10.2845 71.8122 10.2598C71.2426 10.234 70.7818 10.4026 70.4296 10.7656C70.0892 11.1172 69.9038 11.6297 69.8733 12.3032L69.6363 17.549L66.7717 17.4195L67.0151 12.032C67.0434 11.4058 66.909 10.9143 66.6117 10.5575C66.315 10.1889 65.8931 9.99229 65.3458 9.96756C64.7763 9.94183 64.3157 10.1045 63.9641 10.4556C63.6125 10.8068 63.4212 11.325 63.3902 12.0102L63.1532 17.256L60.2885 17.1266L60.7354 7.23751L63.6001 7.36696L63.524 9.05058C63.7948 8.50639 64.1887 8.08614 64.7056 7.78985C65.2338 7.49406 65.8385 7.36156 66.5197 7.39235C67.2345 7.42465 67.8575 7.63039 68.3887 8.00956C68.9205 8.37693 69.3113 8.89182 69.5611 9.55426C69.9128 8.95452 70.376 8.48414 70.951 8.14311C71.5371 7.80259 72.1708 7.64772 72.8521 7.6785Z" fill="#99B2C5"/>
<path d="M87.1201 13.1181C87.1089 13.3662 87.0687 13.6367 86.9995 13.9295L80.5164 13.6365C80.5163 14.3824 80.6707 14.9281 80.9796 15.2735C81.2891 15.6071 81.6951 15.7853 82.1976 15.808C82.622 15.8272 82.9789 15.7309 83.2682 15.519C83.5576 15.3071 83.7549 15.026 83.8603 14.6756L86.8925 14.8126C86.7381 15.5041 86.4418 16.1182 86.0035 16.6548C85.5657 17.1796 85.0213 17.5872 84.3703 17.8774C83.7198 18.1558 83.0037 18.2774 82.2219 18.242C81.3061 18.2007 80.4999 17.963 79.8033 17.529C79.1184 17.0836 78.5923 16.4679 78.225 15.6818C77.8576 14.8956 77.6972 13.9886 77.7436 12.9607C77.7906 11.921 78.0266 11.0319 78.4517 10.2934C78.8884 9.54363 79.4733 8.98403 80.2062 8.61462C80.9396 8.2334 81.7642 8.06348 82.68 8.10487C83.607 8.14675 84.4132 8.38445 85.0986 8.81795C85.7841 9.25145 86.3001 9.84304 86.6467 10.5927C87.005 11.3311 87.1628 12.1729 87.1201 13.1181ZM84.2428 12.5263C84.2833 11.877 84.1377 11.385 83.8059 11.0504C83.4858 10.7044 83.0745 10.5201 82.5719 10.4974C82.047 10.4737 81.604 10.6194 81.2428 10.9346C80.8816 11.2497 80.6643 11.7253 80.5908 12.3613L84.2428 12.5263Z" fill="#99B2C5"/>
<path d="M94.7599 8.66851C95.8321 8.71696 96.6638 9.13339 97.255 9.91781C97.8574 10.7027 98.1287 11.7568 98.0689 13.0801L97.8095 18.8221L94.9448 18.6927L95.1883 13.3051C95.2182 12.6435 95.0739 12.1219 94.7554 11.7405C94.4486 11.3478 94.0216 11.1391 93.4744 11.1144C92.8936 11.0881 92.4213 11.2621 92.0575 11.6364C91.7048 12.0111 91.5122 12.5589 91.4796 13.2796L91.2426 18.5254L88.378 18.3959L88.8248 8.50686L91.6895 8.63631L91.6078 10.444C91.9025 9.86535 92.3201 9.41658 92.8605 9.09767C93.412 8.77926 94.0452 8.63621 94.7599 8.66851Z" fill="#99B2C5"/>
<path d="M105.11 16.5415L104.992 19.1467L103.703 19.0884C102.608 19.039 101.767 18.7168 101.178 18.1219C100.601 17.5158 100.342 16.551 100.402 15.2278L100.566 11.5947L99.31 11.5379L99.4253 8.98589L100.682 9.04266L100.791 6.6147L103.656 6.74415L103.546 9.17211L105.423 9.2569L105.307 11.8089L103.431 11.7241L103.264 15.4104C103.247 15.8003 103.307 16.0753 103.445 16.2354C103.595 16.3961 103.848 16.4845 104.206 16.5007L105.11 16.5415Z" fill="#99B2C5"/>
<path d="M6.00735 98.0078L5.95357 102.323L2.92545 102.286L3.07878 89.9827L7.98398 90.0438C9.47148 90.0624 10.6003 90.4419 11.3703 91.1825C12.1405 91.9115 12.518 92.8908 12.5026 94.1205C12.4931 94.8862 12.3075 95.5685 11.9458 96.1673C11.5961 96.7547 11.0767 97.2181 10.3876 97.5576C9.69868 97.8855 8.86429 98.0434 7.88443 98.0312L6.00735 98.0078ZM7.57769 95.643C8.79366 95.6581 9.40822 95.1378 9.42138 94.0821C9.43483 93.0032 8.83357 92.4562 7.61759 92.4411L6.07697 92.4219L6.03707 95.6238L7.57769 95.643Z" fill="#99B2C5"/>
<path d="M17.0157 94.5771C17.4009 93.9901 17.8908 93.5263 18.4854 93.1857C19.0918 92.8451 19.7433 92.6792 20.4398 92.6879L20.4001 95.8724L19.5324 95.8616C18.7296 95.8516 18.1019 96.012 17.649 96.3428C17.208 96.6738 16.9826 97.2395 16.9726 98.04L16.9175 102.46L13.8894 102.422L14.0104 92.7122L17.0385 92.7499L17.0157 94.5771Z" fill="#99B2C5"/>
<path d="M26.3293 92.7439C27.3091 92.7561 28.1802 92.97 28.9425 93.3856C29.7168 93.7898 30.3176 94.3716 30.745 95.1311C31.1842 95.8908 31.3975 96.7752 31.385 97.7845C31.3724 98.7938 31.1371 99.6727 30.6791 100.421C30.2329 101.17 29.6177 101.742 28.8334 102.139C28.0612 102.523 27.1851 102.71 26.2052 102.698C25.2254 102.685 24.3483 102.477 23.5741 102.073C22.8 101.657 22.1933 101.07 21.7541 100.31C21.3267 99.5504 21.1193 98.666 21.1319 97.6567C21.1444 96.6474 21.3738 95.7685 21.82 95.0199C22.278 94.2714 22.8991 93.7048 23.6832 93.3201C24.4674 92.9237 25.3494 92.7317 26.3293 92.7439ZM26.2972 95.3193C25.7187 95.3121 25.2262 95.5148 24.8196 95.9275C24.425 96.3286 24.2228 96.9179 24.2131 97.6951C24.2034 98.4724 24.3908 99.0665 24.7754 99.4774C25.1717 99.8884 25.6591 100.098 26.2375 100.105C26.816 100.112 27.3026 99.915 27.6972 99.5138C28.0919 99.1126 28.294 98.5234 28.3037 97.7461C28.3134 96.9689 28.126 96.3748 27.7415 95.9639C27.3571 95.5414 26.8757 95.3265 26.2972 95.3193Z" fill="#99B2C5"/>
<path d="M38.5224 100.171L38.4905 102.729L37.127 102.712C35.97 102.697 35.0704 102.408 34.428 101.843C33.7976 101.266 33.4905 100.329 33.5067 99.0293L33.5511 95.4619L32.223 95.4454L32.2542 92.9396L33.5824 92.9561L33.6121 90.5721L36.6402 90.6098L36.6105 92.9939L38.5938 93.0186L38.5626 95.5244L36.5793 95.4997L36.5341 99.1192C36.5294 99.502 36.6028 99.7698 36.7544 99.9226C36.9178 100.075 37.1884 100.154 37.5661 100.159L38.5224 100.171Z" fill="#99B2C5"/>
<path d="M44.9368 92.9758C45.9167 92.988 46.7878 93.2019 47.5501 93.6175C48.3243 94.0217 48.9252 94.6035 49.3526 95.363C49.7918 96.1227 50.0051 97.0071 49.9925 98.0164C49.9799 99.0257 49.7446 99.9046 49.2866 100.653C48.8404 101.402 48.2252 101.974 47.441 102.371C46.6687 102.755 45.7927 102.942 44.8128 102.93C43.8329 102.917 42.9559 102.709 42.1816 102.305C41.4075 101.889 40.8009 101.302 40.3617 100.542C39.9342 99.7823 39.7268 98.8979 39.7394 97.8886C39.752 96.8794 39.9814 96.0004 40.4276 95.2518C40.8856 94.5033 41.5066 93.9367 42.2907 93.552C43.0749 93.1556 43.957 92.9636 44.9368 92.9758ZM44.9047 95.5512C44.3263 95.544 43.8337 95.7467 43.4271 96.1594C43.0325 96.5606 42.8303 97.1498 42.8207 97.927C42.811 98.7043 42.9984 99.2984 43.3829 99.7093C43.7792 100.12 44.2666 100.329 44.8451 100.337C45.4236 100.344 45.9101 100.147 46.3048 99.7457C46.6994 99.3445 46.9016 98.7553 46.9113 97.978C46.921 97.2008 46.7335 96.6067 46.349 96.1958C45.9646 95.7733 45.4832 95.5584 44.9047 95.5512Z" fill="#99B2C5"/>
<path d="M56.0873 93.1148C57.3623 93.1307 58.4263 93.492 59.2795 94.1988C60.1327 94.894 60.664 95.8463 60.8733 97.0556L57.6681 97.0156C57.5788 96.5968 57.3881 96.2695 57.0958 96.0338C56.8036 95.7982 56.4332 95.6775 55.9846 95.6719C55.4533 95.6653 55.0139 95.8687 54.6663 96.282C54.3189 96.6838 54.1403 97.2791 54.1305 98.068C54.1206 98.8569 54.2843 99.4623 54.6214 99.8842C54.9587 100.294 55.393 100.503 55.9243 100.51C56.3729 100.515 56.7462 100.404 57.0442 100.175C57.3423 99.9471 57.5411 99.6247 57.6407 99.2082L60.8459 99.2482C60.6066 100.452 60.0517 101.396 59.1812 102.082C58.3109 102.755 57.2382 103.084 55.9632 103.068C54.9952 103.056 54.1358 102.848 53.3852 102.445C52.6465 102.029 52.0693 101.442 51.6537 100.683C51.2381 99.9232 51.0366 99.0389 51.0492 98.0296C51.0619 97.0087 51.2795 96.1296 51.702 95.3923C52.1364 94.6435 52.7338 94.0766 53.4943 93.6916C54.2549 93.295 55.1192 93.1027 56.0873 93.1148Z" fill="#99B2C5"/>
<path d="M67.1241 93.2523C68.104 93.2645 68.9751 93.4784 69.7374 93.894C70.5116 94.2982 71.1124 94.88 71.5398 95.6395C71.979 96.3992 72.1924 97.2837 72.1798 98.293C72.1672 99.3022 71.9319 100.181 71.4739 100.93C71.0277 101.678 70.4125 102.251 69.6283 102.647C68.856 103.032 67.9799 103.218 67.0001 103.206C66.0202 103.194 65.1431 102.986 64.3689 102.581C63.5948 102.166 62.9881 101.578 62.5489 100.818C62.1215 100.059 61.9141 99.1745 61.9267 98.1652C61.9393 97.1559 62.1686 96.2769 62.6148 95.5283C63.0729 94.7798 63.6939 94.2132 64.478 93.8285C65.2622 93.4322 66.1443 93.2401 67.1241 93.2523ZM67.092 95.8278C66.5135 95.8205 66.021 96.0233 65.6144 96.4359C65.2198 96.8371 65.0176 97.4263 65.0079 98.2036C64.9982 98.9808 65.1856 99.5749 65.5702 99.9858C65.9665 100.397 66.4539 100.606 67.0324 100.613C67.6108 100.62 68.0974 100.423 68.492 100.022C68.8867 99.621 69.0889 99.0318 69.0985 98.2546C69.1082 97.4773 68.9208 96.8832 68.5363 96.4723C68.1519 96.0498 67.6705 95.835 67.092 95.8278Z" fill="#99B2C5"/>
<path d="M76.8781 90.3281L76.7176 103.205L73.6895 103.168L73.85 90.2904L76.8781 90.3281Z" fill="#99B2C5"/>
<path d="M88.2575 98.2323C88.2544 98.4759 88.2216 98.7423 88.159 99.0316L81.3058 98.9462C81.3321 99.6775 81.5145 100.208 81.8528 100.537C82.1912 100.854 82.6261 101.016 83.1573 101.023C83.6059 101.029 83.9792 100.923 84.2771 100.706C84.575 100.49 84.7733 100.208 84.8721 99.8609L88.0773 99.9008C87.9389 100.584 87.6479 101.195 87.2043 101.735C86.7608 102.263 86.2007 102.68 85.5239 102.984C84.8472 103.278 84.0957 103.419 83.2693 103.409C82.3012 103.397 81.4419 103.189 80.6912 102.785C79.9526 102.37 79.3754 101.782 78.9598 101.023C78.5442 100.264 78.3427 99.3792 78.3553 98.3699C78.368 97.349 78.5856 96.4699 79.008 95.7326C79.4424 94.9838 80.0399 94.4169 80.8003 94.0319C81.561 93.6353 82.4253 93.443 83.3933 93.4551C84.3732 93.4673 85.2325 93.6753 85.9714 94.079C86.7102 94.4827 87.2758 95.0467 87.6683 95.7709C88.0726 96.4837 88.269 97.3042 88.2575 98.2323ZM85.1996 97.7416C85.2193 97.1037 85.0482 96.6259 84.6861 96.3081C84.336 95.9789 83.8953 95.8109 83.3641 95.8043C82.8092 95.7974 82.3468 95.9541 81.9767 96.2743C81.6067 96.5946 81.3942 97.0677 81.3392 97.6935L85.1996 97.7416Z" fill="#99B2C5"/>
<path d="M93.4896 93.5809C94.741 93.5965 95.7347 93.9164 96.4708 94.5405C97.2187 95.1648 97.6808 95.9827 97.8571 96.9944L95.0237 96.9591C94.946 96.5636 94.761 96.2538 94.4686 96.0297C94.1881 95.7942 93.8295 95.6737 93.3927 95.6682C93.0503 95.664 92.7897 95.7361 92.6107 95.8847C92.4319 96.0217 92.3408 96.2237 92.3375 96.4905C92.3337 96.7921 92.4903 97.0203 92.8072 97.1751C93.1358 97.33 93.6475 97.4872 94.3422 97.6467C95.0955 97.8302 95.7131 98.0177 96.1948 98.2094C96.6767 98.3894 97.0921 98.6847 97.4413 99.0951C97.7904 99.5056 97.9606 100.053 97.9521 100.737C97.9452 101.294 97.7856 101.785 97.4733 102.211C97.161 102.636 96.7141 102.967 96.1326 103.204C95.5511 103.44 94.8648 103.553 94.0738 103.543C92.7398 103.527 91.675 103.223 90.8795 102.633C90.0839 102.043 89.6043 101.208 89.4407 100.127L92.3626 100.163C92.4046 100.581 92.5777 100.903 92.8819 101.127C93.1979 101.351 93.6038 101.466 94.0996 101.473C94.442 101.477 94.7027 101.405 94.8816 101.256C95.0607 101.096 95.1519 100.888 95.1551 100.633C95.1593 100.297 94.997 100.057 94.6681 99.9134C94.3513 99.7586 93.8279 99.5954 93.0979 99.4239C92.3679 99.2639 91.7678 99.094 91.2978 98.9141C90.8277 98.7342 90.4239 98.4507 90.0863 98.0636C89.7489 97.6649 89.5843 97.1291 89.5927 96.4563C89.6036 95.5862 89.9488 94.8885 90.6283 94.3633C91.308 93.8264 92.2618 93.5656 93.4896 93.5809Z" fill="#99B2C5"/>
<path d="M215.24 18.445L215.072 22.9675L212.126 22.8582L212.604 9.96564L217.376 10.1426C218.823 10.1962 219.911 10.62 220.641 11.414C221.371 12.1959 221.712 13.2311 221.664 14.5198C221.634 15.3222 221.436 16.033 221.068 16.6524C220.712 17.2601 220.194 17.7339 219.514 18.074C218.835 18.4018 218.019 18.5481 217.066 18.5127L215.24 18.445ZM216.831 16.0023C218.014 16.0462 218.626 15.5149 218.667 14.4087C218.709 13.278 218.138 12.6908 216.955 12.6469L215.457 12.5914L215.332 15.9467L216.831 16.0023Z" fill="#99B2C5"/>
<path d="M226.044 15.1022C226.434 14.4958 226.923 14.0209 227.511 13.6775C228.11 13.3345 228.749 13.1755 229.426 13.2006L229.302 16.5378L228.458 16.5065C227.677 16.4775 227.062 16.6312 226.613 16.9676C226.175 17.3044 225.94 17.8922 225.909 18.7311L225.737 23.3629L222.792 23.2537L223.169 13.0782L226.115 13.1874L226.044 15.1022Z" fill="#99B2C5"/>
<path d="M235.156 13.3948C236.109 13.4302 236.951 13.6744 237.682 14.1276C238.424 14.5691 238.993 15.1928 239.389 15.9987C239.796 16.8051 239.98 17.7371 239.941 18.7948C239.901 19.8525 239.649 20.7683 239.183 21.5424C238.729 22.3168 238.115 22.9027 237.341 23.3001C236.58 23.6858 235.722 23.861 234.769 23.8256C233.816 23.7903 232.968 23.5519 232.225 23.1104C231.483 22.6568 230.908 22.0268 230.501 21.2204C230.106 20.4145 229.928 19.4827 229.967 18.425C230.006 17.3673 230.253 16.4513 230.707 15.6768C231.173 14.9028 231.792 14.3231 232.565 13.9379C233.339 13.5405 234.203 13.3595 235.156 13.3948ZM235.056 16.0937C234.493 16.0728 234.008 16.274 233.602 16.6972C233.207 17.1086 232.994 17.7216 232.964 18.5361C232.934 19.3507 233.1 19.9777 233.464 20.4172C233.838 20.8572 234.307 21.0876 234.87 21.1085C235.432 21.1294 235.911 20.9341 236.306 20.5226C236.701 20.1112 236.913 19.4982 236.943 18.6837C236.974 17.8692 236.807 17.2421 236.444 16.8026C236.081 16.3509 235.618 16.1146 235.056 16.0937Z" fill="#99B2C5"/>
<path d="M247.656 13.8583C248.449 13.8877 249.147 14.1267 249.751 14.5751C250.368 15.0119 250.839 15.632 251.166 16.4354C251.505 17.2271 251.654 18.1578 251.614 19.2277C251.575 20.2853 251.357 21.2025 250.96 21.979C250.575 22.756 250.059 23.3456 249.411 23.7477C248.776 24.138 248.062 24.3185 247.27 24.2891C246.535 24.2619 245.909 24.0622 245.394 23.69C244.879 23.3179 244.512 22.8234 244.294 22.2066L244.045 28.8991L241.1 28.7899L241.657 13.7637L244.603 13.8729L244.534 15.7147C244.798 15.1158 245.2 14.6499 245.742 14.3169C246.283 13.9839 246.921 13.8311 247.656 13.8583ZM246.607 16.5585C245.987 16.5356 245.468 16.7415 245.049 17.1764C244.643 17.5996 244.425 18.1941 244.397 18.96C244.369 19.7138 244.542 20.3228 244.915 20.7871C245.301 21.2518 245.803 21.4957 246.423 21.5186C247.055 21.5421 247.569 21.342 247.964 20.9184C248.37 20.4952 248.588 19.8946 248.617 19.1165C248.646 18.3385 248.473 17.7234 248.099 17.2712C247.736 16.8195 247.239 16.582 246.607 16.5585Z" fill="#99B2C5"/>
<path d="M256.206 16.2206C256.597 15.6142 257.086 15.1393 257.674 14.7958C258.273 14.4528 258.911 14.2939 259.589 14.319L259.465 17.6562L258.621 17.6249C257.84 17.5959 257.225 17.7496 256.775 18.086C256.337 18.4228 256.103 19.0106 256.072 19.8494L255.9 24.4813L252.954 24.3721L253.332 14.1966L256.277 14.3058L256.206 16.2206Z" fill="#99B2C5"/>
<path d="M260.648 11.6009C260.666 11.1268 260.841 10.7437 261.174 10.4517C261.507 10.1476 261.938 10.0053 262.466 10.0249C262.994 10.0445 263.413 10.2183 263.723 10.5463C264.033 10.8621 264.18 11.2571 264.162 11.7312C264.145 12.1932 263.97 12.5763 263.637 12.8804C263.304 13.1724 262.873 13.3087 262.345 13.2891C261.817 13.2695 261.397 13.1018 261.087 12.7859C260.777 12.4579 260.631 12.0629 260.648 11.6009ZM263.763 14.5834L263.386 24.7589L260.44 24.6496L260.818 14.4742L263.763 14.5834Z" fill="#99B2C5"/>
<path d="M274.748 19.8115C274.739 20.0668 274.7 20.3454 274.631 20.6472L267.965 20.4C267.971 21.1672 268.134 21.7271 268.454 22.0799C268.775 22.4205 269.194 22.6003 269.711 22.6195C270.147 22.6357 270.513 22.5336 270.809 22.3133C271.105 22.0929 271.305 21.8021 271.41 21.4408L274.528 21.5564C274.375 22.269 274.076 22.9031 273.63 23.4587C273.184 24.0022 272.628 24.4259 271.961 24.7299C271.295 25.0217 270.56 25.1527 269.756 25.1229C268.814 25.088 267.984 24.8502 267.264 24.4096C266.556 23.9573 266.01 23.3284 265.626 22.5228C265.242 21.7173 265.07 20.7857 265.109 19.728C265.148 18.6582 265.384 17.7417 265.814 16.9785C266.257 16.2037 266.854 15.6232 267.604 15.2371C268.355 14.8388 269.201 14.6572 270.143 14.6921C271.096 14.7274 271.927 14.9652 272.635 15.4054C273.343 15.8455 273.878 16.4497 274.241 17.2179C274.615 17.9744 274.784 18.839 274.748 19.8115ZM271.786 19.2269C271.822 18.5587 271.668 18.0539 271.324 17.7124C270.993 17.3592 270.568 17.1731 270.051 17.1539C269.512 17.1339 269.057 17.2875 268.689 17.6147C268.32 17.9419 268.101 18.4329 268.031 19.0877L271.786 19.2269ZM272.698 12.3034L268.477 14.0277L268.555 11.9124L272.785 9.95099L272.698 12.3034Z" fill="#99B2C5"/>
<path d="M281.628 22.7509L281.529 25.4316L280.202 25.3824C279.077 25.3407 278.209 25.0163 277.599 24.4094C277.001 23.7907 276.727 22.8005 276.778 21.4389L276.916 17.7006L275.624 17.6527L275.722 15.0268L277.014 15.0747L277.106 12.5764L280.052 12.6856L279.959 15.1839L281.889 15.2554L281.791 17.8814L279.862 17.8098L279.721 21.6029C279.706 22.004 279.771 22.2864 279.914 22.45C280.069 22.614 280.33 22.7028 280.698 22.7164L281.628 22.7509Z" fill="#99B2C5"/>
<path d="M292.513 20.4702C292.503 20.7255 292.464 21.004 292.396 21.3058L285.729 21.0587C285.735 21.8258 285.898 22.3858 286.219 22.7385C286.54 23.0791 286.958 23.259 287.475 23.2782C287.912 23.2943 288.278 23.1923 288.573 22.9719C288.869 22.7516 289.07 22.4608 289.175 22.0995L292.293 22.2151C292.14 22.9277 291.84 23.5618 291.394 24.1174C290.949 24.6609 290.392 25.0846 289.726 25.3886C289.059 25.6804 288.324 25.8114 287.52 25.7816C286.579 25.7466 285.748 25.5089 285.028 25.0683C284.321 24.616 283.775 23.987 283.391 23.1815C283.006 22.376 282.834 21.4444 282.873 20.3867C282.913 19.3169 283.148 18.4004 283.579 17.6372C284.022 16.8623 284.618 16.2819 285.368 15.8958C286.119 15.4975 286.965 15.3159 287.907 15.3508C288.86 15.3861 289.691 15.6239 290.399 16.064C291.107 16.5042 291.643 17.1084 292.005 17.8766C292.38 18.6331 292.549 19.4976 292.513 20.4702ZM289.55 19.8856C289.587 19.2174 289.433 18.7125 289.089 18.3711C288.757 18.0179 288.333 17.8317 287.816 17.8126C287.276 17.7926 286.822 17.9462 286.453 18.2734C286.085 18.6006 285.865 19.0916 285.795 19.7463L289.55 19.8856ZM290.462 12.9621L286.241 14.6864L286.32 12.5711L290.55 10.6097L290.462 12.9621Z" fill="#99B2C5"/>
<path d="M297.729 15.7149C298.946 15.7601 299.904 16.1182 300.604 16.7894C301.315 17.4609 301.743 18.329 301.887 19.3935L299.131 19.2913C299.066 18.8749 298.894 18.546 298.616 18.3043C298.349 18.051 298.003 17.9164 297.578 17.9007C297.245 17.8883 296.99 17.958 296.812 18.1096C296.634 18.2491 296.54 18.4587 296.53 18.7383C296.518 19.0544 296.664 19.2972 296.968 19.4667C297.284 19.6367 297.778 19.8132 298.45 19.9964C299.178 20.206 299.774 20.4168 300.237 20.6288C300.701 20.8286 301.098 21.1476 301.427 21.5859C301.755 22.0242 301.906 22.602 301.88 23.3192C301.858 23.9028 301.69 24.4139 301.374 24.8527C301.059 25.2914 300.615 25.628 300.043 25.8624C299.471 26.0968 298.8 26.1998 298.031 26.1713C296.733 26.1232 295.705 25.7807 294.947 25.1439C294.188 24.5071 293.744 23.6202 293.614 22.4832L296.456 22.5886C296.486 23.0279 296.645 23.3686 296.936 23.6107C297.237 23.8532 297.629 23.9833 298.111 24.0012C298.444 24.0136 298.7 23.9439 298.878 23.7923C299.057 23.6285 299.151 23.4128 299.161 23.1454C299.174 22.7928 299.022 22.5376 298.706 22.3798C298.402 22.2103 297.897 22.0272 297.191 21.8306C296.485 21.6462 295.906 21.4543 295.453 21.2549C295.001 21.0555 294.615 20.749 294.297 20.3355C293.979 19.9098 293.833 19.3444 293.86 18.6393C293.893 17.7275 294.248 17.0041 294.923 16.4692C295.599 15.9221 296.534 15.6706 297.729 15.7149Z" fill="#99B2C5"/>
</svg>
