<svg width="381" height="236" viewBox="0 0 381 236" fill="none" xmlns="http://www.w3.org/2000/svg">
<path d="M222.831 64.96C222.251 63.27 215.061 57.4 219.471 56.56L223.081 61.41C229.731 54.99 233.081 51.81 239.701 45.48L241.371 47.17C233.951 54.25 230.271 57.79 222.831 64.96Z" fill="#2BC47C"/>
<path d="M222.831 108.92C222.251 107.24 215.061 101.49 219.471 100.57L223.081 105.36C229.731 98.8402 233.081 95.6002 239.701 89.1602C240.361 89.8302 240.701 90.1602 241.371 90.8202C233.951 98.0102 230.271 101.63 222.831 108.92Z" fill="#2BC47C"/>
<path d="M222.831 154.67C222.251 153 215.061 147.37 219.471 146.38L223.081 151.11C229.731 144.47 233.081 141.18 239.701 134.62C240.361 135.28 240.701 135.62 241.371 136.26C233.951 143.57 230.271 147.25 222.831 154.67Z" fill="#2BC47C"/>
<path d="M273.15 64.36C273.807 64.3881 274.463 64.284 275.079 64.0536C275.695 63.8233 276.259 63.4715 276.736 63.0191C277.214 62.5667 277.596 62.023 277.859 61.4201C278.123 60.8173 278.262 60.1678 278.27 59.51C278.241 58.1637 277.692 56.881 276.737 55.9316C275.782 54.9823 274.496 54.4404 273.15 54.42C272.492 54.3876 271.834 54.4885 271.216 54.7166C270.598 54.9447 270.033 55.2952 269.554 55.7472C269.074 56.1993 268.692 56.7434 268.428 57.347C268.164 57.9507 268.025 58.6013 268.02 59.26C268.045 60.6097 268.595 61.8964 269.552 62.8482C270.51 63.7999 271.8 64.342 273.15 64.36V64.36Z" fill="#99B2C5"/>
<path d="M374.907 61.3799L292.367 59.3799V60.3799L374.907 62.3799V61.3799Z" fill="#99B2C5"/>
<path d="M273.15 107.5C273.81 107.516 274.468 107.401 275.084 107.161C275.7 106.921 276.262 106.562 276.738 106.103C277.214 105.645 277.595 105.096 277.858 104.49C278.12 103.884 278.26 103.231 278.27 102.57C278.246 101.231 277.695 99.9544 276.737 99.0184C275.778 98.0823 274.489 97.562 273.15 97.5701C272.488 97.5528 271.829 97.667 271.212 97.9062C270.595 98.1454 270.032 98.5046 269.555 98.9632C269.077 99.4218 268.696 99.9706 268.432 100.578C268.169 101.185 268.029 101.838 268.02 102.5C268.046 103.84 268.599 105.117 269.559 106.052C270.519 106.988 271.809 107.508 273.15 107.5V107.5Z" fill="#99B2C5"/>
<path d="M374.907 102.85L292.367 102.18V103.18L374.907 103.81V102.85Z" fill="#99B2C5"/>
<path d="M273.15 152.39C274.488 152.393 275.774 151.871 276.731 150.936C277.688 150.001 278.241 148.728 278.27 147.39C278.259 146.73 278.118 146.079 277.855 145.473C277.591 144.868 277.211 144.321 276.735 143.864C276.259 143.406 275.697 143.047 275.081 142.808C274.466 142.569 273.809 142.454 273.15 142.47C271.809 142.462 270.519 142.982 269.559 143.918C268.599 144.854 268.046 146.13 268.02 147.47C268.03 148.131 268.171 148.783 268.435 149.389C268.699 149.995 269.081 150.543 269.558 151.001C270.035 151.458 270.598 151.816 271.215 152.055C271.831 152.294 272.489 152.407 273.15 152.39V152.39Z" fill="#99B2C5"/>
<path d="M374.907 146L292.367 146.75V147.75L374.907 146.98V146Z" fill="#99B2C5"/>
<path d="M235.771 162.03L210.141 162.4V136.4L227.571 136.32V137.32L211.171 137.4V161.32L234.751 160.98V149.38H235.751L235.771 162.03Z" fill="#99B2C5"/>
<path d="M235.771 116.38L210.141 116.32V90.3203L227.571 90.5303V91.5303L211.171 91.3403V115.25L234.751 115.32V103.72H235.751L235.771 116.38Z" fill="#99B2C5"/>
<path d="M235.771 70.71L210.141 70.21V44.25L227.571 44.76V45.76L211.171 45.29V69.25L234.751 69.72V58.09H235.751L235.771 70.71Z" fill="#99B2C5"/>
<path d="M214.539 18.2501V22.5601L211.539 22.4501V10.1401L216.409 10.3401C217.649 10.3091 218.855 10.7526 219.779 11.5801C220.17 11.9727 220.474 12.442 220.674 12.9584C220.874 13.4748 220.964 14.027 220.939 14.5801C220.946 15.2824 220.763 15.9735 220.409 16.5801C220.05 17.177 219.516 17.6485 218.879 17.9301C218.1 18.2595 217.253 18.4 216.409 18.3401L214.539 18.2501ZM216.069 15.9201C217.279 15.9201 217.879 15.4701 217.879 14.4101C217.879 13.3501 217.279 12.7701 216.069 12.7201L214.539 12.6601V15.8601L216.069 15.9201ZM225.419 15.1101C225.783 14.5532 226.277 14.0933 226.859 13.7701C227.453 13.4491 228.124 13.297 228.799 13.3301V16.5001H227.929C227.279 16.4371 226.626 16.5881 226.069 16.9301C225.837 17.1398 225.657 17.401 225.544 17.6928C225.431 17.9846 225.388 18.2988 225.419 18.6101V23.0101L222.419 22.9001V13.1801L225.419 13.3001V15.1101ZM234.639 13.5501C235.559 13.5673 236.462 13.8075 237.269 14.2501C238.029 14.6602 238.656 15.2774 239.079 16.0301C239.533 16.8386 239.764 17.7531 239.749 18.6801C239.767 19.5917 239.535 20.4908 239.079 21.2801C238.657 22.0085 238.027 22.5937 237.269 22.9601C236.454 23.3288 235.562 23.4968 234.669 23.4501C233.754 23.4258 232.857 23.1896 232.049 22.7601C231.287 22.3378 230.654 21.7155 230.219 20.9601C229.775 20.1449 229.551 19.2282 229.569 18.3001C229.545 17.3905 229.77 16.4915 230.219 15.7001C230.65 14.9813 231.287 14.4095 232.049 14.0601C232.859 13.6843 233.748 13.5126 234.639 13.5601V13.5501ZM234.639 16.1101C234.37 16.0905 234.099 16.1305 233.847 16.2273C233.594 16.3241 233.366 16.4753 233.179 16.6701C232.971 16.9068 232.813 17.1827 232.713 17.4815C232.614 17.7803 232.575 18.0961 232.599 18.4101C232.554 19.0593 232.762 19.7007 233.179 20.2001C233.364 20.4048 233.589 20.5692 233.84 20.6827C234.091 20.7963 234.363 20.8567 234.639 20.8601C234.905 20.8774 235.171 20.8372 235.419 20.7423C235.668 20.6473 235.893 20.5 236.079 20.3101C236.287 20.0735 236.445 19.7976 236.545 19.4988C236.645 19.2 236.683 18.8842 236.659 18.5701C236.703 17.9242 236.495 17.2865 236.079 16.7901C235.898 16.586 235.676 16.4213 235.428 16.3061C235.181 16.1908 234.912 16.1276 234.639 16.1201V16.1101ZM247.389 14.1101C248.159 14.1372 248.906 14.376 249.549 14.8001C250.208 15.2378 250.731 15.8509 251.059 16.5701C251.453 17.3896 251.645 18.2914 251.619 19.2001C251.644 20.096 251.452 20.9846 251.059 21.7901C250.731 22.4805 250.205 23.0581 249.549 23.4501C248.891 23.817 248.142 23.9903 247.389 23.9501C246.706 23.9411 246.038 23.7438 245.459 23.3801C244.921 23.0416 244.504 22.5409 244.269 21.9501V28.2501L241.269 28.1401V13.9501L244.269 14.0801V15.8201C244.504 15.2604 244.919 14.7956 245.449 14.5001C246.041 14.1753 246.715 14.0294 247.389 14.0801V14.1101ZM246.389 16.6501C246.103 16.6291 245.815 16.6701 245.546 16.7702C245.277 16.8702 245.032 17.0271 244.829 17.2301C244.621 17.4551 244.46 17.72 244.357 18.0087C244.254 18.2975 244.21 18.6041 244.229 18.9101C244.201 19.5422 244.416 20.1611 244.829 20.6401C245.029 20.8555 245.27 21.0284 245.538 21.1487C245.806 21.2689 246.095 21.334 246.389 21.3401C246.672 21.3623 246.957 21.3238 247.224 21.2272C247.492 21.1306 247.735 20.9782 247.939 20.7801C248.148 20.5518 248.309 20.2835 248.413 19.9914C248.516 19.6992 248.559 19.3893 248.539 19.0801C248.574 18.4441 248.359 17.8196 247.939 17.3401C247.748 17.1228 247.515 16.9468 247.254 16.823C246.992 16.6991 246.708 16.6301 246.419 16.6201L246.389 16.6501ZM262.459 19.3701C262.455 19.632 262.428 19.893 262.379 20.1501L255.579 19.8901C255.557 20.469 255.758 21.0342 256.139 21.4701C256.494 21.7964 256.957 21.9784 257.439 21.9801C257.83 22.0094 258.219 21.9111 258.549 21.7001C258.831 21.5016 259.036 21.212 259.129 20.8801L262.309 21.0001C262.186 21.6605 261.893 22.2773 261.459 22.7901C261.009 23.3077 260.444 23.712 259.809 23.9701C259.1 24.2469 258.34 24.3696 257.579 24.3301C256.681 24.3138 255.8 24.0841 255.009 23.6601C254.273 23.225 253.671 22.5953 253.269 21.8401C252.849 21.0429 252.643 20.1507 252.669 19.2501C252.645 18.3473 252.858 17.454 253.289 16.6601C253.694 15.9548 254.305 15.3896 255.039 15.0401C255.84 14.6587 256.724 14.4867 257.609 14.5401C258.506 14.5591 259.384 14.796 260.169 15.2301C260.888 15.6288 261.48 16.2213 261.879 16.9401C262.289 17.673 262.499 18.5006 262.489 19.3401L262.459 19.3701ZM259.459 18.8001C259.485 18.5396 259.451 18.2766 259.361 18.0307C259.271 17.7848 259.127 17.5624 258.939 17.3801C258.583 17.041 258.111 16.8513 257.619 16.8501C257.134 16.8025 256.65 16.946 256.269 17.2501C255.89 17.6112 255.667 18.1067 255.649 18.6301L259.459 18.8001ZM267.069 16.8001C267.438 16.2488 267.936 15.7957 268.519 15.4801C269.111 15.162 269.778 15.0132 270.449 15.0501V18.1701H269.589C268.937 18.1019 268.28 18.2494 267.719 18.5901C267.486 18.7926 267.305 19.0484 267.192 19.3356C267.079 19.6228 267.037 19.9331 267.069 20.2401V24.5801L264.069 24.4701V14.8901L267.069 15.0101V16.8001ZM277.269 22.4201V24.9201H275.919C274.943 24.9355 273.992 24.6102 273.229 24.0001C272.884 23.63 272.62 23.1909 272.457 22.7118C272.293 22.2326 272.232 21.7243 272.279 21.2201V17.6801L270.959 17.6201V15.1701L272.269 15.2501V12.8901L275.269 13.0101V15.3501L277.269 15.4301V17.8801L275.269 17.8001V21.3401C275.242 21.6232 275.324 21.906 275.499 22.1301C275.731 22.3076 276.018 22.3963 276.309 22.3801L277.269 22.4201ZM278.679 12.8201C278.671 12.6158 278.711 12.4124 278.796 12.2265C278.881 12.0406 279.009 11.8774 279.169 11.7501C279.536 11.4574 280.002 11.3177 280.469 11.3601C280.95 11.3592 281.413 11.5375 281.769 11.8601C281.928 11.9975 282.054 12.1682 282.139 12.3602C282.223 12.5521 282.264 12.7604 282.259 12.9701C282.264 13.1726 282.223 13.3735 282.138 13.5573C282.053 13.7411 281.927 13.9029 281.769 14.0301C281.397 14.3112 280.933 14.4432 280.469 14.4001C279.992 14.4002 279.531 14.2299 279.169 13.9201C279.009 13.7853 278.88 13.6169 278.792 13.4269C278.704 13.2368 278.658 13.0297 278.659 12.8201H278.679ZM281.959 15.6201V25.0901L278.959 24.9801V15.5001L281.959 15.6201ZM293.349 20.5501C293.346 20.8093 293.316 21.0674 293.259 21.3201L286.459 21.0601C286.443 21.632 286.643 22.1888 287.019 22.6201C287.377 22.9408 287.839 23.1219 288.319 23.1301C288.71 23.1623 289.1 23.0638 289.429 22.8501C289.715 22.6604 289.922 22.3721 290.009 22.0401L293.189 22.1701C293.063 22.8186 292.774 23.4243 292.349 23.9301C291.893 24.4426 291.325 24.843 290.689 25.1001C289.98 25.3778 289.22 25.5005 288.459 25.4601C287.564 25.4403 286.686 25.2072 285.899 24.7801C285.167 24.3664 284.564 23.7569 284.159 23.0201C283.728 22.2226 283.511 21.3267 283.529 20.4201C283.5 19.5276 283.711 18.6437 284.139 17.8601C284.545 17.1566 285.16 16.5972 285.899 16.2601C286.697 15.8821 287.578 15.7135 288.459 15.7701C289.358 15.786 290.24 16.0194 291.029 16.4501C291.744 16.8418 292.333 17.4277 292.729 18.1401C293.142 18.8751 293.349 19.7075 293.329 20.5501H293.349ZM290.349 19.9901C290.371 19.7305 290.335 19.4691 290.244 19.2252C290.152 18.9813 290.007 18.7609 289.819 18.5801C289.451 18.2566 288.983 18.0692 288.494 18.0491C288.004 18.0291 287.522 18.1777 287.129 18.4701C286.938 18.6437 286.785 18.8551 286.68 19.0909C286.575 19.3268 286.52 19.5819 286.519 19.8401L290.349 19.9901ZM298.519 16.1801C299.603 16.1643 300.661 16.5168 301.519 17.1801C302.261 17.794 302.761 18.6518 302.929 19.6001L300.109 19.4901C300.041 19.1254 299.842 18.7982 299.549 18.5701C299.246 18.3253 298.869 18.1912 298.479 18.1901C298.208 18.1593 297.935 18.2267 297.709 18.3801C297.619 18.4466 297.548 18.5345 297.5 18.6358C297.453 18.7371 297.432 18.8486 297.439 18.9601C297.443 19.1082 297.491 19.2518 297.576 19.3728C297.662 19.4939 297.781 19.5869 297.919 19.6401C298.414 19.8475 298.926 20.0115 299.449 20.1301C300.075 20.2897 300.689 20.4902 301.289 20.7301C301.773 20.9185 302.203 21.2244 302.539 21.6201C302.907 22.0736 303.096 22.6466 303.069 23.2301C303.075 23.7379 302.913 24.2335 302.609 24.6401C302.265 25.068 301.808 25.3904 301.289 25.5701C300.421 25.8398 299.505 25.9178 298.603 25.7986C297.702 25.6795 296.837 25.3661 296.069 24.8801C295.675 24.5852 295.343 24.2151 295.092 23.7911C294.841 23.3672 294.677 22.8978 294.609 22.4101L297.509 22.5201C297.518 22.7155 297.571 22.9065 297.662 23.0793C297.754 23.2522 297.883 23.4027 298.039 23.5201C298.397 23.7609 298.818 23.8897 299.249 23.8901C299.523 23.9191 299.799 23.8519 300.029 23.7001C300.114 23.6258 300.182 23.5333 300.227 23.4295C300.272 23.3257 300.293 23.2132 300.289 23.1001C300.292 22.9454 300.246 22.7937 300.158 22.6664C300.07 22.539 299.945 22.4424 299.799 22.3901C299.293 22.1679 298.768 21.9938 298.229 21.8701C297.62 21.7345 297.022 21.554 296.439 21.3301C295.97 21.1494 295.554 20.8536 295.229 20.4701C294.826 19.9297 294.652 19.2526 294.744 18.5849C294.835 17.9171 295.186 17.3121 295.719 16.9001C296.524 16.3561 297.49 16.1021 298.459 16.1801H298.519Z" fill="#99B2C5"/>
<path d="M223.5 209.62C227.478 209.504 231.258 207.859 234.052 205.025C236.847 202.192 238.44 198.389 238.5 194.41C238.492 192.469 238.094 190.55 237.33 188.766C236.566 186.982 235.451 185.37 234.052 184.025C232.653 182.68 230.998 181.63 229.186 180.937C227.373 180.244 225.44 179.922 223.5 179.99C219.512 180.078 215.714 181.717 212.914 184.558C210.114 187.4 208.53 191.221 208.5 195.21C208.494 197.154 208.883 199.079 209.642 200.869C210.401 202.659 211.516 204.276 212.918 205.623C214.32 206.97 215.981 208.019 217.799 208.706C219.618 209.393 221.558 209.704 223.5 209.62V209.62Z" fill="#2BC47C"/>
<path d="M229.73 193.4L224.63 193.53V188.53C224.63 188.375 224.599 188.222 224.539 188.079C224.479 187.937 224.391 187.808 224.28 187.7C224.167 187.591 224.034 187.506 223.888 187.449C223.742 187.392 223.586 187.365 223.43 187.37V187.37C223.109 187.38 222.805 187.512 222.58 187.74C222.359 187.965 222.234 188.265 222.23 188.58V193.58L217.13 193.72C216.809 193.73 216.505 193.862 216.28 194.09C216.058 194.318 215.932 194.622 215.93 194.94C215.932 195.252 216.058 195.551 216.28 195.77C216.509 195.987 216.814 196.105 217.13 196.1L222.23 195.96V200.96C222.232 201.272 222.358 201.571 222.58 201.79C222.81 202.004 223.115 202.119 223.43 202.11V202.11C223.749 202.102 224.053 201.971 224.277 201.743C224.501 201.515 224.627 201.21 224.63 200.89V195.89L229.73 195.75C230.047 195.742 230.35 195.612 230.573 195.387C230.797 195.161 230.925 194.858 230.93 194.54V194.54C230.927 194.228 230.802 193.93 230.58 193.71C230.349 193.496 230.044 193.381 229.73 193.39V193.4Z" fill="white"/>
<path d="M314.44 206.89L366.75 204.97C374.49 204.69 380.75 210.29 380.82 217.48C380.82 224.67 374.61 230.79 366.88 231.15L314.57 233.6C306.84 233.97 300.57 228.25 300.5 220.83C300.47 213.41 306.71 207.17 314.44 206.89Z" fill="#2BC47C"/>
<path d="M330.629 220.88C330.628 221.319 330.504 221.749 330.269 222.12C330.007 222.521 329.64 222.842 329.209 223.05C328.683 223.31 328.105 223.447 327.519 223.45C326.655 223.521 325.792 223.311 325.059 222.85C324.744 222.643 324.484 222.363 324.301 222.034C324.118 221.705 324.018 221.336 324.009 220.96L326.289 220.87C326.307 221.152 326.432 221.417 326.639 221.61C326.863 221.793 327.15 221.882 327.439 221.86C327.677 221.86 327.908 221.775 328.089 221.62C328.168 221.544 328.23 221.452 328.272 221.35C328.313 221.249 328.332 221.139 328.329 221.03C328.331 220.932 328.311 220.834 328.272 220.744C328.232 220.654 328.173 220.574 328.099 220.51C327.945 220.361 327.761 220.249 327.559 220.18C327.264 220.065 326.964 219.964 326.659 219.88C326.187 219.748 325.723 219.591 325.269 219.41C324.912 219.237 324.601 218.983 324.359 218.67C324.091 218.287 323.958 217.826 323.979 217.36C323.969 216.888 324.109 216.426 324.379 216.04C324.665 215.657 325.048 215.356 325.489 215.17C326.003 214.942 326.557 214.82 327.119 214.81C327.946 214.732 328.776 214.941 329.469 215.4C329.759 215.606 329.999 215.875 330.173 216.187C330.346 216.498 330.447 216.844 330.469 217.2L328.139 217.28C328.112 217.033 327.994 216.805 327.809 216.64C327.716 216.555 327.607 216.491 327.488 216.451C327.369 216.411 327.243 216.397 327.119 216.41C326.898 216.41 326.683 216.484 326.509 216.62C326.432 216.693 326.372 216.782 326.333 216.88C326.293 216.978 326.275 217.084 326.279 217.19C326.277 217.379 326.348 217.562 326.479 217.7C326.633 217.839 326.813 217.948 327.009 218.02C327.215 218.1 327.515 218.2 327.909 218.32C328.388 218.445 328.856 218.609 329.309 218.81C329.673 218.98 329.991 219.233 330.239 219.55C330.514 219.937 330.651 220.405 330.629 220.88V220.88ZM334.479 216.37C334.961 216.338 335.443 216.442 335.869 216.67C336.242 216.875 336.539 217.194 336.719 217.58V216.37L338.859 216.3V222.93L336.719 223.01V221.81C336.543 222.222 336.247 222.57 335.869 222.81C335.45 223.067 334.97 223.205 334.479 223.21C333.938 223.239 333.398 223.122 332.919 222.87C332.458 222.595 332.084 222.197 331.839 221.72C331.568 221.159 331.434 220.542 331.449 219.92C331.432 219.288 331.566 218.66 331.839 218.09C332.08 217.592 332.455 217.171 332.92 216.873C333.386 216.574 333.926 216.411 334.479 216.4V216.37ZM335.169 218.13C334.751 218.134 334.352 218.303 334.059 218.6C333.766 218.933 333.616 219.367 333.639 219.81C333.624 220.023 333.654 220.237 333.726 220.439C333.799 220.64 333.912 220.824 334.059 220.98C334.205 221.121 334.38 221.229 334.571 221.296C334.763 221.363 334.967 221.389 335.169 221.37C335.377 221.369 335.582 221.326 335.773 221.243C335.964 221.161 336.136 221.041 336.279 220.89C336.577 220.563 336.735 220.132 336.719 219.69C336.73 219.476 336.697 219.263 336.622 219.063C336.546 218.863 336.429 218.682 336.279 218.53C336.132 218.389 335.957 218.281 335.766 218.212C335.575 218.143 335.371 218.115 335.169 218.13V218.13ZM343.579 220.76C344.189 218.89 344.489 217.95 345.099 216.07L347.389 215.99C346.389 218.67 345.899 219.99 344.899 222.69L342.239 222.8C341.239 220.19 340.739 218.88 339.749 216.26L342.029 216.18L343.579 220.76ZM354.939 218.83C354.937 219.015 354.917 219.199 354.879 219.38L350.009 219.56C350.001 219.755 350.033 219.95 350.104 220.132C350.174 220.315 350.282 220.481 350.419 220.62C350.679 220.833 351.013 220.937 351.349 220.91C351.632 220.903 351.907 220.813 352.139 220.65C352.341 220.507 352.486 220.299 352.549 220.06L354.829 219.97C354.753 220.437 354.56 220.877 354.269 221.25C353.945 221.632 353.543 221.939 353.089 222.15C352.547 222.383 351.963 222.503 351.374 222.503C350.784 222.503 350.2 222.383 349.659 222.15C349.141 221.907 348.708 221.513 348.419 221.02C348.105 220.476 347.946 219.857 347.959 219.23C347.945 218.598 348.097 217.974 348.399 217.42C348.697 216.904 349.134 216.482 349.659 216.2C350.225 215.894 350.856 215.73 351.499 215.72C352.127 215.678 352.755 215.792 353.329 216.05C353.838 216.278 354.265 216.659 354.549 217.14C354.838 217.654 354.973 218.241 354.939 218.83V218.83ZM352.769 218.61C352.796 218.425 352.775 218.235 352.708 218.06C352.642 217.885 352.532 217.73 352.389 217.61C352.124 217.396 351.789 217.289 351.449 217.31C351.082 217.309 350.727 217.441 350.449 217.68C350.312 217.808 350.202 217.963 350.126 218.135C350.051 218.307 350.011 218.492 350.009 218.68L352.769 218.61Z" fill="white"/>
<path d="M97.9072 134.25L15.3672 134.61V135.7L97.9072 135.32V134.25Z" fill="#99B2C5"/>
<path d="M21.1479 174.59C22.5537 174.518 23.8757 173.899 24.8321 172.866C25.7885 171.833 26.3037 170.467 26.2679 169.06C26.2906 168.37 26.1754 167.683 25.9291 167.038C25.6828 166.393 25.3104 165.804 24.8336 165.305C24.3569 164.806 23.7853 164.407 23.1524 164.131C22.5196 163.856 21.8381 163.709 21.1479 163.7C19.7367 163.77 18.4092 164.391 17.4502 165.428C16.4911 166.466 15.9769 167.838 16.0179 169.25C15.9979 169.939 16.1154 170.625 16.3635 171.269C16.6117 171.912 16.9854 172.499 17.463 172.996C17.9406 173.493 18.5124 173.89 19.1451 174.164C19.7777 174.438 20.4586 174.583 21.1479 174.59V174.59Z" fill="#99B2C5"/>
<path d="M122.907 166.97L40.3672 168.25V169.33L122.907 167.98V166.97Z" fill="#99B2C5"/>
<path d="M21.1488 196.9C22.5572 196.815 23.8778 196.187 24.8327 195.148C25.7876 194.109 26.3024 192.74 26.2688 191.33C26.2915 190.642 26.1761 189.956 25.9294 189.314C25.6826 188.671 25.3096 188.084 24.8323 187.589C24.355 187.093 23.7831 186.697 23.1504 186.426C22.5177 186.155 21.8371 186.013 21.1488 186.01C19.7385 186.092 18.4154 186.719 17.4584 187.758C16.5014 188.797 15.9853 190.168 16.0188 191.58C15.9946 192.269 16.1094 192.956 16.3562 193.6C16.6031 194.244 16.977 194.831 17.4556 195.328C17.9343 195.824 18.5079 196.219 19.1424 196.489C19.7769 196.759 20.4592 196.899 21.1488 196.9Z" fill="#99B2C5"/>
<path d="M122.907 188.49L40.3672 190.49V191.58L122.907 189.58V188.49Z" fill="#99B2C5"/>
<path d="M21.1492 219.25C22.5602 219.153 23.8795 218.515 24.833 217.471C25.7865 216.426 26.3008 215.054 26.2692 213.64C26.2934 212.954 26.1788 212.269 25.9321 211.628C25.6854 210.987 25.3118 210.403 24.8336 209.91C24.3555 209.416 23.7827 209.025 23.1496 208.759C22.5164 208.492 21.836 208.357 21.1492 208.36C19.7363 208.455 18.4145 209.091 17.459 210.136C16.5034 211.181 15.9877 212.554 16.0192 213.97C15.9935 214.658 16.1075 215.343 16.3542 215.986C16.601 216.628 16.9755 217.214 17.455 217.707C17.9345 218.201 18.5091 218.592 19.144 218.857C19.779 219.122 20.4611 219.256 21.1492 219.25V219.25Z" fill="#99B2C5"/>
<path d="M122.907 210.01L40.3672 212.62V213.7L122.907 211.06V210.01Z" fill="#99B2C5"/>
<path d="M5.53906 96.6999V101.35H2.53906V88.0499H7.40907C8.02385 88.0174 8.6389 88.1086 9.21777 88.3182C9.79665 88.5277 10.3276 88.8514 10.7791 89.2699C11.1736 89.6925 11.4795 90.1898 11.6787 90.7325C11.8779 91.2753 11.9665 91.8524 11.9391 92.4299C11.9513 93.1994 11.769 93.9596 11.4091 94.6399C11.0587 95.2802 10.5262 95.8022 9.87907 96.1399C9.11231 96.5174 8.26296 96.6962 7.40907 96.6599L5.53906 96.6999ZM7.06907 94.1399C8.27907 94.1399 8.87907 93.5899 8.87907 92.4499C8.90776 92.2074 8.88024 91.9616 8.79864 91.7316C8.71704 91.5015 8.58356 91.2933 8.40853 91.1231C8.2335 90.9529 8.02164 90.8253 7.78935 90.7501C7.55707 90.675 7.31061 90.6544 7.06907 90.6899H5.53906V94.1499L7.06907 94.1399ZM16.4191 92.9599C16.7754 92.3543 17.2685 91.8406 17.8591 91.4599C18.4391 91.0943 19.1135 90.9065 19.7991 90.9199V94.3399H18.9291C18.2679 94.2956 17.6114 94.4791 17.0691 94.8599C16.8321 95.0978 16.6509 95.3854 16.5385 95.7019C16.4261 96.0183 16.3853 96.3558 16.4191 96.6899V101.44H13.4191V90.9599H16.4191V92.9599ZM25.6391 90.9599C26.5509 90.9505 27.4486 91.1853 28.2391 91.6399C29.0116 92.0691 29.641 92.7159 30.0491 93.4999C30.5079 94.3715 30.7384 95.3451 30.7191 96.3299C30.7398 97.3116 30.5091 98.2823 30.0491 99.1499C29.6409 99.9312 29.0113 100.575 28.2391 101C27.4398 101.426 26.5445 101.639 25.6391 101.62C24.724 101.625 23.8227 101.398 23.0191 100.96C22.244 100.518 21.6096 99.8666 21.1891 99.0799C20.7424 98.201 20.5191 97.2256 20.5391 96.2399C20.517 95.2572 20.7404 94.2845 21.1891 93.4099C21.6086 92.6352 22.2444 91.9994 23.0191 91.5799C23.8234 91.1494 24.7273 90.9389 25.6391 90.9699V90.9599ZM25.6391 93.7099C25.3622 93.7062 25.088 93.7634 24.8357 93.8775C24.5834 93.9915 24.3592 94.1596 24.1791 94.3699C23.8007 94.9313 23.5986 95.5929 23.5986 96.2699C23.5986 96.9469 23.8007 97.6084 24.1791 98.1699C24.36 98.3798 24.5841 98.5484 24.836 98.664C25.088 98.7796 25.3619 98.8396 25.6391 98.8399C25.9113 98.8451 26.1814 98.7905 26.4302 98.6799C26.679 98.5693 26.9005 98.4054 27.0791 98.1999C27.5041 97.6618 27.7112 96.9836 27.6591 96.2999C27.7073 95.6166 27.5007 94.9397 27.0791 94.3999C26.9034 94.188 26.6834 94.0174 26.4346 93.8999C26.1858 93.7824 25.9142 93.7209 25.6391 93.7199V93.7099ZM37.8291 98.8499V101.57H36.4691C35.4916 101.625 34.5308 101.299 33.7891 100.66C33.4272 100.254 33.152 99.7787 32.98 99.2629C32.8081 98.7471 32.7431 98.2016 32.7891 97.6599V93.8499H31.4691V91.1699H32.7891V88.6299H35.7891V91.2499H37.7891V93.9199H35.7891V97.7799C35.7595 98.0849 35.8411 98.3903 36.0191 98.6399C36.2483 98.8215 36.5373 98.9107 36.8291 98.8899L37.8291 98.8499ZM44.0991 91.1599C45.0094 91.1522 45.9058 91.3832 46.6991 91.8299C47.4691 92.2579 48.098 92.9006 48.5091 93.6799C48.9712 94.5466 49.202 95.5179 49.1791 96.4999C49.2031 97.4756 48.9722 98.4407 48.5091 99.2999C48.0974 100.076 47.4684 100.715 46.6991 101.14C45.899 101.563 45.0037 101.773 44.0991 101.75C43.185 101.757 42.2839 101.533 41.4791 101.1C40.7074 100.662 40.0762 100.013 39.6591 99.2299C39.2312 98.3514 39.0088 97.387 39.0088 96.4099C39.0088 95.4327 39.2312 94.4684 39.6591 93.5899C40.0728 92.8194 40.7064 92.1894 41.4791 91.7799C42.2839 91.3507 43.1874 91.1403 44.0991 91.1699V91.1599ZM44.0991 93.8999C43.8227 93.8929 43.5482 93.9476 43.2957 94.0601C43.0431 94.1725 42.8188 94.3398 42.6391 94.5499C42.2214 95.084 42.0149 95.7532 42.0591 96.4299C42.0155 97.1126 42.2217 97.7879 42.6391 98.3299C42.8238 98.5346 43.0488 98.6989 43.3001 98.8125C43.5513 98.926 43.8234 98.9864 44.0991 98.9899C44.3713 98.9951 44.6414 98.9405 44.8902 98.8299C45.139 98.7193 45.3605 98.5555 45.5391 98.3499C45.962 97.8185 46.1691 97.1472 46.1191 96.4699C46.1696 95.7894 45.9626 95.1148 45.5391 94.5799C45.3643 94.3677 45.1443 94.1974 44.8951 94.0815C44.6459 93.9656 44.3739 93.9069 44.0991 93.9099V93.8999ZM55.1591 91.2499C56.3239 91.2217 57.4575 91.6281 58.3391 92.3899C59.2208 93.1637 59.7956 94.2282 59.9591 95.3899H56.7791C56.7016 95.0016 56.4977 94.6499 56.1991 94.3899C55.8886 94.1307 55.4933 93.9953 55.0891 94.0099C54.8358 94.0037 54.5848 94.0597 54.3582 94.173C54.1315 94.2864 53.9361 94.4535 53.7891 94.6599C53.4125 95.2151 53.2329 95.8806 53.2791 96.5499C53.2353 97.2315 53.4143 97.9088 53.7891 98.4799C53.9402 98.6827 54.1362 98.8478 54.3617 98.9623C54.5872 99.0768 54.8362 99.1376 55.0891 99.1399C55.4902 99.1564 55.884 99.0286 56.1991 98.7799C56.4977 98.5199 56.7016 98.1682 56.7791 97.7799H59.9591C59.7982 98.9424 59.2229 100.008 58.3391 100.78C57.4473 101.516 56.3147 101.898 55.1591 101.85C54.2637 101.859 53.3814 101.635 52.5991 101.2C51.8535 100.759 51.2497 100.113 50.8591 99.3399C50.4508 98.4593 50.2393 97.5004 50.2393 96.5299C50.2393 95.5593 50.4508 94.6004 50.8591 93.7199C51.2558 92.9572 51.8678 92.3279 52.6191 91.9099C53.3919 91.4676 54.2687 91.2398 55.1591 91.2499V91.2499ZM66.1591 91.3599C67.0728 91.3604 67.9712 91.5944 68.7691 92.0399C69.5372 92.4579 70.1638 93.0949 70.5691 93.8699C71.0322 94.729 71.2631 95.6941 71.2391 96.6699C71.2633 97.6393 71.0323 98.598 70.5691 99.4499C70.1603 100.22 69.5344 100.853 68.7691 101.27C67.9614 101.684 67.0667 101.9 66.1591 101.9C65.2514 101.9 64.3567 101.684 63.5491 101.27C62.7734 100.843 62.1378 100.2 61.7191 99.4199C61.2917 98.5483 61.0695 97.5905 61.0695 96.6199C61.0695 95.6492 61.2917 94.6914 61.7191 93.8199C62.1371 93.0517 62.7741 92.4251 63.5491 92.0199C64.3358 91.599 65.2169 91.3856 66.1091 91.3999L66.1591 91.3599ZM66.1591 94.0799C65.8844 94.0744 65.6119 94.1299 65.3612 94.2422C65.1104 94.3546 64.8877 94.5212 64.7091 94.7299C64.2877 95.2582 64.0806 95.9258 64.1291 96.5999C64.0801 97.2771 64.2871 97.948 64.7091 98.4799C64.8903 98.6862 65.1132 98.8518 65.3632 98.9656C65.6132 99.0794 65.8844 99.1388 66.1591 99.1399C66.4319 99.1458 66.7028 99.0925 66.9531 98.9838C67.2034 98.875 67.4272 98.7133 67.6091 98.5099C68.0261 97.9792 68.2326 97.3134 68.1891 96.6399C68.2332 95.9632 68.0268 95.294 67.6091 94.7599C67.4218 94.5491 67.1902 94.3824 66.9308 94.2717C66.6715 94.1611 66.3908 94.1092 66.1091 94.1199L66.1591 94.0799ZM75.7991 88.2599V101.82H72.7991V88.2499L75.7991 88.2599ZM81.4491 91.5299C82.5384 91.4799 83.6075 91.8363 84.4491 92.5299C85.1999 93.1981 85.6948 94.1067 85.8491 95.0999H83.0391C82.9832 94.7085 82.7836 94.352 82.4791 94.0999C82.1809 93.8467 81.8002 93.7115 81.4091 93.7199C81.1301 93.7026 80.854 93.784 80.6291 93.9499C80.5412 94.0308 80.4724 94.1301 80.4274 94.2408C80.3825 94.3514 80.3625 94.4706 80.3691 94.5899C80.3669 94.743 80.4105 94.8933 80.4942 95.0216C80.5779 95.1498 80.698 95.2502 80.8391 95.3099C81.3322 95.5218 81.8446 95.6859 82.3691 95.7999C82.9986 95.9495 83.6168 96.1433 84.2191 96.3799C84.7038 96.5763 85.1306 96.8929 85.4591 97.2999C85.8349 97.7918 86.0228 98.4017 85.9891 99.0199C86.0009 99.5718 85.8401 100.114 85.5291 100.57C85.1943 101.019 84.7405 101.365 84.2191 101.57C83.5848 101.829 82.904 101.955 82.2191 101.94C81.0841 101.988 79.9654 101.657 79.0391 101C78.6345 100.679 78.2973 100.282 78.0468 99.8305C77.7962 99.3792 77.6373 98.8828 77.5791 98.3699H80.4791C80.4929 98.5643 80.5472 98.7536 80.6385 98.9258C80.7298 99.098 80.856 99.2493 81.0091 99.3699C81.3651 99.6129 81.7881 99.7388 82.2191 99.7299C82.497 99.7513 82.7725 99.6654 82.9891 99.4899C83.0779 99.4071 83.1479 99.3063 83.1945 99.1941C83.2411 99.082 83.2631 98.9612 83.2591 98.8399C83.2651 98.6782 83.22 98.5187 83.1303 98.3841C83.0405 98.2494 82.9106 98.1465 82.7591 98.0899C82.2602 97.8609 81.7368 97.6898 81.1991 97.5799C80.5899 97.4485 79.9916 97.2713 79.4091 97.0499C78.9355 96.863 78.5185 96.5563 78.1991 96.1599C77.8372 95.6733 77.6568 95.0754 77.6891 94.4699C77.6742 94.0508 77.7567 93.634 77.9303 93.2522C78.1038 92.8705 78.3635 92.5342 78.6891 92.2699C79.4844 91.7305 80.442 91.4832 81.3991 91.5699L81.4491 91.5299Z" fill="#99B2C5"/>
<path d="M1 120.04L165 120.16V146.41L1 147.86V120.04Z" stroke="#99B2C5"/>
<path d="M1 120.04L165 120.16V228.16L1 234.5V120.04Z" stroke="#99B2C5"/>
<path d="M146.96 128.9C144.46 131.44 143.22 132.71 140.73 135.26C140.657 135.332 140.598 135.417 140.559 135.512C140.519 135.606 140.499 135.708 140.5 135.81C140.499 135.913 140.519 136.014 140.558 136.109C140.598 136.204 140.656 136.289 140.73 136.36L141.18 136.83C141.251 136.903 141.336 136.961 141.429 137.001C141.523 137.04 141.623 137.06 141.725 137.06C141.827 137.06 141.927 137.04 142.021 137.001C142.115 136.961 142.199 136.903 142.27 136.83L147.5 131.49C149.59 133.61 150.64 134.67 152.74 136.78C152.808 136.855 152.892 136.913 152.985 136.951C153.079 136.989 153.179 137.006 153.28 137C153.482 137 153.676 136.921 153.82 136.78L154.28 136.31C154.421 136.162 154.499 135.965 154.499 135.76C154.499 135.556 154.421 135.359 154.28 135.21L148.04 128.91C147.97 128.838 147.886 128.78 147.793 128.74C147.701 128.701 147.601 128.681 147.5 128.681C147.399 128.681 147.299 128.701 147.207 128.74C147.114 128.78 147.03 128.838 146.96 128.91V128.9Z" fill="#2BC47C"/>
<path d="M5.53906 4.04986V6.82986L9.73907 6.98986V9.40987L5.53906 9.24986V12.1899L10.2691 12.3699V14.9399L2.53906 14.6499V1.36986L10.2691 1.68986V4.24986L5.53906 4.04986ZM15.9091 4.61986C16.5062 4.61994 17.0923 4.78057 17.606 5.08493C18.1197 5.3893 18.5422 5.82619 18.8291 6.34986V4.83986L21.8291 4.95986V20.3399L18.8291 20.2299V13.5799C18.5597 14.1139 18.1393 14.5569 17.6201 14.8538C17.1009 15.1507 16.5059 15.2885 15.9091 15.2499C15.103 15.2276 14.321 14.9704 13.6591 14.5099C12.9705 14.0128 12.4198 13.3486 12.0591 12.5799C11.6557 11.7129 11.454 10.7659 11.4691 9.80986C11.4507 8.85992 11.6526 7.91864 12.0591 7.05986C12.4208 6.31797 12.9817 5.69128 13.6791 5.24986C14.339 4.81342 15.1184 4.59323 15.9091 4.61986V4.61986ZM16.6691 7.43986C16.3881 7.42535 16.1074 7.47243 15.8466 7.5778C15.5857 7.68317 15.3511 7.84428 15.1591 8.04986C14.9298 8.30505 14.7549 8.60419 14.6449 8.9291C14.5348 9.25401 14.492 9.5979 14.5191 9.93986C14.4746 10.6262 14.6967 11.3032 15.1391 11.8299C15.5401 12.2484 16.0896 12.4926 16.6691 12.5099C16.9487 12.5211 17.2276 12.4735 17.4877 12.3701C17.7478 12.2668 17.9834 12.11 18.1791 11.9099C18.4068 11.6594 18.5817 11.3656 18.6934 11.046C18.8051 10.7265 18.8512 10.3877 18.8291 10.0499C18.8679 9.35608 18.6347 8.67449 18.1791 8.14986C17.9885 7.93553 17.7564 7.7621 17.4969 7.64006C17.2373 7.51802 16.9557 7.44991 16.6691 7.43986V7.43986ZM33.6691 5.43986V15.8099L30.6691 15.6999V13.8199C30.3888 14.4224 29.9273 14.9223 29.3491 15.2499C28.6004 15.6616 27.7331 15.8038 26.8921 15.6527C26.0512 15.5016 25.2876 15.0664 24.7291 14.4199C24.022 13.462 23.6686 12.2888 23.7291 11.0999V5.09986L26.7291 5.21986V10.8599C26.6948 11.4626 26.8756 12.0579 27.2391 12.5399C27.4157 12.7392 27.6328 12.8986 27.876 13.0072C28.1192 13.1159 28.3827 13.1713 28.6491 13.1699C28.9161 13.1953 29.1855 13.1579 29.4355 13.0607C29.6855 12.9634 29.9093 12.809 30.0891 12.6099C30.4687 12.1203 30.6539 11.5077 30.6091 10.8899V5.31986L33.6691 5.43986ZM35.4491 2.59986C35.4422 2.3802 35.4835 2.16171 35.5698 1.95963C35.6562 1.75755 35.7856 1.57675 35.9491 1.42986C36.1241 1.27197 36.3301 1.15221 36.5539 1.07819C36.7777 1.00416 37.0144 0.977489 37.2491 0.999862C37.7353 1.00779 38.2003 1.20092 38.5491 1.53986C38.7092 1.69726 38.8354 1.88587 38.9196 2.094C39.0039 2.30214 39.0446 2.52537 39.0391 2.74986C39.0458 2.96858 39.0056 3.1862 38.921 3.38803C38.8365 3.58987 38.7097 3.77122 38.5491 3.91986C38.1868 4.22263 37.7195 4.37 37.2491 4.32986C36.7649 4.33038 36.2993 4.14411 35.9491 3.80986C35.7835 3.65446 35.6512 3.46711 35.5602 3.25914C35.4691 3.05117 35.4211 2.82689 35.4191 2.59986H35.4491ZM38.7391 5.64986V15.9999L35.7391 15.8899V5.52986L38.7391 5.64986ZM46.9291 5.85986C47.7058 5.88199 48.4581 6.13625 49.0891 6.58986C49.7562 7.06947 50.2786 7.72332 50.5991 8.47987C50.9925 9.37026 51.1837 10.3367 51.1591 11.3099C51.1862 12.2703 50.9947 13.2243 50.5991 14.0999C50.2825 14.8319 49.7573 15.4545 49.0891 15.8899C48.4432 16.2921 47.6886 16.4842 46.9291 16.4399C46.2398 16.4305 45.5685 16.2183 44.9991 15.8299C44.4638 15.4557 44.0528 14.9297 43.8191 14.3199V21.1199L40.8191 21.0099V5.73986L43.8191 5.85986V7.72987C44.0533 7.14426 44.4662 6.64738 44.9991 6.30986C45.5737 5.97452 46.2351 5.81787 46.8991 5.85986H46.9291ZM45.9291 8.58986C45.6389 8.57525 45.349 8.62405 45.0796 8.73285C44.8102 8.84165 44.5677 9.00784 44.3691 9.21986C43.9407 9.72185 43.7253 10.3714 43.7691 11.0299C43.738 11.6989 43.9512 12.3564 44.3691 12.8799C44.5617 13.1076 44.8002 13.2921 45.069 13.4213C45.3379 13.5506 45.6309 13.6216 45.9291 13.6299C46.2169 13.6533 46.5062 13.6106 46.7749 13.5048C47.0436 13.3991 47.2845 13.2332 47.4791 13.0199C47.9069 12.5097 48.1217 11.8543 48.0791 11.1899C48.116 10.5139 47.9024 9.8481 47.4791 9.31986C47.2887 9.09358 47.0515 8.91118 46.784 8.78517C46.5164 8.65916 46.2248 8.59253 45.9291 8.58986V8.58986ZM65.3991 6.58986C65.9383 6.58839 66.4714 6.70385 66.9617 6.92828C67.452 7.15271 67.8878 7.48077 68.2391 7.88986C68.9913 8.84125 69.3588 10.0404 69.2691 11.2499V17.2499L66.2691 17.1299V11.4499C66.3009 10.8934 66.1184 10.3459 65.7591 9.91986C65.5901 9.72903 65.3822 9.57671 65.1493 9.4732C64.9163 9.36968 64.6639 9.31739 64.4091 9.31986C64.1476 9.29312 63.8834 9.32702 63.6371 9.41894C63.3909 9.51086 63.1691 9.65832 62.9891 9.84986C62.6199 10.2979 62.4373 10.8708 62.4791 11.4499V16.8899L59.4791 16.7799V11.1799C59.5125 10.6266 59.3377 10.0808 58.9891 9.64986C58.819 9.4597 58.611 9.3072 58.3785 9.20215C58.1461 9.0971 57.8942 9.04182 57.6391 9.03986C57.3772 9.01686 57.1135 9.05149 56.8664 9.14133C56.6194 9.23116 56.395 9.37402 56.2091 9.55986C55.8323 10.012 55.6458 10.5929 55.6891 11.1799V16.6399L52.6891 16.5299V6.24986L55.6891 6.37986V8.12986C55.9291 7.57683 56.3388 7.11452 56.8591 6.80986C57.4325 6.49262 58.0851 6.34684 58.7391 6.38986C59.454 6.40268 60.1495 6.62522 60.7391 7.02986C61.3225 7.41701 61.7756 7.97115 62.0391 8.61986C62.3631 8.01471 62.843 7.50719 63.4291 7.14986C64.0204 6.78667 64.7056 6.6058 65.3991 6.62986V6.58986ZM80.5891 12.1499C80.5867 12.4321 80.5566 12.7135 80.4991 12.9899L73.6991 12.7299C73.6757 13.3423 73.8746 13.9425 74.2591 14.4199C74.6049 14.7632 75.0717 14.9571 75.5591 14.9599C75.9542 14.9924 76.348 14.8824 76.6691 14.6499C76.9549 14.4335 77.1593 14.127 77.2491 13.7799L80.4291 13.8999C80.3086 14.5954 80.0202 15.251 79.5891 15.8099C79.1439 16.3584 78.575 16.7937 77.9291 17.0799C77.2253 17.3786 76.4624 17.5121 75.6991 17.4699C74.7993 17.4544 73.9183 17.21 73.1391 16.7599C72.3958 16.2981 71.7938 15.6408 71.3991 14.8599C70.9651 13.9843 70.749 13.0169 70.7691 12.0399C70.7417 11.0836 70.9512 10.1355 71.3791 9.27986C71.7724 8.52987 72.3868 7.91895 73.1391 7.52986C73.9303 7.12929 74.8138 6.94637 75.6991 6.99986C76.6041 7.01885 77.4891 7.27024 78.2691 7.72987C78.9974 8.16237 79.5872 8.79376 79.9691 9.54986C80.3969 10.3628 80.6103 11.2715 80.5891 12.1899V12.1499ZM77.5891 11.5599C77.6109 11.2836 77.575 11.0058 77.4837 10.7442C77.3925 10.4825 77.2479 10.2427 77.0591 10.0399C76.7048 9.68998 76.2328 9.48481 75.7353 9.46447C75.2379 9.44413 74.7507 9.61007 74.3691 9.92986C74.1751 10.1244 74.0214 10.3552 73.9168 10.6091C73.8121 10.8631 73.7585 11.1352 73.7591 11.4099L77.5891 11.5599ZM88.4091 7.55986C88.9207 7.55903 89.4259 7.67265 89.8879 7.8924C90.3499 8.11215 90.7569 8.43246 91.0791 8.82986C91.7865 9.76073 92.1408 10.9123 92.0791 12.0799V17.9799L89.0791 17.8599V12.3399C89.1112 11.7587 88.9218 11.1869 88.5491 10.7399C88.3826 10.5381 88.1733 10.3759 87.9363 10.2652C87.6993 10.1545 87.4406 10.098 87.1791 10.0999C86.9107 10.0734 86.6398 10.1083 86.3869 10.2018C86.134 10.2954 85.9056 10.4451 85.7191 10.6399C85.339 11.1214 85.1534 11.7281 85.1991 12.3399V17.7399L82.1991 17.6299V7.42986L85.1991 7.54986V9.41986C85.4611 8.83785 85.898 8.35199 86.4491 8.02986C87.0327 7.69893 87.6992 7.54274 88.3691 7.57986L88.4091 7.55986ZM99.6191 15.5599V18.2499H98.2691C97.744 18.3042 97.2135 18.2351 96.7198 18.0481C96.2262 17.8612 95.783 17.5615 95.4256 17.1731C95.0682 16.7846 94.8064 16.318 94.6612 15.8105C94.516 15.303 94.4913 14.7686 94.5891 14.2499V10.5599H93.2691V7.88986H94.5891V5.44986L97.5891 5.56986V8.05986L99.5891 8.13986V10.7599L97.5891 10.6799V14.4599C97.5619 14.7616 97.6435 15.063 97.8191 15.3099C98.0483 15.4925 98.3364 15.585 98.6291 15.5699L99.6191 15.5599Z" fill="#99B2C5"/>
<path d="M1 35.46L165 40.46V66.65L1 63.25V35.46Z" stroke="#99B2C5"/>
<path d="M97.9072 51.5099L15.3672 49.3999V50.4899L97.9072 52.5699V51.5099Z" fill="#99B2C5"/>
<path d="M148.052 57.5601L154.282 51.3901C154.353 51.319 154.408 51.2347 154.446 51.1421C154.484 51.0494 154.503 50.9502 154.502 50.8501C154.506 50.7398 154.488 50.6298 154.448 50.5267C154.409 50.4235 154.349 50.3295 154.272 50.2501L153.812 49.7801C153.742 49.7075 153.658 49.6498 153.566 49.6104C153.473 49.5709 153.373 49.5506 153.272 49.5506C153.171 49.5506 153.072 49.5709 152.979 49.6104C152.886 49.6498 152.802 49.7075 152.732 49.7801C150.632 51.8401 149.592 52.8801 147.502 54.9501C145.402 52.7701 144.352 51.6801 142.262 49.4901C142.119 49.345 141.926 49.2593 141.722 49.2501C141.519 49.2466 141.322 49.3219 141.172 49.4601L140.722 49.9201C140.648 49.9912 140.59 50.0767 140.55 50.1713C140.511 50.2659 140.491 50.3676 140.492 50.4701C140.493 50.6767 140.576 50.8745 140.722 51.0201C143.212 53.6301 144.462 54.9301 146.952 57.5201C147.023 57.5949 147.108 57.6547 147.203 57.6959C147.297 57.7371 147.399 57.759 147.502 57.7601C147.603 57.7659 147.703 57.7512 147.798 57.7168C147.892 57.6824 147.979 57.6291 148.052 57.5601V57.5601Z" fill="#2BC47C"/>
</svg>
