<svg width="384" height="235" viewBox="0 0 384 235" fill="none" xmlns="http://www.w3.org/2000/svg">
<path d="M222.831 63.96C222.251 62.27 215.061 56.4 219.471 55.56L223.081 60.41C229.731 53.99 233.081 50.81 239.701 44.48L241.371 46.17C233.951 53.25 230.271 56.79 222.831 63.96Z" fill="#2BC47C"/>
<path d="M222.831 107.92C222.251 106.24 215.061 100.49 219.471 99.5702L223.081 104.36C229.731 97.8402 233.081 94.6002 239.701 88.1602C240.361 88.8302 240.701 89.1602 241.371 89.8202C233.951 97.0102 230.271 100.63 222.831 107.92Z" fill="#2BC47C"/>
<path d="M222.831 153.67C222.251 152 215.061 146.37 219.471 145.38L223.081 150.11C229.731 143.47 233.081 140.18 239.701 133.62C240.361 134.28 240.701 134.62 241.371 135.26C233.951 142.57 230.271 146.25 222.831 153.67Z" fill="#2BC47C"/>
<path d="M273.15 63.36C273.807 63.3881 274.463 63.284 275.079 63.0536C275.695 62.8233 276.259 62.4715 276.736 62.0191C277.214 61.5667 277.596 61.023 277.859 60.4201C278.123 59.8173 278.262 59.1678 278.27 58.51C278.241 57.1637 277.692 55.881 276.737 54.9316C275.782 53.9823 274.496 53.4404 273.15 53.42C272.492 53.3876 271.834 53.4885 271.216 53.7166C270.598 53.9447 270.033 54.2952 269.554 54.7472C269.074 55.1993 268.692 55.7434 268.428 56.347C268.164 56.9507 268.025 57.6013 268.02 58.26C268.045 59.6097 268.595 60.8964 269.552 61.8482C270.51 62.7999 271.8 63.342 273.15 63.36V63.36Z" fill="#99B2C5"/>
<path d="M374.907 60.3799L292.367 58.3799V59.3799L374.907 61.3799V60.3799Z" fill="#99B2C5"/>
<path d="M273.15 106.5C273.81 106.516 274.468 106.401 275.084 106.161C275.7 105.921 276.262 105.562 276.738 105.103C277.214 104.645 277.595 104.096 277.858 103.49C278.12 102.884 278.26 102.231 278.27 101.57C278.246 100.231 277.695 98.9544 276.737 98.0184C275.778 97.0823 274.489 96.562 273.15 96.5701C272.488 96.5528 271.829 96.667 271.212 96.9062C270.595 97.1454 270.032 97.5046 269.555 97.9632C269.077 98.4218 268.696 98.9706 268.432 99.5778C268.169 100.185 268.029 100.838 268.02 101.5C268.046 102.84 268.599 104.117 269.559 105.052C270.519 105.988 271.809 106.508 273.15 106.5V106.5Z" fill="#99B2C5"/>
<path d="M374.907 101.85L292.367 101.18V102.18L374.907 102.81V101.85Z" fill="#99B2C5"/>
<path d="M273.15 151.39C274.488 151.393 275.774 150.871 276.731 149.936C277.688 149.001 278.241 147.728 278.27 146.39C278.259 145.73 278.118 145.079 277.855 144.473C277.591 143.868 277.211 143.321 276.735 142.864C276.259 142.406 275.697 142.047 275.081 141.808C274.466 141.569 273.809 141.454 273.15 141.47C271.809 141.462 270.519 141.982 269.559 142.918C268.599 143.854 268.046 145.13 268.02 146.47C268.03 147.131 268.171 147.783 268.435 148.389C268.699 148.995 269.081 149.543 269.558 150.001C270.035 150.458 270.598 150.816 271.215 151.055C271.831 151.294 272.489 151.407 273.15 151.39V151.39Z" fill="#99B2C5"/>
<path d="M374.907 145L292.367 145.75V146.75L374.907 145.98V145Z" fill="#99B2C5"/>
<path d="M235.771 161.03L210.141 161.4V135.4L227.571 135.32V136.32L211.171 136.4V160.32L234.751 159.98V148.38H235.751L235.771 161.03Z" fill="#99B2C5"/>
<path d="M235.771 115.38L210.141 115.32V89.3203L227.571 89.5303V90.5303L211.171 90.3403V114.25L234.751 114.32V102.72H235.751L235.771 115.38Z" fill="#99B2C5"/>
<path d="M235.771 69.71L210.141 69.21V43.25L227.571 43.76V44.76L211.171 44.29V68.25L234.751 68.72V57.09H235.751L235.771 69.71Z" fill="#99B2C5"/>
<path d="M223.5 208.62C227.478 208.504 231.258 206.859 234.052 204.025C236.847 201.192 238.44 197.389 238.5 193.41C238.492 191.469 238.094 189.55 237.33 187.766C236.566 185.982 235.451 184.37 234.052 183.025C232.653 181.68 230.998 180.63 229.186 179.937C227.373 179.244 225.44 178.922 223.5 178.99C219.512 179.078 215.714 180.717 212.914 183.558C210.114 186.4 208.53 190.221 208.5 194.21C208.494 196.154 208.883 198.079 209.642 199.869C210.401 201.659 211.516 203.276 212.918 204.623C214.32 205.97 215.981 207.019 217.799 207.706C219.618 208.393 221.558 208.704 223.5 208.62V208.62Z" fill="#2BC47C"/>
<path d="M229.73 192.4L224.63 192.53V187.53C224.63 187.375 224.599 187.222 224.539 187.079C224.479 186.937 224.391 186.808 224.28 186.7C224.167 186.591 224.034 186.506 223.888 186.449C223.742 186.392 223.586 186.365 223.43 186.37V186.37C223.109 186.38 222.805 186.512 222.58 186.74C222.359 186.965 222.234 187.265 222.23 187.58V192.58L217.13 192.72C216.809 192.73 216.505 192.862 216.28 193.09C216.058 193.318 215.932 193.622 215.93 193.94C215.932 194.252 216.058 194.551 216.28 194.77C216.509 194.987 216.814 195.105 217.13 195.1L222.23 194.96V199.96C222.232 200.272 222.358 200.571 222.58 200.79C222.81 201.004 223.115 201.119 223.43 201.11V201.11C223.749 201.102 224.053 200.971 224.277 200.743C224.501 200.515 224.627 200.21 224.63 199.89V194.89L229.73 194.75C230.047 194.742 230.35 194.612 230.573 194.387C230.797 194.161 230.925 193.858 230.93 193.54V193.54C230.927 193.228 230.802 192.93 230.58 192.71C230.349 192.496 230.044 192.381 229.73 192.39V192.4Z" fill="white"/>
<path d="M312.808 205.89L368.374 203.97C376.596 203.69 383.246 209.29 383.32 216.48C383.32 223.67 376.724 229.79 368.512 230.15L312.946 232.6C304.735 232.97 298.074 227.25 298 219.83C297.968 212.41 304.597 206.17 312.808 205.89Z" fill="#2BC47C"/>
<path d="M97.9072 133.25L15.3672 133.61V134.7L97.9072 134.32V133.25Z" fill="#99B2C5"/>
<path d="M21.1479 173.59C22.5537 173.518 23.8757 172.899 24.8321 171.866C25.7885 170.833 26.3037 169.467 26.2679 168.06C26.2906 167.37 26.1754 166.683 25.9291 166.038C25.6828 165.393 25.3104 164.804 24.8336 164.305C24.3569 163.806 23.7853 163.407 23.1524 163.131C22.5196 162.856 21.8381 162.709 21.1479 162.7C19.7367 162.77 18.4092 163.391 17.4502 164.428C16.4911 165.466 15.9769 166.838 16.0179 168.25C15.9979 168.939 16.1154 169.625 16.3635 170.269C16.6117 170.912 16.9854 171.499 17.463 171.996C17.9406 172.493 18.5124 172.89 19.1451 173.164C19.7777 173.438 20.4586 173.583 21.1479 173.59V173.59Z" fill="#99B2C5"/>
<path d="M122.907 165.97L40.3672 167.25V168.33L122.907 166.98V165.97Z" fill="#99B2C5"/>
<path d="M21.1488 195.9C22.5572 195.815 23.8778 195.187 24.8327 194.148C25.7876 193.109 26.3024 191.74 26.2688 190.33C26.2915 189.642 26.1761 188.956 25.9294 188.314C25.6826 187.671 25.3096 187.084 24.8323 186.589C24.355 186.093 23.7831 185.697 23.1504 185.426C22.5177 185.155 21.8371 185.013 21.1488 185.01C19.7385 185.092 18.4154 185.719 17.4584 186.758C16.5014 187.797 15.9853 189.168 16.0188 190.58C15.9946 191.269 16.1094 191.956 16.3562 192.6C16.6031 193.244 16.977 193.831 17.4556 194.328C17.9343 194.824 18.5079 195.219 19.1424 195.489C19.7769 195.759 20.4592 195.899 21.1488 195.9Z" fill="#99B2C5"/>
<path d="M122.907 187.49L40.3672 189.49V190.58L122.907 188.58V187.49Z" fill="#99B2C5"/>
<path d="M21.1492 218.25C22.5602 218.153 23.8795 217.515 24.833 216.471C25.7865 215.426 26.3008 214.054 26.2692 212.64C26.2934 211.954 26.1788 211.269 25.9321 210.628C25.6854 209.987 25.3118 209.403 24.8336 208.91C24.3555 208.416 23.7827 208.025 23.1496 207.759C22.5164 207.492 21.836 207.357 21.1492 207.36C19.7363 207.455 18.4145 208.091 17.459 209.136C16.5034 210.181 15.9877 211.554 16.0192 212.97C15.9935 213.658 16.1075 214.343 16.3542 214.986C16.601 215.628 16.9755 216.214 17.455 216.707C17.9345 217.201 18.5091 217.592 19.144 217.857C19.779 218.122 20.4611 218.256 21.1492 218.25V218.25Z" fill="#99B2C5"/>
<path d="M122.907 209.01L40.3672 211.62V212.7L122.907 210.06V209.01Z" fill="#99B2C5"/>
<path d="M1 119.04L165 119.16V145.41L1 146.86V119.04Z" stroke="#99B2C5"/>
<path d="M1 119.04L165 119.16V227.16L1 233.5V119.04Z" stroke="#99B2C5"/>
<path d="M146.96 127.9C144.46 130.44 143.22 131.71 140.73 134.26C140.657 134.332 140.598 134.417 140.559 134.512C140.519 134.606 140.499 134.708 140.5 134.81C140.499 134.913 140.519 135.014 140.558 135.109C140.598 135.204 140.656 135.289 140.73 135.36L141.18 135.83C141.251 135.903 141.336 135.961 141.429 136.001C141.523 136.04 141.623 136.06 141.725 136.06C141.827 136.06 141.927 136.04 142.021 136.001C142.115 135.961 142.199 135.903 142.27 135.83L147.5 130.49C149.59 132.61 150.64 133.67 152.74 135.78C152.808 135.855 152.892 135.913 152.985 135.951C153.079 135.989 153.179 136.006 153.28 136C153.482 136 153.676 135.921 153.82 135.78L154.28 135.31C154.421 135.162 154.499 134.965 154.499 134.76C154.499 134.556 154.421 134.359 154.28 134.21L148.04 127.91C147.97 127.838 147.886 127.78 147.793 127.74C147.701 127.701 147.601 127.681 147.5 127.681C147.399 127.681 147.299 127.701 147.207 127.74C147.114 127.78 147.03 127.838 146.96 127.91V127.9Z" fill="#2BC47C"/>
<path d="M1 34.46L165 39.46V65.65L1 62.25V34.46Z" stroke="#99B2C5"/>
<path d="M97.9072 50.5099L15.3672 48.3999V49.4899L97.9072 51.5699V50.5099Z" fill="#99B2C5"/>
<path d="M148.052 56.5601L154.282 50.3901C154.353 50.319 154.408 50.2347 154.446 50.1421C154.484 50.0494 154.503 49.9502 154.502 49.8501C154.506 49.7398 154.488 49.6298 154.448 49.5267C154.409 49.4235 154.349 49.3295 154.272 49.2501L153.812 48.7801C153.742 48.7075 153.658 48.6498 153.566 48.6104C153.473 48.5709 153.373 48.5506 153.272 48.5506C153.171 48.5506 153.072 48.5709 152.979 48.6104C152.886 48.6498 152.802 48.7075 152.732 48.7801C150.632 50.8401 149.592 51.8801 147.502 53.9501C145.402 51.7701 144.352 50.6801 142.262 48.4901C142.119 48.345 141.926 48.2593 141.722 48.2501C141.519 48.2466 141.322 48.3219 141.172 48.4601L140.722 48.9201C140.648 48.9912 140.59 49.0767 140.55 49.1713C140.511 49.2659 140.491 49.3676 140.492 49.4701C140.493 49.6767 140.576 49.8745 140.722 50.0201C143.212 52.6301 144.462 53.9301 146.952 56.5201C147.023 56.5949 147.108 56.6547 147.203 56.6959C147.297 56.7371 147.399 56.759 147.502 56.7601C147.603 56.7659 147.703 56.7512 147.798 56.7168C147.892 56.6824 147.979 56.6291 148.052 56.5601V56.5601Z" fill="#2BC47C"/>
<path d="M11.5976 11.8541L7.04387 11.7345L6.22593 14.0706L3.13279 13.9894L7.91999 1.28565L11.3053 1.37451L15.4194 14.3119L12.2919 14.2298L11.5976 11.8541ZM10.9039 9.46003L9.51631 4.67197L7.86229 9.3802L10.9039 9.46003Z" fill="#99B2C5"/>
<path d="M26.3663 4.40152L26.0988 14.5922L23.1431 14.5147L23.1915 12.6701C22.9009 13.2595 22.476 13.7235 21.9169 14.0621C21.3692 14.4011 20.7345 14.5611 20.0127 14.5421C18.913 14.5133 18.0468 14.1007 17.4142 13.3043C16.7932 12.5082 16.5005 11.4284 16.5363 10.0648L16.6916 4.14757L19.6129 4.22425L19.4677 9.75792C19.4495 10.4519 19.6013 10.9981 19.9233 11.3964C20.2571 11.7829 20.7104 11.9836 21.2832 11.9986C21.8789 12.0143 22.3539 11.8257 22.7081 11.433C23.0623 11.0402 23.2492 10.4725 23.2687 9.72977L23.4106 4.32394L26.3663 4.40152Z" fill="#99B2C5"/>
<path d="M31.8832 4.4184C33.0975 4.45028 34.0571 4.79833 34.7619 5.46257C35.4781 6.1271 35.914 6.9914 36.0695 8.05547L33.32 7.9833C33.2507 7.56723 33.0759 7.23977 32.7955 7.00093C32.527 6.7502 32.1808 6.61928 31.7569 6.60815C31.4247 6.59943 31.1706 6.67196 30.9946 6.82572C30.8189 6.96732 30.7274 7.17813 30.72 7.45816C30.7117 7.77472 30.8601 8.0162 31.1653 8.18259C31.4819 8.34929 31.9761 8.52065 32.6478 8.69667C33.3762 8.89855 33.9727 9.10305 34.4373 9.31019C34.9022 9.50514 35.3009 9.8202 35.6334 10.2554C35.9659 10.6905 36.1227 11.2673 36.1039 11.9856C36.0885 12.57 35.926 13.0836 35.6163 13.5262C35.3067 13.9689 34.8678 14.3107 34.2997 14.5516C33.7317 14.7926 33.0639 14.903 32.2963 14.8828C31.0018 14.8489 29.973 14.5173 29.21 13.8881C28.4469 13.2588 27.9944 12.3758 27.8522 11.239L30.6876 11.3134C30.7219 11.753 30.885 12.0923 31.1768 12.3314C31.48 12.5709 31.8722 12.6969 32.3534 12.7096C32.6856 12.7183 32.9397 12.6458 33.1157 12.492C33.292 12.326 33.3837 12.1091 33.3907 11.8413C33.4 11.4882 33.2461 11.2344 32.9292 11.0799C32.624 10.9135 32.1186 10.7357 31.4128 10.5466C30.7066 10.3697 30.1269 10.1839 29.6734 9.98926C29.22 9.7946 28.8324 9.49202 28.5107 9.08152C28.1894 8.65884 28.038 8.09441 28.0565 7.38825C28.0805 6.4751 28.4263 5.74706 29.094 5.20414C29.762 4.64904 30.6917 4.38713 31.8832 4.4184Z" fill="#99B2C5"/>
<path d="M40.8114 6.69962C41.1943 6.0883 41.6769 5.60753 42.2593 5.25731C42.8531 4.90738 43.488 4.74129 44.1639 4.75903L44.0762 8.10115L43.2342 8.07905C42.4552 8.0586 41.8434 8.21921 41.3988 8.56086C40.9656 8.90282 40.738 9.49385 40.716 10.3339L40.5942 14.9727L37.6557 14.8956L37.9232 4.70488L40.8617 4.78201L40.8114 6.69962Z" fill="#99B2C5"/>
<path d="M54.9281 5.15123L54.6606 15.342L51.7049 15.2644L51.7533 13.4198C51.4627 14.0092 51.0378 14.4732 50.4787 14.8118C49.931 15.1508 49.2963 15.3108 48.5745 15.2919C47.4748 15.263 46.6086 14.8504 45.976 14.054C45.355 13.258 45.0623 12.1781 45.0981 10.8145L45.2534 4.89729L48.1747 4.97397L48.0295 10.5076C48.0113 11.2016 48.1631 11.7478 48.4851 12.1461C48.8189 12.5326 49.2722 12.7333 49.845 12.7484C50.4407 12.764 50.9157 12.5754 51.2699 12.1827C51.6242 11.7899 51.811 11.2222 51.8305 10.4795L51.9724 5.07365L54.9281 5.15123ZM47.174 2.4805C47.1839 2.10307 47.3068 1.78952 47.5426 1.53985C47.7899 1.29049 48.0911 1.17046 48.4463 1.17979C48.8014 1.18911 49.0902 1.32462 49.3126 1.58631C49.5465 1.84831 49.6584 2.16802 49.6485 2.54546C49.6389 2.91072 49.5105 3.21803 49.2632 3.46739C49.0277 3.70489 48.7324 3.81897 48.3772 3.80965C48.0221 3.80033 47.7274 3.67076 47.4933 3.42094C47.2709 3.15924 47.1644 2.84576 47.174 2.4805ZM50.6624 2.57207C50.6723 2.19464 50.7952 1.88108 51.031 1.63142C51.2783 1.38205 51.5738 1.26188 51.9175 1.2709C52.2726 1.28022 52.5614 1.41573 52.7838 1.67743C53.0176 1.93942 53.1296 2.25914 53.1197 2.63657C53.1101 3.00183 52.9817 3.30914 52.7344 3.55851C52.4989 3.796 52.2036 3.91009 51.8484 3.90076C51.5047 3.89174 51.2158 3.76232 50.9816 3.5125C50.7592 3.25081 50.6528 2.93733 50.6624 2.57207Z" fill="#99B2C5"/>
<path d="M60.445 5.16812C61.6593 5.19999 62.6189 5.54805 63.3237 6.21228C64.0399 6.87682 64.4758 7.74112 64.6313 8.80518L61.8818 8.73301C61.8125 8.31694 61.6377 7.98949 61.3573 7.75064C61.0888 7.49992 60.7426 7.36899 60.3187 7.35787C59.9865 7.34915 59.7324 7.42167 59.5564 7.57544C59.3807 7.71703 59.2892 7.92784 59.2818 8.20787C59.2735 8.52443 59.4219 8.76591 59.7271 8.93231C60.0437 9.09901 60.5379 9.27037 61.2096 9.44639C61.938 9.64826 62.5345 9.85277 62.9991 10.0599C63.464 10.2549 63.8627 10.5699 64.1952 11.0051C64.5277 11.4402 64.6845 12.017 64.6657 12.7353C64.6503 13.3197 64.4878 13.8333 64.1781 14.2759C63.8685 14.7186 63.4296 15.0604 62.8615 15.3014C62.2935 15.5423 61.6257 15.6527 60.8581 15.6326C59.5636 15.5986 58.5348 15.267 57.7718 14.6378C57.0087 14.0086 56.5562 13.1255 56.414 11.9887L59.2494 12.0632C59.2837 12.5027 59.4468 12.842 59.7386 13.0812C60.0418 13.3206 60.434 13.4466 60.9152 13.4593C61.2474 13.468 61.5015 13.3955 61.6775 13.2417C61.8538 13.0758 61.9455 12.8589 61.9525 12.591C61.9618 12.2379 61.8079 11.9841 61.491 11.8296C61.1859 11.6632 60.6804 11.4854 59.9746 11.2963C59.2685 11.1194 58.6887 10.9336 58.2352 10.739C57.7818 10.5443 57.3942 10.2417 57.0725 9.83123C56.7512 9.40855 56.5998 8.84413 56.6183 8.13796C56.6423 7.22481 56.9881 6.49678 57.6558 5.95385C58.3238 5.39876 59.2535 5.13684 60.445 5.16812Z" fill="#99B2C5"/>
<path d="M71.7182 13.1032L71.6477 15.7878L70.3245 15.7531C69.2018 15.7236 68.3331 15.4084 67.7184 14.8075C67.1154 14.1947 66.8318 13.2064 66.8676 11.8428L66.9659 8.09889L65.6771 8.06506L65.7461 5.43519L67.0349 5.46902L67.1006 2.967L70.0391 3.04413L69.9734 5.54616L71.898 5.59667L71.829 8.22654L69.9044 8.17602L69.8047 11.9747C69.7941 12.3765 69.8612 12.6585 70.006 12.8207C70.1622 12.9832 70.4236 13.0692 70.7902 13.0788L71.7182 13.1032Z" fill="#99B2C5"/>
<path d="M83.1039 5.89082L82.8364 16.0815L79.8807 16.004L79.9292 14.1594C79.6386 14.7488 79.2137 15.2128 78.6545 15.5514C78.1068 15.8904 77.4721 16.0504 76.7504 16.0314C75.6506 16.0026 74.7844 15.59 74.1519 14.7936C73.5308 13.9975 73.2382 12.9177 73.2739 11.5541L73.4293 5.63687L76.3506 5.71355L76.2053 11.2472C76.1871 11.9412 76.339 12.4874 76.661 12.8857C76.9948 13.2722 77.448 13.4729 78.0208 13.4879C78.6166 13.5036 79.0915 13.315 79.4458 12.9222C79.8 12.5295 79.9869 11.9618 80.0063 11.2191L80.1482 5.81323L83.1039 5.89082Z" fill="#99B2C5"/>
<path d="M91.2151 5.99407C92.3149 6.02294 93.1753 6.4354 93.7964 7.23146C94.4289 8.02782 94.7273 9.10782 94.6915 10.4715L94.5362 16.3886L91.5977 16.3115L91.7435 10.7596C91.7614 10.0778 91.6034 9.54363 91.2696 9.15717C90.9477 8.75884 90.506 8.55231 89.9446 8.53757C89.3489 8.52194 88.8682 8.71035 88.5025 9.10281C88.1483 9.49558 87.9614 10.0633 87.9419 10.806L87.8001 16.2118L84.8616 16.1347L85.1291 5.94397L88.0675 6.02111L88.0186 7.88393C88.3096 7.28238 88.7289 6.81213 89.2766 6.47318C89.8357 6.13453 90.4819 5.97483 91.2151 5.99407Z" fill="#99B2C5"/>
<path d="M100.388 6.21658C101.121 6.23582 101.747 6.4289 102.264 6.79582C102.782 7.16274 103.159 7.65388 103.395 8.26927L103.444 6.42471L106.365 6.50139L106.099 16.6373C106.074 17.587 105.88 18.4348 105.516 19.1806C105.152 19.9386 104.609 20.5336 103.887 20.9654C103.165 21.3972 102.277 21.5993 101.223 21.5717C99.7797 21.5338 98.6322 21.1381 97.7808 20.3848C96.9404 19.6439 96.4506 18.6502 96.3114 17.4038L99.2155 17.4801C99.2963 17.8964 99.494 18.2245 99.8087 18.4642C100.135 18.7043 100.561 18.8312 101.088 18.8451C101.696 18.861 102.187 18.6851 102.564 18.3173C102.952 17.9619 103.156 17.3764 103.177 16.5606L103.224 14.7709C102.956 15.373 102.554 15.8437 102.018 16.183C101.482 16.5222 100.847 16.6822 100.114 16.663C99.3234 16.6422 98.6186 16.4166 97.9994 15.9861C97.392 15.5437 96.9153 14.922 96.5695 14.121C96.2351 13.3203 96.0819 12.3903 96.1097 11.3311C96.1378 10.2596 96.3396 9.33899 96.7152 8.56909C97.1026 7.78732 97.611 7.19757 98.2405 6.79985C98.8818 6.39025 99.5977 6.19583 100.388 6.21658ZM101.261 8.98083C100.631 8.96429 100.116 9.17006 99.7147 9.59815C99.3251 10.0265 99.1201 10.6303 99.0997 11.4096C99.0792 12.1888 99.2523 12.8025 99.6188 13.2507C99.9968 13.6993 100.501 13.9318 101.131 13.9483C101.75 13.9646 102.26 13.7526 102.661 13.3123C103.074 12.8724 103.29 12.2749 103.31 11.5201C103.33 10.753 103.145 10.1451 102.756 9.69625C102.378 9.23554 101.88 8.99707 101.261 8.98083Z" fill="#99B2C5"/>
<path d="M215.408 12.2048L215.333 14.8098L219.499 14.93L219.433 17.2006L215.268 17.0804L215.188 19.8438L219.876 19.9791L219.807 22.3905L212.138 22.1693L212.497 9.72495L220.166 9.94621L220.097 12.34L215.408 12.2048Z" fill="#99B2C5"/>
<path d="M221.584 9.84619C221.597 9.38855 221.77 9.01774 222.104 8.73377C222.438 8.43806 222.873 8.29792 223.407 8.31334C223.941 8.32876 224.367 8.49371 224.684 8.80819C225 9.11094 225.152 9.49113 225.139 9.94877C225.126 10.3947 224.953 10.7655 224.619 11.0612C224.285 11.3452 223.851 11.4794 223.316 11.464C222.782 11.4486 222.356 11.2895 222.039 10.9868C221.723 10.6723 221.571 10.2921 221.584 9.84619ZM224.763 12.7037L224.48 22.5253L221.499 22.4394L221.783 12.6177L224.763 12.7037Z" fill="#99B2C5"/>
<path d="M230.519 12.7464C231.263 12.7679 231.897 12.9565 232.422 13.3122C232.946 13.6679 233.328 14.1428 233.567 14.7369L233.618 12.9592L236.581 13.0446L236.299 22.8135C236.273 23.7288 236.075 24.5452 235.705 25.2626C235.335 25.9919 234.784 26.5632 234.051 26.9765C233.318 27.3899 232.417 27.5812 231.348 27.5504C229.884 27.5081 228.721 27.1222 227.858 26.3927C227.006 25.6752 226.511 24.7155 226.371 23.5136L229.316 23.5986C229.398 24.0002 229.598 24.3172 229.917 24.5495C230.248 24.7822 230.68 24.9063 231.215 24.9217C231.83 24.9395 232.329 24.7718 232.712 24.4188C233.105 24.0778 233.313 23.5142 233.336 22.728L233.386 21.0031C233.113 21.5824 232.705 22.0345 232.161 22.3594C231.616 22.6843 230.972 22.836 230.229 22.8145C229.427 22.7914 228.712 22.5711 228.085 22.1537C227.469 21.7249 226.987 21.1238 226.637 20.3503C226.299 19.5772 226.144 18.6802 226.174 17.6593C226.203 16.6267 226.409 15.7401 226.791 14.9994C227.185 14.2474 227.701 13.681 228.34 13.3001C228.991 12.9079 229.717 12.7233 230.519 12.7464ZM231.402 15.4143C230.763 15.3959 230.239 15.5922 229.832 16.0032C229.437 16.4146 229.228 16.9958 229.206 17.7468C229.185 18.4978 229.359 19.09 229.731 19.5235C230.113 19.9574 230.624 20.1835 231.264 20.202C231.891 20.2201 232.408 20.0177 232.816 19.5949C233.235 19.1725 233.455 18.5975 233.476 17.87C233.498 17.1307 233.311 16.544 232.917 16.1098C232.534 15.6643 232.029 15.4324 231.402 15.4143Z" fill="#99B2C5"/>
<path d="M247.736 18.0172C247.729 18.2636 247.692 18.5327 247.626 18.8243L240.881 18.6297C240.894 19.37 241.065 19.9093 241.392 20.2476C241.72 20.5741 242.145 20.7449 242.668 20.76C243.11 20.7728 243.479 20.6718 243.776 20.4573C244.073 20.2427 244.273 19.9607 244.376 19.6114L247.531 19.7024C247.383 20.391 247.086 21.0049 246.64 21.544C246.195 22.0714 245.636 22.484 244.965 22.7817C244.294 23.0677 243.551 23.1989 242.738 23.1755C241.785 23.148 240.943 22.924 240.211 22.5036C239.491 22.0718 238.932 21.4684 238.536 20.6936C238.14 19.9188 237.956 19.021 237.986 18.0001C238.016 16.9675 238.245 16.0815 238.673 15.3423C239.113 14.5916 239.711 14.0275 240.466 13.65C241.222 13.2607 242.076 13.0799 243.029 13.1074C243.993 13.1352 244.835 13.3591 245.556 13.7792C246.276 14.1993 246.824 14.7788 247.198 15.5178C247.584 16.2453 247.763 17.0784 247.736 18.0172ZM244.734 17.4725C244.764 16.8275 244.604 16.3413 244.253 16.0141C243.914 15.6755 243.483 15.4987 242.96 15.4836C242.414 15.4678 241.956 15.619 241.586 15.9372C241.217 16.2554 240.999 16.7306 240.935 17.3629L244.734 17.4725Z" fill="#99B2C5"/>
<path d="M255.597 13.4876C256.712 13.5198 257.584 13.9208 258.213 14.6905C258.854 15.4606 259.155 16.5028 259.118 17.8171L258.953 23.52L255.973 23.434L256.127 18.0831C256.146 17.426 255.986 16.9105 255.648 16.5367C255.322 16.1515 254.874 15.9506 254.305 15.9342C253.701 15.9168 253.213 16.0965 252.842 16.4733C252.482 16.8505 252.292 17.397 252.271 18.1128L252.121 23.3229L249.141 23.2369L249.424 13.4152L252.404 13.5012L252.352 15.2965C252.648 14.7179 253.074 14.2663 253.63 13.9417C254.198 13.6175 254.853 13.4661 255.597 13.4876Z" fill="#99B2C5"/>
<path d="M264.744 13.7339C265.975 13.7694 266.948 14.1087 267.662 14.7517C268.388 15.3951 268.829 16.2299 268.985 17.2562L266.197 17.1757C266.127 16.7744 265.95 16.4581 265.666 16.2268C265.394 15.984 265.043 15.8565 264.613 15.8441C264.276 15.8343 264.018 15.9032 263.84 16.0508C263.661 16.1865 263.568 16.3894 263.56 16.6593C263.552 16.9644 263.702 17.1977 264.011 17.3593C264.332 17.5212 264.833 17.6884 265.514 17.8607C266.253 18.0582 266.858 18.2576 267.328 18.4591C267.8 18.6489 268.204 18.9542 268.541 19.3749C268.877 19.7957 269.036 20.3522 269.016 21.0446C268.999 21.6078 268.834 22.1022 268.519 22.5276C268.205 22.9531 267.759 23.2808 267.183 23.5108C266.606 23.7408 265.929 23.8446 265.15 23.8221C263.837 23.7842 262.794 23.4605 262.021 22.851C261.248 22.2415 260.79 21.3886 260.647 20.2922L263.523 20.3752C263.557 20.799 263.722 21.1267 264.018 21.3584C264.325 21.5904 264.723 21.7134 265.211 21.7275C265.548 21.7372 265.806 21.6683 265.984 21.5208C266.163 21.3616 266.257 21.1529 266.264 20.8947C266.274 20.5544 266.118 20.3092 265.797 20.159C265.487 19.9974 264.975 19.824 264.259 19.639C263.543 19.4656 262.955 19.2842 262.496 19.0948C262.036 18.9054 261.643 18.6122 261.318 18.2152C260.992 17.8066 260.839 17.2619 260.859 16.5813C260.884 15.7012 261.236 15.0009 261.914 14.4802C262.592 13.9478 263.535 13.699 264.744 13.7339Z" fill="#99B2C5"/>
<path d="M275.265 14.0375C276.52 14.0737 277.562 14.456 278.389 15.1846C279.218 15.9014 279.725 16.8731 279.91 18.0999L276.755 18.0089C276.675 17.5837 276.492 17.2497 276.209 17.0066C275.925 16.7635 275.562 16.6356 275.121 16.6229C274.598 16.6078 274.162 16.8066 273.813 17.2193C273.464 17.6203 273.278 18.2198 273.255 19.0177C273.232 19.8156 273.383 20.4307 273.708 20.8628C274.033 21.2833 274.457 21.501 274.98 21.5161C275.421 21.5288 275.791 21.4221 276.088 21.1958C276.385 20.9694 276.586 20.6464 276.692 20.2267L279.846 20.3177C279.59 21.5317 279.028 22.4785 278.159 23.1581C277.291 23.8259 276.23 24.1418 274.975 24.1055C274.022 24.0781 273.18 23.8541 272.447 23.4337C271.727 23.0019 271.169 22.3985 270.773 21.6237C270.376 20.8489 270.193 19.9511 270.223 18.9302C270.252 17.8976 270.481 17.0116 270.91 16.2724C271.35 15.5217 271.948 14.9576 272.703 14.5801C273.458 14.1908 274.313 14.01 275.265 14.0375Z" fill="#99B2C5"/>
<path d="M287.748 14.4152C288.864 14.4474 289.736 14.8484 290.365 15.6182C291.006 16.3883 291.307 17.4305 291.269 18.7447L291.105 24.4476L288.124 24.3616L288.279 19.0107C288.298 18.3536 288.138 17.8381 287.8 17.4643C287.474 17.0791 287.026 16.8783 286.457 16.8619C285.853 16.8444 285.365 17.0241 284.993 17.401C284.634 17.7781 284.443 18.3246 284.423 19.0404L284.272 24.2505L281.292 24.1645L281.668 11.1393L284.648 11.2253L284.504 16.2242C284.8 15.6455 285.226 15.1939 285.782 14.8694C286.349 14.5452 287.005 14.3938 287.748 14.4152Z" fill="#99B2C5"/>
<path d="M297.052 14.666C297.796 14.6875 298.43 14.8761 298.955 15.2318C299.479 15.5875 299.861 16.0624 300.1 16.6565L300.151 14.8788L303.114 14.9643L302.83 24.7859L299.868 24.7004L299.919 22.9227C299.646 23.502 299.238 23.9541 298.694 24.279C298.149 24.6039 297.505 24.7556 296.762 24.7341C295.96 24.711 295.245 24.4907 294.618 24.0733C294.002 23.6445 293.519 23.0434 293.17 22.2699C292.831 21.4968 292.677 20.5998 292.707 19.5789C292.736 18.5463 292.942 17.6597 293.324 16.9191C293.718 16.1671 294.234 15.6006 294.873 15.2197C295.524 14.8275 296.25 14.6429 297.052 14.666ZM297.935 17.3339C297.295 17.3155 296.772 17.5118 296.365 17.9228C295.969 18.3342 295.761 18.9154 295.739 19.6664C295.717 20.4174 295.892 21.0097 296.264 21.4432C296.646 21.877 297.157 22.1031 297.796 22.1216C298.424 22.1397 298.941 21.9373 299.349 21.5146C299.768 21.0921 299.988 20.5171 300.009 19.7896C300.031 19.0503 299.844 18.4636 299.45 18.0295C299.067 17.5839 298.562 17.352 297.935 17.3339Z" fill="#99B2C5"/>
<path d="M309.98 13.8235C309.492 13.8094 309.135 13.9048 308.908 14.1097C308.681 14.3145 308.549 14.6513 308.512 15.12L310.273 15.1708L310.199 17.7054L308.439 17.6546L308.229 24.9417L305.248 24.8557L305.459 17.5686L304.291 17.535L304.364 15.0003L305.532 15.034L305.535 14.9284C305.57 13.708 305.946 12.7793 306.662 12.1423C307.39 11.4939 308.422 11.189 309.758 11.2275C310.037 11.2356 310.246 11.2475 310.385 11.2632L310.311 13.8507L309.98 13.8235Z" fill="#99B2C5"/>
<path d="M316.881 22.6017L316.807 25.1892L315.465 25.1505C314.326 25.1176 313.445 24.8103 312.822 24.2286C312.212 23.6356 311.925 22.6819 311.963 21.3676L312.067 17.7593L310.76 17.7216L310.833 15.187L312.14 15.2247L312.21 12.8133L315.19 12.8993L315.121 15.3107L317.073 15.367L317 17.9016L315.047 17.8453L314.942 21.5064C314.931 21.8937 314.998 22.1657 315.145 22.3226C315.303 22.4799 315.568 22.5639 315.94 22.5746L316.881 22.6017Z" fill="#99B2C5"/>
<path d="M327.868 20.3292C327.861 20.5756 327.824 20.8446 327.758 21.1363L321.013 20.9417C321.026 21.682 321.197 22.2213 321.524 22.5595C321.852 22.8861 322.278 23.0569 322.8 23.072C323.242 23.0847 323.611 22.9838 323.908 22.7693C324.205 22.5547 324.405 22.2727 324.508 21.9234L327.663 22.0144C327.515 22.703 327.218 23.3169 326.772 23.856C326.327 24.3834 325.768 24.7959 325.097 25.0937C324.426 25.3796 323.684 25.5109 322.87 25.4874C321.918 25.4599 321.075 25.236 320.343 24.8156C319.623 24.3837 319.065 23.7804 318.668 23.0056C318.272 22.2308 318.089 21.333 318.118 20.3121C318.148 19.2795 318.377 18.3935 318.805 17.6542C319.246 16.9036 319.843 16.3395 320.598 15.962C321.354 15.5727 322.208 15.3918 323.161 15.4193C324.125 15.4472 324.968 15.6711 325.688 16.0912C326.409 16.5113 326.956 17.0908 327.33 17.8297C327.716 18.5573 327.896 19.3904 327.868 20.3292ZM324.866 19.7845C324.897 19.1395 324.736 18.6533 324.385 18.3261C324.046 17.9875 323.615 17.8106 323.092 17.7956C322.546 17.7798 322.088 17.931 321.719 18.2492C321.349 18.5673 321.132 19.0426 321.067 19.6749L324.866 19.7845Z" fill="#99B2C5"/>
<path d="M335.729 15.7996C336.844 15.8318 337.717 16.2327 338.346 17.0025C338.986 17.7726 339.288 18.8148 339.25 20.129L339.085 25.832L336.105 25.746L336.259 20.3951C336.278 19.738 336.119 19.2225 335.781 18.8487C335.454 18.4634 335.007 18.2626 334.437 18.2462C333.833 18.2288 333.345 18.4085 332.974 18.7853C332.614 19.1625 332.424 19.709 332.403 20.4248L332.253 25.6348L329.273 25.5488L329.556 15.7272L332.536 15.8132L332.485 17.6085C332.78 17.0298 333.206 16.5782 333.762 16.2537C334.33 15.9295 334.985 15.7781 335.729 15.7996Z" fill="#99B2C5"/>
<path d="M6.06142 96.3476L6.03263 100.812L3.06645 100.792L3.14851 88.0666L7.95338 88.0976C9.41045 88.107 10.5182 88.4922 11.2765 89.2531C12.0349 90.002 12.4101 91.0124 12.4019 92.2844C12.3967 93.0764 12.2187 93.7833 11.8678 94.405C11.5285 95.0148 11.0223 95.4976 10.3493 95.8532C9.67631 96.1969 8.85992 96.3656 7.9001 96.3595L6.06142 96.3476ZM7.58643 93.8914C8.77753 93.8991 9.3766 93.3569 9.38364 92.2649C9.39083 91.149 8.79888 90.5871 7.60779 90.5795L6.09868 90.5697L6.07732 93.8817L7.58643 93.8914Z" fill="#99B2C5"/>
<path d="M16.8249 92.7269C17.1989 92.1173 17.6761 91.6344 18.2567 91.2781C18.8487 90.9219 19.4859 90.746 20.1682 90.7504L20.147 94.0444L19.297 94.0389C18.5107 94.0338 17.8966 94.2039 17.455 94.549C17.0248 94.8943 16.8071 95.4809 16.8018 96.3089L16.7723 100.881L13.8061 100.862L13.8709 90.8178L16.8371 90.837L16.8249 92.7269Z" fill="#99B2C5"/>
<path d="M25.9371 90.7696C26.8969 90.7758 27.7513 90.9914 28.5003 91.4162C29.2609 91.8291 29.8526 92.4269 30.2754 93.2097C30.7098 93.9925 30.9237 94.9059 30.9169 95.9499C30.9102 96.9938 30.6846 97.9044 30.2401 98.6816C29.8072 99.4588 29.2078 100.055 28.4419 100.47C27.6876 100.873 26.8305 101.072 25.8707 101.065C24.9109 101.059 24.0507 100.85 23.2901 100.437C22.5296 100.012 21.9321 99.408 21.4977 98.6252C21.0749 97.8424 20.8668 96.9291 20.8736 95.8851C20.8803 94.8411 21.1001 93.9305 21.533 93.1533C21.9775 92.3761 22.5826 91.786 23.3485 91.383C24.1144 90.9679 24.9773 90.7635 25.9371 90.7696ZM25.9199 93.4336C25.3533 93.4299 24.872 93.6428 24.476 94.0723C24.0917 94.4898 23.897 95.1006 23.8918 95.9046C23.8866 96.7086 24.0735 97.3218 24.4524 97.7442C24.8428 98.1667 25.3214 98.3798 25.888 98.3835C26.4547 98.3871 26.9301 98.1802 27.3145 97.7627C27.6988 97.3451 27.8935 96.7344 27.8987 95.9304C27.9039 95.1264 27.717 94.5132 27.3381 94.0908C26.9593 93.6563 26.4866 93.4372 25.9199 93.4336Z" fill="#99B2C5"/>
<path d="M37.9211 98.3711L37.904 101.017L36.5684 101.008C35.4351 101.001 34.5523 100.707 33.92 100.127C33.2993 99.5353 32.9933 98.5673 33.002 97.2233L33.0258 93.5334L31.7248 93.525L31.7416 90.9331L33.0425 90.9415L33.0584 88.4755L36.0246 88.4946L36.0087 90.9606L37.9514 90.9731L37.9347 93.5651L35.992 93.5525L35.9678 97.2965C35.9653 97.6925 36.0387 97.9689 36.188 98.1259C36.3489 98.2829 36.6144 98.3627 36.9844 98.365L37.9211 98.3711Z" fill="#99B2C5"/>
<path d="M44.1641 90.8872C45.1239 90.8934 45.9783 91.1089 46.7272 91.5337C47.4878 91.9466 48.0795 92.5445 48.5024 93.3272C48.9368 94.11 49.1506 95.0234 49.1439 96.0674C49.1372 97.1114 48.9116 98.0219 48.4671 98.7991C48.0342 99.5763 47.4348 100.172 46.6688 100.588C45.9145 100.991 45.0575 101.189 44.0977 101.183C43.1379 101.177 42.2776 100.967 41.517 100.554C40.7565 100.129 40.1591 99.5255 39.7247 98.7427C39.3018 97.96 39.0938 97.0466 39.1005 96.0026C39.1072 94.9587 39.327 94.0481 39.7599 93.2708C40.2044 92.4937 40.8096 91.9036 41.5754 91.5005C42.3414 91.0854 43.2042 90.881 44.1641 90.8872ZM44.1469 93.5511C43.5802 93.5475 43.0989 93.7604 42.703 94.1898C42.3187 94.6074 42.1239 95.2181 42.1187 96.0221C42.1135 96.8261 42.3004 97.4393 42.6793 97.8618C43.0698 98.2843 43.5483 98.4974 44.115 98.501C44.6816 98.5047 45.1571 98.2977 45.5414 97.8802C45.9257 97.4627 46.1205 96.8519 46.1257 96.0479C46.1308 95.244 45.944 94.6307 45.5651 94.2083C45.1863 93.7738 44.7135 93.5548 44.1469 93.5511Z" fill="#99B2C5"/>
<path d="M56.5126 101.137L53.6433 96.8524L53.6158 101.118L50.6496 101.099L50.7355 87.7795L53.7017 87.7986L53.6546 95.1065L56.5774 91.0932L60.0639 91.1157L56.1287 96.1124L60.0859 101.16L56.5126 101.137Z" fill="#99B2C5"/>
<path d="M65.762 91.0265C66.7218 91.0327 67.5762 91.2482 68.3251 91.673C69.0857 92.0859 69.6774 92.6837 70.1003 93.4665C70.5347 94.2493 70.7485 95.1627 70.7418 96.2067C70.7351 97.2507 70.5095 98.1612 70.065 98.9384C69.6321 99.7156 69.0327 100.312 68.2667 100.727C67.5125 101.13 66.6554 101.328 65.6956 101.322C64.7358 101.316 63.8756 101.107 63.115 100.694C62.3544 100.269 61.757 99.6648 61.3226 98.882C60.8997 98.0993 60.6917 97.1859 60.6984 96.1419C60.7051 95.0979 60.925 94.1873 61.3579 93.4101C61.8023 92.633 62.4075 92.0429 63.1733 91.6398C63.9393 91.2247 64.8022 91.0203 65.762 91.0265ZM65.7448 93.6904C65.1782 93.6868 64.6968 93.8997 64.3009 94.3291C63.9166 94.7466 63.7218 95.3574 63.7166 96.1614C63.7114 96.9654 63.8983 97.5786 64.2772 98.001C64.6677 98.4236 65.1462 98.6366 65.7129 98.6403C66.2795 98.644 66.755 98.437 67.1393 98.0195C67.5236 97.602 67.7184 96.9912 67.7236 96.1872C67.7288 95.3832 67.5419 94.77 67.163 94.3476C66.7842 93.9131 66.3114 93.6941 65.7448 93.6904Z" fill="#99B2C5"/>
<path d="M75.2996 87.9379L75.2137 101.258L72.2475 101.238L72.3334 87.9188L75.2996 87.9379Z" fill="#99B2C5"/>
<path d="M80.3137 87.9702L80.2278 101.29L77.2616 101.271L77.3475 87.9511L80.3137 87.9702Z" fill="#99B2C5"/>
<path d="M91.5033 96.0706C91.5016 96.3226 91.471 96.5984 91.4112 96.898L84.6983 96.8547C84.7281 97.6109 84.9096 98.1581 85.2428 98.4962C85.5761 98.8224 86.0029 98.9871 86.5233 98.9905C86.9627 98.9933 87.3277 98.8817 87.6183 98.6556C87.9088 98.4294 88.1015 98.1367 88.1964 97.7773L91.336 97.7975C91.2042 98.5047 90.9226 99.1389 90.4911 99.7001C90.0597 100.249 89.5133 100.684 88.8521 101.004C88.1909 101.311 87.4556 101.463 86.6461 101.457C85.6979 101.451 84.855 101.242 84.1175 100.829C83.3917 100.404 82.8232 99.8007 82.4119 99.018C82.0006 98.2353 81.7983 97.322 81.8051 96.278C81.8119 95.222 82.0201 94.3114 82.4298 93.546C82.8512 92.7687 83.4332 92.1784 84.1759 91.7752C84.9187 91.36 85.7643 91.1554 86.7125 91.1616C87.6723 91.1678 88.5152 91.3772 89.2411 91.7899C89.967 92.2026 90.5241 92.7822 90.9125 93.5287C91.3125 94.2633 91.5095 95.1106 91.5033 96.0706ZM88.5054 95.5832C88.5212 94.9233 88.3509 94.4302 87.9946 94.1039C87.6498 93.7657 87.2172 93.5949 86.6968 93.5915C86.1533 93.588 85.7013 93.7531 85.3406 94.0868C84.98 94.4205 84.7744 94.9111 84.724 95.5588L88.5054 95.5832Z" fill="#99B2C5"/>
<path d="M311.846 220.536L309.35 220.669L308.997 221.832L307.302 221.923L309.409 215.583L311.265 215.484L314.035 221.564L312.321 221.655L311.846 220.536ZM311.37 219.408L310.419 217.152L309.703 219.497L311.37 219.408Z" fill="white"/>
<path d="M319.624 216.315L319.887 221.251L318.267 221.338L318.22 220.444C318.084 220.741 317.871 220.983 317.578 221.17C317.292 221.357 316.952 221.461 316.556 221.482C315.954 221.514 315.463 221.351 315.085 220.993C314.714 220.634 314.51 220.125 314.475 219.464L314.322 216.598L315.923 216.513L316.066 219.193C316.084 219.529 316.189 219.787 316.381 219.966C316.579 220.138 316.835 220.217 317.149 220.2C317.475 220.182 317.728 220.071 317.905 219.867C318.083 219.662 318.163 219.38 318.144 219.02L318.004 216.402L319.624 216.315Z" fill="white"/>
<path d="M323.278 215.446C323.014 215.46 322.825 215.523 322.712 215.636C322.598 215.748 322.541 215.923 322.541 216.16L323.493 216.109L323.56 217.383L322.609 217.433L322.805 221.096L321.194 221.182L320.999 217.519L320.368 217.553L320.3 216.279L320.931 216.245L320.928 216.192C320.896 215.579 321.059 215.097 321.418 214.747C321.783 214.39 322.326 214.193 323.048 214.154C323.199 214.146 323.312 214.143 323.388 214.145L323.457 215.445L323.278 215.446Z" fill="white"/>
<path d="M325.818 219.666L328.248 219.537L328.315 220.802L324.125 221.025L324.061 219.831L326.188 217.225L323.966 217.343L323.899 216.087L327.958 215.871L328.021 217.065L325.818 219.666Z" fill="white"/>
<path d="M333.932 217.894C333.939 218.018 333.93 218.154 333.907 218.303L330.263 218.498C330.301 218.868 330.416 219.131 330.607 219.287C330.797 219.436 331.034 219.503 331.316 219.488C331.555 219.476 331.75 219.409 331.901 219.289C332.052 219.168 332.148 219.018 332.188 218.839L333.893 218.748C333.842 219.099 333.708 219.42 333.491 219.709C333.273 219.993 332.989 220.224 332.64 220.402C332.29 220.575 331.896 220.673 331.456 220.696C330.942 220.724 330.478 220.648 330.065 220.469C329.659 220.284 329.332 220.005 329.086 219.634C328.84 219.263 328.703 218.82 328.675 218.307C328.648 217.788 328.734 217.334 328.933 216.945C329.139 216.55 329.437 216.241 329.828 216.019C330.219 215.791 330.672 215.664 331.186 215.636C331.707 215.608 332.171 215.684 332.577 215.864C332.984 216.043 333.303 216.31 333.536 216.664C333.775 217.012 333.907 217.422 333.932 217.894ZM332.291 217.751C332.28 217.426 332.173 217.189 331.97 217.04C331.772 216.885 331.533 216.815 331.25 216.83C330.955 216.846 330.715 216.942 330.529 217.117C330.343 217.293 330.246 217.541 330.238 217.86L332.291 217.751Z" fill="white"/>
<path d="M334.422 214.133C334.41 213.903 334.488 213.71 334.656 213.553C334.823 213.39 335.052 213.301 335.34 213.286C335.629 213.27 335.865 213.334 336.049 213.478C336.233 213.616 336.331 213.8 336.343 214.03C336.355 214.255 336.277 214.448 336.11 214.611C335.942 214.767 335.714 214.854 335.425 214.869C335.136 214.884 334.9 214.823 334.716 214.685C334.532 214.541 334.434 214.357 334.422 214.133ZM336.257 215.428L336.521 220.364L334.91 220.45L334.647 215.514L336.257 215.428Z" fill="white"/>
<path d="M339.739 215.18C340.417 215.144 340.994 215.29 341.472 215.62C341.948 215.943 342.263 216.409 342.415 217.016L340.71 217.106C340.649 216.897 340.536 216.737 340.373 216.628C340.21 216.518 340.009 216.47 339.77 216.482C339.488 216.497 339.261 216.616 339.091 216.838C338.92 217.054 338.845 217.363 338.866 217.764C338.888 218.165 338.995 218.467 339.188 218.669C339.381 218.866 339.619 218.957 339.902 218.942C340.14 218.929 340.335 218.859 340.485 218.733C340.636 218.607 340.731 218.436 340.77 218.221L342.474 218.13C342.388 218.75 342.125 219.249 341.685 219.627C341.246 220 340.687 220.204 340.009 220.24C339.494 220.267 339.03 220.192 338.618 220.013C338.211 219.827 337.885 219.549 337.638 219.178C337.392 218.806 337.255 218.364 337.228 217.851C337.2 217.332 337.286 216.878 337.485 216.489C337.691 216.094 337.989 215.785 338.38 215.563C338.771 215.335 339.224 215.207 339.739 215.18Z" fill="white"/>
<path d="M346.484 214.829C347.087 214.797 347.574 214.96 347.946 215.319C348.324 215.677 348.53 216.187 348.565 216.847L348.718 219.713L347.108 219.799L346.965 217.11C346.947 216.78 346.839 216.528 346.641 216.355C346.449 216.176 346.199 216.095 345.891 216.112C345.565 216.129 345.31 216.24 345.125 216.445C344.947 216.65 344.868 216.932 344.887 217.292L345.027 219.91L343.417 219.996L343.067 213.45L344.678 213.364L344.812 215.876C344.947 215.573 345.157 215.329 345.443 215.142C345.735 214.955 346.082 214.85 346.484 214.829Z" fill="white"/>
<path d="M352.848 214.49C353.45 214.457 353.938 214.621 354.309 214.979C354.687 215.338 354.894 215.847 354.929 216.508L355.082 219.374L353.472 219.46L353.328 216.77C353.311 216.44 353.203 216.189 353.005 216.016C352.813 215.837 352.563 215.756 352.255 215.772C351.929 215.789 351.673 215.901 351.489 216.106C351.311 216.31 351.232 216.593 351.251 216.952L351.391 219.571L349.78 219.657L349.517 214.72L351.127 214.635L351.175 215.537C351.31 215.234 351.521 214.989 351.807 214.802C352.099 214.615 352.446 214.511 352.848 214.49Z" fill="white"/>
<path d="M361.107 214.102L361.37 219.038L359.751 219.125L359.703 218.231C359.568 218.528 359.354 218.77 359.062 218.957C358.776 219.144 358.435 219.248 358.04 219.269C357.437 219.301 356.947 219.138 356.569 218.78C356.197 218.421 355.993 217.912 355.958 217.251L355.805 214.385L357.406 214.3L357.549 216.98C357.567 217.316 357.672 217.574 357.864 217.753C358.062 217.926 358.318 218.004 358.632 217.987C358.959 217.969 359.211 217.858 359.389 217.654C359.567 217.449 359.646 217.167 359.627 216.807L359.487 214.189L361.107 214.102Z" fill="white"/>
<path d="M365.547 213.812C366.15 213.78 366.637 213.943 367.009 214.302C367.387 214.66 367.594 215.17 367.629 215.83L367.782 218.696L366.171 218.782L366.028 216.093C366.01 215.763 365.902 215.511 365.704 215.338C365.512 215.159 365.262 215.078 364.955 215.095C364.628 215.112 364.373 215.223 364.189 215.428C364.011 215.633 363.931 215.915 363.951 216.275L364.09 218.893L362.48 218.979L362.217 214.043L363.827 213.957L363.875 214.859C364.01 214.557 364.221 214.312 364.506 214.125C364.799 213.938 365.146 213.834 365.547 213.812Z" fill="white"/>
<path d="M370.573 213.535C370.975 213.514 371.325 213.581 371.623 213.736C371.921 213.892 372.147 214.114 372.301 214.401L372.253 213.508L373.854 213.422L374.116 218.332C374.14 218.792 374.068 219.21 373.899 219.585C373.731 219.967 373.458 220.277 373.08 220.516C372.703 220.755 372.225 220.89 371.647 220.921C370.856 220.963 370.213 220.82 369.717 220.492C369.227 220.169 368.92 219.709 368.793 219.113L370.385 219.028C370.446 219.226 370.567 219.376 370.749 219.478C370.937 219.581 371.175 219.624 371.464 219.609C371.797 219.591 372.059 219.485 372.25 219.292C372.448 219.104 372.536 218.812 372.515 218.417L372.469 217.55C372.346 217.853 372.145 218.097 371.866 218.283C371.586 218.47 371.245 218.574 370.843 218.595C370.41 218.618 370.016 218.539 369.66 218.357C369.31 218.168 369.024 217.888 368.803 217.515C368.588 217.142 368.466 216.699 368.439 216.186C368.411 215.667 368.485 215.214 368.659 214.826C368.84 214.432 369.094 214.126 369.422 213.907C369.757 213.682 370.14 213.558 370.573 213.535ZM371.162 214.834C370.817 214.853 370.543 214.974 370.341 215.198C370.145 215.421 370.057 215.721 370.077 216.099C370.098 216.476 370.217 216.766 370.435 216.967C370.66 217.168 370.945 217.259 371.291 217.241C371.63 217.222 371.9 217.099 372.102 216.869C372.31 216.639 372.404 216.341 372.385 215.976C372.365 215.604 372.239 215.318 372.008 215.118C371.783 214.911 371.501 214.816 371.162 214.834Z" fill="white"/>
</svg>
