<svg width="563" height="453" viewBox="0 0 563 453" fill="none" xmlns="http://www.w3.org/2000/svg">
<path d="M111.844 372.133L279.595 428.404L440.623 359.834L276.233 302.501L111.844 372.133Z" stroke="#2BC47C" stroke-width="3" stroke-miterlimit="10" stroke-linecap="round"/>
<path d="M272.164 23.3579L171.301 63.9687V371.425L276.853 406.284L375.682 365.408V57.8638L272.164 23.3579Z" fill="url(#paint0_linear)"/>
<path d="M274.818 383.723V405.311L171.301 371.425V350.987L274.818 383.723Z" fill="#F6FBFF"/>
<path d="M375.68 365.408V345.855L280.656 383.811V404.25L375.68 365.408Z" fill="#D8E5F1"/>
<path d="M274.818 355.765V377.353L171.301 343.466V323.028L274.818 355.765Z" fill="#F6FBFF"/>
<path d="M375.68 337.45V317.896L280.656 355.853V376.291L375.68 337.45Z" fill="#D8E5F1"/>
<path d="M274.818 327.54V349.129L171.301 315.331V294.893L274.818 327.54Z" fill="#F6FBFF"/>
<path d="M375.68 309.314V289.761L280.656 327.717V348.155L375.68 309.314Z" fill="#D8E5F1"/>
<path d="M274.818 299.582V321.17L171.301 287.372V266.845L274.818 299.582Z" fill="#F6FBFF"/>
<path d="M375.68 281.356V261.802L280.656 299.67V320.197L375.68 281.356Z" fill="#D8E5F1"/>
<path d="M274.818 271.446V293.034L171.301 259.148V238.709L274.818 271.446Z" fill="#F6FBFF"/>
<path d="M375.68 253.131V233.667L280.656 271.534V291.973L375.68 253.131Z" fill="#D8E5F1"/>
<path d="M274.818 243.487V265.076L171.301 231.189V210.751L274.818 243.487Z" fill="#F6FBFF"/>
<path d="M375.68 225.173V205.708L280.656 243.576V264.014L375.68 225.173Z" fill="#D8E5F1"/>
<path d="M274.818 215.352V236.94L171.301 203.054V182.616L274.818 215.352Z" fill="#F6FBFF"/>
<path d="M375.68 197.037V177.484L280.656 215.44V235.878L375.68 197.037Z" fill="#D8E5F1"/>
<path d="M274.818 187.394V208.982L171.301 175.095V154.657L274.818 187.394Z" fill="#F6FBFF"/>
<path d="M375.68 169.079V149.525L280.656 187.482V207.92L375.68 169.079Z" fill="#D8E5F1"/>
<path d="M274.818 159.17V180.758L171.301 146.96V126.522L274.818 159.17Z" fill="#F6FBFF"/>
<path d="M375.68 140.943V121.39L280.656 159.347V179.785L375.68 140.943Z" fill="#D8E5F1"/>
<path d="M274.818 131.034V152.622L171.301 118.735V98.2974L274.818 131.034Z" fill="#F6FBFF"/>
<path d="M375.68 112.719V93.2544L280.656 131.122V151.56L375.68 112.719Z" fill="#D8E5F1"/>
<path d="M274.818 103.075V124.663L171.301 90.777V70.3389L274.818 103.075Z" fill="#F6FBFF"/>
<path d="M375.68 84.7607V65.2959L280.656 103.164V123.602L375.68 84.7607Z" fill="#D8E5F1"/>
<path d="M171.301 63.9687L276.853 96.3511L375.682 57.8638L273.226 23.3579L171.301 63.9687Z" fill="#E9F1F8"/>
<path d="M228.281 52.6436L275.439 67.0652L319.501 49.9008L273.758 34.5059L228.281 52.6436Z" fill="#E9F1F8"/>
<path d="M319.676 58.6602V50.2549L275.438 67.5963V76.8863L319.676 58.6602Z" fill="#D8E5F1"/>
<path d="M274.818 67.4191V76.7092L227.66 60.6949V53.0859L274.818 67.4191Z" fill="#F6FBFF"/>
<circle opacity="0.1" cx="375" cy="205" r="24" fill="#2BC47C"/>
<circle cx="375" cy="205" r="12" fill="#2BC47C"/>
<circle opacity="0.1" cx="209" cy="171" r="24" fill="#2BC47C"/>
<circle cx="209" cy="171" r="12" fill="#2BC47C"/>
<circle opacity="0.1" cx="209" cy="45" r="24" fill="#2BC47C"/>
<circle cx="209" cy="45" r="12" fill="#2BC47C"/>
<circle opacity="0.1" cx="175" cy="300" r="24" fill="#2BC47C"/>
<circle cx="175" cy="300" r="12" fill="#2BC47C"/>
<circle opacity="0.1" cx="344" cy="117" r="24" fill="#2BC47C"/>
<circle cx="344" cy="117" r="12" fill="#2BC47C"/>
<line x1="375" y1="205" x2="429" y2="205" stroke="#2BC47C" stroke-width="2" stroke-dasharray="2 4"/>
<line x1="126" y1="171" x2="217" y2="171" stroke="#2BC47C" stroke-width="2" stroke-dasharray="2 4"/>
<line x1="78" y1="44" x2="217" y2="44" stroke="#2BC47C" stroke-width="2" stroke-dasharray="2 4"/>
<line x1="59" y1="301" x2="184" y2="301" stroke="#2BC47C" stroke-width="2" stroke-dasharray="2 4"/>
<path d="M460.556 220C460.419 220 460.281 219.97 460.153 219.906C459.79 219.726 459.599 219.327 459.69 218.938L462.105 208.733H457.889C457.541 208.733 457.225 208.535 457.081 208.227C456.936 207.919 456.989 207.556 457.217 207.3L468.772 194.3C469.04 193.998 469.483 193.914 469.847 194.094C470.211 194.274 470.402 194.674 470.31 195.062L467.895 205.266H472.111C472.459 205.266 472.775 205.465 472.919 205.773C473.064 206.081 473.011 206.444 472.783 206.7L461.228 219.7C461.055 219.896 460.808 220 460.556 220ZM459.836 207H463.222C463.493 207 463.749 207.12 463.917 207.327C464.086 207.533 464.148 207.803 464.088 208.061L462.226 215.931L470.164 207H466.778C466.507 207 466.251 206.879 466.082 206.673C465.914 206.467 465.851 206.196 465.911 205.938L467.774 198.069L459.836 207Z" fill="url(#paint1_linear)" stroke="url(#paint2_linear)"/>
<circle cx="464.5" cy="206.5" r="20.5" stroke="url(#paint3_linear)" stroke-width="4"/>
<path d="M28.9697 294.031C27.0745 292.136 24.3989 290.909 21.5004 290.909C18.6019 290.909 15.9263 292.08 14.0311 294.031C12.1359 295.926 10.9096 298.601 10.9096 301.5C10.9096 304.399 12.1359 307.074 14.0311 308.969C15.9263 310.864 18.6019 312.091 21.5004 312.091C24.3989 312.091 27.0745 310.92 28.9697 308.969C30.8649 307.074 32.0912 304.399 32.0912 301.5C32.0912 298.601 30.9206 295.926 28.9697 294.031ZM26.963 306.963C25.5695 308.356 23.6186 309.192 21.5004 309.192C19.3823 309.192 17.4313 308.356 16.0378 306.963C14.6443 305.569 13.8082 303.618 13.8082 301.5C13.8082 299.382 14.6443 297.431 16.0378 296.037C17.4313 294.644 19.3823 293.808 21.5004 293.808C23.6186 293.808 25.5695 294.644 26.963 296.037C28.3566 297.431 29.1927 299.382 29.1927 301.5C29.1927 303.618 28.3566 305.569 26.963 306.963Z" fill="url(#paint4_linear)"/>
<path fill-rule="evenodd" clip-rule="evenodd" d="M13.7248 293.729C15.7008 291.696 18.4866 290.479 21.5004 290.479C24.5193 290.479 27.3013 291.755 29.2716 293.724C31.3044 295.7 32.5212 298.486 32.5212 301.5C32.5212 304.519 31.2451 307.301 29.2759 309.271C27.3 311.304 24.5142 312.521 21.5004 312.521C18.4804 312.521 15.6975 311.244 13.7271 309.273C11.7567 307.303 10.4796 304.52 10.4796 301.5C10.4796 298.481 11.7557 295.699 13.7248 293.729ZM21.5004 291.339C18.7183 291.339 16.1539 292.463 14.3395 294.33L14.3352 294.335C12.5152 296.155 11.3396 298.723 11.3396 301.5C11.3396 304.277 12.5152 306.845 14.3352 308.665C16.1552 310.485 18.7234 311.661 21.5004 311.661C24.2826 311.661 26.8469 310.537 28.6613 308.67L28.6656 308.665C30.4856 306.845 31.6612 304.277 31.6612 301.5C31.6612 298.718 30.5378 296.153 28.6701 294.339L28.6656 294.335C26.8456 292.515 24.2774 291.339 21.5004 291.339ZM21.5004 294.238C19.4959 294.238 17.6545 295.029 16.3419 296.341C15.0292 297.654 14.2382 299.496 14.2382 301.5C14.2382 303.504 15.0292 305.346 16.3419 306.659C17.6545 307.971 19.4959 308.762 21.5004 308.762C23.5049 308.762 25.3463 307.971 26.659 306.659C27.9716 305.346 28.7627 303.504 28.7627 301.5C28.7627 299.496 27.9716 297.654 26.659 296.341C25.3463 295.029 23.5049 294.238 21.5004 294.238ZM15.7337 295.733C17.2082 294.259 19.2686 293.378 21.5004 293.378C23.7323 293.378 25.7927 294.259 27.2671 295.733C28.7415 297.208 29.6227 299.268 29.6227 301.5C29.6227 303.732 28.7415 305.792 27.2671 307.267C25.7927 308.741 23.7323 309.622 21.5004 309.622C19.2686 309.622 17.2082 308.741 15.7337 307.267C14.2593 305.792 13.3782 303.732 13.3782 301.5C13.3782 299.268 14.2593 297.208 15.7337 295.733Z" fill="url(#paint5_linear)"/>
<path fill-rule="evenodd" clip-rule="evenodd" d="M28.366 294.643L28.3616 294.639C26.6168 292.894 24.1559 291.769 21.5004 291.769C18.8347 291.769 16.3815 292.845 14.648 294.63L14.6436 294.634L14.6392 294.639C12.8945 296.384 11.7696 298.844 11.7696 301.5C11.7696 304.156 12.8945 306.616 14.6392 308.361C16.384 310.106 18.8449 311.231 21.5004 311.231C24.1662 311.231 26.6193 310.155 28.3528 308.37L28.3572 308.366L28.3616 308.361C30.1064 306.616 31.2312 304.156 31.2312 301.5C31.2312 298.834 30.155 296.381 28.3705 294.648L28.366 294.643ZM28.9697 294.031C30.9206 295.926 32.0912 298.601 32.0912 301.5C32.0912 304.399 30.8649 307.074 28.9697 308.969C27.0745 310.92 24.3989 312.091 21.5004 312.091C18.6019 312.091 15.9263 310.864 14.0311 308.969C12.1359 307.074 10.9096 304.399 10.9096 301.5C10.9096 298.601 12.1359 295.926 14.0311 294.031C15.9263 292.08 18.6019 290.909 21.5004 290.909C24.3989 290.909 27.0745 292.136 28.9697 294.031ZM27.5711 307.571C26.0158 309.126 23.8459 310.052 21.5004 310.052C19.1549 310.052 16.985 309.126 15.4297 307.571C13.8744 306.015 12.9481 303.846 12.9481 301.5C12.9481 299.154 13.8744 296.985 15.4297 295.429C16.985 293.874 19.1549 292.948 21.5004 292.948C23.8459 292.948 26.0158 293.874 27.5711 295.429C29.1265 296.985 30.0527 299.154 30.0527 301.5C30.0527 303.846 29.1265 306.015 27.5711 307.571ZM21.5004 309.192C23.6186 309.192 25.5695 308.356 26.963 306.963C28.3566 305.569 29.1927 303.618 29.1927 301.5C29.1927 299.382 28.3566 297.431 26.963 296.037C25.5695 294.644 23.6186 293.808 21.5004 293.808C19.3823 293.808 17.4313 294.644 16.0378 296.037C14.6443 297.431 13.8082 299.382 13.8082 301.5C13.8082 303.618 14.6443 305.569 16.0378 306.963C17.4313 308.356 19.3823 309.192 21.5004 309.192Z" fill="url(#paint6_linear)"/>
<path fill-rule="evenodd" clip-rule="evenodd" d="M13.7248 293.729C15.7008 291.696 18.4866 290.479 21.5004 290.479C24.5193 290.479 27.3013 291.755 29.2716 293.724C31.3044 295.7 32.5212 298.486 32.5212 301.5C32.5212 304.519 31.2451 307.301 29.2759 309.271C27.3 311.304 24.5142 312.521 21.5004 312.521C18.4804 312.521 15.6975 311.244 13.7271 309.273C11.7567 307.303 10.4796 304.52 10.4796 301.5C10.4796 298.481 11.7557 295.699 13.7248 293.729ZM21.5004 292.199C18.951 292.199 16.6091 293.228 14.9564 294.93L14.9477 294.938L14.9433 294.943C13.2738 296.612 12.1996 298.966 12.1996 301.5C12.1996 304.034 13.2738 306.388 14.9433 308.057C16.6128 309.727 18.9663 310.801 21.5004 310.801C24.0498 310.801 26.3917 309.772 28.0444 308.07L28.053 308.062L28.0575 308.057C29.727 306.388 30.8012 304.034 30.8012 301.5C30.8012 298.951 29.7721 296.609 28.0709 294.956L28.0619 294.947L28.0576 294.943C26.388 293.273 24.0345 292.199 21.5004 292.199ZM28.6656 294.335L28.6701 294.339L28.366 294.643L28.6656 294.335ZM15.1256 295.125C16.7618 293.489 19.0412 292.518 21.5004 292.518C23.9596 292.518 26.239 293.489 27.8752 295.125C29.5114 296.761 30.4827 299.041 30.4827 301.5C30.4827 303.959 29.5114 306.239 27.8752 307.875C26.239 309.511 23.9596 310.482 21.5004 310.482C19.0412 310.482 16.7618 309.511 15.1256 307.875C13.4894 306.239 12.5181 303.959 12.5181 301.5C12.5181 299.041 13.4894 296.761 15.1256 295.125ZM21.5004 294.238C19.4959 294.238 17.6545 295.029 16.3419 296.341C15.0292 297.654 14.2382 299.496 14.2382 301.5C14.2382 303.504 15.0292 305.346 16.3419 306.659C17.6545 307.971 19.4959 308.762 21.5004 308.762C23.5049 308.762 25.3463 307.971 26.659 306.659C27.9716 305.346 28.7627 303.504 28.7627 301.5C28.7627 299.496 27.9716 297.654 26.659 296.341C25.3463 295.029 23.5049 294.238 21.5004 294.238Z" fill="url(#paint7_linear)"/>
<path d="M41.1207 300.051H36.8287C36.0483 300.051 35.3794 300.72 35.3794 301.5C35.3794 302.281 36.0483 302.949 36.8287 302.949H41.1207C41.9011 302.949 42.57 302.281 42.57 301.5C42.57 300.72 41.9011 300.051 41.1207 300.051Z" fill="url(#paint8_linear)"/>
<path fill-rule="evenodd" clip-rule="evenodd" d="M34.9494 301.5C34.9494 300.482 35.8108 299.621 36.8287 299.621H41.1207C42.1386 299.621 43 300.482 43 301.5C43 302.518 42.1386 303.379 41.1207 303.379H36.8287C35.8108 303.379 34.9494 302.518 34.9494 301.5ZM36.8287 300.481C36.2858 300.481 35.8094 300.957 35.8094 301.5C35.8094 302.043 36.2858 302.519 36.8287 302.519H41.1207C41.6636 302.519 42.14 302.043 42.14 301.5C42.14 300.957 41.6636 300.481 41.1207 300.481H36.8287Z" fill="url(#paint9_linear)"/>
<path fill-rule="evenodd" clip-rule="evenodd" d="M41.1207 300.911H36.8287C36.5233 300.911 36.2394 301.195 36.2394 301.5C36.2394 301.806 36.5233 302.089 36.8287 302.089H41.1207C41.4261 302.089 41.71 301.806 41.71 301.5C41.71 301.195 41.4261 300.911 41.1207 300.911ZM36.8287 300.051H41.1207C41.9011 300.051 42.57 300.72 42.57 301.5C42.57 302.281 41.9011 302.949 41.1207 302.949H36.8287C36.0483 302.949 35.3794 302.281 35.3794 301.5C35.3794 300.72 36.0483 300.051 36.8287 300.051Z" fill="url(#paint10_linear)"/>
<path fill-rule="evenodd" clip-rule="evenodd" d="M34.9494 301.5C34.9494 300.482 35.8108 299.621 36.8287 299.621H41.1207C42.1386 299.621 43 300.482 43 301.5C43 302.518 42.1386 303.379 41.1207 303.379H36.8287C35.8108 303.379 34.9494 302.518 34.9494 301.5ZM35.8742 301.156C35.9291 301.013 36.0149 300.888 36.1155 300.787C36.216 300.686 36.3418 300.601 36.4844 300.546C36.2079 300.652 35.9805 300.879 35.8742 301.156ZM35.8742 301.844C36.0222 302.23 36.4052 302.519 36.8287 302.519C36.5434 302.519 36.2911 302.389 36.1155 302.213C36.0149 302.113 35.9291 301.987 35.8742 301.844ZM42.0752 301.156C41.9272 300.771 41.5442 300.481 41.1207 300.481C41.4061 300.481 41.6583 300.611 41.834 300.787C41.9345 300.888 42.0203 301.013 42.0752 301.156ZM42.0752 301.844C42.0203 301.987 41.9345 302.113 41.834 302.213C41.7334 302.314 41.6077 302.4 41.465 302.455C41.7415 302.348 41.9689 302.121 42.0752 301.844ZM36.7236 301.395C36.6809 301.438 36.6694 301.48 36.6694 301.5C36.6694 301.52 36.6809 301.563 36.7236 301.605C36.7663 301.648 36.8086 301.659 36.8287 301.659H41.1207C41.1408 301.659 41.1832 301.648 41.2258 301.605C41.2685 301.563 41.28 301.52 41.28 301.5C41.28 301.48 41.2685 301.438 41.2258 301.395C41.1832 301.352 41.1408 301.341 41.1207 301.341H36.8287C36.8086 301.341 36.7663 301.352 36.7236 301.395Z" fill="url(#paint11_linear)"/>
<path d="M21.4998 315.38C20.7194 315.38 20.0505 316.049 20.0505 316.829V321.121C20.0505 321.902 20.7194 322.57 21.4998 322.57C22.2802 322.57 22.9491 321.902 22.9491 321.121V316.829C22.9491 316.049 22.2802 315.38 21.4998 315.38Z" fill="url(#paint12_linear)"/>
<path fill-rule="evenodd" clip-rule="evenodd" d="M19.6205 316.829C19.6205 315.811 20.4819 314.95 21.4998 314.95C22.5176 314.95 23.3791 315.811 23.3791 316.829V321.121C23.3791 322.139 22.5176 323 21.4998 323C20.4819 323 19.6205 322.139 19.6205 321.121V316.829ZM21.4998 315.81C20.9569 315.81 20.4805 316.286 20.4805 316.829V321.121C20.4805 321.664 20.9569 322.14 21.4998 322.14C22.0427 322.14 22.5191 321.664 22.5191 321.121V316.829C22.5191 316.286 22.0427 315.81 21.4998 315.81Z" fill="url(#paint13_linear)"/>
<path fill-rule="evenodd" clip-rule="evenodd" d="M21.4998 316.24C21.1944 316.24 20.9105 316.524 20.9105 316.829V321.121C20.9105 321.427 21.1944 321.71 21.4998 321.71C21.8052 321.71 22.0891 321.427 22.0891 321.121V316.829C22.0891 316.524 21.8052 316.24 21.4998 316.24ZM20.0505 316.829C20.0505 316.049 20.7194 315.38 21.4998 315.38C22.2802 315.38 22.9491 316.049 22.9491 316.829V321.121C22.9491 321.902 22.2802 322.57 21.4998 322.57C20.7194 322.57 20.0505 321.902 20.0505 321.121V316.829Z" fill="url(#paint14_linear)"/>
<path fill-rule="evenodd" clip-rule="evenodd" d="M19.6205 316.829C19.6205 315.811 20.4819 314.95 21.4998 314.95C22.5176 314.95 23.3791 315.811 23.3791 316.829V321.121C23.3791 322.139 22.5176 323 21.4998 323C20.4819 323 19.6205 322.139 19.6205 321.121V316.829ZM20.5453 316.485C20.6002 316.342 20.686 316.216 20.7866 316.116C20.8871 316.015 21.0129 315.93 21.1555 315.875C21.0173 315.928 20.8913 316.011 20.7866 316.116C20.6819 316.221 20.5984 316.347 20.5453 316.485ZM21.4998 315.81C21.7851 315.81 22.0374 315.94 22.213 316.116C22.3136 316.216 22.3993 316.342 22.4543 316.485C22.3063 316.1 21.9233 315.81 21.4998 315.81ZM21.3947 316.724C21.352 316.767 21.3405 316.809 21.3405 316.829V321.121C21.3405 321.141 21.352 321.184 21.3947 321.226C21.4374 321.269 21.4797 321.28 21.4998 321.28C21.5199 321.28 21.5622 321.269 21.6049 321.226C21.6476 321.184 21.659 321.141 21.659 321.121V316.829C21.659 316.809 21.6476 316.767 21.6049 316.724C21.5622 316.681 21.5199 316.67 21.4998 316.67C21.4797 316.67 21.4374 316.681 21.3947 316.724ZM20.5453 321.465C20.6933 321.851 21.0763 322.14 21.4998 322.14C21.2145 322.14 20.9622 322.01 20.7866 321.834C20.686 321.734 20.6002 321.608 20.5453 321.465ZM21.844 322.076C21.9832 322.022 22.1099 321.938 22.2151 321.832C22.2144 321.833 22.2137 321.834 22.213 321.834C22.1124 321.935 21.9867 322.021 21.844 322.076ZM22.5191 321.121C22.5191 321.392 22.4008 321.646 22.2151 321.832C22.3896 321.657 22.5191 321.405 22.5191 321.121Z" fill="url(#paint15_linear)"/>
<path d="M36.3834 314.376L33.3177 311.311C32.816 310.753 31.8684 310.753 31.311 311.311C30.7536 311.868 30.7536 312.76 31.311 313.317L34.3768 316.383C34.9342 316.94 35.826 316.94 36.3834 316.383C36.9408 315.826 36.9408 314.934 36.3834 314.376Z" fill="url(#paint16_linear)"/>
<path fill-rule="evenodd" clip-rule="evenodd" d="M33.6291 311.014C32.9465 310.267 31.72 310.293 31.007 311.007C30.2816 311.732 30.2816 312.896 31.007 313.621L34.0727 316.687C34.798 317.412 35.9622 317.412 36.6875 316.687C37.4128 315.962 37.4128 314.798 36.6875 314.072L33.6291 311.014ZM32.9981 311.598C32.6757 311.24 32.014 311.216 31.6151 311.615C31.2256 312.004 31.2256 312.624 31.6151 313.013L34.6808 316.079C35.0703 316.468 35.6899 316.468 36.0794 316.079C36.4689 315.689 36.4689 315.07 36.0794 314.68L33.0056 311.607L32.9981 311.598Z" fill="url(#paint17_linear)"/>
<path fill-rule="evenodd" clip-rule="evenodd" d="M32.6936 311.903L32.6785 311.886C32.5353 311.727 32.1595 311.678 31.9191 311.919C31.6976 312.14 31.6976 312.488 31.9191 312.709L34.9849 315.775C35.2064 315.996 35.5538 315.996 35.7753 315.775C35.9969 315.553 35.9969 315.206 35.7753 314.984L32.6936 311.903ZM33.3177 311.311L36.3834 314.376C36.9408 314.934 36.9408 315.826 36.3834 316.383C35.826 316.94 34.9342 316.94 34.3768 316.383L31.311 313.317C30.7536 312.76 30.7536 311.868 31.311 311.311C31.8684 310.753 32.816 310.753 33.3177 311.311Z" fill="url(#paint18_linear)"/>
<path fill-rule="evenodd" clip-rule="evenodd" d="M33.6291 311.014C32.9465 310.267 31.72 310.293 31.007 311.007C30.2816 311.732 30.2816 312.896 31.007 313.621L34.0727 316.687C34.798 317.412 35.9622 317.412 36.6875 316.687C37.4128 315.962 37.4128 314.798 36.6875 314.072L33.6291 311.014ZM32.3293 312.183C32.2865 312.182 32.25 312.196 32.2232 312.223C32.1938 312.252 32.183 312.285 32.183 312.314C32.183 312.343 32.1938 312.376 32.2232 312.405L35.2889 315.471C35.3183 315.5 35.3509 315.511 35.3801 315.511C35.4093 315.511 35.4419 315.5 35.4713 315.471C35.5007 315.441 35.5115 315.409 35.5115 315.38C35.5115 315.35 35.5007 315.318 35.4713 315.289L32.3815 312.199L32.373 312.189C32.3635 312.186 32.3484 312.183 32.3293 312.183Z" fill="url(#paint19_linear)"/>
<path d="M21.4998 280.43C20.7194 280.43 20.0505 281.099 20.0505 281.879V286.171C20.0505 286.952 20.7194 287.621 21.4998 287.621C22.2802 287.621 22.9491 286.952 22.9491 286.171V281.879C22.9491 281.099 22.2802 280.43 21.4998 280.43Z" fill="url(#paint20_linear)"/>
<path fill-rule="evenodd" clip-rule="evenodd" d="M19.6205 281.879C19.6205 280.861 20.4819 280 21.4998 280C22.5176 280 23.3791 280.861 23.3791 281.879V286.171C23.3791 287.189 22.5176 288.051 21.4998 288.051C20.4819 288.051 19.6205 287.189 19.6205 286.171V281.879ZM21.4998 280.86C20.9569 280.86 20.4805 281.336 20.4805 281.879V286.171C20.4805 286.714 20.9569 287.191 21.4998 287.191C22.0427 287.191 22.5191 286.714 22.5191 286.171V281.879C22.5191 281.336 22.0427 280.86 21.4998 280.86Z" fill="url(#paint21_linear)"/>
<path fill-rule="evenodd" clip-rule="evenodd" d="M21.4998 281.29C21.1944 281.29 20.9105 281.574 20.9105 281.879V286.171C20.9105 286.477 21.1944 286.761 21.4998 286.761C21.8052 286.761 22.0891 286.477 22.0891 286.171V281.879C22.0891 281.574 21.8052 281.29 21.4998 281.29ZM20.0505 281.879C20.0505 281.099 20.7194 280.43 21.4998 280.43C22.2802 280.43 22.9491 281.099 22.9491 281.879V286.171C22.9491 286.952 22.2802 287.621 21.4998 287.621C20.7194 287.621 20.0505 286.952 20.0505 286.171V281.879Z" fill="url(#paint22_linear)"/>
<path fill-rule="evenodd" clip-rule="evenodd" d="M19.6205 281.879C19.6205 280.861 20.4819 280 21.4998 280C22.5176 280 23.3791 280.861 23.3791 281.879V286.171C23.3791 287.189 22.5176 288.051 21.4998 288.051C20.4819 288.051 19.6205 287.189 19.6205 286.171V281.879ZM20.5453 281.535C20.6002 281.392 20.686 281.267 20.7866 281.166C20.8871 281.065 21.0129 280.98 21.1555 280.925C21.0173 280.978 20.8913 281.061 20.7866 281.166C20.6819 281.271 20.5984 281.397 20.5453 281.535ZM21.4998 280.86C21.7851 280.86 22.0374 280.99 22.213 281.166C22.3136 281.267 22.3993 281.392 22.4543 281.535C22.3063 281.15 21.9233 280.86 21.4998 280.86ZM21.3947 281.774C21.352 281.817 21.3405 281.859 21.3405 281.879V286.171C21.3405 286.191 21.352 286.234 21.3947 286.276C21.4374 286.319 21.4797 286.331 21.4998 286.331C21.5199 286.331 21.5622 286.319 21.6049 286.276C21.6476 286.234 21.659 286.191 21.659 286.171V281.879C21.659 281.859 21.6476 281.817 21.6049 281.774C21.5622 281.731 21.5199 281.72 21.4998 281.72C21.4797 281.72 21.4374 281.731 21.3947 281.774ZM20.5453 286.516C20.6933 286.901 21.0763 287.191 21.4998 287.191C21.2145 287.191 20.9622 287.06 20.7866 286.885C20.686 286.784 20.6002 286.658 20.5453 286.516ZM21.844 287.126C22.1206 287.02 22.348 286.792 22.4543 286.516C22.3993 286.658 22.3136 286.784 22.213 286.885C22.1124 286.985 21.9867 287.071 21.844 287.126Z" fill="url(#paint23_linear)"/>
<path d="M36.4389 286.617C35.8815 286.06 34.9896 286.06 34.4322 286.617L31.3664 289.683C30.809 290.241 30.809 291.132 31.3664 291.69C31.8681 292.247 32.8157 292.247 33.3731 291.69L36.4389 288.624C36.9963 288.067 36.9963 287.175 36.4389 286.617Z" fill="url(#paint24_linear)"/>
<path fill-rule="evenodd" clip-rule="evenodd" d="M34.1281 286.313C34.8535 285.588 36.0176 285.588 36.7429 286.313C37.4683 287.039 37.4683 288.203 36.7429 288.928L33.6772 291.994C32.9639 292.707 31.737 292.734 31.0545 291.986C30.3371 291.26 30.3397 290.102 31.0624 289.379L34.1281 286.313ZM36.1348 286.921C35.7453 286.532 35.1257 286.532 34.7363 286.921L31.6705 289.987C31.281 290.377 31.281 290.996 31.6705 291.386L31.6785 291.394L31.6861 291.402C32.0085 291.76 32.6702 291.785 33.0691 291.386L36.1348 288.32C36.5243 287.931 36.5243 287.311 36.1348 286.921Z" fill="url(#paint25_linear)"/>
<path fill-rule="evenodd" clip-rule="evenodd" d="M31.9905 291.098L32.0057 291.115C32.1488 291.274 32.5246 291.322 32.765 291.082L35.8308 288.016C36.0523 287.794 36.0523 287.447 35.8308 287.226C35.6092 287.004 35.2619 287.004 35.0403 287.226L31.9746 290.291C31.753 290.513 31.753 290.86 31.9746 291.082L31.9905 291.098ZM34.4322 286.617C34.9896 286.06 35.8815 286.06 36.4389 286.617C36.9963 287.175 36.9963 288.067 36.4389 288.624L33.3731 291.69C32.8157 292.247 31.8681 292.247 31.3664 291.69C30.809 291.132 30.809 290.241 31.3664 289.683L34.4322 286.617Z" fill="url(#paint26_linear)"/>
<path fill-rule="evenodd" clip-rule="evenodd" d="M34.1281 286.313C34.8535 285.588 36.0176 285.588 36.7429 286.313C37.4683 287.039 37.4683 288.203 36.7429 288.928L33.6772 291.994C32.9639 292.707 31.737 292.734 31.0545 291.986C30.3371 291.26 30.3397 290.102 31.0624 289.379L34.1281 286.313ZM35.4355 287.489C35.4063 287.489 35.3738 287.5 35.3444 287.53L32.2786 290.595C32.2492 290.625 32.2384 290.657 32.2384 290.686C32.2384 290.716 32.2492 290.748 32.2786 290.778L32.3026 290.802L32.3111 290.811C32.3206 290.814 32.3358 290.818 32.3548 290.818C32.3977 290.819 32.4342 290.804 32.4609 290.778L35.5267 287.712C35.5561 287.682 35.5669 287.65 35.5669 287.621C35.5669 287.592 35.5561 287.559 35.5267 287.53C35.4973 287.5 35.4648 287.489 35.4355 287.489ZM32.3429 291.678C32.1161 291.675 31.8585 291.594 31.6861 291.402C31.8461 291.58 32.0894 291.675 32.3429 291.678C32.343 291.678 32.3428 291.678 32.3429 291.678ZM32.3429 291.678C32.5838 291.681 32.8556 291.599 33.0691 291.386C32.8681 291.587 32.6003 291.68 32.3429 291.678Z" fill="url(#paint27_linear)"/>
<path d="M6.17132 300.051H1.87927C1.09889 300.051 0.430002 300.72 0.430002 301.5C0.430002 302.281 1.04315 302.949 1.87927 302.949H6.17132C6.9517 302.949 7.62059 302.281 7.62059 301.5C7.62059 300.72 6.9517 300.051 6.17132 300.051Z" fill="url(#paint28_linear)"/>
<path fill-rule="evenodd" clip-rule="evenodd" d="M0 301.5C0 300.482 0.86141 299.621 1.87927 299.621H6.17132C7.18918 299.621 8.05059 300.482 8.05059 301.5C8.05059 302.518 7.18918 303.379 6.17132 303.379H1.87927C0.79493 303.379 0 302.507 0 301.5ZM1.87927 300.481C1.33638 300.481 0.860004 300.957 0.860004 301.5C0.860004 302.054 1.29137 302.519 1.87927 302.519H6.17132C6.71421 302.519 7.19059 302.043 7.19059 301.5C7.19059 300.957 6.71421 300.481 6.17132 300.481H1.87927Z" fill="url(#paint29_linear)"/>
<path fill-rule="evenodd" clip-rule="evenodd" d="M6.17132 300.911H1.87927C1.57386 300.911 1.29001 301.195 1.29001 301.5C1.29001 301.827 1.5396 302.089 1.87927 302.089H6.17132C6.47673 302.089 6.76058 301.806 6.76058 301.5C6.76058 301.195 6.47673 300.911 6.17132 300.911ZM1.87927 300.051H6.17132C6.9517 300.051 7.62059 300.72 7.62059 301.5C7.62059 302.281 6.9517 302.949 6.17132 302.949H1.87927C1.04315 302.949 0.430002 302.281 0.430002 301.5C0.430002 300.72 1.09889 300.051 1.87927 300.051Z" fill="url(#paint30_linear)"/>
<path fill-rule="evenodd" clip-rule="evenodd" d="M0 301.5C0 300.482 0.86141 299.621 1.87927 299.621H6.17132C7.18918 299.621 8.05059 300.482 8.05059 301.5C8.05059 302.518 7.18918 303.379 6.17132 303.379H1.87927C0.79493 303.379 0 302.507 0 301.5ZM0.924791 301.156C0.979716 301.013 1.06548 300.888 1.16605 300.787C1.34166 300.611 1.59393 300.481 1.87927 300.481C1.60782 300.481 1.35301 300.6 1.16605 300.787C1.06135 300.892 0.977925 301.018 0.924791 301.156ZM1.87927 302.519C1.58695 302.519 1.33333 302.404 1.1522 302.221C1.33404 302.405 1.58836 302.519 1.87927 302.519ZM6.17132 300.481C6.44276 300.481 6.69757 300.6 6.88452 300.787C6.70892 300.611 6.45665 300.481 6.17132 300.481ZM1.77417 301.395C1.7315 301.438 1.72001 301.48 1.72001 301.5C1.72001 301.553 1.73915 301.591 1.76356 301.616C1.78706 301.64 1.82381 301.659 1.87927 301.659H6.17132C6.19139 301.659 6.23375 301.648 6.27642 301.605C6.31909 301.563 6.33058 301.52 6.33058 301.5C6.33058 301.48 6.31909 301.438 6.27642 301.395C6.23375 301.352 6.19139 301.341 6.17132 301.341H1.87927C1.8592 301.341 1.81684 301.352 1.77417 301.395Z" fill="url(#paint31_linear)"/>
<path d="M11.6331 311.311C11.1315 310.753 10.1839 310.753 9.62646 311.311L6.5607 314.376C6.00329 314.934 6.00329 315.826 6.5607 316.383C7.11811 316.94 8.00997 316.94 8.56738 316.383L11.6331 313.317C12.1905 312.76 12.1905 311.868 11.6331 311.311Z" fill="url(#paint32_linear)"/>
<path fill-rule="evenodd" clip-rule="evenodd" d="M11.9451 311.014C11.2626 310.267 10.0357 310.293 9.3224 311.007L6.25665 314.072C5.53131 314.798 5.53131 315.962 6.25665 316.687C6.98198 317.412 8.1461 317.412 8.87144 316.687L11.9372 313.621C12.6599 312.899 12.6625 311.74 11.9451 311.014ZM11.3135 311.598C10.9911 311.24 10.3294 311.216 9.93052 311.615L6.86476 314.68C6.47528 315.07 6.47528 315.689 6.86476 316.079C7.25424 316.468 7.87384 316.468 8.26332 316.079L11.3291 313.013C11.7186 312.624 11.7186 312.004 11.3291 311.615L11.3211 311.607L11.3135 311.598Z" fill="url(#paint33_linear)"/>
<path fill-rule="evenodd" clip-rule="evenodd" d="M11.009 311.903L10.9939 311.886C10.8508 311.727 10.4749 311.678 10.2346 311.919L7.16882 314.984C6.94726 315.206 6.94726 315.553 7.16882 315.775C7.39038 315.996 7.73771 315.996 7.95927 315.775L11.025 312.709C11.2466 312.488 11.2466 312.14 11.025 311.919L11.009 311.903ZM9.62646 311.311C10.1839 310.753 11.1315 310.753 11.6331 311.311C12.1905 311.868 12.1905 312.76 11.6331 313.317L8.56738 316.383C8.00997 316.94 7.11811 316.94 6.5607 316.383C6.00329 315.826 6.00329 314.934 6.5607 314.376L9.62646 311.311Z" fill="url(#paint34_linear)"/>
<path fill-rule="evenodd" clip-rule="evenodd" d="M11.9451 311.014C11.2626 310.267 10.0357 310.293 9.3224 311.007L6.25665 314.072C5.53131 314.798 5.53131 315.962 6.25665 316.687C6.98198 317.412 8.1461 317.412 8.87144 316.687L11.9372 313.621C12.6599 312.899 12.6625 311.74 11.9451 311.014ZM10.6447 312.183C10.6019 312.182 10.5654 312.196 10.5386 312.223L7.47288 315.289C7.44347 315.318 7.43265 315.35 7.43265 315.38C7.43265 315.409 7.44347 315.441 7.47287 315.471C7.50227 315.5 7.53482 315.511 7.56404 315.511C7.59327 315.511 7.62581 315.5 7.65521 315.471L10.721 312.405C10.7504 312.376 10.7612 312.343 10.7612 312.314C10.7612 312.285 10.7504 312.252 10.721 312.223L10.697 312.199L10.6884 312.189C10.679 312.186 10.6638 312.183 10.6447 312.183Z" fill="url(#paint35_linear)"/>
<path d="M11.6331 289.683L8.56738 286.617C8.00997 286.06 7.11811 286.06 6.5607 286.617C6.00329 287.175 6.00329 288.067 6.5607 288.624L9.62646 291.69C10.1839 292.247 11.0757 292.247 11.6331 291.69C12.1905 291.132 12.1905 290.241 11.6331 289.683Z" fill="url(#paint36_linear)"/>
<path fill-rule="evenodd" clip-rule="evenodd" d="M6.25665 286.313C6.98198 285.588 8.1461 285.588 8.87144 286.313L11.9372 289.379C12.6625 290.104 12.6625 291.269 11.9372 291.994C11.2119 292.719 10.0477 292.719 9.3224 291.994L6.25665 288.928C5.53131 288.203 5.53131 287.039 6.25665 286.313ZM8.26332 286.921C7.87384 286.532 7.25424 286.532 6.86476 286.921C6.47528 287.311 6.47528 287.931 6.86476 288.32L9.93052 291.386C10.32 291.775 10.9396 291.775 11.3291 291.386C11.7186 290.996 11.7186 290.377 11.3291 289.987L8.26332 286.921Z" fill="url(#paint37_linear)"/>
<path fill-rule="evenodd" clip-rule="evenodd" d="M11.025 290.291L7.95927 287.226C7.73771 287.004 7.39038 287.004 7.16882 287.226C6.94726 287.447 6.94726 287.794 7.16882 288.016L10.2346 291.082C10.4561 291.303 10.8035 291.303 11.025 291.082C11.2466 290.86 11.2466 290.513 11.025 290.291ZM8.56738 286.617L11.6331 289.683C12.1905 290.241 12.1905 291.132 11.6331 291.69C11.0757 292.247 10.1839 292.247 9.62646 291.69L6.5607 288.624C6.00329 288.067 6.00329 287.175 6.5607 286.617C7.11811 286.06 8.00997 286.06 8.56738 286.617Z" fill="url(#paint38_linear)"/>
<path fill-rule="evenodd" clip-rule="evenodd" d="M6.25665 286.313C6.98198 285.588 8.1461 285.588 8.87144 286.313L11.9372 289.379C12.6625 290.104 12.6625 291.269 11.9372 291.994C11.2119 292.719 10.0477 292.719 9.3224 291.994L6.25665 288.928C5.53131 288.203 5.53131 287.039 6.25665 286.313ZM7.56404 287.489C7.53482 287.489 7.50228 287.5 7.47288 287.53C7.44347 287.559 7.43265 287.592 7.43265 287.621C7.43265 287.65 7.44347 287.682 7.47288 287.712L10.5386 290.778C10.568 290.807 10.6006 290.818 10.6298 290.818C10.659 290.818 10.6916 290.807 10.721 290.778C10.7504 290.748 10.7612 290.716 10.7612 290.686C10.7612 290.657 10.7504 290.625 10.721 290.595L7.65521 287.53C7.62581 287.5 7.59327 287.489 7.56404 287.489Z" fill="url(#paint39_linear)"/>
<line x1="345" y1="116" x2="503" y2="116" stroke="#2BC47C" stroke-width="2" stroke-dasharray="2 4"/>
<path d="M552.207 120.751C550.231 119.115 548.196 118.771 546.401 118.467C545.209 118.266 544.234 118.099 543.376 117.605C548.177 116.562 551.781 114.084 553.628 110.503C555.399 107.07 555.281 102.967 553.305 99.2461C552.107 96.9872 549.506 95.3387 546.679 95.0463C543.963 94.7656 541.435 95.7705 539.742 97.8074C538.106 99.7834 537.762 101.818 537.458 103.614C537.258 104.797 537.092 105.766 536.606 106.62C535.564 101.816 533.086 98.2104 529.504 96.3625C526.071 94.5916 521.968 94.7092 518.246 96.6849C515.987 97.8832 514.339 100.484 514.046 103.312C513.766 106.028 514.771 108.555 516.807 110.249C518.784 111.885 520.819 112.229 522.614 112.532C523.806 112.734 524.781 112.901 525.639 113.395C520.838 114.438 517.234 116.916 515.387 120.496C513.616 123.93 513.734 128.033 515.709 131.754C516.907 134.013 519.509 135.661 522.336 135.954C522.636 135.985 522.933 136 523.227 136C525.6 136 527.766 135.004 529.273 133.193C530.909 131.217 531.253 129.182 531.556 127.387C531.757 126.203 531.923 125.234 532.408 124.38C533.45 129.184 535.929 132.789 539.51 134.637C541.126 135.471 542.89 135.886 544.693 135.886C546.721 135.886 548.798 135.36 550.768 134.314C553.027 133.116 554.675 130.515 554.968 127.688C555.248 124.972 554.243 122.444 552.207 120.751ZM534.507 120.139C531.949 120.139 529.868 118.058 529.868 115.5C529.868 112.942 531.949 110.861 534.507 110.861C537.065 110.861 539.146 112.942 539.146 115.5C539.146 118.058 537.065 120.139 534.507 120.139ZM541.135 104.235C541.393 102.709 541.616 101.391 542.611 100.189C543.82 98.7355 545.438 98.6669 546.295 98.7556C547.87 98.9185 549.398 99.8386 550.011 100.994C551.426 103.659 551.533 106.429 550.313 108.794C549.008 111.325 546.345 113.114 542.725 113.931C542.335 111.88 541.194 110.093 539.599 108.866C540.614 107.298 540.896 105.646 541.135 104.235ZM519.189 107.379C517.735 106.171 517.667 104.552 517.756 103.695C517.919 102.12 518.839 100.592 519.995 99.9793C522.66 98.5644 525.43 98.457 527.794 99.6767C530.33 100.985 532.12 103.654 532.935 107.282C530.889 107.672 529.106 108.81 527.88 110.399C526.307 109.378 524.65 109.094 523.236 108.855C521.709 108.597 520.391 108.374 519.189 107.379ZM527.879 126.764C527.621 128.29 527.398 129.608 526.403 130.811C525.194 132.264 523.575 132.333 522.719 132.244C521.144 132.081 519.616 131.161 519.003 130.005C517.588 127.341 517.481 124.571 518.701 122.206C520.007 119.675 522.669 117.886 526.289 117.069C526.679 119.12 527.821 120.907 529.415 122.134C528.401 123.702 528.118 125.354 527.879 126.764ZM551.258 127.304C551.096 128.88 550.175 130.407 549.02 131.02C546.355 132.435 543.585 132.543 541.22 131.323C538.684 130.015 536.894 127.346 536.079 123.717C538.125 123.327 539.909 122.189 541.135 120.6C542.707 121.621 544.364 121.905 545.779 122.144C547.305 122.402 548.623 122.625 549.825 123.621C551.278 124.829 551.347 126.447 551.258 127.304Z" fill="url(#paint40_linear)"/>
<path d="M90.4232 172.895L85.2365 167.958L83.0273 170.279L90.603 177.49L102.146 164.638L99.7622 162.497L90.4232 172.895Z" fill="url(#paint41_linear)" stroke="url(#paint42_linear)" stroke-width="0.5"/>
<path d="M105.315 155.22C101.431 154.524 97.8546 152.403 96.0682 151.201C94.901 150.415 93.5436 150 92.1426 150C90.7417 150 89.3842 150.415 88.2171 151.201C86.4307 152.403 82.8539 154.524 78.97 155.22C76.6696 155.633 75 157.623 75 159.953V169.619C75 172.812 75.8934 175.925 77.6553 178.871C79.0338 181.176 80.9436 183.379 83.3319 185.418C87.3476 188.847 91.324 190.636 91.4912 190.71L92.1426 191L92.7939 190.71C92.9612 190.636 96.9376 188.847 100.953 185.418C103.341 183.379 105.251 181.176 106.63 178.871C108.392 175.925 109.285 172.812 109.285 169.619V159.953C109.285 157.623 107.616 155.633 105.315 155.22ZM106.081 169.619C106.081 174.38 103.676 178.858 98.9327 182.93C96.1755 185.297 93.3761 186.84 92.1428 187.466C89.3079 186.025 78.2042 179.735 78.2042 169.619V159.953C78.2042 159.177 78.764 158.513 79.5352 158.374C83.997 157.575 88.0109 155.202 90.0063 153.859C90.6427 153.431 91.3814 153.204 92.1426 153.204C92.9039 153.204 93.6427 153.431 94.279 153.859C96.2744 155.202 100.288 157.575 104.75 158.374C105.521 158.513 106.081 159.176 106.081 159.953V169.619Z" fill="url(#paint43_linear)" stroke="url(#paint44_linear)" stroke-width="0.5"/>
<line x1="416.667" y1="370.027" x2="439.526" y2="378.595" stroke="#00C27D" stroke-width="3"/>
<path d="M504.016 391.154V382.749L459.777 400.09V409.38L504.016 391.154Z" fill="#99B2C5"/>
<path d="M459.158 399.913V409.203L412 393.189V385.58L459.158 399.913Z" fill="#BFEDD8"/>
<path d="M412 385.138L459.158 399.559L503.219 382.395L457.477 367L412 385.138Z" fill="url(#paint45_linear)"/>
<line x1="413.675" y1="350.475" x2="432.359" y2="341.644" stroke="#00C27D" stroke-width="3"/>
<path d="M408.621 327.138L455.779 341.559L499.84 324.395L454.098 309L408.621 327.138Z" fill="url(#paint46_linear)"/>
<path d="M500.016 333.154V324.749L455.777 342.09V351.38L500.016 333.154Z" fill="#99B2C5"/>
<path d="M455.158 341.913V351.203L408 335.189V327.58L455.158 341.913Z" fill="#BFEDD8"/>
<path d="M54.8431 32.1546C54.2989 31.6105 53.4447 31.5303 52.8086 31.9637C50.4121 33.5972 38.3921 41.8108 37.1003 43.1026C35.227 44.976 35.227 48.0241 37.1003 49.8975C38.037 50.8341 39.2675 51.3025 40.4978 51.3025C41.7281 51.3025 42.9585 50.8341 43.8952 49.8975C45.187 48.6057 53.4006 36.5857 55.0341 34.1892C55.4674 33.5532 55.3872 32.6989 54.8431 32.1546ZM41.6302 47.6325C41.0058 48.257 39.9897 48.257 39.3653 47.6325C38.7409 47.0081 38.7408 45.9923 39.365 45.3679C39.8669 44.8719 43.2796 42.438 47.4784 39.5194C44.5599 43.7182 42.126 47.1307 41.6302 47.6325Z" fill="url(#paint47_linear)"/>
<path d="M27.3857 53.9491L25.4085 54.9136C23.9619 52.3317 23.2031 49.4499 23.2031 46.4999C23.2031 44.3386 23.6017 42.2685 24.329 40.3593L26.5945 41.446C26.8179 41.5531 27.0537 41.6039 27.286 41.6039C27.8829 41.6039 28.4558 41.2688 28.7312 40.6946C29.1137 39.8971 28.7773 38.9404 27.9798 38.5579L25.743 37.485C28.5231 32.951 33.3331 29.7899 38.8985 29.2766V31.6854C38.8985 32.57 39.6155 33.287 40.5 33.287C41.3846 33.287 42.1016 32.57 42.1016 31.6854V29.2754C44.0097 29.4491 45.8559 29.935 47.6086 30.7262C48.4146 31.0902 49.3633 30.7315 49.7272 29.9255C50.0912 29.1193 49.7327 28.1708 48.9265 27.8068C46.2706 26.608 43.4355 26 40.4999 26C35.0242 26 29.8762 28.1323 26.0042 32.0042C22.1324 35.8762 20 41.0242 20 46.4999C20 50.5463 21.201 54.4816 23.4732 57.8802C23.7793 58.3379 24.2853 58.5918 24.8056 58.5918C25.0422 58.5918 25.2818 58.5393 25.5069 58.4295L28.7901 56.828C29.5851 56.4402 29.9152 55.4814 29.5273 54.6864C29.1395 53.8914 28.1807 53.5614 27.3857 53.9491Z" fill="url(#paint48_linear)"/>
<path d="M59.1935 38.0735C58.8297 37.2673 57.8813 36.9086 57.0748 37.2727C56.2687 37.6366 55.9102 38.5852 56.2741 39.3913C57.2849 41.6301 57.7973 44.0218 57.7973 46.4999C57.7973 49.4543 57.0361 52.3407 55.5851 54.9255L53.521 53.9426C52.7225 53.5624 51.7668 53.9013 51.3864 54.7C51.0061 55.4986 51.3453 56.4543 52.1439 56.8346L55.5071 58.4361C55.7284 58.5414 55.9629 58.5918 56.1949 58.5918C56.7154 58.5918 57.2215 58.3376 57.5271 57.8802C59.7994 54.4816 61.0004 50.5462 61.0004 46.4999C61.0004 43.5643 60.3925 40.7292 59.1935 38.0735Z" fill="url(#paint49_linear)"/>
<path d="M558.058 332H519.613C517.07 332 515 334.07 515 336.613V368.907C515 371.45 517.07 373.52 519.613 373.52H558.058C560.602 373.52 562.671 371.45 562.671 368.907V336.613C562.671 334.07 560.602 332 558.058 332ZM559.596 368.907C559.596 369.755 558.906 370.444 558.058 370.444H519.613C518.765 370.444 518.076 369.755 518.076 368.907V344.302H556.52C557.369 344.302 558.058 343.614 558.058 342.764C558.058 341.915 557.369 341.227 556.52 341.227H518.076V336.613C518.076 335.765 518.765 335.076 519.613 335.076H558.058C558.906 335.076 559.596 335.765 559.596 336.613V368.907ZM521.452 339.659C520.653 339.813 519.834 339.337 519.643 338.452C519.488 337.647 519.971 336.833 520.85 336.643C521.663 336.487 522.471 336.979 522.659 337.85C522.815 338.661 522.326 339.47 521.452 339.659ZM526.065 339.659C525.259 339.814 524.446 339.33 524.256 338.452C524.101 337.647 524.584 336.833 525.464 336.643C526.276 336.487 527.085 336.979 527.272 337.85C527.428 338.661 526.94 339.47 526.065 339.659ZM530.679 339.659C529.871 339.815 529.059 339.329 528.87 338.452C528.715 337.647 529.198 336.833 530.077 336.643C530.889 336.487 531.698 336.978 531.886 337.85C532.042 338.661 531.553 339.47 530.679 339.659Z" fill="url(#paint50_linear)" stroke="url(#paint51_linear)" stroke-width="0.5"/>
<path d="M551.461 351.019C549.653 351.019 548.125 352.24 547.656 353.901H545.631V350.483C545.631 349.891 545.151 349.411 544.559 349.411C543.967 349.411 543.487 349.891 543.487 350.483V354.973C543.487 355.566 543.967 356.046 544.559 356.046H547.656C548.125 357.707 549.653 358.928 551.461 358.928C553.641 358.928 555.415 357.154 555.415 354.973C555.415 352.793 553.641 351.019 551.461 351.019ZM551.461 356.783C550.464 356.783 549.652 355.971 549.652 354.973C549.652 353.976 550.464 353.164 551.461 353.164C552.459 353.164 553.271 353.976 553.271 354.973C553.271 355.971 552.459 356.783 551.461 356.783ZM539.868 357.2V350.483C539.868 349.891 539.388 349.411 538.795 349.411C538.203 349.411 537.723 349.891 537.723 350.483V357.2C536.063 357.669 534.842 359.197 534.842 361.005C534.842 363.186 536.615 364.96 538.795 364.96C540.976 364.96 542.749 363.186 542.749 361.005C542.749 359.197 541.528 357.669 539.868 357.2ZM538.795 362.815C537.798 362.815 536.986 362.003 536.986 361.005C536.986 360.008 537.798 359.196 538.795 359.196C539.793 359.196 540.605 360.008 540.605 361.005C540.605 362.003 539.793 362.815 538.795 362.815ZM533.032 349.411C532.44 349.411 531.96 349.891 531.96 350.483V353.901H529.935C529.466 352.24 527.938 351.019 526.13 351.019C523.95 351.019 522.176 352.793 522.176 354.973C522.176 357.154 523.95 358.928 526.13 358.928C527.938 358.928 529.466 357.707 529.935 356.046H533.032C533.624 356.046 534.104 355.566 534.104 354.973V350.483C534.104 349.891 533.624 349.411 533.032 349.411ZM526.13 356.783C525.132 356.783 524.32 355.971 524.32 354.973C524.32 353.976 525.132 353.164 526.13 353.164C527.127 353.164 527.939 353.976 527.939 354.973C527.939 355.971 527.127 356.783 526.13 356.783Z" fill="url(#paint52_linear)" stroke="url(#paint53_linear)" stroke-width="1.03"/>
<defs>
<linearGradient id="paint0_linear" x1="171.329" y1="214.836" x2="375.648" y2="214.836" gradientUnits="userSpaceOnUse">
<stop stop-color="white"/>
<stop offset="1" stop-color="white"/>
</linearGradient>
<linearGradient id="paint1_linear" x1="473" y1="207" x2="457" y2="207" gradientUnits="userSpaceOnUse">
<stop stop-color="#06EA84"/>
<stop offset="1" stop-color="#2BC47B"/>
</linearGradient>
<linearGradient id="paint2_linear" x1="473" y1="207" x2="457" y2="207" gradientUnits="userSpaceOnUse">
<stop stop-color="#06EA84"/>
<stop offset="1" stop-color="#2BC47B"/>
</linearGradient>
<linearGradient id="paint3_linear" x1="485" y1="206.5" x2="444" y2="206.5" gradientUnits="userSpaceOnUse">
<stop stop-color="#06EA84"/>
<stop offset="1" stop-color="#2BC47B"/>
</linearGradient>
<linearGradient id="paint4_linear" x1="43" y1="301.5" x2="7.21051e-07" y2="301.5" gradientUnits="userSpaceOnUse">
<stop stop-color="#06EA84"/>
<stop offset="1" stop-color="#2BC47B"/>
</linearGradient>
<linearGradient id="paint5_linear" x1="43" y1="301.5" x2="7.21051e-07" y2="301.5" gradientUnits="userSpaceOnUse">
<stop stop-color="#06EA84"/>
<stop offset="1" stop-color="#2BC47B"/>
</linearGradient>
<linearGradient id="paint6_linear" x1="43" y1="301.5" x2="7.21051e-07" y2="301.5" gradientUnits="userSpaceOnUse">
<stop stop-color="#06EA84"/>
<stop offset="1" stop-color="#2BC47B"/>
</linearGradient>
<linearGradient id="paint7_linear" x1="43" y1="301.5" x2="7.21051e-07" y2="301.5" gradientUnits="userSpaceOnUse">
<stop stop-color="#06EA84"/>
<stop offset="1" stop-color="#2BC47B"/>
</linearGradient>
<linearGradient id="paint8_linear" x1="43" y1="301.5" x2="7.21051e-07" y2="301.5" gradientUnits="userSpaceOnUse">
<stop stop-color="#06EA84"/>
<stop offset="1" stop-color="#2BC47B"/>
</linearGradient>
<linearGradient id="paint9_linear" x1="43" y1="301.5" x2="7.21051e-07" y2="301.5" gradientUnits="userSpaceOnUse">
<stop stop-color="#06EA84"/>
<stop offset="1" stop-color="#2BC47B"/>
</linearGradient>
<linearGradient id="paint10_linear" x1="43" y1="301.5" x2="7.21051e-07" y2="301.5" gradientUnits="userSpaceOnUse">
<stop stop-color="#06EA84"/>
<stop offset="1" stop-color="#2BC47B"/>
</linearGradient>
<linearGradient id="paint11_linear" x1="43" y1="301.5" x2="7.21051e-07" y2="301.5" gradientUnits="userSpaceOnUse">
<stop stop-color="#06EA84"/>
<stop offset="1" stop-color="#2BC47B"/>
</linearGradient>
<linearGradient id="paint12_linear" x1="43" y1="301.5" x2="7.21051e-07" y2="301.5" gradientUnits="userSpaceOnUse">
<stop stop-color="#06EA84"/>
<stop offset="1" stop-color="#2BC47B"/>
</linearGradient>
<linearGradient id="paint13_linear" x1="43" y1="301.5" x2="7.21051e-07" y2="301.5" gradientUnits="userSpaceOnUse">
<stop stop-color="#06EA84"/>
<stop offset="1" stop-color="#2BC47B"/>
</linearGradient>
<linearGradient id="paint14_linear" x1="43" y1="301.5" x2="7.21051e-07" y2="301.5" gradientUnits="userSpaceOnUse">
<stop stop-color="#06EA84"/>
<stop offset="1" stop-color="#2BC47B"/>
</linearGradient>
<linearGradient id="paint15_linear" x1="43" y1="301.5" x2="7.21051e-07" y2="301.5" gradientUnits="userSpaceOnUse">
<stop stop-color="#06EA84"/>
<stop offset="1" stop-color="#2BC47B"/>
</linearGradient>
<linearGradient id="paint16_linear" x1="43" y1="301.5" x2="7.21051e-07" y2="301.5" gradientUnits="userSpaceOnUse">
<stop stop-color="#06EA84"/>
<stop offset="1" stop-color="#2BC47B"/>
</linearGradient>
<linearGradient id="paint17_linear" x1="43" y1="301.5" x2="7.21051e-07" y2="301.5" gradientUnits="userSpaceOnUse">
<stop stop-color="#06EA84"/>
<stop offset="1" stop-color="#2BC47B"/>
</linearGradient>
<linearGradient id="paint18_linear" x1="43" y1="301.5" x2="7.21051e-07" y2="301.5" gradientUnits="userSpaceOnUse">
<stop stop-color="#06EA84"/>
<stop offset="1" stop-color="#2BC47B"/>
</linearGradient>
<linearGradient id="paint19_linear" x1="43" y1="301.5" x2="7.21051e-07" y2="301.5" gradientUnits="userSpaceOnUse">
<stop stop-color="#06EA84"/>
<stop offset="1" stop-color="#2BC47B"/>
</linearGradient>
<linearGradient id="paint20_linear" x1="43" y1="301.5" x2="7.21051e-07" y2="301.5" gradientUnits="userSpaceOnUse">
<stop stop-color="#06EA84"/>
<stop offset="1" stop-color="#2BC47B"/>
</linearGradient>
<linearGradient id="paint21_linear" x1="43" y1="301.5" x2="7.21051e-07" y2="301.5" gradientUnits="userSpaceOnUse">
<stop stop-color="#06EA84"/>
<stop offset="1" stop-color="#2BC47B"/>
</linearGradient>
<linearGradient id="paint22_linear" x1="43" y1="301.5" x2="7.21051e-07" y2="301.5" gradientUnits="userSpaceOnUse">
<stop stop-color="#06EA84"/>
<stop offset="1" stop-color="#2BC47B"/>
</linearGradient>
<linearGradient id="paint23_linear" x1="43" y1="301.5" x2="7.21051e-07" y2="301.5" gradientUnits="userSpaceOnUse">
<stop stop-color="#06EA84"/>
<stop offset="1" stop-color="#2BC47B"/>
</linearGradient>
<linearGradient id="paint24_linear" x1="43" y1="301.5" x2="7.21051e-07" y2="301.5" gradientUnits="userSpaceOnUse">
<stop stop-color="#06EA84"/>
<stop offset="1" stop-color="#2BC47B"/>
</linearGradient>
<linearGradient id="paint25_linear" x1="43" y1="301.5" x2="7.21051e-07" y2="301.5" gradientUnits="userSpaceOnUse">
<stop stop-color="#06EA84"/>
<stop offset="1" stop-color="#2BC47B"/>
</linearGradient>
<linearGradient id="paint26_linear" x1="43" y1="301.5" x2="7.21051e-07" y2="301.5" gradientUnits="userSpaceOnUse">
<stop stop-color="#06EA84"/>
<stop offset="1" stop-color="#2BC47B"/>
</linearGradient>
<linearGradient id="paint27_linear" x1="43" y1="301.5" x2="7.21051e-07" y2="301.5" gradientUnits="userSpaceOnUse">
<stop stop-color="#06EA84"/>
<stop offset="1" stop-color="#2BC47B"/>
</linearGradient>
<linearGradient id="paint28_linear" x1="43" y1="301.5" x2="7.21051e-07" y2="301.5" gradientUnits="userSpaceOnUse">
<stop stop-color="#06EA84"/>
<stop offset="1" stop-color="#2BC47B"/>
</linearGradient>
<linearGradient id="paint29_linear" x1="43" y1="301.5" x2="7.21051e-07" y2="301.5" gradientUnits="userSpaceOnUse">
<stop stop-color="#06EA84"/>
<stop offset="1" stop-color="#2BC47B"/>
</linearGradient>
<linearGradient id="paint30_linear" x1="43" y1="301.5" x2="7.21051e-07" y2="301.5" gradientUnits="userSpaceOnUse">
<stop stop-color="#06EA84"/>
<stop offset="1" stop-color="#2BC47B"/>
</linearGradient>
<linearGradient id="paint31_linear" x1="43" y1="301.5" x2="7.21051e-07" y2="301.5" gradientUnits="userSpaceOnUse">
<stop stop-color="#06EA84"/>
<stop offset="1" stop-color="#2BC47B"/>
</linearGradient>
<linearGradient id="paint32_linear" x1="43" y1="301.5" x2="7.21051e-07" y2="301.5" gradientUnits="userSpaceOnUse">
<stop stop-color="#06EA84"/>
<stop offset="1" stop-color="#2BC47B"/>
</linearGradient>
<linearGradient id="paint33_linear" x1="43" y1="301.5" x2="7.21051e-07" y2="301.5" gradientUnits="userSpaceOnUse">
<stop stop-color="#06EA84"/>
<stop offset="1" stop-color="#2BC47B"/>
</linearGradient>
<linearGradient id="paint34_linear" x1="43" y1="301.5" x2="7.21051e-07" y2="301.5" gradientUnits="userSpaceOnUse">
<stop stop-color="#06EA84"/>
<stop offset="1" stop-color="#2BC47B"/>
</linearGradient>
<linearGradient id="paint35_linear" x1="43" y1="301.5" x2="7.21051e-07" y2="301.5" gradientUnits="userSpaceOnUse">
<stop stop-color="#06EA84"/>
<stop offset="1" stop-color="#2BC47B"/>
</linearGradient>
<linearGradient id="paint36_linear" x1="43" y1="301.5" x2="7.21051e-07" y2="301.5" gradientUnits="userSpaceOnUse">
<stop stop-color="#06EA84"/>
<stop offset="1" stop-color="#2BC47B"/>
</linearGradient>
<linearGradient id="paint37_linear" x1="43" y1="301.5" x2="7.21051e-07" y2="301.5" gradientUnits="userSpaceOnUse">
<stop stop-color="#06EA84"/>
<stop offset="1" stop-color="#2BC47B"/>
</linearGradient>
<linearGradient id="paint38_linear" x1="43" y1="301.5" x2="7.21051e-07" y2="301.5" gradientUnits="userSpaceOnUse">
<stop stop-color="#06EA84"/>
<stop offset="1" stop-color="#2BC47B"/>
</linearGradient>
<linearGradient id="paint39_linear" x1="43" y1="301.5" x2="7.21051e-07" y2="301.5" gradientUnits="userSpaceOnUse">
<stop stop-color="#06EA84"/>
<stop offset="1" stop-color="#2BC47B"/>
</linearGradient>
<linearGradient id="paint40_linear" x1="555.014" y1="115.5" x2="514" y2="115.5" gradientUnits="userSpaceOnUse">
<stop stop-color="#06EA84"/>
<stop offset="1" stop-color="#2BC47B"/>
</linearGradient>
<linearGradient id="paint41_linear" x1="102.146" y1="169.994" x2="83.0273" y2="169.994" gradientUnits="userSpaceOnUse">
<stop stop-color="#06EA84"/>
<stop offset="1" stop-color="#2BC47B"/>
</linearGradient>
<linearGradient id="paint42_linear" x1="102.146" y1="169.994" x2="83.0273" y2="169.994" gradientUnits="userSpaceOnUse">
<stop stop-color="#06EA84"/>
<stop offset="1" stop-color="#2BC47B"/>
</linearGradient>
<linearGradient id="paint43_linear" x1="109.285" y1="170.5" x2="75" y2="170.5" gradientUnits="userSpaceOnUse">
<stop stop-color="#06EA84"/>
<stop offset="1" stop-color="#2BC47B"/>
</linearGradient>
<linearGradient id="paint44_linear" x1="109.285" y1="170.5" x2="75" y2="170.5" gradientUnits="userSpaceOnUse">
<stop stop-color="#06EA84"/>
<stop offset="1" stop-color="#2BC47B"/>
</linearGradient>
<linearGradient id="paint45_linear" x1="419.379" y1="383" x2="494.879" y2="383" gradientUnits="userSpaceOnUse">
<stop stop-color="#6BD6A3"/>
<stop offset="1" stop-color="#99B2C5"/>
</linearGradient>
<linearGradient id="paint46_linear" x1="416" y1="325" x2="491.5" y2="325" gradientUnits="userSpaceOnUse">
<stop stop-color="#6BD6A3"/>
<stop offset="1" stop-color="#99B2C5"/>
</linearGradient>
<linearGradient id="paint47_linear" x1="55.3122" y1="41.494" x2="35.6953" y2="41.494" gradientUnits="userSpaceOnUse">
<stop stop-color="#06EA84"/>
<stop offset="1" stop-color="#2BC47B"/>
</linearGradient>
<linearGradient id="paint48_linear" x1="49.8695" y1="42.2959" x2="20" y2="42.2959" gradientUnits="userSpaceOnUse">
<stop stop-color="#06EA84"/>
<stop offset="1" stop-color="#2BC47B"/>
</linearGradient>
<linearGradient id="paint49_linear" x1="61.0004" y1="47.8611" x2="51.2305" y2="47.8611" gradientUnits="userSpaceOnUse">
<stop stop-color="#06EA84"/>
<stop offset="1" stop-color="#2BC47B"/>
</linearGradient>
<linearGradient id="paint50_linear" x1="562.671" y1="352.76" x2="515" y2="352.76" gradientUnits="userSpaceOnUse">
<stop stop-color="#8AA0B4"/>
<stop offset="1" stop-color="#99B2C5"/>
</linearGradient>
<linearGradient id="paint51_linear" x1="562.671" y1="352.76" x2="515" y2="352.76" gradientUnits="userSpaceOnUse">
<stop stop-color="#8AA0B4"/>
<stop offset="1" stop-color="#99B2C5"/>
</linearGradient>
<linearGradient id="paint52_linear" x1="555.415" y1="357.185" x2="522.176" y2="357.185" gradientUnits="userSpaceOnUse">
<stop stop-color="#8AA0B4"/>
<stop offset="1" stop-color="#99B2C5"/>
</linearGradient>
<linearGradient id="paint53_linear" x1="555.415" y1="357.185" x2="522.176" y2="357.185" gradientUnits="userSpaceOnUse">
<stop stop-color="#8AA0B4"/>
<stop offset="1" stop-color="#99B2C5"/>
</linearGradient>
</defs>
</svg>
