<svg width="506" height="361" viewBox="0 0 506 361" fill="none" xmlns="http://www.w3.org/2000/svg">
<path d="M83.7849 312.544L183.143 358.527L282.5 312.521L183.143 263.653L83.7849 312.544Z" fill="#F5FAFE"/>
<path d="M228.785 259.891L328.143 305.874L427.5 259.868L328.143 211L228.785 259.891Z" fill="#F5FAFE"/>
<path d="M230.206 168.46L328.087 220.81L425.967 168.434L328.087 112.8L230.206 168.46Z" fill="#99B2C5"/>
<path d="M230.206 168.434L328.087 220.81V251.202L230.113 198.777L230.206 168.434Z" fill="#C9DBEB"/>
<path d="M328.087 220.81L425.968 168.434V198.827L327.994 251.252L328.087 220.81Z" fill="#BCD2E4"/>
<path d="M230.298 133.688L328.18 186.038L426.06 133.662L328.18 78.0281L230.298 133.688Z" fill="#99B2C5"/>
<path d="M230.299 133.662L328.179 186.037V216.43L230.206 164.005L230.299 133.662Z" fill="#C9DBEB"/>
<path d="M328.18 186.037L426.06 133.662V164.055L328.087 216.48L328.18 186.037Z" fill="#BCD2E4"/>
<path d="M230.298 98.9652L328.18 151.315L426.06 98.9398L328.18 43.3057L230.298 98.9652Z" fill="#99B2C5"/>
<path d="M230.299 98.9399L328.179 151.315V181.708L230.206 129.283L230.299 98.9399Z" fill="#C9DBEB"/>
<path d="M328.18 151.315L426.06 98.9398V129.332L328.087 181.757L328.18 151.315Z" fill="#BCD2E4"/>
<path d="M230.391 64.1931L328.272 116.543L426.153 64.1677L328.272 8.53357L230.391 64.1931Z" fill="#DDEAF6"/>
<path d="M230.391 64.1678L328.272 116.543V146.936L230.299 94.5108L230.391 64.1678Z" fill="#C9DBEB"/>
<path d="M328.272 116.543L426.153 64.1678V94.5604L328.18 146.985L328.272 116.543Z" fill="#BCD2E4"/>
<path d="M292.5 77.0009V48.8661L312.5 60.0009V89.4999L292.5 77.0009Z" fill="#EFEDEE"/>
<path d="M338.5 24.4999L292.5 48.8659L312.5 60.0004L358 34.9999L338.5 24.4999Z" fill="#FBFBFB"/>
<path d="M358 62.9999L312.5 89.4999V59.9999L358 34.9999V62.9999Z" fill="url(#paint0_radial)"/>
<path d="M333.3 59.1894L333.309 59.9136L330.891 61.4624L330.949 66.0305L333.376 64.4763L333.384 65.182L329.859 67.4398L329.784 61.4418L333.3 59.1894Z" fill="#2BC47C"/>
<path d="M341.342 60.0851L341.333 59.361L343.751 57.8122L343.694 53.244L341.267 54.7983L341.258 54.0926L344.783 51.8347L344.859 57.8327L341.342 60.0851Z" fill="#2BC47C"/>
<path d="M335.001 56.441L335.906 55.536L340.357 58.6495L336.242 60.4898L339.611 62.8526L338.706 63.7581L334.253 60.6388L338.377 58.8022L335.001 56.441Z" fill="#2BC47C"/>
<path d="M85.1496 230.242L183.031 282.592L280.911 230.217L183.031 174.583L85.1496 230.242Z" fill="#99B2C5"/>
<path d="M85.1498 230.217L183.031 282.593V312.985L85.0572 260.56L85.1498 230.217Z" fill="#C9DBEB"/>
<path d="M183.031 282.593L280.912 230.217V260.61L182.938 313.035L183.031 282.593Z" fill="#BCD2E4"/>
<path d="M85.2421 195.471L183.123 247.82L281.004 195.445L183.123 139.811L85.2421 195.471Z" fill="#99B2C5"/>
<path d="M85.2424 195.445L183.123 247.82V278.213L85.1498 225.788L85.2424 195.445Z" fill="#C9DBEB"/>
<path d="M183.123 247.82L281.004 195.445V225.838L183.031 278.263L183.123 247.82Z" fill="#BCD2E4"/>
<path d="M85.2421 160.748L183.123 213.098L281.004 160.723L183.123 105.089L85.2421 160.748Z" fill="#99B2C5"/>
<path d="M85.2424 160.723L183.123 213.098V243.491L85.1498 191.066L85.2424 160.723Z" fill="#C9DBEB"/>
<path d="M183.123 213.098L281.004 160.723V191.115L183.031 243.54L183.123 213.098Z" fill="#BCD2E4"/>
<path d="M85.3347 125.976L183.216 178.326L281.096 125.951L183.216 70.3165L85.3347 125.976Z" fill="#DDEAF6"/>
<path d="M85.3351 125.951L183.216 178.326V208.719L85.2424 156.294L85.3351 125.951Z" fill="#C9DBEB"/>
<path d="M183.216 178.326L281.097 125.951V156.343L183.123 208.768L183.216 178.326Z" fill="#BCD2E4"/>
<path d="M145.5 138.501V110.366L165.5 121.501V151L145.5 138.501Z" fill="#EFEDEE"/>
<path d="M191.5 86.0001L145.5 110.366L165.5 121.501L211 96.5001L191.5 86.0001Z" fill="#FBFBFB"/>
<path d="M211 124.5L165.5 151V121.5L211 96.5001V124.5Z" fill="url(#paint1_radial)"/>
<path d="M186.3 120.69L186.309 121.414L183.891 122.963L183.949 127.531L186.376 125.977L186.384 126.682L182.859 128.94L182.784 122.942L186.3 120.69Z" fill="#2BC47C"/>
<path d="M194.342 121.585L194.333 120.861L196.751 119.312L196.694 114.744L194.267 116.298L194.258 115.592L197.783 113.335L197.859 119.333L194.342 121.585Z" fill="#2BC47C"/>
<path d="M188.001 117.941L188.906 117.036L193.357 120.149L189.242 121.99L192.611 124.352L191.706 125.258L187.253 122.139L191.377 120.302L188.001 117.941Z" fill="#2BC47C"/>
<path fill-rule="evenodd" clip-rule="evenodd" d="M0 134.5H53.5V149.5H15V236.5H53.5V251.5H0V134.5Z" fill="#2BC47C"/>
<path fill-rule="evenodd" clip-rule="evenodd" d="M506 134.5H452.5V149.5H491V236.5H452.5V251.5H506V134.5Z" fill="#2BC47C"/>
<defs>
<radialGradient id="paint0_radial" cx="0" cy="0" r="1" gradientUnits="userSpaceOnUse" gradientTransform="translate(332.987 64.2329) rotate(103.893) scale(26.8255 20.1427)">
<stop stop-color="white"/>
<stop offset="0.993778" stop-color="#F4F4F5"/>
</radialGradient>
<radialGradient id="paint1_radial" cx="0" cy="0" r="1" gradientUnits="userSpaceOnUse" gradientTransform="translate(185.987 125.733) rotate(103.893) scale(26.8255 20.1427)">
<stop stop-color="white"/>
<stop offset="0.993778" stop-color="#F4F4F5"/>
</radialGradient>
</defs>
</svg>
