<svg width="39" height="39" viewBox="0 0 39 39" fill="none" xmlns="http://www.w3.org/2000/svg">
<path fill-rule="evenodd" clip-rule="evenodd" d="M19.5 39C30.2695 39 39 30.2695 39 19.5C39 8.73045 30.2695 0 19.5 0C8.73047 0 0 8.73045 0 19.5C0 30.2695 8.73047 39 19.5 39ZM20.4662 8C14.7174 8 10.0564 12.661 10.0564 18.4098C10.0564 20.5966 10.7327 22.6256 11.8824 24.2995C11.8994 24.3221 10 29 10 29C10 29 15.2078 27.3881 15.2416 27.4106C16.7745 28.3011 18.5612 28.814 20.4662 28.814C26.215 28.814 30.876 24.153 30.876 18.4042C30.876 12.6554 26.215 8 20.4662 8ZM17.4568 15.1288V15.9179H15.6306V20.9115H17.4624V21.6836H14.7965V15.1288H17.4568ZM23.4756 20.8946V21.6836H26.1357V15.1288H23.47V15.901H25.3016V20.8946H23.4756ZM18.7589 13.3319L19.4464 12.9768L22.7493 19.447L19.6494 18.5847L22.1517 23.4825L21.4642 23.8375L18.1558 17.3617L21.267 18.2353L18.7589 13.3319Z" fill="white"/>
</svg>
