<?xml version="1.0" encoding="UTF-8" standalone="no"?>
<!-- Created with Inkscape (http://www.inkscape.org/) -->

<svg
   xmlns:dc="http://purl.org/dc/elements/1.1/"
   xmlns:cc="http://creativecommons.org/ns#"
   xmlns:rdf="http://www.w3.org/1999/02/22-rdf-syntax-ns#"
   xmlns:svg="http://www.w3.org/2000/svg"
   xmlns="http://www.w3.org/2000/svg"
   xmlns:sodipodi="http://sodipodi.sourceforge.net/DTD/sodipodi-0.dtd"
   xmlns:inkscape="http://www.inkscape.org/namespaces/inkscape"
   width="113"
   height="113"
   viewBox="0 0 29.897916 29.897917"
   version="1.1"
   id="svg84"
   inkscape:version="0.92.3 (2405546, 2018-03-11)"
   sodipodi:docname="facebook.svg">
  <defs
     id="defs78" />
  <sodipodi:namedview
     id="base"
     pagecolor="#ffffff"
     bordercolor="#666666"
     borderopacity="1.0"
     inkscape:pageopacity="0.0"
     inkscape:pageshadow="2"
     inkscape:zoom="1.4"
     inkscape:cx="44.934499"
     inkscape:cy="45.514219"
     inkscape:document-units="px"
     inkscape:current-layer="layer1"
     showgrid="false"
     units="px"
     inkscape:window-width="1920"
     inkscape:window-height="1016"
     inkscape:window-x="0"
     inkscape:window-y="27"
     inkscape:window-maximized="1" />
  <metadata
     id="metadata81">
    <rdf:RDF>
      <cc:Work
         rdf:about="">
        <dc:format>image/svg+xml</dc:format>
        <dc:type
           rdf:resource="http://purl.org/dc/dcmitype/StillImage" />
        <dc:title />
      </cc:Work>
    </rdf:RDF>
  </metadata>
  <g
     inkscape:label="Layer 1"
     inkscape:groupmode="layer"
     id="layer1"
     transform="translate(0,-267.10207)">
    <g
       id="g6"
       transform="matrix(0.26458333,0,0,0.26458333,0,267.31481)">
      <path
         style="fill:#ffffff"
         d="M 56.097656 0.8046875 A 56.097999 56.097999 0 0 0 0 56.902344 A 56.097999 56.097999 0 0 0 56.097656 113 A 56.097999 56.097999 0 0 0 112.19531 56.902344 A 56.097999 56.097999 0 0 0 56.097656 0.8046875 z M 60.326172 22.566406 L 71.560547 22.613281 L 71.560547 35.125 L 63.408203 35.125 C 62.071203 35.125 60.191406 35.791719 60.191406 38.636719 L 60.191406 46.222656 L 71.525391 46.222656 L 70.201172 59.097656 L 60.191406 59.097656 L 60.191406 95.769531 L 45.025391 95.769531 L 45.025391 59.097656 L 37.8125 59.097656 L 37.8125 46.210938 L 45.025391 46.210938 L 45.025391 37.869141 C 45.025391 31.905141 47.858172 22.566406 60.326172 22.566406 z "
         transform="translate(0,-0.8040567)"
         id="circle2" />
    </g>
  </g>
</svg>
