<?xml version="1.0" encoding="UTF-8" standalone="no"?>
<!-- Generator: Adobe Illustrator 19.0.0, SVG Export Plug-In . SVG Version: 6.00 Build 0)  -->

<svg
   xmlns:dc="http://purl.org/dc/elements/1.1/"
   xmlns:cc="http://creativecommons.org/ns#"
   xmlns:rdf="http://www.w3.org/1999/02/22-rdf-syntax-ns#"
   xmlns:svg="http://www.w3.org/2000/svg"
   xmlns="http://www.w3.org/2000/svg"
   xmlns:sodipodi="http://sodipodi.sourceforge.net/DTD/sodipodi-0.dtd"
   xmlns:inkscape="http://www.inkscape.org/namespaces/inkscape"
   version="1.1"
   id="Capa_1"
   x="0px"
   y="0px"
   viewBox="0 0 150 150"
   xml:space="preserve"
   sodipodi:docname="globe.svg"
   inkscape:version="0.92.3 (2405546, 2018-03-11)"
   width="150"
   height="150"><metadata
     id="metadata6"><rdf:RDF><cc:Work
         rdf:about=""><dc:format>image/svg+xml</dc:format><dc:type
           rdf:resource="http://purl.org/dc/dcmitype/StillImage" /><dc:title></dc:title></cc:Work></rdf:RDF></metadata><defs
     id="defs25" /><sodipodi:namedview
     pagecolor="#ffffff"
     bordercolor="#666666"
     borderopacity="1"
     objecttolerance="10"
     gridtolerance="10"
     guidetolerance="10"
     inkscape:pageopacity="0"
     inkscape:pageshadow="2"
     inkscape:window-width="1604"
     inkscape:window-height="936"
     id="namedview23"
     showgrid="false"
     inkscape:zoom="2.6111997"
     inkscape:cx="47.117661"
     inkscape:cy="99.709577"
     inkscape:window-x="0"
     inkscape:window-y="27"
     inkscape:window-maximized="0"
     inkscape:current-layer="Capa_1" /><path
     style="fill:#ffffff;stroke-width:1"
     d="M 74.72803,0.52599426 A 74.728256,74.728256 0 0 0 19.120669,25.468456 c 0.174815,-0.08698 0.348589,-0.182477 0.524738,-0.28264 2.549255,-1.487455 4.579788,-3.71849 7.044848,-5.341593 0.505174,-0.336783 1.080464,-0.659883 1.707253,-0.594398 0.60808,0.05145 1.183101,0.673986 0.963257,1.249323 -0.0842,0.238553 -0.285239,0.425304 -0.49105,0.574986 -2.886037,2.455704 -6.047875,4.602753 -9.411021,6.380215 -0.402268,0.201134 -0.828224,0.439831 -1.010649,0.846777 -0.341459,0.692274 0.234134,1.552876 0.963829,1.805462 0.725017,0.252587 1.53851,0.102725 2.282238,-0.06566 -0.62679,0.893408 -0.8138,2.095522 -0.49105,3.14329 0.692275,0.06548 0.912182,-0.879282 1.117994,-1.538815 0.841956,-2.619418 5.019061,-3.685565 4.747764,-6.445308 1.131963,0.589368 2.282572,-0.730094 2.974847,-1.810604 0.692275,-1.099219 2.231563,-2.179776 3.078197,-1.216204 0.04677,0.537916 0.111848,1.080726 0.1633,1.62332 1.487456,-0.374203 2.993656,-0.762637 4.481112,-1.13684 -0.846633,0.594047 -1.13168,1.861743 -0.645216,2.773862 0.491141,0.912118 1.706939,1.370575 2.670511,0.996372 -0.01403,0.795181 -0.724871,1.403263 -1.37037,1.875694 -1.637137,1.234869 -3.396044,2.502664 -5.304477,3.110743 l 0.439659,0.911868 c -0.04678,0.01872 -0.09814,0.03768 -0.1496,0.03768 -1.216158,0.116939 -2.502423,-0.758222 -3.802778,-0.58983 -0.795179,0.102902 -1.77245,0.103226 -2.230849,0.912437 -0.06548,0.102903 -0.351303,1.519856 -0.15017,1.402917 0.710985,-0.406945 1.417416,-0.813363 2.114368,-1.215632 0.215167,0.575337 0.266537,1.215788 0.149599,1.842577 0.860666,-0.0842 1.759045,0.09831 2.521482,0.556714 -0.795181,1.842947 -2.839203,3.077816 -4.850541,2.923457 -0.01871,-0.608078 -0.05152,-1.216227 -0.07023,-1.824307 -1.655847,-0.135646 -3.007974,1.286228 -3.835897,2.708197 -0.841955,1.436003 -1.482271,3.077943 -2.871497,3.990061 -0.841957,0.575337 -1.876015,0.795163 -2.788135,1.267595 -0.893408,0.49114 -1.721345,1.42182 -1.534243,2.418134 0.0842,0.472431 0.38803,0.912347 0.373996,1.403488 -0.05145,0.912119 -1.112749,1.337713 -1.823734,1.927081 -1.216159,1.015026 -1.520327,2.876826 -2.82068,3.770235 -0.944862,0.659532 -2.1988057,0.645315 -3.298026,0.982097 C 7.3902291,55.177991 6.2910091,56.277372 6.7353744,57.343849 6.1927806,57.530951 5.533509,57.123801 5.4820562,56.548464 3.5408803,60.370008 2.2591177,64.528638 1.7352341,68.78987 c 0.9635717,0.673564 1.9415414,-0.865726 2.1286426,-2.030432 0.201134,-1.164705 1.2157565,-2.68959 2.160618,-1.997315 -0.219844,1.674557 -0.4397568,3.330722 -0.6549229,5.005278 -0.051453,0.32275 -0.084128,0.659658 0.070231,0.944988 0.1871013,0.355492 0.5894469,0.505112 0.898164,0.757699 0.8606657,0.743727 0.7439332,2.062715 0.795386,3.194678 0.051453,1.384549 0.5094581,2.736414 1.2344756,3.91983 -0.070163,-0.238554 -0.1164176,-0.472326 -0.1678705,-0.710879 1.3190642,0.168391 2.6894121,-0.257461 3.6857261,-1.136837 0.523884,-0.47243 0.963216,-1.080427 1.622748,-1.318982 0.678242,-0.252587 1.422094,-0.07005 2.114368,0.117052 2.146987,0.589369 4.429755,1.248574 5.865757,2.93716 0.725019,0.860669 1.183362,1.945932 2.048706,2.652239 1.959886,1.655847 5.276191,0.926346 7.067686,2.769293 1.436004,1.487456 1.169349,3.886769 0.781113,5.930851 -0.982281,-0.537917 -2.296295,0.813911 -1.720957,1.777483 0.523884,-0.575337 1.131527,-1.183085 1.893964,-1.183085 0.712225,-0.01716 1.338802,0.877223 0.994091,1.40463 1.415087,-1.551567 4.562959,-0.822965 5.072654,1.265878 1.894401,0.135648 3.802919,0.266461 5.69732,0.42082 -0.364848,2.778454 5.453961,2.942515 5.337023,5.735006 -0.01872,0.65953 -0.406644,1.234555 -0.743427,1.791185 -1.501488,2.45103 -2.413419,5.29073 -2.614553,8.16741 -0.201134,2.75506 -0.07966,6.15087 -2.47923,7.50734 -1.370516,0.76245 -3.297773,0.62649 -4.209893,1.91282 -0.285329,0.38823 -0.421065,0.87943 -0.556714,1.33782 -0.589369,2.14699 -1.183547,4.29433 -1.772916,6.44131 -0.762438,-0.0654 -1.538753,-0.14991 -2.296513,-0.23409 0.898086,0.28532 1.520014,1.50159 0.982097,2.33418 -0.860665,-0.45371 -1.992412,0.0842 -2.46952,0.94956 -0.453721,0.86067 -0.388484,1.90825 -0.135897,2.8578 0.781147,2.80651 3.180993,5.07057 6.006223,5.74413 -0.491141,0.93083 -1.992386,0.52391 -2.909183,-0.0982 -6.543868,-4.42496 -11.483398,-11.16519 -13.737968,-18.73811 -0.79518,-2.67087 -1.305314,-5.51045 -2.862933,-7.80712 -1.300354,-1.94117 -3.264694,-3.36274 -4.565048,-5.3039 -1.824239,-2.78784 -2.165883,-6.403871 -4.280127,-8.953127 C 8.8311398,95.69955 7.0020191,93.91273 8.0497863,92.355112 8.4707643,91.71429 9.3691062,91.106269 9.0136138,90.428027 8.8966755,90.208183 8.6582768,90.07269 8.4711753,89.885589 7.7601906,89.12315 8.2510071,87.925571 8.6064995,86.943289 9.1958685,85.23599 9.1959691,83.411658 8.9433823,81.587423 7.1659201,79.997063 5.762464,78.023319 4.8830879,75.80617 4.3592043,74.454363 3.6626127,72.765528 2.2125778,72.746818 1.8383753,71.699051 1.4499436,70.651298 1.0757411,69.603531 0.94157322,69.97365 0.57867863,70.205912 0.17700622,70.260735 A 74.728256,74.728256 0 0 0 0,75.254025 74.728256,74.728256 0 0 0 74.72803,149.98206 74.728256,74.728256 0 0 0 149.40011,76.387438 c -0.51915,-2.05979 -0.96271,-4.152599 -1.3561,-6.25974 -0.7484,-4.055421 -1.62817,-8.705338 -5.19713,-10.749419 -0.65953,-0.3742 -1.37039,-0.640817 -1.97847,-1.047762 -0.84195,-0.556626 -1.50121,-1.384552 -2.39929,-1.875696 -0.89341,-0.472431 -2.19884,-0.490907 -2.73675,0.355726 -0.57534,0.898087 0.0843,2.133166 0.99638,2.671082 0.91212,0.561303 2.01127,0.692208 2.97484,1.099152 1.94585,0.827923 3.27932,2.872058 3.29803,4.967592 0,2.095534 -1.3332,4.139234 -3.26035,4.985866 -0.72969,0.304041 -1.50602,0.45373 -2.1983,0.827933 -0.94486,0.49114 -1.68883,1.370564 -2.01158,2.385588 -2.92346,-6.543868 -6.1553,-12.928538 -9.71023,-19.130946 -1.23486,1.543585 -0.7766,3.821512 0.10278,5.580264 0.87938,1.758752 2.16118,3.377465 2.50265,5.323318 0.14967,0.898086 0.10257,1.828687 0.35515,2.689353 0.43968,1.506166 1.69342,2.600457 2.62425,3.835325 1.09923,1.436003 1.82911,3.18095 3.23237,4.326945 1.38922,1.150673 3.8215,1.351625 4.75233,-0.187282 -0.67357,1.711976 -1.35231,3.400756 -2.02587,5.108055 -1.72133,4.345427 -3.4284,8.671955 -5.14973,13.017382 -0.45373,1.169383 -0.91208,2.315355 -1.36581,3.484734 -1.74004,4.359462 -3.48005,8.775392 -6.16495,12.629682 -0.42098,0.59404 -0.8606,1.20227 -0.97753,1.89454 -0.0654,0.48646 0.004,0.97744 -0.0142,1.46858 -0.0514,1.75875 -1.53857,3.34902 -3.27861,3.53612 1.28164,0 1.60441,2.21728 0.6081,3.16214 -1.03374,0.98228 -2.58706,1.0988 -3.90613,1.67413 -3.5175,1.50617 -5.69245,6.32405 -9.48125,5.87033 -1.35648,-4.25655 -2.70838,-8.49908 -4.06486,-12.74159 -0.5426,-1.66988 -1.08064,-3.37672 -1.06661,-5.13547 0.0515,-3.21346 1.90895,-6.0859 2.63396,-9.21517 0.73906,-3.124597 -0.46342,-7.3015 -3.63947,-7.703767 0.28533,-0.725018 0.57572,-1.468851 0.86105,-2.212579 -0.53791,0.09823 -1.08059,0.201433 -1.60447,0.304338 1.04776,-2.217154 1.36582,-5.613392 -0.949556,-6.441315 -1.015024,-0.355493 -2.146911,-0.01369 -3.194679,-0.233535 -1.052444,-0.219844 -1.93208,-1.655823 -1.085447,-2.315356 -3.732671,-0.14968 -7.521709,0.477199 -11.001793,1.847717 -1.216158,0.477108 -2.451036,1.052394 -3.75139,1.000942 -2.095534,-0.0842 -3.755991,-1.740142 -5.191993,-3.26034 -3.045074,-3.274273 -6.328263,-7.348271 -5.280495,-11.674988 0.369524,-1.520198 1.248891,-3.007867 0.926142,-4.546775 -0.187101,-0.898086 -0.795435,-1.674457 -0.963826,-2.586576 -0.238554,-1.183415 0.285516,-2.385583 0.893596,-3.433349 1.927143,-3.400566 4.780282,-6.291152 8.143429,-8.28846 -0.201134,-1.997306 1.197249,-3.89211 2.956004,-4.855681 1.758747,-0.977604 3.82174,-1.215752 5.814369,-1.454306 3.648475,-0.425656 7.30149,-0.8328 10.968675,-1.258456 0.439688,-0.05145 0.91691,-0.08395 1.286434,0.135895 0.60808,0.369525 0.65967,1.215965 0.84678,1.90824 0.52388,1.978597 2.92339,3.208486 4.85054,2.497501 0.71099,2.436995 3.55019,3.381853 6.01992,3.971222 -0.27129,-1.421969 0.14972,-2.941858 1.09459,-4.008335 0.87938,2.212473 3.66692,2.872247 6.05247,2.937733 2.38554,0.04678 5.01894,-0.121982 6.84786,1.379506 -0.2526,-1.604394 -0.52353,-3.208597 -0.79483,-4.831701 -0.0842,-0.575336 -0.20108,-1.201964 -0.65948,-1.5902 -0.60808,-0.505174 -1.48763,-0.323048 -2.28281,-0.304335 -1.77746,0.07016 -3.55016,-0.790412 -4.58389,-2.245124 3.24153,-1.333097 6.89452,-1.711863 10.36057,-1.052332 -1.8944,-2.282635 -3.41942,-4.883632 -4.47654,-7.662087 -0.25727,1.150673 -0.49084,2.282677 -0.74343,3.433351 -0.4584,-1.131964 -1.00131,-2.367028 -2.08182,-2.890912 -1.09922,-0.537916 -2.78758,0.271463 -2.56773,1.454877 0.10288,0.594049 0.62693,1.033576 0.84678,1.590202 0.42565,1.047768 -0.31825,2.264447 -1.33326,2.755588 -1.01035,0.505173 -2.19381,0.472404 -3.31173,0.439662 -0.11694,0.949538 -0.23379,1.894221 -0.36943,2.857793 -0.34146,-0.879376 -0.69671,-1.740316 -1.03349,-2.619693 -0.47244,0.32275 -0.9636,0.626804 -1.43603,0.949554 -0.94487,-0.996314 -1.87615,-1.973723 -2.80698,-2.956005 -0.54259,0.537917 -1.08016,1.099238 -1.62274,1.655865 -1.71199,-1.370517 -3.41961,-2.736465 -5.12691,-4.088275 -0.77647,-0.622111 -1.57124,-1.248848 -2.502065,-1.585631 -2.843939,-1.047767 -5.884397,0.879575 -8.012674,3.01253 -1.094542,1.113252 -2.161368,2.432445 -2.226851,3.990063 -1.655849,-0.43501 -3.329955,0.593963 -5.037254,0.61267 -2.282636,0.03275 -4.378159,-2.076854 -4.312673,-4.35949 0.04678,-2.282635 2.226455,-4.294287 4.509091,-4.177349 1.57165,0.102902 3.073094,1.04784 4.63071,0.776543 0.458398,-2.198439 -0.949916,-4.612202 -3.078193,-5.304476 4.630757,-2.184408 9.275651,-4.368687 13.906408,-6.534384 0.575341,-0.898086 -0.626941,-1.941232 -1.674708,-2.044137 -1.066478,-0.102903 -2.282639,0.102944 -3.045077,-0.659491 -0.898085,-0.893409 -0.341456,-2.534884 0.70631,-3.278611 1.029058,-0.743728 2.362552,-0.916846 3.564678,-1.337825 1.131958,-0.388234 2.142408,-0.996545 3.260338,-1.40349 4.8319,-1.726009 10.02379,0.940185 14.45342,3.508149 l 0.38827,-0.135324 c 0.0702,1.131963 -0.25278,2.282122 -0.89359,3.212951 2.70361,-1.351807 6.11828,-1.136249 8.62076,0.519598 1.0852,0.710985 2.0487,1.688334 3.3163,1.959631 0.26913,0.06511 0.53381,0.08005 0.78739,0.05596 A 74.728256,74.728256 0 0 0 74.72803,0.52599426 Z M 83.21805,5.362262 c -1.707299,0.9355063 -3.414923,1.8760344 -5.1269,2.8115418 -1.393904,0.7671151 -2.979539,1.553005 -4.509091,1.1179936 -0.03275,1.2301906 1.085626,2.3709626 2.320494,2.3616076 -3.026363,1.871012 -7.226915,-0.04198 -10.421667,1.529676 -1.337775,0.659532 -2.418431,1.903902 -3.891853,2.137778 -0.851314,0.135649 -1.735376,-0.09346 -2.58201,0.09364 -1.417293,0.308717 -2.310783,1.651247 -3.35855,2.652239 -1.206804,1.15535 -2.979582,1.945728 -4.55591,1.393779 -1.576329,-0.551949 -2.3992,-2.895519 -1.136267,-3.990061 0.622112,-0.537916 1.510753,-0.626631 2.245126,-1.005512 0.734371,-0.374202 1.314216,-1.379988 0.762267,-1.992745 C 52.725135,12.20558 52.33219,12.102604 52.112346,11.817274 51.873792,11.508557 51.897121,11.069182 51.700665,10.7324 50.95226,9.4180134 48.870948,11.186161 47.453655,10.6576 l -0.626944,0.06053 c 1.697945,-0.8138903 3.133734,-2.0953381 4.80829,-2.9560043 2.88136,-1.4781002 6.24497,-1.6094854 9.481823,-1.7123911 z m -9.36363,9.854107 c 0.377564,-5.84e-4 0.74683,0.07024 1.088873,0.240384 0.271297,0.678242 -0.509762,1.29558 -1.19736,1.538812 -1.319064,0.463075 -2.750082,0.589495 -4.129953,0.360296 l -0.416825,-0.42139 c 0.996315,-0.229199 1.861875,-0.818417 2.792704,-1.24875 0.581768,-0.268958 1.233286,-0.468302 1.862561,-0.469352 z m -33.587787,0.05767 c 0.574687,0.01175 1.15666,0.123014 1.723811,0.234105 0.32275,0.668887 0.41587,1.445308 0.261512,2.170325 -0.622111,0.02806 -1.243876,0.05131 -1.865987,0.07937 0.05613,1.033735 -0.04719,2.334343 -1.006082,2.717901 -0.860663,0.341459 -1.982823,-0.295091 -2.698486,0.284923 l 0.457931,0.280927 c -0.729695,0.360169 -1.735155,-0.04711 -2.006452,-0.81423 -0.275973,-0.767116 0.243449,-1.71668 1.038629,-1.899105 0.500496,-0.116938 1.197168,-0.06043 1.351526,-0.551574 0.04678,-0.149681 0.01886,-0.313281 0.01886,-0.46764 -0.01872,-0.92615 0.809274,-1.693778 1.702683,-1.927655 0.335028,-0.08595 0.677257,-0.114388 1.02207,-0.107346 z m 92.791237,13.292593 c 0.13179,0.164315 0.2624,0.329599 0.39283,0.495046 a 74.728256,74.728256 0 0 0 -0.39283,-0.495046 z m -116.706492,0.05367 a 74.728256,74.728256 0 0 0 -0.264367,0.328315 c 0.08722,-0.110161 0.176543,-0.21866 0.264367,-0.328315 z m 20.248371,2.176034 c 0.24886,0.02406 0.353302,0.167778 1.01693,0.147313 0.860663,-0.03742 1.384463,0.589726 2.366744,0.131328 -0.238554,0.420978 -0.626409,0.711046 -1.014644,0.996376 -0.809216,0.575336 -1.63728,1.164691 -2.600851,1.389212 -0.963572,0.219844 -2.095503,-0.01415 -2.656807,-0.823365 l -0.149599,-0.304335 c 1.248902,-0.187102 1.332699,-1.066466 2.282239,-1.389216 0.40519,-0.13331 0.606673,-0.161758 0.755988,-0.147313 z m 100.951791,4.00091 c 0.0309,0.04795 0.0628,0.0953 0.0937,0.14332 a 74.728256,74.728256 0 0 0 -0.0937,-0.14332 z m -125.696691,0.06909 a 74.728256,74.728256 0 0 0 -0.01427,0.02228 c 0.0048,-0.0074 0.0095,-0.01485 0.01427,-0.02228 z m 119.778971,2.180603 c -0.0621,-2.49e-4 -0.12418,0.0043 -0.18557,0.01485 -1.03374,0.168391 -1.35212,1.52016 -1.13227,2.535185 0.25259,1.145995 0.93116,2.212847 1.86199,2.956574 0.3555,0.28533 0.7761,0.538043 1.01465,0.944987 0.50517,0.841957 0.0513,1.926635 0.27121,2.871497 0.1871,0.795181 0.83291,1.389364 1.47373,1.894537 0.39291,0.304041 0.84668,0.626749 1.33782,0.659491 0.50517,0.03275 1.08031,-0.32265 1.08031,-0.832501 -0.0187,-0.47243 -0.4586,-0.795352 -0.79538,-1.113425 -0.33679,-0.318072 -0.59398,-0.892882 -0.27123,-1.215631 0.30405,-0.116939 0.58956,-0.219948 0.8936,-0.336885 0.14968,-1.047768 -0.78123,-1.960109 -1.72609,-2.45125 -0.94487,-0.505173 -2.03001,-0.790453 -2.75502,-1.585633 -0.0889,-0.07017 -0.15417,-0.168316 -0.15417,-0.271222 0,-0.168391 0.15428,-0.271331 0.27122,-0.38827 0.8934,-0.75776 0.35047,-2.516591 -0.81423,-2.65224 l 0.69261,-0.373994 c -0.19236,-0.397006 -0.62818,-0.654341 -1.06318,-0.656065 z m 5.12804,63.882111 c -0.48646,1.26294 1.77244,2.46512 1.15967,3.67659 -0.20113,0.41163 -0.66396,0.60803 -1.03349,0.87932 -2.59602,1.92715 -0.0983,7.01631 -2.72703,8.892 -0.91679,0.65485 -2.14687,0.62182 -3.26947,0.52359 -0.26662,-0.0234 -0.54256,-0.0462 -0.78111,-0.16787 -1.03374,-0.51452 -0.62231,-2.12399 0.15416,-2.97998 0.77648,-0.85599 1.85206,-1.71626 1.7398,-2.86694 -0.0702,-0.69226 -0.5846,-1.36621 -0.36942,-2.03042 0.25725,-0.78115 1.27256,-0.91662 2.03499,-1.22534 1.44536,-0.5847 2.29678,-2.33852 1.87113,-3.83533 z m -98.349795,37.032 0.284922,0.16386 c -0.11226,-0.0234 -0.219484,-0.0611 -0.331745,-0.0891 0.01403,-0.028 0.03279,-0.0467 0.04682,-0.0747 z"
     id="circle2"
     inkscape:connector-curvature="0" /></svg>