<svg width="52" height="52" viewBox="0 0 52 52" fill="none" xmlns="http://www.w3.org/2000/svg">
<circle cx="26" cy="26" r="26" fill="#77838F" fill-opacity="0.7"/>
<path d="M29.236 23.872C29.236 24.88 28.912 26.62 28.264 29.092C27.616 31.54 27.292 33.148 27.292 33.916C27.292 34.66 27.4 35.032 27.616 35.032C27.76 35.032 28.312 34.804 29.272 34.348L29.704 34.132L30.316 35.392C30.1 35.584 29.812 35.824 29.452 36.112C29.092 36.4 28.42 36.796 27.436 37.3C26.452 37.78 25.54 38.02 24.7 38.02C23.86 38.02 23.2 37.768 22.72 37.264C22.24 36.736 22 36.04 22 35.176C22 34.288 22.3 32.728 22.9 30.496C23.5 28.24 23.8 26.776 23.8 26.104C23.8 25.096 23.488 24.148 22.864 23.26L22.54 22.828L22.576 22.36C23.848 22 25.912 21.82 28.768 21.82C29.08 22.18 29.236 22.864 29.236 23.872ZM25.132 17.896C24.652 17.416 24.412 16.78 24.412 15.988C24.412 15.196 24.736 14.5 25.384 13.9C26.056 13.3 26.824 13 27.688 13C28.552 13 29.224 13.24 29.704 13.72C30.184 14.2 30.424 14.836 30.424 15.628C30.424 16.396 30.076 17.08 29.38 17.68C28.708 18.28 27.952 18.58 27.112 18.58C26.272 18.58 25.612 18.352 25.132 17.896Z" fill="white"/>
</svg>
