<?xml version="1.0" encoding="UTF-8" standalone="no"?>
<!-- Generator: Adobe Illustrator 18.0.0, SVG Export Plug-In . SVG Version: 6.00 Build 0)  -->

<svg
   xmlns:dc="http://purl.org/dc/elements/1.1/"
   xmlns:cc="http://creativecommons.org/ns#"
   xmlns:rdf="http://www.w3.org/1999/02/22-rdf-syntax-ns#"
   xmlns:svg="http://www.w3.org/2000/svg"
   xmlns="http://www.w3.org/2000/svg"
   xmlns:sodipodi="http://sodipodi.sourceforge.net/DTD/sodipodi-0.dtd"
   xmlns:inkscape="http://www.inkscape.org/namespaces/inkscape"
   version="1.1"
   id="Capa_1"
   x="0px"
   y="0px"
   viewBox="0 0 112.196 112.196"
   style="enable-background:new 0 0 112.196 112.196;"
   xml:space="preserve"
   sodipodi:docname="linkedin.svg"
   inkscape:version="0.92.3 (2405546, 2018-03-11)"><metadata
     id="metadata45"><rdf:RDF><cc:Work
         rdf:about=""><dc:format>image/svg+xml</dc:format><dc:type
           rdf:resource="http://purl.org/dc/dcmitype/StillImage" /></cc:Work></rdf:RDF></metadata><defs
     id="defs43" /><sodipodi:namedview
     pagecolor="#ffffff"
     bordercolor="#666666"
     borderopacity="1"
     objecttolerance="10"
     gridtolerance="10"
     guidetolerance="10"
     inkscape:pageopacity="0"
     inkscape:pageshadow="2"
     inkscape:window-width="1920"
     inkscape:window-height="1016"
     id="namedview41"
     showgrid="false"
     inkscape:zoom="2.1034618"
     inkscape:cx="-37.319432"
     inkscape:cy="50.868525"
     inkscape:window-x="0"
     inkscape:window-y="27"
     inkscape:window-maximized="1"
     inkscape:current-layer="Capa_1" /><g
     id="g8"><path
       style="fill:#ffffff"
       d="M 56.097656 -0.001953125 A 56.098 56.098 0 0 0 0 56.097656 A 56.098 56.098 0 0 0 56.097656 112.19531 A 56.098 56.098 0 0 0 112.19531 56.097656 A 56.098 56.098 0 0 0 56.097656 -0.001953125 z M 34.65625 23.96875 C 39.24425 23.96875 42.063344 26.979547 42.152344 30.935547 C 42.152344 34.807547 39.243406 37.90625 34.566406 37.90625 L 34.480469 37.90625 C 29.982469 37.90625 27.068359 34.807547 27.068359 30.935547 C 27.068359 26.979547 30.06925 23.96875 34.65625 23.96875 z M 74.179688 42.462891 C 83.001687 42.462891 89.615234 48.226328 89.615234 60.611328 L 89.615234 83.738281 L 76.207031 83.738281 L 76.207031 62.160156 C 76.207031 56.742156 74.271016 53.042969 69.416016 53.042969 C 65.711016 53.042969 63.509109 55.533313 62.537109 57.945312 C 62.184109 58.807313 62.09375 60.005844 62.09375 61.214844 L 62.09375 83.738281 L 48.683594 83.738281 C 48.683594 83.738281 48.863594 47.191203 48.683594 43.408203 L 62.095703 43.408203 L 62.095703 49.123047 C 63.877703 46.381047 67.054688 42.462891 74.179688 42.462891 z M 62.095703 49.123047 C 62.068703 49.168047 62.029859 49.212859 62.005859 49.255859 L 62.095703 49.255859 L 62.095703 49.123047 z M 27.865234 43.408203 L 41.269531 43.408203 L 41.269531 83.738281 L 27.865234 83.738281 L 27.865234 43.408203 z "
       id="circle2" /><g
       id="g6" /></g></svg>