<?xml version="1.0" encoding="UTF-8" standalone="no"?>
<!-- Created with Inkscape (http://www.inkscape.org/) -->

<svg
   xmlns:dc="http://purl.org/dc/elements/1.1/"
   xmlns:cc="http://creativecommons.org/ns#"
   xmlns:rdf="http://www.w3.org/1999/02/22-rdf-syntax-ns#"
   xmlns:svg="http://www.w3.org/2000/svg"
   xmlns="http://www.w3.org/2000/svg"
   xmlns:sodipodi="http://sodipodi.sourceforge.net/DTD/sodipodi-0.dtd"
   xmlns:inkscape="http://www.inkscape.org/namespaces/inkscape"
   version="1.1"
   id="svg2"
   xml:space="preserve"
   width="1070"
   height="212"
   viewBox="0 0 1122.52 793.70135"
   sodipodi:docname="logo.svg"
   inkscape:version="0.92.3 (2405546, 2018-03-11)"><metadata
     id="metadata8"><rdf:RDF><cc:Work
         rdf:about=""><dc:format>image/svg+xml</dc:format><dc:type
           rdf:resource="http://purl.org/dc/dcmitype/StillImage" /><dc:title /></cc:Work></rdf:RDF></metadata><defs
     id="defs6"><clipPath
       clipPathUnits="userSpaceOnUse"
       id="clipPath22"><path
         d="M 0,595.276 H 841.89 V 0 H 0 Z"
         id="path20"
         inkscape:connector-curvature="0" /></clipPath></defs><sodipodi:namedview
     pagecolor="#ffffff"
     bordercolor="#666666"
     borderopacity="1"
     objecttolerance="10"
     gridtolerance="10"
     guidetolerance="10"
     inkscape:pageopacity="0"
     inkscape:pageshadow="2"
     inkscape:window-width="1781"
     inkscape:window-height="922"
     id="namedview4"
     showgrid="false"
     inkscape:zoom="0.42050376"
     inkscape:cx="800.69521"
     inkscape:cy="152.43038"
     inkscape:window-x="0"
     inkscape:window-y="27"
     inkscape:window-maximized="0"
     inkscape:current-layer="g18" /><g
     id="g10"
     inkscape:groupmode="layer"
     inkscape:label="wattsense-logo"
     transform="matrix(1.3333333,0,0,-1.3333333,0,793.70133)"><g
       id="g12"
       transform="matrix(4.7391505,0,0,4.7391505,-156.97307,340.77091)"
       style="stroke-width:0.21100828"><path
         d="M 0,0 H 12.54 L 21.143,-22.82 30.038,0 H 40.974 L 49.649,-22.82 58.471,0 H 69.99 L 54.753,-36.308 H 44.108 l -8.894,21.143 -9.041,-21.143 H 15.529 Z"
         style="fill:#000000;fill-opacity:1;fill-rule:nonzero;stroke:none;stroke-width:0.21100828"
         id="path14"
         inkscape:connector-curvature="0" /></g><g
       id="g16"
       transform="matrix(4.7391505,0,0,4.7391505,-1596.3279,-1202.0797)"
       style="stroke-width:0.21100828"><g
         id="g18"
         clip-path="url(#clipPath22)"
         style="stroke-width:0.21100828"><g
           id="g24"
           transform="translate(407.6733,308.1069)"
           style="stroke-width:0.21100828"><path
             d="m 0,0 c -2.333,-1.167 -2.698,-1.239 -9.697,-2.187 -3.135,-0.438 -4.666,-0.802 -5.978,-1.313 -1.677,-0.656 -2.624,-2.041 -2.624,-3.645 0,-2.479 2.333,-4.01 6.269,-4.01 3.5,0 7.291,1.313 9.843,3.354 C -0.656,-6.489 0,-4.739 0,-1.75 Z m -27.777,6.926 c 0.218,4.156 1.604,6.635 4.812,9.114 3.499,2.77 8.457,4.155 14.872,4.155 6.781,0 12.394,-1.531 15.53,-4.155 2.77,-2.333 3.645,-4.958 3.645,-10.79 V -9.842 c 0,-3.938 0.292,-5.468 1.312,-6.562 v -1.094 H 1.239 l -0.947,4.302 c -4.156,-3.937 -8.895,-5.686 -15.529,-5.686 -9.114,0 -14.727,4.3 -14.727,11.227 0,4.593 2.405,8.092 6.561,9.697 2.989,1.166 2.989,1.166 14.436,2.478 7.363,0.875 9.04,1.604 9.04,3.864 0,2.552 -2.844,4.083 -7.728,4.083 -2.771,0 -4.958,-0.51 -6.562,-1.531 -1.166,-0.729 -1.677,-1.604 -2.041,-4.01 z"
             style="fill:#000000;fill-opacity:1;fill-rule:nonzero;stroke:none;stroke-width:0.21100828"
             id="path26"
             inkscape:connector-curvature="0" /></g><g
           id="g28"
           transform="translate(452.2139,290.6094)"
           style="stroke-width:0.21100828"><path
             d="m 0,0 h -6.197 c -6.416,0 -9.551,0.948 -11.592,3.5 -1.605,1.896 -1.823,3.208 -1.823,9.478 v 15.31 h -5.832 v 8.02 h 5.832 V 46.733 H -8.53 V 36.308 H 0 v -8.02 H -8.53 V 13.779 c 0,-4.228 0.801,-5.103 4.739,-5.103 H 0 Z"
             style="fill:#000000;fill-opacity:1;fill-rule:nonzero;stroke:none;stroke-width:0.21100828"
             id="path30"
             inkscape:connector-curvature="0" /></g><g
           id="g32"
           transform="translate(482.54,290.6094)"
           style="stroke-width:0.21100828"><path
             d="m 0,0 h -6.197 c -6.416,0 -9.551,0.948 -11.592,3.5 -1.605,1.896 -1.823,3.208 -1.823,9.478 v 15.31 h -5.832 v 8.02 h 5.832 V 46.733 H -8.53 V 36.308 H 0 v -8.02 H -8.53 V 13.779 c 0,-4.228 0.801,-5.103 4.739,-5.103 H 0 Z"
             style="fill:#000000;fill-opacity:1;fill-rule:nonzero;stroke:none;stroke-width:0.21100828"
             id="path34"
             inkscape:connector-curvature="0" /></g><g
           id="g36"
           transform="translate(501.9316,302.5659)"
           style="stroke-width:0.21100828"><path
             d="m 0,0 c 0.511,-3.937 3.135,-5.614 9.041,-5.614 4.957,0 7.874,1.458 7.874,3.864 0,1.167 -0.803,2.115 -2.261,2.552 -1.531,0.365 -4.884,0.802 -13.706,1.75 -4.739,0.583 -7.801,1.604 -9.769,3.427 -1.969,1.822 -2.99,4.082 -2.99,6.78 0,3.718 2.115,7.582 5.396,9.623 3.499,2.261 8.238,3.354 14.289,3.354 8.166,0 14.873,-2.333 17.789,-6.124 1.386,-1.822 1.823,-3.281 1.896,-6.124 h -12.03 c -0.292,1.75 -0.656,2.479 -1.822,3.208 -1.386,0.875 -3.791,1.385 -6.489,1.385 -4.447,0 -6.926,-1.24 -6.926,-3.427 0,-2.333 0.875,-2.624 16.404,-4.155 7.873,-0.729 12.103,-4.52 12.103,-10.645 0,-3.791 -1.969,-7.363 -5.177,-9.551 -3.719,-2.478 -8.457,-3.644 -15.092,-3.644 -7.509,0 -12.904,1.458 -16.768,4.519 -2.625,2.114 -3.791,4.521 -4.156,8.822 z"
             style="fill:#2bc47c;fill-opacity:1;fill-rule:nonzero;stroke:none;stroke-width:0.21100828"
             id="path38"
             inkscape:connector-curvature="0" /></g><g
           id="g40"
           transform="translate(571.5527,312.9189)"
           style="stroke-width:0.21100828"><path
             d="m 0,0 c -0.875,4.812 -4.666,7.655 -10.134,7.655 -5.614,0 -9.26,-2.697 -10.061,-7.655 z m 11.811,-11.155 c -4.01,-8.457 -11.155,-12.539 -22.164,-12.539 -13.779,0 -22.164,7.216 -22.164,19.173 0,12.249 8.457,19.904 22.018,19.904 13.926,0 22.675,-7.946 22.675,-20.633 v -1.53 h -32.954 c 0.218,-2.844 0.656,-4.156 1.822,-5.687 1.969,-2.406 4.885,-3.573 8.894,-3.573 4.521,0 6.854,1.24 9.333,4.885 z"
             style="fill:#2bc47c;fill-opacity:1;fill-rule:nonzero;stroke:none;stroke-width:0.21100828"
             id="path42"
             inkscape:connector-curvature="0" /></g><g
           id="g44"
           transform="translate(594.585,326.917)"
           style="stroke-width:0.21100828"><path
             d="m 0,0 h 11.082 v -6.051 c 1.896,2.405 2.916,3.426 4.447,4.447 2.479,1.677 5.979,2.552 9.697,2.552 5.759,0 10.571,-2.042 12.904,-5.541 1.458,-2.115 1.823,-3.865 1.823,-9.114 V -36.308 H 28.798 v 20.196 c 0,3.134 -0.438,4.592 -1.604,5.978 -1.385,1.531 -3.791,2.405 -6.416,2.405 -3.717,0 -7.072,-1.749 -8.53,-4.447 -0.875,-1.531 -1.166,-3.207 -1.166,-5.978 V -36.308 H 0 Z"
             style="fill:#2bc47c;fill-opacity:1;fill-rule:nonzero;stroke:none;stroke-width:0.21100828"
             id="path46"
             inkscape:connector-curvature="0" /></g><g
           id="g48"
           transform="translate(657.0605,302.5659)"
           style="stroke-width:0.21100828"><path
             d="m 0,0 c 0.511,-3.937 3.135,-5.614 9.041,-5.614 4.957,0 7.874,1.458 7.874,3.864 0,1.167 -0.803,2.115 -2.261,2.552 -1.531,0.365 -4.884,0.802 -13.706,1.75 -4.739,0.583 -7.801,1.604 -9.769,3.427 -1.969,1.822 -2.99,4.082 -2.99,6.78 0,3.718 2.115,7.582 5.396,9.623 3.499,2.261 8.238,3.354 14.289,3.354 8.166,0 14.873,-2.333 17.789,-6.124 1.386,-1.822 1.823,-3.281 1.896,-6.124 h -12.03 c -0.292,1.75 -0.656,2.479 -1.822,3.208 -1.386,0.875 -3.791,1.385 -6.489,1.385 -4.447,0 -6.926,-1.24 -6.926,-3.427 0,-2.333 0.875,-2.624 16.404,-4.155 7.873,-0.729 12.103,-4.52 12.103,-10.645 0,-3.791 -1.969,-7.363 -5.177,-9.551 -3.719,-2.478 -8.457,-3.644 -15.092,-3.644 -7.509,0 -12.904,1.458 -16.768,4.519 -2.625,2.114 -3.791,4.521 -4.156,8.822 z"
             style="fill:#2bc47c;fill-opacity:1;fill-rule:nonzero;stroke:none;stroke-width:0.21100828"
             id="path50"
             inkscape:connector-curvature="0" /></g><g
           id="g52"
           transform="translate(726.6816,312.9189)"
           style="stroke-width:0.21100828"><path
             d="m 0,0 c -0.875,4.812 -4.666,7.655 -10.134,7.655 -5.614,0 -9.26,-2.697 -10.061,-7.655 z m 11.811,-11.155 c -4.01,-8.457 -11.155,-12.539 -22.164,-12.539 -13.779,0 -22.164,7.216 -22.164,19.173 0,12.249 8.457,19.904 22.018,19.904 13.926,0 22.675,-7.946 22.675,-20.633 v -1.53 h -32.954 c 0.218,-2.844 0.656,-4.156 1.822,-5.687 1.969,-2.406 4.885,-3.573 8.894,-3.573 4.521,0 6.854,1.24 9.333,4.885 z"
             style="fill:#2bc47c;fill-opacity:1;fill-rule:nonzero;stroke:none;stroke-width:0.21100828"
             id="path54"
             inkscape:connector-curvature="0" /></g><g
           id="g56"
           transform="translate(141.6001,352.2119)"
           style="stroke-width:0.21100828"><path
             d="M 0,0 V -8.835 H -20.397 V -64.571 H 0.072 v -8.61 H -29.663 V 0 Z"
             style="fill:#2bc47c;fill-opacity:1;fill-rule:nonzero;stroke:none;stroke-width:0.21100828"
             id="path58"
             inkscape:connector-curvature="0" /></g><g
           id="g60"
           transform="translate(208.7993,279.0312)"
           style="stroke-width:0.21100828"><path
             d="M 0,0 V 8.835 H 20.397 V 64.571 H -0.072 v 8.61 H 29.663 V 0 Z"
             style="fill:#2bc47c;fill-opacity:1;fill-rule:nonzero;stroke:none;stroke-width:0.21100828"
             id="path62"
             inkscape:connector-curvature="0" /></g><g
           id="g64"
           transform="translate(156.125,372.2915)"
           style="stroke-width:0.21100828"><path
             d="m 0,0 7.667,3.938 36.916,-72.188 -34.631,9.63 27.946,-54.718 -7.67,-3.942 -36.93,72.271 L 28,-54.75 Z"
             style="fill:#2bc47c;fill-opacity:1;fill-rule:nonzero;stroke:none;stroke-width:0.21100828"
             id="path66"
             inkscape:connector-curvature="0" /></g></g></g></g></svg>