<?xml version="1.0" encoding="UTF-8" standalone="no"?>
<!-- Generator: Adobe Illustrator 16.0.0, SVG Export Plug-In . SVG Version: 6.00 Build 0)  -->

<svg
   xmlns:dc="http://purl.org/dc/elements/1.1/"
   xmlns:cc="http://creativecommons.org/ns#"
   xmlns:rdf="http://www.w3.org/1999/02/22-rdf-syntax-ns#"
   xmlns:svg="http://www.w3.org/2000/svg"
   xmlns="http://www.w3.org/2000/svg"
   xmlns:sodipodi="http://sodipodi.sourceforge.net/DTD/sodipodi-0.dtd"
   xmlns:inkscape="http://www.inkscape.org/namespaces/inkscape"
   version="1.1"
   id="Capa_1"
   x="0px"
   y="0px"
   viewBox="0 0 438.536 438.535"
   style="enable-background:new 0 0 438.536 438.535;"
   xml:space="preserve"
   sodipodi:docname="mail-green.svg"
   inkscape:version="0.92.3 (2405546, 2018-03-11)"><metadata
     id="metadata17"><rdf:RDF><cc:Work
         rdf:about=""><dc:format>image/svg+xml</dc:format><dc:type
           rdf:resource="http://purl.org/dc/dcmitype/StillImage" /><dc:title /></cc:Work></rdf:RDF></metadata><defs
     id="defs15" /><sodipodi:namedview
     pagecolor="#ffffff"
     bordercolor="#666666"
     borderopacity="1"
     objecttolerance="10"
     gridtolerance="10"
     guidetolerance="10"
     inkscape:pageopacity="0"
     inkscape:pageshadow="2"
     inkscape:window-width="1691"
     inkscape:window-height="970"
     id="namedview13"
     showgrid="false"
     inkscape:zoom="0.53815544"
     inkscape:cx="260.14839"
     inkscape:cy="157.94692"
     inkscape:window-x="0"
     inkscape:window-y="27"
     inkscape:window-maximized="0"
     inkscape:current-layer="Capa_1" /><g
     style="fill:#00c678;fill-opacity:1;stroke:none;stroke-width:0.07216512"
     id="g6"
     transform="matrix(13.85711,0,0,13.85711,4.3996577,4.4060827)"><path
       style="fill:#00c678;fill-opacity:1;stroke:none;stroke-width:0.07216512"
       id="path2"
       d="M 28.512,26.529 H 2.5 C 1.122,26.529 0,25.408 0,24.029 V 6.982 c 0,-1.379 1.122,-2.5 2.5,-2.5 h 26.012 c 1.378,0 2.5,1.121 2.5,2.5 v 17.047 c 0,1.379 -1.122,2.5 -2.5,2.5 z M 2.5,5.482 C 1.673,5.482 1,6.155 1,6.982 v 17.047 c 0,0.827 0.673,1.5 1.5,1.5 h 26.012 c 0.827,0 1.5,-0.673 1.5,-1.5 V 6.982 c 0,-0.827 -0.673,-1.5 -1.5,-1.5 z"
       inkscape:connector-curvature="0" /><path
       style="fill:#00c678;fill-opacity:1;stroke:none;stroke-width:0.07216512"
       id="path4-7"
       d="m 15.506,18.018 c -0.665,0 -1.33,-0.221 -1.836,-0.662 L 0.891,6.219 C 0.683,6.037 0.661,5.722 0.843,5.514 1.025,5.304 1.341,5.284 1.549,5.465 l 12.778,11.137 c 0.64,0.557 1.72,0.556 2.358,0 L 29.46,5.466 c 0.207,-0.183 0.522,-0.162 0.706,0.049 0.182,0.208 0.16,0.523 -0.048,0.705 L 17.342,17.355 c -0.506,0.442 -1.171,0.663 -1.836,0.663 z"
       inkscape:connector-curvature="0" /></g></svg>