<?xml version="1.0" encoding="UTF-8"?>
<svg enable-background="new 0 0 291.728 291.728" version="1.1" viewBox="0 0 291.728 291.728" xmlns="http://www.w3.org/2000/svg">
 <path d="m291.73 145.86-39.489 28.52 19.949 44.439-48.469 4.896-4.896 48.479-44.439-19.959-28.52 39.489-28.52-39.489l-44.439 19.959-4.896-48.479-48.469-4.896 19.949-44.439-39.489-28.52 39.489-28.511-19.959-44.44 48.479-4.896 4.905-48.479 44.43 19.959 28.52-39.489 28.52 39.489 44.439-19.959 4.887 48.479 48.479 4.896-19.949 44.43c0 1e-3 39.488 28.521 39.488 28.521z" fill="#2bc47c"/>
 <path d="m108.04 127.62c-2.836 0-4.942 1.76-4.942 4.914v23.834h-0.137l-20.906-26.669c-0.857-1.14-2.899-2.088-4.158-2.088-2.836 0-4.942 1.76-4.942 4.914v35.823c0 3.155 2.106 4.914 4.942 4.914 2.845 0 4.951-1.76 4.951-4.914v-23.514h0.137l20.907 26.35c0.921 1.14 2.89 2.088 4.149 2.088 2.845 0 4.951-1.76 4.951-4.914v-35.823c-1e-3 -3.146-2.107-4.915-4.952-4.915zm39.206 36.571h-12.209v-9.583h10.823c3.173 0 4.814-2.206 4.814-4.349 0-2.216-1.586-4.358-4.814-4.358h-10.823v-9.209h11.607c3.1 0 4.686-2.206 4.686-4.349 0-2.206-1.514-4.367-4.686-4.367h-16.357c-3.492 0-5.133 2.334-5.133 5.498v34.684c0 2.836 2.17 4.723 5.079 4.723h17.014c3.1 0 4.677-2.197 4.677-4.349-1e-3 -2.198-1.514-4.341-4.678-4.341zm66.759-36.571c-3.164 0-4.686 1.76-5.27 4.541l-5.607 26.797h-0.137l-8.571-27.617c-0.72-2.27-2.699-3.72-5.133-3.72s-4.422 1.45-5.142 3.72l-8.571 27.617h-0.128l-5.607-26.797c-0.593-2.781-2.106-4.541-5.279-4.541-2.89 0-4.677 2.143-4.677 4.167l0.255 2.134 8.379 34.428c0.656 2.644 2.836 4.914 6.528 4.914 3.228 0 5.735-2.024 6.528-4.604l7.65-24.335h0.137l7.65 24.335c0.793 2.58 3.301 4.604 6.528 4.604 3.693 0 5.881-2.27 6.537-4.914l8.37-34.428 0.264-2.134c-0.026-2.024-1.804-4.167-4.704-4.167z" fill="#fff"/>
</svg>
