<?xml version="1.0" encoding="UTF-8" standalone="no"?>
<!-- Generator: Adobe Illustrator 18.0.0, SVG Export Plug-In . SVG Version: 6.00 Build 0)  -->

<svg
   xmlns:dc="http://purl.org/dc/elements/1.1/"
   xmlns:cc="http://creativecommons.org/ns#"
   xmlns:rdf="http://www.w3.org/1999/02/22-rdf-syntax-ns#"
   xmlns:svg="http://www.w3.org/2000/svg"
   xmlns="http://www.w3.org/2000/svg"
   xmlns:sodipodi="http://sodipodi.sourceforge.net/DTD/sodipodi-0.dtd"
   xmlns:inkscape="http://www.inkscape.org/namespaces/inkscape"
   version="1.1"
   id="Capa_1"
   x="0px"
   y="0px"
   viewBox="0 0 112.197 112.197"
   style="enable-background:new 0 0 112.197 112.197;"
   xml:space="preserve"
   sodipodi:docname="twitter.svg"
   inkscape:version="0.92.3 (2405546, 2018-03-11)"><metadata
     id="metadata45"><rdf:RDF><cc:Work
         rdf:about=""><dc:format>image/svg+xml</dc:format><dc:type
           rdf:resource="http://purl.org/dc/dcmitype/StillImage" /><dc:title></dc:title></cc:Work></rdf:RDF></metadata><defs
     id="defs43" /><sodipodi:namedview
     pagecolor="#ffffff"
     bordercolor="#666666"
     borderopacity="1"
     objecttolerance="10"
     gridtolerance="10"
     guidetolerance="10"
     inkscape:pageopacity="0"
     inkscape:pageshadow="2"
     inkscape:window-width="1498"
     inkscape:window-height="932"
     id="namedview41"
     showgrid="false"
     inkscape:zoom="2.1034431"
     inkscape:cx="-33.041071"
     inkscape:cy="31.852539"
     inkscape:window-x="0"
     inkscape:window-y="27"
     inkscape:window-maximized="0"
     inkscape:current-layer="Capa_1" /><g
     id="g8"><path
       style="fill:#ffffff"
       d="M 56.099609 0 A 56.098 56.098 0 0 0 0.001953125 56.097656 A 56.098 56.098 0 0 0 56.099609 112.19531 A 56.098 56.098 0 0 0 112.19727 56.097656 A 56.098 56.098 0 0 0 56.099609 0 z M 70.351562 34.027344 C 74.210562 34.027344 77.694625 35.656719 80.140625 38.261719 C 83.193625 37.660719 86.06525 36.544812 88.65625 35.007812 C 87.65325 38.140813 85.528766 40.766781 82.759766 42.425781 C 85.471766 42.103781 88.056938 41.382406 90.460938 40.316406 C 88.663938 43.005406 86.391531 45.365859 83.769531 47.255859 C 83.795531 47.829859 83.808594 48.409234 83.808594 48.990234 C 83.808594 66.711234 70.32025 87.142578 45.65625 87.142578 C 38.08425 87.142578 31.034516 84.923187 25.103516 81.117188 C 26.150516 81.242188 27.220781 81.306641 28.300781 81.306641 C 34.584781 81.306641 40.365078 79.163406 44.955078 75.566406 C 39.086078 75.457406 34.135688 71.579906 32.429688 66.253906 C 33.247688 66.409906 34.085172 66.492188 34.951172 66.492188 C 36.172172 66.492188 37.360375 66.329484 38.484375 66.021484 C 32.351375 64.790484 27.726562 59.372 27.726562 52.875 C 27.726562 52.819 27.727516 52.762078 27.728516 52.705078 C 29.535516 53.712078 31.603781 54.315766 33.800781 54.384766 C 30.204781 51.980766 27.835938 47.873656 27.835938 43.222656 C 27.835938 40.765656 28.498344 38.460469 29.652344 36.480469 C 36.266344 44.595469 46.147016 49.933188 57.291016 50.492188 C 57.061016 49.510187 56.941406 48.4885 56.941406 47.4375 C 56.941406 40.0335 62.947563 34.027344 70.351562 34.027344 z "
       id="circle2" /><g
       id="g6" /></g></svg>