<?xml version="1.0" encoding="utf-8"?>
<!-- Generator: Adobe Illustrator 24.0.3, SVG Export Plug-In . SVG Version: 6.00 Build 0)  -->
<svg version="1.1"
	 id="svg2" xmlns:cc="http://creativecommons.org/ns#" xmlns:dc="http://purl.org/dc/elements/1.1/" xmlns:inkscape="http://www.inkscape.org/namespaces/inkscape" xmlns:rdf="http://www.w3.org/1999/02/22-rdf-syntax-ns#" xmlns:sodipodi="http://sodipodi.sourceforge.net/DTD/sodipodi-0.dtd" xmlns:svg="http://www.w3.org/2000/svg"
	 xmlns="http://www.w3.org/2000/svg" xmlns:xlink="http://www.w3.org/1999/xlink" x="0px" y="0px" viewBox="0 0 1070 212"
	 style="enable-background:new 0 0 1070 212;" xml:space="preserve">
<style type="text/css">
	.st0{clip-path:url(#SVGID_2_);}
	.st1{fill:#FFFFFF;}
</style>
<sodipodi:namedview  bordercolor="#666666" borderopacity="1" gridtolerance="10" guidetolerance="10" id="namedview4" inkscape:current-layer="g18" inkscape:cx="800.69521" inkscape:cy="152.43038" inkscape:pageopacity="0" inkscape:pageshadow="2" inkscape:window-height="922" inkscape:window-maximized="0" inkscape:window-width="1781" inkscape:window-x="0" inkscape:window-y="27" inkscape:zoom="0.42050376" objecttolerance="10" pagecolor="#ffffff" showgrid="false">
	</sodipodi:namedview>
<g id="g10" transform="matrix(1.3333333,0,0,-1.3333333,0,793.70133)" inkscape:groupmode="layer" inkscape:label="site-logo">
	<g id="g12" transform="matrix(4.7391505,0,0,4.7391505,-156.97307,340.77091)">
		<path id="path14" inkscape:connector-curvature="0" d="M85.2,39.4h3.3l2.3-6.1l2.4,6.1h2.9l2.3-6.1l2.4,6.1h3.1l-4.1-9.7H97
			l-2.4,5.6l-2.4-5.6h-2.8L85.2,39.4z"/>
	</g>
	<g id="g16" transform="matrix(4.7391505,0,0,4.7391505,-1596.3279,-1202.0797)">
		<g>
			<defs>
				<rect id="SVGID_1_" x="-290.2" y="-144.9" width="1420.9" height="1004.7"/>
			</defs>
			<clipPath id="SVGID_2_">
				<use xlink:href="#SVGID_1_"  style="overflow:visible;"/>
			</clipPath>
			<g id="g18" class="st0">
				<g id="g24" transform="translate(407.6733,308.1069)">
					<path id="path26" inkscape:connector-curvature="0" d="M9,52.1c-0.6-0.3-0.7-0.3-2.6-0.6c-0.8-0.1-1.2-0.2-1.6-0.4
						c-0.4-0.2-0.7-0.5-0.7-1c0-0.7,0.6-1.1,1.7-1.1c0.9,0,1.9,0.4,2.6,0.9C8.9,50.4,9,50.9,9,51.7V52.1z M1.6,54
						c0.1,1.1,0.4,1.8,1.3,2.4c0.9,0.7,2.3,1.1,4,1.1c1.8,0,3.3-0.4,4.1-1.1c0.7-0.6,1-1.3,1-2.9v-4c0-1.1,0.1-1.5,0.4-1.8v-0.3h-3
						l-0.3,1.1C8,47.6,6.7,47.1,5,47.1c-2.4,0-3.9,1.1-3.9,3c0,1.2,0.6,2.2,1.8,2.6C3.6,53,3.6,53,6.6,53.4c2,0.2,2.4,0.4,2.4,1
						c0,0.7-0.8,1.1-2.1,1.1c-0.7,0-1.3-0.1-1.8-0.4c-0.3-0.2-0.4-0.4-0.5-1.1H1.6z"/>
				</g>
				<g id="g28" transform="translate(452.2139,290.6094)">
					<path id="path30" inkscape:connector-curvature="0" d="M-23.6,65h-1.7c-1.7,0-2.6,0.3-3.1,0.9c-0.4,0.5-0.5,0.9-0.5,2.5v4.1
						h-1.6v2.1h1.6v2.8h3v-2.8h2.3v-2.1h-2.3v-3.9c0-1.1,0.2-1.4,1.3-1.4h1V65z"/>
				</g>
				<g id="g32" transform="translate(482.54,290.6094)">
					<path id="path34" inkscape:connector-curvature="0" d="M-45.8,65h-1.7c-1.7,0-2.6,0.3-3.1,0.9c-0.4,0.5-0.5,0.9-0.5,2.5v4.1
						h-1.6v2.1h1.6v2.8h3v-2.8h2.3v-2.1h-2.3v-3.9c0-1.1,0.2-1.4,1.3-1.4h1V65z"/>
				</g>
				<g id="g36" transform="translate(501.9316,302.5659)">
					<path id="path38" inkscape:connector-curvature="0" class="st1" d="M-60.1,56.2c0.1-1.1,0.8-1.5,2.4-1.5c1.3,0,2.1,0.4,2.1,1
						c0,0.3-0.2,0.6-0.6,0.7c-0.4,0.1-1.3,0.2-3.7,0.5c-1.3,0.2-2.1,0.4-2.6,0.9c-0.5,0.5-0.8,1.1-0.8,1.8c0,1,0.6,2,1.4,2.6
						c0.9,0.6,2.2,0.9,3.8,0.9c2.2,0,4-0.6,4.8-1.6c0.4-0.5,0.5-0.9,0.5-1.6h-3.2c-0.1,0.5-0.2,0.7-0.5,0.9c-0.4,0.2-1,0.4-1.7,0.4
						c-1.2,0-1.8-0.3-1.8-0.9c0-0.6,0.2-0.7,4.4-1.1c2.1-0.2,3.2-1.2,3.2-2.8c0-1-0.5-2-1.4-2.6c-1-0.7-2.3-1-4-1
						c-2,0-3.4,0.4-4.5,1.2c-0.7,0.6-1,1.2-1.1,2.4H-60.1z"/>
				</g>
				<g id="g40" transform="translate(571.5527,312.9189)">
					<path id="path42" inkscape:connector-curvature="0" class="st1" d="M-111.1,48.6c-0.2,1.3-1.2,2-2.7,2c-1.5,0-2.5-0.7-2.7-2
						H-111.1z M-107.9,45.6c-1.1-2.3-3-3.3-5.9-3.3c-3.7,0-5.9,1.9-5.9,5.1c0,3.3,2.3,5.3,5.9,5.3c3.7,0,6.1-2.1,6.1-5.5v-0.4h-8.8
						c0.1-0.8,0.2-1.1,0.5-1.5c0.5-0.6,1.3-1,2.4-1c1.2,0,1.8,0.3,2.5,1.3H-107.9z"/>
				</g>
				<g id="g44" transform="translate(594.585,326.917)">
					<path id="path46" inkscape:connector-curvature="0" class="st1" d="M-128,38.4h3v-1.6c0.5,0.6,0.8,0.9,1.2,1.2
						c0.7,0.4,1.6,0.7,2.6,0.7c1.5,0,2.8-0.5,3.4-1.5c0.4-0.6,0.5-1,0.5-2.4v-6h-3v5.4c0,0.8-0.1,1.2-0.4,1.6
						c-0.4,0.4-1,0.6-1.7,0.6c-1,0-1.9-0.5-2.3-1.2c-0.2-0.4-0.3-0.9-0.3-1.6v-4.8h-3V38.4z"/>
				</g>
				<g id="g48" transform="translate(657.0605,302.5659)">
					<path id="path50" inkscape:connector-curvature="0" class="st1" d="M-173.7,56.2c0.1-1.1,0.8-1.5,2.4-1.5c1.3,0,2.1,0.4,2.1,1
						c0,0.3-0.2,0.6-0.6,0.7c-0.4,0.1-1.3,0.2-3.7,0.5c-1.3,0.2-2.1,0.4-2.6,0.9c-0.5,0.5-0.8,1.1-0.8,1.8c0,1,0.6,2,1.4,2.6
						c0.9,0.6,2.2,0.9,3.8,0.9c2.2,0,4-0.6,4.8-1.6c0.4-0.5,0.5-0.9,0.5-1.6h-3.2c-0.1,0.5-0.2,0.7-0.5,0.9c-0.4,0.2-1,0.4-1.7,0.4
						c-1.2,0-1.8-0.3-1.8-0.9c0-0.6,0.2-0.7,4.4-1.1c2.1-0.2,3.2-1.2,3.2-2.8c0-1-0.5-2-1.4-2.6c-1-0.7-2.3-1-4-1
						c-2,0-3.4,0.4-4.5,1.2c-0.7,0.6-1,1.2-1.1,2.4H-173.7z"/>
				</g>
				<g id="g52" transform="translate(726.6816,312.9189)">
					<path id="path54" inkscape:connector-curvature="0" class="st1" d="M-224.8,48.6c-0.2,1.3-1.2,2-2.7,2c-1.5,0-2.5-0.7-2.7-2
						H-224.8z M-221.6,45.6c-1.1-2.3-3-3.3-5.9-3.3c-3.7,0-5.9,1.9-5.9,5.1c0,3.3,2.3,5.3,5.9,5.3c3.7,0,6.1-2.1,6.1-5.5v-0.4h-8.8
						c0.1-0.8,0.2-1.1,0.5-1.5c0.5-0.6,1.3-1,2.4-1c1.2,0,1.8,0.3,2.5,1.3H-221.6z"/>
				</g>
				<g id="g56" transform="translate(141.6001,352.2119)">
					<path id="path58" inkscape:connector-curvature="0" class="st1" d="M204,19.8v-2.4h-5.4V2.6h5.5V0.3h-7.9v19.5H204z"/>
				</g>
				<g id="g60" transform="translate(208.7993,279.0312)">
					<path id="path62" inkscape:connector-curvature="0" class="st1" d="M154.8,73.5v2.4h5.4v14.9h-5.5V93h7.9V73.5H154.8z"/>
				</g>
				<g id="g64" transform="translate(156.125,372.2915)">
					<path id="path66" inkscape:connector-curvature="0" class="st1" d="M193.4,5.1l2,1.1l9.9-19.3l-9.3,2.6l7.5-14.6l-2-1.1
						l-9.9,19.3l9.3-2.6L193.4,5.1z"/>
				</g>
			</g>
		</g>
	</g>
</g>
</svg>
