<?xml version="1.0" encoding="utf-8"?>
<!-- Generator: Adobe Illustrator 23.0.4, SVG Export Plug-In . SVG Version: 6.00 Build 0)  -->
<svg version="1.1" id="Layer_1" xmlns="http://www.w3.org/2000/svg" xmlns:xlink="http://www.w3.org/1999/xlink" x="0px" y="0px"
	 viewBox="0 0 512 512" style="enable-background:new 0 0 512 512;" xml:space="preserve">
<style type="text/css">
	.st0{fill:#FFFFFF;}
</style>
<g>
	<g>
		<path class="st0" d="M436.9,75.1c-47.5-47.5-110.4-74-177.5-74.9C258.3,0.1,257.1,0,256,0s-2.3,0.1-3.5,0.2
			c-67,0.9-129.9,27.4-177.5,74.9C26.8,123.4,0.1,187.7,0.1,256s26.6,132.6,74.9,180.9c47.5,47.5,110.4,74,177.5,74.9
			c1.2,0.1,2.3,0.2,3.5,0.2c1.1,0,2.3-0.1,3.5-0.2c67-0.9,129.9-27.4,177.5-74.9c48.3-48.3,74.9-112.6,74.9-180.9
			C511.9,187.7,485.2,123.4,436.9,75.1z M96.6,96.6c27.2-27.2,60.1-46.6,96-57c-8.1,9.3-16,20-23.3,31.9
			c-9.3,15.1-17.4,31.6-24.2,48.9H75.9C82.2,112.1,89.1,104.1,96.6,96.6z M56.5,150.8h78.4c-8.2,28.5-13,58.9-14.2,90H31.1
			C33.2,209,41.9,178.5,56.5,150.8z M56.5,361.2c-14.6-27.7-23.3-58.2-25.4-90h89.6c1.2,31.1,6,61.5,14.2,90H56.5z M96.6,415.4
			c-7.5-7.5-14.4-15.5-20.7-23.8h69.2c6.8,17.4,14.9,33.8,24.2,48.9c7.3,11.9,15.2,22.6,23.3,31.9C156.7,462,123.8,442.6,96.6,415.4
			z M240.8,475.3c-12.7-8.3-29.7-24.9-45.6-50.8c-6.4-10.4-12.1-21.4-17.2-33h62.8L240.8,475.3L240.8,475.3z M240.8,361.2h-74.2
			c-8.9-28.2-14.2-58.7-15.5-90h89.7L240.8,361.2L240.8,361.2z M240.8,240.8h-89.7c1.3-31.3,6.6-61.8,15.5-90h74.2L240.8,240.8
			L240.8,240.8z M240.8,120.4H178c5.1-11.6,10.8-22.6,17.2-33c15.9-25.8,32.9-42.5,45.6-50.8L240.8,120.4L240.8,120.4z M455.5,150.8
			c14.6,27.7,23.3,58.2,25.4,90h-89.6c-1.2-31.1-6-61.5-14.2-90H455.5z M415.4,96.6c7.5,7.5,14.4,15.5,20.7,23.8h-69.2
			c-6.8-17.4-14.9-33.8-24.2-48.9c-7.3-11.9-15.2-22.6-23.3-31.9C355.3,50,388.2,69.4,415.4,96.6z M271.2,36.7
			c12.7,8.3,29.7,24.9,45.6,50.8c6.4,10.4,12.1,21.4,17.2,33h-62.8L271.2,36.7L271.2,36.7z M271.2,150.8h74.2
			c8.9,28.2,14.2,58.7,15.5,90h-89.7V150.8z M360.9,271.2c-1.3,31.3-6.6,61.8-15.5,90h-74.2v-90H360.9z M271.2,475.3v-83.7H334
			c-5.1,11.6-10.8,22.6-17.2,33C300.9,450.4,283.9,467,271.2,475.3z M415.4,415.4c-27.2,27.2-60.1,46.6-96,57
			c8.1-9.3,16-20,23.3-31.9c9.3-15.1,17.4-31.6,24.2-48.9h69.2C429.8,399.9,422.9,407.9,415.4,415.4z M455.5,361.2h-78.4
			c8.1-28.5,13-58.9,14.2-90h89.6C478.8,303,470.1,333.5,455.5,361.2z"/>
	</g>
</g>
</svg>
