<svg width="39" height="39" viewBox="0 0 39 39" fill="none" xmlns="http://www.w3.org/2000/svg">
<path fill-rule="evenodd" clip-rule="evenodd" d="M19.5 39C30.2696 39 39 30.2696 39 19.5C39 8.73045 30.2696 0 19.5 0C8.73045 0 0 8.73045 0 19.5C0 30.2696 8.73045 39 19.5 39ZM30.5261 13.5036C30.261 12.5246 29.4841 11.753 28.499 11.4894C26.6992 11 19.4998 11 19.4998 11C19.4998 11 12.3005 11 10.5007 11.4707C9.53453 11.7342 8.73875 12.5248 8.47361 13.5036C8 15.2917 8 19 8 19C8 19 8 22.727 8.47361 24.4964C8.73893 25.4752 9.51558 26.247 10.5009 26.5106C12.3195 27 19.5 27 19.5 27C19.5 27 26.6992 27 28.499 26.5293C29.4843 26.2658 30.261 25.494 30.5263 24.5152C30.9999 22.727 30.9999 19.0188 30.9999 19.0188C30.9999 19.0188 31.0189 15.2917 30.5261 13.5036ZM16.7202 23.1399L23.0401 19.4999L16.7202 15.8599V23.1399Z" fill="white"/>
</svg>
