<svg width="69" height="69" viewBox="0 0 69 69" fill="none" xmlns="http://www.w3.org/2000/svg">
<path d="M64.5705 27.4667L59.8678 26.6689C59.378 25.0874 58.7481 23.5618 57.9784 22.1062L60.7496 18.2293C61.9253 16.5777 61.7433 14.3243 60.3017 12.8967L56.1309 8.72588C55.3471 7.94209 54.3114 7.50821 53.2057 7.50821C52.3379 7.50821 51.5121 7.77414 50.8123 8.278L46.9214 11.0492C45.4098 10.2515 43.8282 9.59364 42.1907 9.10377L41.4069 4.45705C41.071 2.4556 39.3495 1 37.32 1H31.4276C29.3982 1 27.6767 2.4556 27.3408 4.45705L26.529 9.21574C24.9614 9.70561 23.4358 10.3494 21.9802 11.1332L18.1313 8.36198C17.4315 7.85812 16.5917 7.59219 15.724 7.59219C14.6183 7.59219 13.5685 8.02607 12.7988 8.80986L8.61391 12.9807C7.1863 14.4083 6.99036 16.6617 8.16603 18.3132L10.9653 22.2462C10.1955 23.7158 9.57964 25.2413 9.10378 26.8229L4.45705 27.6067C2.4556 27.9426 1 29.6641 1 31.6936V37.5859C1 39.6154 2.4556 41.3369 4.45705 41.6728L9.21574 42.4846C9.70561 44.0522 10.3494 45.5778 11.1332 47.0334L8.37597 50.8683C7.2003 52.5198 7.38225 54.7732 8.82385 56.2008L12.9947 60.3717C13.7785 61.1555 14.8142 61.5894 15.9199 61.5894C16.7877 61.5894 17.6134 61.3234 18.3132 60.8196L22.2462 58.0203C23.6598 58.7621 25.1434 59.364 26.669 59.8398L27.4527 64.5425C27.7886 66.544 29.5102 67.9996 31.5396 67.9996H37.446C39.4754 67.9996 41.197 66.544 41.5329 64.5425L42.3306 59.8398C43.9122 59.35 45.4378 58.7201 46.8934 57.9504L50.7703 60.7216C51.4701 61.2255 52.3099 61.4914 53.1777 61.4914C54.2834 61.4914 55.3191 61.0575 56.1029 60.2737L60.2737 56.1029C61.7013 54.6753 61.8973 52.4219 60.7216 50.7703L57.9504 46.8794C58.7202 45.4098 59.364 43.8842 59.8398 42.3166L64.5426 41.5329C66.544 41.197 67.9996 39.4754 67.9996 37.446V31.5536C68.0276 29.5242 66.572 27.8026 64.5705 27.4667ZM64.2486 37.446C64.2486 37.6279 64.1227 37.7819 63.9407 37.8099L58.0623 38.7896C57.3205 38.9156 56.7327 39.4614 56.5507 40.1752C56.0189 42.2327 55.2071 44.2061 54.1154 46.0396C53.7375 46.6834 53.7655 47.4812 54.1994 48.0971L57.6564 52.9677C57.7544 53.1077 57.7404 53.3176 57.6145 53.4436L53.4436 57.6144C53.3456 57.7124 53.2477 57.7264 53.1777 57.7264C53.0937 57.7264 53.0237 57.6984 52.9677 57.6564L48.1111 54.1994C47.5092 53.7655 46.6974 53.7375 46.0536 54.1154C44.2201 55.2071 42.2467 56.0189 40.1892 56.5507C39.4614 56.7327 38.9156 57.3345 38.8036 58.0623L37.8099 63.9407C37.7819 64.1227 37.6279 64.2486 37.446 64.2486H31.5536C31.3717 64.2486 31.2177 64.1227 31.1897 63.9407L30.21 58.0623C30.084 57.3205 29.5382 56.7327 28.8244 56.5507C26.8229 56.0329 24.8914 55.2351 23.0859 54.1994C22.792 54.0314 22.4561 53.9475 22.1342 53.9475C21.7563 53.9475 21.3644 54.0594 21.0425 54.2974L16.1438 57.7824C16.0739 57.8244 16.0039 57.8524 15.9339 57.8524C15.8779 57.8524 15.7659 57.8384 15.668 57.7404L11.4971 53.5696C11.3712 53.4436 11.3572 53.2476 11.4551 53.0937L14.8982 48.265C15.3321 47.6492 15.3601 46.8374 14.9822 46.1936C13.8905 44.3741 13.0507 42.4006 12.5188 40.3432C12.3229 39.6294 11.7351 39.0835 11.0073 38.9576L5.08688 37.9499C4.90493 37.9219 4.77896 37.7679 4.77896 37.5859V31.6936C4.77896 31.5116 4.90493 31.3577 5.08688 31.3297L10.9233 30.3499C11.6651 30.224 12.2669 29.6781 12.4489 28.9503C12.9667 26.8929 13.7645 24.9054 14.8422 23.0719C15.2201 22.4281 15.1781 21.6303 14.7442 21.0285L11.2592 16.1298C11.1612 15.9899 11.1752 15.7799 11.3012 15.654L15.472 11.4831C15.57 11.3851 15.668 11.3712 15.738 11.3712C15.8219 11.3712 15.8919 11.3991 15.9479 11.4411L20.7766 14.8842C21.3924 15.3181 22.2042 15.3461 22.848 14.9682C24.6675 13.8765 26.641 13.0367 28.6984 12.5048C29.4122 12.3089 29.958 11.7211 30.084 10.9933L31.0917 5.07288C31.1197 4.89093 31.2737 4.76497 31.4556 4.76497H37.348C37.53 4.76497 37.6839 4.89093 37.7119 5.07288L38.6916 10.9093C38.8176 11.6511 39.3635 12.2529 40.0913 12.4349C42.2047 12.9667 44.2201 13.7925 46.0956 14.8982C46.7394 15.2761 47.5372 15.2481 48.1531 14.8142L52.9817 11.3432C53.0517 11.3012 53.1217 11.2732 53.1917 11.2732C53.2477 11.2732 53.3596 11.2872 53.4576 11.3851L57.6284 15.556C57.7544 15.682 57.7684 15.8779 57.6704 16.0319L54.2134 20.8885C53.7795 21.4904 53.7515 22.3021 54.1294 22.946C55.2211 24.7795 56.0329 26.7529 56.5647 28.8104C56.7467 29.5382 57.3485 30.084 58.0763 30.196L63.9547 31.1897C64.1367 31.2177 64.2626 31.3717 64.2626 31.5536V37.446H64.2486Z" fill="url(#paint0_linear)" stroke="url(#paint1_linear)"/>
<path d="M34.5066 20.0334C26.5288 20.0334 20.0486 26.5136 20.0486 34.4914C20.0486 42.4692 26.5288 48.9495 34.5066 48.9495C42.4844 48.9495 48.9646 42.4692 48.9646 34.4914C48.9646 26.5136 42.4844 20.0334 34.5066 20.0334ZM34.5066 45.1705C28.6142 45.1705 23.8275 40.3838 23.8275 34.4914C23.8275 28.599 28.6142 23.8123 34.5066 23.8123C40.399 23.8123 45.1857 28.599 45.1857 34.4914C45.1857 40.3838 40.399 45.1705 34.5066 45.1705Z" fill="url(#paint2_linear)" stroke="url(#paint3_linear)"/>
<defs>
<linearGradient id="paint0_linear" x1="68" y1="34.4998" x2="1" y2="34.4998" gradientUnits="userSpaceOnUse">
<stop stop-color="#06EA84"/>
<stop offset="1" stop-color="#2BC47B"/>
</linearGradient>
<linearGradient id="paint1_linear" x1="68" y1="34.4998" x2="1" y2="34.4998" gradientUnits="userSpaceOnUse">
<stop stop-color="#06EA84"/>
<stop offset="1" stop-color="#2BC47B"/>
</linearGradient>
<linearGradient id="paint2_linear" x1="48.9646" y1="34.4914" x2="20.0486" y2="34.4914" gradientUnits="userSpaceOnUse">
<stop stop-color="#06EA84"/>
<stop offset="1" stop-color="#2BC47B"/>
</linearGradient>
<linearGradient id="paint3_linear" x1="48.9646" y1="34.4914" x2="20.0486" y2="34.4914" gradientUnits="userSpaceOnUse">
<stop stop-color="#06EA84"/>
<stop offset="1" stop-color="#2BC47B"/>
</linearGradient>
</defs>
</svg>
