<svg width="73" height="67" viewBox="0 0 73 67" fill="none" xmlns="http://www.w3.org/2000/svg">
<path d="M70.4753 52.944C73.8416 49.5777 73.8416 44.1113 70.4753 40.7599C67.1091 37.3937 61.6426 37.3937 58.2913 40.7599L53.7185 45.3327C52.4525 46.5987 50.3821 46.5987 49.116 45.3327L40.9536 37.1554C40.4472 36.6489 39.762 36.3659 39.0619 36.3659C38.347 36.3659 37.6618 36.6489 37.1703 37.1554C34.936 39.3896 31.9719 40.6259 28.7993 40.6259C25.6267 40.6259 22.6626 39.3896 20.4284 37.1554L13.0405 29.7675L29.7675 13.0405L37.1554 20.4284C39.2109 22.4839 40.4323 25.2096 40.5961 28.0992C40.6855 29.5292 41.8622 30.6314 43.2772 30.6314C43.3219 30.6314 43.3815 30.6314 43.441 30.6314C44.9156 30.542 46.0476 29.2759 45.9583 27.8013C45.72 23.5861 43.9326 19.624 40.9536 16.6451L33.5657 9.25719L34.3849 8.43797C35.4276 7.39532 35.4276 5.6973 34.3849 4.63976C33.3423 3.59712 31.6443 3.59712 30.5867 4.63976L25.3288 9.89767L16.2131 0.781983C15.1705 -0.260661 13.4725 -0.260661 12.4149 0.781983C11.3723 1.82463 11.3723 3.52265 12.4149 4.58018L21.5306 13.6959L13.6959 21.5306L4.58019 12.4149C3.53754 11.3723 1.83952 11.3723 0.781983 12.4149C-0.260661 13.4576 -0.260661 15.1556 0.781983 16.2131L9.91257 25.3288L4.65466 30.5867C3.61202 31.6293 3.61202 33.3274 4.65466 34.3849C5.17598 34.9062 5.86115 35.1743 6.54632 35.1743C7.23148 35.1743 7.91665 34.9062 8.43797 34.3849L9.25719 33.5657L16.6451 40.9536C19.8922 44.2006 24.2117 45.988 28.7993 45.988C32.4784 45.988 35.9936 44.8411 38.913 42.6963L45.3327 49.116C47.0158 50.7991 49.2203 51.6332 51.4247 51.6332C53.6292 51.6332 55.8336 50.7991 57.5167 49.116L62.0895 44.5432C63.3555 43.2772 65.4259 43.2772 66.692 44.5432C67.9581 45.8093 67.9581 47.8797 66.692 49.1458L62.1193 53.7185C60.4957 55.342 59.602 57.5018 59.602 59.8105C59.602 62.1192 60.4957 64.279 62.1193 65.9025C62.6406 66.4239 63.3257 66.692 64.0109 66.692C64.6961 66.692 65.3812 66.4239 65.9026 65.9025C66.9452 64.8599 66.9452 63.1619 65.9026 62.1043C65.2919 61.4936 64.9493 60.6744 64.9493 59.8105C64.9493 58.9466 65.2919 58.1274 65.9026 57.5167L70.4753 52.944Z" fill="url(#paint0_linear)"/>
<defs>
<linearGradient id="paint0_linear" x1="73" y1="33.346" x2="1.22411e-06" y2="33.346" gradientUnits="userSpaceOnUse">
<stop stop-color="#06EA84"/>
<stop offset="1" stop-color="#2BC47B"/>
</linearGradient>
</defs>
</svg>
