<?xml version="1.0" encoding="utf-8"?>
<!-- Generator: Adobe Illustrator 24.3.0, SVG Export Plug-In . SVG Version: 6.00 Build 0)  -->
<svg version="1.1" id="Calque_1" xmlns="http://www.w3.org/2000/svg" xmlns:xlink="http://www.w3.org/1999/xlink" x="0px" y="0px"
	 viewBox="0 0 67 67" style="enable-background:new 0 0 67 67;" xml:space="preserve">
<style type="text/css">
	.st0{clip-path:url(#SVGID_2_);}
	.st1{fill:url(#SVGID_3_);}
	.st2{fill:url(#SVGID_4_);}
</style>
<g>
	<defs>
		<rect id="SVGID_1_" width="67" height="67"/>
	</defs>
	<clipPath id="SVGID_2_">
		<use xlink:href="#SVGID_1_"  style="overflow:visible;"/>
	</clipPath>
	<g class="st0">
		
			<linearGradient id="SVGID_3_" gradientUnits="userSpaceOnUse" x1="67" y1="34.4992" x2="1.818989e-12" y2="34.4992" gradientTransform="matrix(1 0 0 -1 0 68)">
			<stop  offset="0" style="stop-color:#06EA84"/>
			<stop  offset="1" style="stop-color:#2BC47B"/>
		</linearGradient>
		<path class="st1" d="M57.2,9.8c-1-1-2.6-1-3.5,0L46,17.4c-1,1-1,2.6,0,3.5c1,1,2.6,1,3.5,0l5.8-5.8c9.4,11.2,8.8,27.9-1.7,38.5
			c-11.1,11.1-29.2,11.1-40.3,0c-11.1-11.1-11.1-29.2,0-40.3c6.8-6.8,16.6-9.7,26-7.7C40.7,5.9,42,5,42.3,3.7c0.3-1.3-0.6-2.7-1.9-3
			C29.3-1.6,17.8,1.8,9.8,9.8C3.5,16.1,0,24.6,0,33.5c0,8.9,3.5,17.4,9.8,23.7c6.3,6.3,14.7,9.8,23.7,9.8s17.4-3.5,23.7-9.8
			S67,42.5,67,33.5C67,24.5,63.5,16.1,57.2,9.8z"/>
		
			<linearGradient id="SVGID_4_" gradientUnits="userSpaceOnUse" x1="35.9714" y1="39.5539" x2="20.2903" y2="39.5539" gradientTransform="matrix(1 0 0 -1 0 68)">
			<stop  offset="0" style="stop-color:#06EA84"/>
			<stop  offset="1" style="stop-color:#2BC47B"/>
		</linearGradient>
		<path class="st2" d="M33.5,10.2c-1.4,0-2.5,1.1-2.5,2.5v19.8l-10,10c-1,1-1,2.6,0,3.5c0.5,0.5,1.1,0.7,1.8,0.7
			c0.6,0,1.3-0.2,1.8-0.7l10.7-10.7c0.1-0.1,0.1-0.1,0.2-0.2c0,0,0-0.1,0.1-0.1c0,0,0.1-0.1,0.1-0.1c0,0,0-0.1,0.1-0.1
			c0,0,0-0.1,0.1-0.1c0,0,0-0.1,0.1-0.1c0,0,0-0.1,0.1-0.1c0,0,0-0.1,0-0.1c0,0,0-0.1,0-0.1c0,0,0-0.1,0-0.1c0,0,0-0.1,0-0.1
			c0,0,0-0.1,0-0.1c0,0,0-0.1,0-0.1c0-0.1,0-0.2,0-0.2V12.7C36,11.3,34.9,10.2,33.5,10.2z"/>
	</g>
</g>
</svg>
