<svg width="66" height="66" viewBox="0 0 66 66" fill="none" xmlns="http://www.w3.org/2000/svg">
<path d="M63.8693 63.8693V59.6209H61.7386V53.2417H59.6079V27.7382H61.7386V21.3591H63.8693V14.3043L33 0L2.13071 14.3043V21.3591H4.26142V27.7382H6.39213V53.2417H4.26142V59.6209H2.13071V63.8693H0V66H66V63.8693H63.8693ZM59.6079 25.6205H48.9673V21.372H59.6079V25.6205V25.6205ZM38.3268 53.2417V27.7382H40.4575V21.3591H46.8496V27.7382H48.9803V53.2417H46.8496V59.6209H40.4575V53.2417H38.3268ZM17.0327 53.2417V27.7382H19.1634V21.3591H25.5555V27.7382H27.6732V53.2417H25.5425V59.6209H19.1504V53.2417H17.0327ZM6.39213 25.6205V21.372H17.0327V25.6205H6.39213ZM14.902 27.7382V53.2417H8.50984V27.7382H14.902ZM27.6732 55.3724H38.3268V59.6209H27.6732V55.3724ZM29.8039 53.2417V27.7382H36.1961V53.2417H29.8039ZM27.6732 25.6205V21.372H38.3268V25.6205H27.6732ZM48.9673 55.3724H59.6079V59.6209H48.9673V55.3724ZM51.098 53.2417V27.7382H57.4902V53.2417H51.098ZM4.26142 19.2413V15.6685L33 2.33858L61.7386 15.6555V19.2283H4.26142V19.2413ZM6.39213 55.3724H17.0327V59.6209H6.39213V55.3724ZM61.7386 63.8693H4.26142V61.7386H61.7516V63.8693H61.7386Z" fill="url(#paint0_linear)"/>
<path d="M33.0001 6.48303C30.0639 6.48303 27.6733 8.86059 27.6733 11.7968C27.6733 14.733 30.0639 17.1106 33.0001 17.1106C35.9363 17.1106 38.3269 14.733 38.3269 11.7968C38.3269 8.86059 35.9363 6.48303 33.0001 6.48303ZM33.0001 14.9929C31.2332 14.9929 29.804 13.5637 29.804 11.8098C29.804 10.0559 31.2332 8.62673 33.0001 8.62673C34.767 8.62673 36.1962 10.0559 36.1962 11.8098C36.1962 13.5637 34.767 14.9929 33.0001 14.9929Z" fill="url(#paint1_linear)"/>
<defs>
<linearGradient id="paint0_linear" x1="66" y1="33" x2="1.10673e-06" y2="33" gradientUnits="userSpaceOnUse">
<stop stop-color="#06EA84"/>
<stop offset="1" stop-color="#2BC47B"/>
</linearGradient>
<linearGradient id="paint1_linear" x1="38.3269" y1="11.7968" x2="27.6733" y2="11.7968" gradientUnits="userSpaceOnUse">
<stop stop-color="#06EA84"/>
<stop offset="1" stop-color="#2BC47B"/>
</linearGradient>
</defs>
</svg>
