<svg width="67" height="66" viewBox="0 0 67 66" fill="none" xmlns="http://www.w3.org/2000/svg">
<path d="M11.4278 24.9846H18.9016C19.6199 24.9846 20.2014 24.4032 20.2014 23.6848V16.536C20.2014 15.8176 19.6199 15.2362 18.9016 15.2362H11.4278C10.7094 15.2362 10.128 15.8176 10.128 16.536V23.6848C10.128 24.4032 10.7094 24.9846 11.4278 24.9846ZM12.7276 17.8358H17.6018V22.385H12.7276V17.8358Z" fill="url(#paint0_linear)"/>
<path d="M25.6172 24.9846H33.091C33.8093 24.9846 34.3908 24.4032 34.3908 23.6848V16.536C34.3908 15.8176 33.8093 15.2362 33.091 15.2362H25.6172C24.8988 15.2362 24.3174 15.8176 24.3174 16.536V23.6848C24.3174 24.4032 24.8988 24.9846 25.6172 24.9846ZM26.917 17.8358H31.7912V22.385H26.917V17.8358Z" fill="url(#paint1_linear)"/>
<path d="M18.9016 37.0077C19.6199 37.0077 20.2014 36.4263 20.2014 35.7079V28.559C20.2014 27.8407 19.6199 27.2593 18.9016 27.2593H11.4278C10.7094 27.2593 10.128 27.8407 10.128 28.559V35.7079C10.128 36.4263 10.7094 37.0077 11.4278 37.0077H18.9016ZM12.7276 29.8588H17.6018V34.4081H12.7276V29.8588Z" fill="url(#paint2_linear)"/>
<path d="M25.6172 37.0077H33.091C33.8093 37.0077 34.3908 36.4263 34.3908 35.7079V28.559C34.3908 27.8407 33.8093 27.2593 33.091 27.2593H25.6172C24.8988 27.2593 24.3174 27.8407 24.3174 28.559V35.7079C24.3174 36.4263 24.8988 37.0077 25.6172 37.0077ZM26.917 29.8588H31.7912V34.4081H26.917V29.8588Z" fill="url(#paint3_linear)"/>
<path d="M1.30066 66H65.5321C66.2504 66 66.8319 65.4186 66.8319 64.7002C66.8319 63.9819 66.2504 63.4004 65.5321 63.4004H61.3615V19.0636C61.3615 18.3453 60.78 17.7638 60.0617 17.7638H38.687V10.8316C38.687 10.1133 38.1056 9.53181 37.3872 9.53181H33.4879V1.29979C33.4879 0.581441 32.9064 0 32.1881 0H12.4026C11.6843 0 11.1028 0.581441 11.1028 1.29979V9.53181H6.77019C6.05183 9.53181 5.47039 10.1133 5.47039 10.8316V63.4013H1.29979C0.581441 63.4013 0 63.9827 0 64.7011C0 65.4194 0.582307 66 1.30066 66ZM16.9519 63.4004V49.1018H20.7793V63.4013L16.9519 63.4004ZM23.3789 63.4004V49.1018H27.2064V63.4013L23.3789 63.4004ZM58.7619 20.3634V33.2712H50.133C49.4146 33.2712 48.8332 33.8527 48.8332 34.571C48.8332 35.2894 49.4146 35.8708 50.133 35.8708H58.7619V40.583H50.133C49.4146 40.583 48.8332 41.1644 48.8332 41.8828C48.8332 42.6011 49.4146 43.1826 50.133 43.1826H58.7619V47.8948H50.133C49.4146 47.8948 48.8332 48.4762 48.8332 49.1946C48.8332 49.9129 49.4146 50.4943 50.133 50.4943H58.7619V63.4021H38.687V20.3634H58.7619ZM13.7024 2.59959H30.8883V9.53181H13.7024V2.59959ZM8.06998 12.1314H36.0874V63.4013H29.8051V47.802C29.8051 47.0837 29.2237 46.5022 28.5053 46.5022H15.6521C14.9337 46.5022 14.3523 47.0837 14.3523 47.802V63.4013H8.06998V12.1314Z" fill="url(#paint4_linear)"/>
<defs>
<linearGradient id="paint0_linear" x1="66.8319" y1="33" x2="1.12068e-06" y2="33" gradientUnits="userSpaceOnUse">
<stop stop-color="#06EA84"/>
<stop offset="1" stop-color="#2BC47B"/>
</linearGradient>
<linearGradient id="paint1_linear" x1="66.8319" y1="33" x2="1.12068e-06" y2="33" gradientUnits="userSpaceOnUse">
<stop stop-color="#06EA84"/>
<stop offset="1" stop-color="#2BC47B"/>
</linearGradient>
<linearGradient id="paint2_linear" x1="66.8319" y1="33" x2="1.12068e-06" y2="33" gradientUnits="userSpaceOnUse">
<stop stop-color="#06EA84"/>
<stop offset="1" stop-color="#2BC47B"/>
</linearGradient>
<linearGradient id="paint3_linear" x1="66.8319" y1="33" x2="1.12068e-06" y2="33" gradientUnits="userSpaceOnUse">
<stop stop-color="#06EA84"/>
<stop offset="1" stop-color="#2BC47B"/>
</linearGradient>
<linearGradient id="paint4_linear" x1="66.8319" y1="33" x2="1.12068e-06" y2="33" gradientUnits="userSpaceOnUse">
<stop stop-color="#06EA84"/>
<stop offset="1" stop-color="#2BC47B"/>
</linearGradient>
</defs>
</svg>
