<svg width="68" height="66" viewBox="0 0 68 66" fill="none" xmlns="http://www.w3.org/2000/svg">
<path d="M66.0133 58.1515H65.9928V21.6555C65.9928 21.0763 65.5242 20.6077 64.945 20.6077H60.6166V12.7489C60.6166 12.3448 60.3843 11.9774 60.02 11.8034C59.6547 11.6295 59.2229 11.6806 58.9092 11.9344L54.1536 15.7886V7.56607C54.0999 1.98208 42.981 0 33.4753 0C26.3477 0 17.5578 1.18598 14.2624 4.51263C13.3527 5.43051 12.8968 6.46503 12.9075 7.57631V15.79L8.14985 11.9344C7.83621 11.6817 7.40337 11.6295 7.0396 11.8034C6.6748 11.9774 6.44252 12.3448 6.44252 12.7489V20.6077H2.1151C1.53643 20.6077 1.06727 21.0763 1.06727 21.6555V58.1515H1.04783C0.469166 58.1515 0 58.6202 0 59.1993V64.9522C0 65.5313 0.469166 66 1.04783 66H66.0133C66.5925 66 67.0611 65.5313 67.0611 64.9522V59.1993C67.0611 58.6202 66.5925 58.1515 66.0133 58.1515ZM63.8972 22.7033V58.1515H60.6166V22.7033H63.8972ZM58.5209 14.9469V21.6555V58.1515H54.1536V18.4862L58.5209 14.9469ZM42.6929 58.1515V50.5015C42.6929 49.9224 42.2238 49.4537 41.6451 49.4537H25.416C24.8374 49.4537 24.3682 49.9224 24.3682 50.5015V58.1515H21.0149V48.2024C28.2163 46.6816 39.1756 46.7353 46.0923 48.211V58.1515H42.6929V58.1515ZM40.5973 58.1515H26.4639V51.5494H40.5973V58.1515ZM15.0032 58.1515V51.2117C15.0032 50.3445 16.4148 49.4511 18.9193 48.7181V58.1515H15.0032V58.1515ZM37.9941 20.9717V27.6236C34.9621 27.4568 32.2418 27.4525 29.1571 27.6189V20.9652C32.1636 20.8007 35.0463 20.8073 37.9941 20.9717ZM46.0923 21.9714V28.5641C44.1169 28.1734 42.0193 27.925 40.0897 27.7669V21.1192C42.3023 21.3093 44.3327 21.5963 46.0923 21.9714ZM15.0032 33.7178C15.0032 32.8511 16.4148 31.9578 18.9193 31.2247V37.7874C17.4048 38.1958 16.0443 38.7102 15.0032 39.3616V33.7178ZM52.0564 39.3606C51.0261 38.7163 49.6832 38.206 48.1879 37.7998V31.2405C50.9965 32.0803 52.0496 33.0364 52.0564 33.7108V39.3606ZM46.0923 37.311C44.1169 36.9203 42.0193 36.6719 40.0897 36.5139V29.8652C42.3023 30.0552 44.3327 30.3423 46.0923 30.7173V37.311ZM37.9941 36.3705C34.9621 36.2037 32.2418 36.1995 29.1571 36.3658V29.7111C32.1636 29.5466 35.0463 29.5532 37.9941 29.7176V36.3705ZM27.0614 36.5062C25.1227 36.6627 23.0074 36.9099 21.0149 37.3014V30.7088C22.726 30.3474 24.7596 30.0539 27.0614 29.8581V36.5062V36.5062ZM15.0032 42.4648C15.0032 41.598 16.4148 40.7047 18.9193 39.9716V46.5339C17.4048 46.9422 16.0443 47.4566 15.0032 48.1081V42.4648ZM21.0149 39.4558C22.726 39.0944 24.7596 38.8008 27.0614 38.605V45.2529C25.1227 45.4093 23.0074 45.6564 21.0149 46.0479V39.4558V39.4558ZM29.1571 38.458C32.1636 38.2935 35.0463 38.3001 37.9941 38.4645V45.1173C34.9038 44.9474 32.1748 44.9499 29.1571 45.1125V38.458V38.458ZM40.0897 38.6121C42.3023 38.8021 44.3327 39.0892 46.0923 39.4642V46.0575C44.1169 45.6668 42.0193 45.4185 40.0897 45.2605V38.6121ZM48.1879 39.9874C50.9965 40.8272 52.0495 41.7833 52.0564 42.4577V48.1071C51.0261 47.4627 49.6832 46.9525 48.1879 46.5463V39.9874ZM52.0564 30.6137C51.0261 29.9693 49.6832 29.459 48.1879 29.0529V22.4946C50.9965 23.3344 52.0496 24.2905 52.0564 24.9649V30.6137ZM27.0614 27.7593C25.1227 27.9157 23.0074 28.163 21.0149 28.5545V21.9629C22.726 21.6015 24.7596 21.308 27.0614 21.1122V27.7593V27.7593ZM18.9193 29.0405C17.4048 29.4489 16.0443 29.9633 15.0032 30.6147V24.9719C15.0032 24.1052 16.4148 23.2119 18.9193 22.4788V29.0405ZM48.1879 48.7343C50.9965 49.5741 52.0495 50.5302 52.0564 51.2046V58.1515H48.1879V48.7343ZM15.0032 7.56607C14.9981 7.01759 15.2427 6.50084 15.7512 5.98716C18.0567 3.66024 25.1797 2.09565 33.4753 2.09565C43.8661 2.09565 52.0282 4.5075 52.0579 7.57629V17.9813C52.0579 17.9837 52.0564 17.9857 52.0564 17.9881V21.8678C45.4126 17.7124 21.6468 17.7115 15.0032 21.8688V17.9881V7.56607H15.0032ZM8.53818 14.9469L12.9076 18.4875V58.1515H8.53818V21.6555V14.9469ZM3.16293 22.7033H6.44251V58.1515H3.16293V22.7033ZM64.9655 63.9043H2.09566V60.2472H2.1151C26.3474 60.2472 40.8935 60.2472 64.945 60.2472H64.9655V63.9043Z" fill="url(#paint0_linear)"/>
<defs>
<linearGradient id="paint0_linear" x1="67.0611" y1="33" x2="1.12452e-06" y2="33" gradientUnits="userSpaceOnUse">
<stop stop-color="#06EA84"/>
<stop offset="1" stop-color="#2BC47B"/>
</linearGradient>
</defs>
</svg>
