<svg width="68" height="68" viewBox="0 0 68 68" fill="none" xmlns="http://www.w3.org/2000/svg">
<path d="M35.1739 23.8519H41.968C42.424 23.8519 42.793 23.4829 42.793 23.0269V16.2327C42.793 15.7767 42.424 15.4077 41.968 15.4077H35.1739C34.7178 15.4077 34.3489 15.7767 34.3489 16.2327V23.0269C34.3489 23.4829 34.7178 23.8519 35.1739 23.8519ZM35.9989 17.0577H41.143V22.2019H35.9989V17.0577Z" fill="url(#paint0_linear)"/>
<path d="M46.9398 23.8519H53.7339C54.1899 23.8519 54.5589 23.4829 54.5589 23.0269V16.2327C54.5589 15.7767 54.1899 15.4077 53.7339 15.4077H46.9398C46.4838 15.4077 46.1148 15.7767 46.1148 16.2327V23.0269C46.1148 23.4829 46.4838 23.8519 46.9398 23.8519ZM47.7648 17.0577H52.9089V22.2019H47.7648V17.0577Z" fill="url(#paint1_linear)"/>
<path d="M46.9398 35.5026H53.7339C54.1899 35.5026 54.5589 35.1336 54.5589 34.6776V27.8834C54.5589 27.4274 54.1899 27.0584 53.7339 27.0584H46.9398C46.4838 27.0584 46.1148 27.4274 46.1148 27.8834V34.6776C46.1148 35.1336 46.4838 35.5026 46.9398 35.5026ZM47.7648 28.7084H52.9089V33.8526H47.7648V28.7084Z" fill="url(#paint2_linear)"/>
<path d="M46.9398 47.1533H53.7339C54.1899 47.1533 54.5589 46.7843 54.5589 46.3283V39.5341C54.5589 39.0781 54.1899 38.7091 53.7339 38.7091H46.9398C46.4838 38.7091 46.1148 39.0781 46.1148 39.5341V46.3283C46.1148 46.7843 46.4838 47.1533 46.9398 47.1533ZM47.7648 40.3591H52.9089V45.5033H47.7648V40.3591Z" fill="url(#paint3_linear)"/>
<path d="M21.0602 47.1533C21.5162 47.1533 21.8852 46.7843 21.8852 46.3283V39.5341C21.8852 39.0781 21.5162 38.7091 21.0602 38.7091H14.2661C13.8101 38.7091 13.4411 39.0781 13.4411 39.5341V46.3283C13.4411 46.7843 13.8101 47.1533 14.2661 47.1533H21.0602ZM15.0911 40.3591H20.2352V45.5033H15.0911V40.3591Z" fill="url(#paint4_linear)"/>
<path d="M26.032 47.1533H32.8261C33.2822 47.1533 33.6511 46.7843 33.6511 46.3283V39.5341C33.6511 39.0781 33.2822 38.7091 32.8261 38.7091H26.032C25.576 38.7091 25.207 39.0781 25.207 39.5341V46.3283C25.207 46.7843 25.576 47.1533 26.032 47.1533ZM26.857 40.3591H32.0011V45.5033H26.857V40.3591Z" fill="url(#paint5_linear)"/>
<path d="M66.175 65.35H59.894V16.4923L60.9591 17.4283C61.1162 17.5661 61.3104 17.6337 61.5038 17.6337C61.7326 17.6337 61.9606 17.5387 62.1233 17.3534C62.4246 17.011 62.3908 16.4897 62.0484 16.1892L44.9989 1.20544C44.6879 0.931519 44.2207 0.931519 43.9097 1.20544L26.8602 16.1892C26.5178 16.4897 26.484 17.011 26.7853 17.3534C27.0858 17.6958 27.6079 17.7296 27.9495 17.4283L29.0146 16.4923V29.458L24.0903 25.1304C23.7793 24.8565 23.3121 24.8565 23.0011 25.1304L5.95161 40.1142C5.6092 40.4147 5.57537 40.936 5.87668 41.2784C6.17639 41.62 6.69927 41.6538 7.04087 41.3533L8.10596 40.4173V65.35H1.825C1.36899 65.35 1 65.719 1 66.175C1 66.631 1.36899 67 1.825 67H66.175C66.631 67 67 66.631 67 66.175C67 65.719 66.631 65.35 66.175 65.35ZM30.6646 15.0422L44.4543 2.92312L58.244 15.0422V65.35H54.5589V50.8593C54.5589 50.4033 54.1899 50.0343 53.7339 50.0343H43.8267C43.3707 50.0343 43.0017 50.4033 43.0017 50.8593V65.35H38.9854V40.4173L40.0505 41.3533C40.2076 41.4911 40.4018 41.5587 40.5952 41.5587C40.824 41.5587 41.052 41.4637 41.2147 41.2784C41.516 40.936 41.4822 40.4147 41.1398 40.1142L35.8924 35.5026H41.968C42.424 35.5026 42.793 35.1336 42.793 34.6776V27.8834C42.793 27.4274 42.424 27.0584 41.968 27.0584H35.1739C34.7178 27.0584 34.3489 27.4274 34.3489 27.8834V34.146L30.6646 30.9081V15.0422ZM52.9089 65.35H44.6517V51.6843H52.9089V65.35ZM35.9989 33.8526V28.7084H41.143V33.8526H35.9989ZM9.75596 38.9672L23.5457 26.8481L37.3354 38.9672V65.35H29.3247V50.8593C29.3247 50.4033 28.9557 50.0343 28.4997 50.0343H18.5917C18.1357 50.0343 17.7667 50.4033 17.7667 50.8593V65.35H9.75596V38.9672ZM27.6747 65.35H19.4167V51.6843H27.6747V65.35Z" fill="url(#paint6_linear)"/>
<path d="M35.1739 23.8519H41.968C42.424 23.8519 42.793 23.4829 42.793 23.0269V16.2327C42.793 15.7767 42.424 15.4077 41.968 15.4077H35.1739C34.7178 15.4077 34.3489 15.7767 34.3489 16.2327V23.0269C34.3489 23.4829 34.7178 23.8519 35.1739 23.8519ZM35.9989 17.0577H41.143V22.2019H35.9989V17.0577Z" stroke="url(#paint7_linear)" stroke-width="0.7"/>
<path d="M46.9398 23.8519H53.7339C54.1899 23.8519 54.5589 23.4829 54.5589 23.0269V16.2327C54.5589 15.7767 54.1899 15.4077 53.7339 15.4077H46.9398C46.4838 15.4077 46.1148 15.7767 46.1148 16.2327V23.0269C46.1148 23.4829 46.4838 23.8519 46.9398 23.8519ZM47.7648 17.0577H52.9089V22.2019H47.7648V17.0577Z" stroke="url(#paint8_linear)" stroke-width="0.7"/>
<path d="M46.9398 35.5026H53.7339C54.1899 35.5026 54.5589 35.1336 54.5589 34.6776V27.8834C54.5589 27.4274 54.1899 27.0584 53.7339 27.0584H46.9398C46.4838 27.0584 46.1148 27.4274 46.1148 27.8834V34.6776C46.1148 35.1336 46.4838 35.5026 46.9398 35.5026ZM47.7648 28.7084H52.9089V33.8526H47.7648V28.7084Z" stroke="url(#paint9_linear)" stroke-width="0.7"/>
<path d="M46.9398 47.1533H53.7339C54.1899 47.1533 54.5589 46.7843 54.5589 46.3283V39.5341C54.5589 39.0781 54.1899 38.7091 53.7339 38.7091H46.9398C46.4838 38.7091 46.1148 39.0781 46.1148 39.5341V46.3283C46.1148 46.7843 46.4838 47.1533 46.9398 47.1533ZM47.7648 40.3591H52.9089V45.5033H47.7648V40.3591Z" stroke="url(#paint10_linear)" stroke-width="0.7"/>
<path d="M21.0602 47.1533C21.5162 47.1533 21.8852 46.7843 21.8852 46.3283V39.5341C21.8852 39.0781 21.5162 38.7091 21.0602 38.7091H14.2661C13.8101 38.7091 13.4411 39.0781 13.4411 39.5341V46.3283C13.4411 46.7843 13.8101 47.1533 14.2661 47.1533H21.0602ZM15.0911 40.3591H20.2352V45.5033H15.0911V40.3591Z" stroke="url(#paint11_linear)" stroke-width="0.7"/>
<path d="M26.032 47.1533H32.8261C33.2822 47.1533 33.6511 46.7843 33.6511 46.3283V39.5341C33.6511 39.0781 33.2822 38.7091 32.8261 38.7091H26.032C25.576 38.7091 25.207 39.0781 25.207 39.5341V46.3283C25.207 46.7843 25.576 47.1533 26.032 47.1533ZM26.857 40.3591H32.0011V45.5033H26.857V40.3591Z" stroke="url(#paint12_linear)" stroke-width="0.7"/>
<path d="M66.175 65.35H59.894V16.4923L60.9591 17.4283C61.1162 17.5661 61.3104 17.6337 61.5038 17.6337C61.7326 17.6337 61.9606 17.5387 62.1233 17.3534C62.4246 17.011 62.3908 16.4897 62.0484 16.1892L44.9989 1.20544C44.6879 0.931519 44.2207 0.931519 43.9097 1.20544L26.8602 16.1892C26.5178 16.4897 26.484 17.011 26.7853 17.3534C27.0858 17.6958 27.6079 17.7296 27.9495 17.4283L29.0146 16.4923V29.458L24.0903 25.1304C23.7793 24.8565 23.3121 24.8565 23.0011 25.1304L5.95161 40.1142C5.6092 40.4147 5.57537 40.936 5.87668 41.2784C6.17639 41.62 6.69927 41.6538 7.04087 41.3533L8.10596 40.4173V65.35H1.825C1.36899 65.35 1 65.719 1 66.175C1 66.631 1.36899 67 1.825 67H66.175C66.631 67 67 66.631 67 66.175C67 65.719 66.631 65.35 66.175 65.35ZM30.6646 15.0422L44.4543 2.92312L58.244 15.0422V65.35H54.5589V50.8593C54.5589 50.4033 54.1899 50.0343 53.7339 50.0343H43.8267C43.3707 50.0343 43.0017 50.4033 43.0017 50.8593V65.35H38.9854V40.4173L40.0505 41.3533C40.2076 41.4911 40.4018 41.5587 40.5952 41.5587C40.824 41.5587 41.052 41.4637 41.2147 41.2784C41.516 40.936 41.4822 40.4147 41.1398 40.1142L35.8924 35.5026H41.968C42.424 35.5026 42.793 35.1336 42.793 34.6776V27.8834C42.793 27.4274 42.424 27.0584 41.968 27.0584H35.1739C34.7178 27.0584 34.3489 27.4274 34.3489 27.8834V34.146L30.6646 30.9081V15.0422ZM52.9089 65.35H44.6517V51.6843H52.9089V65.35ZM35.9989 33.8526V28.7084H41.143V33.8526H35.9989ZM9.75596 38.9672L23.5457 26.8481L37.3354 38.9672V65.35H29.3247V50.8593C29.3247 50.4033 28.9557 50.0343 28.4997 50.0343H18.5917C18.1357 50.0343 17.7667 50.4033 17.7667 50.8593V65.35H9.75596V38.9672ZM27.6747 65.35H19.4167V51.6843H27.6747V65.35Z" stroke="url(#paint13_linear)" stroke-width="0.7"/>
<defs>
<linearGradient id="paint0_linear" x1="67" y1="34" x2="1" y2="34" gradientUnits="userSpaceOnUse">
<stop stop-color="#06EA84"/>
<stop offset="1" stop-color="#2BC47B"/>
</linearGradient>
<linearGradient id="paint1_linear" x1="67" y1="34" x2="1" y2="34" gradientUnits="userSpaceOnUse">
<stop stop-color="#06EA84"/>
<stop offset="1" stop-color="#2BC47B"/>
</linearGradient>
<linearGradient id="paint2_linear" x1="67" y1="34" x2="1" y2="34" gradientUnits="userSpaceOnUse">
<stop stop-color="#06EA84"/>
<stop offset="1" stop-color="#2BC47B"/>
</linearGradient>
<linearGradient id="paint3_linear" x1="67" y1="34" x2="1" y2="34" gradientUnits="userSpaceOnUse">
<stop stop-color="#06EA84"/>
<stop offset="1" stop-color="#2BC47B"/>
</linearGradient>
<linearGradient id="paint4_linear" x1="67" y1="34" x2="1" y2="34" gradientUnits="userSpaceOnUse">
<stop stop-color="#06EA84"/>
<stop offset="1" stop-color="#2BC47B"/>
</linearGradient>
<linearGradient id="paint5_linear" x1="67" y1="34" x2="1" y2="34" gradientUnits="userSpaceOnUse">
<stop stop-color="#06EA84"/>
<stop offset="1" stop-color="#2BC47B"/>
</linearGradient>
<linearGradient id="paint6_linear" x1="67" y1="34" x2="1" y2="34" gradientUnits="userSpaceOnUse">
<stop stop-color="#06EA84"/>
<stop offset="1" stop-color="#2BC47B"/>
</linearGradient>
<linearGradient id="paint7_linear" x1="67" y1="34" x2="1" y2="34" gradientUnits="userSpaceOnUse">
<stop stop-color="#06EA84"/>
<stop offset="1" stop-color="#2BC47B"/>
</linearGradient>
<linearGradient id="paint8_linear" x1="67" y1="34" x2="1" y2="34" gradientUnits="userSpaceOnUse">
<stop stop-color="#06EA84"/>
<stop offset="1" stop-color="#2BC47B"/>
</linearGradient>
<linearGradient id="paint9_linear" x1="67" y1="34" x2="1" y2="34" gradientUnits="userSpaceOnUse">
<stop stop-color="#06EA84"/>
<stop offset="1" stop-color="#2BC47B"/>
</linearGradient>
<linearGradient id="paint10_linear" x1="67" y1="34" x2="1" y2="34" gradientUnits="userSpaceOnUse">
<stop stop-color="#06EA84"/>
<stop offset="1" stop-color="#2BC47B"/>
</linearGradient>
<linearGradient id="paint11_linear" x1="67" y1="34" x2="1" y2="34" gradientUnits="userSpaceOnUse">
<stop stop-color="#06EA84"/>
<stop offset="1" stop-color="#2BC47B"/>
</linearGradient>
<linearGradient id="paint12_linear" x1="67" y1="34" x2="1" y2="34" gradientUnits="userSpaceOnUse">
<stop stop-color="#06EA84"/>
<stop offset="1" stop-color="#2BC47B"/>
</linearGradient>
<linearGradient id="paint13_linear" x1="67" y1="34" x2="1" y2="34" gradientUnits="userSpaceOnUse">
<stop stop-color="#06EA84"/>
<stop offset="1" stop-color="#2BC47B"/>
</linearGradient>
</defs>
</svg>
