<svg width="68" height="68" viewBox="0 0 68 68" fill="none" xmlns="http://www.w3.org/2000/svg">
<path d="M66.175 65.35H65.0624V33.1194C65.0624 32.6634 64.693 32.2944 64.2374 32.2944H61.4115V1.825C61.4115 1.36899 61.0421 1 60.5865 1H31.2116C30.756 1 30.3866 1.36899 30.3866 1.825V32.2944H27.6921C27.2364 32.2944 26.8671 32.6634 26.8671 33.1194V65.35H22.5648V13.375C22.5648 12.919 22.1954 12.55 21.7398 12.55H3.64137C3.18577 12.55 2.81637 12.919 2.81637 13.375V65.35H1.825C1.3694 65.35 1 65.719 1 66.175C1 66.631 1.3694 67 1.825 67H66.175C66.6306 67 67 66.631 67 66.175C67 65.719 66.6306 65.35 66.175 65.35ZM32.0366 2.65H59.7615V32.2944H32.0366V2.65ZM28.5171 33.9444H63.4124V65.35H52.7091V56.4522C52.7091 55.9962 52.3397 55.6272 51.8841 55.6272H40.0453C39.5897 55.6272 39.2203 55.9962 39.2203 56.4522V65.35H28.5171V33.9444ZM46.7239 57.2772H51.0591V65.35H46.7239V57.2772ZM45.0739 65.35H40.8703V57.2772H45.0739V65.35ZM14.7205 25.1885V34.2353H10.6603V25.1885H14.7205ZM10.6603 23.5385V14.2H14.7205V23.5385H10.6603ZM4.46637 35.8853H9.01031V44.9312H4.46637V35.8853ZM10.6603 35.8853H14.7205V44.9312H10.6603V35.8853ZM16.3705 35.8853H20.9148V44.9312H16.3705V35.8853ZM20.9148 46.5812V55.6272H16.3705V46.5812H20.9148ZM20.9148 34.2353H16.3705V25.1885H20.9148V34.2353ZM9.01031 34.2353H4.46637V25.1885H9.01031V34.2353ZM4.46637 46.5812H9.01031V55.6272H4.46637V46.5812ZM10.6603 46.5812H14.7205V55.6272H10.6603V46.5812ZM14.7205 57.2772V65.35H10.6603V57.2772H14.7205ZM16.3705 57.2772H20.9148V65.35H16.3705V57.2772ZM20.9148 23.5385H16.3705V14.2H20.9148V23.5385ZM9.01031 14.2V23.5385H4.46637V14.2H9.01031ZM4.46637 57.2772H9.01031V65.35H4.46637V57.2772Z" fill="url(#paint0_linear)"/>
<path d="M55.8035 44.8279H59.6034C60.0591 44.8279 60.4284 44.459 60.4284 44.0029V39.8481C60.4284 39.3921 60.0591 39.0231 59.6034 39.0231H55.8035C55.3479 39.0231 54.9785 39.3921 54.9785 39.8481V44.0029C54.9785 44.459 55.3479 44.8279 55.8035 44.8279ZM56.6285 40.6731H58.7784V43.1779H56.6285V40.6731Z" fill="url(#paint1_linear)"/>
<path d="M48.0843 44.8279H51.8838C52.3394 44.8279 52.7088 44.459 52.7088 44.0029V39.8481C52.7088 39.3921 52.3394 39.0231 51.8838 39.0231H48.0843C47.6287 39.0231 47.2593 39.3921 47.2593 39.8481V44.0029C47.2593 44.459 47.6287 44.8279 48.0843 44.8279ZM48.9093 40.6731H51.0588V43.1779H48.9093V40.6731Z" fill="url(#paint2_linear)"/>
<path d="M40.094 44.8279H43.894C44.3496 44.8279 44.719 44.459 44.719 44.0029V39.8481C44.719 39.3921 44.3496 39.0231 43.894 39.0231H40.094C39.6384 39.0231 39.269 39.3921 39.269 39.8481V44.0029C39.269 44.459 39.6384 44.8279 40.094 44.8279ZM40.919 40.6731H43.069V43.1779H40.919V40.6731Z" fill="url(#paint3_linear)"/>
<path d="M36.1743 39.0231H32.3748C31.9192 39.0231 31.5498 39.3921 31.5498 39.8481V44.0029C31.5498 44.459 31.9192 44.8279 32.3748 44.8279H36.1743C36.6299 44.8279 36.9993 44.459 36.9993 44.0029V39.8481C36.9993 39.3921 36.6299 39.0231 36.1743 39.0231ZM35.3493 43.1779H33.1998V40.6731H35.3493V43.1779Z" fill="url(#paint4_linear)"/>
<path d="M55.8035 53.1295H59.6034C60.0591 53.1295 60.4284 52.7605 60.4284 52.3045V48.1497C60.4284 47.6937 60.0591 47.3247 59.6034 47.3247H55.8035C55.3479 47.3247 54.9785 47.6937 54.9785 48.1497V52.3045C54.9785 52.7605 55.3479 53.1295 55.8035 53.1295ZM56.6285 48.9747H58.7784V51.4795H56.6285V48.9747Z" fill="url(#paint5_linear)"/>
<path d="M48.0843 53.1295H51.8838C52.3394 53.1295 52.7088 52.7605 52.7088 52.3045V48.1497C52.7088 47.6937 52.3394 47.3247 51.8838 47.3247H48.0843C47.6287 47.3247 47.2593 47.6937 47.2593 48.1497V52.3045C47.2593 52.7605 47.6287 53.1295 48.0843 53.1295ZM48.9093 48.9747H51.0588V51.4795H48.9093V48.9747Z" fill="url(#paint6_linear)"/>
<path d="M40.094 53.1295H43.894C44.3496 53.1295 44.719 52.7605 44.719 52.3045V48.1497C44.719 47.6937 44.3496 47.3247 43.894 47.3247H40.094C39.6384 47.3247 39.269 47.6937 39.269 48.1497V52.3045C39.269 52.7605 39.6384 53.1295 40.094 53.1295ZM40.919 48.9747H43.069V51.4795H40.919V48.9747Z" fill="url(#paint7_linear)"/>
<path d="M36.1743 47.3247H32.3748C31.9192 47.3247 31.5498 47.6937 31.5498 48.1497V52.3045C31.5498 52.7605 31.9192 53.1295 32.3748 53.1295H36.1743C36.6299 53.1295 36.9993 52.7605 36.9993 52.3045V48.1497C36.9993 47.6937 36.6299 47.3247 36.1743 47.3247ZM35.3493 51.4795H33.1998V48.9747H35.3493V51.4795Z" fill="url(#paint8_linear)"/>
<path d="M55.5194 5.669H51.7199C51.2643 5.669 50.8949 6.038 50.8949 6.494V10.6488C50.8949 11.1048 51.2643 11.4738 51.7199 11.4738H55.5194C55.975 11.4738 56.3444 11.1048 56.3444 10.6488V6.494C56.3444 6.038 55.975 5.669 55.5194 5.669ZM54.6944 9.82381H52.5449V7.319H54.6944V9.82381Z" fill="url(#paint9_linear)"/>
<path d="M47.8001 5.669H44.0002C43.5446 5.669 43.1752 6.038 43.1752 6.494V10.6488C43.1752 11.1048 43.5446 11.4738 44.0002 11.4738H47.8001C48.2557 11.4738 48.6251 11.1048 48.6251 10.6488V6.494C48.6251 6.038 48.2557 5.669 47.8001 5.669ZM46.9751 9.82381H44.8252V7.319H46.9751V9.82381Z" fill="url(#paint10_linear)"/>
<path d="M39.8087 5.669H36.0092C35.5536 5.669 35.1842 6.038 35.1842 6.494V10.6488C35.1842 11.1048 35.5536 11.4738 36.0092 11.4738H39.8087C40.2643 11.4738 40.6337 11.1048 40.6337 10.6488V6.494C40.6337 6.038 40.2643 5.669 39.8087 5.669ZM38.9837 9.82381H36.8342V7.319H38.9837V9.82381Z" fill="url(#paint11_linear)"/>
<path d="M55.5194 13.9731H51.7199C51.2643 13.9731 50.8949 14.3421 50.8949 14.7981V18.9529C50.8949 19.4089 51.2643 19.7779 51.7199 19.7779H55.5194C55.975 19.7779 56.3444 19.4089 56.3444 18.9529V14.7981C56.3444 14.3421 55.975 13.9731 55.5194 13.9731ZM54.6944 18.1279H52.5449V15.6231H54.6944V18.1279Z" fill="url(#paint12_linear)"/>
<path d="M47.8001 13.9731H44.0002C43.5446 13.9731 43.1752 14.3421 43.1752 14.7981V18.9529C43.1752 19.4089 43.5446 19.7779 44.0002 19.7779H47.8001C48.2557 19.7779 48.6251 19.4089 48.6251 18.9529V14.7981C48.6251 14.3421 48.2557 13.9731 47.8001 13.9731ZM46.9751 18.1279H44.8252V15.6231H46.9751V18.1279Z" fill="url(#paint13_linear)"/>
<path d="M39.8087 13.9731H36.0092C35.5536 13.9731 35.1842 14.3421 35.1842 14.7981V18.9529C35.1842 19.4089 35.5536 19.7779 36.0092 19.7779H39.8087C40.2643 19.7779 40.6337 19.4089 40.6337 18.9529V14.7981C40.6337 14.3421 40.2643 13.9731 39.8087 13.9731ZM38.9837 18.1279H36.8342V15.6231H38.9837V18.1279Z" fill="url(#paint14_linear)"/>
<path d="M55.5194 22.3079H51.7199C51.2643 22.3079 50.8949 22.6769 50.8949 23.1329V27.2877C50.8949 27.7437 51.2643 28.1127 51.7199 28.1127H55.5194C55.975 28.1127 56.3444 27.7437 56.3444 27.2877V23.1329C56.3444 22.6769 55.975 22.3079 55.5194 22.3079ZM54.6944 26.4627H52.5449V23.9579H54.6944V26.4627Z" fill="url(#paint15_linear)"/>
<path d="M47.8001 22.3079H44.0002C43.5446 22.3079 43.1752 22.6769 43.1752 23.1329V27.2877C43.1752 27.7437 43.5446 28.1127 44.0002 28.1127H47.8001C48.2557 28.1127 48.6251 27.7437 48.6251 27.2877V23.1329C48.6251 22.6769 48.2557 22.3079 47.8001 22.3079ZM46.9751 26.4627H44.8252V23.9579H46.9751V26.4627Z" fill="url(#paint16_linear)"/>
<path d="M39.8087 22.3079H36.0092C35.5536 22.3079 35.1842 22.6769 35.1842 23.1329V27.2877C35.1842 27.7437 35.5536 28.1127 36.0092 28.1127H39.8087C40.2643 28.1127 40.6337 27.7437 40.6337 27.2877V23.1329C40.6337 22.6769 40.2643 22.3079 39.8087 22.3079ZM38.9837 26.4627H36.8342V23.9579H38.9837V26.4627Z" fill="url(#paint17_linear)"/>
<path d="M55.8035 61.4327H59.6034C60.0591 61.4327 60.4284 61.0637 60.4284 60.6077V56.4529C60.4284 55.9969 60.0591 55.6279 59.6034 55.6279H55.8035C55.3479 55.6279 54.9785 55.9969 54.9785 56.4529V60.6077C54.9785 61.0637 55.3479 61.4327 55.8035 61.4327ZM56.6285 57.2779H58.7784V59.7827H56.6285V57.2779Z" fill="url(#paint18_linear)"/>
<path d="M36.1743 55.6279H32.3748C31.9192 55.6279 31.5498 55.9969 31.5498 56.4529V60.6077C31.5498 61.0637 31.9192 61.4327 32.3748 61.4327H36.1743C36.6299 61.4327 36.9993 61.0637 36.9993 60.6077V56.4529C36.9993 55.9969 36.6299 55.6279 36.1743 55.6279ZM35.3493 59.7827H33.1998V57.2779H35.3493V59.7827Z" fill="url(#paint19_linear)"/>
<path d="M66.175 65.35H65.0624V33.1194C65.0624 32.6634 64.693 32.2944 64.2374 32.2944H61.4115V1.825C61.4115 1.36899 61.0421 1 60.5865 1H31.2116C30.756 1 30.3866 1.36899 30.3866 1.825V32.2944H27.6921C27.2364 32.2944 26.8671 32.6634 26.8671 33.1194V65.35H22.5648V13.375C22.5648 12.919 22.1954 12.55 21.7398 12.55H3.64137C3.18577 12.55 2.81637 12.919 2.81637 13.375V65.35H1.825C1.3694 65.35 1 65.719 1 66.175C1 66.631 1.3694 67 1.825 67H66.175C66.6306 67 67 66.631 67 66.175C67 65.719 66.6306 65.35 66.175 65.35ZM32.0366 2.65H59.7615V32.2944H32.0366V2.65ZM28.5171 33.9444H63.4124V65.35H52.7091V56.4522C52.7091 55.9962 52.3397 55.6272 51.8841 55.6272H40.0453C39.5897 55.6272 39.2203 55.9962 39.2203 56.4522V65.35H28.5171V33.9444ZM46.7239 57.2772H51.0591V65.35H46.7239V57.2772ZM45.0739 65.35H40.8703V57.2772H45.0739V65.35ZM14.7205 25.1885V34.2353H10.6603V25.1885H14.7205ZM10.6603 23.5385V14.2H14.7205V23.5385H10.6603ZM4.46637 35.8853H9.01031V44.9312H4.46637V35.8853ZM10.6603 35.8853H14.7205V44.9312H10.6603V35.8853ZM16.3705 35.8853H20.9148V44.9312H16.3705V35.8853ZM20.9148 46.5812V55.6272H16.3705V46.5812H20.9148ZM20.9148 34.2353H16.3705V25.1885H20.9148V34.2353ZM9.01031 34.2353H4.46637V25.1885H9.01031V34.2353ZM4.46637 46.5812H9.01031V55.6272H4.46637V46.5812ZM10.6603 46.5812H14.7205V55.6272H10.6603V46.5812ZM14.7205 57.2772V65.35H10.6603V57.2772H14.7205ZM16.3705 57.2772H20.9148V65.35H16.3705V57.2772ZM20.9148 23.5385H16.3705V14.2H20.9148V23.5385ZM9.01031 14.2V23.5385H4.46637V14.2H9.01031ZM4.46637 57.2772H9.01031V65.35H4.46637V57.2772Z" stroke="url(#paint20_linear)" stroke-width="0.5"/>
<path d="M55.8035 44.8279H59.6034C60.0591 44.8279 60.4284 44.459 60.4284 44.0029V39.8481C60.4284 39.3921 60.0591 39.0231 59.6034 39.0231H55.8035C55.3479 39.0231 54.9785 39.3921 54.9785 39.8481V44.0029C54.9785 44.459 55.3479 44.8279 55.8035 44.8279ZM56.6285 40.6731H58.7784V43.1779H56.6285V40.6731Z" stroke="url(#paint21_linear)" stroke-width="0.5"/>
<path d="M48.0843 44.8279H51.8838C52.3394 44.8279 52.7088 44.459 52.7088 44.0029V39.8481C52.7088 39.3921 52.3394 39.0231 51.8838 39.0231H48.0843C47.6287 39.0231 47.2593 39.3921 47.2593 39.8481V44.0029C47.2593 44.459 47.6287 44.8279 48.0843 44.8279ZM48.9093 40.6731H51.0588V43.1779H48.9093V40.6731Z" stroke="url(#paint22_linear)" stroke-width="0.5"/>
<path d="M40.094 44.8279H43.894C44.3496 44.8279 44.719 44.459 44.719 44.0029V39.8481C44.719 39.3921 44.3496 39.0231 43.894 39.0231H40.094C39.6384 39.0231 39.269 39.3921 39.269 39.8481V44.0029C39.269 44.459 39.6384 44.8279 40.094 44.8279ZM40.919 40.6731H43.069V43.1779H40.919V40.6731Z" stroke="url(#paint23_linear)" stroke-width="0.5"/>
<path d="M36.1743 39.0231H32.3748C31.9192 39.0231 31.5498 39.3921 31.5498 39.8481V44.0029C31.5498 44.459 31.9192 44.8279 32.3748 44.8279H36.1743C36.6299 44.8279 36.9993 44.459 36.9993 44.0029V39.8481C36.9993 39.3921 36.6299 39.0231 36.1743 39.0231ZM35.3493 43.1779H33.1998V40.6731H35.3493V43.1779Z" stroke="url(#paint24_linear)" stroke-width="0.5"/>
<path d="M55.8035 53.1295H59.6034C60.0591 53.1295 60.4284 52.7605 60.4284 52.3045V48.1497C60.4284 47.6937 60.0591 47.3247 59.6034 47.3247H55.8035C55.3479 47.3247 54.9785 47.6937 54.9785 48.1497V52.3045C54.9785 52.7605 55.3479 53.1295 55.8035 53.1295ZM56.6285 48.9747H58.7784V51.4795H56.6285V48.9747Z" stroke="url(#paint25_linear)" stroke-width="0.5"/>
<path d="M48.0843 53.1295H51.8838C52.3394 53.1295 52.7088 52.7605 52.7088 52.3045V48.1497C52.7088 47.6937 52.3394 47.3247 51.8838 47.3247H48.0843C47.6287 47.3247 47.2593 47.6937 47.2593 48.1497V52.3045C47.2593 52.7605 47.6287 53.1295 48.0843 53.1295ZM48.9093 48.9747H51.0588V51.4795H48.9093V48.9747Z" stroke="url(#paint26_linear)" stroke-width="0.5"/>
<path d="M40.094 53.1295H43.894C44.3496 53.1295 44.719 52.7605 44.719 52.3045V48.1497C44.719 47.6937 44.3496 47.3247 43.894 47.3247H40.094C39.6384 47.3247 39.269 47.6937 39.269 48.1497V52.3045C39.269 52.7605 39.6384 53.1295 40.094 53.1295ZM40.919 48.9747H43.069V51.4795H40.919V48.9747Z" stroke="url(#paint27_linear)" stroke-width="0.5"/>
<path d="M36.1743 47.3247H32.3748C31.9192 47.3247 31.5498 47.6937 31.5498 48.1497V52.3045C31.5498 52.7605 31.9192 53.1295 32.3748 53.1295H36.1743C36.6299 53.1295 36.9993 52.7605 36.9993 52.3045V48.1497C36.9993 47.6937 36.6299 47.3247 36.1743 47.3247ZM35.3493 51.4795H33.1998V48.9747H35.3493V51.4795Z" stroke="url(#paint28_linear)" stroke-width="0.5"/>
<path d="M55.5194 5.669H51.7199C51.2643 5.669 50.8949 6.038 50.8949 6.494V10.6488C50.8949 11.1048 51.2643 11.4738 51.7199 11.4738H55.5194C55.975 11.4738 56.3444 11.1048 56.3444 10.6488V6.494C56.3444 6.038 55.975 5.669 55.5194 5.669ZM54.6944 9.82381H52.5449V7.319H54.6944V9.82381Z" stroke="url(#paint29_linear)" stroke-width="0.5"/>
<path d="M47.8001 5.669H44.0002C43.5446 5.669 43.1752 6.038 43.1752 6.494V10.6488C43.1752 11.1048 43.5446 11.4738 44.0002 11.4738H47.8001C48.2557 11.4738 48.6251 11.1048 48.6251 10.6488V6.494C48.6251 6.038 48.2557 5.669 47.8001 5.669ZM46.9751 9.82381H44.8252V7.319H46.9751V9.82381Z" stroke="url(#paint30_linear)" stroke-width="0.5"/>
<path d="M39.8087 5.669H36.0092C35.5536 5.669 35.1842 6.038 35.1842 6.494V10.6488C35.1842 11.1048 35.5536 11.4738 36.0092 11.4738H39.8087C40.2643 11.4738 40.6337 11.1048 40.6337 10.6488V6.494C40.6337 6.038 40.2643 5.669 39.8087 5.669ZM38.9837 9.82381H36.8342V7.319H38.9837V9.82381Z" stroke="url(#paint31_linear)" stroke-width="0.5"/>
<path d="M55.5194 13.9731H51.7199C51.2643 13.9731 50.8949 14.3421 50.8949 14.7981V18.9529C50.8949 19.4089 51.2643 19.7779 51.7199 19.7779H55.5194C55.975 19.7779 56.3444 19.4089 56.3444 18.9529V14.7981C56.3444 14.3421 55.975 13.9731 55.5194 13.9731ZM54.6944 18.1279H52.5449V15.6231H54.6944V18.1279Z" stroke="url(#paint32_linear)" stroke-width="0.5"/>
<path d="M47.8001 13.9731H44.0002C43.5446 13.9731 43.1752 14.3421 43.1752 14.7981V18.9529C43.1752 19.4089 43.5446 19.7779 44.0002 19.7779H47.8001C48.2557 19.7779 48.6251 19.4089 48.6251 18.9529V14.7981C48.6251 14.3421 48.2557 13.9731 47.8001 13.9731ZM46.9751 18.1279H44.8252V15.6231H46.9751V18.1279Z" stroke="url(#paint33_linear)" stroke-width="0.5"/>
<path d="M39.8087 13.9731H36.0092C35.5536 13.9731 35.1842 14.3421 35.1842 14.7981V18.9529C35.1842 19.4089 35.5536 19.7779 36.0092 19.7779H39.8087C40.2643 19.7779 40.6337 19.4089 40.6337 18.9529V14.7981C40.6337 14.3421 40.2643 13.9731 39.8087 13.9731ZM38.9837 18.1279H36.8342V15.6231H38.9837V18.1279Z" stroke="url(#paint34_linear)" stroke-width="0.5"/>
<path d="M55.5194 22.3079H51.7199C51.2643 22.3079 50.8949 22.6769 50.8949 23.1329V27.2877C50.8949 27.7437 51.2643 28.1127 51.7199 28.1127H55.5194C55.975 28.1127 56.3444 27.7437 56.3444 27.2877V23.1329C56.3444 22.6769 55.975 22.3079 55.5194 22.3079ZM54.6944 26.4627H52.5449V23.9579H54.6944V26.4627Z" stroke="url(#paint35_linear)" stroke-width="0.5"/>
<path d="M47.8001 22.3079H44.0002C43.5446 22.3079 43.1752 22.6769 43.1752 23.1329V27.2877C43.1752 27.7437 43.5446 28.1127 44.0002 28.1127H47.8001C48.2557 28.1127 48.6251 27.7437 48.6251 27.2877V23.1329C48.6251 22.6769 48.2557 22.3079 47.8001 22.3079ZM46.9751 26.4627H44.8252V23.9579H46.9751V26.4627Z" stroke="url(#paint36_linear)" stroke-width="0.5"/>
<path d="M39.8087 22.3079H36.0092C35.5536 22.3079 35.1842 22.6769 35.1842 23.1329V27.2877C35.1842 27.7437 35.5536 28.1127 36.0092 28.1127H39.8087C40.2643 28.1127 40.6337 27.7437 40.6337 27.2877V23.1329C40.6337 22.6769 40.2643 22.3079 39.8087 22.3079ZM38.9837 26.4627H36.8342V23.9579H38.9837V26.4627Z" stroke="url(#paint37_linear)" stroke-width="0.5"/>
<path d="M55.8035 61.4327H59.6034C60.0591 61.4327 60.4284 61.0637 60.4284 60.6077V56.4529C60.4284 55.9969 60.0591 55.6279 59.6034 55.6279H55.8035C55.3479 55.6279 54.9785 55.9969 54.9785 56.4529V60.6077C54.9785 61.0637 55.3479 61.4327 55.8035 61.4327ZM56.6285 57.2779H58.7784V59.7827H56.6285V57.2779Z" stroke="url(#paint38_linear)" stroke-width="0.5"/>
<path d="M36.1743 55.6279H32.3748C31.9192 55.6279 31.5498 55.9969 31.5498 56.4529V60.6077C31.5498 61.0637 31.9192 61.4327 32.3748 61.4327H36.1743C36.6299 61.4327 36.9993 61.0637 36.9993 60.6077V56.4529C36.9993 55.9969 36.6299 55.6279 36.1743 55.6279ZM35.3493 59.7827H33.1998V57.2779H35.3493V59.7827Z" stroke="url(#paint39_linear)" stroke-width="0.5"/>
<defs>
<linearGradient id="paint0_linear" x1="67" y1="34" x2="1" y2="34" gradientUnits="userSpaceOnUse">
<stop stop-color="#06EA84"/>
<stop offset="1" stop-color="#2BC47B"/>
</linearGradient>
<linearGradient id="paint1_linear" x1="67" y1="34" x2="1" y2="34" gradientUnits="userSpaceOnUse">
<stop stop-color="#06EA84"/>
<stop offset="1" stop-color="#2BC47B"/>
</linearGradient>
<linearGradient id="paint2_linear" x1="67" y1="34" x2="1" y2="34" gradientUnits="userSpaceOnUse">
<stop stop-color="#06EA84"/>
<stop offset="1" stop-color="#2BC47B"/>
</linearGradient>
<linearGradient id="paint3_linear" x1="67" y1="34" x2="1" y2="34" gradientUnits="userSpaceOnUse">
<stop stop-color="#06EA84"/>
<stop offset="1" stop-color="#2BC47B"/>
</linearGradient>
<linearGradient id="paint4_linear" x1="67" y1="34" x2="1" y2="34" gradientUnits="userSpaceOnUse">
<stop stop-color="#06EA84"/>
<stop offset="1" stop-color="#2BC47B"/>
</linearGradient>
<linearGradient id="paint5_linear" x1="67" y1="34" x2="1" y2="34" gradientUnits="userSpaceOnUse">
<stop stop-color="#06EA84"/>
<stop offset="1" stop-color="#2BC47B"/>
</linearGradient>
<linearGradient id="paint6_linear" x1="67" y1="34" x2="1" y2="34" gradientUnits="userSpaceOnUse">
<stop stop-color="#06EA84"/>
<stop offset="1" stop-color="#2BC47B"/>
</linearGradient>
<linearGradient id="paint7_linear" x1="67" y1="34" x2="1" y2="34" gradientUnits="userSpaceOnUse">
<stop stop-color="#06EA84"/>
<stop offset="1" stop-color="#2BC47B"/>
</linearGradient>
<linearGradient id="paint8_linear" x1="67" y1="34" x2="1" y2="34" gradientUnits="userSpaceOnUse">
<stop stop-color="#06EA84"/>
<stop offset="1" stop-color="#2BC47B"/>
</linearGradient>
<linearGradient id="paint9_linear" x1="67" y1="34" x2="1" y2="34" gradientUnits="userSpaceOnUse">
<stop stop-color="#06EA84"/>
<stop offset="1" stop-color="#2BC47B"/>
</linearGradient>
<linearGradient id="paint10_linear" x1="67" y1="34" x2="1" y2="34" gradientUnits="userSpaceOnUse">
<stop stop-color="#06EA84"/>
<stop offset="1" stop-color="#2BC47B"/>
</linearGradient>
<linearGradient id="paint11_linear" x1="67" y1="34" x2="1" y2="34" gradientUnits="userSpaceOnUse">
<stop stop-color="#06EA84"/>
<stop offset="1" stop-color="#2BC47B"/>
</linearGradient>
<linearGradient id="paint12_linear" x1="67" y1="34" x2="1" y2="34" gradientUnits="userSpaceOnUse">
<stop stop-color="#06EA84"/>
<stop offset="1" stop-color="#2BC47B"/>
</linearGradient>
<linearGradient id="paint13_linear" x1="67" y1="34" x2="1" y2="34" gradientUnits="userSpaceOnUse">
<stop stop-color="#06EA84"/>
<stop offset="1" stop-color="#2BC47B"/>
</linearGradient>
<linearGradient id="paint14_linear" x1="67" y1="34" x2="1" y2="34" gradientUnits="userSpaceOnUse">
<stop stop-color="#06EA84"/>
<stop offset="1" stop-color="#2BC47B"/>
</linearGradient>
<linearGradient id="paint15_linear" x1="67" y1="34" x2="1" y2="34" gradientUnits="userSpaceOnUse">
<stop stop-color="#06EA84"/>
<stop offset="1" stop-color="#2BC47B"/>
</linearGradient>
<linearGradient id="paint16_linear" x1="67" y1="34" x2="1" y2="34" gradientUnits="userSpaceOnUse">
<stop stop-color="#06EA84"/>
<stop offset="1" stop-color="#2BC47B"/>
</linearGradient>
<linearGradient id="paint17_linear" x1="67" y1="34" x2="1" y2="34" gradientUnits="userSpaceOnUse">
<stop stop-color="#06EA84"/>
<stop offset="1" stop-color="#2BC47B"/>
</linearGradient>
<linearGradient id="paint18_linear" x1="67" y1="34" x2="1" y2="34" gradientUnits="userSpaceOnUse">
<stop stop-color="#06EA84"/>
<stop offset="1" stop-color="#2BC47B"/>
</linearGradient>
<linearGradient id="paint19_linear" x1="67" y1="34" x2="1" y2="34" gradientUnits="userSpaceOnUse">
<stop stop-color="#06EA84"/>
<stop offset="1" stop-color="#2BC47B"/>
</linearGradient>
<linearGradient id="paint20_linear" x1="67" y1="34" x2="1" y2="34" gradientUnits="userSpaceOnUse">
<stop stop-color="#06EA84"/>
<stop offset="1" stop-color="#2BC47B"/>
</linearGradient>
<linearGradient id="paint21_linear" x1="67" y1="34" x2="1" y2="34" gradientUnits="userSpaceOnUse">
<stop stop-color="#06EA84"/>
<stop offset="1" stop-color="#2BC47B"/>
</linearGradient>
<linearGradient id="paint22_linear" x1="67" y1="34" x2="1" y2="34" gradientUnits="userSpaceOnUse">
<stop stop-color="#06EA84"/>
<stop offset="1" stop-color="#2BC47B"/>
</linearGradient>
<linearGradient id="paint23_linear" x1="67" y1="34" x2="1" y2="34" gradientUnits="userSpaceOnUse">
<stop stop-color="#06EA84"/>
<stop offset="1" stop-color="#2BC47B"/>
</linearGradient>
<linearGradient id="paint24_linear" x1="67" y1="34" x2="1" y2="34" gradientUnits="userSpaceOnUse">
<stop stop-color="#06EA84"/>
<stop offset="1" stop-color="#2BC47B"/>
</linearGradient>
<linearGradient id="paint25_linear" x1="67" y1="34" x2="1" y2="34" gradientUnits="userSpaceOnUse">
<stop stop-color="#06EA84"/>
<stop offset="1" stop-color="#2BC47B"/>
</linearGradient>
<linearGradient id="paint26_linear" x1="67" y1="34" x2="1" y2="34" gradientUnits="userSpaceOnUse">
<stop stop-color="#06EA84"/>
<stop offset="1" stop-color="#2BC47B"/>
</linearGradient>
<linearGradient id="paint27_linear" x1="67" y1="34" x2="1" y2="34" gradientUnits="userSpaceOnUse">
<stop stop-color="#06EA84"/>
<stop offset="1" stop-color="#2BC47B"/>
</linearGradient>
<linearGradient id="paint28_linear" x1="67" y1="34" x2="1" y2="34" gradientUnits="userSpaceOnUse">
<stop stop-color="#06EA84"/>
<stop offset="1" stop-color="#2BC47B"/>
</linearGradient>
<linearGradient id="paint29_linear" x1="67" y1="34" x2="1" y2="34" gradientUnits="userSpaceOnUse">
<stop stop-color="#06EA84"/>
<stop offset="1" stop-color="#2BC47B"/>
</linearGradient>
<linearGradient id="paint30_linear" x1="67" y1="34" x2="1" y2="34" gradientUnits="userSpaceOnUse">
<stop stop-color="#06EA84"/>
<stop offset="1" stop-color="#2BC47B"/>
</linearGradient>
<linearGradient id="paint31_linear" x1="67" y1="34" x2="1" y2="34" gradientUnits="userSpaceOnUse">
<stop stop-color="#06EA84"/>
<stop offset="1" stop-color="#2BC47B"/>
</linearGradient>
<linearGradient id="paint32_linear" x1="67" y1="34" x2="1" y2="34" gradientUnits="userSpaceOnUse">
<stop stop-color="#06EA84"/>
<stop offset="1" stop-color="#2BC47B"/>
</linearGradient>
<linearGradient id="paint33_linear" x1="67" y1="34" x2="1" y2="34" gradientUnits="userSpaceOnUse">
<stop stop-color="#06EA84"/>
<stop offset="1" stop-color="#2BC47B"/>
</linearGradient>
<linearGradient id="paint34_linear" x1="67" y1="34" x2="1" y2="34" gradientUnits="userSpaceOnUse">
<stop stop-color="#06EA84"/>
<stop offset="1" stop-color="#2BC47B"/>
</linearGradient>
<linearGradient id="paint35_linear" x1="67" y1="34" x2="1" y2="34" gradientUnits="userSpaceOnUse">
<stop stop-color="#06EA84"/>
<stop offset="1" stop-color="#2BC47B"/>
</linearGradient>
<linearGradient id="paint36_linear" x1="67" y1="34" x2="1" y2="34" gradientUnits="userSpaceOnUse">
<stop stop-color="#06EA84"/>
<stop offset="1" stop-color="#2BC47B"/>
</linearGradient>
<linearGradient id="paint37_linear" x1="67" y1="34" x2="1" y2="34" gradientUnits="userSpaceOnUse">
<stop stop-color="#06EA84"/>
<stop offset="1" stop-color="#2BC47B"/>
</linearGradient>
<linearGradient id="paint38_linear" x1="67" y1="34" x2="1" y2="34" gradientUnits="userSpaceOnUse">
<stop stop-color="#06EA84"/>
<stop offset="1" stop-color="#2BC47B"/>
</linearGradient>
<linearGradient id="paint39_linear" x1="67" y1="34" x2="1" y2="34" gradientUnits="userSpaceOnUse">
<stop stop-color="#06EA84"/>
<stop offset="1" stop-color="#2BC47B"/>
</linearGradient>
</defs>
</svg>
