<svg width="65" height="68" viewBox="0 0 65 68" fill="none" xmlns="http://www.w3.org/2000/svg">
<path d="M63.3761 65.2768H54.7739V48.403H59.362C59.8379 48.403 60.2235 48.0174 60.2235 47.5414V41.3327C60.2235 40.8568 59.8379 40.4711 59.362 40.4711H54.7739V23.6004H59.362C59.8379 23.6004 60.2235 23.2148 60.2235 22.7388V16.5301C60.2235 16.0542 59.8379 15.6685 59.362 15.6685H43.5074V11.7447C46.0815 11.33 48.0602 9.10787 48.0602 6.41902C48.0602 3.43022 45.6331 1 42.6473 1H22.5965C19.6077 1 17.1775 3.43022 17.1775 6.41902C17.1775 9.1094 19.1562 11.33 21.7364 11.7447V15.6685H5.87574C5.3998 15.6685 5.01414 16.0542 5.01414 16.5301V22.7388C5.01414 23.2148 5.3998 23.6004 5.87574 23.6004H10.4638V40.4727H5.87574C5.3998 40.4727 5.01414 40.8583 5.01414 41.3343V47.5429C5.01414 48.0189 5.3998 48.4045 5.87574 48.4045H10.4638V65.2768H1.86159C1.38565 65.2768 1 65.6625 1 66.1384C1 66.6143 1.38565 67 1.86159 67H63.3746C63.8505 67 64.2362 66.6143 64.2362 66.1384C64.2362 65.6625 63.8505 65.2768 63.3761 65.2768ZM18.8991 6.42055C18.8991 4.38057 20.555 2.72319 22.5965 2.72319H42.6473C44.6827 2.72319 46.3386 4.38057 46.3386 6.42055C46.3386 8.45593 44.6827 10.1148 42.6473 10.1148H22.5965C20.555 10.1148 18.8991 8.45593 18.8991 6.42055ZM23.4581 11.8365H41.7857V15.6716H23.4581V11.8365ZM6.73733 17.3917H58.5004V21.8788H6.73733V17.3917ZM12.1854 23.6004H53.0507V40.4727H12.1854V23.6004ZM6.73733 42.1943H58.5004V46.6814H6.73733V42.1943ZM29.1786 65.2768V52.8028H36.0591V65.2768H29.1786ZM37.7808 65.2768V51.9412C37.7808 51.4653 37.3951 51.0796 36.9192 51.0796H28.317C27.8411 51.0796 27.4554 51.4653 27.4554 51.9412V65.2768H12.1839V48.403H53.0492V65.2753L37.7808 65.2768Z" fill="url(#paint0_linear)"/>
<path d="M23.8007 26.56H15.1985C14.7225 26.56 14.3369 26.9456 14.3369 27.4216V36.4569C14.3369 36.9328 14.7225 37.3184 15.1985 37.3184H23.8007C24.2766 37.3184 24.6622 36.9328 24.6622 36.4569V27.4216C24.6622 26.9456 24.2766 26.56 23.8007 26.56ZM22.9406 35.5953H16.0601V28.2816H22.9406V35.5953Z" fill="url(#paint1_linear)"/>
<path d="M36.9205 26.56H28.3183C27.8423 26.56 27.4567 26.9456 27.4567 27.4216V36.4569C27.4567 36.9328 27.8423 37.3184 28.3183 37.3184H36.9205C37.3964 37.3184 37.7821 36.9328 37.7821 36.4569V27.4216C37.7805 26.9456 37.3949 26.56 36.9205 26.56ZM36.0589 35.5953H29.1783V28.2816H36.0589V35.5953Z" fill="url(#paint2_linear)"/>
<path d="M50.0418 26.56H41.4396C40.9636 26.56 40.578 26.9456 40.578 27.4216V36.4569C40.578 36.9328 40.9636 37.3184 41.4396 37.3184H50.0418C50.5177 37.3184 50.9034 36.9328 50.9034 36.4569V27.4216C50.9018 26.9456 50.5162 26.56 50.0418 26.56ZM49.1802 35.5953H42.2996V28.2816H49.1802V35.5953Z" fill="url(#paint3_linear)"/>
<path d="M23.8007 51.0794H15.1985C14.7225 51.0794 14.3369 51.4651 14.3369 51.941V60.9748C14.3369 61.4507 14.7225 61.8364 15.1985 61.8364H23.8007C24.2766 61.8364 24.6622 61.4507 24.6622 60.9748V51.941C24.6622 51.4651 24.2766 51.0794 23.8007 51.0794ZM22.9406 60.1132H16.0601V52.8011H22.9406V60.1132Z" fill="url(#paint4_linear)"/>
<path d="M50.0418 51.0794H41.4396C40.9636 51.0794 40.578 51.4651 40.578 51.941V60.9748C40.578 61.4507 40.9636 61.8364 41.4396 61.8364H50.0418C50.5177 61.8364 50.9034 61.4507 50.9034 60.9748V51.941C50.9018 51.4651 50.5162 51.0794 50.0418 51.0794ZM49.1802 60.1132H42.2996V52.8011H49.1802V60.1132Z" fill="url(#paint5_linear)"/>
<path d="M23.8008 7.3616H41.4382C41.9142 7.3616 42.2998 6.97594 42.2998 6.5C42.2998 6.02406 41.9142 5.63841 41.4382 5.63841H23.8008C23.3249 5.63841 22.9392 6.02406 22.9392 6.5C22.9392 6.97594 23.3264 7.3616 23.8008 7.3616Z" fill="url(#paint6_linear)"/>
<path d="M63.3761 65.2768H54.7739V48.403H59.362C59.8379 48.403 60.2235 48.0174 60.2235 47.5414V41.3327C60.2235 40.8568 59.8379 40.4711 59.362 40.4711H54.7739V23.6004H59.362C59.8379 23.6004 60.2235 23.2148 60.2235 22.7388V16.5301C60.2235 16.0542 59.8379 15.6685 59.362 15.6685H43.5074V11.7447C46.0815 11.33 48.0602 9.10787 48.0602 6.41902C48.0602 3.43022 45.6331 1 42.6473 1H22.5965C19.6077 1 17.1775 3.43022 17.1775 6.41902C17.1775 9.1094 19.1562 11.33 21.7364 11.7447V15.6685H5.87574C5.3998 15.6685 5.01414 16.0542 5.01414 16.5301V22.7388C5.01414 23.2148 5.3998 23.6004 5.87574 23.6004H10.4638V40.4727H5.87574C5.3998 40.4727 5.01414 40.8583 5.01414 41.3343V47.5429C5.01414 48.0189 5.3998 48.4045 5.87574 48.4045H10.4638V65.2768H1.86159C1.38565 65.2768 1 65.6625 1 66.1384C1 66.6143 1.38565 67 1.86159 67H63.3746C63.8505 67 64.2362 66.6143 64.2362 66.1384C64.2362 65.6625 63.8505 65.2768 63.3761 65.2768ZM18.8991 6.42055C18.8991 4.38057 20.555 2.72319 22.5965 2.72319H42.6473C44.6827 2.72319 46.3386 4.38057 46.3386 6.42055C46.3386 8.45593 44.6827 10.1148 42.6473 10.1148H22.5965C20.555 10.1148 18.8991 8.45593 18.8991 6.42055ZM23.4581 11.8365H41.7857V15.6716H23.4581V11.8365ZM6.73733 17.3917H58.5004V21.8788H6.73733V17.3917ZM12.1854 23.6004H53.0507V40.4727H12.1854V23.6004ZM6.73733 42.1943H58.5004V46.6814H6.73733V42.1943ZM29.1786 65.2768V52.8028H36.0591V65.2768H29.1786ZM37.7808 65.2768V51.9412C37.7808 51.4653 37.3951 51.0796 36.9192 51.0796H28.317C27.8411 51.0796 27.4554 51.4653 27.4554 51.9412V65.2768H12.1839V48.403H53.0492V65.2753L37.7808 65.2768Z" stroke="url(#paint7_linear)" stroke-width="0.5"/>
<path d="M23.8007 26.56H15.1985C14.7225 26.56 14.3369 26.9456 14.3369 27.4216V36.4569C14.3369 36.9328 14.7225 37.3184 15.1985 37.3184H23.8007C24.2766 37.3184 24.6622 36.9328 24.6622 36.4569V27.4216C24.6622 26.9456 24.2766 26.56 23.8007 26.56ZM22.9406 35.5953H16.0601V28.2816H22.9406V35.5953Z" stroke="url(#paint8_linear)" stroke-width="0.5"/>
<path d="M36.9205 26.56H28.3183C27.8423 26.56 27.4567 26.9456 27.4567 27.4216V36.4569C27.4567 36.9328 27.8423 37.3184 28.3183 37.3184H36.9205C37.3964 37.3184 37.7821 36.9328 37.7821 36.4569V27.4216C37.7805 26.9456 37.3949 26.56 36.9205 26.56ZM36.0589 35.5953H29.1783V28.2816H36.0589V35.5953Z" stroke="url(#paint9_linear)" stroke-width="0.5"/>
<path d="M50.0418 26.56H41.4396C40.9636 26.56 40.578 26.9456 40.578 27.4216V36.4569C40.578 36.9328 40.9636 37.3184 41.4396 37.3184H50.0418C50.5177 37.3184 50.9034 36.9328 50.9034 36.4569V27.4216C50.9018 26.9456 50.5162 26.56 50.0418 26.56ZM49.1802 35.5953H42.2996V28.2816H49.1802V35.5953Z" stroke="url(#paint10_linear)" stroke-width="0.5"/>
<path d="M23.8007 51.0794H15.1985C14.7225 51.0794 14.3369 51.4651 14.3369 51.941V60.9748C14.3369 61.4507 14.7225 61.8364 15.1985 61.8364H23.8007C24.2766 61.8364 24.6622 61.4507 24.6622 60.9748V51.941C24.6622 51.4651 24.2766 51.0794 23.8007 51.0794ZM22.9406 60.1132H16.0601V52.8011H22.9406V60.1132Z" stroke="url(#paint11_linear)" stroke-width="0.5"/>
<path d="M50.0418 51.0794H41.4396C40.9636 51.0794 40.578 51.4651 40.578 51.941V60.9748C40.578 61.4507 40.9636 61.8364 41.4396 61.8364H50.0418C50.5177 61.8364 50.9034 61.4507 50.9034 60.9748V51.941C50.9018 51.4651 50.5162 51.0794 50.0418 51.0794ZM49.1802 60.1132H42.2996V52.8011H49.1802V60.1132Z" stroke="url(#paint12_linear)" stroke-width="0.5"/>
<path d="M23.8008 7.3616H41.4382C41.9142 7.3616 42.2998 6.97594 42.2998 6.5C42.2998 6.02406 41.9142 5.63841 41.4382 5.63841H23.8008C23.3249 5.63841 22.9392 6.02406 22.9392 6.5C22.9392 6.97594 23.3264 7.3616 23.8008 7.3616Z" stroke="url(#paint13_linear)" stroke-width="0.5"/>
<defs>
<linearGradient id="paint0_linear" x1="64.2362" y1="34" x2="1" y2="34" gradientUnits="userSpaceOnUse">
<stop stop-color="#06EA84"/>
<stop offset="1" stop-color="#2BC47B"/>
</linearGradient>
<linearGradient id="paint1_linear" x1="64.2362" y1="34" x2="1" y2="34" gradientUnits="userSpaceOnUse">
<stop stop-color="#06EA84"/>
<stop offset="1" stop-color="#2BC47B"/>
</linearGradient>
<linearGradient id="paint2_linear" x1="64.2362" y1="34" x2="1" y2="34" gradientUnits="userSpaceOnUse">
<stop stop-color="#06EA84"/>
<stop offset="1" stop-color="#2BC47B"/>
</linearGradient>
<linearGradient id="paint3_linear" x1="64.2362" y1="34" x2="1" y2="34" gradientUnits="userSpaceOnUse">
<stop stop-color="#06EA84"/>
<stop offset="1" stop-color="#2BC47B"/>
</linearGradient>
<linearGradient id="paint4_linear" x1="64.2362" y1="34" x2="1" y2="34" gradientUnits="userSpaceOnUse">
<stop stop-color="#06EA84"/>
<stop offset="1" stop-color="#2BC47B"/>
</linearGradient>
<linearGradient id="paint5_linear" x1="64.2362" y1="34" x2="1" y2="34" gradientUnits="userSpaceOnUse">
<stop stop-color="#06EA84"/>
<stop offset="1" stop-color="#2BC47B"/>
</linearGradient>
<linearGradient id="paint6_linear" x1="64.2362" y1="34" x2="1" y2="34" gradientUnits="userSpaceOnUse">
<stop stop-color="#06EA84"/>
<stop offset="1" stop-color="#2BC47B"/>
</linearGradient>
<linearGradient id="paint7_linear" x1="64.2362" y1="34" x2="1" y2="34" gradientUnits="userSpaceOnUse">
<stop stop-color="#06EA84"/>
<stop offset="1" stop-color="#2BC47B"/>
</linearGradient>
<linearGradient id="paint8_linear" x1="64.2362" y1="34" x2="1" y2="34" gradientUnits="userSpaceOnUse">
<stop stop-color="#06EA84"/>
<stop offset="1" stop-color="#2BC47B"/>
</linearGradient>
<linearGradient id="paint9_linear" x1="64.2362" y1="34" x2="1" y2="34" gradientUnits="userSpaceOnUse">
<stop stop-color="#06EA84"/>
<stop offset="1" stop-color="#2BC47B"/>
</linearGradient>
<linearGradient id="paint10_linear" x1="64.2362" y1="34" x2="1" y2="34" gradientUnits="userSpaceOnUse">
<stop stop-color="#06EA84"/>
<stop offset="1" stop-color="#2BC47B"/>
</linearGradient>
<linearGradient id="paint11_linear" x1="64.2362" y1="34" x2="1" y2="34" gradientUnits="userSpaceOnUse">
<stop stop-color="#06EA84"/>
<stop offset="1" stop-color="#2BC47B"/>
</linearGradient>
<linearGradient id="paint12_linear" x1="64.2362" y1="34" x2="1" y2="34" gradientUnits="userSpaceOnUse">
<stop stop-color="#06EA84"/>
<stop offset="1" stop-color="#2BC47B"/>
</linearGradient>
<linearGradient id="paint13_linear" x1="64.2362" y1="34" x2="1" y2="34" gradientUnits="userSpaceOnUse">
<stop stop-color="#06EA84"/>
<stop offset="1" stop-color="#2BC47B"/>
</linearGradient>
</defs>
</svg>
