<svg width="68" height="68" viewBox="0 0 68 68" fill="none" xmlns="http://www.w3.org/2000/svg">
<path d="M28.5739 42.7338C28.1178 42.7338 27.7489 43.1032 27.7489 43.5588V46.9583C27.7489 47.4139 28.1178 47.7833 28.5739 47.7833C29.0299 47.7833 29.3989 47.4139 29.3989 46.9583V43.5588C29.3989 43.1032 29.0299 42.7338 28.5739 42.7338Z" fill="url(#paint0_linear)"/>
<path d="M60.516 54.2125H56.1139C55.6579 54.2125 55.2889 54.5819 55.2889 55.0375V61.9811C55.2889 62.4367 55.6579 62.8061 56.1139 62.8061H60.516C60.972 62.8061 61.341 62.4367 61.341 61.9811V55.0375C61.341 54.5819 60.972 54.2125 60.516 54.2125ZM59.691 61.1561H56.9389V55.8625H59.691V61.1561Z" fill="url(#paint1_linear)"/>
<path d="M52.1871 54.2125H47.7849C47.3289 54.2125 46.9599 54.5819 46.9599 55.0375V61.9811C46.9599 62.4367 47.3289 62.8061 47.7849 62.8061H52.1871C52.6431 62.8061 53.0121 62.4367 53.0121 61.9811V55.0375C53.0121 54.5819 52.6431 54.2125 52.1871 54.2125ZM51.3621 61.1561H48.6099V55.8625H51.3621V61.1561Z" fill="url(#paint2_linear)"/>
<path d="M20.2562 54.2125H15.854C15.398 54.2125 15.029 54.5819 15.029 55.0375V61.9811C15.029 62.4367 15.398 62.8061 15.854 62.8061H20.2562C20.7122 62.8061 21.0812 62.4367 21.0812 61.9811V55.0375C21.0812 54.5819 20.7122 54.2125 20.2562 54.2125ZM19.4312 61.1561H16.679V55.8625H19.4312V61.1561Z" fill="url(#paint3_linear)"/>
<path d="M11.9272 54.2125H7.52507C7.06907 54.2125 6.70007 54.5819 6.70007 55.0375V61.9811C6.70007 62.4367 7.06907 62.8061 7.52507 62.8061H11.9272C12.3832 62.8061 12.7522 62.4367 12.7522 61.9811V55.0375C12.7522 54.5819 12.3832 54.2125 11.9272 54.2125ZM11.1022 61.1561H8.35007V55.8625H11.1022V61.1561Z" fill="url(#paint4_linear)"/>
<path d="M66.9976 22.6236L65.3218 1.75894C65.2872 1.33032 64.9294 1 64.4992 1H3.50078C3.07056 1 2.71284 1.33032 2.6782 1.75894L1.00242 22.6236C0.99995 22.6543 1.01289 22.6828 1.01385 22.7133C1.01178 22.7371 1 22.7576 1 22.7819C1 24.321 1.73139 25.6907 2.8635 26.5742V66.175C2.8635 66.6306 3.2325 67 3.6885 67H64.5194C64.9754 67 65.3444 66.6306 65.3444 66.175V26.4018C66.3567 25.5174 67 24.2244 67 22.7819C67 22.7576 66.9882 22.7371 66.9862 22.7133C66.9871 22.6828 67 22.6543 66.9976 22.6236ZM62.1531 25.9538C60.6456 25.9538 59.3862 24.91 59.0509 23.5147H65.2554C64.92 24.91 63.6607 25.9538 62.1531 25.9538ZM63.6944 49.5944H44.4897V46.5812H63.6944V49.5944ZM4.5135 46.5812H23.3096V49.5944H4.5135V46.5812ZM2.74462 23.5147H8.94913C8.61378 24.91 7.35442 25.9538 5.84687 25.9538C4.33933 25.9538 3.07997 24.91 2.74462 23.5147ZM21.9344 25.9538C20.4268 25.9538 19.1675 24.91 18.8321 23.5147H25.0366C24.7013 24.91 23.4419 25.9538 21.9344 25.9538ZM24.9596 61.5001H42.8397V65.35H24.9596V61.5001ZM42.8397 26.5827V59.8501H24.9596V26.5827C24.9596 26.5704 24.9532 26.5602 24.9527 26.5482C25.3392 26.241 25.6792 25.8785 25.9562 25.4695C26.8276 26.7559 28.3052 27.6038 29.9781 27.6038C31.6511 27.6038 33.1286 26.7559 34 25.4695C34.8714 26.7559 36.3489 27.6038 38.0219 27.6038C39.6948 27.6038 41.1724 26.7559 42.0438 25.4695C42.2788 25.8164 42.5608 26.1282 42.8759 26.4032C42.8623 26.4628 42.8397 26.519 42.8397 26.5827ZM26.8759 23.5147H33.0804C32.745 24.91 31.4857 25.9538 29.9781 25.9538C28.4706 25.9538 27.2112 24.91 26.8759 23.5147ZM34.9196 23.5147H41.1241C40.7888 24.91 39.5294 25.9538 38.0219 25.9538C36.5143 25.9538 35.255 24.91 34.9196 23.5147ZM42.9634 23.5147H49.1679C48.8325 24.91 47.5732 25.9538 46.0656 25.9538C44.5581 25.9538 43.2987 24.91 42.9634 23.5147ZM4.26213 2.65H63.7379L65.2807 21.8647H2.71929L4.26213 2.65ZM57.2116 23.5147C56.8763 24.91 55.6169 25.9538 54.1094 25.9538C52.6018 25.9538 51.3425 24.91 51.0071 23.5147H57.2116ZM16.9929 23.5147C16.6575 24.91 15.3982 25.9538 13.8906 25.9538C12.3831 25.9538 11.1237 24.91 10.7884 23.5147H16.9929ZM5.84687 27.6038C7.51984 27.6038 8.99737 26.7559 9.86875 25.4695C10.7401 26.7559 12.2177 27.6038 13.8906 27.6038C15.5636 27.6038 17.0411 26.7559 17.9125 25.4695C18.7839 26.7559 20.2614 27.6038 21.9344 27.6038C22.4123 27.6038 22.8732 27.532 23.3096 27.4032V44.9312H4.5135V27.4139C4.93773 27.535 5.38407 27.6038 5.84687 27.6038ZM4.5135 51.2444H23.3096V65.35H4.5135V51.2444ZM44.4897 65.35V51.2444H63.6944V65.35H44.4897ZM63.6944 44.9312H44.4897V27.337C44.9846 27.507 45.5134 27.6038 46.0656 27.6038C47.7386 27.6038 49.2161 26.7559 50.0875 25.4695C50.9589 26.7559 52.4364 27.6038 54.1094 27.6038C55.7823 27.6038 57.2599 26.7559 58.1312 25.4695C59.0026 26.7559 60.4802 27.6038 62.1531 27.6038C62.6923 27.6038 63.2095 27.512 63.6944 27.3496V44.9312Z" fill="url(#paint5_linear)"/>
<path d="M28.5739 42.7338C28.1178 42.7338 27.7489 43.1032 27.7489 43.5588V46.9583C27.7489 47.4139 28.1178 47.7833 28.5739 47.7833C29.0299 47.7833 29.3989 47.4139 29.3989 46.9583V43.5588C29.3989 43.1032 29.0299 42.7338 28.5739 42.7338Z" stroke="url(#paint6_linear)" stroke-width="0.5"/>
<path d="M60.516 54.2125H56.1139C55.6579 54.2125 55.2889 54.5819 55.2889 55.0375V61.9811C55.2889 62.4367 55.6579 62.8061 56.1139 62.8061H60.516C60.972 62.8061 61.341 62.4367 61.341 61.9811V55.0375C61.341 54.5819 60.972 54.2125 60.516 54.2125ZM59.691 61.1561H56.9389V55.8625H59.691V61.1561Z" stroke="url(#paint7_linear)" stroke-width="0.5"/>
<path d="M52.1871 54.2125H47.7849C47.3289 54.2125 46.9599 54.5819 46.9599 55.0375V61.9811C46.9599 62.4367 47.3289 62.8061 47.7849 62.8061H52.1871C52.6431 62.8061 53.0121 62.4367 53.0121 61.9811V55.0375C53.0121 54.5819 52.6431 54.2125 52.1871 54.2125ZM51.3621 61.1561H48.6099V55.8625H51.3621V61.1561Z" stroke="url(#paint8_linear)" stroke-width="0.5"/>
<path d="M20.2562 54.2125H15.854C15.398 54.2125 15.029 54.5819 15.029 55.0375V61.9811C15.029 62.4367 15.398 62.8061 15.854 62.8061H20.2562C20.7122 62.8061 21.0812 62.4367 21.0812 61.9811V55.0375C21.0812 54.5819 20.7122 54.2125 20.2562 54.2125ZM19.4312 61.1561H16.679V55.8625H19.4312V61.1561Z" stroke="url(#paint9_linear)" stroke-width="0.5"/>
<path d="M11.9272 54.2125H7.52507C7.06907 54.2125 6.70007 54.5819 6.70007 55.0375V61.9811C6.70007 62.4367 7.06907 62.8061 7.52507 62.8061H11.9272C12.3832 62.8061 12.7522 62.4367 12.7522 61.9811V55.0375C12.7522 54.5819 12.3832 54.2125 11.9272 54.2125ZM11.1022 61.1561H8.35007V55.8625H11.1022V61.1561Z" stroke="url(#paint10_linear)" stroke-width="0.5"/>
<path d="M66.9976 22.6236L65.3218 1.75894C65.2872 1.33032 64.9294 1 64.4992 1H3.50078C3.07056 1 2.71284 1.33032 2.6782 1.75894L1.00242 22.6236C0.99995 22.6543 1.01289 22.6828 1.01385 22.7133C1.01178 22.7371 1 22.7576 1 22.7819C1 24.321 1.73139 25.6907 2.8635 26.5742V66.175C2.8635 66.6306 3.2325 67 3.6885 67H64.5194C64.9754 67 65.3444 66.6306 65.3444 66.175V26.4018C66.3567 25.5174 67 24.2244 67 22.7819C67 22.7576 66.9882 22.7371 66.9862 22.7133C66.9871 22.6828 67 22.6543 66.9976 22.6236ZM62.1531 25.9538C60.6456 25.9538 59.3862 24.91 59.0509 23.5147H65.2554C64.92 24.91 63.6607 25.9538 62.1531 25.9538ZM63.6944 49.5944H44.4897V46.5812H63.6944V49.5944ZM4.5135 46.5812H23.3096V49.5944H4.5135V46.5812ZM2.74462 23.5147H8.94913C8.61378 24.91 7.35442 25.9538 5.84687 25.9538C4.33933 25.9538 3.07997 24.91 2.74462 23.5147ZM21.9344 25.9538C20.4268 25.9538 19.1675 24.91 18.8321 23.5147H25.0366C24.7013 24.91 23.4419 25.9538 21.9344 25.9538ZM24.9596 61.5001H42.8397V65.35H24.9596V61.5001ZM42.8397 26.5827V59.8501H24.9596V26.5827C24.9596 26.5704 24.9532 26.5602 24.9527 26.5482C25.3392 26.241 25.6792 25.8785 25.9562 25.4695C26.8276 26.7559 28.3052 27.6038 29.9781 27.6038C31.6511 27.6038 33.1286 26.7559 34 25.4695C34.8714 26.7559 36.3489 27.6038 38.0219 27.6038C39.6948 27.6038 41.1724 26.7559 42.0438 25.4695C42.2788 25.8164 42.5608 26.1282 42.8759 26.4032C42.8623 26.4628 42.8397 26.519 42.8397 26.5827ZM26.8759 23.5147H33.0804C32.745 24.91 31.4857 25.9538 29.9781 25.9538C28.4706 25.9538 27.2112 24.91 26.8759 23.5147ZM34.9196 23.5147H41.1241C40.7888 24.91 39.5294 25.9538 38.0219 25.9538C36.5143 25.9538 35.255 24.91 34.9196 23.5147ZM42.9634 23.5147H49.1679C48.8325 24.91 47.5732 25.9538 46.0656 25.9538C44.5581 25.9538 43.2987 24.91 42.9634 23.5147ZM4.26213 2.65H63.7379L65.2807 21.8647H2.71929L4.26213 2.65ZM57.2116 23.5147C56.8763 24.91 55.6169 25.9538 54.1094 25.9538C52.6018 25.9538 51.3425 24.91 51.0071 23.5147H57.2116ZM16.9929 23.5147C16.6575 24.91 15.3982 25.9538 13.8906 25.9538C12.3831 25.9538 11.1237 24.91 10.7884 23.5147H16.9929ZM5.84687 27.6038C7.51984 27.6038 8.99737 26.7559 9.86875 25.4695C10.7401 26.7559 12.2177 27.6038 13.8906 27.6038C15.5636 27.6038 17.0411 26.7559 17.9125 25.4695C18.7839 26.7559 20.2614 27.6038 21.9344 27.6038C22.4123 27.6038 22.8732 27.532 23.3096 27.4032V44.9312H4.5135V27.4139C4.93773 27.535 5.38407 27.6038 5.84687 27.6038ZM4.5135 51.2444H23.3096V65.35H4.5135V51.2444ZM44.4897 65.35V51.2444H63.6944V65.35H44.4897ZM63.6944 44.9312H44.4897V27.337C44.9846 27.507 45.5134 27.6038 46.0656 27.6038C47.7386 27.6038 49.2161 26.7559 50.0875 25.4695C50.9589 26.7559 52.4364 27.6038 54.1094 27.6038C55.7823 27.6038 57.2599 26.7559 58.1312 25.4695C59.0026 26.7559 60.4802 27.6038 62.1531 27.6038C62.6923 27.6038 63.2095 27.512 63.6944 27.3496V44.9312Z" stroke="url(#paint11_linear)" stroke-width="0.5"/>
<defs>
<linearGradient id="paint0_linear" x1="67" y1="34" x2="1" y2="34" gradientUnits="userSpaceOnUse">
<stop stop-color="#06EA84"/>
<stop offset="1" stop-color="#2BC47B"/>
</linearGradient>
<linearGradient id="paint1_linear" x1="67" y1="34" x2="1" y2="34" gradientUnits="userSpaceOnUse">
<stop stop-color="#06EA84"/>
<stop offset="1" stop-color="#2BC47B"/>
</linearGradient>
<linearGradient id="paint2_linear" x1="67" y1="34" x2="1" y2="34" gradientUnits="userSpaceOnUse">
<stop stop-color="#06EA84"/>
<stop offset="1" stop-color="#2BC47B"/>
</linearGradient>
<linearGradient id="paint3_linear" x1="67" y1="34" x2="1" y2="34" gradientUnits="userSpaceOnUse">
<stop stop-color="#06EA84"/>
<stop offset="1" stop-color="#2BC47B"/>
</linearGradient>
<linearGradient id="paint4_linear" x1="67" y1="34" x2="1" y2="34" gradientUnits="userSpaceOnUse">
<stop stop-color="#06EA84"/>
<stop offset="1" stop-color="#2BC47B"/>
</linearGradient>
<linearGradient id="paint5_linear" x1="67" y1="34" x2="1" y2="34" gradientUnits="userSpaceOnUse">
<stop stop-color="#06EA84"/>
<stop offset="1" stop-color="#2BC47B"/>
</linearGradient>
<linearGradient id="paint6_linear" x1="67" y1="34" x2="1" y2="34" gradientUnits="userSpaceOnUse">
<stop stop-color="#06EA84"/>
<stop offset="1" stop-color="#2BC47B"/>
</linearGradient>
<linearGradient id="paint7_linear" x1="67" y1="34" x2="1" y2="34" gradientUnits="userSpaceOnUse">
<stop stop-color="#06EA84"/>
<stop offset="1" stop-color="#2BC47B"/>
</linearGradient>
<linearGradient id="paint8_linear" x1="67" y1="34" x2="1" y2="34" gradientUnits="userSpaceOnUse">
<stop stop-color="#06EA84"/>
<stop offset="1" stop-color="#2BC47B"/>
</linearGradient>
<linearGradient id="paint9_linear" x1="67" y1="34" x2="1" y2="34" gradientUnits="userSpaceOnUse">
<stop stop-color="#06EA84"/>
<stop offset="1" stop-color="#2BC47B"/>
</linearGradient>
<linearGradient id="paint10_linear" x1="67" y1="34" x2="1" y2="34" gradientUnits="userSpaceOnUse">
<stop stop-color="#06EA84"/>
<stop offset="1" stop-color="#2BC47B"/>
</linearGradient>
<linearGradient id="paint11_linear" x1="67" y1="34" x2="1" y2="34" gradientUnits="userSpaceOnUse">
<stop stop-color="#06EA84"/>
<stop offset="1" stop-color="#2BC47B"/>
</linearGradient>
</defs>
</svg>
