<svg width="56" height="68" viewBox="0 0 56 68" fill="none" xmlns="http://www.w3.org/2000/svg">
<path d="M52.1262 65.3196V1L25.3444 14.6026H21.8173V8.59108H16.2939V5.09843H14.6135V8.59108H9.09015V14.6026H4.52122V65.3196H1V67H55.6382V65.3196H52.1262ZM50.4458 23.2355H36.3878V18.5019H50.4458V23.2355ZM50.4458 35.2737H36.3878V30.5401H50.4458V35.2737ZM50.4458 47.2607H36.3878V42.5262H50.4458V47.2607ZM50.4458 59.2972H36.3878V54.5644H50.4458V59.2972ZM50.4458 16.8224H34.7074V24.9167H50.4458V28.8597H34.7074V36.9541H50.4458V40.8467H34.7074V48.9419H50.4458V52.8849H34.7074V60.9784H50.4458V65.3205H26.3862V15.9595L50.4458 3.73817V16.8224ZM10.7705 10.2715H20.1369V14.6026H10.7705V10.2715ZM6.20159 22.9986H20.1369V30.8728H6.20159V22.9986ZM6.20159 36.8617H20.1369V44.7367H6.20159V36.8617ZM6.20159 51.2289H20.1369V59.1039H6.20159V51.2289ZM6.20159 60.7843H21.8173V49.5485H6.20159V46.4171H21.8173V35.1813H6.20159V32.5532H21.8173V21.3182H6.20159V16.283H24.7059V65.3196H6.20159V60.7843Z" fill="url(#paint0_linear)" stroke="url(#paint1_linear)" stroke-width="0.5"/>
<defs>
<linearGradient id="paint0_linear" x1="55.6382" y1="34" x2="1" y2="34" gradientUnits="userSpaceOnUse">
<stop stop-color="#06EA84"/>
<stop offset="1" stop-color="#2BC47B"/>
</linearGradient>
<linearGradient id="paint1_linear" x1="55.6382" y1="34" x2="1" y2="34" gradientUnits="userSpaceOnUse">
<stop stop-color="#06EA84"/>
<stop offset="1" stop-color="#2BC47B"/>
</linearGradient>
</defs>
</svg>
