<svg width="73" height="66" viewBox="0 0 73 66" fill="none" xmlns="http://www.w3.org/2000/svg">
<path d="M1.13451 66H71.474C72.1547 66 72.6085 65.5462 72.6085 64.8655C72.6085 64.1848 72.1547 63.731 71.474 63.731H69.3184V15.4009C69.3184 14.9471 69.0915 14.4933 68.6377 14.3799L36.7581 0.0850881C36.4177 -0.0283627 36.0774 -0.0283627 35.8505 0.0850881L3.97078 14.2664C3.51697 14.4933 3.29007 14.8337 3.29007 15.2875V63.6175H1.13451C0.453803 63.6175 0 64.0713 0 64.752C0 65.4328 0.453803 66 1.13451 66ZM35.1697 63.731H18.8328V48.5286H23.2574V52.4994C23.2574 52.9532 23.4843 53.2935 23.8247 53.5204C24.165 53.7473 24.6188 53.7473 24.9592 53.5204L27.1147 52.2725L29.2703 53.5204C29.3838 53.6339 29.6107 53.6339 29.8376 53.6339C30.0645 53.6339 30.1779 53.5204 30.4048 53.5204C30.7452 53.2935 30.9721 52.9532 30.9721 52.4994V48.5286H35.1697V63.731ZM33.0142 36.049C33.2411 36.1624 33.3545 36.1624 33.5814 36.1624C33.8083 36.1624 33.9218 36.1624 34.1487 36.049L36.3043 34.801L38.4598 36.049C38.8002 36.2759 39.254 36.2759 39.5943 36.049C39.9347 35.8221 40.1616 35.4817 40.1616 35.0279V31.0572H44.5862V46.2596C38.6867 46.2596 34.1487 46.2596 28.2492 46.2596V31.0572H32.5604V35.0279C32.4469 35.4817 32.6738 35.8221 33.0142 36.049ZM34.7159 33.0993V31.0572H37.7791V33.0993L36.7581 32.532C36.4177 32.3051 35.9639 32.3051 35.6236 32.532L34.7159 33.0993ZM47.1955 48.5286V50.5707L46.1745 50.0034C45.8341 49.7765 45.3803 49.7765 45.04 50.0034L44.0189 50.5707V48.5286C44.4727 48.5286 47.309 48.5286 47.1955 48.5286ZM28.5896 48.5286V50.5707L27.5685 50.0034C27.2282 49.7765 26.7744 49.7765 26.434 50.0034L25.413 50.5707V48.5286C25.5264 48.5286 28.7031 48.5286 28.5896 48.5286ZM53.7757 63.731H37.4388V48.5286H41.8633V52.4994C41.8633 52.9532 42.0902 53.2935 42.4306 53.5204C42.771 53.7473 43.2248 53.7473 43.5651 53.5204L45.7207 52.2725L47.7628 53.5204C47.9897 53.6339 48.1031 53.6339 48.33 53.6339C48.5569 53.6339 48.7838 53.5204 48.8973 53.5204C49.2376 53.2935 49.4645 52.9532 49.4645 52.4994V48.5286H53.8891V63.731H53.7757ZM59.7886 63.731H56.0447V47.3941C56.0447 47.0537 55.9312 46.8268 55.7043 46.5999C55.4774 46.373 55.2505 46.2596 54.9102 46.2596C54.6833 46.2596 46.4014 46.2596 46.7417 46.2596V29.9226C46.7417 29.5823 46.6283 29.3554 46.4014 29.1285C46.1745 28.9016 45.9476 28.7881 45.6072 28.7881C38.9136 28.7881 33.6949 28.7881 27.0013 28.7881C26.3206 28.7881 25.8668 29.3554 25.8668 29.9226V46.2596C25.6399 46.2596 17.358 46.2596 17.6983 46.2596C17.358 46.2596 17.1311 46.373 16.9042 46.5999C16.6773 46.8268 16.5638 47.0537 16.5638 47.3941V63.731H12.8199V23.456H59.902V63.731H59.7886ZM5.55909 16.0817L36.3043 2.3541L67.0494 16.0817V63.731H62.171V22.3214C62.171 21.6407 61.7172 21.1869 61.0365 21.1869H11.6854C11.1182 21.1869 10.5509 21.6407 10.5509 22.3214V63.731H5.55909V16.0817Z" fill="url(#paint0_linear)"/>
<defs>
<linearGradient id="paint0_linear" x1="72.6085" y1="33" x2="1.21755e-06" y2="33" gradientUnits="userSpaceOnUse">
<stop stop-color="#06EA84"/>
<stop offset="1" stop-color="#2BC47B"/>
</linearGradient>
</defs>
</svg>
