<svg width="152" height="78" viewBox="0 0 152 78" fill="none" xmlns="http://www.w3.org/2000/svg">
<path d="M41.5234 62.1991V61.6991H41.0234H13.9062C6.51162 61.6991 0.5 55.7195 0.5 48.377V13.822C0.5 6.47956 6.51162 0.5 13.9062 0.5H75.0938C82.4884 0.5 88.5 6.47956 88.5 13.822V31.0995C88.5 32.729 87.1703 34.055 85.5234 34.055C83.8766 34.055 82.5469 32.729 82.5469 31.0995V13.822C82.5469 9.73228 79.201 6.41101 75.0938 6.41101H13.9062C9.79902 6.41101 6.45312 9.73228 6.45312 13.822V48.377C6.45312 52.4668 9.79902 55.7881 13.9062 55.7881H75.0938C79.201 55.7881 82.5469 52.4668 82.5469 48.377C82.5469 46.7476 83.8766 45.4215 85.5234 45.4215C87.1703 45.4215 88.5 46.7476 88.5 48.377C88.5 55.7195 82.4884 61.6991 75.0938 61.6991H47.9766H47.4766V62.1991V69.089V69.589H47.9766H60.1445C61.7914 69.589 63.1211 70.915 63.1211 72.5445C63.1211 74.174 61.7914 75.5 60.1445 75.5H28.8555C27.2086 75.5 25.8789 74.174 25.8789 72.5445C25.8789 70.915 27.2086 69.589 28.8555 69.589H41.0234H41.5234V69.089V62.1991Z" fill="url(#paint0_linear)" stroke="url(#paint1_linear)"/>
<path d="M150.339 43.2407C150.336 43.2014 150.33 43.1622 150.322 43.1236C150.306 42.9904 150.271 42.86 150.218 42.7368C150.206 42.7114 150.209 42.686 150.198 42.662C150.187 42.638 150.175 42.638 150.168 42.6239C150.091 42.4783 149.989 42.3474 149.866 42.2371C149.842 42.216 149.814 42.2033 149.789 42.1835C149.719 42.1256 149.644 42.0743 149.566 42.0296L129.804 32.1489C129.407 31.9504 128.939 31.9504 128.542 32.1489L98.7806 42.0296C98.3021 42.2687 97.9998 42.758 98 43.293V64.7006C97.997 65.2383 98.2998 65.7307 98.7806 65.971L118.542 75.8518C118.555 75.8518 118.569 75.8518 118.582 75.8603C118.954 76.0466 119.392 76.0466 119.765 75.8603C119.777 75.8603 119.791 75.8603 119.804 75.8518L149.566 65.971C150.046 65.7307 150.349 65.2383 150.346 64.7006V43.293C150.346 43.2746 150.339 43.2591 150.339 43.2407ZM147.523 63.8283L120.585 72.2975V68.9353C120.585 68.1557 119.953 67.5237 119.173 67.5237C118.394 67.5237 117.762 68.1557 117.762 68.9353V72.2975L100.823 63.8283V44.1653L129.173 34.9903L145.778 43.293L119.159 51.6027L111.044 47.8428C110.321 47.5498 109.498 47.8979 109.205 48.6204C108.937 49.2805 109.203 50.0367 109.825 50.3836L117.762 54.063V71.2891C117.762 72.0686 118.394 72.7006 119.173 72.7006C119.953 72.7006 120.585 72.0686 120.585 71.2891V54.0461L147.523 45.5768V63.8283Z" fill="#08E984" stroke="#06EA84" stroke-width="3"/>
<path d="M34.7334 20.226V22.8599H28.7281V39.4761H34.7546V42.0429H26V20.226H34.7334Z" fill="url(#paint2_linear)"/>
<path d="M54.7862 42.0429V39.409H60.7914V22.7928H54.765V20.226H63.5195V42.0429H54.7862Z" fill="url(#paint3_linear)"/>
<path d="M39.1145 14.1738L41.3996 13L52.4026 34.5162L42.0807 31.6459L50.4101 47.955L48.1241 49.1299L37.1169 27.589L47.46 30.4924L39.1145 14.1738Z" fill="url(#paint4_linear)"/>
<path d="M34.7334 20.226V22.8599H28.7281V39.4761H34.7546V42.0429H26V20.226H34.7334Z" stroke="url(#paint5_linear)"/>
<path d="M54.7862 42.0429V39.409H60.7914V22.7928H54.765V20.226H63.5195V42.0429H54.7862Z" stroke="url(#paint6_linear)"/>
<path d="M39.1145 14.1738L41.3996 13L52.4026 34.5162L42.0807 31.6459L50.4101 47.955L48.1241 49.1299L37.1169 27.589L47.46 30.4924L39.1145 14.1738Z" stroke="url(#paint7_linear)"/>
<defs>
<linearGradient id="paint0_linear" x1="89" y1="38" x2="1.49241e-06" y2="38" gradientUnits="userSpaceOnUse">
<stop stop-color="#06EA84"/>
<stop offset="1" stop-color="#2BC47B"/>
</linearGradient>
<linearGradient id="paint1_linear" x1="89" y1="38" x2="1.49241e-06" y2="38" gradientUnits="userSpaceOnUse">
<stop stop-color="#06EA84"/>
<stop offset="1" stop-color="#2BC47B"/>
</linearGradient>
<linearGradient id="paint2_linear" x1="63.5195" y1="31.065" x2="26" y2="31.065" gradientUnits="userSpaceOnUse">
<stop stop-color="#06EA84"/>
<stop offset="1" stop-color="#2BC47B"/>
</linearGradient>
<linearGradient id="paint3_linear" x1="63.5195" y1="31.065" x2="26" y2="31.065" gradientUnits="userSpaceOnUse">
<stop stop-color="#06EA84"/>
<stop offset="1" stop-color="#2BC47B"/>
</linearGradient>
<linearGradient id="paint4_linear" x1="63.5195" y1="31.065" x2="26" y2="31.065" gradientUnits="userSpaceOnUse">
<stop stop-color="#06EA84"/>
<stop offset="1" stop-color="#2BC47B"/>
</linearGradient>
<linearGradient id="paint5_linear" x1="63.5195" y1="31.065" x2="26" y2="31.065" gradientUnits="userSpaceOnUse">
<stop stop-color="#06EA84"/>
<stop offset="1" stop-color="#2BC47B"/>
</linearGradient>
<linearGradient id="paint6_linear" x1="63.5195" y1="31.065" x2="26" y2="31.065" gradientUnits="userSpaceOnUse">
<stop stop-color="#06EA84"/>
<stop offset="1" stop-color="#2BC47B"/>
</linearGradient>
<linearGradient id="paint7_linear" x1="63.5195" y1="31.065" x2="26" y2="31.065" gradientUnits="userSpaceOnUse">
<stop stop-color="#06EA84"/>
<stop offset="1" stop-color="#2BC47B"/>
</linearGradient>
</defs>
</svg>
