<svg width="85" height="85" viewBox="0 0 85 85" fill="none" xmlns="http://www.w3.org/2000/svg">
<path d="M77.9167 46.0417C74.9523 46.0417 72.4129 47.8763 71.361 50.4688H63.75V34.5312H71.361C72.4129 37.1237 74.9523 38.9583 77.9167 38.9583C81.8231 38.9583 85 35.7815 85 31.875C85 27.9685 81.8231 24.7917 77.9167 24.7917C74.9523 24.7917 72.4129 26.6263 71.361 29.2188H63.3746C62.4077 25.5035 59.5 22.5923 55.7848 21.629V13.639C58.3738 12.5871 60.2083 10.0477 60.2083 7.08333C60.2083 3.17687 57.0315 0 53.125 0C49.2185 0 46.0417 3.17687 46.0417 7.08333C46.0417 10.0477 47.8763 12.5871 50.4688 13.639V21.25H34.5312V13.639C37.1237 12.5871 38.9583 10.0477 38.9583 7.08333C38.9583 3.17687 35.7815 0 31.875 0C27.9685 0 24.7917 3.17687 24.7917 7.08333C24.7917 10.0477 26.6263 12.5871 29.2188 13.639V21.6254C25.5035 22.5923 22.5923 25.5035 21.629 29.2188H13.639C12.5871 26.6263 10.0477 24.7917 7.08333 24.7917C3.17687 24.7917 0 27.9685 0 31.875C0 35.7815 3.17687 38.9583 7.08333 38.9583C10.0477 38.9583 12.5871 37.1237 13.639 34.5312H21.25V50.4688H13.639C12.5871 47.8763 10.0477 46.0417 7.08333 46.0417C3.17687 46.0417 0 49.2185 0 53.125C0 57.0315 3.17687 60.2083 7.08333 60.2083C10.0477 60.2083 12.5871 58.3737 13.639 55.7812H21.6254C22.5923 59.4965 25.5 62.4077 29.2152 63.371V71.3575C26.6262 72.4129 24.7917 74.9523 24.7917 77.9167C24.7917 81.8231 27.9685 85 31.875 85C35.7815 85 38.9583 81.8231 38.9583 77.9167C38.9583 74.9523 37.1237 72.4129 34.5312 71.361V63.75H50.4688V71.361C47.8763 72.4129 46.0417 74.9523 46.0417 77.9167C46.0417 81.8231 49.2185 85 53.125 85C57.0315 85 60.2083 81.8231 60.2083 77.9167C60.2083 74.9523 58.3737 72.4129 55.7812 71.361V63.3746C59.4965 62.4077 62.4077 59.5 63.371 55.7848H71.3575C72.4129 58.3738 74.9523 60.2083 77.9167 60.2083C81.8231 60.2083 85 57.0315 85 53.125C85 49.2185 81.8231 46.0417 77.9167 46.0417ZM56.6667 53.125C56.6667 55.0765 55.08 56.6667 53.125 56.6667H31.875C29.92 56.6667 28.3333 55.0765 28.3333 53.125V31.875C28.3333 29.9235 29.92 28.3333 31.875 28.3333H53.125C55.08 28.3333 56.6667 29.9235 56.6667 31.875V53.125Z" fill="url(#paint0_linear)"/>
<defs>
<linearGradient id="paint0_linear" x1="85" y1="42.5" x2="1.42533e-06" y2="42.5" gradientUnits="userSpaceOnUse">
<stop stop-color="#06EA84"/>
<stop offset="1" stop-color="#2BC47B"/>
</linearGradient>
</defs>
</svg>
