<svg width="84" height="100" viewBox="0 0 84 100" fill="none" xmlns="http://www.w3.org/2000/svg">
<path d="M55.37 36.782H26.4025C19.84 36.782 14.5 31.766 14.5 25.6021C14.5 19.8705 19.115 15.1352 25.035 14.4942C26.8975 7.27445 33.92 2 42 2C48.3575 2 54.235 5.272 57.2725 10.4197C64.21 11.2719 69.5 16.8494 69.5 23.5326C69.5 30.8368 63.16 36.782 55.37 36.782ZM42 5.72665C35.205 5.72665 29.3725 10.385 28.435 16.5637C28.295 17.4755 27.5075 18.1488 26.58 18.1488C21.9075 18.1488 18.25 21.4929 18.25 25.6021C18.25 29.7114 21.9075 33.0554 26.4025 33.0554H55.37C61.095 33.0554 65.75 28.7822 65.75 23.5326C65.75 18.4966 61.4725 14.3302 56.01 14.0495C55.335 14.0147 54.73 13.6222 54.43 13.0209C52.205 8.58871 47.325 5.72665 42 5.72665Z" fill="url(#paint0_linear)"/>
<path d="M47.625 61.6264H36.375C33.9625 61.6264 32 59.6761 32 57.2786V48.5831C32 46.1856 33.9625 44.2353 36.375 44.2353H47.625C50.0375 44.2353 52 46.1856 52 48.5831V57.2786C52 59.6761 50.0375 61.6264 47.625 61.6264ZM36.375 47.962C36.03 47.962 35.75 48.2402 35.75 48.5831V57.2786C35.75 57.6215 36.03 57.8997 36.375 57.8997H47.625C47.97 57.8997 48.25 57.6215 48.25 57.2786V48.5831C48.25 48.2402 47.97 47.962 47.625 47.962H36.375Z" fill="url(#paint1_linear)"/>
<path d="M58.1719 98H24.6563C22.2438 98 20.2813 96.0497 20.2813 93.6522V75.6401C20.2813 73.2426 22.2438 71.2924 24.6563 71.2924H58.1719C60.5844 71.2924 62.5469 73.2426 62.5469 75.6401V93.6522C62.5469 96.0497 60.5844 98 58.1719 98ZM24.6563 75.019C24.3113 75.019 24.0313 75.2973 24.0313 75.6401V93.6522C24.0313 93.9951 24.3113 94.2734 24.6563 94.2734H58.1719C58.5169 94.2734 58.7969 93.9951 58.7969 93.6522V75.6401C58.7969 75.2973 58.5169 75.019 58.1719 75.019H24.6563Z" fill="url(#paint2_linear)"/>
<path d="M42 46.7198C40.965 46.7198 40.125 45.885 40.125 44.8564V34.9187C40.125 33.8902 40.965 33.0554 42 33.0554C43.035 33.0554 43.875 33.8902 43.875 34.9187V44.8564C43.875 45.885 43.035 46.7198 42 46.7198Z" fill="url(#paint3_linear)"/>
<path d="M42 73.4274C40.965 73.4274 40.125 72.5926 40.125 71.5641V61.6264C40.125 60.5978 40.965 59.763 42 59.763C43.035 59.763 43.875 60.5978 43.875 61.6264V71.5641C43.875 72.5926 43.035 73.4274 42 73.4274Z" fill="url(#paint4_linear)"/>
<path d="M80.125 55.4153H50.75C49.715 55.4153 48.875 54.5805 48.875 53.552C48.875 52.5234 49.715 51.6886 50.75 51.6886H80.125C81.16 51.6886 82 52.5234 82 53.552C82 54.5805 81.16 55.4153 80.125 55.4153Z" fill="url(#paint5_linear)"/>
<path d="M33.25 55.4153H3.875C2.84 55.4153 2 54.5805 2 53.552C2 52.5234 2.84 51.6886 3.875 51.6886H33.25C34.285 51.6886 35.125 52.5234 35.125 53.552C35.125 54.5805 34.285 55.4153 33.25 55.4153Z" fill="url(#paint6_linear)"/>
<path d="M55.37 36.782H26.4025C19.84 36.782 14.5 31.766 14.5 25.6021C14.5 19.8705 19.115 15.1352 25.035 14.4942C26.8975 7.27445 33.92 2 42 2C48.3575 2 54.235 5.272 57.2725 10.4197C64.21 11.2719 69.5 16.8494 69.5 23.5326C69.5 30.8368 63.16 36.782 55.37 36.782ZM42 5.72665C35.205 5.72665 29.3725 10.385 28.435 16.5637C28.295 17.4755 27.5075 18.1488 26.58 18.1488C21.9075 18.1488 18.25 21.4929 18.25 25.6021C18.25 29.7114 21.9075 33.0554 26.4025 33.0554H55.37C61.095 33.0554 65.75 28.7822 65.75 23.5326C65.75 18.4966 61.4725 14.3302 56.01 14.0495C55.335 14.0147 54.73 13.6222 54.43 13.0209C52.205 8.58871 47.325 5.72665 42 5.72665Z" stroke="url(#paint7_linear)" stroke-width="3.5"/>
<path d="M47.625 61.6264H36.375C33.9625 61.6264 32 59.6761 32 57.2786V48.5831C32 46.1856 33.9625 44.2353 36.375 44.2353H47.625C50.0375 44.2353 52 46.1856 52 48.5831V57.2786C52 59.6761 50.0375 61.6264 47.625 61.6264ZM36.375 47.962C36.03 47.962 35.75 48.2402 35.75 48.5831V57.2786C35.75 57.6215 36.03 57.8997 36.375 57.8997H47.625C47.97 57.8997 48.25 57.6215 48.25 57.2786V48.5831C48.25 48.2402 47.97 47.962 47.625 47.962H36.375Z" stroke="url(#paint8_linear)" stroke-width="3.5"/>
<path d="M58.1719 98H24.6563C22.2438 98 20.2813 96.0497 20.2813 93.6522V75.6401C20.2813 73.2426 22.2438 71.2924 24.6563 71.2924H58.1719C60.5844 71.2924 62.5469 73.2426 62.5469 75.6401V93.6522C62.5469 96.0497 60.5844 98 58.1719 98ZM24.6563 75.019C24.3113 75.019 24.0313 75.2973 24.0313 75.6401V93.6522C24.0313 93.9951 24.3113 94.2734 24.6563 94.2734H58.1719C58.5169 94.2734 58.7969 93.9951 58.7969 93.6522V75.6401C58.7969 75.2973 58.5169 75.019 58.1719 75.019H24.6563Z" stroke="url(#paint9_linear)" stroke-width="3.5"/>
<path d="M42 46.7198C40.965 46.7198 40.125 45.885 40.125 44.8564V34.9187C40.125 33.8902 40.965 33.0554 42 33.0554C43.035 33.0554 43.875 33.8902 43.875 34.9187V44.8564C43.875 45.885 43.035 46.7198 42 46.7198Z" stroke="url(#paint10_linear)" stroke-width="3.5"/>
<path d="M42 73.4274C40.965 73.4274 40.125 72.5926 40.125 71.5641V61.6264C40.125 60.5978 40.965 59.763 42 59.763C43.035 59.763 43.875 60.5978 43.875 61.6264V71.5641C43.875 72.5926 43.035 73.4274 42 73.4274Z" stroke="url(#paint11_linear)" stroke-width="3.5"/>
<path d="M80.125 55.4153H50.75C49.715 55.4153 48.875 54.5805 48.875 53.552C48.875 52.5234 49.715 51.6886 50.75 51.6886H80.125C81.16 51.6886 82 52.5234 82 53.552C82 54.5805 81.16 55.4153 80.125 55.4153Z" stroke="url(#paint12_linear)" stroke-width="3.5"/>
<path d="M33.25 55.4153H3.875C2.84 55.4153 2 54.5805 2 53.552C2 52.5234 2.84 51.6886 3.875 51.6886H33.25C34.285 51.6886 35.125 52.5234 35.125 53.552C35.125 54.5805 34.285 55.4153 33.25 55.4153Z" stroke="url(#paint13_linear)" stroke-width="3.5"/>
<defs>
<linearGradient id="paint0_linear" x1="82" y1="50" x2="2" y2="50" gradientUnits="userSpaceOnUse">
<stop stop-color="#06EA84"/>
<stop offset="1" stop-color="#2BC47B"/>
</linearGradient>
<linearGradient id="paint1_linear" x1="82" y1="50" x2="2" y2="50" gradientUnits="userSpaceOnUse">
<stop stop-color="#06EA84"/>
<stop offset="1" stop-color="#2BC47B"/>
</linearGradient>
<linearGradient id="paint2_linear" x1="82" y1="50" x2="2" y2="50" gradientUnits="userSpaceOnUse">
<stop stop-color="#06EA84"/>
<stop offset="1" stop-color="#2BC47B"/>
</linearGradient>
<linearGradient id="paint3_linear" x1="82" y1="50" x2="2" y2="50" gradientUnits="userSpaceOnUse">
<stop stop-color="#06EA84"/>
<stop offset="1" stop-color="#2BC47B"/>
</linearGradient>
<linearGradient id="paint4_linear" x1="82" y1="50" x2="2" y2="50" gradientUnits="userSpaceOnUse">
<stop stop-color="#06EA84"/>
<stop offset="1" stop-color="#2BC47B"/>
</linearGradient>
<linearGradient id="paint5_linear" x1="82" y1="50" x2="2" y2="50" gradientUnits="userSpaceOnUse">
<stop stop-color="#06EA84"/>
<stop offset="1" stop-color="#2BC47B"/>
</linearGradient>
<linearGradient id="paint6_linear" x1="82" y1="50" x2="2" y2="50" gradientUnits="userSpaceOnUse">
<stop stop-color="#06EA84"/>
<stop offset="1" stop-color="#2BC47B"/>
</linearGradient>
<linearGradient id="paint7_linear" x1="82" y1="50" x2="2" y2="50" gradientUnits="userSpaceOnUse">
<stop stop-color="#06EA84"/>
<stop offset="1" stop-color="#2BC47B"/>
</linearGradient>
<linearGradient id="paint8_linear" x1="82" y1="50" x2="2" y2="50" gradientUnits="userSpaceOnUse">
<stop stop-color="#06EA84"/>
<stop offset="1" stop-color="#2BC47B"/>
</linearGradient>
<linearGradient id="paint9_linear" x1="82" y1="50" x2="2" y2="50" gradientUnits="userSpaceOnUse">
<stop stop-color="#06EA84"/>
<stop offset="1" stop-color="#2BC47B"/>
</linearGradient>
<linearGradient id="paint10_linear" x1="82" y1="50" x2="2" y2="50" gradientUnits="userSpaceOnUse">
<stop stop-color="#06EA84"/>
<stop offset="1" stop-color="#2BC47B"/>
</linearGradient>
<linearGradient id="paint11_linear" x1="82" y1="50" x2="2" y2="50" gradientUnits="userSpaceOnUse">
<stop stop-color="#06EA84"/>
<stop offset="1" stop-color="#2BC47B"/>
</linearGradient>
<linearGradient id="paint12_linear" x1="82" y1="50" x2="2" y2="50" gradientUnits="userSpaceOnUse">
<stop stop-color="#06EA84"/>
<stop offset="1" stop-color="#2BC47B"/>
</linearGradient>
<linearGradient id="paint13_linear" x1="82" y1="50" x2="2" y2="50" gradientUnits="userSpaceOnUse">
<stop stop-color="#06EA84"/>
<stop offset="1" stop-color="#2BC47B"/>
</linearGradient>
</defs>
</svg>
