<svg width="64" height="61" viewBox="0 0 64 61" fill="none" xmlns="http://www.w3.org/2000/svg">
<path d="M51.368 17.4873H49.9976C48.6509 12.6438 43.1695 8.11932 36.4005 10.2812C34.0024 5.21323 28.9581 2 23.2995 2C15.29 2 7.91849 8.83993 8.88718 18.1843C4.78795 19.7318 2 23.7129 2 28.1311C2 34.0024 6.77259 38.7868 12.6438 38.7868H51.3562C57.2274 38.7868 62 34.0142 62 28.1429C62 22.2717 57.2392 17.4873 51.368 17.4873ZM51.368 36.8494H12.6438C7.83579 36.8494 3.93739 32.9392 3.93739 28.1429C3.93739 24.2918 6.52451 20.8541 10.2221 19.7791L11.049 19.5428C9.12345 10.9427 15.8216 3.93739 23.2995 3.93739C29.7141 3.93739 33.896 8.42646 35.3609 12.8092C42.2599 9.31246 48.1902 14.6993 48.4501 19.4247H51.368C56.176 19.4247 60.0744 23.3349 60.0744 28.1311C60.0744 32.9273 56.1642 36.8494 51.368 36.8494Z" fill="url(#paint0_linear)"/>
<path d="M23.1611 58.8149L29.2579 52.7181C29.6299 52.3461 29.6299 51.7428 29.2579 51.3708C28.8859 50.9987 28.2827 50.9987 27.9107 51.3708L23.4401 55.8414V39.5587C23.4401 39.0326 23.0136 38.6061 22.4875 38.6061C21.9615 38.6061 21.5348 39.0326 21.5348 39.5587L21.5348 55.8414L17.0643 51.371C16.6922 50.9989 16.0891 50.9989 15.717 51.371C15.5311 51.5569 15.438 51.8008 15.438 52.0446C15.438 52.2884 15.5311 52.5322 15.717 52.7182L21.8138 58.8149C22.1859 59.1869 22.789 59.1869 23.1611 58.8149Z" fill="url(#paint1_linear)"/>
<path d="M37.6441 38.8851L31.5473 44.9819C31.1753 45.3539 31.1753 45.9572 31.5473 46.3292C31.9193 46.7012 32.5225 46.7012 32.8945 46.3292L37.3651 41.8586V58.1413C37.3651 58.6673 37.7917 59.0939 38.3177 59.0939C38.8437 59.0939 39.2704 58.6673 39.2704 58.1413L39.2704 41.8586L43.741 46.329C44.113 46.7011 44.7161 46.7011 45.0882 46.329C45.2741 46.1431 45.3672 45.8992 45.3672 45.6554C45.3672 45.4116 45.2741 45.1678 45.0882 44.9818L38.9914 38.8851C38.6193 38.513 38.0162 38.513 37.6441 38.8851Z" fill="url(#paint2_linear)"/>
<path d="M51.368 17.4873H49.9976C48.6509 12.6438 43.1695 8.11932 36.4005 10.2812C34.0024 5.21323 28.9581 2 23.2995 2C15.29 2 7.91849 8.83993 8.88718 18.1843C4.78795 19.7318 2 23.7129 2 28.1311C2 34.0024 6.77259 38.7868 12.6438 38.7868H51.3562C57.2274 38.7868 62 34.0142 62 28.1429C62 22.2717 57.2392 17.4873 51.368 17.4873ZM51.368 36.8494H12.6438C7.83579 36.8494 3.93739 32.9392 3.93739 28.1429C3.93739 24.2918 6.52451 20.8541 10.2221 19.7791L11.049 19.5428C9.12345 10.9427 15.8216 3.93739 23.2995 3.93739C29.7141 3.93739 33.896 8.42646 35.3609 12.8092C42.2599 9.31246 48.1902 14.6993 48.4501 19.4247H51.368C56.176 19.4247 60.0744 23.3349 60.0744 28.1311C60.0744 32.9273 56.1642 36.8494 51.368 36.8494Z" stroke="url(#paint3_linear)" stroke-width="3"/>
<path d="M23.1611 58.8149L29.2579 52.7181C29.6299 52.3461 29.6299 51.7428 29.2579 51.3708C28.8859 50.9987 28.2827 50.9987 27.9107 51.3708L23.4401 55.8414V39.5587C23.4401 39.0326 23.0136 38.6061 22.4875 38.6061C21.9615 38.6061 21.5348 39.0326 21.5348 39.5587L21.5348 55.8414L17.0643 51.371C16.6922 50.9989 16.0891 50.9989 15.717 51.371C15.5311 51.5569 15.438 51.8008 15.438 52.0446C15.438 52.2884 15.5311 52.5322 15.717 52.7182L21.8138 58.8149C22.1859 59.1869 22.789 59.1869 23.1611 58.8149Z" stroke="url(#paint4_linear)" stroke-width="3"/>
<path d="M37.6441 38.8851L31.5473 44.9819C31.1753 45.3539 31.1753 45.9572 31.5473 46.3292C31.9193 46.7012 32.5225 46.7012 32.8945 46.3292L37.3651 41.8586V58.1413C37.3651 58.6673 37.7917 59.0939 38.3177 59.0939C38.8437 59.0939 39.2704 58.6673 39.2704 58.1413L39.2704 41.8586L43.741 46.329C44.113 46.7011 44.7161 46.7011 45.0882 46.329C45.2741 46.1431 45.3672 45.8992 45.3672 45.6554C45.3672 45.4116 45.2741 45.1678 45.0882 44.9818L38.9914 38.8851C38.6193 38.513 38.0162 38.513 37.6441 38.8851Z" stroke="url(#paint5_linear)" stroke-width="3"/>
<defs>
<linearGradient id="paint0_linear" x1="62" y1="30.547" x2="2" y2="30.547" gradientUnits="userSpaceOnUse">
<stop stop-color="#06EA84"/>
<stop offset="1" stop-color="#2BC47B"/>
</linearGradient>
<linearGradient id="paint1_linear" x1="62" y1="30.547" x2="2" y2="30.547" gradientUnits="userSpaceOnUse">
<stop stop-color="#06EA84"/>
<stop offset="1" stop-color="#2BC47B"/>
</linearGradient>
<linearGradient id="paint2_linear" x1="62" y1="30.547" x2="2" y2="30.547" gradientUnits="userSpaceOnUse">
<stop stop-color="#06EA84"/>
<stop offset="1" stop-color="#2BC47B"/>
</linearGradient>
<linearGradient id="paint3_linear" x1="62" y1="30.547" x2="2" y2="30.547" gradientUnits="userSpaceOnUse">
<stop stop-color="#06EA84"/>
<stop offset="1" stop-color="#2BC47B"/>
</linearGradient>
<linearGradient id="paint4_linear" x1="62" y1="30.547" x2="2" y2="30.547" gradientUnits="userSpaceOnUse">
<stop stop-color="#06EA84"/>
<stop offset="1" stop-color="#2BC47B"/>
</linearGradient>
<linearGradient id="paint5_linear" x1="62" y1="30.547" x2="2" y2="30.547" gradientUnits="userSpaceOnUse">
<stop stop-color="#06EA84"/>
<stop offset="1" stop-color="#2BC47B"/>
</linearGradient>
</defs>
</svg>
