<svg width="86" height="73" viewBox="0 0 86 73" fill="none" xmlns="http://www.w3.org/2000/svg">
<path d="M65.6079 22.2735H76.2668C76.9468 22.2735 77.4973 21.7242 77.4973 21.0471C77.4973 20.3694 76.9461 19.8207 76.2668 19.8207H65.6079C64.928 19.8207 64.3775 20.37 64.3775 21.0471C64.3775 21.7242 64.928 22.2735 65.6079 22.2735Z" fill="#99B2C5"/>
<path d="M65.6079 29.3194H76.2668C76.9468 29.3194 77.4973 28.7701 77.4973 28.093C77.4973 27.4153 76.9461 26.8667 76.2668 26.8667H65.6079C64.928 26.8667 64.3775 27.4153 64.3775 28.093C64.3775 28.7701 64.928 29.3194 65.6079 29.3194Z" fill="#99B2C5"/>
<path d="M64.3775 54.9348C64.3775 57.0254 66.0854 58.7264 68.1842 58.7264H73.6905C75.79 58.7264 77.4973 57.0254 77.4973 54.9348V49.5496C77.4973 48.8725 76.9468 48.3232 76.2668 48.3232C75.5875 48.3232 75.0364 48.8725 75.0364 49.5496V54.9348C75.0364 55.6732 74.4327 56.2736 73.6905 56.2736H68.1842C67.4427 56.2736 66.8384 55.6732 66.8384 54.9348V37.7316C66.8384 36.9932 67.4421 36.3928 68.1842 36.3928H73.6905C74.4327 36.3928 75.0364 36.9932 75.0364 37.7316V43.882C75.0364 44.5591 75.5875 45.1084 76.2668 45.1084C76.9468 45.1084 77.4973 44.5591 77.4973 43.882V37.7316C77.4973 35.641 75.79 33.94 73.6905 33.94H68.1842C66.0854 33.94 64.3775 35.641 64.3775 37.7316V54.9348Z" fill="#99B2C5"/>
<path d="M66.4122 15.2276H75.4625C76.5847 15.2276 77.4973 14.3174 77.4973 13.199V9.52556C77.4973 8.40649 76.5847 7.49628 75.4625 7.49628H66.4122C65.29 7.49628 64.3775 8.40649 64.3775 9.52556V13.199C64.3775 14.3174 65.29 15.2276 66.4122 15.2276ZM66.8384 9.94905H75.0364V12.7748H66.8384V9.94905Z" fill="#99B2C5"/>
<path d="M20.6506 32.8C18.9575 32.1574 17.2066 31.4925 15.6538 32.3088C14.5496 32.8887 13.8203 34.0525 13.3576 35.97C12.5225 39.4333 14.4817 46.5948 18.7953 49.0144C19.6419 49.4883 20.6968 49.8556 21.9369 49.8556C23.8261 49.8556 26.1441 49.0023 28.8005 46.3758C30.4283 44.7648 31.7319 42.8959 32.6836 40.811C32.8322 40.8206 32.9816 40.827 33.1328 40.827C34.4209 40.827 35.6271 40.4719 36.6601 39.8555C37.1818 40.774 37.6118 41.7347 37.9399 42.7254C38.2065 43.5321 38.3578 44.4052 38.5045 45.2497C38.8128 47.0305 39.132 48.872 40.6284 49.7866C41.1891 50.129 41.8358 50.3002 42.5997 50.3002C43.2848 50.3002 44.0647 50.1622 44.9587 49.8869C48.3681 48.8394 53.5438 43.511 53.4335 38.5774C53.3791 36.1323 52.0544 32.8913 46.0533 31.3353C43.8225 30.7592 41.5461 30.595 39.2729 30.8435C38.7429 29.8081 37.9592 28.9234 37.0017 28.2732C37.6157 27.4128 38.3072 26.6176 39.0692 25.9003C39.6895 25.3178 40.4195 24.8106 41.125 24.32C42.6119 23.2878 44.1493 22.2199 44.3473 20.4819C44.4883 19.2453 43.9353 17.9889 42.6074 16.5281C40.2157 13.8907 33.1879 11.4673 28.7506 13.6505C26.5498 14.7332 24.1619 17.3009 25.286 23.3843C25.7026 25.6346 26.5165 27.7629 27.7104 29.7238C26.7921 30.8914 26.2422 32.3605 26.2422 33.9554C26.2422 33.9606 26.2428 33.965 26.2428 33.9701C25.1796 33.9491 24.1318 33.8277 23.1148 33.6022C22.2842 33.4195 21.4536 33.1046 20.6506 32.8ZM40.0234 33.9554C40.0234 33.714 40.0106 33.4751 39.9856 33.2394C41.814 33.0893 43.6424 33.2471 45.4355 33.7095C49.0583 34.6491 50.9213 36.3047 50.9733 38.6317C51.054 42.2508 46.83 46.7456 44.2333 47.5434C43.1322 47.8819 42.3087 47.9362 41.9152 47.6954C41.3679 47.3613 41.1545 46.133 40.9296 44.8326C40.7751 43.9434 40.6008 42.9361 40.2772 41.9576C39.8452 40.6533 39.2614 39.3956 38.5417 38.205C39.4684 37.0348 40.0234 35.5593 40.0234 33.9554ZM37.5625 33.9554C37.5625 36.3922 35.5751 38.3743 33.1328 38.3743C30.6905 38.3743 28.7038 36.3916 28.7038 33.9554C28.7038 31.5193 30.6905 29.5373 33.1328 29.5373C35.5751 29.5373 37.5625 31.5193 37.5625 33.9554ZM27.7066 22.9397C27.0279 19.2663 27.7457 16.8806 29.84 15.8503C33.0937 14.249 38.9615 16.1652 40.7828 18.1734C41.557 19.0255 41.9543 19.7467 41.9024 20.2046C41.83 20.8415 40.8046 21.5537 39.7183 22.308C38.9756 22.8241 38.1335 23.4086 37.3805 24.1163C36.3794 25.0584 35.4848 26.1168 34.7087 27.2672C34.2024 27.149 33.675 27.0839 33.1334 27.0839C31.837 27.0839 30.6238 27.4435 29.5875 28.0663C28.6724 26.4681 28.0411 24.7486 27.7066 22.9397ZM26.7043 36.4242C27.3515 38.0938 28.6333 39.4499 30.254 40.1966C29.4453 41.8496 28.3769 43.3385 27.067 44.6345C24.4106 47.2617 22.0336 48.0154 20.0027 46.8765C16.8388 45.1021 15.1142 39.181 15.7506 36.543C16.0197 35.4265 16.3934 34.6932 16.8022 34.4786C17.37 34.1796 18.5383 34.6229 19.7746 35.0924C20.6199 35.4131 21.578 35.7765 22.5835 35.9969C23.921 36.2939 25.3033 36.4344 26.7043 36.4242Z" fill="#99B2C5"/>
<path d="M33.7826 34.5143C33.6102 34.6759 33.3821 34.7653 33.1424 34.7653C33.0661 34.7653 33.0091 34.7602 32.963 34.7487C32.9521 34.7461 32.9418 34.7436 32.9309 34.7417C32.5823 34.6669 32.2965 34.3814 32.2208 34.0397C32.2042 33.9637 32.1965 33.8915 32.1965 33.8257C32.1965 33.5645 32.3022 33.3211 32.4926 33.1416C32.6688 32.9768 32.8995 32.8861 33.1424 32.8861C33.2642 32.8861 33.3859 32.9091 33.4923 32.9506C33.7487 33.0535 33.9525 33.2681 34.0377 33.5255C34.0678 33.6175 34.0832 33.7216 34.0832 33.8257C34.0838 34.0889 33.9775 34.3322 33.7826 34.5143Z" fill="#99B2C5"/>
<path d="M55.1907 21.5773C55.7752 21.2317 55.968 20.4793 55.6213 19.8967C51.0129 12.1591 42.4048 7.35256 33.1565 7.35256C18.6281 7.35256 6.80799 19.1411 6.80799 33.6309C6.80799 48.1207 18.6281 59.9092 33.1565 59.9092C47.6849 59.9092 59.5043 48.1207 59.5043 33.6309C59.5043 31.0351 59.1057 28.4418 58.3187 25.9239C58.1169 25.2768 57.4267 24.9159 56.7781 25.1171C56.1289 25.3184 55.7668 26.0063 55.9687 26.6527C56.682 28.9349 57.0434 31.2822 57.0434 33.6309C57.0434 46.7685 46.3275 57.4565 33.1565 57.4565C19.9848 57.4565 9.26891 46.7678 9.26891 33.6309C9.26891 20.4933 19.9848 9.80532 33.1558 9.80532C41.5409 9.80532 49.3377 14.1519 53.5046 21.1487C53.8513 21.7312 54.6062 21.9235 55.1907 21.5773Z" fill="#99B2C5"/>
<path d="M80.1126 0.747375H40.388C39.708 0.747375 39.1575 1.29669 39.1575 1.97375C39.1575 2.65145 39.708 3.20013 40.388 3.20013H80.1126C81.2065 3.20013 82.0961 4.08606 82.0961 5.17447V61.5169C82.0961 62.6079 81.2065 63.4951 80.1126 63.4951H4.99688C3.90613 63.4951 3.01854 62.6079 3.01854 61.5169V5.17447C3.01854 4.08606 3.90613 3.20077 4.99688 3.20077H34.7093C35.3892 3.20077 35.9397 2.65145 35.9397 1.97439C35.9397 1.29669 35.3892 0.748014 34.7093 0.748014H4.99688C2.54942 0.747375 0.557617 2.73321 0.557617 5.17447V61.5169C0.557617 63.9607 2.54942 65.9485 4.99688 65.9485H6.56187V69.5043C6.56187 71.0833 7.85001 72.3684 9.43359 72.3684H22.0368C23.6204 72.3684 24.9092 71.0833 24.9092 69.5043V65.9485H60.2016V69.5043C60.2016 71.0833 61.4897 72.3684 63.0733 72.3684H75.6765C77.2601 72.3684 78.5489 71.0833 78.5489 69.5043V65.9485H80.1132C82.5639 65.9485 84.5576 63.9607 84.5576 61.5169V5.17447C84.557 2.73321 82.5632 0.747375 80.1126 0.747375ZM22.4476 69.5043C22.4476 69.7266 22.2598 69.915 22.0368 69.915H9.43359C9.21057 69.915 9.02279 69.7273 9.02279 69.5043V65.9485H22.4476V69.5043ZM76.0873 69.5043C76.0873 69.7266 75.8995 69.915 75.6765 69.915H63.0733C62.8503 69.915 62.6625 69.7273 62.6625 69.5043V65.9485H76.0873V69.5043Z" fill="#99B2C5"/>
<path d="M65.6079 22.2735H76.2668C76.9468 22.2735 77.4973 21.7242 77.4973 21.0471C77.4973 20.3694 76.9461 19.8207 76.2668 19.8207H65.6079C64.928 19.8207 64.3775 20.37 64.3775 21.0471C64.3775 21.7242 64.928 22.2735 65.6079 22.2735Z" stroke="#99B2C5" stroke-width="0.999996"/>
<path d="M65.6079 29.3194H76.2668C76.9468 29.3194 77.4973 28.7701 77.4973 28.093C77.4973 27.4153 76.9461 26.8667 76.2668 26.8667H65.6079C64.928 26.8667 64.3775 27.4153 64.3775 28.093C64.3775 28.7701 64.928 29.3194 65.6079 29.3194Z" stroke="#99B2C5" stroke-width="0.999996"/>
<path d="M64.3775 54.9348C64.3775 57.0254 66.0854 58.7264 68.1842 58.7264H73.6905C75.79 58.7264 77.4973 57.0254 77.4973 54.9348V49.5496C77.4973 48.8725 76.9468 48.3232 76.2668 48.3232C75.5875 48.3232 75.0364 48.8725 75.0364 49.5496V54.9348C75.0364 55.6732 74.4327 56.2736 73.6905 56.2736H68.1842C67.4427 56.2736 66.8384 55.6732 66.8384 54.9348V37.7316C66.8384 36.9932 67.4421 36.3928 68.1842 36.3928H73.6905C74.4327 36.3928 75.0364 36.9932 75.0364 37.7316V43.882C75.0364 44.5591 75.5875 45.1084 76.2668 45.1084C76.9468 45.1084 77.4973 44.5591 77.4973 43.882V37.7316C77.4973 35.641 75.79 33.94 73.6905 33.94H68.1842C66.0854 33.94 64.3775 35.641 64.3775 37.7316V54.9348Z" stroke="#99B2C5" stroke-width="0.999996"/>
<path d="M66.4122 15.2276H75.4625C76.5847 15.2276 77.4973 14.3174 77.4973 13.199V9.52556C77.4973 8.40649 76.5847 7.49628 75.4625 7.49628H66.4122C65.29 7.49628 64.3775 8.40649 64.3775 9.52556V13.199C64.3775 14.3174 65.29 15.2276 66.4122 15.2276ZM66.8384 9.94905H75.0364V12.7748H66.8384V9.94905Z" stroke="#99B2C5" stroke-width="0.999996"/>
<path d="M20.6506 32.8C18.9575 32.1574 17.2066 31.4925 15.6538 32.3088C14.5496 32.8887 13.8203 34.0525 13.3576 35.97C12.5225 39.4333 14.4817 46.5948 18.7953 49.0144C19.6419 49.4883 20.6968 49.8556 21.9369 49.8556C23.8261 49.8556 26.1441 49.0023 28.8005 46.3758C30.4283 44.7648 31.7319 42.8959 32.6836 40.811C32.8322 40.8206 32.9816 40.827 33.1328 40.827C34.4209 40.827 35.6271 40.4719 36.6601 39.8555C37.1818 40.774 37.6118 41.7347 37.9399 42.7254C38.2065 43.5321 38.3578 44.4052 38.5045 45.2497C38.8128 47.0305 39.132 48.872 40.6284 49.7866C41.1891 50.129 41.8358 50.3002 42.5997 50.3002C43.2848 50.3002 44.0647 50.1622 44.9587 49.8869C48.3681 48.8394 53.5438 43.511 53.4335 38.5774C53.3791 36.1323 52.0544 32.8913 46.0533 31.3353C43.8225 30.7592 41.5461 30.595 39.2729 30.8435C38.7429 29.8081 37.9592 28.9234 37.0017 28.2732C37.6157 27.4128 38.3072 26.6176 39.0692 25.9003C39.6895 25.3178 40.4195 24.8106 41.125 24.32C42.6119 23.2878 44.1493 22.2199 44.3473 20.4819C44.4883 19.2453 43.9353 17.9889 42.6074 16.5281C40.2157 13.8907 33.1879 11.4673 28.7506 13.6505C26.5498 14.7332 24.1619 17.3009 25.286 23.3843C25.7026 25.6346 26.5165 27.7629 27.7104 29.7238C26.7921 30.8914 26.2422 32.3605 26.2422 33.9554C26.2422 33.9606 26.2428 33.965 26.2428 33.9701C25.1796 33.9491 24.1318 33.8277 23.1148 33.6022C22.2842 33.4195 21.4536 33.1046 20.6506 32.8ZM40.0234 33.9554C40.0234 33.714 40.0106 33.4751 39.9856 33.2394C41.814 33.0893 43.6424 33.2471 45.4355 33.7095C49.0583 34.6491 50.9213 36.3047 50.9733 38.6317C51.054 42.2508 46.83 46.7456 44.2333 47.5434C43.1322 47.8819 42.3087 47.9362 41.9152 47.6954C41.3679 47.3613 41.1545 46.133 40.9296 44.8326C40.7751 43.9434 40.6008 42.9361 40.2772 41.9576C39.8452 40.6533 39.2614 39.3956 38.5417 38.205C39.4684 37.0348 40.0234 35.5593 40.0234 33.9554ZM37.5625 33.9554C37.5625 36.3922 35.5751 38.3743 33.1328 38.3743C30.6905 38.3743 28.7038 36.3916 28.7038 33.9554C28.7038 31.5193 30.6905 29.5373 33.1328 29.5373C35.5751 29.5373 37.5625 31.5193 37.5625 33.9554ZM27.7066 22.9397C27.0279 19.2663 27.7457 16.8806 29.84 15.8503C33.0937 14.249 38.9615 16.1652 40.7828 18.1734C41.557 19.0255 41.9543 19.7467 41.9024 20.2046C41.83 20.8415 40.8046 21.5537 39.7183 22.308C38.9756 22.8241 38.1335 23.4086 37.3805 24.1163C36.3794 25.0584 35.4848 26.1168 34.7087 27.2672C34.2024 27.149 33.675 27.0839 33.1334 27.0839C31.837 27.0839 30.6238 27.4435 29.5875 28.0663C28.6724 26.4681 28.0411 24.7486 27.7066 22.9397ZM26.7043 36.4242C27.3515 38.0938 28.6333 39.4499 30.254 40.1966C29.4453 41.8496 28.3769 43.3385 27.067 44.6345C24.4106 47.2617 22.0336 48.0154 20.0027 46.8765C16.8388 45.1021 15.1142 39.181 15.7506 36.543C16.0197 35.4265 16.3934 34.6932 16.8022 34.4786C17.37 34.1796 18.5383 34.6229 19.7746 35.0924C20.6199 35.4131 21.578 35.7765 22.5835 35.9969C23.921 36.2939 25.3033 36.4344 26.7043 36.4242Z" stroke="#99B2C5" stroke-width="0.999996"/>
<path d="M33.7826 34.5143C33.6102 34.6759 33.3821 34.7653 33.1424 34.7653C33.0661 34.7653 33.0091 34.7602 32.963 34.7487C32.9521 34.7461 32.9418 34.7436 32.9309 34.7417C32.5823 34.6669 32.2965 34.3814 32.2208 34.0397C32.2042 33.9637 32.1965 33.8915 32.1965 33.8257C32.1965 33.5645 32.3022 33.3211 32.4926 33.1416C32.6688 32.9768 32.8995 32.8861 33.1424 32.8861C33.2642 32.8861 33.3859 32.9091 33.4923 32.9506C33.7487 33.0535 33.9525 33.2681 34.0377 33.5255C34.0678 33.6175 34.0832 33.7216 34.0832 33.8257C34.0838 34.0889 33.9775 34.3322 33.7826 34.5143Z" stroke="#99B2C5" stroke-width="0.999996"/>
<path d="M55.1907 21.5773C55.7752 21.2317 55.968 20.4793 55.6213 19.8967C51.0129 12.1591 42.4048 7.35256 33.1565 7.35256C18.6281 7.35256 6.80799 19.1411 6.80799 33.6309C6.80799 48.1207 18.6281 59.9092 33.1565 59.9092C47.6849 59.9092 59.5043 48.1207 59.5043 33.6309C59.5043 31.0351 59.1057 28.4418 58.3187 25.9239C58.1169 25.2768 57.4267 24.9159 56.7781 25.1171C56.1289 25.3184 55.7668 26.0063 55.9687 26.6527C56.682 28.9349 57.0434 31.2822 57.0434 33.6309C57.0434 46.7685 46.3275 57.4565 33.1565 57.4565C19.9848 57.4565 9.26891 46.7678 9.26891 33.6309C9.26891 20.4933 19.9848 9.80532 33.1558 9.80532C41.5409 9.80532 49.3377 14.1519 53.5046 21.1487C53.8513 21.7312 54.6062 21.9235 55.1907 21.5773Z" stroke="#99B2C5" stroke-width="0.999996"/>
<path d="M80.1126 0.747375H40.388C39.708 0.747375 39.1575 1.29669 39.1575 1.97375C39.1575 2.65145 39.708 3.20013 40.388 3.20013H80.1126C81.2065 3.20013 82.0961 4.08606 82.0961 5.17447V61.5169C82.0961 62.6079 81.2065 63.4951 80.1126 63.4951H4.99688C3.90613 63.4951 3.01854 62.6079 3.01854 61.5169V5.17447C3.01854 4.08606 3.90613 3.20077 4.99688 3.20077H34.7093C35.3892 3.20077 35.9397 2.65145 35.9397 1.97439C35.9397 1.29669 35.3892 0.748014 34.7093 0.748014H4.99688C2.54942 0.747375 0.557617 2.73321 0.557617 5.17447V61.5169C0.557617 63.9607 2.54942 65.9485 4.99688 65.9485H6.56187V69.5043C6.56187 71.0833 7.85001 72.3684 9.43359 72.3684H22.0368C23.6204 72.3684 24.9092 71.0833 24.9092 69.5043V65.9485H60.2016V69.5043C60.2016 71.0833 61.4897 72.3684 63.0733 72.3684H75.6765C77.2601 72.3684 78.5489 71.0833 78.5489 69.5043V65.9485H80.1132C82.5639 65.9485 84.5576 63.9607 84.5576 61.5169V5.17447C84.557 2.73321 82.5632 0.747375 80.1126 0.747375ZM22.4476 69.5043C22.4476 69.7266 22.2598 69.915 22.0368 69.915H9.43359C9.21057 69.915 9.02279 69.7273 9.02279 69.5043V65.9485H22.4476V69.5043ZM76.0873 69.5043C76.0873 69.7266 75.8995 69.915 75.6765 69.915H63.0733C62.8503 69.915 62.6625 69.7273 62.6625 69.5043V65.9485H76.0873V69.5043Z" stroke="#99B2C5" stroke-width="0.999996"/>
</svg>
