<svg width="86" height="85" viewBox="0 0 86 85" fill="none" xmlns="http://www.w3.org/2000/svg">
<path d="M83.3405 35.1207H56.8495V2.35449C56.8495 1.94232 56.6411 1.55824 56.2955 1.33356C55.9498 1.10873 55.5141 1.07448 55.1375 1.24184L35.3821 10.0226C34.7677 10.2956 34.4909 11.0152 34.764 11.6297C35.037 12.2441 35.7571 12.5211 36.3709 12.2477L54.4143 4.228V81.8176H31.5862V25.5655C31.5862 24.8931 31.0413 24.348 30.3687 24.348H25.981V16.866L31.9224 14.2251C32.5369 13.9519 32.8137 13.2324 32.5406 12.618C32.2676 12.0035 31.5478 11.7271 30.9337 12L24.2692 14.9623C23.8294 15.1577 23.5461 15.5937 23.5461 16.0749V24.3482H2.6599C1.98734 24.3482 1.44238 24.8933 1.44238 25.5657V70.1216C1.44238 70.7942 1.98734 71.3392 2.6599 71.3392C3.33245 71.3392 3.87741 70.7942 3.87741 70.1216V26.783H29.1511V81.8177H3.87741V74.9894C3.87741 74.3169 3.33245 73.7719 2.6599 73.7719C1.98734 73.7719 1.44238 74.3169 1.44238 74.9894V83.0352C1.44238 83.7078 1.98734 84.2528 2.6599 84.2528H83.3405C84.0131 84.2528 84.558 83.7078 84.558 83.0352V49.4414C84.558 48.7689 84.0131 48.2239 83.3405 48.2239C82.6679 48.2239 82.123 48.7689 82.123 49.4414V81.8176H56.8495V37.5557H82.123V44.5733C82.123 45.2459 82.6679 45.7908 83.3405 45.7908C84.0131 45.7908 84.558 45.2459 84.558 44.5733V36.3382C84.558 35.6658 84.0131 35.1207 83.3405 35.1207Z" fill="#99B2C5"/>
<path d="M8.07257 35.2581C8.74512 35.2581 9.29008 34.713 9.29008 34.0406V32.1932C9.29008 31.5208 8.74512 30.9757 8.07257 30.9757C7.40001 30.9757 6.85505 31.5208 6.85505 32.1932V34.0406C6.85505 34.713 7.40017 35.2581 8.07257 35.2581Z" fill="#99B2C5"/>
<path d="M13.7005 35.2581C14.3731 35.2581 14.9181 34.713 14.9181 34.0406V32.1932C14.9181 31.5208 14.3731 30.9757 13.7005 30.9757C13.028 30.9757 12.483 31.5208 12.483 32.1932V34.0406C12.483 34.713 13.0281 35.2581 13.7005 35.2581Z" fill="#99B2C5"/>
<path d="M19.3281 35.2581C20.0007 35.2581 20.5456 34.713 20.5456 34.0406V32.1932C20.5456 31.5208 20.0007 30.9757 19.3281 30.9757C18.6555 30.9757 18.1106 31.5208 18.1106 32.1932V34.0406C18.1106 34.713 18.6555 35.2581 19.3281 35.2581Z" fill="#99B2C5"/>
<path d="M24.9561 35.2581C25.6286 35.2581 26.1736 34.713 26.1736 34.0406V32.1932C26.1736 31.5208 25.6286 30.9757 24.9561 30.9757C24.2835 30.9757 23.7386 31.5208 23.7386 32.1932V34.0406C23.7386 34.713 24.2835 35.2581 24.9561 35.2581Z" fill="#99B2C5"/>
<path d="M6.85505 41.4476C6.85505 42.12 7.40001 42.6652 8.07257 42.6652C8.74512 42.6652 9.29008 42.12 9.29008 41.4476V39.6004C9.29008 38.928 8.74512 38.3829 8.07257 38.3829C7.40001 38.3829 6.85505 38.928 6.85505 39.6004V41.4476Z" fill="#99B2C5"/>
<path d="M12.483 41.4476C12.483 42.12 13.028 42.6652 13.7005 42.6652C14.3731 42.6652 14.9181 42.12 14.9181 41.4476V39.6004C14.9181 38.928 14.3731 38.3829 13.7005 38.3829C13.028 38.3829 12.483 38.928 12.483 39.6004V41.4476Z" fill="#99B2C5"/>
<path d="M18.1106 41.4476C18.1106 42.12 18.6555 42.6652 19.3281 42.6652C20.0007 42.6652 20.5456 42.12 20.5456 41.4476V39.6004C20.5456 38.928 20.0007 38.3829 19.3281 38.3829C18.6555 38.3829 18.1106 38.928 18.1106 39.6004V41.4476Z" fill="#99B2C5"/>
<path d="M23.7386 41.4476C23.7386 42.12 24.2835 42.6652 24.9561 42.6652C25.6286 42.6652 26.1736 42.12 26.1736 41.4476V39.6004C26.1736 38.928 25.6286 38.3829 24.9561 38.3829C24.2835 38.3829 23.7386 38.928 23.7386 39.6004V41.4476Z" fill="#99B2C5"/>
<path d="M6.85505 48.8549C6.85505 49.5274 7.40001 50.0724 8.07257 50.0724C8.74512 50.0724 9.29008 49.5274 9.29008 48.8549V47.0075C9.29008 46.3349 8.74512 45.79 8.07257 45.79C7.40001 45.79 6.85505 46.3349 6.85505 47.0075V48.8549Z" fill="#99B2C5"/>
<path d="M12.483 48.8549C12.483 49.5274 13.028 50.0724 13.7005 50.0724C14.3731 50.0724 14.9181 49.5274 14.9181 48.8549V47.0075C14.9181 46.3349 14.3731 45.79 13.7005 45.79C13.028 45.79 12.483 46.3349 12.483 47.0075V48.8549Z" fill="#99B2C5"/>
<path d="M18.1106 48.8549C18.1106 49.5274 18.6555 50.0724 19.3281 50.0724C20.0007 50.0724 20.5456 49.5274 20.5456 48.8549V47.0075C20.5456 46.3349 20.0007 45.79 19.3281 45.79C18.6555 45.79 18.1106 46.3349 18.1106 47.0075V48.8549Z" fill="#99B2C5"/>
<path d="M23.7386 48.8549C23.7386 49.5274 24.2835 50.0724 24.9561 50.0724C25.6286 50.0724 26.1736 49.5274 26.1736 48.8549V47.0075C26.1736 46.3349 25.6286 45.79 24.9561 45.79C24.2835 45.79 23.7386 46.3349 23.7386 47.0075V48.8549Z" fill="#99B2C5"/>
<path d="M6.85505 56.2621C6.85505 56.9346 7.40001 57.4796 8.07257 57.4796C8.74512 57.4796 9.29008 56.9346 9.29008 56.2621V54.4147C9.29008 53.7421 8.74512 53.1972 8.07257 53.1972C7.40001 53.1972 6.85505 53.7421 6.85505 54.4147V56.2621Z" fill="#99B2C5"/>
<path d="M12.483 56.2621C12.483 56.9346 13.028 57.4796 13.7005 57.4796C14.3731 57.4796 14.9181 56.9346 14.9181 56.2621V54.4147C14.9181 53.7421 14.3731 53.1972 13.7005 53.1972C13.028 53.1972 12.483 53.7421 12.483 54.4147V56.2621Z" fill="#99B2C5"/>
<path d="M18.1106 56.2621C18.1106 56.9346 18.6555 57.4796 19.3281 57.4796C20.0007 57.4796 20.5456 56.9346 20.5456 56.2621V54.4147C20.5456 53.7421 20.0007 53.1972 19.3281 53.1972C18.6555 53.1972 18.1106 53.7421 18.1106 54.4147V56.2621Z" fill="#99B2C5"/>
<path d="M23.7386 56.2621C23.7386 56.9346 24.2835 57.4796 24.9561 57.4796C25.6286 57.4796 26.1736 56.9346 26.1736 56.2621V54.4147C26.1736 53.7421 25.6286 53.1972 24.9561 53.1972C24.2835 53.1972 23.7386 53.7421 23.7386 54.4147V56.2621Z" fill="#99B2C5"/>
<path d="M62.2622 43.304C62.2622 42.6316 61.7172 42.0864 61.0447 42.0864C60.3721 42.0864 59.8272 42.6316 59.8272 43.304V45.7442C59.8272 46.4167 60.3721 46.9617 61.0447 46.9617C61.7172 46.9617 62.2622 46.4167 62.2622 45.7442V43.304Z" fill="#99B2C5"/>
<path d="M67.89 43.304C67.89 42.6316 67.345 42.0864 66.6725 42.0864C65.9999 42.0864 65.4549 42.6316 65.4549 43.304V45.7442C65.4549 46.4167 65.9999 46.9617 66.6725 46.9617C67.345 46.9617 67.89 46.4167 67.89 45.7442V43.304Z" fill="#99B2C5"/>
<path d="M73.5179 43.304C73.5179 42.6316 72.973 42.0864 72.3004 42.0864C71.6279 42.0864 71.0829 42.6316 71.0829 43.304V45.7442C71.0829 46.4167 71.6279 46.9617 72.3004 46.9617C72.973 46.9617 73.5179 46.4167 73.5179 45.7442V43.304Z" fill="#99B2C5"/>
<path d="M79.1457 43.304C79.1457 42.6316 78.6007 42.0864 77.9282 42.0864C77.2556 42.0864 76.7107 42.6316 76.7107 43.304V45.7442C76.7107 46.4167 77.2556 46.9617 77.9282 46.9617C78.6007 46.9617 79.1457 46.4167 79.1457 45.7442V43.304Z" fill="#99B2C5"/>
<path d="M62.2622 53.0886C62.2622 52.416 61.7172 51.8711 61.0447 51.8711C60.3721 51.8711 59.8272 52.416 59.8272 53.0886V55.5288C59.8272 56.2014 60.3721 56.7463 61.0447 56.7463C61.7172 56.7463 62.2622 56.2014 62.2622 55.5288V53.0886Z" fill="#99B2C5"/>
<path d="M67.89 53.0886C67.89 52.416 67.345 51.8711 66.6725 51.8711C65.9999 51.8711 65.4549 52.416 65.4549 53.0886V55.5288C65.4549 56.2014 65.9999 56.7463 66.6725 56.7463C67.345 56.7463 67.89 56.2014 67.89 55.5288V53.0886Z" fill="#99B2C5"/>
<path d="M73.5179 53.0886C73.5179 52.416 72.973 51.8711 72.3004 51.8711C71.6279 51.8711 71.0829 52.416 71.0829 53.0886V55.5288C71.0829 56.2014 71.6279 56.7463 72.3004 56.7463C72.973 56.7463 73.5179 56.2014 73.5179 55.5288V53.0886Z" fill="#99B2C5"/>
<path d="M79.1457 53.0886C79.1457 52.416 78.6007 51.8711 77.9282 51.8711C77.2556 51.8711 76.7107 52.416 76.7107 53.0886V55.5288C76.7107 56.2014 77.2556 56.7463 77.9282 56.7463C78.6007 56.7463 79.1457 56.2014 79.1457 55.5288V53.0886Z" fill="#99B2C5"/>
<path d="M62.2622 62.873C62.2622 62.2004 61.7172 61.6555 61.0447 61.6555C60.3721 61.6555 59.8272 62.2004 59.8272 62.873V65.3132C59.8272 65.9858 60.3721 66.5307 61.0447 66.5307C61.7172 66.5307 62.2622 65.9858 62.2622 65.3132V62.873Z" fill="#99B2C5"/>
<path d="M67.89 62.873C67.89 62.2004 67.345 61.6555 66.6725 61.6555C65.9999 61.6555 65.4549 62.2004 65.4549 62.873V65.3132C65.4549 65.9858 65.9999 66.5307 66.6725 66.5307C67.345 66.5307 67.89 65.9858 67.89 65.3132V62.873Z" fill="#99B2C5"/>
<path d="M73.5179 62.873C73.5179 62.2004 72.973 61.6555 72.3004 61.6555C71.6279 61.6555 71.0829 62.2004 71.0829 62.873V65.3132C71.0829 65.9858 71.6279 66.5307 72.3004 66.5307C72.973 66.5307 73.5179 65.9858 73.5179 65.3132V62.873Z" fill="#99B2C5"/>
<path d="M79.1457 62.873C79.1457 62.2004 78.6007 61.6555 77.9282 61.6555C77.2556 61.6555 76.7107 62.2004 76.7107 62.873V65.3132C76.7107 65.9858 77.2556 66.5307 77.9282 66.5307C78.6007 66.5307 79.1457 65.9858 79.1457 65.3132V62.873Z" fill="#99B2C5"/>
<path d="M61.0447 71.4403C60.3721 71.4403 59.8272 71.9853 59.8272 72.6578V75.098C59.8272 75.7706 60.3721 76.3156 61.0447 76.3156C61.7172 76.3156 62.2622 75.7706 62.2622 75.098V72.6578C62.2622 71.9853 61.7171 71.4403 61.0447 71.4403Z" fill="#99B2C5"/>
<path d="M66.6725 71.4403C65.9999 71.4403 65.4549 71.9853 65.4549 72.6578V75.098C65.4549 75.7706 65.9999 76.3156 66.6725 76.3156C67.345 76.3156 67.89 75.7706 67.89 75.098V72.6578C67.89 71.9853 67.3448 71.4403 66.6725 71.4403Z" fill="#99B2C5"/>
<path d="M72.3004 71.4403C71.6279 71.4403 71.0829 71.9853 71.0829 72.6578V75.098C71.0829 75.7706 71.6279 76.3156 72.3004 76.3156C72.973 76.3156 73.5179 75.7706 73.5179 75.098V72.6578C73.5179 71.9853 72.9728 71.4403 72.3004 71.4403Z" fill="#99B2C5"/>
<path d="M77.9282 71.4403C77.2556 71.4403 76.7107 71.9853 76.7107 72.6578V75.098C76.7107 75.7706 77.2556 76.3156 77.9282 76.3156C78.6007 76.3156 79.1457 75.7706 79.1457 75.098V72.6578C79.1457 71.9853 78.6006 71.4403 77.9282 71.4403Z" fill="#99B2C5"/>
<path d="M6.85505 63.6693C6.85505 64.3419 7.40001 64.8868 8.07257 64.8868C8.74512 64.8868 9.29008 64.3419 9.29008 63.6693V61.8219C9.29008 61.1494 8.74512 60.6044 8.07257 60.6044C7.40001 60.6044 6.85505 61.1494 6.85505 61.8219V63.6693Z" fill="#99B2C5"/>
<path d="M12.483 63.6693C12.483 64.3419 13.028 64.8868 13.7005 64.8868C14.3731 64.8868 14.9181 64.3419 14.9181 63.6693V61.8219C14.9181 61.1494 14.3731 60.6044 13.7005 60.6044C13.028 60.6044 12.483 61.1494 12.483 61.8219V63.6693Z" fill="#99B2C5"/>
<path d="M18.1106 63.6693C18.1106 64.3419 18.6555 64.8868 19.3281 64.8868C20.0007 64.8868 20.5456 64.3419 20.5456 63.6693V61.8219C20.5456 61.1494 20.0007 60.6044 19.3281 60.6044C18.6555 60.6044 18.1106 61.1494 18.1106 61.8219V63.6693Z" fill="#99B2C5"/>
<path d="M23.7386 63.6693C23.7386 64.3419 24.2835 64.8868 24.9561 64.8868C25.6286 64.8868 26.1736 64.3419 26.1736 63.6693V61.8219C26.1736 61.1494 25.6286 60.6044 24.9561 60.6044C24.2835 60.6044 23.7386 61.1494 23.7386 61.8219V63.6693Z" fill="#99B2C5"/>
<path d="M6.85505 71.0765C6.85505 71.749 7.40001 72.294 8.07257 72.294C8.74512 72.294 9.29008 71.749 9.29008 71.0765V69.2291C9.29008 68.5565 8.74512 68.0116 8.07257 68.0116C7.40001 68.0116 6.85505 68.5565 6.85505 69.2291V71.0765Z" fill="#99B2C5"/>
<path d="M12.483 71.0765C12.483 71.749 13.028 72.294 13.7005 72.294C14.3731 72.294 14.9181 71.749 14.9181 71.0765V69.2291C14.9181 68.5565 14.3731 68.0116 13.7005 68.0116C13.028 68.0116 12.483 68.5565 12.483 69.2291V71.0765Z" fill="#99B2C5"/>
<path d="M18.1106 71.0765C18.1106 71.749 18.6555 72.294 19.3281 72.294C20.0007 72.294 20.5456 71.749 20.5456 71.0765V69.2291C20.5456 68.5565 20.0007 68.0116 19.3281 68.0116C18.6555 68.0116 18.1106 68.5565 18.1106 69.2291V71.0765Z" fill="#99B2C5"/>
<path d="M23.7386 71.0765C23.7386 71.749 24.2835 72.294 24.9561 72.294C25.6286 72.294 26.1736 71.749 26.1736 71.0765V69.2291C26.1736 68.5565 25.6286 68.0116 24.9561 68.0116C24.2835 68.0116 23.7386 68.5565 23.7386 69.2291V71.0765Z" fill="#99B2C5"/>
<path d="M36.4807 20.3301H48.7847C49.4573 20.3301 50.0023 19.785 50.0023 19.1126C50.0023 18.4402 49.4573 17.895 48.7847 17.895H36.4807C35.8081 17.895 35.2632 18.4402 35.2632 19.1126C35.2632 19.785 35.8083 20.3301 36.4807 20.3301Z" fill="#99B2C5"/>
<path d="M36.4807 28.0147H48.7847C49.4573 28.0147 50.0023 27.4696 50.0023 26.7972C50.0023 26.1248 49.4573 25.5797 48.7847 25.5797H36.4807C35.8081 25.5797 35.2632 26.1248 35.2632 26.7972C35.2632 27.4696 35.8083 28.0147 36.4807 28.0147Z" fill="#99B2C5"/>
<path d="M36.4807 35.6995H48.7847C49.4573 35.6995 50.0023 35.1544 50.0023 34.482C50.0023 33.8096 49.4573 33.2645 48.7847 33.2645H36.4807C35.8081 33.2645 35.2632 33.8096 35.2632 34.482C35.2632 35.1544 35.8083 35.6995 36.4807 35.6995Z" fill="#99B2C5"/>
<path d="M36.4807 43.3843H48.7847C49.4573 43.3843 50.0023 42.8392 50.0023 42.1668C50.0023 41.4944 49.4573 40.9493 48.7847 40.9493H36.4807C35.8081 40.9493 35.2632 41.4944 35.2632 42.1668C35.2632 42.839 35.8083 43.3843 36.4807 43.3843Z" fill="#99B2C5"/>
<path d="M36.4807 51.069H48.7847C49.4573 51.069 50.0023 50.524 50.0023 49.8514C50.0023 49.1789 49.4573 48.6339 48.7847 48.6339H36.4807C35.8081 48.6339 35.2632 49.1789 35.2632 49.8514C35.2632 50.524 35.8083 51.069 36.4807 51.069Z" fill="#99B2C5"/>
<path d="M36.4807 58.7537H48.7847C49.4573 58.7537 50.0023 58.2088 50.0023 57.5362C50.0023 56.8637 49.4573 56.3187 48.7847 56.3187H36.4807C35.8081 56.3187 35.2632 56.8637 35.2632 57.5362C35.2632 58.2088 35.8083 58.7537 36.4807 58.7537Z" fill="#99B2C5"/>
<path d="M36.4807 66.4384H48.7847C49.4573 66.4384 50.0023 65.8934 50.0023 65.2209C50.0023 64.5483 49.4573 64.0034 48.7847 64.0034H36.4807C35.8081 64.0034 35.2632 64.5483 35.2632 65.2209C35.2632 65.8934 35.8083 66.4384 36.4807 66.4384Z" fill="#99B2C5"/>
<path d="M36.4807 74.1232H48.7847C49.4573 74.1232 50.0023 73.5782 50.0023 72.9057C50.0023 72.2331 49.4573 71.6882 48.7847 71.6882H36.4807C35.8081 71.6882 35.2632 72.2331 35.2632 72.9057C35.2632 73.5782 35.8083 74.1232 36.4807 74.1232Z" fill="#99B2C5"/>
<path d="M65.2682 16.7551C67.2931 16.7551 68.9403 18.4023 68.9403 20.4271C68.9403 21.0995 69.4852 21.6446 70.1578 21.6446C70.8304 21.6446 71.3753 21.0995 71.3753 20.4271C71.3753 17.0596 68.6357 14.3201 65.2682 14.3201C64.5957 14.3201 64.0507 14.8652 64.0507 15.5376C64.0507 16.21 64.5959 16.7551 65.2682 16.7551Z" fill="#99B2C5"/>
<path d="M65.2682 10.7591C70.5993 10.7591 74.9365 15.0962 74.9365 20.4271C74.9365 21.0995 75.4814 21.6446 76.154 21.6446C76.8265 21.6446 77.3715 21.0995 77.3715 20.4271C77.3715 13.7535 71.942 8.32404 65.2682 8.32404C64.5957 8.32404 64.0507 8.86917 64.0507 9.54156C64.0507 10.214 64.5959 10.7591 65.2682 10.7591Z" fill="#99B2C5"/>
<path d="M65.2682 3.57203C74.5621 3.57203 82.1232 11.1331 82.1232 20.4272C82.1232 21.0996 82.6682 21.6447 83.3407 21.6447C84.0133 21.6447 84.5583 21.0996 84.5583 20.4272C84.5583 9.79045 75.905 1.13699 65.2682 1.13699C64.5957 1.13699 64.0507 1.68212 64.0507 2.35451C64.0507 3.0269 64.5959 3.57203 65.2682 3.57203Z" fill="#99B2C5"/>
<path d="M83.3405 35.1207H56.8495V2.35449C56.8495 1.94232 56.6411 1.55824 56.2955 1.33356C55.9498 1.10873 55.5141 1.07448 55.1375 1.24184L35.3821 10.0226C34.7677 10.2956 34.4909 11.0152 34.764 11.6297C35.037 12.2441 35.7571 12.5211 36.3709 12.2477L54.4143 4.228V81.8176H31.5862V25.5655C31.5862 24.8931 31.0413 24.348 30.3687 24.348H25.981V16.866L31.9224 14.2251C32.5369 13.9519 32.8137 13.2324 32.5406 12.618C32.2676 12.0035 31.5478 11.7271 30.9337 12L24.2692 14.9623C23.8294 15.1577 23.5461 15.5937 23.5461 16.0749V24.3482H2.6599C1.98734 24.3482 1.44238 24.8933 1.44238 25.5657V70.1216C1.44238 70.7942 1.98734 71.3392 2.6599 71.3392C3.33245 71.3392 3.87741 70.7942 3.87741 70.1216V26.783H29.1511V81.8177H3.87741V74.9894C3.87741 74.3169 3.33245 73.7719 2.6599 73.7719C1.98734 73.7719 1.44238 74.3169 1.44238 74.9894V83.0352C1.44238 83.7078 1.98734 84.2528 2.6599 84.2528H83.3405C84.0131 84.2528 84.558 83.7078 84.558 83.0352V49.4414C84.558 48.7689 84.0131 48.2239 83.3405 48.2239C82.6679 48.2239 82.123 48.7689 82.123 49.4414V81.8176H56.8495V37.5557H82.123V44.5733C82.123 45.2459 82.6679 45.7908 83.3405 45.7908C84.0131 45.7908 84.558 45.2459 84.558 44.5733V36.3382C84.558 35.6658 84.0131 35.1207 83.3405 35.1207Z" stroke="#99B2C5" stroke-width="0.999996"/>
<path d="M8.07257 35.2581C8.74512 35.2581 9.29008 34.713 9.29008 34.0406V32.1932C9.29008 31.5208 8.74512 30.9757 8.07257 30.9757C7.40001 30.9757 6.85505 31.5208 6.85505 32.1932V34.0406C6.85505 34.713 7.40017 35.2581 8.07257 35.2581Z" stroke="#99B2C5" stroke-width="0.999996"/>
<path d="M13.7005 35.2581C14.3731 35.2581 14.9181 34.713 14.9181 34.0406V32.1932C14.9181 31.5208 14.3731 30.9757 13.7005 30.9757C13.028 30.9757 12.483 31.5208 12.483 32.1932V34.0406C12.483 34.713 13.0281 35.2581 13.7005 35.2581Z" stroke="#99B2C5" stroke-width="0.999996"/>
<path d="M19.3281 35.2581C20.0007 35.2581 20.5456 34.713 20.5456 34.0406V32.1932C20.5456 31.5208 20.0007 30.9757 19.3281 30.9757C18.6555 30.9757 18.1106 31.5208 18.1106 32.1932V34.0406C18.1106 34.713 18.6555 35.2581 19.3281 35.2581Z" stroke="#99B2C5" stroke-width="0.999996"/>
<path d="M24.9561 35.2581C25.6286 35.2581 26.1736 34.713 26.1736 34.0406V32.1932C26.1736 31.5208 25.6286 30.9757 24.9561 30.9757C24.2835 30.9757 23.7386 31.5208 23.7386 32.1932V34.0406C23.7386 34.713 24.2835 35.2581 24.9561 35.2581Z" stroke="#99B2C5" stroke-width="0.999996"/>
<path d="M6.85505 41.4476C6.85505 42.12 7.40001 42.6652 8.07257 42.6652C8.74512 42.6652 9.29008 42.12 9.29008 41.4476V39.6004C9.29008 38.928 8.74512 38.3829 8.07257 38.3829C7.40001 38.3829 6.85505 38.928 6.85505 39.6004V41.4476Z" stroke="#99B2C5" stroke-width="0.999996"/>
<path d="M12.483 41.4476C12.483 42.12 13.028 42.6652 13.7005 42.6652C14.3731 42.6652 14.9181 42.12 14.9181 41.4476V39.6004C14.9181 38.928 14.3731 38.3829 13.7005 38.3829C13.028 38.3829 12.483 38.928 12.483 39.6004V41.4476Z" stroke="#99B2C5" stroke-width="0.999996"/>
<path d="M18.1106 41.4476C18.1106 42.12 18.6555 42.6652 19.3281 42.6652C20.0007 42.6652 20.5456 42.12 20.5456 41.4476V39.6004C20.5456 38.928 20.0007 38.3829 19.3281 38.3829C18.6555 38.3829 18.1106 38.928 18.1106 39.6004V41.4476Z" stroke="#99B2C5" stroke-width="0.999996"/>
<path d="M23.7386 41.4476C23.7386 42.12 24.2835 42.6652 24.9561 42.6652C25.6286 42.6652 26.1736 42.12 26.1736 41.4476V39.6004C26.1736 38.928 25.6286 38.3829 24.9561 38.3829C24.2835 38.3829 23.7386 38.928 23.7386 39.6004V41.4476Z" stroke="#99B2C5" stroke-width="0.999996"/>
<path d="M6.85505 48.8549C6.85505 49.5274 7.40001 50.0724 8.07257 50.0724C8.74512 50.0724 9.29008 49.5274 9.29008 48.8549V47.0075C9.29008 46.3349 8.74512 45.79 8.07257 45.79C7.40001 45.79 6.85505 46.3349 6.85505 47.0075V48.8549Z" stroke="#99B2C5" stroke-width="0.999996"/>
<path d="M12.483 48.8549C12.483 49.5274 13.028 50.0724 13.7005 50.0724C14.3731 50.0724 14.9181 49.5274 14.9181 48.8549V47.0075C14.9181 46.3349 14.3731 45.79 13.7005 45.79C13.028 45.79 12.483 46.3349 12.483 47.0075V48.8549Z" stroke="#99B2C5" stroke-width="0.999996"/>
<path d="M18.1106 48.8549C18.1106 49.5274 18.6555 50.0724 19.3281 50.0724C20.0007 50.0724 20.5456 49.5274 20.5456 48.8549V47.0075C20.5456 46.3349 20.0007 45.79 19.3281 45.79C18.6555 45.79 18.1106 46.3349 18.1106 47.0075V48.8549Z" stroke="#99B2C5" stroke-width="0.999996"/>
<path d="M23.7386 48.8549C23.7386 49.5274 24.2835 50.0724 24.9561 50.0724C25.6286 50.0724 26.1736 49.5274 26.1736 48.8549V47.0075C26.1736 46.3349 25.6286 45.79 24.9561 45.79C24.2835 45.79 23.7386 46.3349 23.7386 47.0075V48.8549Z" stroke="#99B2C5" stroke-width="0.999996"/>
<path d="M6.85505 56.2621C6.85505 56.9346 7.40001 57.4796 8.07257 57.4796C8.74512 57.4796 9.29008 56.9346 9.29008 56.2621V54.4147C9.29008 53.7421 8.74512 53.1972 8.07257 53.1972C7.40001 53.1972 6.85505 53.7421 6.85505 54.4147V56.2621Z" stroke="#99B2C5" stroke-width="0.999996"/>
<path d="M12.483 56.2621C12.483 56.9346 13.028 57.4796 13.7005 57.4796C14.3731 57.4796 14.9181 56.9346 14.9181 56.2621V54.4147C14.9181 53.7421 14.3731 53.1972 13.7005 53.1972C13.028 53.1972 12.483 53.7421 12.483 54.4147V56.2621Z" stroke="#99B2C5" stroke-width="0.999996"/>
<path d="M18.1106 56.2621C18.1106 56.9346 18.6555 57.4796 19.3281 57.4796C20.0007 57.4796 20.5456 56.9346 20.5456 56.2621V54.4147C20.5456 53.7421 20.0007 53.1972 19.3281 53.1972C18.6555 53.1972 18.1106 53.7421 18.1106 54.4147V56.2621Z" stroke="#99B2C5" stroke-width="0.999996"/>
<path d="M23.7386 56.2621C23.7386 56.9346 24.2835 57.4796 24.9561 57.4796C25.6286 57.4796 26.1736 56.9346 26.1736 56.2621V54.4147C26.1736 53.7421 25.6286 53.1972 24.9561 53.1972C24.2835 53.1972 23.7386 53.7421 23.7386 54.4147V56.2621Z" stroke="#99B2C5" stroke-width="0.999996"/>
<path d="M62.2622 43.304C62.2622 42.6316 61.7172 42.0864 61.0447 42.0864C60.3721 42.0864 59.8272 42.6316 59.8272 43.304V45.7442C59.8272 46.4167 60.3721 46.9617 61.0447 46.9617C61.7172 46.9617 62.2622 46.4167 62.2622 45.7442V43.304Z" stroke="#99B2C5" stroke-width="0.999996"/>
<path d="M67.89 43.304C67.89 42.6316 67.345 42.0864 66.6725 42.0864C65.9999 42.0864 65.4549 42.6316 65.4549 43.304V45.7442C65.4549 46.4167 65.9999 46.9617 66.6725 46.9617C67.345 46.9617 67.89 46.4167 67.89 45.7442V43.304Z" stroke="#99B2C5" stroke-width="0.999996"/>
<path d="M73.5179 43.304C73.5179 42.6316 72.973 42.0864 72.3004 42.0864C71.6279 42.0864 71.0829 42.6316 71.0829 43.304V45.7442C71.0829 46.4167 71.6279 46.9617 72.3004 46.9617C72.973 46.9617 73.5179 46.4167 73.5179 45.7442V43.304Z" stroke="#99B2C5" stroke-width="0.999996"/>
<path d="M79.1457 43.304C79.1457 42.6316 78.6007 42.0864 77.9282 42.0864C77.2556 42.0864 76.7107 42.6316 76.7107 43.304V45.7442C76.7107 46.4167 77.2556 46.9617 77.9282 46.9617C78.6007 46.9617 79.1457 46.4167 79.1457 45.7442V43.304Z" stroke="#99B2C5" stroke-width="0.999996"/>
<path d="M62.2622 53.0886C62.2622 52.416 61.7172 51.8711 61.0447 51.8711C60.3721 51.8711 59.8272 52.416 59.8272 53.0886V55.5288C59.8272 56.2014 60.3721 56.7463 61.0447 56.7463C61.7172 56.7463 62.2622 56.2014 62.2622 55.5288V53.0886Z" stroke="#99B2C5" stroke-width="0.999996"/>
<path d="M67.89 53.0886C67.89 52.416 67.345 51.8711 66.6725 51.8711C65.9999 51.8711 65.4549 52.416 65.4549 53.0886V55.5288C65.4549 56.2014 65.9999 56.7463 66.6725 56.7463C67.345 56.7463 67.89 56.2014 67.89 55.5288V53.0886Z" stroke="#99B2C5" stroke-width="0.999996"/>
<path d="M73.5179 53.0886C73.5179 52.416 72.973 51.8711 72.3004 51.8711C71.6279 51.8711 71.0829 52.416 71.0829 53.0886V55.5288C71.0829 56.2014 71.6279 56.7463 72.3004 56.7463C72.973 56.7463 73.5179 56.2014 73.5179 55.5288V53.0886Z" stroke="#99B2C5" stroke-width="0.999996"/>
<path d="M79.1457 53.0886C79.1457 52.416 78.6007 51.8711 77.9282 51.8711C77.2556 51.8711 76.7107 52.416 76.7107 53.0886V55.5288C76.7107 56.2014 77.2556 56.7463 77.9282 56.7463C78.6007 56.7463 79.1457 56.2014 79.1457 55.5288V53.0886Z" stroke="#99B2C5" stroke-width="0.999996"/>
<path d="M62.2622 62.873C62.2622 62.2004 61.7172 61.6555 61.0447 61.6555C60.3721 61.6555 59.8272 62.2004 59.8272 62.873V65.3132C59.8272 65.9858 60.3721 66.5307 61.0447 66.5307C61.7172 66.5307 62.2622 65.9858 62.2622 65.3132V62.873Z" stroke="#99B2C5" stroke-width="0.999996"/>
<path d="M67.89 62.873C67.89 62.2004 67.345 61.6555 66.6725 61.6555C65.9999 61.6555 65.4549 62.2004 65.4549 62.873V65.3132C65.4549 65.9858 65.9999 66.5307 66.6725 66.5307C67.345 66.5307 67.89 65.9858 67.89 65.3132V62.873Z" stroke="#99B2C5" stroke-width="0.999996"/>
<path d="M73.5179 62.873C73.5179 62.2004 72.973 61.6555 72.3004 61.6555C71.6279 61.6555 71.0829 62.2004 71.0829 62.873V65.3132C71.0829 65.9858 71.6279 66.5307 72.3004 66.5307C72.973 66.5307 73.5179 65.9858 73.5179 65.3132V62.873Z" stroke="#99B2C5" stroke-width="0.999996"/>
<path d="M79.1457 62.873C79.1457 62.2004 78.6007 61.6555 77.9282 61.6555C77.2556 61.6555 76.7107 62.2004 76.7107 62.873V65.3132C76.7107 65.9858 77.2556 66.5307 77.9282 66.5307C78.6007 66.5307 79.1457 65.9858 79.1457 65.3132V62.873Z" stroke="#99B2C5" stroke-width="0.999996"/>
<path d="M61.0447 71.4403C60.3721 71.4403 59.8272 71.9853 59.8272 72.6578V75.098C59.8272 75.7706 60.3721 76.3156 61.0447 76.3156C61.7172 76.3156 62.2622 75.7706 62.2622 75.098V72.6578C62.2622 71.9853 61.7171 71.4403 61.0447 71.4403Z" stroke="#99B2C5" stroke-width="0.999996"/>
<path d="M66.6725 71.4403C65.9999 71.4403 65.4549 71.9853 65.4549 72.6578V75.098C65.4549 75.7706 65.9999 76.3156 66.6725 76.3156C67.345 76.3156 67.89 75.7706 67.89 75.098V72.6578C67.89 71.9853 67.3448 71.4403 66.6725 71.4403Z" stroke="#99B2C5" stroke-width="0.999996"/>
<path d="M72.3004 71.4403C71.6279 71.4403 71.0829 71.9853 71.0829 72.6578V75.098C71.0829 75.7706 71.6279 76.3156 72.3004 76.3156C72.973 76.3156 73.5179 75.7706 73.5179 75.098V72.6578C73.5179 71.9853 72.9728 71.4403 72.3004 71.4403Z" stroke="#99B2C5" stroke-width="0.999996"/>
<path d="M77.9282 71.4403C77.2556 71.4403 76.7107 71.9853 76.7107 72.6578V75.098C76.7107 75.7706 77.2556 76.3156 77.9282 76.3156C78.6007 76.3156 79.1457 75.7706 79.1457 75.098V72.6578C79.1457 71.9853 78.6006 71.4403 77.9282 71.4403Z" stroke="#99B2C5" stroke-width="0.999996"/>
<path d="M6.85505 63.6693C6.85505 64.3419 7.40001 64.8868 8.07257 64.8868C8.74512 64.8868 9.29008 64.3419 9.29008 63.6693V61.8219C9.29008 61.1494 8.74512 60.6044 8.07257 60.6044C7.40001 60.6044 6.85505 61.1494 6.85505 61.8219V63.6693Z" stroke="#99B2C5" stroke-width="0.999996"/>
<path d="M12.483 63.6693C12.483 64.3419 13.028 64.8868 13.7005 64.8868C14.3731 64.8868 14.9181 64.3419 14.9181 63.6693V61.8219C14.9181 61.1494 14.3731 60.6044 13.7005 60.6044C13.028 60.6044 12.483 61.1494 12.483 61.8219V63.6693Z" stroke="#99B2C5" stroke-width="0.999996"/>
<path d="M18.1106 63.6693C18.1106 64.3419 18.6555 64.8868 19.3281 64.8868C20.0007 64.8868 20.5456 64.3419 20.5456 63.6693V61.8219C20.5456 61.1494 20.0007 60.6044 19.3281 60.6044C18.6555 60.6044 18.1106 61.1494 18.1106 61.8219V63.6693Z" stroke="#99B2C5" stroke-width="0.999996"/>
<path d="M23.7386 63.6693C23.7386 64.3419 24.2835 64.8868 24.9561 64.8868C25.6286 64.8868 26.1736 64.3419 26.1736 63.6693V61.8219C26.1736 61.1494 25.6286 60.6044 24.9561 60.6044C24.2835 60.6044 23.7386 61.1494 23.7386 61.8219V63.6693Z" stroke="#99B2C5" stroke-width="0.999996"/>
<path d="M6.85505 71.0765C6.85505 71.749 7.40001 72.294 8.07257 72.294C8.74512 72.294 9.29008 71.749 9.29008 71.0765V69.2291C9.29008 68.5565 8.74512 68.0116 8.07257 68.0116C7.40001 68.0116 6.85505 68.5565 6.85505 69.2291V71.0765Z" stroke="#99B2C5" stroke-width="0.999996"/>
<path d="M12.483 71.0765C12.483 71.749 13.028 72.294 13.7005 72.294C14.3731 72.294 14.9181 71.749 14.9181 71.0765V69.2291C14.9181 68.5565 14.3731 68.0116 13.7005 68.0116C13.028 68.0116 12.483 68.5565 12.483 69.2291V71.0765Z" stroke="#99B2C5" stroke-width="0.999996"/>
<path d="M18.1106 71.0765C18.1106 71.749 18.6555 72.294 19.3281 72.294C20.0007 72.294 20.5456 71.749 20.5456 71.0765V69.2291C20.5456 68.5565 20.0007 68.0116 19.3281 68.0116C18.6555 68.0116 18.1106 68.5565 18.1106 69.2291V71.0765Z" stroke="#99B2C5" stroke-width="0.999996"/>
<path d="M23.7386 71.0765C23.7386 71.749 24.2835 72.294 24.9561 72.294C25.6286 72.294 26.1736 71.749 26.1736 71.0765V69.2291C26.1736 68.5565 25.6286 68.0116 24.9561 68.0116C24.2835 68.0116 23.7386 68.5565 23.7386 69.2291V71.0765Z" stroke="#99B2C5" stroke-width="0.999996"/>
<path d="M36.4807 20.3301H48.7847C49.4573 20.3301 50.0023 19.785 50.0023 19.1126C50.0023 18.4402 49.4573 17.895 48.7847 17.895H36.4807C35.8081 17.895 35.2632 18.4402 35.2632 19.1126C35.2632 19.785 35.8083 20.3301 36.4807 20.3301Z" stroke="#99B2C5" stroke-width="0.999996"/>
<path d="M36.4807 28.0147H48.7847C49.4573 28.0147 50.0023 27.4696 50.0023 26.7972C50.0023 26.1248 49.4573 25.5797 48.7847 25.5797H36.4807C35.8081 25.5797 35.2632 26.1248 35.2632 26.7972C35.2632 27.4696 35.8083 28.0147 36.4807 28.0147Z" stroke="#99B2C5" stroke-width="0.999996"/>
<path d="M36.4807 35.6995H48.7847C49.4573 35.6995 50.0023 35.1544 50.0023 34.482C50.0023 33.8096 49.4573 33.2645 48.7847 33.2645H36.4807C35.8081 33.2645 35.2632 33.8096 35.2632 34.482C35.2632 35.1544 35.8083 35.6995 36.4807 35.6995Z" stroke="#99B2C5" stroke-width="0.999996"/>
<path d="M36.4807 43.3843H48.7847C49.4573 43.3843 50.0023 42.8392 50.0023 42.1668C50.0023 41.4944 49.4573 40.9493 48.7847 40.9493H36.4807C35.8081 40.9493 35.2632 41.4944 35.2632 42.1668C35.2632 42.839 35.8083 43.3843 36.4807 43.3843Z" stroke="#99B2C5" stroke-width="0.999996"/>
<path d="M36.4807 51.069H48.7847C49.4573 51.069 50.0023 50.524 50.0023 49.8514C50.0023 49.1789 49.4573 48.6339 48.7847 48.6339H36.4807C35.8081 48.6339 35.2632 49.1789 35.2632 49.8514C35.2632 50.524 35.8083 51.069 36.4807 51.069Z" stroke="#99B2C5" stroke-width="0.999996"/>
<path d="M36.4807 58.7537H48.7847C49.4573 58.7537 50.0023 58.2088 50.0023 57.5362C50.0023 56.8637 49.4573 56.3187 48.7847 56.3187H36.4807C35.8081 56.3187 35.2632 56.8637 35.2632 57.5362C35.2632 58.2088 35.8083 58.7537 36.4807 58.7537Z" stroke="#99B2C5" stroke-width="0.999996"/>
<path d="M36.4807 66.4384H48.7847C49.4573 66.4384 50.0023 65.8934 50.0023 65.2209C50.0023 64.5483 49.4573 64.0034 48.7847 64.0034H36.4807C35.8081 64.0034 35.2632 64.5483 35.2632 65.2209C35.2632 65.8934 35.8083 66.4384 36.4807 66.4384Z" stroke="#99B2C5" stroke-width="0.999996"/>
<path d="M36.4807 74.1232H48.7847C49.4573 74.1232 50.0023 73.5782 50.0023 72.9057C50.0023 72.2331 49.4573 71.6882 48.7847 71.6882H36.4807C35.8081 71.6882 35.2632 72.2331 35.2632 72.9057C35.2632 73.5782 35.8083 74.1232 36.4807 74.1232Z" stroke="#99B2C5" stroke-width="0.999996"/>
<path d="M65.2682 16.7551C67.2931 16.7551 68.9403 18.4023 68.9403 20.4271C68.9403 21.0995 69.4852 21.6446 70.1578 21.6446C70.8304 21.6446 71.3753 21.0995 71.3753 20.4271C71.3753 17.0596 68.6357 14.3201 65.2682 14.3201C64.5957 14.3201 64.0507 14.8652 64.0507 15.5376C64.0507 16.21 64.5959 16.7551 65.2682 16.7551Z" stroke="#99B2C5" stroke-width="0.999996"/>
<path d="M65.2682 10.7591C70.5993 10.7591 74.9365 15.0962 74.9365 20.4271C74.9365 21.0995 75.4814 21.6446 76.154 21.6446C76.8265 21.6446 77.3715 21.0995 77.3715 20.4271C77.3715 13.7535 71.942 8.32404 65.2682 8.32404C64.5957 8.32404 64.0507 8.86917 64.0507 9.54156C64.0507 10.214 64.5959 10.7591 65.2682 10.7591Z" stroke="#99B2C5" stroke-width="0.999996"/>
<path d="M65.2682 3.57203C74.5621 3.57203 82.1232 11.1331 82.1232 20.4272C82.1232 21.0996 82.6682 21.6447 83.3407 21.6447C84.0133 21.6447 84.5583 21.0996 84.5583 20.4272C84.5583 9.79045 75.905 1.13699 65.2682 1.13699C64.5957 1.13699 64.0507 1.68212 64.0507 2.35451C64.0507 3.0269 64.5959 3.57203 65.2682 3.57203Z" stroke="#99B2C5" stroke-width="0.999996"/>
</svg>
