<svg width="96" height="83" viewBox="0 0 96 83" fill="none" xmlns="http://www.w3.org/2000/svg">
<path d="M16.9699 67.9611C14.6989 67.9611 12.8511 69.8028 12.8511 72.0664C12.8511 74.3299 14.6989 76.1716 16.9699 76.1716C19.2409 76.1716 21.0887 74.3299 21.0887 72.0664C21.0887 69.8028 19.2409 67.9611 16.9699 67.9611ZM16.9699 73.4348C16.2128 73.4348 15.597 72.821 15.597 72.0664C15.597 71.3117 16.2128 70.698 16.9699 70.698C17.727 70.698 18.3429 71.3117 18.3429 72.0664C18.3429 72.821 17.727 73.4348 16.9699 73.4348Z" fill="#99B2C5"/>
<path d="M47.9999 1.32629C33.1113 1.32629 20.9986 13.399 20.9986 28.2385C20.9986 37.244 25.5014 45.6165 33.0432 50.6346C33.6735 51.0539 34.5264 50.8847 34.9474 50.2562C35.3682 49.6276 35.1984 48.7777 34.5677 48.3583C27.7907 43.8489 23.7445 36.3277 23.7445 28.2385C23.7445 14.9081 34.6254 4.06313 47.9999 4.06313C61.3744 4.06313 72.2552 14.9081 72.2552 28.2385C72.2552 36.3277 68.2091 43.8491 61.432 48.3581C60.8014 48.7777 60.6315 49.6274 61.0524 50.256C61.3171 50.6512 61.7522 50.8648 62.1956 50.8648C62.4575 50.8648 62.7224 50.7902 62.9565 50.6344C70.4984 45.6165 75.0011 37.244 75.0011 28.2385C75.0011 13.3988 62.8885 1.32629 47.9999 1.32629Z" fill="#99B2C5"/>
<path d="M47.9999 8.92904C37.3176 8.92904 28.6267 17.5913 28.6267 28.2383C28.6267 34.7004 31.8572 40.7074 37.2684 44.3068C37.899 44.7261 38.7515 44.5568 39.1724 43.9282C39.5932 43.2997 39.4232 42.45 38.7925 42.0305C34.1463 38.9397 31.3726 33.7839 31.3726 28.2383C31.3726 19.1002 38.8315 11.6659 47.9999 11.6659C57.1682 11.6659 64.6271 19.1002 64.6271 28.2383C64.6271 33.7839 61.8534 38.9397 57.2072 42.0305C56.5766 42.4502 56.4063 43.2997 56.8273 43.9282C57.0919 44.3234 57.5272 44.5373 57.9705 44.5373C58.2325 44.5373 58.4972 44.4627 58.7313 44.3068C64.1426 40.7072 67.373 34.7004 67.373 28.2383C67.373 17.5915 58.6821 8.92904 47.9999 8.92904Z" fill="#99B2C5"/>
<path d="M47.9997 16.5922C41.5567 16.5922 36.315 21.8166 36.315 28.2383C36.315 32.139 38.264 35.7617 41.5289 37.9289C42.1601 38.348 43.0122 38.1778 43.4325 37.5485C43.8528 36.9196 43.6819 36.0699 43.0509 35.6511C40.5527 33.9924 39.0611 31.2215 39.0611 28.2383C39.0611 23.3257 43.071 19.329 47.9999 19.329C52.9287 19.329 56.9386 23.3257 56.9386 28.2383C56.9386 31.2215 55.4471 33.9924 52.9485 35.6511C52.3175 36.0701 52.1465 36.9196 52.5668 37.5485C52.8315 37.9444 53.2668 38.1586 53.7108 38.1586C53.9724 38.1586 54.2367 38.0844 54.4705 37.9289C57.7353 35.7617 59.6844 32.139 59.6844 28.2383C59.6844 21.8168 54.4426 16.5922 47.9997 16.5922Z" fill="#99B2C5"/>
<path d="M85.2731 62.6314H77.3503C76.5919 62.6314 75.9774 63.2439 75.9774 63.9998C75.9774 64.7557 76.5919 65.3683 77.3503 65.3683H85.2731C89.0469 65.3683 92.1171 68.4282 92.1171 72.1897V72.2311C92.1171 75.9925 89.0471 79.0526 85.2731 79.0526H24.5683C23.8099 79.0526 23.1954 79.6651 23.1954 80.421C23.1954 81.1769 23.8099 81.7894 24.5683 81.7894H85.2731C90.561 81.7894 94.863 77.5016 94.863 72.2311V72.1897C94.863 66.9191 90.561 62.6314 85.2731 62.6314Z" fill="#99B2C5"/>
<path d="M71.3094 62.6312H49.3728V58.1306C49.3728 57.3747 48.7583 56.7622 47.9999 56.7622C47.2415 56.7622 46.6269 57.3747 46.6269 58.1306V62.6314H10.7266C5.43879 62.6314 1.13672 66.9191 1.13672 72.1895V72.231C1.13672 77.5012 5.43879 81.7893 10.7266 81.7893H18.7104C19.4688 81.7893 20.0833 81.1768 20.0833 80.4209C20.0833 79.6649 19.4688 79.0524 18.7104 79.0524H10.7266C6.95269 79.0524 3.88261 75.9925 3.88261 72.2308V72.1894C3.88261 68.428 6.95269 65.3679 10.7266 65.3679H71.3094C72.0678 65.3679 72.6823 64.7554 72.6823 63.9995C72.6823 63.2436 72.0678 62.6312 71.3094 62.6312Z" fill="#99B2C5"/>
<path d="M85.294 68.1051H55.005C52.7567 68.1051 50.9276 69.9282 50.9276 72.1689C50.9276 74.4097 52.7567 76.2326 55.0048 76.2326H85.294C87.5422 76.2326 89.3711 74.4097 89.3711 72.1689C89.3711 69.9282 87.5422 68.1051 85.294 68.1051ZM85.2942 73.4956H55.005C54.2708 73.4956 53.6736 72.9002 53.6736 72.1687C53.6736 71.4369 54.271 70.8417 55.005 70.8417H85.2942C86.0281 70.8417 86.6254 71.4371 86.6254 72.1687C86.6254 72.9004 86.0281 73.4956 85.2942 73.4956Z" fill="#99B2C5"/>
<path d="M45.6276 68.5085H27.3217C26.5633 68.5085 25.9488 69.121 25.9488 69.8769C25.9488 70.6328 26.5633 71.2453 27.3217 71.2453H45.6276C46.386 71.2453 47.0006 70.6328 47.0006 69.8769C47.0006 69.121 46.386 68.5085 45.6276 68.5085Z" fill="#99B2C5"/>
<path d="M45.6276 72.8874H27.3217C26.5633 72.8874 25.9488 73.4999 25.9488 74.2559C25.9488 75.0118 26.5633 75.6243 27.3217 75.6243H45.6276C46.386 75.6243 47.0006 75.0118 47.0006 74.2559C47.0006 73.4999 46.386 72.8874 45.6276 72.8874Z" fill="#99B2C5"/>
<path d="M48.1847 23.221C45.409 23.221 43.1506 25.4719 43.1506 28.2385C43.1506 30.4632 44.6114 32.3534 46.6269 33.009V52.2922C46.6269 53.0481 47.2414 53.6606 47.9998 53.6606C48.7583 53.6606 49.3728 53.0481 49.3728 52.2922V33.1135C51.5768 32.5799 53.2189 30.5971 53.2189 28.2385C53.2189 25.4718 50.9605 23.221 48.1847 23.221ZM48.1847 30.5192C46.9229 30.5192 45.8965 29.4962 45.8965 28.2385C45.8965 26.9808 46.9229 25.9578 48.1847 25.9578C49.4466 25.9578 50.473 26.9808 50.473 28.2385C50.473 29.4962 49.4466 30.5192 48.1847 30.5192Z" fill="#99B2C5"/>
<path d="M16.9699 67.9611C14.6989 67.9611 12.8511 69.8028 12.8511 72.0664C12.8511 74.3299 14.6989 76.1716 16.9699 76.1716C19.2409 76.1716 21.0887 74.3299 21.0887 72.0664C21.0887 69.8028 19.2409 67.9611 16.9699 67.9611ZM16.9699 73.4348C16.2128 73.4348 15.597 72.821 15.597 72.0664C15.597 71.3117 16.2128 70.698 16.9699 70.698C17.727 70.698 18.3429 71.3117 18.3429 72.0664C18.3429 72.821 17.727 73.4348 16.9699 73.4348Z" stroke="#99B2C5" stroke-width="0.999996"/>
<path d="M47.9999 1.32629C33.1113 1.32629 20.9986 13.399 20.9986 28.2385C20.9986 37.244 25.5014 45.6165 33.0432 50.6346C33.6735 51.0539 34.5264 50.8847 34.9474 50.2562C35.3682 49.6276 35.1984 48.7777 34.5677 48.3583C27.7907 43.8489 23.7445 36.3277 23.7445 28.2385C23.7445 14.9081 34.6254 4.06313 47.9999 4.06313C61.3744 4.06313 72.2552 14.9081 72.2552 28.2385C72.2552 36.3277 68.2091 43.8491 61.432 48.3581C60.8014 48.7777 60.6315 49.6274 61.0524 50.256C61.3171 50.6512 61.7522 50.8648 62.1956 50.8648C62.4575 50.8648 62.7224 50.7902 62.9565 50.6344C70.4984 45.6165 75.0011 37.244 75.0011 28.2385C75.0011 13.3988 62.8885 1.32629 47.9999 1.32629Z" stroke="#99B2C5" stroke-width="0.999996"/>
<path d="M47.9999 8.92904C37.3176 8.92904 28.6267 17.5913 28.6267 28.2383C28.6267 34.7004 31.8572 40.7074 37.2684 44.3068C37.899 44.7261 38.7515 44.5568 39.1724 43.9282C39.5932 43.2997 39.4232 42.45 38.7925 42.0305C34.1463 38.9397 31.3726 33.7839 31.3726 28.2383C31.3726 19.1002 38.8315 11.6659 47.9999 11.6659C57.1682 11.6659 64.6271 19.1002 64.6271 28.2383C64.6271 33.7839 61.8534 38.9397 57.2072 42.0305C56.5766 42.4502 56.4063 43.2997 56.8273 43.9282C57.0919 44.3234 57.5272 44.5373 57.9705 44.5373C58.2325 44.5373 58.4972 44.4627 58.7313 44.3068C64.1426 40.7072 67.373 34.7004 67.373 28.2383C67.373 17.5915 58.6821 8.92904 47.9999 8.92904Z" stroke="#99B2C5" stroke-width="0.999996"/>
<path d="M47.9997 16.5922C41.5567 16.5922 36.315 21.8166 36.315 28.2383C36.315 32.139 38.264 35.7617 41.5289 37.9289C42.1601 38.348 43.0122 38.1778 43.4325 37.5485C43.8528 36.9196 43.6819 36.0699 43.0509 35.6511C40.5527 33.9924 39.0611 31.2215 39.0611 28.2383C39.0611 23.3257 43.071 19.329 47.9999 19.329C52.9287 19.329 56.9386 23.3257 56.9386 28.2383C56.9386 31.2215 55.4471 33.9924 52.9485 35.6511C52.3175 36.0701 52.1465 36.9196 52.5668 37.5485C52.8315 37.9444 53.2668 38.1586 53.7108 38.1586C53.9724 38.1586 54.2367 38.0844 54.4705 37.9289C57.7353 35.7617 59.6844 32.139 59.6844 28.2383C59.6844 21.8168 54.4426 16.5922 47.9997 16.5922Z" stroke="#99B2C5" stroke-width="0.999996"/>
<path d="M85.2731 62.6314H77.3503C76.5919 62.6314 75.9774 63.2439 75.9774 63.9998C75.9774 64.7557 76.5919 65.3683 77.3503 65.3683H85.2731C89.0469 65.3683 92.1171 68.4282 92.1171 72.1897V72.2311C92.1171 75.9925 89.0471 79.0526 85.2731 79.0526H24.5683C23.8099 79.0526 23.1954 79.6651 23.1954 80.421C23.1954 81.1769 23.8099 81.7894 24.5683 81.7894H85.2731C90.561 81.7894 94.863 77.5016 94.863 72.2311V72.1897C94.863 66.9191 90.561 62.6314 85.2731 62.6314Z" stroke="#99B2C5" stroke-width="0.999996"/>
<path d="M71.3094 62.6312H49.3728V58.1306C49.3728 57.3747 48.7583 56.7622 47.9999 56.7622C47.2415 56.7622 46.6269 57.3747 46.6269 58.1306V62.6314H10.7266C5.43879 62.6314 1.13672 66.9191 1.13672 72.1895V72.231C1.13672 77.5012 5.43879 81.7893 10.7266 81.7893H18.7104C19.4688 81.7893 20.0833 81.1768 20.0833 80.4209C20.0833 79.6649 19.4688 79.0524 18.7104 79.0524H10.7266C6.95269 79.0524 3.88261 75.9925 3.88261 72.2308V72.1894C3.88261 68.428 6.95269 65.3679 10.7266 65.3679H71.3094C72.0678 65.3679 72.6823 64.7554 72.6823 63.9995C72.6823 63.2436 72.0678 62.6312 71.3094 62.6312Z" stroke="#99B2C5" stroke-width="0.999996"/>
<path d="M85.294 68.1051H55.005C52.7567 68.1051 50.9276 69.9282 50.9276 72.1689C50.9276 74.4097 52.7567 76.2326 55.0048 76.2326H85.294C87.5422 76.2326 89.3711 74.4097 89.3711 72.1689C89.3711 69.9282 87.5422 68.1051 85.294 68.1051ZM85.2942 73.4956H55.005C54.2708 73.4956 53.6736 72.9002 53.6736 72.1687C53.6736 71.4369 54.271 70.8417 55.005 70.8417H85.2942C86.0281 70.8417 86.6254 71.4371 86.6254 72.1687C86.6254 72.9004 86.0281 73.4956 85.2942 73.4956Z" stroke="#99B2C5" stroke-width="0.999996"/>
<path d="M45.6276 68.5085H27.3217C26.5633 68.5085 25.9488 69.121 25.9488 69.8769C25.9488 70.6328 26.5633 71.2453 27.3217 71.2453H45.6276C46.386 71.2453 47.0006 70.6328 47.0006 69.8769C47.0006 69.121 46.386 68.5085 45.6276 68.5085Z" stroke="#99B2C5" stroke-width="0.999996"/>
<path d="M45.6276 72.8874H27.3217C26.5633 72.8874 25.9488 73.4999 25.9488 74.2559C25.9488 75.0118 26.5633 75.6243 27.3217 75.6243H45.6276C46.386 75.6243 47.0006 75.0118 47.0006 74.2559C47.0006 73.4999 46.386 72.8874 45.6276 72.8874Z" stroke="#99B2C5" stroke-width="0.999996"/>
<path d="M48.1847 23.221C45.409 23.221 43.1506 25.4719 43.1506 28.2385C43.1506 30.4632 44.6114 32.3534 46.6269 33.009V52.2922C46.6269 53.0481 47.2414 53.6606 47.9998 53.6606C48.7583 53.6606 49.3728 53.0481 49.3728 52.2922V33.1135C51.5768 32.5799 53.2189 30.5971 53.2189 28.2385C53.2189 25.4718 50.9605 23.221 48.1847 23.221ZM48.1847 30.5192C46.9229 30.5192 45.8965 29.4962 45.8965 28.2385C45.8965 26.9808 46.9229 25.9578 48.1847 25.9578C49.4466 25.9578 50.473 26.9808 50.473 28.2385C50.473 29.4962 49.4466 30.5192 48.1847 30.5192Z" stroke="#99B2C5" stroke-width="0.999996"/>
</svg>
