<svg width="60" height="60" viewBox="0 0 60 60" fill="none" xmlns="http://www.w3.org/2000/svg">
<g clip-path="url(#clip0)">
<path d="M51.2101 8.79034C50.3398 7.92006 48.9225 7.92006 48.0398 8.79034L41.2143 15.6159C40.344 16.4862 40.344 17.9035 41.2143 18.7862C42.0845 19.6565 43.5019 19.6565 44.3846 18.7862L49.569 13.6018C57.9735 23.6101 57.4762 38.6163 48.0522 48.0402C38.1061 57.9864 21.9188 57.9864 11.9726 48.0402C2.02652 38.0941 2.02652 21.9068 11.9726 11.9607C18.0895 5.8438 26.8048 3.25781 35.2715 5.03568C36.4525 5.28433 37.6461 4.51351 37.8947 3.29511C38.1434 2.08914 37.3726 0.895604 36.1666 0.646951C26.208 -1.44174 15.9635 1.60427 8.77746 8.79034C3.1206 14.4596 0 21.9938 0 30.0005C0 38.0071 3.1206 45.5413 8.78989 51.2106C14.4592 56.8799 21.9809 60.0005 30 60.0005C38.0191 60.0005 45.5408 56.8799 51.2101 51.2106C56.8794 45.5413 60 38.0195 60 30.0005C60 21.9814 56.8794 14.4596 51.2101 8.79034Z" fill="url(#paint0_linear)"/>
<path d="M29.9877 9.12524C28.7568 9.12524 27.7498 10.1323 27.7498 11.3631V29.0672L18.8231 37.9939C17.9528 38.8642 17.9528 40.2815 18.8231 41.1642C19.2583 41.5993 19.8302 41.8231 20.4021 41.8231C20.974 41.8231 21.5459 41.5993 21.981 41.1642L31.5666 31.5786C31.6163 31.5289 31.6661 31.4667 31.7158 31.417C31.7407 31.3921 31.7531 31.3673 31.7655 31.3424C31.7904 31.3051 31.8153 31.2802 31.8401 31.2429C31.865 31.2181 31.8774 31.1808 31.9023 31.1435C31.9147 31.1186 31.9396 31.0813 31.952 31.044C31.9644 31.0067 31.9893 30.9819 32.0017 30.9446C32.0142 30.9073 32.039 30.8824 32.0515 30.8451C32.0639 30.8078 32.0763 30.7829 32.0888 30.7456C32.1012 30.7083 32.1136 30.671 32.1261 30.6337C32.1385 30.5964 32.1385 30.5716 32.1509 30.5343C32.1634 30.497 32.1758 30.4597 32.1758 30.4224C32.1882 30.3851 32.1882 30.3478 32.1882 30.2981C32.1882 30.2608 32.2007 30.2359 32.2007 30.1986C32.2131 30.124 32.2131 30.0494 32.2131 29.9748V11.3631C32.2255 10.1323 31.2185 9.12524 29.9877 9.12524Z" fill="url(#paint1_linear)"/>
</g>
<defs>
<linearGradient id="paint0_linear" x1="60" y1="30.0008" x2="1.00612e-06" y2="30.0008" gradientUnits="userSpaceOnUse">
<stop stop-color="#06EA84"/>
<stop offset="1" stop-color="#2BC47B"/>
</linearGradient>
<linearGradient id="paint1_linear" x1="32.2132" y1="25.4742" x2="18.1704" y2="25.4742" gradientUnits="userSpaceOnUse">
<stop stop-color="#06EA84"/>
<stop offset="1" stop-color="#2BC47B"/>
</linearGradient>
<clipPath id="clip0">
<rect width="60" height="60" fill="white"/>
</clipPath>
</defs>
</svg>
