<svg width="60" height="60" viewBox="0 0 60 60" fill="none" xmlns="http://www.w3.org/2000/svg">
<path d="M14.0625 23.7891H9.43137C10.2137 13.125 19.1398 4.6875 30 4.6875C38.5938 4.6875 46.3702 10.1004 49.3506 18.1569C49.7996 19.3709 51.1478 19.9909 52.362 19.542C53.5759 19.0928 54.1961 17.7446 53.747 16.5306C51.9707 11.7287 48.8149 7.61965 44.6211 4.64754C40.3309 1.60711 35.275 0 30 0C23.2389 0 16.8823 2.63297 12.1014 7.41387C7.38281 12.1324 4.7584 18.386 4.69066 25.0485C1.88965 26.6715 0 29.7004 0 33.1641V41.1328C0 46.3022 4.20563 50.5078 9.375 50.5078H14.0625C15.357 50.5078 16.4062 49.4585 16.4062 48.1641V26.1328C16.4062 24.8384 15.357 23.7891 14.0625 23.7891ZM11.7188 45.8203H9.375C6.79031 45.8203 4.6875 43.7175 4.6875 41.1328V33.1641C4.6875 30.5794 6.79031 28.4766 9.375 28.4766H11.7188V45.8203Z" fill="url(#paint0_linear)"/>
<path d="M50.625 23.7891H45.9375C44.643 23.7891 43.5938 24.8384 43.5938 26.1328V42.1875V48.1641V50.625C43.5938 51.9173 42.5423 52.9688 41.25 52.9688H34.1016V53.043C33.3021 51.6013 31.7653 50.625 30 50.625C27.4112 50.625 25.3125 52.7237 25.3125 55.3125C25.3125 57.9013 27.4112 60 30 60C31.7653 60 33.3021 59.0237 34.1016 57.582V57.6562H41.25C45.127 57.6562 48.2812 54.502 48.2812 50.625V50.5078H50.625C55.7944 50.5078 60 46.3022 60 41.1328V33.1641C60 27.9947 55.7944 23.7891 50.625 23.7891ZM55.3125 41.1328C55.3125 43.7175 53.2097 45.8203 50.625 45.8203H48.2812V42.1875V28.4766H50.625C53.2097 28.4766 55.3125 30.5794 55.3125 33.1641V41.1328Z" fill="url(#paint1_linear)"/>
<defs>
<linearGradient id="paint0_linear" x1="53.8932" y1="25.2539" x2="9.03715e-07" y2="25.2539" gradientUnits="userSpaceOnUse">
<stop stop-color="#06EA84"/>
<stop offset="1" stop-color="#2BC47B"/>
</linearGradient>
<linearGradient id="paint1_linear" x1="60" y1="41.8945" x2="25.3125" y2="41.8945" gradientUnits="userSpaceOnUse">
<stop stop-color="#06EA84"/>
<stop offset="1" stop-color="#2BC47B"/>
</linearGradient>
</defs>
</svg>
