<svg width="512" height="286" viewBox="0 0 512 286" fill="none" xmlns="http://www.w3.org/2000/svg">
<path d="M16.6758 264.165L61.9026 279.336L105.316 260.849L60.9961 245.392L16.6758 264.165Z" stroke="#2BC47C" stroke-width="1.5" stroke-miterlimit="10" stroke-linecap="round"/>
<path d="M59.962 170.541L32.9687 181.031L32.9688 263.885L61.217 273.23L87.6656 262.272V179.571L59.962 170.541Z" fill="url(#paint0_linear)"/>
<path d="M60.6121 267.29V273.11L32.7031 263.974V258.464L60.6121 267.29Z" fill="#F6FBFF"/>
<path d="M87.8065 262.352V257.081L62.1875 267.314V272.824L87.8065 262.352Z" fill="#D8E5F1"/>
<path d="M60.6121 259.752V265.572L32.7031 256.436V250.926L60.6121 259.752Z" fill="#F6FBFF"/>
<path d="M87.8065 254.814V249.542L62.1875 259.776V265.286L87.8065 254.814Z" fill="#D8E5F1"/>
<path d="M60.6121 252.142V257.963L32.7031 248.851V243.34L60.6121 252.142Z" fill="#F6FBFF"/>
<path d="M87.8065 247.229V241.957L62.1875 252.19V257.701L87.8065 247.229Z" fill="#D8E5F1"/>
<path d="M60.6121 244.605V250.425L32.7031 241.313V235.779L60.6121 244.605Z" fill="#F6FBFF"/>
<path d="M87.8065 239.691V234.419L62.1875 244.629V250.163L87.8065 239.691Z" fill="#D8E5F1"/>
<path d="M60.6121 237.019V242.839L32.7031 233.703V228.193L60.6121 237.019Z" fill="#F6FBFF"/>
<path d="M87.8065 232.081V226.833L62.1875 237.043V242.553L87.8065 232.081Z" fill="#D8E5F1"/>
<path d="M60.6121 229.481V235.302L32.7031 226.166V220.655L60.6121 229.481Z" fill="#F6FBFF"/>
<path d="M87.8065 224.544V219.296L62.1875 229.505V235.016L87.8065 224.544Z" fill="#D8E5F1"/>
<path d="M60.6121 221.896V227.716L32.7031 218.58V213.07L60.6121 221.896Z" fill="#F6FBFF"/>
<path d="M87.8065 216.958V211.687L62.1875 221.92V227.43L87.8065 216.958Z" fill="#D8E5F1"/>
<path d="M60.6121 214.358V220.178L32.7031 211.042V205.532L60.6121 214.358Z" fill="#F6FBFF"/>
<path d="M87.8065 209.421V204.149L62.1875 214.382V219.892L87.8065 209.421Z" fill="#D8E5F1"/>
<path d="M60.6121 206.749V212.569L32.7031 203.457V197.947L60.6121 206.749Z" fill="#F6FBFF"/>
<path d="M87.8065 201.835V196.563L62.1875 206.797V212.307L87.8065 201.835Z" fill="#D8E5F1"/>
<path d="M60.6121 199.163V204.984L32.7031 195.848V190.337L60.6121 199.163Z" fill="#F6FBFF"/>
<path d="M87.8065 194.226V188.978L62.1875 199.187V204.698L87.8065 194.226Z" fill="#D8E5F1"/>
<path d="M60.6121 191.626V197.446L32.7031 188.31V182.8L60.6121 191.626Z" fill="#F6FBFF"/>
<path d="M87.8065 186.688V181.44L62.1875 191.649V197.16L87.8065 186.688Z" fill="#D8E5F1"/>
<path d="M32.7031 181.082L61.1607 189.813L87.8054 179.436L60.1827 170.133L32.7031 181.082Z" fill="#E9F1F8"/>
<path d="M146.297 264.165L191.524 279.336L234.938 260.849L190.617 245.392L146.297 264.165Z" stroke="#2BC47C" stroke-width="1.5" stroke-miterlimit="10" stroke-linecap="round"/>
<path d="M189.518 185.868L162.324 196.067V263.974L190.782 273.372L217.426 262.352V194.421L189.518 185.868Z" fill="url(#paint1_linear)"/>
<path d="M190.233 267.128V272.948L162.324 263.836V258.326L190.233 267.128Z" fill="#F6FBFF"/>
<path d="M217.428 262.214V256.942L191.809 267.176V272.686L217.428 262.214Z" fill="#D8E5F1"/>
<path d="M190.233 259.59V265.41L162.324 256.298V250.764L190.233 259.59Z" fill="#F6FBFF"/>
<path d="M217.428 254.676V249.404L191.809 259.614V265.148L217.428 254.676Z" fill="#D8E5F1"/>
<path d="M190.233 252.004V257.824L162.324 248.688V243.178L190.233 252.004Z" fill="#F6FBFF"/>
<path d="M217.428 247.067V241.819L191.809 252.028V257.539L217.428 247.067Z" fill="#D8E5F1"/>
<path d="M190.233 244.467V250.287L162.324 241.151V235.641L190.233 244.467Z" fill="#F6FBFF"/>
<path d="M217.428 239.529V234.281L191.809 244.491V250.001L217.428 239.529Z" fill="#D8E5F1"/>
<path d="M190.233 236.881V242.701L162.324 233.565V228.055L190.233 236.881Z" fill="#F6FBFF"/>
<path d="M217.428 231.944V226.672L191.809 236.905V242.415L217.428 231.944Z" fill="#D8E5F1"/>
<path d="M190.233 229.343V235.164L162.324 226.028V220.518L190.233 229.343Z" fill="#F6FBFF"/>
<path d="M217.428 224.406V219.134L191.809 229.368V234.878L217.428 224.406Z" fill="#D8E5F1"/>
<path d="M190.233 221.734V227.554L162.324 218.442V212.932L190.233 221.734Z" fill="#F6FBFF"/>
<path d="M217.428 216.821V211.549L191.809 221.782V227.292L217.428 216.821Z" fill="#D8E5F1"/>
<path d="M190.233 214.149V219.969L162.324 210.833V205.323L190.233 214.149Z" fill="#F6FBFF"/>
<path d="M217.428 209.211V203.963L191.809 214.173V219.683L217.428 209.211Z" fill="#D8E5F1"/>
<path d="M190.233 206.611V212.431L162.324 203.295V197.785L190.233 206.611Z" fill="#F6FBFF"/>
<path d="M217.428 201.673V196.425L191.809 206.635V212.145L217.428 201.673Z" fill="#D8E5F1"/>
<path d="M162.324 196.068L190.782 204.798L217.426 194.422L189.804 185.119L162.324 196.068Z" fill="#E9F1F8"/>
<path d="M177.688 193.014L190.402 196.902L202.281 192.275L189.948 188.124L177.688 193.014Z" fill="#E9F1F8"/>
<path d="M202.325 194.636V192.37L190.398 197.045V199.55L202.325 194.636Z" fill="#D8E5F1"/>
<path d="M190.234 196.998V199.502L177.52 195.185V193.133L190.234 196.998Z" fill="#F6FBFF"/>
<path d="M275.926 264.165L321.153 279.336L364.566 260.849L320.246 245.392L275.926 264.165Z" stroke="#2BC47C" stroke-width="1.5" stroke-miterlimit="10" stroke-linecap="round"/>
<path d="M319.146 193.361L291.953 203.56V263.974L320.411 273.373L347.055 262.352V201.915L319.146 193.361Z" fill="url(#paint2_linear)"/>
<path d="M319.862 267.083V272.904L291.953 263.791V258.257L319.862 267.083Z" fill="#F6FBFF"/>
<path d="M347.056 262.17V256.898L321.438 267.107V272.641L347.056 262.17Z" fill="#D8E5F1"/>
<path d="M319.862 259.498V265.318L291.953 256.182V250.672L319.862 259.498Z" fill="#F6FBFF"/>
<path d="M347.056 254.56V249.312L321.438 259.521V265.032L347.056 254.56Z" fill="#D8E5F1"/>
<path d="M319.862 251.96V257.78L291.953 248.644V243.134L319.862 251.96Z" fill="#F6FBFF"/>
<path d="M347.056 247.022V241.774L321.438 251.984V257.494L347.056 247.022Z" fill="#D8E5F1"/>
<path d="M319.862 244.374V250.195L291.953 241.059V235.548L319.862 244.374Z" fill="#F6FBFF"/>
<path d="M347.056 239.437V234.165L321.438 244.398V249.909L347.056 239.437Z" fill="#D8E5F1"/>
<path d="M319.862 236.837V242.657L291.953 233.521V228.011L319.862 236.837Z" fill="#F6FBFF"/>
<path d="M347.056 231.899V226.627L321.438 236.861V242.371L347.056 231.899Z" fill="#D8E5F1"/>
<path d="M319.862 229.227V235.048L291.953 225.936V220.425L319.862 229.227Z" fill="#F6FBFF"/>
<path d="M347.056 224.314V219.042L321.438 229.275V234.785L347.056 224.314Z" fill="#D8E5F1"/>
<path d="M319.862 221.642V227.463L291.953 218.327V212.816L319.862 221.642Z" fill="#F6FBFF"/>
<path d="M347.056 216.704V211.457L321.438 221.666V227.176L347.056 216.704Z" fill="#D8E5F1"/>
<path d="M319.862 214.104V219.924L291.953 210.788V205.278L319.862 214.104Z" fill="#F6FBFF"/>
<path d="M347.056 209.166V203.918L321.438 214.128V219.638L347.056 209.166Z" fill="#D8E5F1"/>
<path d="M291.953 203.561L320.411 212.291L347.055 201.915L319.433 192.612L291.953 203.561Z" fill="#E9F1F8"/>
<path d="M405.547 264.165L450.774 279.336L494.188 260.849L449.867 245.392L405.547 264.165Z" stroke="#2BC47C" stroke-width="1.5" stroke-miterlimit="10" stroke-linecap="round"/>
<path d="M448.768 170.882L421.574 181.082V263.974L450.032 273.372L476.676 262.352V179.436L448.768 170.882Z" fill="url(#paint3_linear)"/>
<path d="M449.483 267.29V273.11L421.574 263.974V258.464L449.483 267.29Z" fill="#F6FBFF"/>
<path d="M476.678 262.352V257.081L451.059 267.314V272.824L476.678 262.352Z" fill="#D8E5F1"/>
<path d="M449.483 259.752V265.572L421.574 256.436V250.926L449.483 259.752Z" fill="#F6FBFF"/>
<path d="M476.678 254.814V249.542L451.059 259.776V265.286L476.678 254.814Z" fill="#D8E5F1"/>
<path d="M449.483 252.142V257.963L421.574 248.851V243.34L449.483 252.142Z" fill="#F6FBFF"/>
<path d="M476.678 247.229V241.957L451.059 252.19V257.701L476.678 247.229Z" fill="#D8E5F1"/>
<path d="M449.483 244.605V250.425L421.574 241.313V235.779L449.483 244.605Z" fill="#F6FBFF"/>
<path d="M476.678 239.691V234.419L451.059 244.629V250.163L476.678 239.691Z" fill="#D8E5F1"/>
<path d="M449.483 237.019V242.839L421.574 233.703V228.193L449.483 237.019Z" fill="#F6FBFF"/>
<path d="M476.678 232.081V226.833L451.059 237.043V242.553L476.678 232.081Z" fill="#D8E5F1"/>
<path d="M449.483 229.481V235.302L421.574 226.166V220.655L449.483 229.481Z" fill="#F6FBFF"/>
<path d="M476.678 224.544V219.296L451.059 229.505V235.016L476.678 224.544Z" fill="#D8E5F1"/>
<path d="M449.483 221.896V227.716L421.574 218.58V213.07L449.483 221.896Z" fill="#F6FBFF"/>
<path d="M476.678 216.958V211.687L451.059 221.92V227.43L476.678 216.958Z" fill="#D8E5F1"/>
<path d="M449.483 214.358V220.178L421.574 211.042V205.532L449.483 214.358Z" fill="#F6FBFF"/>
<path d="M476.678 209.421V204.149L451.059 214.382V219.892L476.678 209.421Z" fill="#D8E5F1"/>
<path d="M449.483 206.749V212.569L421.574 203.457V197.947L449.483 206.749Z" fill="#F6FBFF"/>
<path d="M476.678 201.835V196.563L451.059 206.797V212.307L476.678 201.835Z" fill="#D8E5F1"/>
<path d="M449.483 199.163V204.984L421.574 195.848V190.337L449.483 199.163Z" fill="#F6FBFF"/>
<path d="M476.678 194.226V188.978L451.059 199.187V204.698L476.678 194.226Z" fill="#D8E5F1"/>
<path d="M449.483 191.626V197.446L421.574 188.31V182.8L449.483 191.626Z" fill="#F6FBFF"/>
<path d="M476.678 186.688V181.44L451.059 191.649V197.16L476.678 186.688Z" fill="#D8E5F1"/>
<path d="M421.574 181.082L450.032 189.813L476.676 179.436L449.054 170.133L421.574 181.082Z" fill="#E9F1F8"/>
<path d="M436.938 178.029L449.652 181.917L461.531 177.289L449.198 173.139L436.938 178.029Z" fill="#E9F1F8"/>
<path d="M461.575 179.651V177.385L449.648 182.06V184.565L461.575 179.651Z" fill="#D8E5F1"/>
<path d="M449.484 182.012V184.517L436.77 180.199V178.148L449.484 182.012Z" fill="#F6FBFF"/>
<path d="M286.859 23.9549C287.031 22.8927 287.124 21.8173 287.124 20.7551C287.124 9.96083 278.335 1.17139 267.54 1.17139C260.411 1.17139 253.984 4.95536 250.506 11.1292C248.687 10.306 246.695 9.88117 244.69 9.88117C237.189 9.88117 231.028 15.7496 230.577 23.2114C226.793 24.1806 224.031 27.6459 224.031 31.6291C224.031 36.4221 227.935 40.3256 232.728 40.3256H282.769C287.562 40.3256 291.466 36.4221 291.466 31.6291C291.479 28.3762 289.7 25.4552 286.859 23.9549ZM282.782 38.1614H232.728C229.13 38.1614 226.195 35.2272 226.195 31.6291C226.195 25.4154 232.728 24.964 232.728 24.964V24.0213C232.728 17.4226 238.092 12.0586 244.69 12.0586C248.594 12.0586 251.435 14.0767 251.435 14.0767C251.435 14.0767 255.936 3.34883 267.527 3.34883C277.126 3.34883 284.933 11.1558 284.933 20.7551C284.933 23.623 284.376 25.2428 284.376 25.2428C284.376 25.2428 289.288 26.5174 289.288 31.6291C289.302 35.2272 286.381 38.1614 282.782 38.1614Z" fill="url(#paint4_linear)" stroke="url(#paint5_linear)" stroke-width="2"/>
<line x1="62.1914" y1="118.859" x2="451.064" y2="118.859" stroke="#2BC47C" stroke-width="2" stroke-dasharray="2 4"/>
<line x1="60" y1="170" x2="60" y2="120" stroke="#2BC47C" stroke-width="2" stroke-dasharray="2 4"/>
<line x1="189" y1="189" x2="189" y2="120" stroke="#2BC47C" stroke-width="2" stroke-dasharray="2 4"/>
<line x1="320" y1="203" x2="320" y2="120" stroke="#2BC47C" stroke-width="2" stroke-dasharray="2 4"/>
<line x1="449" y1="170" x2="449" y2="120" stroke="#2BC47C" stroke-width="2" stroke-dasharray="2 4"/>
<line x1="258" y1="120" x2="258" y2="42" stroke="#2BC47C" stroke-width="2" stroke-dasharray="2 4"/>
<defs>
<linearGradient id="paint0_linear" x1="60.007" y1="179.196" x2="60.007" y2="256.746" gradientUnits="userSpaceOnUse">
<stop stop-color="#2BC47C"/>
<stop offset="1" stop-color="white"/>
</linearGradient>
<linearGradient id="paint1_linear" x1="189.563" y1="192.527" x2="189.563" y2="259.2" gradientUnits="userSpaceOnUse">
<stop stop-color="#2BC47C"/>
<stop offset="1" stop-color="white"/>
</linearGradient>
<linearGradient id="paint2_linear" x1="319.192" y1="199.391" x2="319.192" y2="260.404" gradientUnits="userSpaceOnUse">
<stop stop-color="#2BC47C"/>
<stop offset="1" stop-color="white"/>
</linearGradient>
<linearGradient id="paint3_linear" x1="448.813" y1="178.799" x2="448.813" y2="256.794" gradientUnits="userSpaceOnUse">
<stop stop-color="#2BC47C"/>
<stop offset="1" stop-color="white"/>
</linearGradient>
<linearGradient id="paint4_linear" x1="291.466" y1="20.7485" x2="224.031" y2="20.7485" gradientUnits="userSpaceOnUse">
<stop stop-color="#06EA84"/>
<stop offset="1" stop-color="#2BC47B"/>
</linearGradient>
<linearGradient id="paint5_linear" x1="291.466" y1="20.7485" x2="224.031" y2="20.7485" gradientUnits="userSpaceOnUse">
<stop stop-color="#06EA84"/>
<stop offset="1" stop-color="#2BC47B"/>
</linearGradient>
</defs>
</svg>
