<svg width="80" height="80" viewBox="0 0 80 80" fill="none" xmlns="http://www.w3.org/2000/svg">
<path d="M40 58.125C30.0058 58.125 21.875 49.9941 21.875 40C21.875 30.0059 30.0058 21.875 40 21.875C49.9942 21.875 58.125 30.0059 58.125 40C58.125 41.7319 57.8805 43.4466 57.3981 45.0959C56.9134 46.7525 55.1783 47.7027 53.5214 47.2181C51.8648 46.7336 50.9147 44.9981 51.3992 43.3416C51.715 42.2623 51.875 41.138 51.875 40C51.875 33.452 46.5478 28.125 40 28.125C33.4522 28.125 28.125 33.452 28.125 40C28.125 46.548 33.4522 51.875 40 51.875C41.2261 51.875 42.4333 51.6897 43.5883 51.3241C45.2334 50.8033 46.99 51.715 47.5106 53.3605C48.0314 55.0059 47.1198 56.762 45.4744 57.2828C43.7086 57.8417 41.8667 58.125 40 58.125ZM50.9375 70.625V69.0509C50.9375 68.637 51.1981 68.2619 51.5983 68.0967L51.6594 68.0714C52.0647 67.9033 52.5158 67.9836 52.8084 68.2762L53.9212 69.3891C55.6919 71.1598 58.0461 72.135 60.5505 72.135C63.0545 72.135 65.4089 71.1598 67.1797 69.3891L69.3894 67.1794C71.16 65.4086 72.1352 63.0544 72.1352 60.5503C72.1352 58.0461 71.16 55.6919 69.3894 53.9212L68.2766 52.8084C67.9837 52.5156 67.9033 52.0645 68.0716 51.6592L68.0952 51.602C68.2619 51.1984 68.6372 50.9377 69.0511 50.9377H70.625C75.7944 50.9377 80 46.732 80 41.5627V38.4377C80 33.2683 75.7944 29.0627 70.625 29.0627H69.0511C68.6372 29.0627 68.2617 28.8019 68.0992 28.4084L68.0714 28.3409C67.9031 27.9356 67.9834 27.4845 68.2762 27.1917L69.3892 26.0789C73.0445 22.4236 73.0445 16.4759 69.3892 12.8206L67.1795 10.6109C65.4088 8.84016 63.0545 7.865 60.5503 7.865C58.0461 7.865 55.6917 8.84016 53.9211 10.6109L52.8084 11.7236C52.5155 12.0166 52.0639 12.0969 51.6605 11.9292L51.6016 11.9048C51.198 11.7383 50.9373 11.3631 50.9373 10.9491V9.375C50.9373 4.20563 46.7317 0 41.5623 0H38.4373C33.268 0 29.0623 4.20563 29.0623 9.375V10.9491C29.0623 11.363 28.8017 11.7381 28.4016 11.9033L28.3405 11.9286C27.9355 12.097 27.4841 12.0166 27.1914 11.7237L26.0786 10.6109C24.308 8.84016 21.9538 7.865 19.4494 7.865C16.9453 7.865 14.5909 8.84016 12.8202 10.6109L10.6108 12.8206C6.95547 16.4759 6.95547 22.4236 10.6109 26.0791L11.7236 27.1917C12.0164 27.4847 12.0969 27.9358 11.9237 28.3527L11.9048 28.3983C11.7383 28.8019 11.3628 29.0627 10.9489 29.0627H9.375C4.20563 29.0627 0 33.2683 0 38.4377V41.5627C0 46.732 4.20563 50.9377 9.375 50.9377H10.9489C11.3628 50.9377 11.7381 51.1984 11.9008 51.5919L11.9286 51.6594C12.0969 52.0647 12.0166 52.5158 11.7236 52.8086L10.6109 53.9214C8.84016 55.6922 7.865 58.0464 7.865 60.5506C7.865 63.0547 8.84016 65.4091 10.6108 67.1797L12.8205 69.3894C14.5913 71.1602 16.9455 72.1353 19.4497 72.1353C21.9539 72.1353 24.3083 71.1602 26.0789 69.3894L27.1916 68.2767C27.4842 67.9837 27.9359 67.9034 28.3395 68.0711L28.3984 68.0955C28.802 68.262 29.0627 68.6372 29.0627 69.0513V70.625C29.0627 75.7944 33.2683 80 38.4377 80H41.5627C46.7319 80 50.9375 75.7944 50.9375 70.625ZM22.772 63.8569L21.6592 64.9698C21.0691 65.56 20.2844 65.885 19.4495 65.885C18.6148 65.885 17.8302 65.5598 17.2398 64.9697L15.0302 62.76C14.4398 62.1697 14.1148 61.385 14.1148 60.5503C14.1148 59.7156 14.4398 58.9308 15.0302 58.3406L16.143 57.2278C18.2305 55.1402 18.842 52.015 17.7017 49.2652L17.6814 49.2161C16.5455 46.465 13.9028 44.6875 10.9489 44.6875H9.375C7.65188 44.6875 6.25 43.2856 6.25 41.5625V38.4375C6.25 36.7144 7.65188 35.3125 9.375 35.3125H10.9489C13.9027 35.3125 16.5453 33.535 17.6858 30.7738L17.7003 30.7383C18.843 27.9877 18.2316 24.8608 16.143 22.772L15.0303 21.6594C13.8117 20.4409 13.8117 18.4584 15.0303 17.2398L17.2398 15.0302C17.8302 14.44 18.615 14.1148 19.4497 14.1148C20.2845 14.1148 21.0691 14.4398 21.6594 15.0302L22.7723 16.1431C24.8612 18.2317 27.9883 18.8428 30.7397 17.6997L30.7838 17.6814C33.5348 16.5456 35.3125 13.903 35.3125 10.9491V9.375C35.3125 7.65188 36.7144 6.25 38.4375 6.25H41.5625C43.2856 6.25 44.6875 7.65188 44.6875 9.375V10.9491C44.6875 13.903 46.4652 16.5456 49.2197 17.6831L49.2619 17.7006C52.0122 18.8428 55.1391 18.2316 57.228 16.1433L58.3408 15.0303C58.9309 14.4402 59.7156 14.1152 60.5505 14.1152C61.3852 14.1152 62.1698 14.4403 62.7602 15.0305L64.9698 17.2402C66.1884 18.4586 66.1884 20.4411 64.97 21.6595L63.857 22.7725C61.7686 24.8611 61.1573 27.988 62.2952 30.7272L62.3186 30.7842C63.4545 33.535 66.0972 35.3125 69.0511 35.3125H70.625C72.3481 35.3125 73.75 36.7144 73.75 38.4375V41.5625C73.75 43.2856 72.3481 44.6875 70.625 44.6875H69.0511C66.0973 44.6875 63.4547 46.465 62.3184 49.2161L62.2981 49.2652C61.1577 52.015 61.7692 55.1402 63.8569 57.2278L64.9698 58.3406C65.56 58.9308 65.885 59.7156 65.885 60.5503C65.885 61.385 65.56 62.1697 64.9697 62.76L62.7602 64.9697C62.1698 65.5598 61.385 65.885 60.5503 65.885C59.7155 65.885 58.9309 65.56 58.3406 64.9697L57.2277 63.8567C55.1389 61.7684 52.0119 61.1573 49.2603 62.3002L49.2163 62.3184C46.4652 63.4544 44.6875 66.097 44.6875 69.0509V70.625C44.6875 72.3481 43.2856 73.75 41.5625 73.75H38.4375C36.7144 73.75 35.3125 72.3481 35.3125 70.625V69.0509C35.3125 66.097 33.5348 63.4544 30.7803 62.3169L30.7381 62.2994C29.8178 61.9172 28.8558 61.7312 27.9042 61.7312C26.012 61.7314 24.162 62.4672 22.772 63.8569Z" fill="url(#paint0_linear)"/>
<defs>
<linearGradient id="paint0_linear" x1="80" y1="40" x2="1.34149e-06" y2="40" gradientUnits="userSpaceOnUse">
<stop stop-color="#06EA84"/>
<stop offset="1" stop-color="#2BC47B"/>
</linearGradient>
</defs>
</svg>
