<svg width="89" height="76" viewBox="0 0 89 76" fill="none" xmlns="http://www.w3.org/2000/svg">
<path d="M85.5234 34.555C87.4435 34.555 89 33.008 89 31.0995V13.822C89 6.20056 82.7617 0 75.0938 0H13.9062C6.23834 0 0 6.20056 0 13.822V48.377C0 55.9985 6.23834 62.1991 13.9062 62.1991H41.0234V69.089H28.8555C26.9354 69.089 25.3789 70.636 25.3789 72.5445C25.3789 74.453 26.9354 76 28.8555 76H60.1445C62.0646 76 63.6211 74.453 63.6211 72.5445C63.6211 70.636 62.0646 69.089 60.1445 69.089H47.9766V62.1991H75.0938C82.7617 62.1991 89 55.9985 89 48.377C89 46.4686 87.4435 44.9215 85.5234 44.9215C83.6033 44.9215 82.0469 46.4686 82.0469 48.377C82.0469 52.1878 78.9277 55.2881 75.0938 55.2881H13.9062C10.0723 55.2881 6.95312 52.1878 6.95312 48.377V13.822C6.95312 10.0113 10.0723 6.91101 13.9062 6.91101H75.0938C78.9277 6.91101 82.0469 10.0113 82.0469 13.822V31.0995C82.0469 33.008 83.6033 34.555 85.5234 34.555Z" fill="url(#paint0_linear)"/>
<path d="M65 24.1747V34.0757C65 35.6541 63.7094 36.9456 62.1319 36.9456C60.5545 36.9456 59.2638 35.6541 59.2638 34.0757V27.1163L49.455 36.9169C46.9598 39.3993 42.9875 39.4854 40.3919 37.1178L38.9292 35.7833C38.5994 35.4819 38.0831 35.4963 37.7676 35.8263L28.9483 45.1103C28.389 45.6987 27.629 46 26.8689 46C26.1663 46 25.4492 45.7417 24.89 45.2108C23.7427 44.1202 23.6997 42.2979 24.7896 41.1499L33.6233 31.8516C34.8278 30.6032 36.434 29.8714 38.1548 29.814C39.8757 29.7566 41.5391 30.3592 42.8011 31.5359L44.2638 32.8704C44.5936 33.1717 45.0956 33.1573 45.411 32.8417L55.521 22.7397H48.3652C46.7877 22.7397 45.4971 21.4483 45.4971 19.8699C45.4971 18.2914 46.7877 17 48.3652 17H57.8298C61.7878 17 65 20.2143 65 24.1747Z" fill="url(#paint1_linear)"/>
<defs>
<linearGradient id="paint0_linear" x1="89" y1="38" x2="1.49241e-06" y2="38" gradientUnits="userSpaceOnUse">
<stop stop-color="#06EA84"/>
<stop offset="1" stop-color="#2BC47B"/>
</linearGradient>
<linearGradient id="paint1_linear" x1="65" y1="31.5" x2="24" y2="31.5" gradientUnits="userSpaceOnUse">
<stop stop-color="#06EA84"/>
<stop offset="1" stop-color="#2BC47B"/>
</linearGradient>
</defs>
</svg>
