<svg width="82" height="82" viewBox="0 0 82 82" fill="none" xmlns="http://www.w3.org/2000/svg">
<path d="M37.9569 75.4548H9.7203C8.35293 75.4548 7.5279 74.6929 7.1579 74.2388C6.51898 73.4547 6.27173 72.4341 6.47951 71.4382C9.80373 55.5004 23.8876 43.8584 40.1519 43.4662C40.4333 43.4771 40.7159 43.4825 40.9997 43.4825C41.2842 43.4825 41.5672 43.4771 41.849 43.4662C50.083 43.6636 57.9894 46.7271 64.1959 52.1433C65.528 53.3055 67.5514 53.1699 68.7157 51.8404C69.8801 50.5109 69.7441 48.4912 68.4122 47.329C64.1839 43.6391 59.2885 40.8732 54.0367 39.1472C59.3418 35.1783 62.7806 28.8529 62.7806 21.741C62.7809 9.75302 53.0101 0 40.9997 0C28.9893 0 19.2185 9.75302 19.2185 21.7412C19.2185 28.8558 22.66 35.1831 27.9685 39.1519C23.1048 40.7502 18.5411 43.2371 14.5468 46.5163C7.22256 52.5299 2.13017 60.9176 0.207808 70.1347C-0.394685 73.0228 0.327184 75.9892 2.18777 78.273C4.03937 80.5458 6.78485 81.8491 9.72046 81.8491H37.9571C39.7262 81.8491 41.1602 80.4177 41.1602 78.6519C41.1602 76.8862 39.7259 75.4548 37.9569 75.4548ZM25.625 21.7413C25.625 13.279 32.5221 6.39455 41 6.39455C49.4779 6.39455 56.3749 13.279 56.3749 21.7413C56.3749 29.9437 49.8949 36.6635 41.7766 37.0687C41.518 37.0639 41.2592 37.0615 41 37.0615C40.7419 37.0615 40.4839 37.0641 40.2262 37.0689C32.1062 36.665 25.625 29.9445 25.625 21.7413ZM81.4012 56.6848L65.5487 78.7873C65.514 78.8355 65.4782 78.8827 65.441 78.9289C64.0019 80.7165 61.8617 81.8294 59.5692 81.9819C59.3878 81.9941 59.2062 82 59.0254 82C56.9209 82 54.8757 81.1901 53.343 79.734C53.3334 79.7248 53.3238 79.7155 53.3143 79.7064L43.0929 69.75C41.827 68.5166 41.8021 66.4924 43.0376 65.2288C44.2731 63.965 46.3012 63.9403 47.5671 65.1735L57.771 75.113C58.2743 75.5838 58.845 75.6213 59.1427 75.6016C59.4321 75.5824 59.9724 75.4746 60.4037 74.9756L76.192 52.9626C77.2216 51.5268 79.2225 51.1961 80.6611 52.224C82.0997 53.252 82.4308 55.2492 81.4012 56.6848Z" fill="url(#paint0_linear)"/>
<defs>
<linearGradient id="paint0_linear" x1="82" y1="41" x2="1.37503e-06" y2="41" gradientUnits="userSpaceOnUse">
<stop stop-color="#06EA84"/>
<stop offset="1" stop-color="#2BC47B"/>
</linearGradient>
</defs>
</svg>
