<svg width="49" height="43" viewBox="0 0 49 43" fill="none" xmlns="http://www.w3.org/2000/svg">
<path d="M44.0578 1H5.61333C3.06956 1 1 3.06956 1 5.61333V37.9067C1 40.4504 3.06956 42.52 5.61333 42.52H44.0578C46.6016 42.52 48.6711 40.4504 48.6711 37.9067V5.61333C48.6711 3.06956 46.6016 1 44.0578 1ZM45.5956 37.9067C45.5956 38.7547 44.9057 39.4444 44.0578 39.4444H5.61333C4.76544 39.4444 4.07556 38.7547 4.07556 37.9067V13.3022H42.52C43.3692 13.3022 44.0578 12.6137 44.0578 11.7644C44.0578 10.9152 43.3692 10.2267 42.52 10.2267H4.07556V5.61333C4.07556 4.76534 4.76544 4.07556 5.61333 4.07556H44.0578C44.9057 4.07556 45.5956 4.76534 45.5956 5.61333V37.9067ZM7.45194 8.65909C6.65345 8.81278 5.83381 8.33693 5.64313 7.45194C5.4881 6.64653 5.97106 5.83304 6.85028 5.64313C7.6631 5.48704 8.47149 5.97913 8.6591 6.85028C8.81508 7.66079 8.32617 8.47024 7.45194 8.65909ZM12.0653 8.65909C11.2585 8.81441 10.4455 8.32953 10.2565 7.45194C10.1014 6.64662 10.5843 5.83304 11.4636 5.64313C12.2764 5.48704 13.0848 5.97913 13.2724 6.85028C13.4284 7.6606 12.9396 8.47024 12.0653 8.65909ZM16.6786 8.65909C15.8714 8.81451 15.0587 8.32914 14.8698 7.45194C14.7148 6.64672 15.1975 5.83304 16.077 5.64313C16.8887 5.48724 17.6979 5.97798 17.8858 6.85028C18.0418 7.6606 17.5529 8.47024 16.6786 8.65909Z" fill="url(#paint0_linear)" stroke="url(#paint1_linear)" stroke-width="0.5"/>
<path d="M37.4613 20.0192C35.6528 20.0192 34.1251 21.2403 33.6564 22.9011H31.631V19.483C31.631 18.8907 31.151 18.4106 30.5588 18.4106C29.9666 18.4106 29.4865 18.8907 29.4865 19.483V23.9734C29.4865 24.5657 29.9666 25.0458 30.5588 25.0458H33.6564C34.1251 26.7066 35.6528 27.9277 37.4613 27.9277C39.6415 27.9277 41.4152 26.1538 41.4152 23.9734C41.4152 21.7931 39.6415 20.0192 37.4613 20.0192ZM37.4613 25.783C36.4636 25.783 35.6519 24.9712 35.6519 23.9734C35.6519 22.9756 36.4636 22.1638 37.4613 22.1638C38.459 22.1638 39.2707 22.9756 39.2707 23.9734C39.2707 24.9712 38.459 25.783 37.4613 25.783ZM25.8677 26.2001V19.483C25.8677 18.8907 25.3877 18.4106 24.7955 18.4106C24.2033 18.4106 23.7233 18.8907 23.7233 19.483V26.2001C22.0626 26.6688 20.8416 28.1967 20.8416 30.0054C20.8416 32.1857 22.6154 33.9596 24.7955 33.9596C26.9756 33.9596 28.7494 32.1857 28.7494 30.0054C28.7494 28.1966 27.5284 26.6688 25.8677 26.2001ZM24.7955 31.8149C23.7978 31.8149 22.9861 31.0032 22.9861 30.0054C22.9861 29.0075 23.7978 28.1958 24.7955 28.1958C25.7932 28.1958 26.6049 29.0075 26.6049 30.0054C26.6049 31.0032 25.7932 31.8149 24.7955 31.8149ZM19.0322 18.4106C18.44 18.4106 17.96 18.8907 17.96 19.483V22.9011H15.9346C15.4659 21.2403 13.9382 20.0192 12.1297 20.0192C9.94953 20.0192 8.17578 21.7931 8.17578 23.9734C8.17578 26.1538 9.94953 27.9277 12.1297 27.9277C13.9382 27.9277 15.4659 26.7066 15.9346 25.0458H19.0322C19.6244 25.0458 20.1044 24.5657 20.1044 23.9734V19.483C20.1044 18.8907 19.6244 18.4106 19.0322 18.4106ZM12.1297 25.783C11.1319 25.783 10.3203 24.9712 10.3203 23.9734C10.3203 22.9756 11.1319 22.1638 12.1297 22.1638C13.1274 22.1638 13.9391 22.9756 13.9391 23.9734C13.9391 24.9712 13.1274 25.783 12.1297 25.783Z" fill="url(#paint2_linear)" stroke="url(#paint3_linear)" stroke-width="1.03"/>
<defs>
<linearGradient id="paint0_linear" x1="48.6711" y1="21.76" x2="1" y2="21.76" gradientUnits="userSpaceOnUse">
<stop stop-color="#8AA0B4"/>
<stop offset="1" stop-color="#99B2C5"/>
</linearGradient>
<linearGradient id="paint1_linear" x1="48.6711" y1="21.76" x2="1" y2="21.76" gradientUnits="userSpaceOnUse">
<stop stop-color="#8AA0B4"/>
<stop offset="1" stop-color="#99B2C5"/>
</linearGradient>
<linearGradient id="paint2_linear" x1="41.4152" y1="26.1851" x2="8.17578" y2="26.1851" gradientUnits="userSpaceOnUse">
<stop stop-color="#8AA0B4"/>
<stop offset="1" stop-color="#99B2C5"/>
</linearGradient>
<linearGradient id="paint3_linear" x1="41.4152" y1="26.1851" x2="8.17578" y2="26.1851" gradientUnits="userSpaceOnUse">
<stop stop-color="#8AA0B4"/>
<stop offset="1" stop-color="#99B2C5"/>
</linearGradient>
</defs>
</svg>
