<svg width="686" height="453" viewBox="0 0 686 453" fill="none" xmlns="http://www.w3.org/2000/svg">
<path d="M16.5045 349.056H20.7705V351H13.9665V338.292H16.5045V349.056ZM21.9929 338.166C21.9929 337.758 22.1369 337.428 22.4249 337.176C22.7129 336.912 23.0909 336.78 23.5589 336.78C24.0269 336.78 24.4049 336.912 24.6929 337.176C24.9809 337.428 25.1249 337.758 25.1249 338.166C25.1249 338.562 24.9809 338.892 24.6929 339.156C24.4049 339.408 24.0269 339.534 23.5589 339.534C23.0909 339.534 22.7129 339.408 22.4249 339.156C22.1369 338.892 21.9929 338.562 21.9929 338.166ZM24.8189 341.028V351H22.2809V341.028H24.8189ZM31.0209 340.902C31.8609 340.902 32.5809 341.1 33.1809 341.496C33.7809 341.892 34.2069 342.426 34.4589 343.098V341.028H36.9789V351.036C36.9789 351.96 36.7929 352.788 36.4209 353.52C36.0609 354.264 35.5149 354.846 34.7829 355.266C34.0629 355.686 33.1869 355.896 32.1549 355.896C30.7149 355.896 29.5509 355.554 28.6629 354.87C27.7749 354.186 27.2349 353.256 27.0429 352.08H29.5449C29.6889 352.584 29.9649 352.974 30.3729 353.25C30.7929 353.538 31.3269 353.682 31.9749 353.682C32.7189 353.682 33.3189 353.46 33.7749 353.016C34.2309 352.584 34.4589 351.924 34.4589 351.036V348.912C34.2069 349.584 33.7809 350.124 33.1809 350.532C32.5809 350.928 31.8609 351.126 31.0209 351.126C30.1809 351.126 29.4249 350.922 28.7529 350.514C28.0809 350.106 27.5529 349.518 27.1689 348.75C26.7969 347.97 26.6109 347.058 26.6109 346.014C26.6109 344.97 26.7969 344.064 27.1689 343.296C27.5529 342.516 28.0809 341.922 28.7529 341.514C29.4249 341.106 30.1809 340.902 31.0209 340.902ZM31.8129 343.116C31.0209 343.116 30.3849 343.374 29.9049 343.89C29.4249 344.406 29.1849 345.114 29.1849 346.014C29.1849 346.914 29.4249 347.622 29.9049 348.138C30.3849 348.642 31.0209 348.894 31.8129 348.894C32.5809 348.894 33.2109 348.636 33.7029 348.12C34.2069 347.592 34.4589 346.89 34.4589 346.014C34.4589 345.126 34.2069 344.424 33.7029 343.908C33.2109 343.38 32.5809 343.116 31.8129 343.116ZM45.219 340.884C46.371 340.884 47.289 341.262 47.973 342.018C48.657 342.774 48.999 343.836 48.999 345.204V351H46.479V345.492C46.479 344.7 46.275 344.088 45.867 343.656C45.459 343.212 44.901 342.99 44.193 342.99C43.473 342.99 42.897 343.224 42.465 343.692C42.033 344.16 41.817 344.832 41.817 345.708V351H39.279V337.68H41.817V343.026C42.081 342.354 42.513 341.832 43.113 341.46C43.725 341.076 44.427 340.884 45.219 340.884ZM56.5601 348.822V351H55.2281C54.1121 351 53.2541 350.73 52.6541 350.19C52.0661 349.65 51.7721 348.75 51.7721 347.49V343.17H50.3861V341.028H51.7721V338.562H54.3101V341.028H56.5421V343.17H54.3101V347.526C54.3101 348.006 54.4061 348.342 54.5981 348.534C54.7901 348.726 55.1141 348.822 55.5701 348.822H56.5601ZM58.0984 338.166C58.0984 337.758 58.2424 337.428 58.5304 337.176C58.8184 336.912 59.1964 336.78 59.6644 336.78C60.1324 336.78 60.5104 336.912 60.7984 337.176C61.0864 337.428 61.2304 337.758 61.2304 338.166C61.2304 338.562 61.0864 338.892 60.7984 339.156C60.5104 339.408 60.1324 339.534 59.6644 339.534C59.1964 339.534 58.8184 339.408 58.5304 339.156C58.2424 338.892 58.0984 338.562 58.0984 338.166ZM60.9244 341.028V351H58.3864V341.028H60.9244ZM69.1604 340.884C70.3124 340.884 71.2304 341.262 71.9144 342.018C72.5984 342.774 72.9404 343.836 72.9404 345.204V351H70.4204V345.492C70.4204 344.7 70.2164 344.088 69.8084 343.656C69.4004 343.212 68.8424 342.99 68.1344 342.99C67.4144 342.99 66.8384 343.224 66.4064 343.692C65.9744 344.16 65.7584 344.832 65.7584 345.708V351H63.2204V341.028H65.7584V343.026C66.0224 342.354 66.4544 341.832 67.0544 341.46C67.6664 341.076 68.3684 340.884 69.1604 340.884ZM79.0795 340.902C79.9195 340.902 80.6395 341.1 81.2395 341.496C81.8395 341.892 82.2655 342.426 82.5175 343.098V341.028H85.0375V351.036C85.0375 351.96 84.8515 352.788 84.4795 353.52C84.1195 354.264 83.5735 354.846 82.8415 355.266C82.1215 355.686 81.2455 355.896 80.2135 355.896C78.7735 355.896 77.6095 355.554 76.7215 354.87C75.8335 354.186 75.2935 353.256 75.1015 352.08H77.6035C77.7475 352.584 78.0235 352.974 78.4315 353.25C78.8515 353.538 79.3855 353.682 80.0335 353.682C80.7775 353.682 81.3775 353.46 81.8335 353.016C82.2895 352.584 82.5175 351.924 82.5175 351.036V348.912C82.2655 349.584 81.8395 350.124 81.2395 350.532C80.6395 350.928 79.9195 351.126 79.0795 351.126C78.2395 351.126 77.4835 350.922 76.8115 350.514C76.1395 350.106 75.6115 349.518 75.2275 348.75C74.8555 347.97 74.6695 347.058 74.6695 346.014C74.6695 344.97 74.8555 344.064 75.2275 343.296C75.6115 342.516 76.1395 341.922 76.8115 341.514C77.4835 341.106 78.2395 340.902 79.0795 340.902ZM79.8715 343.116C79.0795 343.116 78.4435 343.374 77.9635 343.89C77.4835 344.406 77.2435 345.114 77.2435 346.014C77.2435 346.914 77.4835 347.622 77.9635 348.138C78.4435 348.642 79.0795 348.894 79.8715 348.894C80.6395 348.894 81.2695 348.636 81.7615 348.12C82.2655 347.592 82.5175 346.89 82.5175 346.014C82.5175 345.126 82.2655 344.424 81.7615 343.908C81.2695 343.38 80.6395 343.116 79.8715 343.116Z" fill="#27364D"/>
<path d="M23.8043 73.112C24.9923 73.112 26.0663 73.388 27.0263 73.94C27.9983 74.492 28.7603 75.266 29.3123 76.262C29.8763 77.246 30.1583 78.362 30.1583 79.61C30.1583 80.858 29.8763 81.98 29.3123 82.976C28.7603 83.972 27.9983 84.746 27.0263 85.298C26.0663 85.85 24.9923 86.126 23.8043 86.126C22.6163 86.126 21.5363 85.85 20.5643 85.298C19.6043 84.746 18.8423 83.972 18.2783 82.976C17.7263 81.98 17.4503 80.858 17.4503 79.61C17.4503 78.362 17.7263 77.246 18.2783 76.262C18.8423 75.266 19.6043 74.492 20.5643 73.94C21.5363 73.388 22.6163 73.112 23.8043 73.112ZM23.8043 75.452C23.0603 75.452 22.4063 75.62 21.8423 75.956C21.2783 76.292 20.8343 76.778 20.5103 77.414C20.1983 78.038 20.0423 78.77 20.0423 79.61C20.0423 80.45 20.1983 81.188 20.5103 81.824C20.8343 82.448 21.2783 82.928 21.8423 83.264C22.4063 83.6 23.0603 83.768 23.8043 83.768C24.5483 83.768 25.2023 83.6 25.7663 83.264C26.3303 82.928 26.7683 82.448 27.0803 81.824C27.4043 81.188 27.5663 80.45 27.5663 79.61C27.5663 78.77 27.4043 78.038 27.0803 77.414C26.7683 76.778 26.3303 76.292 25.7663 75.956C25.2023 75.62 24.5483 75.452 23.8043 75.452ZM36.549 75.902C37.833 75.902 38.901 76.25 39.753 76.946C40.617 77.642 41.157 78.59 41.373 79.79H38.691C38.583 79.262 38.337 78.848 37.953 78.548C37.569 78.236 37.083 78.08 36.495 78.08C35.823 78.08 35.259 78.332 34.803 78.836C34.359 79.328 34.137 80.054 34.137 81.014C34.137 81.974 34.359 82.706 34.803 83.21C35.259 83.702 35.823 83.948 36.495 83.948C37.083 83.948 37.569 83.798 37.953 83.498C38.337 83.186 38.583 82.766 38.691 82.238H41.373C41.157 83.438 40.617 84.386 39.753 85.082C38.901 85.778 37.833 86.126 36.549 86.126C35.577 86.126 34.713 85.922 33.957 85.514C33.201 85.094 32.613 84.5 32.193 83.732C31.773 82.964 31.563 82.058 31.563 81.014C31.563 79.97 31.773 79.064 32.193 78.296C32.613 77.516 33.201 76.922 33.957 76.514C34.713 76.106 35.577 75.902 36.549 75.902ZM47.6584 75.902C48.9424 75.902 50.0104 76.25 50.8624 76.946C51.7264 77.642 52.2664 78.59 52.4824 79.79H49.8004C49.6924 79.262 49.4464 78.848 49.0624 78.548C48.6784 78.236 48.1924 78.08 47.6044 78.08C46.9324 78.08 46.3684 78.332 45.9124 78.836C45.4684 79.328 45.2464 80.054 45.2464 81.014C45.2464 81.974 45.4684 82.706 45.9124 83.21C46.3684 83.702 46.9324 83.948 47.6044 83.948C48.1924 83.948 48.6784 83.798 49.0624 83.498C49.4464 83.186 49.6924 82.766 49.8004 82.238H52.4824C52.2664 83.438 51.7264 84.386 50.8624 85.082C50.0104 85.778 48.9424 86.126 47.6584 86.126C46.6864 86.126 45.8224 85.922 45.0664 85.514C44.3104 85.094 43.7224 84.5 43.3024 83.732C42.8824 82.964 42.6724 82.058 42.6724 81.014C42.6724 79.97 42.8824 79.064 43.3024 78.296C43.7224 77.516 44.3104 76.922 45.0664 76.514C45.8224 76.106 46.6864 75.902 47.6584 75.902ZM63.8258 76.028V86H61.2878V83.984C61.0238 84.656 60.5858 85.184 59.9738 85.568C59.3738 85.94 58.6778 86.126 57.8858 86.126C56.7338 86.126 55.8158 85.748 55.1318 84.992C54.4478 84.236 54.1058 83.18 54.1058 81.824V76.028H56.6258V81.536C56.6258 82.328 56.8298 82.946 57.2378 83.39C57.6458 83.822 58.1978 84.038 58.8938 84.038C59.6258 84.038 60.2078 83.804 60.6398 83.336C61.0718 82.868 61.2878 82.196 61.2878 81.32V76.028H63.8258ZM72.0914 75.902C72.9314 75.902 73.6874 76.106 74.3594 76.514C75.0314 76.922 75.5534 77.516 75.9254 78.296C76.3094 79.064 76.5014 79.97 76.5014 81.014C76.5014 82.058 76.3094 82.97 75.9254 83.75C75.5534 84.518 75.0314 85.106 74.3594 85.514C73.6874 85.922 72.9314 86.126 72.0914 86.126C71.2514 86.126 70.5314 85.928 69.9314 85.532C69.3434 85.124 68.9234 84.584 68.6714 83.912V90.752H66.1334V76.028H68.6714V78.098C68.9234 77.426 69.3434 76.892 69.9314 76.496C70.5314 76.1 71.2514 75.902 72.0914 75.902ZM71.2994 78.116C70.5314 78.116 69.8954 78.38 69.3914 78.908C68.8994 79.424 68.6534 80.126 68.6534 81.014C68.6534 81.89 68.8994 82.592 69.3914 83.12C69.8954 83.636 70.5314 83.894 71.2994 83.894C72.0914 83.894 72.7274 83.642 73.2074 83.138C73.6874 82.622 73.9274 81.914 73.9274 81.014C73.9274 80.114 73.6874 79.406 73.2074 78.89C72.7274 78.374 72.0914 78.116 71.2994 78.116ZM82.2035 75.902C83.0435 75.902 83.7635 76.1 84.3635 76.496C84.9635 76.892 85.3895 77.426 85.6415 78.098V76.028H88.1615V86H85.6415V83.912C85.3895 84.584 84.9635 85.124 84.3635 85.532C83.7635 85.928 83.0435 86.126 82.2035 86.126C81.3635 86.126 80.6075 85.922 79.9355 85.514C79.2635 85.106 78.7355 84.518 78.3515 83.75C77.9795 82.97 77.7935 82.058 77.7935 81.014C77.7935 79.97 77.9795 79.064 78.3515 78.296C78.7355 77.516 79.2635 76.922 79.9355 76.514C80.6075 76.106 81.3635 75.902 82.2035 75.902ZM82.9955 78.116C82.2035 78.116 81.5675 78.374 81.0875 78.89C80.6075 79.406 80.3675 80.114 80.3675 81.014C80.3675 81.914 80.6075 82.622 81.0875 83.138C81.5675 83.642 82.2035 83.894 82.9955 83.894C83.7635 83.894 84.3935 83.636 84.8855 83.12C85.3895 82.592 85.6415 81.89 85.6415 81.014C85.6415 80.126 85.3895 79.424 84.8855 78.908C84.3935 78.38 83.7635 78.116 82.9955 78.116ZM96.4016 75.884C97.5536 75.884 98.4716 76.262 99.1556 77.018C99.8396 77.774 100.182 78.836 100.182 80.204V86H97.6616V80.492C97.6616 79.7 97.4576 79.088 97.0496 78.656C96.6416 78.212 96.0836 77.99 95.3756 77.99C94.6556 77.99 94.0796 78.224 93.6476 78.692C93.2156 79.16 92.9996 79.832 92.9996 80.708V86H90.4616V76.028H92.9996V78.026C93.2636 77.354 93.6956 76.832 94.2956 76.46C94.9076 76.076 95.6096 75.884 96.4016 75.884ZM106.897 75.902C108.181 75.902 109.249 76.25 110.101 76.946C110.965 77.642 111.505 78.59 111.721 79.79H109.039C108.931 79.262 108.685 78.848 108.301 78.548C107.917 78.236 107.431 78.08 106.843 78.08C106.171 78.08 105.607 78.332 105.151 78.836C104.707 79.328 104.485 80.054 104.485 81.014C104.485 81.974 104.707 82.706 105.151 83.21C105.607 83.702 106.171 83.948 106.843 83.948C107.431 83.948 107.917 83.798 108.301 83.498C108.685 83.186 108.931 82.766 109.039 82.238H111.721C111.505 83.438 110.965 84.386 110.101 85.082C109.249 85.778 108.181 86.126 106.897 86.126C105.925 86.126 105.061 85.922 104.305 85.514C103.549 85.094 102.961 84.5 102.541 83.732C102.121 82.964 101.911 82.058 101.911 81.014C101.911 79.97 102.121 79.064 102.541 78.296C102.961 77.516 103.549 76.922 104.305 76.514C105.061 76.106 105.925 75.902 106.897 75.902ZM115.234 76.028L117.952 82.796L120.472 76.028H123.262L117.16 90.752H114.352L116.602 85.712L112.408 76.028H115.234Z" fill="#27364D"/>
<path d="M176.844 372.133L344.595 428.404L505.623 359.834L341.233 302.501L176.844 372.133Z" stroke="#2BC47C" stroke-width="3" stroke-miterlimit="10" stroke-linecap="round"/>
<path d="M337.164 23.3579L236.301 63.9687V371.425L341.853 406.284L440.682 365.408V57.8638L337.164 23.3579Z" fill="url(#paint0_linear)"/>
<path d="M339.818 383.723V405.311L236.301 371.425V350.987L339.818 383.723Z" fill="#F6FBFF"/>
<path d="M440.68 365.408V345.855L345.656 383.811V404.25L440.68 365.408Z" fill="#D8E5F1"/>
<path d="M339.818 355.765V377.353L236.301 343.466V323.028L339.818 355.765Z" fill="#F6FBFF"/>
<path d="M440.68 337.45V317.896L345.656 355.853V376.291L440.68 337.45Z" fill="#D8E5F1"/>
<path d="M339.818 327.54V349.129L236.301 315.331V294.893L339.818 327.54Z" fill="#F6FBFF"/>
<path d="M440.68 309.314V289.761L345.656 327.717V348.155L440.68 309.314Z" fill="#D8E5F1"/>
<path d="M339.818 299.582V321.17L236.301 287.372V266.845L339.818 299.582Z" fill="#F6FBFF"/>
<path d="M440.68 281.356V261.802L345.656 299.67V320.197L440.68 281.356Z" fill="#D8E5F1"/>
<path d="M339.818 271.446V293.034L236.301 259.148V238.709L339.818 271.446Z" fill="#F6FBFF"/>
<path d="M440.68 253.131V233.667L345.656 271.534V291.973L440.68 253.131Z" fill="#D8E5F1"/>
<path d="M339.818 243.487V265.076L236.301 231.189V210.751L339.818 243.487Z" fill="#F6FBFF"/>
<path d="M440.68 225.173V205.708L345.656 243.576V264.014L440.68 225.173Z" fill="#D8E5F1"/>
<path d="M339.818 215.352V236.94L236.301 203.054V182.616L339.818 215.352Z" fill="#F6FBFF"/>
<path d="M440.68 197.037V177.484L345.656 215.44V235.878L440.68 197.037Z" fill="#D8E5F1"/>
<path d="M339.818 187.394V208.982L236.301 175.095V154.657L339.818 187.394Z" fill="#F6FBFF"/>
<path d="M440.68 169.079V149.525L345.656 187.482V207.92L440.68 169.079Z" fill="#D8E5F1"/>
<path d="M339.818 159.17V180.758L236.301 146.96V126.522L339.818 159.17Z" fill="#F6FBFF"/>
<path d="M440.68 140.943V121.39L345.656 159.347V179.785L440.68 140.943Z" fill="#D8E5F1"/>
<path d="M339.818 131.034V152.622L236.301 118.735V98.2974L339.818 131.034Z" fill="#F6FBFF"/>
<path d="M440.68 112.719V93.2544L345.656 131.122V151.56L440.68 112.719Z" fill="#D8E5F1"/>
<path d="M339.818 103.075V124.663L236.301 90.777V70.3389L339.818 103.075Z" fill="#F6FBFF"/>
<path d="M440.68 84.7607V65.2959L345.656 103.164V123.602L440.68 84.7607Z" fill="#D8E5F1"/>
<path d="M236.301 63.9687L341.853 96.3511L440.682 57.8638L338.226 23.3579L236.301 63.9687Z" fill="#E9F1F8"/>
<path d="M293.281 52.6436L340.439 67.0652L384.501 49.9008L338.758 34.5059L293.281 52.6436Z" fill="#E9F1F8"/>
<path d="M384.676 58.6602V50.2549L340.438 67.5963V76.8863L384.676 58.6602Z" fill="#D8E5F1"/>
<path d="M339.818 67.4191V76.7092L292.66 60.6949V53.0859L339.818 67.4191Z" fill="#F6FBFF"/>
<circle opacity="0.1" cx="440" cy="205" r="24" fill="#2BC47C"/>
<circle cx="440" cy="205" r="12" fill="#2BC47C"/>
<circle opacity="0.1" cx="274" cy="171" r="24" fill="#2BC47C"/>
<circle cx="274" cy="171" r="12" fill="#2BC47C"/>
<circle opacity="0.1" cx="274" cy="45" r="24" fill="#2BC47C"/>
<circle cx="274" cy="45" r="12" fill="#2BC47C"/>
<circle opacity="0.1" cx="240" cy="300" r="24" fill="#2BC47C"/>
<circle cx="240" cy="300" r="12" fill="#2BC47C"/>
<circle opacity="0.1" cx="409" cy="117" r="24" fill="#2BC47C"/>
<circle cx="409" cy="117" r="12" fill="#2BC47C"/>
<line x1="440" y1="205" x2="494" y2="205" stroke="#2BC47C" stroke-width="2" stroke-dasharray="2 4"/>
<line x1="191" y1="171" x2="282" y2="171" stroke="#2BC47C" stroke-width="2" stroke-dasharray="2 4"/>
<line x1="112" y1="44" x2="282" y2="44" stroke="#2BC47C" stroke-width="2" stroke-dasharray="2 4"/>
<line x1="89" y1="301" x2="242" y2="301" stroke="#2BC47C" stroke-width="2" stroke-dasharray="2 4"/>
<path d="M525.556 220C525.419 220 525.281 219.97 525.153 219.906C524.79 219.726 524.599 219.327 524.69 218.938L527.105 208.733H522.889C522.541 208.733 522.225 208.535 522.081 208.227C521.936 207.919 521.989 207.556 522.217 207.3L533.772 194.3C534.04 193.998 534.483 193.914 534.847 194.094C535.211 194.274 535.402 194.674 535.31 195.062L532.895 205.266H537.111C537.459 205.266 537.775 205.465 537.919 205.773C538.064 206.081 538.011 206.444 537.783 206.7L526.228 219.7C526.055 219.896 525.808 220 525.556 220ZM524.836 207H528.222C528.493 207 528.749 207.12 528.917 207.327C529.086 207.533 529.148 207.803 529.088 208.061L527.226 215.931L535.164 207H531.778C531.507 207 531.251 206.879 531.082 206.673C530.914 206.467 530.851 206.196 530.911 205.938L532.774 198.069L524.836 207Z" fill="url(#paint1_linear)" stroke="url(#paint2_linear)"/>
<circle cx="529.5" cy="206.5" r="20.5" stroke="url(#paint3_linear)" stroke-width="4"/>
<path d="M56.9697 294.031C55.0745 292.136 52.3989 290.909 49.5004 290.909C46.6019 290.909 43.9263 292.08 42.0311 294.031C40.1359 295.926 38.9096 298.601 38.9096 301.5C38.9096 304.399 40.1359 307.074 42.0311 308.969C43.9263 310.864 46.6019 312.091 49.5004 312.091C52.3989 312.091 55.0745 310.92 56.9697 308.969C58.8649 307.074 60.0912 304.399 60.0912 301.5C60.0912 298.601 58.9206 295.926 56.9697 294.031ZM54.963 306.963C53.5695 308.356 51.6186 309.192 49.5004 309.192C47.3823 309.192 45.4313 308.356 44.0378 306.963C42.6443 305.569 41.8082 303.618 41.8082 301.5C41.8082 299.382 42.6443 297.431 44.0378 296.037C45.4313 294.644 47.3823 293.808 49.5004 293.808C51.6186 293.808 53.5695 294.644 54.963 296.037C56.3566 297.431 57.1927 299.382 57.1927 301.5C57.1927 303.618 56.3566 305.569 54.963 306.963Z" fill="url(#paint4_linear)"/>
<path fill-rule="evenodd" clip-rule="evenodd" d="M41.7248 293.729C43.7008 291.696 46.4866 290.479 49.5004 290.479C52.5193 290.479 55.3013 291.755 57.2716 293.724C59.3044 295.7 60.5212 298.486 60.5212 301.5C60.5212 304.519 59.2451 307.301 57.2759 309.271C55.3 311.304 52.5142 312.521 49.5004 312.521C46.4804 312.521 43.6975 311.244 41.7271 309.273C39.7567 307.303 38.4796 304.52 38.4796 301.5C38.4796 298.481 39.7557 295.699 41.7248 293.729ZM49.5004 291.339C46.7183 291.339 44.1539 292.463 42.3395 294.33L42.3352 294.335C40.5152 296.155 39.3396 298.723 39.3396 301.5C39.3396 304.277 40.5152 306.845 42.3352 308.665C44.1552 310.485 46.7234 311.661 49.5004 311.661C52.2826 311.661 54.8469 310.537 56.6613 308.67L56.6656 308.665C58.4856 306.845 59.6612 304.277 59.6612 301.5C59.6612 298.718 58.5378 296.153 56.6701 294.339L56.6656 294.335C54.8456 292.515 52.2774 291.339 49.5004 291.339ZM49.5004 294.238C47.4959 294.238 45.6545 295.029 44.3419 296.341C43.0292 297.654 42.2382 299.496 42.2382 301.5C42.2382 303.504 43.0292 305.346 44.3419 306.659C45.6545 307.971 47.4959 308.762 49.5004 308.762C51.5049 308.762 53.3463 307.971 54.659 306.659C55.9716 305.346 56.7627 303.504 56.7627 301.5C56.7627 299.496 55.9716 297.654 54.659 296.341C53.3463 295.029 51.5049 294.238 49.5004 294.238ZM43.7337 295.733C45.2082 294.259 47.2686 293.378 49.5004 293.378C51.7323 293.378 53.7927 294.259 55.2671 295.733C56.7415 297.208 57.6227 299.268 57.6227 301.5C57.6227 303.732 56.7415 305.792 55.2671 307.267C53.7927 308.741 51.7323 309.622 49.5004 309.622C47.2686 309.622 45.2082 308.741 43.7337 307.267C42.2593 305.792 41.3782 303.732 41.3782 301.5C41.3782 299.268 42.2593 297.208 43.7337 295.733Z" fill="url(#paint5_linear)"/>
<path fill-rule="evenodd" clip-rule="evenodd" d="M56.366 294.643L56.3616 294.639C54.6168 292.894 52.1559 291.769 49.5004 291.769C46.8347 291.769 44.3815 292.845 42.648 294.63L42.6436 294.634L42.6392 294.639C40.8945 296.384 39.7696 298.844 39.7696 301.5C39.7696 304.156 40.8945 306.616 42.6392 308.361C44.384 310.106 46.8449 311.231 49.5004 311.231C52.1662 311.231 54.6193 310.155 56.3528 308.37L56.3572 308.366L56.3616 308.361C58.1064 306.616 59.2312 304.156 59.2312 301.5C59.2312 298.834 58.155 296.381 56.3705 294.648L56.366 294.643ZM56.9697 294.031C58.9206 295.926 60.0912 298.601 60.0912 301.5C60.0912 304.399 58.8649 307.074 56.9697 308.969C55.0745 310.92 52.3989 312.091 49.5004 312.091C46.6019 312.091 43.9263 310.864 42.0311 308.969C40.1359 307.074 38.9096 304.399 38.9096 301.5C38.9096 298.601 40.1359 295.926 42.0311 294.031C43.9263 292.08 46.6019 290.909 49.5004 290.909C52.3989 290.909 55.0745 292.136 56.9697 294.031ZM55.5711 307.571C54.0158 309.126 51.8459 310.052 49.5004 310.052C47.1549 310.052 44.985 309.126 43.4297 307.571C41.8744 306.015 40.9481 303.846 40.9481 301.5C40.9481 299.154 41.8744 296.985 43.4297 295.429C44.985 293.874 47.1549 292.948 49.5004 292.948C51.8459 292.948 54.0158 293.874 55.5711 295.429C57.1265 296.985 58.0527 299.154 58.0527 301.5C58.0527 303.846 57.1265 306.015 55.5711 307.571ZM49.5004 309.192C51.6186 309.192 53.5695 308.356 54.963 306.963C56.3566 305.569 57.1927 303.618 57.1927 301.5C57.1927 299.382 56.3566 297.431 54.963 296.037C53.5695 294.644 51.6186 293.808 49.5004 293.808C47.3823 293.808 45.4313 294.644 44.0378 296.037C42.6443 297.431 41.8082 299.382 41.8082 301.5C41.8082 303.618 42.6443 305.569 44.0378 306.963C45.4313 308.356 47.3823 309.192 49.5004 309.192Z" fill="url(#paint6_linear)"/>
<path fill-rule="evenodd" clip-rule="evenodd" d="M41.7248 293.729C43.7008 291.696 46.4866 290.479 49.5004 290.479C52.5193 290.479 55.3013 291.755 57.2716 293.724C59.3044 295.7 60.5212 298.486 60.5212 301.5C60.5212 304.519 59.2451 307.301 57.2759 309.271C55.3 311.304 52.5142 312.521 49.5004 312.521C46.4804 312.521 43.6975 311.244 41.7271 309.273C39.7567 307.303 38.4796 304.52 38.4796 301.5C38.4796 298.481 39.7557 295.699 41.7248 293.729ZM49.5004 292.199C46.951 292.199 44.6091 293.228 42.9564 294.93L42.9477 294.938L42.9433 294.943C41.2738 296.612 40.1996 298.966 40.1996 301.5C40.1996 304.034 41.2738 306.388 42.9433 308.057C44.6128 309.727 46.9663 310.801 49.5004 310.801C52.0498 310.801 54.3917 309.772 56.0444 308.07L56.053 308.062L56.0575 308.057C57.727 306.388 58.8012 304.034 58.8012 301.5C58.8012 298.951 57.7721 296.609 56.0709 294.956L56.0619 294.947L56.0576 294.943C54.388 293.273 52.0345 292.199 49.5004 292.199ZM56.6656 294.335L56.6701 294.339L56.366 294.643L56.6656 294.335ZM43.1256 295.125C44.7618 293.489 47.0412 292.518 49.5004 292.518C51.9596 292.518 54.239 293.489 55.8752 295.125C57.5114 296.761 58.4827 299.041 58.4827 301.5C58.4827 303.959 57.5114 306.239 55.8752 307.875C54.239 309.511 51.9596 310.482 49.5004 310.482C47.0412 310.482 44.7618 309.511 43.1256 307.875C41.4894 306.239 40.5181 303.959 40.5181 301.5C40.5181 299.041 41.4894 296.761 43.1256 295.125ZM49.5004 294.238C47.4959 294.238 45.6545 295.029 44.3419 296.341C43.0292 297.654 42.2382 299.496 42.2382 301.5C42.2382 303.504 43.0292 305.346 44.3419 306.659C45.6545 307.971 47.4959 308.762 49.5004 308.762C51.5049 308.762 53.3463 307.971 54.659 306.659C55.9716 305.346 56.7627 303.504 56.7627 301.5C56.7627 299.496 55.9716 297.654 54.659 296.341C53.3463 295.029 51.5049 294.238 49.5004 294.238Z" fill="url(#paint7_linear)"/>
<path d="M69.1207 300.051H64.8287C64.0483 300.051 63.3794 300.72 63.3794 301.5C63.3794 302.281 64.0483 302.949 64.8287 302.949H69.1207C69.9011 302.949 70.57 302.281 70.57 301.5C70.57 300.72 69.9011 300.051 69.1207 300.051Z" fill="url(#paint8_linear)"/>
<path fill-rule="evenodd" clip-rule="evenodd" d="M62.9494 301.5C62.9494 300.482 63.8108 299.621 64.8287 299.621H69.1207C70.1386 299.621 71 300.482 71 301.5C71 302.518 70.1386 303.379 69.1207 303.379H64.8287C63.8108 303.379 62.9494 302.518 62.9494 301.5ZM64.8287 300.481C64.2858 300.481 63.8094 300.957 63.8094 301.5C63.8094 302.043 64.2858 302.519 64.8287 302.519H69.1207C69.6636 302.519 70.14 302.043 70.14 301.5C70.14 300.957 69.6636 300.481 69.1207 300.481H64.8287Z" fill="url(#paint9_linear)"/>
<path fill-rule="evenodd" clip-rule="evenodd" d="M69.1207 300.911H64.8287C64.5233 300.911 64.2394 301.195 64.2394 301.5C64.2394 301.806 64.5233 302.089 64.8287 302.089H69.1207C69.4261 302.089 69.71 301.806 69.71 301.5C69.71 301.195 69.4261 300.911 69.1207 300.911ZM64.8287 300.051H69.1207C69.9011 300.051 70.57 300.72 70.57 301.5C70.57 302.281 69.9011 302.949 69.1207 302.949H64.8287C64.0483 302.949 63.3794 302.281 63.3794 301.5C63.3794 300.72 64.0483 300.051 64.8287 300.051Z" fill="url(#paint10_linear)"/>
<path fill-rule="evenodd" clip-rule="evenodd" d="M62.9494 301.5C62.9494 300.482 63.8108 299.621 64.8287 299.621H69.1207C70.1386 299.621 71 300.482 71 301.5C71 302.518 70.1386 303.379 69.1207 303.379H64.8287C63.8108 303.379 62.9494 302.518 62.9494 301.5ZM63.8742 301.156C63.9291 301.013 64.0149 300.888 64.1155 300.787C64.216 300.686 64.3418 300.601 64.4844 300.546C64.2079 300.652 63.9805 300.879 63.8742 301.156ZM63.8742 301.844C64.0222 302.23 64.4052 302.519 64.8287 302.519C64.5434 302.519 64.2911 302.389 64.1155 302.213C64.0149 302.113 63.9291 301.987 63.8742 301.844ZM70.0752 301.156C69.9272 300.771 69.5442 300.481 69.1207 300.481C69.4061 300.481 69.6583 300.611 69.834 300.787C69.9345 300.888 70.0203 301.013 70.0752 301.156ZM70.0752 301.844C70.0203 301.987 69.9345 302.113 69.834 302.213C69.7334 302.314 69.6076 302.4 69.465 302.455C69.7415 302.348 69.9689 302.121 70.0752 301.844ZM64.7236 301.395C64.6809 301.438 64.6694 301.48 64.6694 301.5C64.6694 301.52 64.6809 301.563 64.7236 301.605C64.7663 301.648 64.8086 301.659 64.8287 301.659H69.1207C69.1408 301.659 69.1832 301.648 69.2258 301.605C69.2685 301.563 69.28 301.52 69.28 301.5C69.28 301.48 69.2685 301.438 69.2258 301.395C69.1832 301.352 69.1408 301.341 69.1207 301.341H64.8287C64.8086 301.341 64.7663 301.352 64.7236 301.395Z" fill="url(#paint11_linear)"/>
<path d="M49.4998 315.38C48.7194 315.38 48.0505 316.049 48.0505 316.829V321.121C48.0505 321.902 48.7194 322.57 49.4998 322.57C50.2802 322.57 50.9491 321.902 50.9491 321.121V316.829C50.9491 316.049 50.2802 315.38 49.4998 315.38Z" fill="url(#paint12_linear)"/>
<path fill-rule="evenodd" clip-rule="evenodd" d="M47.6205 316.829C47.6205 315.811 48.4819 314.95 49.4998 314.95C50.5176 314.95 51.3791 315.811 51.3791 316.829V321.121C51.3791 322.139 50.5176 323 49.4998 323C48.4819 323 47.6205 322.139 47.6205 321.121V316.829ZM49.4998 315.81C48.9569 315.81 48.4805 316.286 48.4805 316.829V321.121C48.4805 321.664 48.9569 322.14 49.4998 322.14C50.0427 322.14 50.5191 321.664 50.5191 321.121V316.829C50.5191 316.286 50.0427 315.81 49.4998 315.81Z" fill="url(#paint13_linear)"/>
<path fill-rule="evenodd" clip-rule="evenodd" d="M49.4998 316.24C49.1944 316.24 48.9105 316.524 48.9105 316.829V321.121C48.9105 321.427 49.1944 321.71 49.4998 321.71C49.8052 321.71 50.089 321.427 50.089 321.121V316.829C50.089 316.524 49.8052 316.24 49.4998 316.24ZM48.0505 316.829C48.0505 316.049 48.7194 315.38 49.4998 315.38C50.2802 315.38 50.9491 316.049 50.9491 316.829V321.121C50.9491 321.902 50.2802 322.57 49.4998 322.57C48.7194 322.57 48.0505 321.902 48.0505 321.121V316.829Z" fill="url(#paint14_linear)"/>
<path fill-rule="evenodd" clip-rule="evenodd" d="M47.6205 316.829C47.6205 315.811 48.4819 314.95 49.4998 314.95C50.5176 314.95 51.3791 315.811 51.3791 316.829V321.121C51.3791 322.139 50.5176 323 49.4998 323C48.4819 323 47.6205 322.139 47.6205 321.121V316.829ZM48.5453 316.485C48.6002 316.342 48.686 316.216 48.7866 316.116C48.8871 316.015 49.0129 315.93 49.1555 315.875C49.0173 315.928 48.8913 316.011 48.7866 316.116C48.6819 316.221 48.5984 316.347 48.5453 316.485ZM49.4998 315.81C49.7851 315.81 50.0374 315.94 50.213 316.116C50.3136 316.216 50.3993 316.342 50.4543 316.485C50.3063 316.1 49.9233 315.81 49.4998 315.81ZM49.3947 316.724C49.352 316.767 49.3405 316.809 49.3405 316.829V321.121C49.3405 321.141 49.352 321.184 49.3947 321.226C49.4374 321.269 49.4797 321.28 49.4998 321.28C49.5199 321.28 49.5622 321.269 49.6049 321.226C49.6476 321.184 49.659 321.141 49.659 321.121V316.829C49.659 316.809 49.6476 316.767 49.6049 316.724C49.5622 316.681 49.5199 316.67 49.4998 316.67C49.4797 316.67 49.4374 316.681 49.3947 316.724ZM48.5453 321.465C48.6933 321.851 49.0763 322.14 49.4998 322.14C49.2145 322.14 48.9622 322.01 48.7866 321.834C48.686 321.734 48.6002 321.608 48.5453 321.465ZM49.844 322.076C49.9832 322.022 50.1099 321.938 50.2151 321.832C50.2144 321.833 50.2137 321.834 50.213 321.834C50.1124 321.935 49.9867 322.021 49.844 322.076ZM50.5191 321.121C50.5191 321.392 50.4008 321.646 50.2151 321.832C50.3896 321.657 50.5191 321.405 50.5191 321.121Z" fill="url(#paint15_linear)"/>
<path d="M64.3834 314.376L61.3177 311.311C60.816 310.753 59.8684 310.753 59.311 311.311C58.7536 311.868 58.7536 312.76 59.311 313.317L62.3768 316.383C62.9342 316.94 63.826 316.94 64.3834 316.383C64.9409 315.826 64.9409 314.934 64.3834 314.376Z" fill="url(#paint16_linear)"/>
<path fill-rule="evenodd" clip-rule="evenodd" d="M61.6291 311.014C60.9465 310.267 59.72 310.293 59.007 311.007C58.2816 311.732 58.2816 312.896 59.007 313.621L62.0727 316.687C62.798 317.412 63.9622 317.412 64.6875 316.687C65.4128 315.962 65.4128 314.798 64.6875 314.072L61.6291 311.014ZM60.9981 311.598C60.6757 311.24 60.014 311.216 59.6151 311.615C59.2256 312.004 59.2256 312.624 59.6151 313.013L62.6808 316.079C63.0703 316.468 63.6899 316.468 64.0794 316.079C64.4689 315.689 64.4689 315.07 64.0794 314.68L61.0056 311.607L60.9981 311.598Z" fill="url(#paint17_linear)"/>
<path fill-rule="evenodd" clip-rule="evenodd" d="M60.6936 311.903L60.6785 311.886C60.5353 311.727 60.1595 311.678 59.9191 311.919C59.6976 312.14 59.6976 312.488 59.9191 312.709L62.9849 315.775C63.2064 315.996 63.5538 315.996 63.7753 315.775C63.9969 315.553 63.9969 315.206 63.7753 314.984L60.6936 311.903ZM61.3177 311.311L64.3834 314.376C64.9409 314.934 64.9409 315.826 64.3834 316.383C63.826 316.94 62.9342 316.94 62.3768 316.383L59.311 313.317C58.7536 312.76 58.7536 311.868 59.311 311.311C59.8684 310.753 60.816 310.753 61.3177 311.311Z" fill="url(#paint18_linear)"/>
<path fill-rule="evenodd" clip-rule="evenodd" d="M61.6291 311.014C60.9465 310.267 59.72 310.293 59.007 311.007C58.2816 311.732 58.2816 312.896 59.007 313.621L62.0727 316.687C62.798 317.412 63.9622 317.412 64.6875 316.687C65.4128 315.962 65.4128 314.798 64.6875 314.072L61.6291 311.014ZM60.3293 312.183C60.2865 312.182 60.25 312.196 60.2232 312.223C60.1938 312.252 60.183 312.285 60.183 312.314C60.183 312.343 60.1938 312.376 60.2232 312.405L63.2889 315.471C63.3183 315.5 63.3509 315.511 63.3801 315.511C63.4093 315.511 63.4419 315.5 63.4713 315.471C63.5007 315.441 63.5115 315.409 63.5115 315.38C63.5115 315.35 63.5007 315.318 63.4713 315.289L60.3815 312.199L60.373 312.189C60.3635 312.186 60.3484 312.183 60.3293 312.183Z" fill="url(#paint19_linear)"/>
<path d="M49.4998 280.43C48.7194 280.43 48.0505 281.099 48.0505 281.879V286.171C48.0505 286.952 48.7194 287.621 49.4998 287.621C50.2802 287.621 50.9491 286.952 50.9491 286.171V281.879C50.9491 281.099 50.2802 280.43 49.4998 280.43Z" fill="url(#paint20_linear)"/>
<path fill-rule="evenodd" clip-rule="evenodd" d="M47.6205 281.879C47.6205 280.861 48.4819 280 49.4998 280C50.5176 280 51.3791 280.861 51.3791 281.879V286.171C51.3791 287.189 50.5176 288.051 49.4998 288.051C48.4819 288.051 47.6205 287.189 47.6205 286.171V281.879ZM49.4998 280.86C48.9569 280.86 48.4805 281.336 48.4805 281.879V286.171C48.4805 286.714 48.9569 287.191 49.4998 287.191C50.0427 287.191 50.5191 286.714 50.5191 286.171V281.879C50.5191 281.336 50.0427 280.86 49.4998 280.86Z" fill="url(#paint21_linear)"/>
<path fill-rule="evenodd" clip-rule="evenodd" d="M49.4998 281.29C49.1944 281.29 48.9105 281.574 48.9105 281.879V286.171C48.9105 286.477 49.1944 286.761 49.4998 286.761C49.8052 286.761 50.089 286.477 50.089 286.171V281.879C50.089 281.574 49.8052 281.29 49.4998 281.29ZM48.0505 281.879C48.0505 281.099 48.7194 280.43 49.4998 280.43C50.2802 280.43 50.9491 281.099 50.9491 281.879V286.171C50.9491 286.952 50.2802 287.621 49.4998 287.621C48.7194 287.621 48.0505 286.952 48.0505 286.171V281.879Z" fill="url(#paint22_linear)"/>
<path fill-rule="evenodd" clip-rule="evenodd" d="M47.6205 281.879C47.6205 280.861 48.4819 280 49.4998 280C50.5176 280 51.3791 280.861 51.3791 281.879V286.171C51.3791 287.189 50.5176 288.051 49.4998 288.051C48.4819 288.051 47.6205 287.189 47.6205 286.171V281.879ZM48.5453 281.535C48.6002 281.392 48.686 281.267 48.7866 281.166C48.8871 281.065 49.0129 280.98 49.1555 280.925C49.0173 280.978 48.8913 281.061 48.7866 281.166C48.6819 281.271 48.5984 281.397 48.5453 281.535ZM49.4998 280.86C49.7851 280.86 50.0374 280.99 50.213 281.166C50.3136 281.267 50.3993 281.392 50.4543 281.535C50.3063 281.15 49.9233 280.86 49.4998 280.86ZM49.3947 281.774C49.352 281.817 49.3405 281.859 49.3405 281.879V286.171C49.3405 286.191 49.352 286.234 49.3947 286.276C49.4374 286.319 49.4797 286.331 49.4998 286.331C49.5199 286.331 49.5622 286.319 49.6049 286.276C49.6476 286.234 49.659 286.191 49.659 286.171V281.879C49.659 281.859 49.6476 281.817 49.6049 281.774C49.5622 281.731 49.5199 281.72 49.4998 281.72C49.4797 281.72 49.4374 281.731 49.3947 281.774ZM48.5453 286.516C48.6933 286.901 49.0763 287.191 49.4998 287.191C49.2145 287.191 48.9622 287.06 48.7866 286.885C48.686 286.784 48.6002 286.658 48.5453 286.516ZM49.844 287.126C50.1206 287.02 50.348 286.792 50.4543 286.516C50.3993 286.658 50.3136 286.784 50.213 286.885C50.1124 286.985 49.9867 287.071 49.844 287.126Z" fill="url(#paint23_linear)"/>
<path d="M64.4389 286.617C63.8815 286.06 62.9896 286.06 62.4322 286.617L59.3664 289.683C58.809 290.241 58.809 291.132 59.3664 291.69C59.8681 292.247 60.8157 292.247 61.3731 291.69L64.4389 288.624C64.9963 288.067 64.9963 287.175 64.4389 286.617Z" fill="url(#paint24_linear)"/>
<path fill-rule="evenodd" clip-rule="evenodd" d="M62.1281 286.313C62.8535 285.588 64.0176 285.588 64.7429 286.313C65.4683 287.039 65.4683 288.203 64.7429 288.928L61.6772 291.994C60.9639 292.707 59.737 292.734 59.0545 291.986C58.3371 291.26 58.3397 290.102 59.0624 289.379L62.1281 286.313ZM64.1348 286.921C63.7453 286.532 63.1257 286.532 62.7363 286.921L59.6705 289.987C59.281 290.377 59.281 290.996 59.6705 291.386L59.6785 291.394L59.6861 291.402C60.0085 291.76 60.6702 291.785 61.0691 291.386L64.1348 288.32C64.5243 287.931 64.5243 287.311 64.1348 286.921Z" fill="url(#paint25_linear)"/>
<path fill-rule="evenodd" clip-rule="evenodd" d="M59.9905 291.098L60.0057 291.115C60.1488 291.274 60.5246 291.322 60.765 291.082L63.8308 288.016C64.0523 287.794 64.0523 287.447 63.8308 287.226C63.6092 287.004 63.2619 287.004 63.0403 287.226L59.9746 290.291C59.753 290.513 59.753 290.86 59.9746 291.082L59.9905 291.098ZM62.4322 286.617C62.9896 286.06 63.8815 286.06 64.4389 286.617C64.9963 287.175 64.9963 288.067 64.4389 288.624L61.3731 291.69C60.8157 292.247 59.8681 292.247 59.3664 291.69C58.809 291.132 58.809 290.241 59.3664 289.683L62.4322 286.617Z" fill="url(#paint26_linear)"/>
<path fill-rule="evenodd" clip-rule="evenodd" d="M62.1281 286.313C62.8535 285.588 64.0176 285.588 64.7429 286.313C65.4683 287.039 65.4683 288.203 64.7429 288.928L61.6772 291.994C60.9639 292.707 59.737 292.734 59.0545 291.986C58.3371 291.26 58.3397 290.102 59.0624 289.379L62.1281 286.313ZM63.4355 287.489C63.4063 287.489 63.3738 287.5 63.3444 287.53L60.2786 290.595C60.2492 290.625 60.2384 290.657 60.2384 290.686C60.2384 290.716 60.2492 290.748 60.2786 290.778L60.3026 290.802L60.3111 290.811C60.3206 290.814 60.3358 290.818 60.3548 290.818C60.3977 290.819 60.4342 290.804 60.4609 290.778L63.5267 287.712C63.5561 287.682 63.5669 287.65 63.5669 287.621C63.5669 287.592 63.5561 287.559 63.5267 287.53C63.4973 287.5 63.4648 287.489 63.4355 287.489ZM60.3429 291.678C60.1161 291.675 59.8585 291.594 59.6861 291.402C59.8461 291.58 60.0894 291.675 60.3429 291.678C60.3428 291.678 60.343 291.678 60.3429 291.678ZM60.3429 291.678C60.5838 291.681 60.8556 291.599 61.0691 291.386C60.8681 291.587 60.6003 291.68 60.3429 291.678Z" fill="url(#paint27_linear)"/>
<path d="M34.1713 300.051H29.8793C29.0989 300.051 28.43 300.72 28.43 301.5C28.43 302.281 29.0432 302.949 29.8793 302.949H34.1713C34.9517 302.949 35.6206 302.281 35.6206 301.5C35.6206 300.72 34.9517 300.051 34.1713 300.051Z" fill="url(#paint28_linear)"/>
<path fill-rule="evenodd" clip-rule="evenodd" d="M28 301.5C28 300.482 28.8614 299.621 29.8793 299.621H34.1713C35.1892 299.621 36.0506 300.482 36.0506 301.5C36.0506 302.518 35.1892 303.379 34.1713 303.379H29.8793C28.7949 303.379 28 302.507 28 301.5ZM29.8793 300.481C29.3364 300.481 28.86 300.957 28.86 301.5C28.86 302.054 29.2914 302.519 29.8793 302.519H34.1713C34.7142 302.519 35.1906 302.043 35.1906 301.5C35.1906 300.957 34.7142 300.481 34.1713 300.481H29.8793Z" fill="url(#paint29_linear)"/>
<path fill-rule="evenodd" clip-rule="evenodd" d="M34.1713 300.911H29.8793C29.5739 300.911 29.29 301.195 29.29 301.5C29.29 301.827 29.5396 302.089 29.8793 302.089H34.1713C34.4767 302.089 34.7606 301.806 34.7606 301.5C34.7606 301.195 34.4767 300.911 34.1713 300.911ZM29.8793 300.051H34.1713C34.9517 300.051 35.6206 300.72 35.6206 301.5C35.6206 302.281 34.9517 302.949 34.1713 302.949H29.8793C29.0432 302.949 28.43 302.281 28.43 301.5C28.43 300.72 29.0989 300.051 29.8793 300.051Z" fill="url(#paint30_linear)"/>
<path fill-rule="evenodd" clip-rule="evenodd" d="M28 301.5C28 300.482 28.8614 299.621 29.8793 299.621H34.1713C35.1892 299.621 36.0506 300.482 36.0506 301.5C36.0506 302.518 35.1892 303.379 34.1713 303.379H29.8793C28.7949 303.379 28 302.507 28 301.5ZM28.9248 301.156C28.9797 301.013 29.0655 300.888 29.1661 300.787C29.3417 300.611 29.5939 300.481 29.8793 300.481C29.6078 300.481 29.353 300.6 29.1661 300.787C29.0613 300.892 28.9779 301.018 28.9248 301.156ZM29.8793 302.519C29.587 302.519 29.3333 302.404 29.1522 302.221C29.334 302.405 29.5884 302.519 29.8793 302.519ZM34.1713 300.481C34.4428 300.481 34.6976 300.6 34.8845 300.787C34.7089 300.611 34.4567 300.481 34.1713 300.481ZM29.7742 301.395C29.7315 301.438 29.72 301.48 29.72 301.5C29.72 301.553 29.7391 301.591 29.7636 301.616C29.7871 301.64 29.8238 301.659 29.8793 301.659H34.1713C34.1914 301.659 34.2338 301.648 34.2764 301.605C34.3191 301.563 34.3306 301.52 34.3306 301.5C34.3306 301.48 34.3191 301.438 34.2764 301.395C34.2338 301.352 34.1914 301.341 34.1713 301.341H29.8793C29.8592 301.341 29.8168 301.352 29.7742 301.395Z" fill="url(#paint31_linear)"/>
<path d="M39.6331 311.311C39.1315 310.753 38.1839 310.753 37.6265 311.311L34.5607 314.376C34.0033 314.934 34.0033 315.826 34.5607 316.383C35.1181 316.94 36.01 316.94 36.5674 316.383L39.6331 313.317C40.1905 312.76 40.1905 311.868 39.6331 311.311Z" fill="url(#paint32_linear)"/>
<path fill-rule="evenodd" clip-rule="evenodd" d="M39.9451 311.014C39.2626 310.267 38.0357 310.293 37.3224 311.007L34.2566 314.072C33.5313 314.798 33.5313 315.962 34.2566 316.687C34.982 317.412 36.1461 317.412 36.8714 316.687L39.9372 313.621C40.6599 312.899 40.6625 311.74 39.9451 311.014ZM39.3135 311.598C38.9911 311.24 38.3294 311.216 37.9305 311.615L34.8648 314.68C34.4753 315.07 34.4753 315.689 34.8648 316.079C35.2542 316.468 35.8738 316.468 36.2633 316.079L39.3291 313.013C39.7186 312.624 39.7186 312.004 39.3291 311.615L39.3211 311.607L39.3135 311.598Z" fill="url(#paint33_linear)"/>
<path fill-rule="evenodd" clip-rule="evenodd" d="M39.009 311.903L38.9939 311.886C38.8508 311.727 38.4749 311.678 38.2346 311.919L35.1688 314.984C34.9473 315.206 34.9473 315.553 35.1688 315.775C35.3904 315.996 35.7377 315.996 35.9593 315.775L39.025 312.709C39.2466 312.488 39.2466 312.14 39.025 311.919L39.009 311.903ZM37.6265 311.311C38.1839 310.753 39.1315 310.753 39.6331 311.311C40.1905 311.868 40.1905 312.76 39.6331 313.317L36.5674 316.383C36.01 316.94 35.1181 316.94 34.5607 316.383C34.0033 315.826 34.0033 314.934 34.5607 314.376L37.6265 311.311Z" fill="url(#paint34_linear)"/>
<path fill-rule="evenodd" clip-rule="evenodd" d="M39.9451 311.014C39.2626 310.267 38.0357 310.293 37.3224 311.007L34.2566 314.072C33.5313 314.798 33.5313 315.962 34.2566 316.687C34.982 317.412 36.1461 317.412 36.8714 316.687L39.9372 313.621C40.6599 312.899 40.6625 311.74 39.9451 311.014ZM38.6447 312.183C38.6019 312.182 38.5654 312.196 38.5386 312.223L35.4729 315.289C35.4435 315.318 35.4327 315.35 35.4327 315.38C35.4327 315.409 35.4435 315.441 35.4729 315.471C35.5023 315.5 35.5348 315.511 35.564 315.511C35.5933 315.511 35.6258 315.5 35.6552 315.471L38.721 312.405C38.7504 312.376 38.7612 312.343 38.7612 312.314C38.7612 312.285 38.7504 312.252 38.721 312.223L38.697 312.199L38.6884 312.189C38.679 312.186 38.6638 312.183 38.6447 312.183Z" fill="url(#paint35_linear)"/>
<path d="M39.6331 289.683L36.5674 286.617C36.01 286.06 35.1181 286.06 34.5607 286.617C34.0033 287.175 34.0033 288.067 34.5607 288.624L37.6265 291.69C38.1839 292.247 39.0757 292.247 39.6331 291.69C40.1905 291.132 40.1905 290.241 39.6331 289.683Z" fill="url(#paint36_linear)"/>
<path fill-rule="evenodd" clip-rule="evenodd" d="M34.2566 286.313C34.982 285.588 36.1461 285.588 36.8714 286.313L39.9372 289.379C40.6625 290.104 40.6625 291.269 39.9372 291.994C39.2119 292.719 38.0477 292.719 37.3224 291.994L34.2566 288.928C33.5313 288.203 33.5313 287.039 34.2566 286.313ZM36.2633 286.921C35.8738 286.532 35.2542 286.532 34.8648 286.921C34.4753 287.311 34.4753 287.931 34.8648 288.32L37.9305 291.386C38.32 291.775 38.9396 291.775 39.3291 291.386C39.7186 290.996 39.7186 290.377 39.3291 289.987L36.2633 286.921Z" fill="url(#paint37_linear)"/>
<path fill-rule="evenodd" clip-rule="evenodd" d="M39.025 290.291L35.9593 287.226C35.7377 287.004 35.3904 287.004 35.1688 287.226C34.9473 287.447 34.9473 287.794 35.1688 288.016L38.2346 291.082C38.4561 291.303 38.8035 291.303 39.025 291.082C39.2466 290.86 39.2466 290.513 39.025 290.291ZM36.5674 286.617L39.6331 289.683C40.1905 290.241 40.1905 291.132 39.6331 291.69C39.0757 292.247 38.1839 292.247 37.6265 291.69L34.5607 288.624C34.0033 288.067 34.0033 287.175 34.5607 286.617C35.1181 286.06 36.01 286.06 36.5674 286.617Z" fill="url(#paint38_linear)"/>
<path fill-rule="evenodd" clip-rule="evenodd" d="M34.2566 286.313C34.982 285.588 36.1461 285.588 36.8714 286.313L39.9372 289.379C40.6625 290.104 40.6625 291.269 39.9372 291.994C39.2119 292.719 38.0477 292.719 37.3224 291.994L34.2566 288.928C33.5313 288.203 33.5313 287.039 34.2566 286.313ZM35.564 287.489C35.5348 287.489 35.5023 287.5 35.4729 287.53C35.4435 287.559 35.4327 287.592 35.4327 287.621C35.4327 287.65 35.4435 287.682 35.4729 287.712L38.5386 290.778C38.568 290.807 38.6006 290.818 38.6298 290.818C38.659 290.818 38.6916 290.807 38.721 290.778C38.7504 290.748 38.7612 290.716 38.7612 290.686C38.7612 290.657 38.7504 290.625 38.721 290.595L35.6552 287.53C35.6258 287.5 35.5933 287.489 35.564 287.489Z" fill="url(#paint39_linear)"/>
<path d="M115.023 208.292V221H112.467V215.474H107.031V221H104.493V208.292H107.031V213.44H112.467V208.292H115.023ZM126.703 215.636C126.703 215.888 126.673 216.176 126.613 216.5H119.305C119.341 217.388 119.581 218.042 120.025 218.462C120.469 218.882 121.021 219.092 121.681 219.092C122.269 219.092 122.755 218.948 123.139 218.66C123.535 218.372 123.787 217.982 123.895 217.49H126.577C126.445 218.186 126.163 218.81 125.731 219.362C125.299 219.914 124.741 220.346 124.057 220.658C123.385 220.97 122.635 221.126 121.807 221.126C120.835 221.126 119.971 220.922 119.215 220.514C118.459 220.094 117.871 219.5 117.451 218.732C117.031 217.964 116.821 217.058 116.821 216.014C116.821 214.97 117.031 214.064 117.451 213.296C117.871 212.516 118.459 211.922 119.215 211.514C119.971 211.106 120.835 210.902 121.807 210.902C122.791 210.902 123.649 211.106 124.381 211.514C125.125 211.922 125.695 212.486 126.091 213.206C126.499 213.914 126.703 214.724 126.703 215.636ZM124.147 215.384C124.183 214.568 123.967 213.95 123.499 213.53C123.043 213.11 122.479 212.9 121.807 212.9C121.123 212.9 120.547 213.11 120.079 213.53C119.611 213.95 119.353 214.568 119.305 215.384H124.147ZM132.411 210.902C133.251 210.902 133.971 211.1 134.571 211.496C135.171 211.892 135.597 212.426 135.849 213.098V211.028H138.369V221H135.849V218.912C135.597 219.584 135.171 220.124 134.571 220.532C133.971 220.928 133.251 221.126 132.411 221.126C131.571 221.126 130.815 220.922 130.143 220.514C129.471 220.106 128.943 219.518 128.559 218.75C128.187 217.97 128.001 217.058 128.001 216.014C128.001 214.97 128.187 214.064 128.559 213.296C128.943 212.516 129.471 211.922 130.143 211.514C130.815 211.106 131.571 210.902 132.411 210.902ZM133.203 213.116C132.411 213.116 131.775 213.374 131.295 213.89C130.815 214.406 130.575 215.114 130.575 216.014C130.575 216.914 130.815 217.622 131.295 218.138C131.775 218.642 132.411 218.894 133.203 218.894C133.971 218.894 134.601 218.636 135.093 218.12C135.597 217.592 135.849 216.89 135.849 216.014C135.849 215.126 135.597 214.424 135.093 213.908C134.601 213.38 133.971 213.116 133.203 213.116ZM143.207 207.68V221H140.669V207.68H143.207ZM150.831 218.822V221H149.499C148.383 221 147.525 220.73 146.925 220.19C146.337 219.65 146.043 218.75 146.043 217.49V213.17H144.657V211.028H146.043V208.562H148.581V211.028H150.813V213.17H148.581V217.526C148.581 218.006 148.677 218.342 148.869 218.534C149.061 218.726 149.385 218.822 149.841 218.822H150.831ZM158.597 210.884C159.749 210.884 160.667 211.262 161.351 212.018C162.035 212.774 162.377 213.836 162.377 215.204V221H159.857V215.492C159.857 214.7 159.653 214.088 159.245 213.656C158.837 213.212 158.279 212.99 157.571 212.99C156.851 212.99 156.275 213.224 155.843 213.692C155.411 214.16 155.195 214.832 155.195 215.708V221H152.657V207.68H155.195V213.026C155.459 212.354 155.891 211.832 156.491 211.46C157.103 211.076 157.805 210.884 158.597 210.884ZM172.436 210.902C173.276 210.902 173.996 211.1 174.596 211.496C175.196 211.892 175.622 212.426 175.874 213.098V211.028H178.394V221H175.874V218.912C175.622 219.584 175.196 220.124 174.596 220.532C173.996 220.928 173.276 221.126 172.436 221.126C171.596 221.126 170.84 220.922 170.168 220.514C169.496 220.106 168.968 219.518 168.584 218.75C168.212 217.97 168.026 217.058 168.026 216.014C168.026 214.97 168.212 214.064 168.584 213.296C168.968 212.516 169.496 211.922 170.168 211.514C170.84 211.106 171.596 210.902 172.436 210.902ZM173.228 213.116C172.436 213.116 171.8 213.374 171.32 213.89C170.84 214.406 170.6 215.114 170.6 216.014C170.6 216.914 170.84 217.622 171.32 218.138C171.8 218.642 172.436 218.894 173.228 218.894C173.996 218.894 174.626 218.636 175.118 218.12C175.622 217.592 175.874 216.89 175.874 216.014C175.874 215.126 175.622 214.424 175.118 213.908C174.626 213.38 173.996 213.116 173.228 213.116ZM186.634 210.884C187.786 210.884 188.704 211.262 189.388 212.018C190.072 212.774 190.414 213.836 190.414 215.204V221H187.894V215.492C187.894 214.7 187.69 214.088 187.282 213.656C186.874 213.212 186.316 212.99 185.608 212.99C184.888 212.99 184.312 213.224 183.88 213.692C183.448 214.16 183.232 214.832 183.232 215.708V221H180.694V211.028H183.232V213.026C183.496 212.354 183.928 211.832 184.528 211.46C185.14 211.076 185.842 210.884 186.634 210.884ZM196.553 210.902C197.393 210.902 198.107 211.1 198.695 211.496C199.295 211.892 199.727 212.426 199.991 213.098V207.68H202.511V221H199.991V218.912C199.727 219.584 199.295 220.124 198.695 220.532C198.107 220.928 197.393 221.126 196.553 221.126C195.713 221.126 194.957 220.922 194.285 220.514C193.613 220.106 193.085 219.518 192.701 218.75C192.329 217.97 192.143 217.058 192.143 216.014C192.143 214.97 192.329 214.064 192.701 213.296C193.085 212.516 193.613 211.922 194.285 211.514C194.957 211.106 195.713 210.902 196.553 210.902ZM197.345 213.116C196.553 213.116 195.917 213.374 195.437 213.89C194.957 214.406 194.717 215.114 194.717 216.014C194.717 216.914 194.957 217.622 195.437 218.138C195.917 218.642 196.553 218.894 197.345 218.894C198.113 218.894 198.743 218.636 199.235 218.12C199.739 217.592 199.991 216.89 199.991 216.014C199.991 215.126 199.739 214.424 199.235 213.908C198.743 213.38 198.113 213.116 197.345 213.116ZM120.956 237.902C122.168 237.902 123.14 238.208 123.872 238.82C124.604 239.432 125.06 240.248 125.24 241.268H122.864C122.768 240.788 122.552 240.404 122.216 240.116C121.88 239.828 121.442 239.684 120.902 239.684C120.47 239.684 120.134 239.786 119.894 239.99C119.654 240.194 119.534 240.47 119.534 240.818C119.534 241.094 119.63 241.316 119.822 241.484C120.014 241.652 120.254 241.784 120.542 241.88C120.83 241.976 121.244 242.09 121.784 242.222C122.54 242.39 123.152 242.57 123.62 242.762C124.1 242.942 124.508 243.236 124.844 243.644C125.192 244.04 125.366 244.58 125.366 245.264C125.366 246.116 125.03 246.806 124.358 247.334C123.698 247.862 122.804 248.126 121.676 248.126C120.38 248.126 119.342 247.838 118.562 247.262C117.782 246.674 117.308 245.84 117.14 244.76H119.57C119.63 245.252 119.846 245.642 120.218 245.93C120.59 246.206 121.076 246.344 121.676 246.344C122.108 246.344 122.438 246.242 122.666 246.038C122.894 245.822 123.008 245.546 123.008 245.21C123.008 244.922 122.906 244.688 122.702 244.508C122.51 244.328 122.264 244.19 121.964 244.094C121.676 243.998 121.262 243.884 120.722 243.752C119.978 243.584 119.372 243.416 118.904 243.248C118.448 243.068 118.052 242.786 117.716 242.402C117.392 242.018 117.23 241.49 117.23 240.818C117.23 239.954 117.56 239.252 118.22 238.712C118.88 238.172 119.792 237.902 120.956 237.902ZM136.634 242.636C136.634 242.888 136.604 243.176 136.544 243.5H129.236C129.272 244.388 129.512 245.042 129.956 245.462C130.4 245.882 130.952 246.092 131.612 246.092C132.2 246.092 132.686 245.948 133.07 245.66C133.466 245.372 133.718 244.982 133.826 244.49H136.508C136.376 245.186 136.094 245.81 135.662 246.362C135.23 246.914 134.672 247.346 133.988 247.658C133.316 247.97 132.566 248.126 131.738 248.126C130.766 248.126 129.902 247.922 129.146 247.514C128.39 247.094 127.802 246.5 127.382 245.732C126.962 244.964 126.752 244.058 126.752 243.014C126.752 241.97 126.962 241.064 127.382 240.296C127.802 239.516 128.39 238.922 129.146 238.514C129.902 238.106 130.766 237.902 131.738 237.902C132.722 237.902 133.58 238.106 134.312 238.514C135.056 238.922 135.626 239.486 136.022 240.206C136.43 240.914 136.634 241.724 136.634 242.636ZM134.078 242.384C134.114 241.568 133.898 240.95 133.43 240.53C132.974 240.11 132.41 239.9 131.738 239.9C131.054 239.9 130.478 240.11 130.01 240.53C129.542 240.95 129.284 241.568 129.236 242.384H134.078ZM142.918 237.902C144.202 237.902 145.27 238.25 146.122 238.946C146.986 239.642 147.526 240.59 147.742 241.79H145.06C144.952 241.262 144.706 240.848 144.322 240.548C143.938 240.236 143.452 240.08 142.864 240.08C142.192 240.08 141.628 240.332 141.172 240.836C140.728 241.328 140.506 242.054 140.506 243.014C140.506 243.974 140.728 244.706 141.172 245.21C141.628 245.702 142.192 245.948 142.864 245.948C143.452 245.948 143.938 245.798 144.322 245.498C144.706 245.186 144.952 244.766 145.06 244.238H147.742C147.526 245.438 146.986 246.386 146.122 247.082C145.27 247.778 144.202 248.126 142.918 248.126C141.946 248.126 141.082 247.922 140.326 247.514C139.57 247.094 138.982 246.5 138.562 245.732C138.142 244.964 137.932 244.058 137.932 243.014C137.932 241.97 138.142 241.064 138.562 240.296C138.982 239.516 139.57 238.922 140.326 238.514C141.082 238.106 141.946 237.902 142.918 237.902ZM159.086 238.028V248H156.548V245.984C156.284 246.656 155.846 247.184 155.234 247.568C154.634 247.94 153.938 248.126 153.146 248.126C151.994 248.126 151.076 247.748 150.392 246.992C149.708 246.236 149.366 245.18 149.366 243.824V238.028H151.886V243.536C151.886 244.328 152.09 244.946 152.498 245.39C152.906 245.822 153.458 246.038 154.154 246.038C154.886 246.038 155.468 245.804 155.9 245.336C156.332 244.868 156.548 244.196 156.548 243.32V238.028H159.086ZM163.931 239.936C164.303 239.3 164.795 238.802 165.407 238.442C166.019 238.07 166.703 237.884 167.459 237.884V240.602H166.721C164.861 240.602 163.931 241.466 163.931 243.194V248H161.393V238.028H163.931V239.936ZM168.576 235.166C168.576 234.758 168.72 234.428 169.008 234.176C169.296 233.912 169.674 233.78 170.142 233.78C170.61 233.78 170.988 233.912 171.276 234.176C171.564 234.428 171.708 234.758 171.708 235.166C171.708 235.562 171.564 235.892 171.276 236.156C170.988 236.408 170.61 236.534 170.142 236.534C169.674 236.534 169.296 236.408 169.008 236.156C168.72 235.892 168.576 235.562 168.576 235.166ZM171.402 238.028V248H168.864V238.028H171.402ZM179.026 245.822V248H177.694C176.578 248 175.72 247.73 175.12 247.19C174.532 246.65 174.238 245.75 174.238 244.49V240.17H172.852V238.028H174.238V235.562H176.776V238.028H179.008V240.17H176.776V244.526C176.776 245.006 176.872 245.342 177.064 245.534C177.256 245.726 177.58 245.822 178.036 245.822H179.026ZM182.562 238.028L185.28 244.796L187.8 238.028H190.59L184.488 252.752H181.68L183.93 247.712L179.736 238.028H182.562Z" fill="#27364D"/>
<path d="M502.111 246.308V249.602H506.611V251.546H502.111V254.966H507.151V257H499.573V244.292H507.151V246.308H502.111ZM514.97 246.884C516.122 246.884 517.04 247.262 517.724 248.018C518.408 248.774 518.75 249.836 518.75 251.204V257H516.23V251.492C516.23 250.7 516.026 250.088 515.618 249.656C515.21 249.212 514.652 248.99 513.944 248.99C513.224 248.99 512.648 249.224 512.216 249.692C511.784 250.16 511.568 250.832 511.568 251.708V257H509.03V247.028H511.568V249.026C511.832 248.354 512.264 247.832 512.864 247.46C513.476 247.076 514.178 246.884 514.97 246.884ZM530.361 251.636C530.361 251.888 530.331 252.176 530.271 252.5H522.963C522.999 253.388 523.239 254.042 523.683 254.462C524.127 254.882 524.679 255.092 525.339 255.092C525.927 255.092 526.413 254.948 526.797 254.66C527.193 254.372 527.445 253.982 527.553 253.49H530.235C530.103 254.186 529.821 254.81 529.389 255.362C528.957 255.914 528.399 256.346 527.715 256.658C527.043 256.97 526.293 257.126 525.465 257.126C524.493 257.126 523.629 256.922 522.873 256.514C522.117 256.094 521.529 255.5 521.109 254.732C520.689 253.964 520.479 253.058 520.479 252.014C520.479 250.97 520.689 250.064 521.109 249.296C521.529 248.516 522.117 247.922 522.873 247.514C523.629 247.106 524.493 246.902 525.465 246.902C526.449 246.902 527.307 247.106 528.039 247.514C528.783 247.922 529.353 248.486 529.749 249.206C530.157 249.914 530.361 250.724 530.361 251.636ZM527.805 251.384C527.841 250.568 527.625 249.95 527.157 249.53C526.701 249.11 526.137 248.9 525.465 248.9C524.781 248.9 524.205 249.11 523.737 249.53C523.269 249.95 523.011 250.568 522.963 251.384H527.805ZM534.701 248.936C535.073 248.3 535.565 247.802 536.177 247.442C536.789 247.07 537.473 246.884 538.229 246.884V249.602H537.491C535.631 249.602 534.701 250.466 534.701 252.194V257H532.163V247.028H534.701V248.936ZM543.539 246.902C544.379 246.902 545.099 247.1 545.699 247.496C546.299 247.892 546.725 248.426 546.977 249.098V247.028H549.497V257.036C549.497 257.96 549.311 258.788 548.939 259.52C548.579 260.264 548.033 260.846 547.301 261.266C546.581 261.686 545.705 261.896 544.673 261.896C543.233 261.896 542.069 261.554 541.181 260.87C540.293 260.186 539.753 259.256 539.561 258.08H542.063C542.207 258.584 542.483 258.974 542.891 259.25C543.311 259.538 543.845 259.682 544.493 259.682C545.237 259.682 545.837 259.46 546.293 259.016C546.749 258.584 546.977 257.924 546.977 257.036V254.912C546.725 255.584 546.299 256.124 545.699 256.532C545.099 256.928 544.379 257.126 543.539 257.126C542.699 257.126 541.943 256.922 541.271 256.514C540.599 256.106 540.071 255.518 539.687 254.75C539.315 253.97 539.129 253.058 539.129 252.014C539.129 250.97 539.315 250.064 539.687 249.296C540.071 248.516 540.599 247.922 541.271 247.514C541.943 247.106 542.699 246.902 543.539 246.902ZM544.331 249.116C543.539 249.116 542.903 249.374 542.423 249.89C541.943 250.406 541.703 251.114 541.703 252.014C541.703 252.914 541.943 253.622 542.423 254.138C542.903 254.642 543.539 254.894 544.331 254.894C545.099 254.894 545.729 254.636 546.221 254.12C546.725 253.592 546.977 252.89 546.977 252.014C546.977 251.126 546.725 250.424 546.221 249.908C545.729 249.38 545.099 249.116 544.331 249.116ZM553.508 247.028L556.226 253.796L558.746 247.028H561.536L555.434 261.752H552.626L554.876 256.712L550.682 247.028H553.508Z" fill="#27364D"/>
<path d="M586.754 151.292V164H584.198V158.474H578.762V164H576.224V151.292H578.762V156.44H584.198V151.292H586.754ZM590.838 151.292L594.24 161.354L597.66 151.292H600.378L595.878 164H592.62L588.12 151.292H590.838ZM609.488 161.444H604.394L603.494 164H600.812L605.492 151.436H608.39L613.052 164H610.37L609.488 161.444ZM608.804 159.518L606.932 154.154L605.06 159.518H608.804ZM620.164 151.166C621.748 151.166 623.062 151.574 624.106 152.39C625.15 153.206 625.84 154.316 626.176 155.72H623.512C623.236 155.036 622.804 154.496 622.216 154.1C621.64 153.704 620.944 153.506 620.128 153.506C619.456 153.506 618.85 153.674 618.31 154.01C617.77 154.346 617.35 154.826 617.05 155.45C616.75 156.074 616.6 156.806 616.6 157.646C616.6 158.474 616.75 159.2 617.05 159.824C617.35 160.448 617.77 160.928 618.31 161.264C618.85 161.6 619.456 161.768 620.128 161.768C620.944 161.768 621.64 161.57 622.216 161.174C622.804 160.778 623.236 160.238 623.512 159.554H626.176C625.84 160.958 625.15 162.068 624.106 162.884C623.062 163.7 621.748 164.108 620.164 164.108C618.952 164.108 617.878 163.838 616.942 163.298C616.018 162.746 615.298 161.978 614.782 160.994C614.278 160.01 614.026 158.894 614.026 157.646C614.026 156.386 614.278 155.264 614.782 154.28C615.298 153.296 616.018 152.534 616.942 151.994C617.866 151.442 618.94 151.166 620.164 151.166Z" fill="#27364D"/>
<line x1="410" y1="116" x2="568" y2="116" stroke="#2BC47C" stroke-width="2" stroke-dasharray="2 4"/>
<path d="M617.207 120.751C615.231 119.115 613.196 118.771 611.401 118.467C610.209 118.266 609.234 118.099 608.376 117.605C613.177 116.562 616.781 114.084 618.628 110.503C620.399 107.07 620.281 102.967 618.305 99.2461C617.107 96.9872 614.506 95.3387 611.679 95.0463C608.963 94.7656 606.435 95.7705 604.742 97.8074C603.106 99.7834 602.762 101.818 602.458 103.614C602.258 104.797 602.092 105.766 601.606 106.62C600.564 101.816 598.086 98.2104 594.504 96.3625C591.071 94.5916 586.968 94.7092 583.246 96.6849C580.987 97.8832 579.339 100.484 579.046 103.312C578.766 106.028 579.771 108.555 581.807 110.249C583.784 111.885 585.819 112.229 587.614 112.532C588.806 112.734 589.781 112.901 590.639 113.395C585.838 114.438 582.234 116.916 580.387 120.496C578.616 123.93 578.734 128.033 580.709 131.754C581.907 134.013 584.509 135.661 587.336 135.954C587.636 135.985 587.933 136 588.227 136C590.6 136 592.766 135.004 594.273 133.193C595.909 131.217 596.253 129.182 596.556 127.387C596.757 126.203 596.923 125.234 597.408 124.38C598.45 129.184 600.929 132.789 604.51 134.637C606.126 135.471 607.89 135.886 609.693 135.886C611.721 135.886 613.798 135.36 615.768 134.314C618.027 133.116 619.675 130.515 619.968 127.688C620.248 124.972 619.243 122.444 617.207 120.751ZM599.507 120.139C596.949 120.139 594.868 118.058 594.868 115.5C594.868 112.942 596.949 110.861 599.507 110.861C602.065 110.861 604.146 112.942 604.146 115.5C604.146 118.058 602.065 120.139 599.507 120.139ZM606.135 104.235C606.393 102.709 606.616 101.391 607.611 100.189C608.82 98.7355 610.438 98.6669 611.295 98.7556C612.87 98.9185 614.398 99.8386 615.011 100.994C616.426 103.659 616.533 106.429 615.313 108.794C614.008 111.325 611.345 113.114 607.725 113.931C607.335 111.88 606.194 110.093 604.599 108.866C605.614 107.298 605.896 105.646 606.135 104.235ZM584.189 107.379C582.735 106.171 582.667 104.552 582.756 103.695C582.919 102.12 583.839 100.592 584.995 99.9793C587.66 98.5644 590.43 98.457 592.794 99.6767C595.33 100.985 597.12 103.654 597.935 107.282C595.889 107.672 594.106 108.81 592.88 110.399C591.307 109.378 589.65 109.094 588.236 108.855C586.709 108.597 585.391 108.374 584.189 107.379ZM592.879 126.764C592.621 128.29 592.398 129.608 591.403 130.811C590.194 132.264 588.575 132.333 587.719 132.244C586.144 132.081 584.616 131.161 584.003 130.005C582.588 127.341 582.481 124.571 583.701 122.206C585.007 119.675 587.669 117.886 591.289 117.069C591.679 119.12 592.821 120.907 594.415 122.134C593.401 123.702 593.118 125.354 592.879 126.764ZM616.258 127.304C616.096 128.88 615.175 130.407 614.02 131.02C611.355 132.435 608.585 132.543 606.22 131.323C603.684 130.015 601.894 127.346 601.079 123.717C603.125 123.327 604.909 122.189 606.135 120.6C607.707 121.621 609.364 121.905 610.779 122.144C612.305 122.402 613.623 122.625 614.825 123.621C616.278 124.829 616.347 126.447 616.258 127.304Z" fill="url(#paint40_linear)"/>
<path d="M155.423 172.895L150.237 167.958L148.027 170.279L155.603 177.49L167.146 164.638L164.762 162.497L155.423 172.895Z" fill="url(#paint41_linear)" stroke="url(#paint42_linear)" stroke-width="0.5"/>
<path d="M170.315 155.22C166.431 154.524 162.855 152.403 161.068 151.201C159.901 150.415 158.544 150 157.143 150C155.742 150 154.384 150.415 153.217 151.201C151.431 152.403 147.854 154.524 143.97 155.22C141.67 155.633 140 157.623 140 159.953V169.619C140 172.812 140.893 175.925 142.655 178.871C144.034 181.176 145.944 183.379 148.332 185.418C152.348 188.848 156.324 190.636 156.491 190.71L157.143 191L157.794 190.71C157.961 190.636 161.938 188.848 165.953 185.418C168.341 183.379 170.251 181.176 171.63 178.871C173.392 175.925 174.285 172.812 174.285 169.619V159.953C174.285 157.623 172.616 155.633 170.315 155.22ZM171.081 169.619C171.081 174.38 168.676 178.858 163.933 182.93C161.175 185.297 158.376 186.84 157.143 187.466C154.308 186.025 143.204 179.735 143.204 169.619V159.953C143.204 159.177 143.764 158.513 144.535 158.374C148.997 157.575 153.011 155.202 155.006 153.859C155.643 153.431 156.381 153.204 157.143 153.204C157.904 153.204 158.643 153.431 159.279 153.859C161.274 155.202 165.288 157.575 169.75 158.374C170.521 158.513 171.081 159.176 171.081 159.953V169.619V169.619Z" fill="url(#paint43_linear)" stroke="url(#paint44_linear)" stroke-width="0.5"/>
<line x1="481.667" y1="370.027" x2="504.526" y2="378.595" stroke="#00C27D" stroke-width="3"/>
<path d="M569.016 391.154V382.749L524.777 400.09V409.38L569.016 391.154Z" fill="#99B2C5"/>
<path d="M524.158 399.913V409.203L477 393.189V385.58L524.158 399.913Z" fill="#BFEDD8"/>
<path d="M477 385.138L524.158 399.559L568.219 382.395L522.477 367L477 385.138Z" fill="url(#paint45_linear)"/>
<line x1="478.675" y1="350.475" x2="497.359" y2="341.644" stroke="#00C27D" stroke-width="3"/>
<path d="M473.621 327.138L520.779 341.559L564.84 324.395L519.098 309L473.621 327.138Z" fill="url(#paint46_linear)"/>
<path d="M565.016 333.154V324.749L520.777 342.09V351.38L565.016 333.154Z" fill="#99B2C5"/>
<path d="M520.158 341.913V351.203L473 335.189V327.58L520.158 341.913Z" fill="#BFEDD8"/>
<path d="M88.8431 32.1546C88.2989 31.6105 87.4447 31.5303 86.8086 31.9637C84.4121 33.5972 72.3921 41.8108 71.1003 43.1026C69.227 44.976 69.227 48.0241 71.1003 49.8975C72.037 50.8341 73.2675 51.3025 74.4978 51.3025C75.7281 51.3025 76.9585 50.8341 77.8952 49.8975C79.187 48.6057 87.4006 36.5857 89.0341 34.1892C89.4674 33.5532 89.3872 32.6989 88.8431 32.1546ZM75.6302 47.6325C75.0058 48.257 73.9897 48.257 73.3653 47.6325C72.7409 47.0081 72.7408 45.9923 73.365 45.3679C73.8669 44.8719 77.2796 42.438 81.4784 39.5194C78.5599 43.7182 76.126 47.1307 75.6302 47.6325Z" fill="url(#paint47_linear)"/>
<path d="M61.3857 53.9491L59.4085 54.9136C57.9619 52.3317 57.2031 49.4499 57.2031 46.4999C57.2031 44.3386 57.6017 42.2685 58.329 40.3593L60.5945 41.446C60.8179 41.5531 61.0537 41.6039 61.286 41.6039C61.8829 41.6039 62.4558 41.2688 62.7312 40.6946C63.1137 39.8971 62.7773 38.9404 61.9798 38.5579L59.743 37.485C62.5231 32.951 67.3331 29.7899 72.8985 29.2766V31.6854C72.8985 32.57 73.6155 33.287 74.5 33.287C75.3846 33.287 76.1016 32.57 76.1016 31.6854V29.2754C78.0097 29.4491 79.8559 29.935 81.6086 30.7262C82.4146 31.0902 83.3633 30.7315 83.7272 29.9255C84.0912 29.1193 83.7327 28.1708 82.9265 27.8068C80.2706 26.608 77.4355 26 74.4999 26C69.0242 26 63.8762 28.1323 60.0042 32.0042C56.1324 35.8762 54 41.0242 54 46.4999C54 50.5463 55.201 54.4816 57.4732 57.8802C57.7793 58.3379 58.2853 58.5918 58.8056 58.5918C59.0422 58.5918 59.2818 58.5393 59.5069 58.4295L62.7901 56.828C63.5851 56.4402 63.9152 55.4814 63.5273 54.6864C63.1395 53.8914 62.1807 53.5614 61.3857 53.9491Z" fill="url(#paint48_linear)"/>
<path d="M93.1935 38.0735C92.8297 37.2673 91.8813 36.9086 91.0748 37.2727C90.2687 37.6366 89.9102 38.5852 90.2741 39.3913C91.2849 41.6301 91.7973 44.0218 91.7973 46.4999C91.7973 49.4543 91.0361 52.3407 89.5851 54.9255L87.521 53.9426C86.7225 53.5624 85.7668 53.9013 85.3864 54.7C85.0061 55.4986 85.3453 56.4543 86.1439 56.8346L89.5071 58.4361C89.7284 58.5414 89.9629 58.5918 90.1949 58.5918C90.7154 58.5918 91.2215 58.3376 91.5271 57.8802C93.7994 54.4816 95.0004 50.5462 95.0004 46.4999C95.0004 43.5643 94.3925 40.7292 93.1935 38.0735Z" fill="url(#paint49_linear)"/>
<path d="M583.602 353.292L579.3 361.554V366H576.744V361.554L572.424 353.292H575.34L578.04 358.854L580.74 353.292H583.602ZM589.57 355.902C590.542 355.902 591.412 356.106 592.18 356.514C592.96 356.922 593.572 357.516 594.016 358.296C594.46 359.064 594.682 359.97 594.682 361.014C594.682 362.058 594.46 362.964 594.016 363.732C593.572 364.5 592.96 365.094 592.18 365.514C591.412 365.922 590.542 366.126 589.57 366.126C588.598 366.126 587.722 365.922 586.942 365.514C586.174 365.094 585.568 364.5 585.124 363.732C584.68 362.964 584.458 362.058 584.458 361.014C584.458 359.97 584.68 359.064 585.124 358.296C585.568 357.516 586.174 356.922 586.942 356.514C587.722 356.106 588.598 355.902 589.57 355.902ZM589.57 358.098C588.862 358.098 588.262 358.35 587.77 358.854C587.278 359.346 587.032 360.066 587.032 361.014C587.032 361.962 587.278 362.688 587.77 363.192C588.262 363.684 588.862 363.93 589.57 363.93C590.278 363.93 590.878 363.684 591.37 363.192C591.862 362.688 592.108 361.962 592.108 361.014C592.108 360.066 591.862 359.346 591.37 358.854C590.878 358.35 590.278 358.098 589.57 358.098ZM606.015 356.028V366H603.477V363.984C603.213 364.656 602.775 365.184 602.163 365.568C601.563 365.94 600.867 366.126 600.075 366.126C598.923 366.126 598.005 365.748 597.321 364.992C596.637 364.236 596.295 363.18 596.295 361.824V356.028H598.815V361.536C598.815 362.328 599.019 362.946 599.427 363.39C599.835 363.822 600.387 364.038 601.083 364.038C601.815 364.038 602.397 363.804 602.829 363.336C603.261 362.868 603.477 362.196 603.477 361.32V356.028H606.015ZM610.861 357.936C611.233 357.3 611.725 356.802 612.337 356.442C612.949 356.07 613.633 355.884 614.389 355.884V358.602H613.651C611.791 358.602 610.861 359.466 610.861 361.194V366H608.323V356.028H610.861V357.936ZM623.62 355.902C624.46 355.902 625.18 356.1 625.78 356.496C626.38 356.892 626.806 357.426 627.058 358.098V356.028H629.578V366H627.058V363.912C626.806 364.584 626.38 365.124 625.78 365.532C625.18 365.928 624.46 366.126 623.62 366.126C622.78 366.126 622.024 365.922 621.352 365.514C620.68 365.106 620.152 364.518 619.768 363.75C619.396 362.97 619.21 362.058 619.21 361.014C619.21 359.97 619.396 359.064 619.768 358.296C620.152 357.516 620.68 356.922 621.352 356.514C622.024 356.106 622.78 355.902 623.62 355.902ZM624.412 358.116C623.62 358.116 622.984 358.374 622.504 358.89C622.024 359.406 621.784 360.114 621.784 361.014C621.784 361.914 622.024 362.622 622.504 363.138C622.984 363.642 623.62 363.894 624.412 363.894C625.18 363.894 625.81 363.636 626.302 363.12C626.806 362.592 627.058 361.89 627.058 361.014C627.058 360.126 626.806 359.424 626.302 358.908C625.81 358.38 625.18 358.116 624.412 358.116ZM637.836 355.902C638.676 355.902 639.432 356.106 640.104 356.514C640.776 356.922 641.298 357.516 641.67 358.296C642.054 359.064 642.246 359.97 642.246 361.014C642.246 362.058 642.054 362.97 641.67 363.75C641.298 364.518 640.776 365.106 640.104 365.514C639.432 365.922 638.676 366.126 637.836 366.126C636.996 366.126 636.276 365.928 635.676 365.532C635.088 365.124 634.668 364.584 634.416 363.912V370.752H631.878V356.028H634.416V358.098C634.668 357.426 635.088 356.892 635.676 356.496C636.276 356.1 636.996 355.902 637.836 355.902ZM637.044 358.116C636.276 358.116 635.64 358.38 635.136 358.908C634.644 359.424 634.398 360.126 634.398 361.014C634.398 361.89 634.644 362.592 635.136 363.12C635.64 363.636 636.276 363.894 637.044 363.894C637.836 363.894 638.472 363.642 638.952 363.138C639.432 362.622 639.672 361.914 639.672 361.014C639.672 360.114 639.432 359.406 638.952 358.89C638.472 358.374 637.836 358.116 637.044 358.116ZM650 355.902C650.84 355.902 651.596 356.106 652.268 356.514C652.94 356.922 653.462 357.516 653.834 358.296C654.218 359.064 654.41 359.97 654.41 361.014C654.41 362.058 654.218 362.97 653.834 363.75C653.462 364.518 652.94 365.106 652.268 365.514C651.596 365.922 650.84 366.126 650 366.126C649.16 366.126 648.44 365.928 647.84 365.532C647.252 365.124 646.832 364.584 646.58 363.912V370.752H644.042V356.028H646.58V358.098C646.832 357.426 647.252 356.892 647.84 356.496C648.44 356.1 649.16 355.902 650 355.902ZM649.208 358.116C648.44 358.116 647.804 358.38 647.3 358.908C646.808 359.424 646.562 360.126 646.562 361.014C646.562 361.89 646.808 362.592 647.3 363.12C647.804 363.636 648.44 363.894 649.208 363.894C650 363.894 650.636 363.642 651.116 363.138C651.596 362.622 651.836 361.914 651.836 361.014C651.836 360.114 651.596 359.406 651.116 358.89C650.636 358.374 650 358.116 649.208 358.116ZM659.644 355.902C660.856 355.902 661.828 356.208 662.56 356.82C663.292 357.432 663.748 358.248 663.928 359.268H661.552C661.456 358.788 661.24 358.404 660.904 358.116C660.568 357.828 660.13 357.684 659.59 357.684C659.158 357.684 658.822 357.786 658.582 357.99C658.342 358.194 658.222 358.47 658.222 358.818C658.222 359.094 658.318 359.316 658.51 359.484C658.702 359.652 658.942 359.784 659.23 359.88C659.518 359.976 659.932 360.09 660.472 360.222C661.228 360.39 661.84 360.57 662.308 360.762C662.788 360.942 663.196 361.236 663.532 361.644C663.88 362.04 664.054 362.58 664.054 363.264C664.054 364.116 663.718 364.806 663.046 365.334C662.386 365.862 661.492 366.126 660.364 366.126C659.068 366.126 658.03 365.838 657.25 365.262C656.47 364.674 655.996 363.84 655.828 362.76H658.258C658.318 363.252 658.534 363.642 658.906 363.93C659.278 364.206 659.764 364.344 660.364 364.344C660.796 364.344 661.126 364.242 661.354 364.038C661.582 363.822 661.696 363.546 661.696 363.21C661.696 362.922 661.594 362.688 661.39 362.508C661.198 362.328 660.952 362.19 660.652 362.094C660.364 361.998 659.95 361.884 659.41 361.752C658.666 361.584 658.06 361.416 657.592 361.248C657.136 361.068 656.74 360.786 656.404 360.402C656.08 360.018 655.918 359.49 655.918 358.818C655.918 357.954 656.248 357.252 656.908 356.712C657.568 356.172 658.48 355.902 659.644 355.902Z" fill="#27364D"/>
<path d="M640.058 296H601.613C599.07 296 597 298.07 597 300.613V332.907C597 335.45 599.07 337.52 601.613 337.52H640.058C642.602 337.52 644.671 335.45 644.671 332.907V300.613C644.671 298.07 642.602 296 640.058 296ZM641.596 332.907C641.596 333.755 640.906 334.444 640.058 334.444H601.613C600.765 334.444 600.076 333.755 600.076 332.907V308.302H638.52C639.369 308.302 640.058 307.614 640.058 306.764C640.058 305.915 639.369 305.227 638.52 305.227H600.076V300.613C600.076 299.765 600.765 299.076 601.613 299.076H640.058C640.906 299.076 641.596 299.765 641.596 300.613V332.907ZM603.452 303.659C602.653 303.813 601.834 303.337 601.643 302.452C601.488 301.647 601.971 300.833 602.85 300.643C603.663 300.487 604.471 300.979 604.659 301.85C604.815 302.661 604.326 303.47 603.452 303.659ZM608.065 303.659C607.259 303.814 606.446 303.33 606.256 302.452C606.101 301.647 606.584 300.833 607.464 300.643C608.276 300.487 609.085 300.979 609.272 301.85C609.428 302.661 608.94 303.47 608.065 303.659ZM612.679 303.659C611.871 303.815 611.059 303.329 610.87 302.452C610.715 301.647 611.198 300.833 612.077 300.643C612.889 300.487 613.698 300.978 613.886 301.85C614.042 302.661 613.553 303.47 612.679 303.659Z" fill="url(#paint50_linear)" stroke="url(#paint51_linear)" stroke-width="0.5"/>
<path d="M633.461 315.019C631.653 315.019 630.125 316.24 629.656 317.901H627.631V314.483C627.631 313.891 627.151 313.411 626.559 313.411C625.967 313.411 625.487 313.891 625.487 314.483V318.973C625.487 319.566 625.967 320.046 626.559 320.046H629.656C630.125 321.707 631.653 322.928 633.461 322.928C635.641 322.928 637.415 321.154 637.415 318.973C637.415 316.793 635.641 315.019 633.461 315.019ZM633.461 320.783C632.464 320.783 631.652 319.971 631.652 318.973C631.652 317.976 632.464 317.164 633.461 317.164C634.459 317.164 635.271 317.976 635.271 318.973C635.271 319.971 634.459 320.783 633.461 320.783ZM621.868 321.2V314.483C621.868 313.891 621.388 313.411 620.795 313.411C620.203 313.411 619.723 313.891 619.723 314.483V321.2C618.063 321.669 616.842 323.197 616.842 325.005C616.842 327.186 618.615 328.96 620.795 328.96C622.976 328.96 624.749 327.186 624.749 325.005C624.749 323.197 623.528 321.669 621.868 321.2ZM620.795 326.815C619.798 326.815 618.986 326.003 618.986 325.005C618.986 324.008 619.798 323.196 620.795 323.196C621.793 323.196 622.605 324.008 622.605 325.005C622.605 326.003 621.793 326.815 620.795 326.815ZM615.032 313.411C614.44 313.411 613.96 313.891 613.96 314.483V317.901H611.935C611.466 316.24 609.938 315.019 608.13 315.019C605.95 315.019 604.176 316.793 604.176 318.973C604.176 321.154 605.95 322.928 608.13 322.928C609.938 322.928 611.466 321.707 611.935 320.046H615.032C615.624 320.046 616.104 319.566 616.104 318.973V314.483C616.104 313.891 615.624 313.411 615.032 313.411ZM608.13 320.783C607.132 320.783 606.32 319.971 606.32 318.973C606.32 317.976 607.132 317.164 608.13 317.164C609.127 317.164 609.939 317.976 609.939 318.973C609.939 319.971 609.127 320.783 608.13 320.783Z" fill="url(#paint52_linear)" stroke="url(#paint53_linear)" stroke-width="1.03"/>
<defs>
<linearGradient id="paint0_linear" x1="236.329" y1="214.836" x2="440.648" y2="214.836" gradientUnits="userSpaceOnUse">
<stop stop-color="white"/>
<stop offset="1" stop-color="white"/>
</linearGradient>
<linearGradient id="paint1_linear" x1="538" y1="207" x2="522" y2="207" gradientUnits="userSpaceOnUse">
<stop stop-color="#06EA84"/>
<stop offset="1" stop-color="#2BC47B"/>
</linearGradient>
<linearGradient id="paint2_linear" x1="538" y1="207" x2="522" y2="207" gradientUnits="userSpaceOnUse">
<stop stop-color="#06EA84"/>
<stop offset="1" stop-color="#2BC47B"/>
</linearGradient>
<linearGradient id="paint3_linear" x1="550" y1="206.5" x2="509" y2="206.5" gradientUnits="userSpaceOnUse">
<stop stop-color="#06EA84"/>
<stop offset="1" stop-color="#2BC47B"/>
</linearGradient>
<linearGradient id="paint4_linear" x1="71" y1="301.5" x2="28" y2="301.5" gradientUnits="userSpaceOnUse">
<stop stop-color="#06EA84"/>
<stop offset="1" stop-color="#2BC47B"/>
</linearGradient>
<linearGradient id="paint5_linear" x1="71" y1="301.5" x2="28" y2="301.5" gradientUnits="userSpaceOnUse">
<stop stop-color="#06EA84"/>
<stop offset="1" stop-color="#2BC47B"/>
</linearGradient>
<linearGradient id="paint6_linear" x1="71" y1="301.5" x2="28" y2="301.5" gradientUnits="userSpaceOnUse">
<stop stop-color="#06EA84"/>
<stop offset="1" stop-color="#2BC47B"/>
</linearGradient>
<linearGradient id="paint7_linear" x1="71" y1="301.5" x2="28" y2="301.5" gradientUnits="userSpaceOnUse">
<stop stop-color="#06EA84"/>
<stop offset="1" stop-color="#2BC47B"/>
</linearGradient>
<linearGradient id="paint8_linear" x1="71" y1="301.5" x2="28" y2="301.5" gradientUnits="userSpaceOnUse">
<stop stop-color="#06EA84"/>
<stop offset="1" stop-color="#2BC47B"/>
</linearGradient>
<linearGradient id="paint9_linear" x1="71" y1="301.5" x2="28" y2="301.5" gradientUnits="userSpaceOnUse">
<stop stop-color="#06EA84"/>
<stop offset="1" stop-color="#2BC47B"/>
</linearGradient>
<linearGradient id="paint10_linear" x1="71" y1="301.5" x2="28" y2="301.5" gradientUnits="userSpaceOnUse">
<stop stop-color="#06EA84"/>
<stop offset="1" stop-color="#2BC47B"/>
</linearGradient>
<linearGradient id="paint11_linear" x1="71" y1="301.5" x2="28" y2="301.5" gradientUnits="userSpaceOnUse">
<stop stop-color="#06EA84"/>
<stop offset="1" stop-color="#2BC47B"/>
</linearGradient>
<linearGradient id="paint12_linear" x1="71" y1="301.5" x2="28" y2="301.5" gradientUnits="userSpaceOnUse">
<stop stop-color="#06EA84"/>
<stop offset="1" stop-color="#2BC47B"/>
</linearGradient>
<linearGradient id="paint13_linear" x1="71" y1="301.5" x2="28" y2="301.5" gradientUnits="userSpaceOnUse">
<stop stop-color="#06EA84"/>
<stop offset="1" stop-color="#2BC47B"/>
</linearGradient>
<linearGradient id="paint14_linear" x1="71" y1="301.5" x2="28" y2="301.5" gradientUnits="userSpaceOnUse">
<stop stop-color="#06EA84"/>
<stop offset="1" stop-color="#2BC47B"/>
</linearGradient>
<linearGradient id="paint15_linear" x1="71" y1="301.5" x2="28" y2="301.5" gradientUnits="userSpaceOnUse">
<stop stop-color="#06EA84"/>
<stop offset="1" stop-color="#2BC47B"/>
</linearGradient>
<linearGradient id="paint16_linear" x1="71" y1="301.5" x2="28" y2="301.5" gradientUnits="userSpaceOnUse">
<stop stop-color="#06EA84"/>
<stop offset="1" stop-color="#2BC47B"/>
</linearGradient>
<linearGradient id="paint17_linear" x1="71" y1="301.5" x2="28" y2="301.5" gradientUnits="userSpaceOnUse">
<stop stop-color="#06EA84"/>
<stop offset="1" stop-color="#2BC47B"/>
</linearGradient>
<linearGradient id="paint18_linear" x1="71" y1="301.5" x2="28" y2="301.5" gradientUnits="userSpaceOnUse">
<stop stop-color="#06EA84"/>
<stop offset="1" stop-color="#2BC47B"/>
</linearGradient>
<linearGradient id="paint19_linear" x1="71" y1="301.5" x2="28" y2="301.5" gradientUnits="userSpaceOnUse">
<stop stop-color="#06EA84"/>
<stop offset="1" stop-color="#2BC47B"/>
</linearGradient>
<linearGradient id="paint20_linear" x1="71" y1="301.5" x2="28" y2="301.5" gradientUnits="userSpaceOnUse">
<stop stop-color="#06EA84"/>
<stop offset="1" stop-color="#2BC47B"/>
</linearGradient>
<linearGradient id="paint21_linear" x1="71" y1="301.5" x2="28" y2="301.5" gradientUnits="userSpaceOnUse">
<stop stop-color="#06EA84"/>
<stop offset="1" stop-color="#2BC47B"/>
</linearGradient>
<linearGradient id="paint22_linear" x1="71" y1="301.5" x2="28" y2="301.5" gradientUnits="userSpaceOnUse">
<stop stop-color="#06EA84"/>
<stop offset="1" stop-color="#2BC47B"/>
</linearGradient>
<linearGradient id="paint23_linear" x1="71" y1="301.5" x2="28" y2="301.5" gradientUnits="userSpaceOnUse">
<stop stop-color="#06EA84"/>
<stop offset="1" stop-color="#2BC47B"/>
</linearGradient>
<linearGradient id="paint24_linear" x1="71" y1="301.5" x2="28" y2="301.5" gradientUnits="userSpaceOnUse">
<stop stop-color="#06EA84"/>
<stop offset="1" stop-color="#2BC47B"/>
</linearGradient>
<linearGradient id="paint25_linear" x1="71" y1="301.5" x2="28" y2="301.5" gradientUnits="userSpaceOnUse">
<stop stop-color="#06EA84"/>
<stop offset="1" stop-color="#2BC47B"/>
</linearGradient>
<linearGradient id="paint26_linear" x1="71" y1="301.5" x2="28" y2="301.5" gradientUnits="userSpaceOnUse">
<stop stop-color="#06EA84"/>
<stop offset="1" stop-color="#2BC47B"/>
</linearGradient>
<linearGradient id="paint27_linear" x1="71" y1="301.5" x2="28" y2="301.5" gradientUnits="userSpaceOnUse">
<stop stop-color="#06EA84"/>
<stop offset="1" stop-color="#2BC47B"/>
</linearGradient>
<linearGradient id="paint28_linear" x1="71" y1="301.5" x2="28" y2="301.5" gradientUnits="userSpaceOnUse">
<stop stop-color="#06EA84"/>
<stop offset="1" stop-color="#2BC47B"/>
</linearGradient>
<linearGradient id="paint29_linear" x1="71" y1="301.5" x2="28" y2="301.5" gradientUnits="userSpaceOnUse">
<stop stop-color="#06EA84"/>
<stop offset="1" stop-color="#2BC47B"/>
</linearGradient>
<linearGradient id="paint30_linear" x1="71" y1="301.5" x2="28" y2="301.5" gradientUnits="userSpaceOnUse">
<stop stop-color="#06EA84"/>
<stop offset="1" stop-color="#2BC47B"/>
</linearGradient>
<linearGradient id="paint31_linear" x1="71" y1="301.5" x2="28" y2="301.5" gradientUnits="userSpaceOnUse">
<stop stop-color="#06EA84"/>
<stop offset="1" stop-color="#2BC47B"/>
</linearGradient>
<linearGradient id="paint32_linear" x1="71" y1="301.5" x2="28" y2="301.5" gradientUnits="userSpaceOnUse">
<stop stop-color="#06EA84"/>
<stop offset="1" stop-color="#2BC47B"/>
</linearGradient>
<linearGradient id="paint33_linear" x1="71" y1="301.5" x2="28" y2="301.5" gradientUnits="userSpaceOnUse">
<stop stop-color="#06EA84"/>
<stop offset="1" stop-color="#2BC47B"/>
</linearGradient>
<linearGradient id="paint34_linear" x1="71" y1="301.5" x2="28" y2="301.5" gradientUnits="userSpaceOnUse">
<stop stop-color="#06EA84"/>
<stop offset="1" stop-color="#2BC47B"/>
</linearGradient>
<linearGradient id="paint35_linear" x1="71" y1="301.5" x2="28" y2="301.5" gradientUnits="userSpaceOnUse">
<stop stop-color="#06EA84"/>
<stop offset="1" stop-color="#2BC47B"/>
</linearGradient>
<linearGradient id="paint36_linear" x1="71" y1="301.5" x2="28" y2="301.5" gradientUnits="userSpaceOnUse">
<stop stop-color="#06EA84"/>
<stop offset="1" stop-color="#2BC47B"/>
</linearGradient>
<linearGradient id="paint37_linear" x1="71" y1="301.5" x2="28" y2="301.5" gradientUnits="userSpaceOnUse">
<stop stop-color="#06EA84"/>
<stop offset="1" stop-color="#2BC47B"/>
</linearGradient>
<linearGradient id="paint38_linear" x1="71" y1="301.5" x2="28" y2="301.5" gradientUnits="userSpaceOnUse">
<stop stop-color="#06EA84"/>
<stop offset="1" stop-color="#2BC47B"/>
</linearGradient>
<linearGradient id="paint39_linear" x1="71" y1="301.5" x2="28" y2="301.5" gradientUnits="userSpaceOnUse">
<stop stop-color="#06EA84"/>
<stop offset="1" stop-color="#2BC47B"/>
</linearGradient>
<linearGradient id="paint40_linear" x1="620.014" y1="115.5" x2="579" y2="115.5" gradientUnits="userSpaceOnUse">
<stop stop-color="#06EA84"/>
<stop offset="1" stop-color="#2BC47B"/>
</linearGradient>
<linearGradient id="paint41_linear" x1="167.146" y1="169.994" x2="148.027" y2="169.994" gradientUnits="userSpaceOnUse">
<stop stop-color="#06EA84"/>
<stop offset="1" stop-color="#2BC47B"/>
</linearGradient>
<linearGradient id="paint42_linear" x1="167.146" y1="169.994" x2="148.027" y2="169.994" gradientUnits="userSpaceOnUse">
<stop stop-color="#06EA84"/>
<stop offset="1" stop-color="#2BC47B"/>
</linearGradient>
<linearGradient id="paint43_linear" x1="174.285" y1="170.5" x2="140" y2="170.5" gradientUnits="userSpaceOnUse">
<stop stop-color="#06EA84"/>
<stop offset="1" stop-color="#2BC47B"/>
</linearGradient>
<linearGradient id="paint44_linear" x1="174.285" y1="170.5" x2="140" y2="170.5" gradientUnits="userSpaceOnUse">
<stop stop-color="#06EA84"/>
<stop offset="1" stop-color="#2BC47B"/>
</linearGradient>
<linearGradient id="paint45_linear" x1="484.379" y1="383" x2="559.879" y2="383" gradientUnits="userSpaceOnUse">
<stop stop-color="#6BD6A3"/>
<stop offset="1" stop-color="#99B2C5"/>
</linearGradient>
<linearGradient id="paint46_linear" x1="481" y1="325" x2="556.5" y2="325" gradientUnits="userSpaceOnUse">
<stop stop-color="#6BD6A3"/>
<stop offset="1" stop-color="#99B2C5"/>
</linearGradient>
<linearGradient id="paint47_linear" x1="89.3122" y1="41.494" x2="69.6953" y2="41.494" gradientUnits="userSpaceOnUse">
<stop stop-color="#06EA84"/>
<stop offset="1" stop-color="#2BC47B"/>
</linearGradient>
<linearGradient id="paint48_linear" x1="83.8695" y1="42.2959" x2="54" y2="42.2959" gradientUnits="userSpaceOnUse">
<stop stop-color="#06EA84"/>
<stop offset="1" stop-color="#2BC47B"/>
</linearGradient>
<linearGradient id="paint49_linear" x1="95.0004" y1="47.8611" x2="85.2305" y2="47.8611" gradientUnits="userSpaceOnUse">
<stop stop-color="#06EA84"/>
<stop offset="1" stop-color="#2BC47B"/>
</linearGradient>
<linearGradient id="paint50_linear" x1="644.671" y1="316.76" x2="597" y2="316.76" gradientUnits="userSpaceOnUse">
<stop stop-color="#8AA0B4"/>
<stop offset="1" stop-color="#99B2C5"/>
</linearGradient>
<linearGradient id="paint51_linear" x1="644.671" y1="316.76" x2="597" y2="316.76" gradientUnits="userSpaceOnUse">
<stop stop-color="#8AA0B4"/>
<stop offset="1" stop-color="#99B2C5"/>
</linearGradient>
<linearGradient id="paint52_linear" x1="637.415" y1="321.185" x2="604.176" y2="321.185" gradientUnits="userSpaceOnUse">
<stop stop-color="#8AA0B4"/>
<stop offset="1" stop-color="#99B2C5"/>
</linearGradient>
<linearGradient id="paint53_linear" x1="637.415" y1="321.185" x2="604.176" y2="321.185" gradientUnits="userSpaceOnUse">
<stop stop-color="#8AA0B4"/>
<stop offset="1" stop-color="#99B2C5"/>
</linearGradient>
</defs>
</svg>
