<svg width="686" height="453" viewBox="0 0 686 453" fill="none" xmlns="http://www.w3.org/2000/svg">
<path d="M10.5015 340.308V343.602H15.0015V345.546H10.5015V348.966H15.5415V351H7.96352V338.292H15.5415V340.308H10.5015ZM21.9026 340.902C23.1866 340.902 24.2546 341.25 25.1066 341.946C25.9706 342.642 26.5106 343.59 26.7266 344.79H24.0446C23.9366 344.262 23.6906 343.848 23.3066 343.548C22.9226 343.236 22.4366 343.08 21.8486 343.08C21.1766 343.08 20.6126 343.332 20.1566 343.836C19.7126 344.328 19.4906 345.054 19.4906 346.014C19.4906 346.974 19.7126 347.706 20.1566 348.21C20.6126 348.702 21.1766 348.948 21.8486 348.948C22.4366 348.948 22.9226 348.798 23.3066 348.498C23.6906 348.186 23.9366 347.766 24.0446 347.238H26.7266C26.5106 348.438 25.9706 349.386 25.1066 350.082C24.2546 350.778 23.1866 351.126 21.9026 351.126C20.9306 351.126 20.0666 350.922 19.3106 350.514C18.5546 350.094 17.9666 349.5 17.5466 348.732C17.1266 347.964 16.9166 347.058 16.9166 346.014C16.9166 344.97 17.1266 344.064 17.5466 343.296C17.9666 342.516 18.5546 341.922 19.3106 341.514C20.0666 341.106 20.9306 340.902 21.9026 340.902ZM31.0679 337.68V351H28.5299V337.68H31.0679ZM37.2699 340.902C38.1099 340.902 38.8299 341.1 39.4299 341.496C40.0299 341.892 40.4559 342.426 40.7079 343.098V341.028H43.2279V351H40.7079V348.912C40.4559 349.584 40.0299 350.124 39.4299 350.532C38.8299 350.928 38.1099 351.126 37.2699 351.126C36.4299 351.126 35.6739 350.922 35.0019 350.514C34.3299 350.106 33.8019 349.518 33.4179 348.75C33.0459 347.97 32.8599 347.058 32.8599 346.014C32.8599 344.97 33.0459 344.064 33.4179 343.296C33.8019 342.516 34.3299 341.922 35.0019 341.514C35.6739 341.106 36.4299 340.902 37.2699 340.902ZM38.0619 343.116C37.2699 343.116 36.6339 343.374 36.1539 343.89C35.6739 344.406 35.4339 345.114 35.4339 346.014C35.4339 346.914 35.6739 347.622 36.1539 348.138C36.6339 348.642 37.2699 348.894 38.0619 348.894C38.8299 348.894 39.4599 348.636 39.9519 348.12C40.4559 347.592 40.7079 346.89 40.7079 346.014C40.7079 345.126 40.4559 344.424 39.9519 343.908C39.4599 343.38 38.8299 343.116 38.0619 343.116ZM45.24 338.166C45.24 337.758 45.384 337.428 45.672 337.176C45.96 336.912 46.338 336.78 46.806 336.78C47.274 336.78 47.652 336.912 47.94 337.176C48.228 337.428 48.372 337.758 48.372 338.166C48.372 338.562 48.228 338.892 47.94 339.156C47.652 339.408 47.274 339.534 46.806 339.534C46.338 339.534 45.96 339.408 45.672 339.156C45.384 338.892 45.24 338.562 45.24 338.166ZM48.066 341.028V351H45.528V341.028H48.066ZM52.9 342.936C53.272 342.3 53.764 341.802 54.376 341.442C54.988 341.07 55.672 340.884 56.428 340.884V343.602H55.69C53.83 343.602 52.9 344.466 52.9 346.194V351H50.362V341.028H52.9V342.936ZM61.7387 340.902C62.5787 340.902 63.2987 341.1 63.8987 341.496C64.4987 341.892 64.9247 342.426 65.1767 343.098V341.028H67.6967V351H65.1767V348.912C64.9247 349.584 64.4987 350.124 63.8987 350.532C63.2987 350.928 62.5787 351.126 61.7387 351.126C60.8987 351.126 60.1427 350.922 59.4707 350.514C58.7987 350.106 58.2707 349.518 57.8867 348.75C57.5147 347.97 57.3287 347.058 57.3287 346.014C57.3287 344.97 57.5147 344.064 57.8867 343.296C58.2707 342.516 58.7987 341.922 59.4707 341.514C60.1427 341.106 60.8987 340.902 61.7387 340.902ZM62.5307 343.116C61.7387 343.116 61.1027 343.374 60.6227 343.89C60.1427 344.406 59.9027 345.114 59.9027 346.014C59.9027 346.914 60.1427 347.622 60.6227 348.138C61.1027 348.642 61.7387 348.894 62.5307 348.894C63.2987 348.894 63.9287 348.636 64.4207 348.12C64.9247 347.592 65.1767 346.89 65.1767 346.014C65.1767 345.126 64.9247 344.424 64.4207 343.908C63.9287 343.38 63.2987 343.116 62.5307 343.116ZM73.9027 340.902C74.7427 340.902 75.4627 341.1 76.0627 341.496C76.6627 341.892 77.0887 342.426 77.3407 343.098V341.028H79.8607V351.036C79.8607 351.96 79.6747 352.788 79.3027 353.52C78.9427 354.264 78.3967 354.846 77.6647 355.266C76.9447 355.686 76.0687 355.896 75.0367 355.896C73.5967 355.896 72.4327 355.554 71.5447 354.87C70.6567 354.186 70.1167 353.256 69.9247 352.08H72.4267C72.5707 352.584 72.8467 352.974 73.2547 353.25C73.6747 353.538 74.2087 353.682 74.8567 353.682C75.6007 353.682 76.2007 353.46 76.6567 353.016C77.1127 352.584 77.3407 351.924 77.3407 351.036V348.912C77.0887 349.584 76.6627 350.124 76.0627 350.532C75.4627 350.928 74.7427 351.126 73.9027 351.126C73.0627 351.126 72.3067 350.922 71.6347 350.514C70.9627 350.106 70.4347 349.518 70.0507 348.75C69.6787 347.97 69.4927 347.058 69.4927 346.014C69.4927 344.97 69.6787 344.064 70.0507 343.296C70.4347 342.516 70.9627 341.922 71.6347 341.514C72.3067 341.106 73.0627 340.902 73.9027 340.902ZM74.6947 343.116C73.9027 343.116 73.2667 343.374 72.7867 343.89C72.3067 344.406 72.0667 345.114 72.0667 346.014C72.0667 346.914 72.3067 347.622 72.7867 348.138C73.2667 348.642 73.9027 348.894 74.6947 348.894C75.4627 348.894 76.0927 348.636 76.5847 348.12C77.0887 347.592 77.3407 346.89 77.3407 346.014C77.3407 345.126 77.0887 344.424 76.5847 343.908C76.0927 343.38 75.4627 343.116 74.6947 343.116ZM91.5388 345.636C91.5388 345.888 91.5088 346.176 91.4488 346.5H84.1408C84.1768 347.388 84.4168 348.042 84.8608 348.462C85.3048 348.882 85.8568 349.092 86.5168 349.092C87.1048 349.092 87.5908 348.948 87.9748 348.66C88.3708 348.372 88.6228 347.982 88.7308 347.49H91.4128C91.2808 348.186 90.9988 348.81 90.5668 349.362C90.1348 349.914 89.5768 350.346 88.8928 350.658C88.2208 350.97 87.4708 351.126 86.6428 351.126C85.6708 351.126 84.8068 350.922 84.0508 350.514C83.2948 350.094 82.7068 349.5 82.2868 348.732C81.8668 347.964 81.6568 347.058 81.6568 346.014C81.6568 344.97 81.8668 344.064 82.2868 343.296C82.7068 342.516 83.2948 341.922 84.0508 341.514C84.8068 341.106 85.6708 340.902 86.6428 340.902C87.6268 340.902 88.4848 341.106 89.2168 341.514C89.9608 341.922 90.5308 342.486 90.9268 343.206C91.3348 343.914 91.5388 344.724 91.5388 345.636ZM88.9828 345.384C89.0188 344.568 88.8028 343.95 88.3348 343.53C87.8788 343.11 87.3148 342.9 86.6428 342.9C85.9588 342.9 85.3828 343.11 84.9148 343.53C84.4468 343.95 84.1888 344.568 84.1408 345.384H88.9828Z" fill="#27364D"/>
<path d="M23.0748 73.112C24.2628 73.112 25.3368 73.388 26.2968 73.94C27.2688 74.492 28.0308 75.266 28.5828 76.262C29.1468 77.246 29.4288 78.362 29.4288 79.61C29.4288 80.858 29.1468 81.98 28.5828 82.976C28.0308 83.972 27.2688 84.746 26.2968 85.298C25.3368 85.85 24.2628 86.126 23.0748 86.126C21.8868 86.126 20.8068 85.85 19.8348 85.298C18.8748 84.746 18.1128 83.972 17.5488 82.976C16.9968 81.98 16.7208 80.858 16.7208 79.61C16.7208 78.362 16.9968 77.246 17.5488 76.262C18.1128 75.266 18.8748 74.492 19.8348 73.94C20.8068 73.388 21.8868 73.112 23.0748 73.112ZM23.0748 75.452C22.3308 75.452 21.6768 75.62 21.1128 75.956C20.5488 76.292 20.1048 76.778 19.7808 77.414C19.4688 78.038 19.3128 78.77 19.3128 79.61C19.3128 80.45 19.4688 81.188 19.7808 81.824C20.1048 82.448 20.5488 82.928 21.1128 83.264C21.6768 83.6 22.3308 83.768 23.0748 83.768C23.8188 83.768 24.4728 83.6 25.0368 83.264C25.6008 82.928 26.0388 82.448 26.3508 81.824C26.6748 81.188 26.8368 80.45 26.8368 79.61C26.8368 78.77 26.6748 78.038 26.3508 77.414C26.0388 76.778 25.6008 76.292 25.0368 75.956C24.4728 75.62 23.8188 75.452 23.0748 75.452ZM35.8195 75.902C37.1035 75.902 38.1715 76.25 39.0235 76.946C39.8875 77.642 40.4275 78.59 40.6435 79.79H37.9615C37.8535 79.262 37.6075 78.848 37.2235 78.548C36.8395 78.236 36.3535 78.08 35.7655 78.08C35.0935 78.08 34.5295 78.332 34.0735 78.836C33.6295 79.328 33.4075 80.054 33.4075 81.014C33.4075 81.974 33.6295 82.706 34.0735 83.21C34.5295 83.702 35.0935 83.948 35.7655 83.948C36.3535 83.948 36.8395 83.798 37.2235 83.498C37.6075 83.186 37.8535 82.766 37.9615 82.238H40.6435C40.4275 83.438 39.8875 84.386 39.0235 85.082C38.1715 85.778 37.1035 86.126 35.8195 86.126C34.8475 86.126 33.9835 85.922 33.2275 85.514C32.4715 85.094 31.8835 84.5 31.4635 83.732C31.0435 82.964 30.8335 82.058 30.8335 81.014C30.8335 79.97 31.0435 79.064 31.4635 78.296C31.8835 77.516 32.4715 76.922 33.2275 76.514C33.9835 76.106 34.8475 75.902 35.8195 75.902ZM46.9289 75.902C48.2129 75.902 49.2809 76.25 50.1329 76.946C50.9969 77.642 51.5369 78.59 51.7529 79.79H49.0709C48.9629 79.262 48.7169 78.848 48.3329 78.548C47.9489 78.236 47.4629 78.08 46.8749 78.08C46.2029 78.08 45.6389 78.332 45.1829 78.836C44.7389 79.328 44.5169 80.054 44.5169 81.014C44.5169 81.974 44.7389 82.706 45.1829 83.21C45.6389 83.702 46.2029 83.948 46.8749 83.948C47.4629 83.948 47.9489 83.798 48.3329 83.498C48.7169 83.186 48.9629 82.766 49.0709 82.238H51.7529C51.5369 83.438 50.9969 84.386 50.1329 85.082C49.2809 85.778 48.2129 86.126 46.9289 86.126C45.9569 86.126 45.0929 85.922 44.3369 85.514C43.5809 85.094 42.9929 84.5 42.5729 83.732C42.1529 82.964 41.9429 82.058 41.9429 81.014C41.9429 79.97 42.1529 79.064 42.5729 78.296C42.9929 77.516 43.5809 76.922 44.3369 76.514C45.0929 76.106 45.9569 75.902 46.9289 75.902ZM63.0963 76.028V86H60.5583V83.984C60.2943 84.656 59.8563 85.184 59.2443 85.568C58.6443 85.94 57.9483 86.126 57.1563 86.126C56.0043 86.126 55.0863 85.748 54.4023 84.992C53.7183 84.236 53.3763 83.18 53.3763 81.824V76.028H55.8963V81.536C55.8963 82.328 56.1003 82.946 56.5083 83.39C56.9163 83.822 57.4683 84.038 58.1643 84.038C58.8963 84.038 59.4783 83.804 59.9103 83.336C60.3423 82.868 60.5583 82.196 60.5583 81.32V76.028H63.0963ZM71.362 75.902C72.202 75.902 72.958 76.106 73.63 76.514C74.302 76.922 74.824 77.516 75.196 78.296C75.58 79.064 75.772 79.97 75.772 81.014C75.772 82.058 75.58 82.97 75.196 83.75C74.824 84.518 74.302 85.106 73.63 85.514C72.958 85.922 72.202 86.126 71.362 86.126C70.522 86.126 69.802 85.928 69.202 85.532C68.614 85.124 68.194 84.584 67.942 83.912V90.752H65.404V76.028H67.942V78.098C68.194 77.426 68.614 76.892 69.202 76.496C69.802 76.1 70.522 75.902 71.362 75.902ZM70.57 78.116C69.802 78.116 69.166 78.38 68.662 78.908C68.17 79.424 67.924 80.126 67.924 81.014C67.924 81.89 68.17 82.592 68.662 83.12C69.166 83.636 69.802 83.894 70.57 83.894C71.362 83.894 71.998 83.642 72.478 83.138C72.958 82.622 73.198 81.914 73.198 81.014C73.198 80.114 72.958 79.406 72.478 78.89C71.998 78.374 71.362 78.116 70.57 78.116ZM81.474 75.902C82.314 75.902 83.034 76.1 83.634 76.496C84.234 76.892 84.66 77.426 84.912 78.098V76.028H87.432V86H84.912V83.912C84.66 84.584 84.234 85.124 83.634 85.532C83.034 85.928 82.314 86.126 81.474 86.126C80.634 86.126 79.878 85.922 79.206 85.514C78.534 85.106 78.006 84.518 77.622 83.75C77.25 82.97 77.064 82.058 77.064 81.014C77.064 79.97 77.25 79.064 77.622 78.296C78.006 77.516 78.534 76.922 79.206 76.514C79.878 76.106 80.634 75.902 81.474 75.902ZM82.266 78.116C81.474 78.116 80.838 78.374 80.358 78.89C79.878 79.406 79.638 80.114 79.638 81.014C79.638 81.914 79.878 82.622 80.358 83.138C80.838 83.642 81.474 83.894 82.266 83.894C83.034 83.894 83.664 83.636 84.156 83.12C84.66 82.592 84.912 81.89 84.912 81.014C84.912 80.126 84.66 79.424 84.156 78.908C83.664 78.38 83.034 78.116 82.266 78.116ZM95.0601 83.822V86H93.7281C92.6121 86 91.7541 85.73 91.1541 85.19C90.5661 84.65 90.2721 83.75 90.2721 82.49V78.17H88.8861V76.028H90.2721V73.562H92.8101V76.028H95.0421V78.17H92.8101V82.526C92.8101 83.006 92.9061 83.342 93.0981 83.534C93.2901 83.726 93.6141 83.822 94.0701 83.822H95.0601ZM96.5984 73.166C96.5984 72.758 96.7424 72.428 97.0304 72.176C97.3184 71.912 97.6964 71.78 98.1644 71.78C98.6324 71.78 99.0104 71.912 99.2984 72.176C99.5864 72.428 99.7304 72.758 99.7304 73.166C99.7304 73.562 99.5864 73.892 99.2984 74.156C99.0104 74.408 98.6324 74.534 98.1644 74.534C97.6964 74.534 97.3184 74.408 97.0304 74.156C96.7424 73.892 96.5984 73.562 96.5984 73.166ZM99.4244 76.028V86H96.8864V76.028H99.4244ZM106.328 75.902C107.3 75.902 108.17 76.106 108.938 76.514C109.718 76.922 110.33 77.516 110.774 78.296C111.218 79.064 111.44 79.97 111.44 81.014C111.44 82.058 111.218 82.964 110.774 83.732C110.33 84.5 109.718 85.094 108.938 85.514C108.17 85.922 107.3 86.126 106.328 86.126C105.356 86.126 104.48 85.922 103.7 85.514C102.932 85.094 102.326 84.5 101.882 83.732C101.438 82.964 101.216 82.058 101.216 81.014C101.216 79.97 101.438 79.064 101.882 78.296C102.326 77.516 102.932 76.922 103.7 76.514C104.48 76.106 105.356 75.902 106.328 75.902ZM106.328 78.098C105.62 78.098 105.02 78.35 104.528 78.854C104.036 79.346 103.79 80.066 103.79 81.014C103.79 81.962 104.036 82.688 104.528 83.192C105.02 83.684 105.62 83.93 106.328 83.93C107.036 83.93 107.636 83.684 108.128 83.192C108.62 82.688 108.866 81.962 108.866 81.014C108.866 80.066 108.62 79.346 108.128 78.854C107.636 78.35 107.036 78.098 106.328 78.098ZM119.174 75.884C120.326 75.884 121.244 76.262 121.928 77.018C122.612 77.774 122.954 78.836 122.954 80.204V86H120.434V80.492C120.434 79.7 120.23 79.088 119.822 78.656C119.414 78.212 118.856 77.99 118.148 77.99C117.428 77.99 116.852 78.224 116.42 78.692C115.988 79.16 115.772 79.832 115.772 80.708V86H113.234V76.028H115.772V78.026C116.036 77.354 116.468 76.832 117.068 76.46C117.68 76.076 118.382 75.884 119.174 75.884Z" fill="#27364D"/>
<path d="M176.844 372.133L344.595 428.404L505.623 359.834L341.233 302.501L176.844 372.133Z" stroke="#2BC47C" stroke-width="3" stroke-miterlimit="10" stroke-linecap="round"/>
<path d="M337.164 23.3579L236.301 63.9687V371.425L341.853 406.284L440.682 365.408V57.8638L337.164 23.3579Z" fill="url(#paint0_linear)"/>
<path d="M339.818 383.723V405.311L236.301 371.425V350.987L339.818 383.723Z" fill="#F6FBFF"/>
<path d="M440.68 365.408V345.855L345.656 383.811V404.25L440.68 365.408Z" fill="#D8E5F1"/>
<path d="M339.818 355.765V377.353L236.301 343.466V323.028L339.818 355.765Z" fill="#F6FBFF"/>
<path d="M440.68 337.45V317.896L345.656 355.853V376.291L440.68 337.45Z" fill="#D8E5F1"/>
<path d="M339.818 327.54V349.129L236.301 315.331V294.893L339.818 327.54Z" fill="#F6FBFF"/>
<path d="M440.68 309.314V289.761L345.656 327.717V348.155L440.68 309.314Z" fill="#D8E5F1"/>
<path d="M339.818 299.582V321.17L236.301 287.372V266.845L339.818 299.582Z" fill="#F6FBFF"/>
<path d="M440.68 281.356V261.802L345.656 299.67V320.197L440.68 281.356Z" fill="#D8E5F1"/>
<path d="M339.818 271.446V293.034L236.301 259.148V238.709L339.818 271.446Z" fill="#F6FBFF"/>
<path d="M440.68 253.131V233.667L345.656 271.534V291.973L440.68 253.131Z" fill="#D8E5F1"/>
<path d="M339.818 243.487V265.076L236.301 231.189V210.751L339.818 243.487Z" fill="#F6FBFF"/>
<path d="M440.68 225.173V205.708L345.656 243.576V264.014L440.68 225.173Z" fill="#D8E5F1"/>
<path d="M339.818 215.352V236.94L236.301 203.054V182.616L339.818 215.352Z" fill="#F6FBFF"/>
<path d="M440.68 197.037V177.484L345.656 215.44V235.878L440.68 197.037Z" fill="#D8E5F1"/>
<path d="M339.818 187.394V208.982L236.301 175.095V154.657L339.818 187.394Z" fill="#F6FBFF"/>
<path d="M440.68 169.079V149.525L345.656 187.482V207.92L440.68 169.079Z" fill="#D8E5F1"/>
<path d="M339.818 159.17V180.758L236.301 146.96V126.522L339.818 159.17Z" fill="#F6FBFF"/>
<path d="M440.68 140.943V121.39L345.656 159.347V179.785L440.68 140.943Z" fill="#D8E5F1"/>
<path d="M339.818 131.034V152.622L236.301 118.735V98.2974L339.818 131.034Z" fill="#F6FBFF"/>
<path d="M440.68 112.719V93.2544L345.656 131.122V151.56L440.68 112.719Z" fill="#D8E5F1"/>
<path d="M339.818 103.075V124.663L236.301 90.777V70.3389L339.818 103.075Z" fill="#F6FBFF"/>
<path d="M440.68 84.7607V65.2959L345.656 103.164V123.602L440.68 84.7607Z" fill="#D8E5F1"/>
<path d="M236.301 63.9687L341.853 96.3511L440.682 57.8638L338.226 23.3579L236.301 63.9687Z" fill="#E9F1F8"/>
<path d="M293.281 52.6436L340.439 67.0652L384.501 49.9008L338.758 34.5059L293.281 52.6436Z" fill="#E9F1F8"/>
<path d="M384.676 58.6602V50.2549L340.438 67.5963V76.8863L384.676 58.6602Z" fill="#D8E5F1"/>
<path d="M339.818 67.4191V76.7092L292.66 60.6949V53.0859L339.818 67.4191Z" fill="#F6FBFF"/>
<circle opacity="0.1" cx="440" cy="205" r="24" fill="#2BC47C"/>
<circle cx="440" cy="205" r="12" fill="#2BC47C"/>
<circle opacity="0.1" cx="274" cy="171" r="24" fill="#2BC47C"/>
<circle cx="274" cy="171" r="12" fill="#2BC47C"/>
<circle opacity="0.1" cx="274" cy="45" r="24" fill="#2BC47C"/>
<circle cx="274" cy="45" r="12" fill="#2BC47C"/>
<circle opacity="0.1" cx="240" cy="300" r="24" fill="#2BC47C"/>
<circle cx="240" cy="300" r="12" fill="#2BC47C"/>
<circle opacity="0.1" cx="409" cy="117" r="24" fill="#2BC47C"/>
<circle cx="409" cy="117" r="12" fill="#2BC47C"/>
<line x1="440" y1="205" x2="494" y2="205" stroke="#2BC47C" stroke-width="2" stroke-dasharray="2 4"/>
<line x1="191" y1="171" x2="282" y2="171" stroke="#2BC47C" stroke-width="2" stroke-dasharray="2 4"/>
<line x1="112" y1="44" x2="282" y2="44" stroke="#2BC47C" stroke-width="2" stroke-dasharray="2 4"/>
<line x1="89" y1="301" x2="242" y2="301" stroke="#2BC47C" stroke-width="2" stroke-dasharray="2 4"/>
<path d="M525.556 220C525.419 220 525.281 219.97 525.153 219.906C524.79 219.726 524.599 219.327 524.69 218.938L527.105 208.733H522.889C522.541 208.733 522.225 208.535 522.081 208.227C521.936 207.919 521.989 207.556 522.217 207.3L533.772 194.3C534.04 193.998 534.483 193.914 534.847 194.094C535.211 194.274 535.402 194.674 535.31 195.062L532.895 205.266H537.111C537.459 205.266 537.775 205.465 537.919 205.773C538.064 206.081 538.011 206.444 537.783 206.7L526.228 219.7C526.055 219.896 525.808 220 525.556 220ZM524.836 207H528.222C528.493 207 528.749 207.12 528.917 207.327C529.086 207.533 529.148 207.803 529.088 208.061L527.226 215.931L535.164 207H531.778C531.507 207 531.251 206.879 531.082 206.673C530.914 206.467 530.851 206.196 530.911 205.938L532.774 198.069L524.836 207Z" fill="url(#paint1_linear)" stroke="url(#paint2_linear)"/>
<circle cx="529.5" cy="206.5" r="20.5" stroke="url(#paint3_linear)" stroke-width="4"/>
<path d="M56.9697 294.031C55.0745 292.136 52.3989 290.909 49.5004 290.909C46.6019 290.909 43.9263 292.08 42.0311 294.031C40.1359 295.926 38.9096 298.601 38.9096 301.5C38.9096 304.399 40.1359 307.074 42.0311 308.969C43.9263 310.864 46.6019 312.091 49.5004 312.091C52.3989 312.091 55.0745 310.92 56.9697 308.969C58.8649 307.074 60.0912 304.399 60.0912 301.5C60.0912 298.601 58.9206 295.926 56.9697 294.031ZM54.963 306.963C53.5695 308.356 51.6186 309.192 49.5004 309.192C47.3823 309.192 45.4313 308.356 44.0378 306.963C42.6443 305.569 41.8082 303.618 41.8082 301.5C41.8082 299.382 42.6443 297.431 44.0378 296.037C45.4313 294.644 47.3823 293.808 49.5004 293.808C51.6186 293.808 53.5695 294.644 54.963 296.037C56.3566 297.431 57.1927 299.382 57.1927 301.5C57.1927 303.618 56.3566 305.569 54.963 306.963Z" fill="url(#paint4_linear)"/>
<path fill-rule="evenodd" clip-rule="evenodd" d="M41.7248 293.729C43.7008 291.696 46.4866 290.479 49.5004 290.479C52.5193 290.479 55.3013 291.755 57.2716 293.724C59.3044 295.7 60.5212 298.486 60.5212 301.5C60.5212 304.519 59.2451 307.301 57.2759 309.271C55.3 311.304 52.5142 312.521 49.5004 312.521C46.4804 312.521 43.6975 311.244 41.7271 309.273C39.7567 307.303 38.4796 304.52 38.4796 301.5C38.4796 298.481 39.7557 295.699 41.7248 293.729ZM49.5004 291.339C46.7183 291.339 44.1539 292.463 42.3395 294.33L42.3352 294.335C40.5152 296.155 39.3396 298.723 39.3396 301.5C39.3396 304.277 40.5152 306.845 42.3352 308.665C44.1552 310.485 46.7234 311.661 49.5004 311.661C52.2826 311.661 54.8469 310.537 56.6613 308.67L56.6656 308.665C58.4856 306.845 59.6612 304.277 59.6612 301.5C59.6612 298.718 58.5378 296.153 56.6701 294.339L56.6656 294.335C54.8456 292.515 52.2774 291.339 49.5004 291.339ZM49.5004 294.238C47.4959 294.238 45.6545 295.029 44.3419 296.341C43.0292 297.654 42.2382 299.496 42.2382 301.5C42.2382 303.504 43.0292 305.346 44.3419 306.659C45.6545 307.971 47.4959 308.762 49.5004 308.762C51.5049 308.762 53.3463 307.971 54.659 306.659C55.9716 305.346 56.7627 303.504 56.7627 301.5C56.7627 299.496 55.9716 297.654 54.659 296.341C53.3463 295.029 51.5049 294.238 49.5004 294.238ZM43.7337 295.733C45.2082 294.259 47.2686 293.378 49.5004 293.378C51.7323 293.378 53.7927 294.259 55.2671 295.733C56.7415 297.208 57.6227 299.268 57.6227 301.5C57.6227 303.732 56.7415 305.792 55.2671 307.267C53.7927 308.741 51.7323 309.622 49.5004 309.622C47.2686 309.622 45.2082 308.741 43.7337 307.267C42.2593 305.792 41.3782 303.732 41.3782 301.5C41.3782 299.268 42.2593 297.208 43.7337 295.733Z" fill="url(#paint5_linear)"/>
<path fill-rule="evenodd" clip-rule="evenodd" d="M56.366 294.643L56.3616 294.639C54.6168 292.894 52.1559 291.769 49.5004 291.769C46.8347 291.769 44.3815 292.845 42.648 294.63L42.6436 294.634L42.6392 294.639C40.8945 296.384 39.7696 298.844 39.7696 301.5C39.7696 304.156 40.8945 306.616 42.6392 308.361C44.384 310.106 46.8449 311.231 49.5004 311.231C52.1662 311.231 54.6193 310.155 56.3528 308.37L56.3572 308.366L56.3616 308.361C58.1064 306.616 59.2312 304.156 59.2312 301.5C59.2312 298.834 58.155 296.381 56.3705 294.648L56.366 294.643ZM56.9697 294.031C58.9206 295.926 60.0912 298.601 60.0912 301.5C60.0912 304.399 58.8649 307.074 56.9697 308.969C55.0745 310.92 52.3989 312.091 49.5004 312.091C46.6019 312.091 43.9263 310.864 42.0311 308.969C40.1359 307.074 38.9096 304.399 38.9096 301.5C38.9096 298.601 40.1359 295.926 42.0311 294.031C43.9263 292.08 46.6019 290.909 49.5004 290.909C52.3989 290.909 55.0745 292.136 56.9697 294.031ZM55.5711 307.571C54.0158 309.126 51.8459 310.052 49.5004 310.052C47.1549 310.052 44.985 309.126 43.4297 307.571C41.8744 306.015 40.9481 303.846 40.9481 301.5C40.9481 299.154 41.8744 296.985 43.4297 295.429C44.985 293.874 47.1549 292.948 49.5004 292.948C51.8459 292.948 54.0158 293.874 55.5711 295.429C57.1265 296.985 58.0527 299.154 58.0527 301.5C58.0527 303.846 57.1265 306.015 55.5711 307.571ZM49.5004 309.192C51.6186 309.192 53.5695 308.356 54.963 306.963C56.3566 305.569 57.1927 303.618 57.1927 301.5C57.1927 299.382 56.3566 297.431 54.963 296.037C53.5695 294.644 51.6186 293.808 49.5004 293.808C47.3823 293.808 45.4313 294.644 44.0378 296.037C42.6443 297.431 41.8082 299.382 41.8082 301.5C41.8082 303.618 42.6443 305.569 44.0378 306.963C45.4313 308.356 47.3823 309.192 49.5004 309.192Z" fill="url(#paint6_linear)"/>
<path fill-rule="evenodd" clip-rule="evenodd" d="M41.7248 293.729C43.7008 291.696 46.4866 290.479 49.5004 290.479C52.5193 290.479 55.3013 291.755 57.2716 293.724C59.3044 295.7 60.5212 298.486 60.5212 301.5C60.5212 304.519 59.2451 307.301 57.2759 309.271C55.3 311.304 52.5142 312.521 49.5004 312.521C46.4804 312.521 43.6975 311.244 41.7271 309.273C39.7567 307.303 38.4796 304.52 38.4796 301.5C38.4796 298.481 39.7557 295.699 41.7248 293.729ZM49.5004 292.199C46.951 292.199 44.6091 293.228 42.9564 294.93L42.9477 294.938L42.9433 294.943C41.2738 296.612 40.1996 298.966 40.1996 301.5C40.1996 304.034 41.2738 306.388 42.9433 308.057C44.6128 309.727 46.9663 310.801 49.5004 310.801C52.0498 310.801 54.3917 309.772 56.0444 308.07L56.053 308.062L56.0575 308.057C57.727 306.388 58.8012 304.034 58.8012 301.5C58.8012 298.951 57.7721 296.609 56.0709 294.956L56.0619 294.947L56.0576 294.943C54.388 293.273 52.0345 292.199 49.5004 292.199ZM56.6656 294.335L56.6701 294.339L56.366 294.643L56.6656 294.335ZM43.1256 295.125C44.7618 293.489 47.0412 292.518 49.5004 292.518C51.9596 292.518 54.239 293.489 55.8752 295.125C57.5114 296.761 58.4827 299.041 58.4827 301.5C58.4827 303.959 57.5114 306.239 55.8752 307.875C54.239 309.511 51.9596 310.482 49.5004 310.482C47.0412 310.482 44.7618 309.511 43.1256 307.875C41.4894 306.239 40.5181 303.959 40.5181 301.5C40.5181 299.041 41.4894 296.761 43.1256 295.125ZM49.5004 294.238C47.4959 294.238 45.6545 295.029 44.3419 296.341C43.0292 297.654 42.2382 299.496 42.2382 301.5C42.2382 303.504 43.0292 305.346 44.3419 306.659C45.6545 307.971 47.4959 308.762 49.5004 308.762C51.5049 308.762 53.3463 307.971 54.659 306.659C55.9716 305.346 56.7627 303.504 56.7627 301.5C56.7627 299.496 55.9716 297.654 54.659 296.341C53.3463 295.029 51.5049 294.238 49.5004 294.238Z" fill="url(#paint7_linear)"/>
<path d="M69.1207 300.051H64.8287C64.0483 300.051 63.3794 300.72 63.3794 301.5C63.3794 302.281 64.0483 302.949 64.8287 302.949H69.1207C69.9011 302.949 70.57 302.281 70.57 301.5C70.57 300.72 69.9011 300.051 69.1207 300.051Z" fill="url(#paint8_linear)"/>
<path fill-rule="evenodd" clip-rule="evenodd" d="M62.9494 301.5C62.9494 300.482 63.8108 299.621 64.8287 299.621H69.1207C70.1386 299.621 71 300.482 71 301.5C71 302.518 70.1386 303.379 69.1207 303.379H64.8287C63.8108 303.379 62.9494 302.518 62.9494 301.5ZM64.8287 300.481C64.2858 300.481 63.8094 300.957 63.8094 301.5C63.8094 302.043 64.2858 302.519 64.8287 302.519H69.1207C69.6636 302.519 70.14 302.043 70.14 301.5C70.14 300.957 69.6636 300.481 69.1207 300.481H64.8287Z" fill="url(#paint9_linear)"/>
<path fill-rule="evenodd" clip-rule="evenodd" d="M69.1207 300.911H64.8287C64.5233 300.911 64.2394 301.195 64.2394 301.5C64.2394 301.806 64.5233 302.089 64.8287 302.089H69.1207C69.4261 302.089 69.71 301.806 69.71 301.5C69.71 301.195 69.4261 300.911 69.1207 300.911ZM64.8287 300.051H69.1207C69.9011 300.051 70.57 300.72 70.57 301.5C70.57 302.281 69.9011 302.949 69.1207 302.949H64.8287C64.0483 302.949 63.3794 302.281 63.3794 301.5C63.3794 300.72 64.0483 300.051 64.8287 300.051Z" fill="url(#paint10_linear)"/>
<path fill-rule="evenodd" clip-rule="evenodd" d="M62.9494 301.5C62.9494 300.482 63.8108 299.621 64.8287 299.621H69.1207C70.1386 299.621 71 300.482 71 301.5C71 302.518 70.1386 303.379 69.1207 303.379H64.8287C63.8108 303.379 62.9494 302.518 62.9494 301.5ZM63.8742 301.156C63.9291 301.013 64.0149 300.888 64.1155 300.787C64.216 300.686 64.3418 300.601 64.4844 300.546C64.2079 300.652 63.9805 300.879 63.8742 301.156ZM63.8742 301.844C64.0222 302.23 64.4052 302.519 64.8287 302.519C64.5434 302.519 64.2911 302.389 64.1155 302.213C64.0149 302.113 63.9291 301.987 63.8742 301.844ZM70.0752 301.156C69.9272 300.771 69.5442 300.481 69.1207 300.481C69.4061 300.481 69.6583 300.611 69.834 300.787C69.9345 300.888 70.0203 301.013 70.0752 301.156ZM70.0752 301.844C70.0203 301.987 69.9345 302.113 69.834 302.213C69.7334 302.314 69.6076 302.4 69.465 302.455C69.7415 302.348 69.9689 302.121 70.0752 301.844ZM64.7236 301.395C64.6809 301.438 64.6694 301.48 64.6694 301.5C64.6694 301.52 64.6809 301.563 64.7236 301.605C64.7663 301.648 64.8086 301.659 64.8287 301.659H69.1207C69.1408 301.659 69.1832 301.648 69.2258 301.605C69.2685 301.563 69.28 301.52 69.28 301.5C69.28 301.48 69.2685 301.438 69.2258 301.395C69.1832 301.352 69.1408 301.341 69.1207 301.341H64.8287C64.8086 301.341 64.7663 301.352 64.7236 301.395Z" fill="url(#paint11_linear)"/>
<path d="M49.4998 315.38C48.7194 315.38 48.0505 316.049 48.0505 316.829V321.121C48.0505 321.902 48.7194 322.57 49.4998 322.57C50.2802 322.57 50.9491 321.902 50.9491 321.121V316.829C50.9491 316.049 50.2802 315.38 49.4998 315.38Z" fill="url(#paint12_linear)"/>
<path fill-rule="evenodd" clip-rule="evenodd" d="M47.6205 316.829C47.6205 315.811 48.4819 314.95 49.4998 314.95C50.5176 314.95 51.3791 315.811 51.3791 316.829V321.121C51.3791 322.139 50.5176 323 49.4998 323C48.4819 323 47.6205 322.139 47.6205 321.121V316.829ZM49.4998 315.81C48.9569 315.81 48.4805 316.286 48.4805 316.829V321.121C48.4805 321.664 48.9569 322.14 49.4998 322.14C50.0427 322.14 50.5191 321.664 50.5191 321.121V316.829C50.5191 316.286 50.0427 315.81 49.4998 315.81Z" fill="url(#paint13_linear)"/>
<path fill-rule="evenodd" clip-rule="evenodd" d="M49.4998 316.24C49.1944 316.24 48.9105 316.524 48.9105 316.829V321.121C48.9105 321.427 49.1944 321.71 49.4998 321.71C49.8052 321.71 50.089 321.427 50.089 321.121V316.829C50.089 316.524 49.8052 316.24 49.4998 316.24ZM48.0505 316.829C48.0505 316.049 48.7194 315.38 49.4998 315.38C50.2802 315.38 50.9491 316.049 50.9491 316.829V321.121C50.9491 321.902 50.2802 322.57 49.4998 322.57C48.7194 322.57 48.0505 321.902 48.0505 321.121V316.829Z" fill="url(#paint14_linear)"/>
<path fill-rule="evenodd" clip-rule="evenodd" d="M47.6205 316.829C47.6205 315.811 48.4819 314.95 49.4998 314.95C50.5176 314.95 51.3791 315.811 51.3791 316.829V321.121C51.3791 322.139 50.5176 323 49.4998 323C48.4819 323 47.6205 322.139 47.6205 321.121V316.829ZM48.5453 316.485C48.6002 316.342 48.686 316.216 48.7866 316.116C48.8871 316.015 49.0129 315.93 49.1555 315.875C49.0173 315.928 48.8913 316.011 48.7866 316.116C48.6819 316.221 48.5984 316.347 48.5453 316.485ZM49.4998 315.81C49.7851 315.81 50.0374 315.94 50.213 316.116C50.3136 316.216 50.3993 316.342 50.4543 316.485C50.3063 316.1 49.9233 315.81 49.4998 315.81ZM49.3947 316.724C49.352 316.767 49.3405 316.809 49.3405 316.829V321.121C49.3405 321.141 49.352 321.184 49.3947 321.226C49.4374 321.269 49.4797 321.28 49.4998 321.28C49.5199 321.28 49.5622 321.269 49.6049 321.226C49.6476 321.184 49.659 321.141 49.659 321.121V316.829C49.659 316.809 49.6476 316.767 49.6049 316.724C49.5622 316.681 49.5199 316.67 49.4998 316.67C49.4797 316.67 49.4374 316.681 49.3947 316.724ZM48.5453 321.465C48.6933 321.851 49.0763 322.14 49.4998 322.14C49.2145 322.14 48.9622 322.01 48.7866 321.834C48.686 321.734 48.6002 321.608 48.5453 321.465ZM49.844 322.076C49.9832 322.022 50.1099 321.938 50.2151 321.832C50.2144 321.833 50.2137 321.834 50.213 321.834C50.1124 321.935 49.9867 322.021 49.844 322.076ZM50.5191 321.121C50.5191 321.392 50.4008 321.646 50.2151 321.832C50.3896 321.657 50.5191 321.405 50.5191 321.121Z" fill="url(#paint15_linear)"/>
<path d="M64.3834 314.376L61.3177 311.311C60.816 310.753 59.8684 310.753 59.311 311.311C58.7536 311.868 58.7536 312.76 59.311 313.317L62.3768 316.383C62.9342 316.94 63.826 316.94 64.3834 316.383C64.9409 315.826 64.9409 314.934 64.3834 314.376Z" fill="url(#paint16_linear)"/>
<path fill-rule="evenodd" clip-rule="evenodd" d="M61.6291 311.014C60.9465 310.267 59.72 310.293 59.007 311.007C58.2816 311.732 58.2816 312.896 59.007 313.621L62.0727 316.687C62.798 317.412 63.9622 317.412 64.6875 316.687C65.4128 315.962 65.4128 314.798 64.6875 314.072L61.6291 311.014ZM60.9981 311.598C60.6757 311.24 60.014 311.216 59.6151 311.615C59.2256 312.004 59.2256 312.624 59.6151 313.013L62.6808 316.079C63.0703 316.468 63.6899 316.468 64.0794 316.079C64.4689 315.689 64.4689 315.07 64.0794 314.68L61.0056 311.607L60.9981 311.598Z" fill="url(#paint17_linear)"/>
<path fill-rule="evenodd" clip-rule="evenodd" d="M60.6936 311.903L60.6785 311.886C60.5353 311.727 60.1595 311.678 59.9191 311.919C59.6976 312.14 59.6976 312.488 59.9191 312.709L62.9849 315.775C63.2064 315.996 63.5538 315.996 63.7753 315.775C63.9969 315.553 63.9969 315.206 63.7753 314.984L60.6936 311.903ZM61.3177 311.311L64.3834 314.376C64.9409 314.934 64.9409 315.826 64.3834 316.383C63.826 316.94 62.9342 316.94 62.3768 316.383L59.311 313.317C58.7536 312.76 58.7536 311.868 59.311 311.311C59.8684 310.753 60.816 310.753 61.3177 311.311Z" fill="url(#paint18_linear)"/>
<path fill-rule="evenodd" clip-rule="evenodd" d="M61.6291 311.014C60.9465 310.267 59.72 310.293 59.007 311.007C58.2816 311.732 58.2816 312.896 59.007 313.621L62.0727 316.687C62.798 317.412 63.9622 317.412 64.6875 316.687C65.4128 315.962 65.4128 314.798 64.6875 314.072L61.6291 311.014ZM60.3293 312.183C60.2865 312.182 60.25 312.196 60.2232 312.223C60.1938 312.252 60.183 312.285 60.183 312.314C60.183 312.343 60.1938 312.376 60.2232 312.405L63.2889 315.471C63.3183 315.5 63.3509 315.511 63.3801 315.511C63.4093 315.511 63.4419 315.5 63.4713 315.471C63.5007 315.441 63.5115 315.409 63.5115 315.38C63.5115 315.35 63.5007 315.318 63.4713 315.289L60.3815 312.199L60.373 312.189C60.3635 312.186 60.3484 312.183 60.3293 312.183Z" fill="url(#paint19_linear)"/>
<path d="M49.4998 280.43C48.7194 280.43 48.0505 281.099 48.0505 281.879V286.171C48.0505 286.952 48.7194 287.621 49.4998 287.621C50.2802 287.621 50.9491 286.952 50.9491 286.171V281.879C50.9491 281.099 50.2802 280.43 49.4998 280.43Z" fill="url(#paint20_linear)"/>
<path fill-rule="evenodd" clip-rule="evenodd" d="M47.6205 281.879C47.6205 280.861 48.4819 280 49.4998 280C50.5176 280 51.3791 280.861 51.3791 281.879V286.171C51.3791 287.189 50.5176 288.051 49.4998 288.051C48.4819 288.051 47.6205 287.189 47.6205 286.171V281.879ZM49.4998 280.86C48.9569 280.86 48.4805 281.336 48.4805 281.879V286.171C48.4805 286.714 48.9569 287.191 49.4998 287.191C50.0427 287.191 50.5191 286.714 50.5191 286.171V281.879C50.5191 281.336 50.0427 280.86 49.4998 280.86Z" fill="url(#paint21_linear)"/>
<path fill-rule="evenodd" clip-rule="evenodd" d="M49.4998 281.29C49.1944 281.29 48.9105 281.574 48.9105 281.879V286.171C48.9105 286.477 49.1944 286.761 49.4998 286.761C49.8052 286.761 50.089 286.477 50.089 286.171V281.879C50.089 281.574 49.8052 281.29 49.4998 281.29ZM48.0505 281.879C48.0505 281.099 48.7194 280.43 49.4998 280.43C50.2802 280.43 50.9491 281.099 50.9491 281.879V286.171C50.9491 286.952 50.2802 287.621 49.4998 287.621C48.7194 287.621 48.0505 286.952 48.0505 286.171V281.879Z" fill="url(#paint22_linear)"/>
<path fill-rule="evenodd" clip-rule="evenodd" d="M47.6205 281.879C47.6205 280.861 48.4819 280 49.4998 280C50.5176 280 51.3791 280.861 51.3791 281.879V286.171C51.3791 287.189 50.5176 288.051 49.4998 288.051C48.4819 288.051 47.6205 287.189 47.6205 286.171V281.879ZM48.5453 281.535C48.6002 281.392 48.686 281.267 48.7866 281.166C48.8871 281.065 49.0129 280.98 49.1555 280.925C49.0173 280.978 48.8913 281.061 48.7866 281.166C48.6819 281.271 48.5984 281.397 48.5453 281.535ZM49.4998 280.86C49.7851 280.86 50.0374 280.99 50.213 281.166C50.3136 281.267 50.3993 281.392 50.4543 281.535C50.3063 281.15 49.9233 280.86 49.4998 280.86ZM49.3947 281.774C49.352 281.817 49.3405 281.859 49.3405 281.879V286.171C49.3405 286.191 49.352 286.234 49.3947 286.276C49.4374 286.319 49.4797 286.331 49.4998 286.331C49.5199 286.331 49.5622 286.319 49.6049 286.276C49.6476 286.234 49.659 286.191 49.659 286.171V281.879C49.659 281.859 49.6476 281.817 49.6049 281.774C49.5622 281.731 49.5199 281.72 49.4998 281.72C49.4797 281.72 49.4374 281.731 49.3947 281.774ZM48.5453 286.516C48.6933 286.901 49.0763 287.191 49.4998 287.191C49.2145 287.191 48.9622 287.06 48.7866 286.885C48.686 286.784 48.6002 286.658 48.5453 286.516ZM49.844 287.126C50.1206 287.02 50.348 286.792 50.4543 286.516C50.3993 286.658 50.3136 286.784 50.213 286.885C50.1124 286.985 49.9867 287.071 49.844 287.126Z" fill="url(#paint23_linear)"/>
<path d="M64.4389 286.617C63.8815 286.06 62.9896 286.06 62.4322 286.617L59.3664 289.683C58.809 290.241 58.809 291.132 59.3664 291.69C59.8681 292.247 60.8157 292.247 61.3731 291.69L64.4389 288.624C64.9963 288.067 64.9963 287.175 64.4389 286.617Z" fill="url(#paint24_linear)"/>
<path fill-rule="evenodd" clip-rule="evenodd" d="M62.1281 286.313C62.8535 285.588 64.0176 285.588 64.7429 286.313C65.4683 287.039 65.4683 288.203 64.7429 288.928L61.6772 291.994C60.9639 292.707 59.737 292.734 59.0545 291.986C58.3371 291.26 58.3397 290.102 59.0624 289.379L62.1281 286.313ZM64.1348 286.921C63.7453 286.532 63.1257 286.532 62.7363 286.921L59.6705 289.987C59.281 290.377 59.281 290.996 59.6705 291.386L59.6785 291.394L59.6861 291.402C60.0085 291.76 60.6702 291.785 61.0691 291.386L64.1348 288.32C64.5243 287.931 64.5243 287.311 64.1348 286.921Z" fill="url(#paint25_linear)"/>
<path fill-rule="evenodd" clip-rule="evenodd" d="M59.9905 291.098L60.0057 291.115C60.1488 291.274 60.5246 291.322 60.765 291.082L63.8308 288.016C64.0523 287.794 64.0523 287.447 63.8308 287.226C63.6092 287.004 63.2619 287.004 63.0403 287.226L59.9746 290.291C59.753 290.513 59.753 290.86 59.9746 291.082L59.9905 291.098ZM62.4322 286.617C62.9896 286.06 63.8815 286.06 64.4389 286.617C64.9963 287.175 64.9963 288.067 64.4389 288.624L61.3731 291.69C60.8157 292.247 59.8681 292.247 59.3664 291.69C58.809 291.132 58.809 290.241 59.3664 289.683L62.4322 286.617Z" fill="url(#paint26_linear)"/>
<path fill-rule="evenodd" clip-rule="evenodd" d="M62.1281 286.313C62.8535 285.588 64.0176 285.588 64.7429 286.313C65.4683 287.039 65.4683 288.203 64.7429 288.928L61.6772 291.994C60.9639 292.707 59.737 292.734 59.0545 291.986C58.3371 291.26 58.3397 290.102 59.0624 289.379L62.1281 286.313ZM63.4355 287.489C63.4063 287.489 63.3738 287.5 63.3444 287.53L60.2786 290.595C60.2492 290.625 60.2384 290.657 60.2384 290.686C60.2384 290.716 60.2492 290.748 60.2786 290.778L60.3026 290.802L60.3111 290.811C60.3206 290.814 60.3358 290.818 60.3548 290.818C60.3977 290.819 60.4342 290.804 60.4609 290.778L63.5267 287.712C63.5561 287.682 63.5669 287.65 63.5669 287.621C63.5669 287.592 63.5561 287.559 63.5267 287.53C63.4973 287.5 63.4648 287.489 63.4355 287.489ZM60.3429 291.678C60.1161 291.675 59.8585 291.594 59.6861 291.402C59.8461 291.58 60.0894 291.675 60.3429 291.678C60.3428 291.678 60.343 291.678 60.3429 291.678ZM60.3429 291.678C60.5838 291.681 60.8556 291.599 61.0691 291.386C60.8681 291.587 60.6003 291.68 60.3429 291.678Z" fill="url(#paint27_linear)"/>
<path d="M34.1713 300.051H29.8793C29.0989 300.051 28.43 300.72 28.43 301.5C28.43 302.281 29.0432 302.949 29.8793 302.949H34.1713C34.9517 302.949 35.6206 302.281 35.6206 301.5C35.6206 300.72 34.9517 300.051 34.1713 300.051Z" fill="url(#paint28_linear)"/>
<path fill-rule="evenodd" clip-rule="evenodd" d="M28 301.5C28 300.482 28.8614 299.621 29.8793 299.621H34.1713C35.1892 299.621 36.0506 300.482 36.0506 301.5C36.0506 302.518 35.1892 303.379 34.1713 303.379H29.8793C28.7949 303.379 28 302.507 28 301.5ZM29.8793 300.481C29.3364 300.481 28.86 300.957 28.86 301.5C28.86 302.054 29.2914 302.519 29.8793 302.519H34.1713C34.7142 302.519 35.1906 302.043 35.1906 301.5C35.1906 300.957 34.7142 300.481 34.1713 300.481H29.8793Z" fill="url(#paint29_linear)"/>
<path fill-rule="evenodd" clip-rule="evenodd" d="M34.1713 300.911H29.8793C29.5739 300.911 29.29 301.195 29.29 301.5C29.29 301.827 29.5396 302.089 29.8793 302.089H34.1713C34.4767 302.089 34.7606 301.806 34.7606 301.5C34.7606 301.195 34.4767 300.911 34.1713 300.911ZM29.8793 300.051H34.1713C34.9517 300.051 35.6206 300.72 35.6206 301.5C35.6206 302.281 34.9517 302.949 34.1713 302.949H29.8793C29.0432 302.949 28.43 302.281 28.43 301.5C28.43 300.72 29.0989 300.051 29.8793 300.051Z" fill="url(#paint30_linear)"/>
<path fill-rule="evenodd" clip-rule="evenodd" d="M28 301.5C28 300.482 28.8614 299.621 29.8793 299.621H34.1713C35.1892 299.621 36.0506 300.482 36.0506 301.5C36.0506 302.518 35.1892 303.379 34.1713 303.379H29.8793C28.7949 303.379 28 302.507 28 301.5ZM28.9248 301.156C28.9797 301.013 29.0655 300.888 29.1661 300.787C29.3417 300.611 29.5939 300.481 29.8793 300.481C29.6078 300.481 29.353 300.6 29.1661 300.787C29.0613 300.892 28.9779 301.018 28.9248 301.156ZM29.8793 302.519C29.587 302.519 29.3333 302.404 29.1522 302.221C29.334 302.405 29.5884 302.519 29.8793 302.519ZM34.1713 300.481C34.4428 300.481 34.6976 300.6 34.8845 300.787C34.7089 300.611 34.4567 300.481 34.1713 300.481ZM29.7742 301.395C29.7315 301.438 29.72 301.48 29.72 301.5C29.72 301.553 29.7391 301.591 29.7636 301.616C29.7871 301.64 29.8238 301.659 29.8793 301.659H34.1713C34.1914 301.659 34.2338 301.648 34.2764 301.605C34.3191 301.563 34.3306 301.52 34.3306 301.5C34.3306 301.48 34.3191 301.438 34.2764 301.395C34.2338 301.352 34.1914 301.341 34.1713 301.341H29.8793C29.8592 301.341 29.8168 301.352 29.7742 301.395Z" fill="url(#paint31_linear)"/>
<path d="M39.6331 311.311C39.1315 310.753 38.1839 310.753 37.6265 311.311L34.5607 314.376C34.0033 314.934 34.0033 315.826 34.5607 316.383C35.1181 316.94 36.01 316.94 36.5674 316.383L39.6331 313.317C40.1905 312.76 40.1905 311.868 39.6331 311.311Z" fill="url(#paint32_linear)"/>
<path fill-rule="evenodd" clip-rule="evenodd" d="M39.9451 311.014C39.2626 310.267 38.0357 310.293 37.3224 311.007L34.2566 314.072C33.5313 314.798 33.5313 315.962 34.2566 316.687C34.982 317.412 36.1461 317.412 36.8714 316.687L39.9372 313.621C40.6599 312.899 40.6625 311.74 39.9451 311.014ZM39.3135 311.598C38.9911 311.24 38.3294 311.216 37.9305 311.615L34.8648 314.68C34.4753 315.07 34.4753 315.689 34.8648 316.079C35.2542 316.468 35.8738 316.468 36.2633 316.079L39.3291 313.013C39.7186 312.624 39.7186 312.004 39.3291 311.615L39.3211 311.607L39.3135 311.598Z" fill="url(#paint33_linear)"/>
<path fill-rule="evenodd" clip-rule="evenodd" d="M39.009 311.903L38.9939 311.886C38.8508 311.727 38.4749 311.678 38.2346 311.919L35.1688 314.984C34.9473 315.206 34.9473 315.553 35.1688 315.775C35.3904 315.996 35.7377 315.996 35.9593 315.775L39.025 312.709C39.2466 312.488 39.2466 312.14 39.025 311.919L39.009 311.903ZM37.6265 311.311C38.1839 310.753 39.1315 310.753 39.6331 311.311C40.1905 311.868 40.1905 312.76 39.6331 313.317L36.5674 316.383C36.01 316.94 35.1181 316.94 34.5607 316.383C34.0033 315.826 34.0033 314.934 34.5607 314.376L37.6265 311.311Z" fill="url(#paint34_linear)"/>
<path fill-rule="evenodd" clip-rule="evenodd" d="M39.9451 311.014C39.2626 310.267 38.0357 310.293 37.3224 311.007L34.2566 314.072C33.5313 314.798 33.5313 315.962 34.2566 316.687C34.982 317.412 36.1461 317.412 36.8714 316.687L39.9372 313.621C40.6599 312.899 40.6625 311.74 39.9451 311.014ZM38.6447 312.183C38.6019 312.182 38.5654 312.196 38.5386 312.223L35.4729 315.289C35.4435 315.318 35.4327 315.35 35.4327 315.38C35.4327 315.409 35.4435 315.441 35.4729 315.471C35.5023 315.5 35.5348 315.511 35.564 315.511C35.5933 315.511 35.6258 315.5 35.6552 315.471L38.721 312.405C38.7504 312.376 38.7612 312.343 38.7612 312.314C38.7612 312.285 38.7504 312.252 38.721 312.223L38.697 312.199L38.6884 312.189C38.679 312.186 38.6638 312.183 38.6447 312.183Z" fill="url(#paint35_linear)"/>
<path d="M39.6331 289.683L36.5674 286.617C36.01 286.06 35.1181 286.06 34.5607 286.617C34.0033 287.175 34.0033 288.067 34.5607 288.624L37.6265 291.69C38.1839 292.247 39.0757 292.247 39.6331 291.69C40.1905 291.132 40.1905 290.241 39.6331 289.683Z" fill="url(#paint36_linear)"/>
<path fill-rule="evenodd" clip-rule="evenodd" d="M34.2566 286.313C34.982 285.588 36.1461 285.588 36.8714 286.313L39.9372 289.379C40.6625 290.104 40.6625 291.269 39.9372 291.994C39.2119 292.719 38.0477 292.719 37.3224 291.994L34.2566 288.928C33.5313 288.203 33.5313 287.039 34.2566 286.313ZM36.2633 286.921C35.8738 286.532 35.2542 286.532 34.8648 286.921C34.4753 287.311 34.4753 287.931 34.8648 288.32L37.9305 291.386C38.32 291.775 38.9396 291.775 39.3291 291.386C39.7186 290.996 39.7186 290.377 39.3291 289.987L36.2633 286.921Z" fill="url(#paint37_linear)"/>
<path fill-rule="evenodd" clip-rule="evenodd" d="M39.025 290.291L35.9593 287.226C35.7377 287.004 35.3904 287.004 35.1688 287.226C34.9473 287.447 34.9473 287.794 35.1688 288.016L38.2346 291.082C38.4561 291.303 38.8035 291.303 39.025 291.082C39.2466 290.86 39.2466 290.513 39.025 290.291ZM36.5674 286.617L39.6331 289.683C40.1905 290.241 40.1905 291.132 39.6331 291.69C39.0757 292.247 38.1839 292.247 37.6265 291.69L34.5607 288.624C34.0033 288.067 34.0033 287.175 34.5607 286.617C35.1181 286.06 36.01 286.06 36.5674 286.617Z" fill="url(#paint38_linear)"/>
<path fill-rule="evenodd" clip-rule="evenodd" d="M34.2566 286.313C34.982 285.588 36.1461 285.588 36.8714 286.313L39.9372 289.379C40.6625 290.104 40.6625 291.269 39.9372 291.994C39.2119 292.719 38.0477 292.719 37.3224 291.994L34.2566 288.928C33.5313 288.203 33.5313 287.039 34.2566 286.313ZM35.564 287.489C35.5348 287.489 35.5023 287.5 35.4729 287.53C35.4435 287.559 35.4327 287.592 35.4327 287.621C35.4327 287.65 35.4435 287.682 35.4729 287.712L38.5386 290.778C38.568 290.807 38.6006 290.818 38.6298 290.818C38.659 290.818 38.6916 290.807 38.721 290.778C38.7504 290.748 38.7612 290.716 38.7612 290.686C38.7612 290.657 38.7504 290.625 38.721 290.595L35.6552 287.53C35.6258 287.5 35.5933 287.489 35.564 287.489Z" fill="url(#paint39_linear)"/>
<path d="M125.73 217.526C125.73 218.174 125.568 218.774 125.244 219.326C124.92 219.866 124.44 220.304 123.804 220.64C123.168 220.964 122.394 221.126 121.482 221.126C120.582 221.126 119.778 220.976 119.07 220.676C118.362 220.364 117.792 219.92 117.36 219.344C116.94 218.768 116.7 218.096 116.64 217.328H119.34C119.4 217.844 119.604 218.276 119.952 218.624C120.312 218.96 120.786 219.128 121.374 219.128C121.902 219.128 122.304 218.99 122.58 218.714C122.868 218.426 123.012 218.06 123.012 217.616C123.012 217.22 122.898 216.896 122.67 216.644C122.442 216.38 122.154 216.17 121.806 216.014C121.458 215.858 120.978 215.678 120.366 215.474C119.574 215.21 118.926 214.952 118.422 214.7C117.918 214.436 117.486 214.058 117.126 213.566C116.778 213.074 116.604 212.432 116.604 211.64C116.604 210.548 116.994 209.69 117.774 209.066C118.566 208.43 119.61 208.112 120.906 208.112C122.25 208.112 123.318 208.436 124.11 209.084C124.914 209.732 125.37 210.596 125.478 211.676H122.742C122.67 211.22 122.478 210.848 122.166 210.56C121.854 210.26 121.428 210.11 120.888 210.11C120.42 210.11 120.042 210.236 119.754 210.488C119.466 210.728 119.322 211.082 119.322 211.55C119.322 211.922 119.43 212.234 119.646 212.486C119.874 212.726 120.156 212.924 120.492 213.08C120.84 213.236 121.308 213.41 121.896 213.602C122.712 213.89 123.372 214.16 123.876 214.412C124.392 214.664 124.83 215.042 125.19 215.546C125.55 216.05 125.73 216.71 125.73 217.526ZM131.505 210.902C132.345 210.902 133.065 211.1 133.665 211.496C134.265 211.892 134.691 212.426 134.943 213.098V211.028H137.463V221H134.943V218.912C134.691 219.584 134.265 220.124 133.665 220.532C133.065 220.928 132.345 221.126 131.505 221.126C130.665 221.126 129.909 220.922 129.237 220.514C128.565 220.106 128.037 219.518 127.653 218.75C127.281 217.97 127.095 217.058 127.095 216.014C127.095 214.97 127.281 214.064 127.653 213.296C128.037 212.516 128.565 211.922 129.237 211.514C129.909 211.106 130.665 210.902 131.505 210.902ZM132.297 213.116C131.505 213.116 130.869 213.374 130.389 213.89C129.909 214.406 129.669 215.114 129.669 216.014C129.669 216.914 129.909 217.622 130.389 218.138C130.869 218.642 131.505 218.894 132.297 218.894C133.065 218.894 133.695 218.636 134.187 218.12C134.691 217.592 134.943 216.89 134.943 216.014C134.943 215.126 134.691 214.424 134.187 213.908C133.695 213.38 133.065 213.116 132.297 213.116ZM145.703 210.884C146.855 210.884 147.773 211.262 148.457 212.018C149.141 212.774 149.483 213.836 149.483 215.204V221H146.963V215.492C146.963 214.7 146.759 214.088 146.351 213.656C145.943 213.212 145.385 212.99 144.677 212.99C143.957 212.99 143.381 213.224 142.949 213.692C142.517 214.16 142.301 214.832 142.301 215.708V221H139.763V211.028H142.301V213.026C142.565 212.354 142.997 211.832 143.597 211.46C144.209 211.076 144.911 210.884 145.703 210.884ZM157.044 218.822V221H155.712C154.596 221 153.738 220.73 153.138 220.19C152.55 219.65 152.256 218.75 152.256 217.49V213.17H150.87V211.028H152.256V208.562H154.794V211.028H157.026V213.17H154.794V217.526C154.794 218.006 154.89 218.342 155.082 218.534C155.274 218.726 155.598 218.822 156.054 218.822H157.044ZM168.249 215.636C168.249 215.888 168.219 216.176 168.159 216.5H160.851C160.887 217.388 161.127 218.042 161.571 218.462C162.015 218.882 162.567 219.092 163.227 219.092C163.815 219.092 164.301 218.948 164.685 218.66C165.081 218.372 165.333 217.982 165.441 217.49H168.123C167.991 218.186 167.709 218.81 167.277 219.362C166.845 219.914 166.287 220.346 165.603 220.658C164.931 220.97 164.181 221.126 163.353 221.126C162.381 221.126 161.517 220.922 160.761 220.514C160.005 220.094 159.417 219.5 158.997 218.732C158.577 217.964 158.367 217.058 158.367 216.014C158.367 214.97 158.577 214.064 158.997 213.296C159.417 212.516 160.005 211.922 160.761 211.514C161.517 211.106 162.381 210.902 163.353 210.902C164.337 210.902 165.195 211.106 165.927 211.514C166.671 211.922 167.241 212.486 167.637 213.206C168.045 213.914 168.249 214.724 168.249 215.636ZM165.693 215.384C165.729 214.568 165.513 213.95 165.045 213.53C164.589 213.11 164.025 212.9 163.353 212.9C162.669 212.9 162.093 213.11 161.625 213.53C161.157 213.95 160.899 214.568 160.851 215.384H165.693ZM166.035 208.328L161.895 210.272V208.544L166.035 206.384V208.328ZM183.348 215.636C183.348 215.888 183.318 216.176 183.258 216.5H175.95C175.986 217.388 176.226 218.042 176.67 218.462C177.114 218.882 177.666 219.092 178.326 219.092C178.914 219.092 179.4 218.948 179.784 218.66C180.18 218.372 180.432 217.982 180.54 217.49H183.222C183.09 218.186 182.808 218.81 182.376 219.362C181.944 219.914 181.386 220.346 180.702 220.658C180.03 220.97 179.28 221.126 178.452 221.126C177.48 221.126 176.616 220.922 175.86 220.514C175.104 220.094 174.516 219.5 174.096 218.732C173.676 217.964 173.466 217.058 173.466 216.014C173.466 214.97 173.676 214.064 174.096 213.296C174.516 212.516 175.104 211.922 175.86 211.514C176.616 211.106 177.48 210.902 178.452 210.902C179.436 210.902 180.294 211.106 181.026 211.514C181.77 211.922 182.34 212.486 182.736 213.206C183.144 213.914 183.348 214.724 183.348 215.636ZM180.792 215.384C180.828 214.568 180.612 213.95 180.144 213.53C179.688 213.11 179.124 212.9 178.452 212.9C177.768 212.9 177.192 213.11 176.724 213.53C176.256 213.95 175.998 214.568 175.95 215.384H180.792ZM190.478 218.822V221H189.146C188.03 221 187.172 220.73 186.572 220.19C185.984 219.65 185.69 218.75 185.69 217.49V213.17H184.304V211.028H185.69V208.562H188.228V211.028H190.46V213.17H188.228V217.526C188.228 218.006 188.324 218.342 188.516 218.534C188.708 218.726 189.032 218.822 189.488 218.822H190.478ZM120.833 237.902C122.045 237.902 123.017 238.208 123.749 238.82C124.481 239.432 124.937 240.248 125.117 241.268H122.741C122.645 240.788 122.429 240.404 122.093 240.116C121.757 239.828 121.319 239.684 120.779 239.684C120.347 239.684 120.011 239.786 119.771 239.99C119.531 240.194 119.411 240.47 119.411 240.818C119.411 241.094 119.507 241.316 119.699 241.484C119.891 241.652 120.131 241.784 120.419 241.88C120.707 241.976 121.121 242.09 121.661 242.222C122.417 242.39 123.029 242.57 123.497 242.762C123.977 242.942 124.385 243.236 124.721 243.644C125.069 244.04 125.243 244.58 125.243 245.264C125.243 246.116 124.907 246.806 124.235 247.334C123.575 247.862 122.681 248.126 121.553 248.126C120.257 248.126 119.219 247.838 118.439 247.262C117.659 246.674 117.185 245.84 117.017 244.76H119.447C119.507 245.252 119.723 245.642 120.095 245.93C120.467 246.206 120.953 246.344 121.553 246.344C121.985 246.344 122.315 246.242 122.543 246.038C122.771 245.822 122.885 245.546 122.885 245.21C122.885 244.922 122.783 244.688 122.579 244.508C122.387 244.328 122.141 244.19 121.841 244.094C121.553 243.998 121.139 243.884 120.599 243.752C119.855 243.584 119.249 243.416 118.781 243.248C118.325 243.068 117.929 242.786 117.593 242.402C117.269 242.018 117.107 241.49 117.107 240.818C117.107 239.954 117.437 239.252 118.097 238.712C118.757 238.172 119.669 237.902 120.833 237.902ZM136.511 242.636C136.511 242.888 136.481 243.176 136.421 243.5H129.113C129.149 244.388 129.389 245.042 129.833 245.462C130.277 245.882 130.829 246.092 131.489 246.092C132.077 246.092 132.563 245.948 132.947 245.66C133.343 245.372 133.595 244.982 133.703 244.49H136.385C136.253 245.186 135.971 245.81 135.539 246.362C135.107 246.914 134.549 247.346 133.865 247.658C133.193 247.97 132.443 248.126 131.615 248.126C130.643 248.126 129.779 247.922 129.023 247.514C128.267 247.094 127.679 246.5 127.259 245.732C126.839 244.964 126.629 244.058 126.629 243.014C126.629 241.97 126.839 241.064 127.259 240.296C127.679 239.516 128.267 238.922 129.023 238.514C129.779 238.106 130.643 237.902 131.615 237.902C132.599 237.902 133.457 238.106 134.189 238.514C134.933 238.922 135.503 239.486 135.899 240.206C136.307 240.914 136.511 241.724 136.511 242.636ZM133.955 242.384C133.991 241.568 133.775 240.95 133.307 240.53C132.851 240.11 132.287 239.9 131.615 239.9C130.931 239.9 130.355 240.11 129.887 240.53C129.419 240.95 129.161 241.568 129.113 242.384H133.955ZM134.297 235.328L130.157 237.272V235.544L134.297 233.384V235.328ZM142.795 237.902C144.079 237.902 145.147 238.25 145.999 238.946C146.863 239.642 147.403 240.59 147.619 241.79H144.937C144.829 241.262 144.583 240.848 144.199 240.548C143.815 240.236 143.329 240.08 142.741 240.08C142.069 240.08 141.505 240.332 141.049 240.836C140.605 241.328 140.383 242.054 140.383 243.014C140.383 243.974 140.605 244.706 141.049 245.21C141.505 245.702 142.069 245.948 142.741 245.948C143.329 245.948 143.815 245.798 144.199 245.498C144.583 245.186 144.829 244.766 144.937 244.238H147.619C147.403 245.438 146.863 246.386 145.999 247.082C145.147 247.778 144.079 248.126 142.795 248.126C141.823 248.126 140.959 247.922 140.203 247.514C139.447 247.094 138.859 246.5 138.439 245.732C138.019 244.964 137.809 244.058 137.809 243.014C137.809 241.97 138.019 241.064 138.439 240.296C138.859 239.516 139.447 238.922 140.203 238.514C140.959 238.106 141.823 237.902 142.795 237.902ZM158.963 238.028V248H156.425V245.984C156.161 246.656 155.723 247.184 155.111 247.568C154.511 247.94 153.815 248.126 153.023 248.126C151.871 248.126 150.953 247.748 150.269 246.992C149.585 246.236 149.243 245.18 149.243 243.824V238.028H151.763V243.536C151.763 244.328 151.967 244.946 152.375 245.39C152.783 245.822 153.335 246.038 154.031 246.038C154.763 246.038 155.345 245.804 155.777 245.336C156.209 244.868 156.425 244.196 156.425 243.32V238.028H158.963ZM163.808 239.936C164.18 239.3 164.672 238.802 165.284 238.442C165.896 238.07 166.58 237.884 167.336 237.884V240.602H166.598C164.738 240.602 163.808 241.466 163.808 243.194V248H161.27V238.028H163.808V239.936ZM168.453 235.166C168.453 234.758 168.597 234.428 168.885 234.176C169.173 233.912 169.551 233.78 170.019 233.78C170.487 233.78 170.865 233.912 171.153 234.176C171.441 234.428 171.585 234.758 171.585 235.166C171.585 235.562 171.441 235.892 171.153 236.156C170.865 236.408 170.487 236.534 170.019 236.534C169.551 236.534 169.173 236.408 168.885 236.156C168.597 235.892 168.453 235.562 168.453 235.166ZM171.279 238.028V248H168.741V238.028H171.279ZM178.903 245.822V248H177.571C176.455 248 175.597 247.73 174.997 247.19C174.409 246.65 174.115 245.75 174.115 244.49V240.17H172.729V238.028H174.115V235.562H176.653V238.028H178.885V240.17H176.653V244.526C176.653 245.006 176.749 245.342 176.941 245.534C177.133 245.726 177.457 245.822 177.913 245.822H178.903ZM190.107 242.636C190.107 242.888 190.077 243.176 190.017 243.5H182.709C182.745 244.388 182.985 245.042 183.429 245.462C183.873 245.882 184.425 246.092 185.085 246.092C185.673 246.092 186.159 245.948 186.543 245.66C186.939 245.372 187.191 244.982 187.299 244.49H189.981C189.849 245.186 189.567 245.81 189.135 246.362C188.703 246.914 188.145 247.346 187.461 247.658C186.789 247.97 186.039 248.126 185.211 248.126C184.239 248.126 183.375 247.922 182.619 247.514C181.863 247.094 181.275 246.5 180.855 245.732C180.435 244.964 180.225 244.058 180.225 243.014C180.225 241.97 180.435 241.064 180.855 240.296C181.275 239.516 181.863 238.922 182.619 238.514C183.375 238.106 184.239 237.902 185.211 237.902C186.195 237.902 187.053 238.106 187.785 238.514C188.529 238.922 189.099 239.486 189.495 240.206C189.903 240.914 190.107 241.724 190.107 242.636ZM187.551 242.384C187.587 241.568 187.371 240.95 186.903 240.53C186.447 240.11 185.883 239.9 185.211 239.9C184.527 239.9 183.951 240.11 183.483 240.53C183.015 240.95 182.757 241.568 182.709 242.384H187.551ZM187.893 235.328L183.753 237.272V235.544L187.893 233.384V235.328Z" fill="#27364D"/>
<path d="M499.571 246.308V249.602H504.071V251.546H499.571V254.966H504.611V257H497.033V244.292H504.611V246.308H499.571ZM512.43 246.884C513.582 246.884 514.5 247.262 515.184 248.018C515.868 248.774 516.21 249.836 516.21 251.204V257H513.69V251.492C513.69 250.7 513.486 250.088 513.078 249.656C512.67 249.212 512.112 248.99 511.404 248.99C510.684 248.99 510.108 249.224 509.676 249.692C509.244 250.16 509.028 250.832 509.028 251.708V257H506.49V247.028H509.028V249.026C509.292 248.354 509.724 247.832 510.324 247.46C510.936 247.076 511.638 246.884 512.43 246.884ZM527.821 251.636C527.821 251.888 527.791 252.176 527.731 252.5H520.423C520.459 253.388 520.699 254.042 521.143 254.462C521.587 254.882 522.139 255.092 522.799 255.092C523.387 255.092 523.873 254.948 524.257 254.66C524.653 254.372 524.905 253.982 525.013 253.49H527.695C527.563 254.186 527.281 254.81 526.849 255.362C526.417 255.914 525.859 256.346 525.175 256.658C524.503 256.97 523.753 257.126 522.925 257.126C521.953 257.126 521.089 256.922 520.333 256.514C519.577 256.094 518.989 255.5 518.569 254.732C518.149 253.964 517.939 253.058 517.939 252.014C517.939 250.97 518.149 250.064 518.569 249.296C518.989 248.516 519.577 247.922 520.333 247.514C521.089 247.106 521.953 246.902 522.925 246.902C523.909 246.902 524.767 247.106 525.499 247.514C526.243 247.922 526.813 248.486 527.209 249.206C527.617 249.914 527.821 250.724 527.821 251.636ZM525.265 251.384C525.301 250.568 525.085 249.95 524.617 249.53C524.161 249.11 523.597 248.9 522.925 248.9C522.241 248.9 521.665 249.11 521.197 249.53C520.729 249.95 520.471 250.568 520.423 251.384H525.265ZM532.161 248.936C532.533 248.3 533.025 247.802 533.637 247.442C534.249 247.07 534.933 246.884 535.689 246.884V249.602H534.951C533.091 249.602 532.161 250.466 532.161 252.194V257H529.623V247.028H532.161V248.936ZM540.999 246.902C541.839 246.902 542.559 247.1 543.159 247.496C543.759 247.892 544.185 248.426 544.437 249.098V247.028H546.957V257.036C546.957 257.96 546.771 258.788 546.399 259.52C546.039 260.264 545.493 260.846 544.761 261.266C544.041 261.686 543.165 261.896 542.133 261.896C540.693 261.896 539.529 261.554 538.641 260.87C537.753 260.186 537.213 259.256 537.021 258.08H539.523C539.667 258.584 539.943 258.974 540.351 259.25C540.771 259.538 541.305 259.682 541.953 259.682C542.697 259.682 543.297 259.46 543.753 259.016C544.209 258.584 544.437 257.924 544.437 257.036V254.912C544.185 255.584 543.759 256.124 543.159 256.532C542.559 256.928 541.839 257.126 540.999 257.126C540.159 257.126 539.403 256.922 538.731 256.514C538.059 256.106 537.531 255.518 537.147 254.75C536.775 253.97 536.589 253.058 536.589 252.014C536.589 250.97 536.775 250.064 537.147 249.296C537.531 248.516 538.059 247.922 538.731 247.514C539.403 247.106 540.159 246.902 540.999 246.902ZM541.791 249.116C540.999 249.116 540.363 249.374 539.883 249.89C539.403 250.406 539.163 251.114 539.163 252.014C539.163 252.914 539.403 253.622 539.883 254.138C540.363 254.642 540.999 254.894 541.791 254.894C542.559 254.894 543.189 254.636 543.681 254.12C544.185 253.592 544.437 252.89 544.437 252.014C544.437 251.126 544.185 250.424 543.681 249.908C543.189 249.38 542.559 249.116 541.791 249.116ZM548.969 244.166C548.969 243.758 549.113 243.428 549.401 243.176C549.689 242.912 550.067 242.78 550.535 242.78C551.003 242.78 551.381 242.912 551.669 243.176C551.957 243.428 552.101 243.758 552.101 244.166C552.101 244.562 551.957 244.892 551.669 245.156C551.381 245.408 551.003 245.534 550.535 245.534C550.067 245.534 549.689 245.408 549.401 245.156C549.113 244.892 548.969 244.562 548.969 244.166ZM551.795 247.028V257H549.257V247.028H551.795ZM563.469 251.636C563.469 251.888 563.439 252.176 563.379 252.5H556.071C556.107 253.388 556.347 254.042 556.791 254.462C557.235 254.882 557.787 255.092 558.447 255.092C559.035 255.092 559.521 254.948 559.905 254.66C560.301 254.372 560.553 253.982 560.661 253.49H563.343C563.211 254.186 562.929 254.81 562.497 255.362C562.065 255.914 561.507 256.346 560.823 256.658C560.151 256.97 559.401 257.126 558.573 257.126C557.601 257.126 556.737 256.922 555.981 256.514C555.225 256.094 554.637 255.5 554.217 254.732C553.797 253.964 553.587 253.058 553.587 252.014C553.587 250.97 553.797 250.064 554.217 249.296C554.637 248.516 555.225 247.922 555.981 247.514C556.737 247.106 557.601 246.902 558.573 246.902C559.557 246.902 560.415 247.106 561.147 247.514C561.891 247.922 562.461 248.486 562.857 249.206C563.265 249.914 563.469 250.724 563.469 251.636ZM560.913 251.384C560.949 250.568 560.733 249.95 560.265 249.53C559.809 249.11 559.245 248.9 558.573 248.9C557.889 248.9 557.313 249.11 556.845 249.53C556.377 249.95 556.119 250.568 556.071 251.384H560.913Z" fill="#27364D"/>
<path d="M587.89 151.166C589.474 151.166 590.788 151.574 591.832 152.39C592.876 153.206 593.566 154.316 593.902 155.72H591.238C590.962 155.036 590.53 154.496 589.942 154.1C589.366 153.704 588.67 153.506 587.854 153.506C587.182 153.506 586.576 153.674 586.036 154.01C585.496 154.346 585.076 154.826 584.776 155.45C584.476 156.074 584.326 156.806 584.326 157.646C584.326 158.474 584.476 159.2 584.776 159.824C585.076 160.448 585.496 160.928 586.036 161.264C586.576 161.6 587.182 161.768 587.854 161.768C588.67 161.768 589.366 161.57 589.942 161.174C590.53 160.778 590.962 160.238 591.238 159.554H593.902C593.566 160.958 592.876 162.068 591.832 162.884C590.788 163.7 589.474 164.108 587.89 164.108C586.678 164.108 585.604 163.838 584.668 163.298C583.744 162.746 583.024 161.978 582.508 160.994C582.004 160.01 581.752 158.894 581.752 157.646C581.752 156.386 582.004 155.264 582.508 154.28C583.024 153.296 583.744 152.534 584.668 151.994C585.592 151.442 586.666 151.166 587.89 151.166ZM597.588 151.292L600.99 161.354L604.41 151.292H607.128L602.628 164H599.37L594.87 151.292H597.588ZM614.24 151.166C615.824 151.166 617.138 151.574 618.182 152.39C619.226 153.206 619.916 154.316 620.252 155.72H617.588C617.312 155.036 616.88 154.496 616.292 154.1C615.716 153.704 615.02 153.506 614.204 153.506C613.532 153.506 612.926 153.674 612.386 154.01C611.846 154.346 611.426 154.826 611.126 155.45C610.826 156.074 610.676 156.806 610.676 157.646C610.676 158.474 610.826 159.2 611.126 159.824C611.426 160.448 611.846 160.928 612.386 161.264C612.926 161.6 613.532 161.768 614.204 161.768C615.02 161.768 615.716 161.57 616.292 161.174C616.88 160.778 617.312 160.238 617.588 159.554H620.252C619.916 160.958 619.226 162.068 618.182 162.884C617.138 163.7 615.824 164.108 614.24 164.108C613.028 164.108 611.954 163.838 611.018 163.298C610.094 162.746 609.374 161.978 608.858 160.994C608.354 160.01 608.102 158.894 608.102 157.646C608.102 156.386 608.354 155.264 608.858 154.28C609.374 153.296 610.094 152.534 611.018 151.994C611.942 151.442 613.016 151.166 614.24 151.166Z" fill="#27364D"/>
<line x1="410" y1="116" x2="568" y2="116" stroke="#2BC47C" stroke-width="2" stroke-dasharray="2 4"/>
<path d="M617.207 120.751C615.231 119.115 613.196 118.771 611.401 118.467C610.209 118.266 609.234 118.099 608.376 117.605C613.177 116.562 616.781 114.084 618.628 110.503C620.399 107.07 620.281 102.967 618.305 99.2461C617.107 96.9872 614.506 95.3387 611.679 95.0463C608.963 94.7656 606.435 95.7705 604.742 97.8074C603.106 99.7834 602.762 101.818 602.458 103.614C602.258 104.797 602.092 105.766 601.606 106.62C600.564 101.816 598.086 98.2104 594.504 96.3625C591.071 94.5916 586.968 94.7092 583.246 96.6849C580.987 97.8832 579.339 100.484 579.046 103.312C578.766 106.028 579.771 108.555 581.807 110.249C583.784 111.885 585.819 112.229 587.614 112.532C588.806 112.734 589.781 112.901 590.639 113.395C585.838 114.438 582.234 116.916 580.387 120.496C578.616 123.93 578.734 128.033 580.709 131.754C581.907 134.013 584.509 135.661 587.336 135.954C587.636 135.985 587.933 136 588.227 136C590.6 136 592.766 135.004 594.273 133.193C595.909 131.217 596.253 129.182 596.556 127.387C596.757 126.203 596.923 125.234 597.408 124.38C598.45 129.184 600.929 132.789 604.51 134.637C606.126 135.471 607.89 135.886 609.693 135.886C611.721 135.886 613.798 135.36 615.768 134.314C618.027 133.116 619.675 130.515 619.968 127.688C620.248 124.972 619.243 122.444 617.207 120.751ZM599.507 120.139C596.949 120.139 594.868 118.058 594.868 115.5C594.868 112.942 596.949 110.861 599.507 110.861C602.065 110.861 604.146 112.942 604.146 115.5C604.146 118.058 602.065 120.139 599.507 120.139ZM606.135 104.235C606.393 102.709 606.616 101.391 607.611 100.189C608.82 98.7355 610.438 98.6669 611.295 98.7556C612.87 98.9185 614.398 99.8386 615.011 100.994C616.426 103.659 616.533 106.429 615.313 108.794C614.008 111.325 611.345 113.114 607.725 113.931C607.335 111.88 606.194 110.093 604.599 108.866C605.614 107.298 605.896 105.646 606.135 104.235ZM584.189 107.379C582.735 106.171 582.667 104.552 582.756 103.695C582.919 102.12 583.839 100.592 584.995 99.9793C587.66 98.5644 590.43 98.457 592.794 99.6767C595.33 100.985 597.12 103.654 597.935 107.282C595.889 107.672 594.106 108.81 592.88 110.399C591.307 109.378 589.65 109.094 588.236 108.855C586.709 108.597 585.391 108.374 584.189 107.379ZM592.879 126.764C592.621 128.29 592.398 129.608 591.403 130.811C590.194 132.264 588.575 132.333 587.719 132.244C586.144 132.081 584.616 131.161 584.003 130.005C582.588 127.341 582.481 124.571 583.701 122.206C585.007 119.675 587.669 117.886 591.289 117.069C591.679 119.12 592.821 120.907 594.415 122.134C593.401 123.702 593.118 125.354 592.879 126.764ZM616.258 127.304C616.096 128.88 615.175 130.407 614.02 131.02C611.355 132.435 608.585 132.543 606.22 131.323C603.684 130.015 601.894 127.346 601.079 123.717C603.125 123.327 604.909 122.189 606.135 120.6C607.707 121.621 609.364 121.905 610.779 122.144C612.305 122.402 613.623 122.625 614.825 123.621C616.278 124.829 616.347 126.447 616.258 127.304Z" fill="url(#paint40_linear)"/>
<path d="M155.423 172.895L150.237 167.958L148.027 170.279L155.603 177.49L167.146 164.638L164.762 162.497L155.423 172.895Z" fill="url(#paint41_linear)" stroke="url(#paint42_linear)" stroke-width="0.5"/>
<path d="M170.315 155.22C166.431 154.524 162.855 152.403 161.068 151.201C159.901 150.415 158.544 150 157.143 150C155.742 150 154.384 150.415 153.217 151.201C151.431 152.403 147.854 154.524 143.97 155.22C141.67 155.633 140 157.623 140 159.953V169.619C140 172.812 140.893 175.925 142.655 178.871C144.034 181.176 145.944 183.379 148.332 185.418C152.348 188.848 156.324 190.636 156.491 190.71L157.143 191L157.794 190.71C157.961 190.636 161.938 188.848 165.953 185.418C168.341 183.379 170.251 181.176 171.63 178.871C173.392 175.925 174.285 172.812 174.285 169.619V159.953C174.285 157.623 172.616 155.633 170.315 155.22ZM171.081 169.619C171.081 174.38 168.676 178.858 163.933 182.93C161.175 185.297 158.376 186.84 157.143 187.466C154.308 186.025 143.204 179.735 143.204 169.619V159.953C143.204 159.177 143.764 158.513 144.535 158.374C148.997 157.575 153.011 155.202 155.006 153.859C155.643 153.431 156.381 153.204 157.143 153.204C157.904 153.204 158.643 153.431 159.279 153.859C161.274 155.202 165.288 157.575 169.75 158.374C170.521 158.513 171.081 159.176 171.081 159.953V169.619V169.619Z" fill="url(#paint43_linear)" stroke="url(#paint44_linear)" stroke-width="0.5"/>
<line x1="481.667" y1="370.027" x2="504.526" y2="378.595" stroke="#00C27D" stroke-width="3"/>
<path d="M569.016 391.154V382.749L524.777 400.09V409.38L569.016 391.154Z" fill="#99B2C5"/>
<path d="M524.158 399.913V409.203L477 393.189V385.58L524.158 399.913Z" fill="#BFEDD8"/>
<path d="M477 385.138L524.158 399.559L568.219 382.395L522.477 367L477 385.138Z" fill="url(#paint45_linear)"/>
<line x1="478.675" y1="350.475" x2="497.359" y2="341.644" stroke="#00C27D" stroke-width="3"/>
<path d="M473.621 327.138L520.779 341.559L564.84 324.395L519.098 309L473.621 327.138Z" fill="url(#paint46_linear)"/>
<path d="M565.016 333.154V324.749L520.777 342.09V351.38L565.016 333.154Z" fill="#99B2C5"/>
<path d="M520.158 341.913V351.203L473 335.189V327.58L520.158 341.913Z" fill="#BFEDD8"/>
<path d="M88.8431 32.1546C88.2989 31.6105 87.4447 31.5303 86.8086 31.9637C84.4121 33.5972 72.3921 41.8108 71.1003 43.1026C69.227 44.976 69.227 48.0241 71.1003 49.8975C72.037 50.8341 73.2675 51.3025 74.4978 51.3025C75.7281 51.3025 76.9585 50.8341 77.8952 49.8975C79.187 48.6057 87.4006 36.5857 89.0341 34.1892C89.4674 33.5532 89.3872 32.6989 88.8431 32.1546ZM75.6302 47.6325C75.0058 48.257 73.9897 48.257 73.3653 47.6325C72.7409 47.0081 72.7408 45.9923 73.365 45.3679C73.8669 44.8719 77.2796 42.438 81.4784 39.5194C78.5599 43.7182 76.126 47.1307 75.6302 47.6325Z" fill="url(#paint47_linear)"/>
<path d="M61.3857 53.9491L59.4085 54.9136C57.9619 52.3317 57.2031 49.4499 57.2031 46.4999C57.2031 44.3386 57.6017 42.2685 58.329 40.3593L60.5945 41.446C60.8179 41.5531 61.0537 41.6039 61.286 41.6039C61.8829 41.6039 62.4558 41.2688 62.7312 40.6946C63.1137 39.8971 62.7773 38.9404 61.9798 38.5579L59.743 37.485C62.5231 32.951 67.3331 29.7899 72.8985 29.2766V31.6854C72.8985 32.57 73.6155 33.287 74.5 33.287C75.3846 33.287 76.1016 32.57 76.1016 31.6854V29.2754C78.0097 29.4491 79.8559 29.935 81.6086 30.7262C82.4146 31.0902 83.3633 30.7315 83.7272 29.9255C84.0912 29.1193 83.7327 28.1708 82.9265 27.8068C80.2706 26.608 77.4355 26 74.4999 26C69.0242 26 63.8762 28.1323 60.0042 32.0042C56.1324 35.8762 54 41.0242 54 46.4999C54 50.5463 55.201 54.4816 57.4732 57.8802C57.7793 58.3379 58.2853 58.5918 58.8056 58.5918C59.0422 58.5918 59.2818 58.5393 59.5069 58.4295L62.7901 56.828C63.5851 56.4402 63.9152 55.4814 63.5273 54.6864C63.1395 53.8914 62.1807 53.5614 61.3857 53.9491Z" fill="url(#paint48_linear)"/>
<path d="M93.1935 38.0735C92.8297 37.2673 91.8813 36.9086 91.0748 37.2727C90.2687 37.6366 89.9102 38.5852 90.2741 39.3913C91.2849 41.6301 91.7973 44.0218 91.7973 46.4999C91.7973 49.4543 91.0361 52.3407 89.5851 54.9255L87.521 53.9426C86.7225 53.5624 85.7668 53.9013 85.3864 54.7C85.0061 55.4986 85.3453 56.4543 86.1439 56.8346L89.5071 58.4361C89.7284 58.5414 89.9629 58.5918 90.1949 58.5918C90.7154 58.5918 91.2215 58.3376 91.5271 57.8802C93.7994 54.4816 95.0004 50.5462 95.0004 46.4999C95.0004 43.5643 94.3925 40.7292 93.1935 38.0735Z" fill="url(#paint49_linear)"/>
<path d="M604.462 323.292L607.864 333.354L611.284 323.292H614.002L609.502 336H606.244L601.744 323.292H604.462ZM619.98 325.902C620.952 325.902 621.822 326.106 622.59 326.514C623.37 326.922 623.982 327.516 624.426 328.296C624.87 329.064 625.092 329.97 625.092 331.014C625.092 332.058 624.87 332.964 624.426 333.732C623.982 334.5 623.37 335.094 622.59 335.514C621.822 335.922 620.952 336.126 619.98 336.126C619.008 336.126 618.132 335.922 617.352 335.514C616.584 335.094 615.978 334.5 615.534 333.732C615.09 332.964 614.868 332.058 614.868 331.014C614.868 329.97 615.09 329.064 615.534 328.296C615.978 327.516 616.584 326.922 617.352 326.514C618.132 326.106 619.008 325.902 619.98 325.902ZM619.98 328.098C619.272 328.098 618.672 328.35 618.18 328.854C617.688 329.346 617.442 330.066 617.442 331.014C617.442 331.962 617.688 332.688 618.18 333.192C618.672 333.684 619.272 333.93 619.98 333.93C620.688 333.93 621.288 333.684 621.78 333.192C622.272 332.688 622.518 331.962 622.518 331.014C622.518 330.066 622.272 329.346 621.78 328.854C621.288 328.35 620.688 328.098 619.98 328.098ZM630.323 325.902C631.535 325.902 632.507 326.208 633.239 326.82C633.971 327.432 634.427 328.248 634.607 329.268H632.231C632.135 328.788 631.919 328.404 631.583 328.116C631.247 327.828 630.809 327.684 630.269 327.684C629.837 327.684 629.501 327.786 629.261 327.99C629.021 328.194 628.901 328.47 628.901 328.818C628.901 329.094 628.997 329.316 629.189 329.484C629.381 329.652 629.621 329.784 629.909 329.88C630.197 329.976 630.611 330.09 631.151 330.222C631.907 330.39 632.519 330.57 632.987 330.762C633.467 330.942 633.875 331.236 634.211 331.644C634.559 332.04 634.733 332.58 634.733 333.264C634.733 334.116 634.397 334.806 633.725 335.334C633.065 335.862 632.171 336.126 631.043 336.126C629.747 336.126 628.709 335.838 627.929 335.262C627.149 334.674 626.675 333.84 626.507 332.76H628.937C628.997 333.252 629.213 333.642 629.585 333.93C629.957 334.206 630.443 334.344 631.043 334.344C631.475 334.344 631.805 334.242 632.033 334.038C632.261 333.822 632.375 333.546 632.375 333.21C632.375 332.922 632.273 332.688 632.069 332.508C631.877 332.328 631.631 332.19 631.331 332.094C631.043 331.998 630.629 331.884 630.089 331.752C629.345 331.584 628.739 331.416 628.271 331.248C627.815 331.068 627.419 330.786 627.083 330.402C626.759 330.018 626.597 329.49 626.597 328.818C626.597 327.954 626.927 327.252 627.587 326.712C628.247 326.172 629.159 325.902 630.323 325.902ZM566.245 352.902C567.085 352.902 567.805 353.1 568.405 353.496C569.005 353.892 569.431 354.426 569.683 355.098V353.028H572.203V363H569.683V360.912C569.431 361.584 569.005 362.124 568.405 362.532C567.805 362.928 567.085 363.126 566.245 363.126C565.405 363.126 564.649 362.922 563.977 362.514C563.305 362.106 562.777 361.518 562.393 360.75C562.021 359.97 561.835 359.058 561.835 358.014C561.835 356.97 562.021 356.064 562.393 355.296C562.777 354.516 563.305 353.922 563.977 353.514C564.649 353.106 565.405 352.902 566.245 352.902ZM567.037 355.116C566.245 355.116 565.609 355.374 565.129 355.89C564.649 356.406 564.409 357.114 564.409 358.014C564.409 358.914 564.649 359.622 565.129 360.138C565.609 360.642 566.245 360.894 567.037 360.894C567.805 360.894 568.435 360.636 568.927 360.12C569.431 359.592 569.683 358.89 569.683 358.014C569.683 357.126 569.431 356.424 568.927 355.908C568.435 355.38 567.805 355.116 567.037 355.116ZM580.461 352.902C581.301 352.902 582.057 353.106 582.729 353.514C583.401 353.922 583.923 354.516 584.295 355.296C584.679 356.064 584.871 356.97 584.871 358.014C584.871 359.058 584.679 359.97 584.295 360.75C583.923 361.518 583.401 362.106 582.729 362.514C582.057 362.922 581.301 363.126 580.461 363.126C579.621 363.126 578.901 362.928 578.301 362.532C577.713 362.124 577.293 361.584 577.041 360.912V367.752H574.503V353.028H577.041V355.098C577.293 354.426 577.713 353.892 578.301 353.496C578.901 353.1 579.621 352.902 580.461 352.902ZM579.669 355.116C578.901 355.116 578.265 355.38 577.761 355.908C577.269 356.424 577.023 357.126 577.023 358.014C577.023 358.89 577.269 359.592 577.761 360.12C578.265 360.636 578.901 360.894 579.669 360.894C580.461 360.894 581.097 360.642 581.577 360.138C582.057 359.622 582.297 358.914 582.297 358.014C582.297 357.114 582.057 356.406 581.577 355.89C581.097 355.374 580.461 355.116 579.669 355.116ZM592.625 352.902C593.465 352.902 594.221 353.106 594.893 353.514C595.565 353.922 596.087 354.516 596.459 355.296C596.843 356.064 597.035 356.97 597.035 358.014C597.035 359.058 596.843 359.97 596.459 360.75C596.087 361.518 595.565 362.106 594.893 362.514C594.221 362.922 593.465 363.126 592.625 363.126C591.785 363.126 591.065 362.928 590.465 362.532C589.877 362.124 589.457 361.584 589.205 360.912V367.752H586.667V353.028H589.205V355.098C589.457 354.426 589.877 353.892 590.465 353.496C591.065 353.1 591.785 352.902 592.625 352.902ZM591.833 355.116C591.065 355.116 590.429 355.38 589.925 355.908C589.433 356.424 589.187 357.126 589.187 358.014C589.187 358.89 589.433 359.592 589.925 360.12C590.429 360.636 591.065 360.894 591.833 360.894C592.625 360.894 593.261 360.642 593.741 360.138C594.221 359.622 594.461 358.914 594.461 358.014C594.461 357.114 594.221 356.406 593.741 355.89C593.261 355.374 592.625 355.116 591.833 355.116ZM601.369 349.68V363H598.831V349.68H601.369ZM603.377 350.166C603.377 349.758 603.521 349.428 603.809 349.176C604.097 348.912 604.475 348.78 604.943 348.78C605.411 348.78 605.789 348.912 606.077 349.176C606.365 349.428 606.509 349.758 606.509 350.166C606.509 350.562 606.365 350.892 606.077 351.156C605.789 351.408 605.411 351.534 604.943 351.534C604.475 351.534 604.097 351.408 603.809 351.156C603.521 350.892 603.377 350.562 603.377 350.166ZM606.203 353.028V363H603.665V353.028H606.203ZM612.981 352.902C614.265 352.902 615.333 353.25 616.185 353.946C617.049 354.642 617.589 355.59 617.805 356.79H615.123C615.015 356.262 614.769 355.848 614.385 355.548C614.001 355.236 613.515 355.08 612.927 355.08C612.255 355.08 611.691 355.332 611.235 355.836C610.791 356.328 610.569 357.054 610.569 358.014C610.569 358.974 610.791 359.706 611.235 360.21C611.691 360.702 612.255 360.948 612.927 360.948C613.515 360.948 614.001 360.798 614.385 360.498C614.769 360.186 615.015 359.766 615.123 359.238H617.805C617.589 360.438 617.049 361.386 616.185 362.082C615.333 362.778 614.265 363.126 612.981 363.126C612.009 363.126 611.145 362.922 610.389 362.514C609.633 362.094 609.045 361.5 608.625 360.732C608.205 359.964 607.995 359.058 607.995 358.014C607.995 356.97 608.205 356.064 608.625 355.296C609.045 354.516 609.633 353.922 610.389 353.514C611.145 353.106 612.009 352.902 612.981 352.902ZM623.514 352.902C624.354 352.902 625.074 353.1 625.674 353.496C626.274 353.892 626.7 354.426 626.952 355.098V353.028H629.472V363H626.952V360.912C626.7 361.584 626.274 362.124 625.674 362.532C625.074 362.928 624.354 363.126 623.514 363.126C622.674 363.126 621.918 362.922 621.246 362.514C620.574 362.106 620.046 361.518 619.662 360.75C619.29 359.97 619.104 359.058 619.104 358.014C619.104 356.97 619.29 356.064 619.662 355.296C620.046 354.516 620.574 353.922 621.246 353.514C621.918 353.106 622.674 352.902 623.514 352.902ZM624.306 355.116C623.514 355.116 622.878 355.374 622.398 355.89C621.918 356.406 621.678 357.114 621.678 358.014C621.678 358.914 621.918 359.622 622.398 360.138C622.878 360.642 623.514 360.894 624.306 360.894C625.074 360.894 625.704 360.636 626.196 360.12C626.7 359.592 626.952 358.89 626.952 358.014C626.952 357.126 626.7 356.424 626.196 355.908C625.704 355.38 625.074 355.116 624.306 355.116ZM637.1 360.822V363H635.768C634.652 363 633.794 362.73 633.194 362.19C632.606 361.65 632.312 360.75 632.312 359.49V355.17H630.926V353.028H632.312V350.562H634.85V353.028H637.082V355.17H634.85V359.526C634.85 360.006 634.946 360.342 635.138 360.534C635.33 360.726 635.654 360.822 636.11 360.822H637.1ZM638.638 350.166C638.638 349.758 638.782 349.428 639.07 349.176C639.358 348.912 639.736 348.78 640.204 348.78C640.672 348.78 641.05 348.912 641.338 349.176C641.626 349.428 641.77 349.758 641.77 350.166C641.77 350.562 641.626 350.892 641.338 351.156C641.05 351.408 640.672 351.534 640.204 351.534C639.736 351.534 639.358 351.408 639.07 351.156C638.782 350.892 638.638 350.562 638.638 350.166ZM641.464 353.028V363H638.926V353.028H641.464ZM648.368 352.902C649.34 352.902 650.21 353.106 650.978 353.514C651.758 353.922 652.37 354.516 652.814 355.296C653.258 356.064 653.48 356.97 653.48 358.014C653.48 359.058 653.258 359.964 652.814 360.732C652.37 361.5 651.758 362.094 650.978 362.514C650.21 362.922 649.34 363.126 648.368 363.126C647.396 363.126 646.52 362.922 645.74 362.514C644.972 362.094 644.366 361.5 643.922 360.732C643.478 359.964 643.256 359.058 643.256 358.014C643.256 356.97 643.478 356.064 643.922 355.296C644.366 354.516 644.972 353.922 645.74 353.514C646.52 353.106 647.396 352.902 648.368 352.902ZM648.368 355.098C647.66 355.098 647.06 355.35 646.568 355.854C646.076 356.346 645.83 357.066 645.83 358.014C645.83 358.962 646.076 359.688 646.568 360.192C647.06 360.684 647.66 360.93 648.368 360.93C649.076 360.93 649.676 360.684 650.168 360.192C650.66 359.688 650.906 358.962 650.906 358.014C650.906 357.066 650.66 356.346 650.168 355.854C649.676 355.35 649.076 355.098 648.368 355.098ZM661.214 352.884C662.366 352.884 663.284 353.262 663.968 354.018C664.652 354.774 664.994 355.836 664.994 357.204V363H662.474V357.492C662.474 356.7 662.27 356.088 661.862 355.656C661.454 355.212 660.896 354.99 660.188 354.99C659.468 354.99 658.892 355.224 658.46 355.692C658.028 356.16 657.812 356.832 657.812 357.708V363H655.274V353.028H657.812V355.026C658.076 354.354 658.508 353.832 659.108 353.46C659.72 353.076 660.422 352.884 661.214 352.884ZM670.665 352.902C671.877 352.902 672.849 353.208 673.581 353.82C674.313 354.432 674.769 355.248 674.949 356.268H672.573C672.477 355.788 672.261 355.404 671.925 355.116C671.589 354.828 671.151 354.684 670.611 354.684C670.179 354.684 669.843 354.786 669.603 354.99C669.363 355.194 669.243 355.47 669.243 355.818C669.243 356.094 669.339 356.316 669.531 356.484C669.723 356.652 669.963 356.784 670.251 356.88C670.539 356.976 670.953 357.09 671.493 357.222C672.249 357.39 672.861 357.57 673.329 357.762C673.809 357.942 674.217 358.236 674.553 358.644C674.901 359.04 675.075 359.58 675.075 360.264C675.075 361.116 674.739 361.806 674.067 362.334C673.407 362.862 672.513 363.126 671.385 363.126C670.089 363.126 669.051 362.838 668.271 362.262C667.491 361.674 667.017 360.84 666.849 359.76H669.279C669.339 360.252 669.555 360.642 669.927 360.93C670.299 361.206 670.785 361.344 671.385 361.344C671.817 361.344 672.147 361.242 672.375 361.038C672.603 360.822 672.717 360.546 672.717 360.21C672.717 359.922 672.615 359.688 672.411 359.508C672.219 359.328 671.973 359.19 671.673 359.094C671.385 358.998 670.971 358.884 670.431 358.752C669.687 358.584 669.081 358.416 668.613 358.248C668.157 358.068 667.761 357.786 667.425 357.402C667.101 357.018 666.939 356.49 666.939 355.818C666.939 354.954 667.269 354.252 667.929 353.712C668.589 353.172 669.501 352.902 670.665 352.902Z" fill="#27364D"/>
<path d="M640.058 266H601.613C599.07 266 597 268.07 597 270.613V302.907C597 305.45 599.07 307.52 601.613 307.52H640.058C642.602 307.52 644.671 305.45 644.671 302.907V270.613C644.671 268.07 642.602 266 640.058 266ZM641.596 302.907C641.596 303.755 640.906 304.444 640.058 304.444H601.613C600.765 304.444 600.076 303.755 600.076 302.907V278.302H638.52C639.369 278.302 640.058 277.614 640.058 276.764C640.058 275.915 639.369 275.227 638.52 275.227H600.076V270.613C600.076 269.765 600.765 269.076 601.613 269.076H640.058C640.906 269.076 641.596 269.765 641.596 270.613V302.907ZM603.452 273.659C602.653 273.813 601.834 273.337 601.643 272.452C601.488 271.647 601.971 270.833 602.85 270.643C603.663 270.487 604.471 270.979 604.659 271.85C604.815 272.661 604.326 273.47 603.452 273.659ZM608.065 273.659C607.259 273.814 606.446 273.33 606.256 272.452C606.101 271.647 606.584 270.833 607.464 270.643C608.276 270.487 609.085 270.979 609.272 271.85C609.428 272.661 608.94 273.47 608.065 273.659ZM612.679 273.659C611.871 273.815 611.059 273.329 610.87 272.452C610.715 271.647 611.198 270.833 612.077 270.643C612.889 270.487 613.698 270.978 613.886 271.85C614.042 272.661 613.553 273.47 612.679 273.659Z" fill="url(#paint50_linear)" stroke="url(#paint51_linear)" stroke-width="0.5"/>
<path d="M633.461 285.019C631.653 285.019 630.125 286.24 629.656 287.901H627.631V284.483C627.631 283.891 627.151 283.411 626.559 283.411C625.967 283.411 625.487 283.891 625.487 284.483V288.973C625.487 289.566 625.967 290.046 626.559 290.046H629.656C630.125 291.707 631.653 292.928 633.461 292.928C635.641 292.928 637.415 291.154 637.415 288.973C637.415 286.793 635.641 285.019 633.461 285.019ZM633.461 290.783C632.464 290.783 631.652 289.971 631.652 288.973C631.652 287.976 632.464 287.164 633.461 287.164C634.459 287.164 635.271 287.976 635.271 288.973C635.271 289.971 634.459 290.783 633.461 290.783ZM621.868 291.2V284.483C621.868 283.891 621.388 283.411 620.795 283.411C620.203 283.411 619.723 283.891 619.723 284.483V291.2C618.063 291.669 616.842 293.197 616.842 295.005C616.842 297.186 618.615 298.96 620.795 298.96C622.976 298.96 624.749 297.186 624.749 295.005C624.749 293.197 623.528 291.669 621.868 291.2ZM620.795 296.815C619.798 296.815 618.986 296.003 618.986 295.005C618.986 294.008 619.798 293.196 620.795 293.196C621.793 293.196 622.605 294.008 622.605 295.005C622.605 296.003 621.793 296.815 620.795 296.815ZM615.032 283.411C614.44 283.411 613.96 283.891 613.96 284.483V287.901H611.935C611.466 286.24 609.938 285.019 608.13 285.019C605.95 285.019 604.176 286.793 604.176 288.973C604.176 291.154 605.95 292.928 608.13 292.928C609.938 292.928 611.466 291.707 611.935 290.046H615.032C615.624 290.046 616.104 289.566 616.104 288.973V284.483C616.104 283.891 615.624 283.411 615.032 283.411ZM608.13 290.783C607.132 290.783 606.32 289.971 606.32 288.973C606.32 287.976 607.132 287.164 608.13 287.164C609.127 287.164 609.939 287.976 609.939 288.973C609.939 289.971 609.127 290.783 608.13 290.783Z" fill="url(#paint52_linear)" stroke="url(#paint53_linear)" stroke-width="1.03"/>
<defs>
<linearGradient id="paint0_linear" x1="236.329" y1="214.836" x2="440.648" y2="214.836" gradientUnits="userSpaceOnUse">
<stop stop-color="white"/>
<stop offset="1" stop-color="white"/>
</linearGradient>
<linearGradient id="paint1_linear" x1="538" y1="207" x2="522" y2="207" gradientUnits="userSpaceOnUse">
<stop stop-color="#06EA84"/>
<stop offset="1" stop-color="#2BC47B"/>
</linearGradient>
<linearGradient id="paint2_linear" x1="538" y1="207" x2="522" y2="207" gradientUnits="userSpaceOnUse">
<stop stop-color="#06EA84"/>
<stop offset="1" stop-color="#2BC47B"/>
</linearGradient>
<linearGradient id="paint3_linear" x1="550" y1="206.5" x2="509" y2="206.5" gradientUnits="userSpaceOnUse">
<stop stop-color="#06EA84"/>
<stop offset="1" stop-color="#2BC47B"/>
</linearGradient>
<linearGradient id="paint4_linear" x1="71" y1="301.5" x2="28" y2="301.5" gradientUnits="userSpaceOnUse">
<stop stop-color="#06EA84"/>
<stop offset="1" stop-color="#2BC47B"/>
</linearGradient>
<linearGradient id="paint5_linear" x1="71" y1="301.5" x2="28" y2="301.5" gradientUnits="userSpaceOnUse">
<stop stop-color="#06EA84"/>
<stop offset="1" stop-color="#2BC47B"/>
</linearGradient>
<linearGradient id="paint6_linear" x1="71" y1="301.5" x2="28" y2="301.5" gradientUnits="userSpaceOnUse">
<stop stop-color="#06EA84"/>
<stop offset="1" stop-color="#2BC47B"/>
</linearGradient>
<linearGradient id="paint7_linear" x1="71" y1="301.5" x2="28" y2="301.5" gradientUnits="userSpaceOnUse">
<stop stop-color="#06EA84"/>
<stop offset="1" stop-color="#2BC47B"/>
</linearGradient>
<linearGradient id="paint8_linear" x1="71" y1="301.5" x2="28" y2="301.5" gradientUnits="userSpaceOnUse">
<stop stop-color="#06EA84"/>
<stop offset="1" stop-color="#2BC47B"/>
</linearGradient>
<linearGradient id="paint9_linear" x1="71" y1="301.5" x2="28" y2="301.5" gradientUnits="userSpaceOnUse">
<stop stop-color="#06EA84"/>
<stop offset="1" stop-color="#2BC47B"/>
</linearGradient>
<linearGradient id="paint10_linear" x1="71" y1="301.5" x2="28" y2="301.5" gradientUnits="userSpaceOnUse">
<stop stop-color="#06EA84"/>
<stop offset="1" stop-color="#2BC47B"/>
</linearGradient>
<linearGradient id="paint11_linear" x1="71" y1="301.5" x2="28" y2="301.5" gradientUnits="userSpaceOnUse">
<stop stop-color="#06EA84"/>
<stop offset="1" stop-color="#2BC47B"/>
</linearGradient>
<linearGradient id="paint12_linear" x1="71" y1="301.5" x2="28" y2="301.5" gradientUnits="userSpaceOnUse">
<stop stop-color="#06EA84"/>
<stop offset="1" stop-color="#2BC47B"/>
</linearGradient>
<linearGradient id="paint13_linear" x1="71" y1="301.5" x2="28" y2="301.5" gradientUnits="userSpaceOnUse">
<stop stop-color="#06EA84"/>
<stop offset="1" stop-color="#2BC47B"/>
</linearGradient>
<linearGradient id="paint14_linear" x1="71" y1="301.5" x2="28" y2="301.5" gradientUnits="userSpaceOnUse">
<stop stop-color="#06EA84"/>
<stop offset="1" stop-color="#2BC47B"/>
</linearGradient>
<linearGradient id="paint15_linear" x1="71" y1="301.5" x2="28" y2="301.5" gradientUnits="userSpaceOnUse">
<stop stop-color="#06EA84"/>
<stop offset="1" stop-color="#2BC47B"/>
</linearGradient>
<linearGradient id="paint16_linear" x1="71" y1="301.5" x2="28" y2="301.5" gradientUnits="userSpaceOnUse">
<stop stop-color="#06EA84"/>
<stop offset="1" stop-color="#2BC47B"/>
</linearGradient>
<linearGradient id="paint17_linear" x1="71" y1="301.5" x2="28" y2="301.5" gradientUnits="userSpaceOnUse">
<stop stop-color="#06EA84"/>
<stop offset="1" stop-color="#2BC47B"/>
</linearGradient>
<linearGradient id="paint18_linear" x1="71" y1="301.5" x2="28" y2="301.5" gradientUnits="userSpaceOnUse">
<stop stop-color="#06EA84"/>
<stop offset="1" stop-color="#2BC47B"/>
</linearGradient>
<linearGradient id="paint19_linear" x1="71" y1="301.5" x2="28" y2="301.5" gradientUnits="userSpaceOnUse">
<stop stop-color="#06EA84"/>
<stop offset="1" stop-color="#2BC47B"/>
</linearGradient>
<linearGradient id="paint20_linear" x1="71" y1="301.5" x2="28" y2="301.5" gradientUnits="userSpaceOnUse">
<stop stop-color="#06EA84"/>
<stop offset="1" stop-color="#2BC47B"/>
</linearGradient>
<linearGradient id="paint21_linear" x1="71" y1="301.5" x2="28" y2="301.5" gradientUnits="userSpaceOnUse">
<stop stop-color="#06EA84"/>
<stop offset="1" stop-color="#2BC47B"/>
</linearGradient>
<linearGradient id="paint22_linear" x1="71" y1="301.5" x2="28" y2="301.5" gradientUnits="userSpaceOnUse">
<stop stop-color="#06EA84"/>
<stop offset="1" stop-color="#2BC47B"/>
</linearGradient>
<linearGradient id="paint23_linear" x1="71" y1="301.5" x2="28" y2="301.5" gradientUnits="userSpaceOnUse">
<stop stop-color="#06EA84"/>
<stop offset="1" stop-color="#2BC47B"/>
</linearGradient>
<linearGradient id="paint24_linear" x1="71" y1="301.5" x2="28" y2="301.5" gradientUnits="userSpaceOnUse">
<stop stop-color="#06EA84"/>
<stop offset="1" stop-color="#2BC47B"/>
</linearGradient>
<linearGradient id="paint25_linear" x1="71" y1="301.5" x2="28" y2="301.5" gradientUnits="userSpaceOnUse">
<stop stop-color="#06EA84"/>
<stop offset="1" stop-color="#2BC47B"/>
</linearGradient>
<linearGradient id="paint26_linear" x1="71" y1="301.5" x2="28" y2="301.5" gradientUnits="userSpaceOnUse">
<stop stop-color="#06EA84"/>
<stop offset="1" stop-color="#2BC47B"/>
</linearGradient>
<linearGradient id="paint27_linear" x1="71" y1="301.5" x2="28" y2="301.5" gradientUnits="userSpaceOnUse">
<stop stop-color="#06EA84"/>
<stop offset="1" stop-color="#2BC47B"/>
</linearGradient>
<linearGradient id="paint28_linear" x1="71" y1="301.5" x2="28" y2="301.5" gradientUnits="userSpaceOnUse">
<stop stop-color="#06EA84"/>
<stop offset="1" stop-color="#2BC47B"/>
</linearGradient>
<linearGradient id="paint29_linear" x1="71" y1="301.5" x2="28" y2="301.5" gradientUnits="userSpaceOnUse">
<stop stop-color="#06EA84"/>
<stop offset="1" stop-color="#2BC47B"/>
</linearGradient>
<linearGradient id="paint30_linear" x1="71" y1="301.5" x2="28" y2="301.5" gradientUnits="userSpaceOnUse">
<stop stop-color="#06EA84"/>
<stop offset="1" stop-color="#2BC47B"/>
</linearGradient>
<linearGradient id="paint31_linear" x1="71" y1="301.5" x2="28" y2="301.5" gradientUnits="userSpaceOnUse">
<stop stop-color="#06EA84"/>
<stop offset="1" stop-color="#2BC47B"/>
</linearGradient>
<linearGradient id="paint32_linear" x1="71" y1="301.5" x2="28" y2="301.5" gradientUnits="userSpaceOnUse">
<stop stop-color="#06EA84"/>
<stop offset="1" stop-color="#2BC47B"/>
</linearGradient>
<linearGradient id="paint33_linear" x1="71" y1="301.5" x2="28" y2="301.5" gradientUnits="userSpaceOnUse">
<stop stop-color="#06EA84"/>
<stop offset="1" stop-color="#2BC47B"/>
</linearGradient>
<linearGradient id="paint34_linear" x1="71" y1="301.5" x2="28" y2="301.5" gradientUnits="userSpaceOnUse">
<stop stop-color="#06EA84"/>
<stop offset="1" stop-color="#2BC47B"/>
</linearGradient>
<linearGradient id="paint35_linear" x1="71" y1="301.5" x2="28" y2="301.5" gradientUnits="userSpaceOnUse">
<stop stop-color="#06EA84"/>
<stop offset="1" stop-color="#2BC47B"/>
</linearGradient>
<linearGradient id="paint36_linear" x1="71" y1="301.5" x2="28" y2="301.5" gradientUnits="userSpaceOnUse">
<stop stop-color="#06EA84"/>
<stop offset="1" stop-color="#2BC47B"/>
</linearGradient>
<linearGradient id="paint37_linear" x1="71" y1="301.5" x2="28" y2="301.5" gradientUnits="userSpaceOnUse">
<stop stop-color="#06EA84"/>
<stop offset="1" stop-color="#2BC47B"/>
</linearGradient>
<linearGradient id="paint38_linear" x1="71" y1="301.5" x2="28" y2="301.5" gradientUnits="userSpaceOnUse">
<stop stop-color="#06EA84"/>
<stop offset="1" stop-color="#2BC47B"/>
</linearGradient>
<linearGradient id="paint39_linear" x1="71" y1="301.5" x2="28" y2="301.5" gradientUnits="userSpaceOnUse">
<stop stop-color="#06EA84"/>
<stop offset="1" stop-color="#2BC47B"/>
</linearGradient>
<linearGradient id="paint40_linear" x1="620.014" y1="115.5" x2="579" y2="115.5" gradientUnits="userSpaceOnUse">
<stop stop-color="#06EA84"/>
<stop offset="1" stop-color="#2BC47B"/>
</linearGradient>
<linearGradient id="paint41_linear" x1="167.146" y1="169.994" x2="148.027" y2="169.994" gradientUnits="userSpaceOnUse">
<stop stop-color="#06EA84"/>
<stop offset="1" stop-color="#2BC47B"/>
</linearGradient>
<linearGradient id="paint42_linear" x1="167.146" y1="169.994" x2="148.027" y2="169.994" gradientUnits="userSpaceOnUse">
<stop stop-color="#06EA84"/>
<stop offset="1" stop-color="#2BC47B"/>
</linearGradient>
<linearGradient id="paint43_linear" x1="174.285" y1="170.5" x2="140" y2="170.5" gradientUnits="userSpaceOnUse">
<stop stop-color="#06EA84"/>
<stop offset="1" stop-color="#2BC47B"/>
</linearGradient>
<linearGradient id="paint44_linear" x1="174.285" y1="170.5" x2="140" y2="170.5" gradientUnits="userSpaceOnUse">
<stop stop-color="#06EA84"/>
<stop offset="1" stop-color="#2BC47B"/>
</linearGradient>
<linearGradient id="paint45_linear" x1="484.379" y1="383" x2="559.879" y2="383" gradientUnits="userSpaceOnUse">
<stop stop-color="#6BD6A3"/>
<stop offset="1" stop-color="#99B2C5"/>
</linearGradient>
<linearGradient id="paint46_linear" x1="481" y1="325" x2="556.5" y2="325" gradientUnits="userSpaceOnUse">
<stop stop-color="#6BD6A3"/>
<stop offset="1" stop-color="#99B2C5"/>
</linearGradient>
<linearGradient id="paint47_linear" x1="89.3122" y1="41.494" x2="69.6953" y2="41.494" gradientUnits="userSpaceOnUse">
<stop stop-color="#06EA84"/>
<stop offset="1" stop-color="#2BC47B"/>
</linearGradient>
<linearGradient id="paint48_linear" x1="83.8695" y1="42.2959" x2="54" y2="42.2959" gradientUnits="userSpaceOnUse">
<stop stop-color="#06EA84"/>
<stop offset="1" stop-color="#2BC47B"/>
</linearGradient>
<linearGradient id="paint49_linear" x1="95.0004" y1="47.8611" x2="85.2305" y2="47.8611" gradientUnits="userSpaceOnUse">
<stop stop-color="#06EA84"/>
<stop offset="1" stop-color="#2BC47B"/>
</linearGradient>
<linearGradient id="paint50_linear" x1="644.671" y1="286.76" x2="597" y2="286.76" gradientUnits="userSpaceOnUse">
<stop stop-color="#8AA0B4"/>
<stop offset="1" stop-color="#99B2C5"/>
</linearGradient>
<linearGradient id="paint51_linear" x1="644.671" y1="286.76" x2="597" y2="286.76" gradientUnits="userSpaceOnUse">
<stop stop-color="#8AA0B4"/>
<stop offset="1" stop-color="#99B2C5"/>
</linearGradient>
<linearGradient id="paint52_linear" x1="637.415" y1="291.185" x2="604.176" y2="291.185" gradientUnits="userSpaceOnUse">
<stop stop-color="#8AA0B4"/>
<stop offset="1" stop-color="#99B2C5"/>
</linearGradient>
<linearGradient id="paint53_linear" x1="637.415" y1="291.185" x2="604.176" y2="291.185" gradientUnits="userSpaceOnUse">
<stop stop-color="#8AA0B4"/>
<stop offset="1" stop-color="#99B2C5"/>
</linearGradient>
</defs>
</svg>
