<svg width="699" height="453" viewBox="0 0 699 453" fill="none" xmlns="http://www.w3.org/2000/svg">
<path d="M12.4286 344.448C13.1966 344.604 13.8086 344.97 14.2646 345.546C14.7326 346.11 14.9666 346.776 14.9666 347.544C14.9666 348.612 14.6066 349.458 13.8866 350.082C13.1786 350.694 12.1466 351 10.7906 351H5.33657V338.292H10.6826C11.9666 338.292 12.9506 338.574 13.6346 339.138C14.3306 339.702 14.6786 340.494 14.6786 341.514C14.6786 342.306 14.4686 342.954 14.0486 343.458C13.6406 343.962 13.1006 344.292 12.4286 344.448ZM7.87457 343.62H10.1606C10.7966 343.62 11.2766 343.482 11.6006 343.206C11.9366 342.918 12.1046 342.51 12.1046 341.982C12.1046 341.454 11.9426 341.046 11.6186 340.758C11.2946 340.47 10.7966 340.326 10.1246 340.326H7.87457V343.62ZM10.2866 348.93C10.9586 348.93 11.4746 348.786 11.8346 348.498C12.1946 348.198 12.3746 347.766 12.3746 347.202C12.3746 346.638 12.1886 346.206 11.8166 345.906C11.4566 345.594 10.9406 345.438 10.2686 345.438H7.87457V348.93H10.2866ZM26.1228 345.636C26.1228 345.888 26.0928 346.176 26.0328 346.5H18.7248C18.7608 347.388 19.0008 348.042 19.4448 348.462C19.8888 348.882 20.4408 349.092 21.1008 349.092C21.6888 349.092 22.1748 348.948 22.5588 348.66C22.9548 348.372 23.2068 347.982 23.3148 347.49H25.9968C25.8648 348.186 25.5828 348.81 25.1508 349.362C24.7188 349.914 24.1608 350.346 23.4768 350.658C22.8048 350.97 22.0548 351.126 21.2268 351.126C20.2548 351.126 19.3908 350.922 18.6348 350.514C17.8788 350.094 17.2908 349.5 16.8708 348.732C16.4508 347.964 16.2408 347.058 16.2408 346.014C16.2408 344.97 16.4508 344.064 16.8708 343.296C17.2908 342.516 17.8788 341.922 18.6348 341.514C19.3908 341.106 20.2548 340.902 21.2268 340.902C22.2108 340.902 23.0688 341.106 23.8008 341.514C24.5448 341.922 25.1148 342.486 25.5108 343.206C25.9188 343.914 26.1228 344.724 26.1228 345.636ZM23.5668 345.384C23.6028 344.568 23.3868 343.95 22.9188 343.53C22.4628 343.11 21.8988 342.9 21.2268 342.9C20.5428 342.9 19.9668 343.11 19.4988 343.53C19.0308 343.95 18.7728 344.568 18.7248 345.384H23.5668ZM30.4625 337.68V351H27.9245V337.68H30.4625ZM42.1364 345.636C42.1364 345.888 42.1064 346.176 42.0464 346.5H34.7384C34.7744 347.388 35.0144 348.042 35.4584 348.462C35.9024 348.882 36.4544 349.092 37.1144 349.092C37.7024 349.092 38.1884 348.948 38.5724 348.66C38.9684 348.372 39.2204 347.982 39.3284 347.49H42.0104C41.8784 348.186 41.5964 348.81 41.1644 349.362C40.7324 349.914 40.1744 350.346 39.4904 350.658C38.8184 350.97 38.0684 351.126 37.2404 351.126C36.2684 351.126 35.4044 350.922 34.6484 350.514C33.8924 350.094 33.3044 349.5 32.8844 348.732C32.4644 347.964 32.2544 347.058 32.2544 346.014C32.2544 344.97 32.4644 344.064 32.8844 343.296C33.3044 342.516 33.8924 341.922 34.6484 341.514C35.4044 341.106 36.2684 340.902 37.2404 340.902C38.2244 340.902 39.0824 341.106 39.8144 341.514C40.5584 341.922 41.1284 342.486 41.5244 343.206C41.9324 343.914 42.1364 344.724 42.1364 345.636ZM39.5804 345.384C39.6164 344.568 39.4004 343.95 38.9324 343.53C38.4764 343.11 37.9124 342.9 37.2404 342.9C36.5564 342.9 35.9804 343.11 35.5124 343.53C35.0444 343.95 34.7864 344.568 34.7384 345.384H39.5804ZM53.4781 341.028V351H50.9401V348.984C50.6761 349.656 50.2381 350.184 49.6261 350.568C49.0261 350.94 48.3301 351.126 47.5381 351.126C46.3861 351.126 45.4681 350.748 44.7841 349.992C44.1001 349.236 43.7581 348.18 43.7581 346.824V341.028H46.2781V346.536C46.2781 347.328 46.4821 347.946 46.8901 348.39C47.2981 348.822 47.8501 349.038 48.5461 349.038C49.2781 349.038 49.8601 348.804 50.2921 348.336C50.7241 347.868 50.9401 347.196 50.9401 346.32V341.028H53.4781ZM60.2678 340.902C61.5518 340.902 62.6198 341.25 63.4718 341.946C64.3358 342.642 64.8758 343.59 65.0918 344.79H62.4098C62.3018 344.262 62.0558 343.848 61.6718 343.548C61.2878 343.236 60.8018 343.08 60.2138 343.08C59.5418 343.08 58.9778 343.332 58.5218 343.836C58.0778 344.328 57.8558 345.054 57.8558 346.014C57.8558 346.974 58.0778 347.706 58.5218 348.21C58.9778 348.702 59.5418 348.948 60.2138 348.948C60.8018 348.948 61.2878 348.798 61.6718 348.498C62.0558 348.186 62.3018 347.766 62.4098 347.238H65.0918C64.8758 348.438 64.3358 349.386 63.4718 350.082C62.6198 350.778 61.5518 351.126 60.2678 351.126C59.2958 351.126 58.4318 350.922 57.6758 350.514C56.9198 350.094 56.3318 349.5 55.9118 348.732C55.4918 347.964 55.2818 347.058 55.2818 346.014C55.2818 344.97 55.4918 344.064 55.9118 343.296C56.3318 342.516 56.9198 341.922 57.6758 341.514C58.4318 341.106 59.2958 340.902 60.2678 340.902ZM72.8352 340.884C73.9872 340.884 74.9052 341.262 75.5892 342.018C76.2732 342.774 76.6152 343.836 76.6152 345.204V351H74.0952V345.492C74.0952 344.7 73.8912 344.088 73.4832 343.656C73.0752 343.212 72.5172 342.99 71.8092 342.99C71.0892 342.99 70.5132 343.224 70.0812 343.692C69.6492 344.16 69.4332 344.832 69.4332 345.708V351H66.8952V337.68H69.4332V343.026C69.6972 342.354 70.1292 341.832 70.7292 341.46C71.3412 341.076 72.0432 340.884 72.8352 340.884ZM84.1763 348.822V351H82.8443C81.7283 351 80.8703 350.73 80.2703 350.19C79.6823 349.65 79.3883 348.75 79.3883 347.49V343.17H78.0023V341.028H79.3883V338.562H81.9263V341.028H84.1583V343.17H81.9263V347.526C81.9263 348.006 82.0223 348.342 82.2143 348.534C82.4063 348.726 82.7303 348.822 83.1863 348.822H84.1763ZM95.5426 341.028V351H93.0046V348.984C92.7406 349.656 92.3026 350.184 91.6906 350.568C91.0906 350.94 90.3946 351.126 89.6026 351.126C88.4506 351.126 87.5326 350.748 86.8486 349.992C86.1646 349.236 85.8226 348.18 85.8226 346.824V341.028H88.3426V346.536C88.3426 347.328 88.5466 347.946 88.9546 348.39C89.3626 348.822 89.9146 349.038 90.6106 349.038C91.3426 349.038 91.9246 348.804 92.3566 348.336C92.7886 347.868 93.0046 347.196 93.0046 346.32V341.028H95.5426ZM103.79 340.884C104.942 340.884 105.86 341.262 106.544 342.018C107.228 342.774 107.57 343.836 107.57 345.204V351H105.05V345.492C105.05 344.7 104.846 344.088 104.438 343.656C104.03 343.212 103.472 342.99 102.764 342.99C102.044 342.99 101.468 343.224 101.036 343.692C100.604 344.16 100.388 344.832 100.388 345.708V351H97.8502V341.028H100.388V343.026C100.652 342.354 101.084 341.832 101.684 341.46C102.296 341.076 102.998 340.884 103.79 340.884ZM113.709 340.902C114.549 340.902 115.269 341.1 115.869 341.496C116.469 341.892 116.895 342.426 117.147 343.098V341.028H119.667V351.036C119.667 351.96 119.481 352.788 119.109 353.52C118.749 354.264 118.203 354.846 117.471 355.266C116.751 355.686 115.875 355.896 114.843 355.896C113.403 355.896 112.239 355.554 111.351 354.87C110.463 354.186 109.923 353.256 109.731 352.08H112.233C112.377 352.584 112.653 352.974 113.061 353.25C113.481 353.538 114.015 353.682 114.663 353.682C115.407 353.682 116.007 353.46 116.463 353.016C116.919 352.584 117.147 351.924 117.147 351.036V348.912C116.895 349.584 116.469 350.124 115.869 350.532C115.269 350.928 114.549 351.126 113.709 351.126C112.869 351.126 112.113 350.922 111.441 350.514C110.769 350.106 110.241 349.518 109.857 348.75C109.485 347.97 109.299 347.058 109.299 346.014C109.299 344.97 109.485 344.064 109.857 343.296C110.241 342.516 110.769 341.922 111.441 341.514C112.113 341.106 112.869 340.902 113.709 340.902ZM114.501 343.116C113.709 343.116 113.073 343.374 112.593 343.89C112.113 344.406 111.873 345.114 111.873 346.014C111.873 346.914 112.113 347.622 112.593 348.138C113.073 348.642 113.709 348.894 114.501 348.894C115.269 348.894 115.899 348.636 116.391 348.12C116.895 347.592 117.147 346.89 117.147 346.014C117.147 345.126 116.895 344.424 116.391 343.908C115.899 343.38 115.269 343.116 114.501 343.116Z" fill="#27364D"/>
<path d="M47.8788 79.448C48.6468 79.604 49.2588 79.97 49.7148 80.546C50.1828 81.11 50.4168 81.776 50.4168 82.544C50.4168 83.612 50.0568 84.458 49.3368 85.082C48.6288 85.694 47.5968 86 46.2408 86H40.7868V73.292H46.1328C47.4168 73.292 48.4008 73.574 49.0848 74.138C49.7808 74.702 50.1288 75.494 50.1288 76.514C50.1288 77.306 49.9188 77.954 49.4988 78.458C49.0908 78.962 48.5508 79.292 47.8788 79.448ZM43.3248 78.62H45.6108C46.2468 78.62 46.7268 78.482 47.0508 78.206C47.3868 77.918 47.5548 77.51 47.5548 76.982C47.5548 76.454 47.3928 76.046 47.0688 75.758C46.7448 75.47 46.2468 75.326 45.5748 75.326H43.3248V78.62ZM45.7368 83.93C46.4088 83.93 46.9248 83.786 47.2848 83.498C47.6448 83.198 47.8248 82.766 47.8248 82.202C47.8248 81.638 47.6388 81.206 47.2668 80.906C46.9068 80.594 46.3908 80.438 45.7188 80.438H43.3248V83.93H45.7368ZM61.573 80.636C61.573 80.888 61.543 81.176 61.483 81.5H54.175C54.211 82.388 54.451 83.042 54.895 83.462C55.339 83.882 55.891 84.092 56.551 84.092C57.139 84.092 57.625 83.948 58.009 83.66C58.405 83.372 58.657 82.982 58.765 82.49H61.447C61.315 83.186 61.033 83.81 60.601 84.362C60.169 84.914 59.611 85.346 58.927 85.658C58.255 85.97 57.505 86.126 56.677 86.126C55.705 86.126 54.841 85.922 54.085 85.514C53.329 85.094 52.741 84.5 52.321 83.732C51.901 82.964 51.691 82.058 51.691 81.014C51.691 79.97 51.901 79.064 52.321 78.296C52.741 77.516 53.329 76.922 54.085 76.514C54.841 76.106 55.705 75.902 56.677 75.902C57.661 75.902 58.519 76.106 59.251 76.514C59.995 76.922 60.565 77.486 60.961 78.206C61.369 78.914 61.573 79.724 61.573 80.636ZM59.017 80.384C59.053 79.568 58.837 78.95 58.369 78.53C57.913 78.11 57.349 77.9 56.677 77.9C55.993 77.9 55.417 78.11 54.949 78.53C54.481 78.95 54.223 79.568 54.175 80.384H59.017ZM65.9127 72.68V86H63.3747V72.68H65.9127ZM77.5866 80.636C77.5866 80.888 77.5566 81.176 77.4966 81.5H70.1886C70.2246 82.388 70.4646 83.042 70.9086 83.462C71.3526 83.882 71.9046 84.092 72.5646 84.092C73.1526 84.092 73.6386 83.948 74.0226 83.66C74.4186 83.372 74.6706 82.982 74.7786 82.49H77.4606C77.3286 83.186 77.0466 83.81 76.6146 84.362C76.1826 84.914 75.6246 85.346 74.9406 85.658C74.2686 85.97 73.5186 86.126 72.6906 86.126C71.7186 86.126 70.8546 85.922 70.0986 85.514C69.3426 85.094 68.7546 84.5 68.3346 83.732C67.9146 82.964 67.7046 82.058 67.7046 81.014C67.7046 79.97 67.9146 79.064 68.3346 78.296C68.7546 77.516 69.3426 76.922 70.0986 76.514C70.8546 76.106 71.7186 75.902 72.6906 75.902C73.6746 75.902 74.5326 76.106 75.2646 76.514C76.0086 76.922 76.5786 77.486 76.9746 78.206C77.3826 78.914 77.5866 79.724 77.5866 80.636ZM75.0306 80.384C75.0666 79.568 74.8506 78.95 74.3826 78.53C73.9266 78.11 73.3626 77.9 72.6906 77.9C72.0066 77.9 71.4306 78.11 70.9626 78.53C70.4946 78.95 70.2366 79.568 70.1886 80.384H75.0306ZM83.2943 75.902C84.1343 75.902 84.8543 76.1 85.4543 76.496C86.0543 76.892 86.4803 77.426 86.7323 78.098V76.028H89.2523V86.036C89.2523 86.96 89.0663 87.788 88.6943 88.52C88.3343 89.264 87.7883 89.846 87.0563 90.266C86.3363 90.686 85.4603 90.896 84.4283 90.896C82.9883 90.896 81.8243 90.554 80.9363 89.87C80.0483 89.186 79.5083 88.256 79.3163 87.08H81.8183C81.9623 87.584 82.2383 87.974 82.6463 88.25C83.0663 88.538 83.6003 88.682 84.2483 88.682C84.9923 88.682 85.5923 88.46 86.0483 88.016C86.5043 87.584 86.7323 86.924 86.7323 86.036V83.912C86.4803 84.584 86.0543 85.124 85.4543 85.532C84.8543 85.928 84.1343 86.126 83.2943 86.126C82.4543 86.126 81.6983 85.922 81.0263 85.514C80.3543 85.106 79.8263 84.518 79.4423 83.75C79.0703 82.97 78.8843 82.058 78.8843 81.014C78.8843 79.97 79.0703 79.064 79.4423 78.296C79.8263 77.516 80.3543 76.922 81.0263 76.514C81.6983 76.106 82.4543 75.902 83.2943 75.902ZM84.0863 78.116C83.2943 78.116 82.6583 78.374 82.1783 78.89C81.6983 79.406 81.4583 80.114 81.4583 81.014C81.4583 81.914 81.6983 82.622 82.1783 83.138C82.6583 83.642 83.2943 83.894 84.0863 83.894C84.8543 83.894 85.4843 83.636 85.9763 83.12C86.4803 82.592 86.7323 81.89 86.7323 81.014C86.7323 80.126 86.4803 79.424 85.9763 78.908C85.4843 78.38 84.8543 78.116 84.0863 78.116ZM101.092 76.028V86H98.5544V83.984C98.2904 84.656 97.8524 85.184 97.2404 85.568C96.6404 85.94 95.9444 86.126 95.1524 86.126C94.0004 86.126 93.0824 85.748 92.3984 84.992C91.7144 84.236 91.3724 83.18 91.3724 81.824V76.028H93.8924V81.536C93.8924 82.328 94.0964 82.946 94.5044 83.39C94.9124 83.822 95.4644 84.038 96.1604 84.038C96.8924 84.038 97.4744 83.804 97.9064 83.336C98.3384 82.868 98.5544 82.196 98.5544 81.32V76.028H101.092ZM109.34 75.884C110.492 75.884 111.41 76.262 112.094 77.018C112.778 77.774 113.12 78.836 113.12 80.204V86H110.6V80.492C110.6 79.7 110.396 79.088 109.988 78.656C109.58 78.212 109.022 77.99 108.314 77.99C107.594 77.99 107.018 78.224 106.586 78.692C106.154 79.16 105.938 79.832 105.938 80.708V86H103.4V76.028H105.938V78.026C106.202 77.354 106.634 76.832 107.234 76.46C107.846 76.076 108.548 75.884 109.34 75.884ZM119.259 75.902C120.099 75.902 120.819 76.1 121.419 76.496C122.019 76.892 122.445 77.426 122.697 78.098V76.028H125.217V86.036C125.217 86.96 125.031 87.788 124.659 88.52C124.299 89.264 123.753 89.846 123.021 90.266C122.301 90.686 121.425 90.896 120.393 90.896C118.953 90.896 117.789 90.554 116.901 89.87C116.013 89.186 115.473 88.256 115.281 87.08H117.783C117.927 87.584 118.203 87.974 118.611 88.25C119.031 88.538 119.565 88.682 120.213 88.682C120.957 88.682 121.557 88.46 122.013 88.016C122.469 87.584 122.697 86.924 122.697 86.036V83.912C122.445 84.584 122.019 85.124 121.419 85.532C120.819 85.928 120.099 86.126 119.259 86.126C118.419 86.126 117.663 85.922 116.991 85.514C116.319 85.106 115.791 84.518 115.407 83.75C115.035 82.97 114.849 82.058 114.849 81.014C114.849 79.97 115.035 79.064 115.407 78.296C115.791 77.516 116.319 76.922 116.991 76.514C117.663 76.106 118.419 75.902 119.259 75.902ZM120.051 78.116C119.259 78.116 118.623 78.374 118.143 78.89C117.663 79.406 117.423 80.114 117.423 81.014C117.423 81.914 117.663 82.622 118.143 83.138C118.623 83.642 119.259 83.894 120.051 83.894C120.819 83.894 121.449 83.636 121.941 83.12C122.445 82.592 122.697 81.89 122.697 81.014C122.697 80.126 122.445 79.424 121.941 78.908C121.449 78.38 120.819 78.116 120.051 78.116Z" fill="#27364D"/>
<path d="M189.844 372.133L357.595 428.404L518.623 359.834L354.233 302.501L189.844 372.133Z" stroke="#2BC47C" stroke-width="3" stroke-miterlimit="10" stroke-linecap="round"/>
<path d="M350.164 23.3579L249.301 63.9687V371.425L354.853 406.284L453.682 365.408V57.8638L350.164 23.3579Z" fill="url(#paint0_linear)"/>
<path d="M352.818 383.723V405.311L249.301 371.425V350.987L352.818 383.723Z" fill="#F6FBFF"/>
<path d="M453.68 365.408V345.855L358.656 383.811V404.25L453.68 365.408Z" fill="#D8E5F1"/>
<path d="M352.818 355.765V377.353L249.301 343.466V323.028L352.818 355.765Z" fill="#F6FBFF"/>
<path d="M453.68 337.45V317.896L358.656 355.853V376.291L453.68 337.45Z" fill="#D8E5F1"/>
<path d="M352.818 327.54V349.129L249.301 315.331V294.893L352.818 327.54Z" fill="#F6FBFF"/>
<path d="M453.68 309.314V289.761L358.656 327.717V348.155L453.68 309.314Z" fill="#D8E5F1"/>
<path d="M352.818 299.582V321.17L249.301 287.372V266.845L352.818 299.582Z" fill="#F6FBFF"/>
<path d="M453.68 281.356V261.802L358.656 299.67V320.197L453.68 281.356Z" fill="#D8E5F1"/>
<path d="M352.818 271.446V293.034L249.301 259.148V238.709L352.818 271.446Z" fill="#F6FBFF"/>
<path d="M453.68 253.131V233.667L358.656 271.534V291.973L453.68 253.131Z" fill="#D8E5F1"/>
<path d="M352.818 243.487V265.076L249.301 231.189V210.751L352.818 243.487Z" fill="#F6FBFF"/>
<path d="M453.68 225.173V205.708L358.656 243.576V264.014L453.68 225.173Z" fill="#D8E5F1"/>
<path d="M352.818 215.352V236.94L249.301 203.054V182.616L352.818 215.352Z" fill="#F6FBFF"/>
<path d="M453.68 197.037V177.484L358.656 215.44V235.878L453.68 197.037Z" fill="#D8E5F1"/>
<path d="M352.818 187.394V208.982L249.301 175.095V154.657L352.818 187.394Z" fill="#F6FBFF"/>
<path d="M453.68 169.079V149.525L358.656 187.482V207.92L453.68 169.079Z" fill="#D8E5F1"/>
<path d="M352.818 159.17V180.758L249.301 146.96V126.522L352.818 159.17Z" fill="#F6FBFF"/>
<path d="M453.68 140.943V121.39L358.656 159.347V179.785L453.68 140.943Z" fill="#D8E5F1"/>
<path d="M352.818 131.034V152.622L249.301 118.735V98.2974L352.818 131.034Z" fill="#F6FBFF"/>
<path d="M453.68 112.719V93.2544L358.656 131.122V151.56L453.68 112.719Z" fill="#D8E5F1"/>
<path d="M352.818 103.075V124.663L249.301 90.777V70.3389L352.818 103.075Z" fill="#F6FBFF"/>
<path d="M453.68 84.7607V65.2959L358.656 103.164V123.602L453.68 84.7607Z" fill="#D8E5F1"/>
<path d="M249.301 63.9687L354.853 96.3511L453.682 57.8638L351.226 23.3579L249.301 63.9687Z" fill="#E9F1F8"/>
<path d="M306.281 52.6436L353.439 67.0652L397.501 49.9008L351.758 34.5059L306.281 52.6436Z" fill="#E9F1F8"/>
<path d="M397.676 58.6602V50.2549L353.438 67.5963V76.8863L397.676 58.6602Z" fill="#D8E5F1"/>
<path d="M352.818 67.4191V76.7092L305.66 60.6949V53.0859L352.818 67.4191Z" fill="#F6FBFF"/>
<circle opacity="0.1" cx="453" cy="205" r="24" fill="#2BC47C"/>
<circle cx="453" cy="205" r="12" fill="#2BC47C"/>
<circle opacity="0.1" cx="287" cy="171" r="24" fill="#2BC47C"/>
<circle cx="287" cy="171" r="12" fill="#2BC47C"/>
<circle opacity="0.1" cx="287" cy="45" r="24" fill="#2BC47C"/>
<circle cx="287" cy="45" r="12" fill="#2BC47C"/>
<circle opacity="0.1" cx="253" cy="300" r="24" fill="#2BC47C"/>
<circle cx="253" cy="300" r="12" fill="#2BC47C"/>
<circle opacity="0.1" cx="422" cy="117" r="24" fill="#2BC47C"/>
<circle cx="422" cy="117" r="12" fill="#2BC47C"/>
<line x1="453" y1="205" x2="507" y2="205" stroke="#2BC47C" stroke-width="2" stroke-dasharray="2 4"/>
<line x1="204" y1="171" x2="295" y2="171" stroke="#2BC47C" stroke-width="2" stroke-dasharray="2 4"/>
<line x1="125" y1="44" x2="295" y2="44" stroke="#2BC47C" stroke-width="2" stroke-dasharray="2 4"/>
<line x1="102" y1="301" x2="255" y2="301" stroke="#2BC47C" stroke-width="2" stroke-dasharray="2 4"/>
<path d="M538.556 220C538.419 220 538.281 219.97 538.153 219.906C537.79 219.726 537.599 219.327 537.69 218.938L540.105 208.733H535.889C535.541 208.733 535.225 208.535 535.081 208.227C534.936 207.919 534.989 207.556 535.217 207.3L546.772 194.3C547.04 193.998 547.483 193.914 547.847 194.094C548.211 194.274 548.402 194.674 548.31 195.062L545.895 205.266H550.111C550.459 205.266 550.775 205.465 550.919 205.773C551.064 206.081 551.011 206.444 550.783 206.7L539.228 219.7C539.055 219.896 538.808 220 538.556 220ZM537.836 207H541.222C541.493 207 541.749 207.12 541.917 207.327C542.086 207.533 542.148 207.803 542.088 208.061L540.226 215.931L548.164 207H544.778C544.507 207 544.251 206.879 544.082 206.673C543.914 206.467 543.851 206.196 543.911 205.938L545.774 198.069L537.836 207Z" fill="url(#paint1_linear)" stroke="url(#paint2_linear)"/>
<circle cx="542.5" cy="206.5" r="20.5" stroke="url(#paint3_linear)" stroke-width="4"/>
<path d="M69.9697 294.031C68.0745 292.136 65.3989 290.909 62.5004 290.909C59.6019 290.909 56.9263 292.08 55.0311 294.031C53.1359 295.926 51.9096 298.601 51.9096 301.5C51.9096 304.399 53.1359 307.074 55.0311 308.969C56.9263 310.864 59.6019 312.091 62.5004 312.091C65.3989 312.091 68.0745 310.92 69.9697 308.969C71.8649 307.074 73.0912 304.399 73.0912 301.5C73.0912 298.601 71.9206 295.926 69.9697 294.031ZM67.963 306.963C66.5695 308.356 64.6186 309.192 62.5004 309.192C60.3823 309.192 58.4313 308.356 57.0378 306.963C55.6443 305.569 54.8082 303.618 54.8082 301.5C54.8082 299.382 55.6443 297.431 57.0378 296.037C58.4313 294.644 60.3823 293.808 62.5004 293.808C64.6186 293.808 66.5695 294.644 67.963 296.037C69.3566 297.431 70.1927 299.382 70.1927 301.5C70.1927 303.618 69.3566 305.569 67.963 306.963Z" fill="url(#paint4_linear)"/>
<path fill-rule="evenodd" clip-rule="evenodd" d="M54.7248 293.729C56.7008 291.696 59.4866 290.479 62.5004 290.479C65.5193 290.479 68.3013 291.755 70.2716 293.724C72.3044 295.7 73.5212 298.486 73.5212 301.5C73.5212 304.519 72.2451 307.301 70.2759 309.271C68.3 311.304 65.5142 312.521 62.5004 312.521C59.4804 312.521 56.6975 311.244 54.7271 309.273C52.7567 307.303 51.4796 304.52 51.4796 301.5C51.4796 298.481 52.7557 295.699 54.7248 293.729ZM62.5004 291.339C59.7183 291.339 57.1539 292.463 55.3395 294.33L55.3352 294.335C53.5152 296.155 52.3396 298.723 52.3396 301.5C52.3396 304.277 53.5152 306.845 55.3352 308.665C57.1552 310.485 59.7234 311.661 62.5004 311.661C65.2826 311.661 67.8469 310.537 69.6613 308.67L69.6656 308.665C71.4856 306.845 72.6612 304.277 72.6612 301.5C72.6612 298.718 71.5378 296.153 69.6701 294.339L69.6656 294.335C67.8456 292.515 65.2774 291.339 62.5004 291.339ZM62.5004 294.238C60.4959 294.238 58.6545 295.029 57.3419 296.341C56.0292 297.654 55.2382 299.496 55.2382 301.5C55.2382 303.504 56.0292 305.346 57.3419 306.659C58.6545 307.971 60.4959 308.762 62.5004 308.762C64.5049 308.762 66.3463 307.971 67.659 306.659C68.9716 305.346 69.7627 303.504 69.7627 301.5C69.7627 299.496 68.9716 297.654 67.659 296.341C66.3463 295.029 64.5049 294.238 62.5004 294.238ZM56.7337 295.733C58.2082 294.259 60.2686 293.378 62.5004 293.378C64.7323 293.378 66.7927 294.259 68.2671 295.733C69.7415 297.208 70.6227 299.268 70.6227 301.5C70.6227 303.732 69.7415 305.792 68.2671 307.267C66.7927 308.741 64.7323 309.622 62.5004 309.622C60.2686 309.622 58.2082 308.741 56.7337 307.267C55.2593 305.792 54.3782 303.732 54.3782 301.5C54.3782 299.268 55.2593 297.208 56.7337 295.733Z" fill="url(#paint5_linear)"/>
<path fill-rule="evenodd" clip-rule="evenodd" d="M69.366 294.643L69.3616 294.639C67.6168 292.894 65.1559 291.769 62.5004 291.769C59.8347 291.769 57.3815 292.845 55.648 294.63L55.6436 294.634L55.6392 294.639C53.8945 296.384 52.7696 298.844 52.7696 301.5C52.7696 304.156 53.8945 306.616 55.6392 308.361C57.384 310.106 59.8449 311.231 62.5004 311.231C65.1662 311.231 67.6193 310.155 69.3528 308.37L69.3572 308.366L69.3616 308.361C71.1064 306.616 72.2312 304.156 72.2312 301.5C72.2312 298.834 71.155 296.381 69.3705 294.648L69.366 294.643ZM69.9697 294.031C71.9206 295.926 73.0912 298.601 73.0912 301.5C73.0912 304.399 71.8649 307.074 69.9697 308.969C68.0745 310.92 65.3989 312.091 62.5004 312.091C59.6019 312.091 56.9263 310.864 55.0311 308.969C53.1359 307.074 51.9096 304.399 51.9096 301.5C51.9096 298.601 53.1359 295.926 55.0311 294.031C56.9263 292.08 59.6019 290.909 62.5004 290.909C65.3989 290.909 68.0745 292.136 69.9697 294.031ZM68.5711 307.571C67.0158 309.126 64.8459 310.052 62.5004 310.052C60.1549 310.052 57.985 309.126 56.4297 307.571C54.8744 306.015 53.9481 303.846 53.9481 301.5C53.9481 299.154 54.8744 296.985 56.4297 295.429C57.985 293.874 60.1549 292.948 62.5004 292.948C64.8459 292.948 67.0158 293.874 68.5711 295.429C70.1265 296.985 71.0527 299.154 71.0527 301.5C71.0527 303.846 70.1265 306.015 68.5711 307.571ZM62.5004 309.192C64.6186 309.192 66.5695 308.356 67.963 306.963C69.3566 305.569 70.1927 303.618 70.1927 301.5C70.1927 299.382 69.3566 297.431 67.963 296.037C66.5695 294.644 64.6186 293.808 62.5004 293.808C60.3823 293.808 58.4313 294.644 57.0378 296.037C55.6443 297.431 54.8082 299.382 54.8082 301.5C54.8082 303.618 55.6443 305.569 57.0378 306.963C58.4313 308.356 60.3823 309.192 62.5004 309.192Z" fill="url(#paint6_linear)"/>
<path fill-rule="evenodd" clip-rule="evenodd" d="M54.7248 293.729C56.7008 291.696 59.4866 290.479 62.5004 290.479C65.5193 290.479 68.3013 291.755 70.2716 293.724C72.3044 295.7 73.5212 298.486 73.5212 301.5C73.5212 304.519 72.2451 307.301 70.2759 309.271C68.3 311.304 65.5142 312.521 62.5004 312.521C59.4804 312.521 56.6975 311.244 54.7271 309.273C52.7567 307.303 51.4796 304.52 51.4796 301.5C51.4796 298.481 52.7557 295.699 54.7248 293.729ZM62.5004 292.199C59.951 292.199 57.6091 293.228 55.9564 294.93L55.9477 294.938L55.9433 294.943C54.2738 296.612 53.1996 298.966 53.1996 301.5C53.1996 304.034 54.2738 306.388 55.9433 308.057C57.6128 309.727 59.9663 310.801 62.5004 310.801C65.0498 310.801 67.3917 309.772 69.0444 308.07L69.053 308.062L69.0575 308.057C70.727 306.388 71.8012 304.034 71.8012 301.5C71.8012 298.951 70.7721 296.609 69.0709 294.956L69.0619 294.947L69.0576 294.943C67.388 293.273 65.0345 292.199 62.5004 292.199ZM69.6656 294.335L69.6701 294.339L69.366 294.643L69.6656 294.335ZM56.1256 295.125C57.7618 293.489 60.0412 292.518 62.5004 292.518C64.9596 292.518 67.239 293.489 68.8752 295.125C70.5114 296.761 71.4827 299.041 71.4827 301.5C71.4827 303.959 70.5114 306.239 68.8752 307.875C67.239 309.511 64.9596 310.482 62.5004 310.482C60.0412 310.482 57.7618 309.511 56.1256 307.875C54.4894 306.239 53.5181 303.959 53.5181 301.5C53.5181 299.041 54.4894 296.761 56.1256 295.125ZM62.5004 294.238C60.4959 294.238 58.6545 295.029 57.3419 296.341C56.0292 297.654 55.2382 299.496 55.2382 301.5C55.2382 303.504 56.0292 305.346 57.3419 306.659C58.6545 307.971 60.4959 308.762 62.5004 308.762C64.5049 308.762 66.3463 307.971 67.659 306.659C68.9716 305.346 69.7627 303.504 69.7627 301.5C69.7627 299.496 68.9716 297.654 67.659 296.341C66.3463 295.029 64.5049 294.238 62.5004 294.238Z" fill="url(#paint7_linear)"/>
<path d="M82.1207 300.051H77.8287C77.0483 300.051 76.3794 300.72 76.3794 301.5C76.3794 302.281 77.0483 302.949 77.8287 302.949H82.1207C82.9011 302.949 83.57 302.281 83.57 301.5C83.57 300.72 82.9011 300.051 82.1207 300.051Z" fill="url(#paint8_linear)"/>
<path fill-rule="evenodd" clip-rule="evenodd" d="M75.9494 301.5C75.9494 300.482 76.8108 299.621 77.8287 299.621H82.1207C83.1386 299.621 84 300.482 84 301.5C84 302.518 83.1386 303.379 82.1207 303.379H77.8287C76.8108 303.379 75.9494 302.518 75.9494 301.5ZM77.8287 300.481C77.2858 300.481 76.8094 300.957 76.8094 301.5C76.8094 302.043 77.2858 302.519 77.8287 302.519H82.1207C82.6636 302.519 83.14 302.043 83.14 301.5C83.14 300.957 82.6636 300.481 82.1207 300.481H77.8287Z" fill="url(#paint9_linear)"/>
<path fill-rule="evenodd" clip-rule="evenodd" d="M82.1207 300.911H77.8287C77.5233 300.911 77.2394 301.195 77.2394 301.5C77.2394 301.806 77.5233 302.089 77.8287 302.089H82.1207C82.4261 302.089 82.71 301.806 82.71 301.5C82.71 301.195 82.4261 300.911 82.1207 300.911ZM77.8287 300.051H82.1207C82.9011 300.051 83.57 300.72 83.57 301.5C83.57 302.281 82.9011 302.949 82.1207 302.949H77.8287C77.0483 302.949 76.3794 302.281 76.3794 301.5C76.3794 300.72 77.0483 300.051 77.8287 300.051Z" fill="url(#paint10_linear)"/>
<path fill-rule="evenodd" clip-rule="evenodd" d="M75.9494 301.5C75.9494 300.482 76.8108 299.621 77.8287 299.621H82.1207C83.1386 299.621 84 300.482 84 301.5C84 302.518 83.1386 303.379 82.1207 303.379H77.8287C76.8108 303.379 75.9494 302.518 75.9494 301.5ZM76.8742 301.156C76.9291 301.013 77.0149 300.888 77.1155 300.787C77.216 300.686 77.3418 300.601 77.4844 300.546C77.2079 300.652 76.9805 300.879 76.8742 301.156ZM76.8742 301.844C77.0222 302.23 77.4052 302.519 77.8287 302.519C77.5434 302.519 77.2911 302.389 77.1155 302.213C77.0149 302.113 76.9291 301.987 76.8742 301.844ZM83.0752 301.156C82.9272 300.771 82.5442 300.481 82.1207 300.481C82.4061 300.481 82.6583 300.611 82.834 300.787C82.9345 300.888 83.0203 301.013 83.0752 301.156ZM83.0752 301.844C83.0203 301.987 82.9345 302.113 82.834 302.213C82.7334 302.314 82.6076 302.4 82.465 302.455C82.7415 302.348 82.9689 302.121 83.0752 301.844ZM77.7236 301.395C77.6809 301.438 77.6694 301.48 77.6694 301.5C77.6694 301.52 77.6809 301.563 77.7236 301.605C77.7663 301.648 77.8086 301.659 77.8287 301.659H82.1207C82.1408 301.659 82.1832 301.648 82.2258 301.605C82.2685 301.563 82.28 301.52 82.28 301.5C82.28 301.48 82.2685 301.438 82.2258 301.395C82.1832 301.352 82.1408 301.341 82.1207 301.341H77.8287C77.8086 301.341 77.7663 301.352 77.7236 301.395Z" fill="url(#paint11_linear)"/>
<path d="M62.4998 315.38C61.7194 315.38 61.0505 316.049 61.0505 316.829V321.121C61.0505 321.902 61.7194 322.57 62.4998 322.57C63.2802 322.57 63.9491 321.902 63.9491 321.121V316.829C63.9491 316.049 63.2802 315.38 62.4998 315.38Z" fill="url(#paint12_linear)"/>
<path fill-rule="evenodd" clip-rule="evenodd" d="M60.6205 316.829C60.6205 315.811 61.4819 314.95 62.4998 314.95C63.5176 314.95 64.3791 315.811 64.3791 316.829V321.121C64.3791 322.139 63.5176 323 62.4998 323C61.4819 323 60.6205 322.139 60.6205 321.121V316.829ZM62.4998 315.81C61.9569 315.81 61.4805 316.286 61.4805 316.829V321.121C61.4805 321.664 61.9569 322.14 62.4998 322.14C63.0427 322.14 63.5191 321.664 63.5191 321.121V316.829C63.5191 316.286 63.0427 315.81 62.4998 315.81Z" fill="url(#paint13_linear)"/>
<path fill-rule="evenodd" clip-rule="evenodd" d="M62.4998 316.24C62.1944 316.24 61.9105 316.524 61.9105 316.829V321.121C61.9105 321.427 62.1944 321.71 62.4998 321.71C62.8052 321.71 63.089 321.427 63.089 321.121V316.829C63.089 316.524 62.8052 316.24 62.4998 316.24ZM61.0505 316.829C61.0505 316.049 61.7194 315.38 62.4998 315.38C63.2802 315.38 63.9491 316.049 63.9491 316.829V321.121C63.9491 321.902 63.2802 322.57 62.4998 322.57C61.7194 322.57 61.0505 321.902 61.0505 321.121V316.829Z" fill="url(#paint14_linear)"/>
<path fill-rule="evenodd" clip-rule="evenodd" d="M60.6205 316.829C60.6205 315.811 61.4819 314.95 62.4998 314.95C63.5176 314.95 64.3791 315.811 64.3791 316.829V321.121C64.3791 322.139 63.5176 323 62.4998 323C61.4819 323 60.6205 322.139 60.6205 321.121V316.829ZM61.5453 316.485C61.6002 316.342 61.686 316.216 61.7866 316.116C61.8871 316.015 62.0129 315.93 62.1555 315.875C62.0173 315.928 61.8913 316.011 61.7866 316.116C61.6819 316.221 61.5984 316.347 61.5453 316.485ZM62.4998 315.81C62.7851 315.81 63.0374 315.94 63.213 316.116C63.3136 316.216 63.3993 316.342 63.4543 316.485C63.3063 316.1 62.9233 315.81 62.4998 315.81ZM62.3947 316.724C62.352 316.767 62.3405 316.809 62.3405 316.829V321.121C62.3405 321.141 62.352 321.184 62.3947 321.226C62.4374 321.269 62.4797 321.28 62.4998 321.28C62.5199 321.28 62.5622 321.269 62.6049 321.226C62.6476 321.184 62.659 321.141 62.659 321.121V316.829C62.659 316.809 62.6476 316.767 62.6049 316.724C62.5622 316.681 62.5199 316.67 62.4998 316.67C62.4797 316.67 62.4374 316.681 62.3947 316.724ZM61.5453 321.465C61.6933 321.851 62.0763 322.14 62.4998 322.14C62.2145 322.14 61.9622 322.01 61.7866 321.834C61.686 321.734 61.6002 321.608 61.5453 321.465ZM62.844 322.076C62.9832 322.022 63.1099 321.938 63.2151 321.832C63.2144 321.833 63.2137 321.834 63.213 321.834C63.1124 321.935 62.9867 322.021 62.844 322.076ZM63.5191 321.121C63.5191 321.392 63.4008 321.646 63.2151 321.832C63.3896 321.657 63.5191 321.405 63.5191 321.121Z" fill="url(#paint15_linear)"/>
<path d="M77.3834 314.376L74.3177 311.311C73.816 310.753 72.8684 310.753 72.311 311.311C71.7536 311.868 71.7536 312.76 72.311 313.317L75.3768 316.383C75.9342 316.94 76.826 316.94 77.3834 316.383C77.9409 315.826 77.9409 314.934 77.3834 314.376Z" fill="url(#paint16_linear)"/>
<path fill-rule="evenodd" clip-rule="evenodd" d="M74.6291 311.014C73.9465 310.267 72.72 310.293 72.007 311.007C71.2816 311.732 71.2816 312.896 72.007 313.621L75.0727 316.687C75.798 317.412 76.9622 317.412 77.6875 316.687C78.4128 315.962 78.4128 314.798 77.6875 314.072L74.6291 311.014ZM73.9981 311.598C73.6757 311.24 73.014 311.216 72.6151 311.615C72.2256 312.004 72.2256 312.624 72.6151 313.013L75.6808 316.079C76.0703 316.468 76.6899 316.468 77.0794 316.079C77.4689 315.689 77.4689 315.07 77.0794 314.68L74.0056 311.607L73.9981 311.598Z" fill="url(#paint17_linear)"/>
<path fill-rule="evenodd" clip-rule="evenodd" d="M73.6936 311.903L73.6785 311.886C73.5353 311.727 73.1595 311.678 72.9191 311.919C72.6976 312.14 72.6976 312.488 72.9191 312.709L75.9849 315.775C76.2064 315.996 76.5538 315.996 76.7753 315.775C76.9969 315.553 76.9969 315.206 76.7753 314.984L73.6936 311.903ZM74.3177 311.311L77.3834 314.376C77.9409 314.934 77.9409 315.826 77.3834 316.383C76.826 316.94 75.9342 316.94 75.3768 316.383L72.311 313.317C71.7536 312.76 71.7536 311.868 72.311 311.311C72.8684 310.753 73.816 310.753 74.3177 311.311Z" fill="url(#paint18_linear)"/>
<path fill-rule="evenodd" clip-rule="evenodd" d="M74.6291 311.014C73.9465 310.267 72.72 310.293 72.007 311.007C71.2816 311.732 71.2816 312.896 72.007 313.621L75.0727 316.687C75.798 317.412 76.9622 317.412 77.6875 316.687C78.4128 315.962 78.4128 314.798 77.6875 314.072L74.6291 311.014ZM73.3293 312.183C73.2865 312.182 73.25 312.196 73.2232 312.223C73.1938 312.252 73.183 312.285 73.183 312.314C73.183 312.343 73.1938 312.376 73.2232 312.405L76.2889 315.471C76.3183 315.5 76.3509 315.511 76.3801 315.511C76.4093 315.511 76.4419 315.5 76.4713 315.471C76.5007 315.441 76.5115 315.409 76.5115 315.38C76.5115 315.35 76.5007 315.318 76.4713 315.289L73.3815 312.199L73.373 312.189C73.3635 312.186 73.3484 312.183 73.3293 312.183Z" fill="url(#paint19_linear)"/>
<path d="M62.4998 280.43C61.7194 280.43 61.0505 281.099 61.0505 281.879V286.171C61.0505 286.952 61.7194 287.621 62.4998 287.621C63.2802 287.621 63.9491 286.952 63.9491 286.171V281.879C63.9491 281.099 63.2802 280.43 62.4998 280.43Z" fill="url(#paint20_linear)"/>
<path fill-rule="evenodd" clip-rule="evenodd" d="M60.6205 281.879C60.6205 280.861 61.4819 280 62.4998 280C63.5176 280 64.3791 280.861 64.3791 281.879V286.171C64.3791 287.189 63.5176 288.051 62.4998 288.051C61.4819 288.051 60.6205 287.189 60.6205 286.171V281.879ZM62.4998 280.86C61.9569 280.86 61.4805 281.336 61.4805 281.879V286.171C61.4805 286.714 61.9569 287.191 62.4998 287.191C63.0427 287.191 63.5191 286.714 63.5191 286.171V281.879C63.5191 281.336 63.0427 280.86 62.4998 280.86Z" fill="url(#paint21_linear)"/>
<path fill-rule="evenodd" clip-rule="evenodd" d="M62.4998 281.29C62.1944 281.29 61.9105 281.574 61.9105 281.879V286.171C61.9105 286.477 62.1944 286.761 62.4998 286.761C62.8052 286.761 63.089 286.477 63.089 286.171V281.879C63.089 281.574 62.8052 281.29 62.4998 281.29ZM61.0505 281.879C61.0505 281.099 61.7194 280.43 62.4998 280.43C63.2802 280.43 63.9491 281.099 63.9491 281.879V286.171C63.9491 286.952 63.2802 287.621 62.4998 287.621C61.7194 287.621 61.0505 286.952 61.0505 286.171V281.879Z" fill="url(#paint22_linear)"/>
<path fill-rule="evenodd" clip-rule="evenodd" d="M60.6205 281.879C60.6205 280.861 61.4819 280 62.4998 280C63.5176 280 64.3791 280.861 64.3791 281.879V286.171C64.3791 287.189 63.5176 288.051 62.4998 288.051C61.4819 288.051 60.6205 287.189 60.6205 286.171V281.879ZM61.5453 281.535C61.6002 281.392 61.686 281.267 61.7866 281.166C61.8871 281.065 62.0129 280.98 62.1555 280.925C62.0173 280.978 61.8913 281.061 61.7866 281.166C61.6819 281.271 61.5984 281.397 61.5453 281.535ZM62.4998 280.86C62.7851 280.86 63.0374 280.99 63.213 281.166C63.3136 281.267 63.3993 281.392 63.4543 281.535C63.3063 281.15 62.9233 280.86 62.4998 280.86ZM62.3947 281.774C62.352 281.817 62.3405 281.859 62.3405 281.879V286.171C62.3405 286.191 62.352 286.234 62.3947 286.276C62.4374 286.319 62.4797 286.331 62.4998 286.331C62.5199 286.331 62.5622 286.319 62.6049 286.276C62.6476 286.234 62.659 286.191 62.659 286.171V281.879C62.659 281.859 62.6476 281.817 62.6049 281.774C62.5622 281.731 62.5199 281.72 62.4998 281.72C62.4797 281.72 62.4374 281.731 62.3947 281.774ZM61.5453 286.516C61.6933 286.901 62.0763 287.191 62.4998 287.191C62.2145 287.191 61.9622 287.06 61.7866 286.885C61.686 286.784 61.6002 286.658 61.5453 286.516ZM62.844 287.126C63.1206 287.02 63.348 286.792 63.4543 286.516C63.3993 286.658 63.3136 286.784 63.213 286.885C63.1124 286.985 62.9867 287.071 62.844 287.126Z" fill="url(#paint23_linear)"/>
<path d="M77.4389 286.617C76.8815 286.06 75.9896 286.06 75.4322 286.617L72.3664 289.683C71.809 290.241 71.809 291.132 72.3664 291.69C72.8681 292.247 73.8157 292.247 74.3731 291.69L77.4389 288.624C77.9963 288.067 77.9963 287.175 77.4389 286.617Z" fill="url(#paint24_linear)"/>
<path fill-rule="evenodd" clip-rule="evenodd" d="M75.1281 286.313C75.8535 285.588 77.0176 285.588 77.7429 286.313C78.4683 287.039 78.4683 288.203 77.7429 288.928L74.6772 291.994C73.9639 292.707 72.737 292.734 72.0545 291.986C71.3371 291.26 71.3397 290.102 72.0624 289.379L75.1281 286.313ZM77.1348 286.921C76.7453 286.532 76.1257 286.532 75.7363 286.921L72.6705 289.987C72.281 290.377 72.281 290.996 72.6705 291.386L72.6785 291.394L72.6861 291.402C73.0085 291.76 73.6702 291.785 74.0691 291.386L77.1348 288.32C77.5243 287.931 77.5243 287.311 77.1348 286.921Z" fill="url(#paint25_linear)"/>
<path fill-rule="evenodd" clip-rule="evenodd" d="M72.9905 291.098L73.0057 291.115C73.1488 291.274 73.5246 291.322 73.765 291.082L76.8308 288.016C77.0523 287.794 77.0523 287.447 76.8308 287.226C76.6092 287.004 76.2619 287.004 76.0403 287.226L72.9746 290.291C72.753 290.513 72.753 290.86 72.9746 291.082L72.9905 291.098ZM75.4322 286.617C75.9896 286.06 76.8815 286.06 77.4389 286.617C77.9963 287.175 77.9963 288.067 77.4389 288.624L74.3731 291.69C73.8157 292.247 72.8681 292.247 72.3664 291.69C71.809 291.132 71.809 290.241 72.3664 289.683L75.4322 286.617Z" fill="url(#paint26_linear)"/>
<path fill-rule="evenodd" clip-rule="evenodd" d="M75.1281 286.313C75.8535 285.588 77.0176 285.588 77.7429 286.313C78.4683 287.039 78.4683 288.203 77.7429 288.928L74.6772 291.994C73.9639 292.707 72.737 292.734 72.0545 291.986C71.3371 291.26 71.3397 290.102 72.0624 289.379L75.1281 286.313ZM76.4355 287.489C76.4063 287.489 76.3738 287.5 76.3444 287.53L73.2786 290.595C73.2492 290.625 73.2384 290.657 73.2384 290.686C73.2384 290.716 73.2492 290.748 73.2786 290.778L73.3026 290.802L73.3111 290.811C73.3206 290.814 73.3358 290.818 73.3548 290.818C73.3977 290.819 73.4342 290.804 73.4609 290.778L76.5267 287.712C76.5561 287.682 76.5669 287.65 76.5669 287.621C76.5669 287.592 76.5561 287.559 76.5267 287.53C76.4973 287.5 76.4648 287.489 76.4355 287.489ZM73.3429 291.678C73.1161 291.675 72.8585 291.594 72.6861 291.402C72.8461 291.58 73.0894 291.675 73.3429 291.678C73.3428 291.678 73.343 291.678 73.3429 291.678ZM73.3429 291.678C73.5838 291.681 73.8556 291.599 74.0691 291.386C73.8681 291.587 73.6003 291.68 73.3429 291.678Z" fill="url(#paint27_linear)"/>
<path d="M47.1713 300.051H42.8793C42.0989 300.051 41.43 300.72 41.43 301.5C41.43 302.281 42.0432 302.949 42.8793 302.949H47.1713C47.9517 302.949 48.6206 302.281 48.6206 301.5C48.6206 300.72 47.9517 300.051 47.1713 300.051Z" fill="url(#paint28_linear)"/>
<path fill-rule="evenodd" clip-rule="evenodd" d="M41 301.5C41 300.482 41.8614 299.621 42.8793 299.621H47.1713C48.1892 299.621 49.0506 300.482 49.0506 301.5C49.0506 302.518 48.1892 303.379 47.1713 303.379H42.8793C41.7949 303.379 41 302.507 41 301.5ZM42.8793 300.481C42.3364 300.481 41.86 300.957 41.86 301.5C41.86 302.054 42.2914 302.519 42.8793 302.519H47.1713C47.7142 302.519 48.1906 302.043 48.1906 301.5C48.1906 300.957 47.7142 300.481 47.1713 300.481H42.8793Z" fill="url(#paint29_linear)"/>
<path fill-rule="evenodd" clip-rule="evenodd" d="M47.1713 300.911H42.8793C42.5739 300.911 42.29 301.195 42.29 301.5C42.29 301.827 42.5396 302.089 42.8793 302.089H47.1713C47.4767 302.089 47.7606 301.806 47.7606 301.5C47.7606 301.195 47.4767 300.911 47.1713 300.911ZM42.8793 300.051H47.1713C47.9517 300.051 48.6206 300.72 48.6206 301.5C48.6206 302.281 47.9517 302.949 47.1713 302.949H42.8793C42.0432 302.949 41.43 302.281 41.43 301.5C41.43 300.72 42.0989 300.051 42.8793 300.051Z" fill="url(#paint30_linear)"/>
<path fill-rule="evenodd" clip-rule="evenodd" d="M41 301.5C41 300.482 41.8614 299.621 42.8793 299.621H47.1713C48.1892 299.621 49.0506 300.482 49.0506 301.5C49.0506 302.518 48.1892 303.379 47.1713 303.379H42.8793C41.7949 303.379 41 302.507 41 301.5ZM41.9248 301.156C41.9797 301.013 42.0655 300.888 42.1661 300.787C42.3417 300.611 42.5939 300.481 42.8793 300.481C42.6078 300.481 42.353 300.6 42.1661 300.787C42.0613 300.892 41.9779 301.018 41.9248 301.156ZM42.8793 302.519C42.587 302.519 42.3333 302.404 42.1522 302.221C42.334 302.405 42.5884 302.519 42.8793 302.519ZM47.1713 300.481C47.4428 300.481 47.6976 300.6 47.8845 300.787C47.7089 300.611 47.4567 300.481 47.1713 300.481ZM42.7742 301.395C42.7315 301.438 42.72 301.48 42.72 301.5C42.72 301.553 42.7391 301.591 42.7636 301.616C42.7871 301.64 42.8238 301.659 42.8793 301.659H47.1713C47.1914 301.659 47.2338 301.648 47.2764 301.605C47.3191 301.563 47.3306 301.52 47.3306 301.5C47.3306 301.48 47.3191 301.438 47.2764 301.395C47.2338 301.352 47.1914 301.341 47.1713 301.341H42.8793C42.8592 301.341 42.8168 301.352 42.7742 301.395Z" fill="url(#paint31_linear)"/>
<path d="M52.6331 311.311C52.1315 310.753 51.1839 310.753 50.6265 311.311L47.5607 314.376C47.0033 314.934 47.0033 315.826 47.5607 316.383C48.1181 316.94 49.01 316.94 49.5674 316.383L52.6331 313.317C53.1905 312.76 53.1905 311.868 52.6331 311.311Z" fill="url(#paint32_linear)"/>
<path fill-rule="evenodd" clip-rule="evenodd" d="M52.9451 311.014C52.2626 310.267 51.0357 310.293 50.3224 311.007L47.2566 314.072C46.5313 314.798 46.5313 315.962 47.2566 316.687C47.982 317.412 49.1461 317.412 49.8714 316.687L52.9372 313.621C53.6599 312.899 53.6625 311.74 52.9451 311.014ZM52.3135 311.598C51.9911 311.24 51.3294 311.216 50.9305 311.615L47.8648 314.68C47.4753 315.07 47.4753 315.689 47.8648 316.079C48.2542 316.468 48.8738 316.468 49.2633 316.079L52.3291 313.013C52.7186 312.624 52.7186 312.004 52.3291 311.615L52.3211 311.607L52.3135 311.598Z" fill="url(#paint33_linear)"/>
<path fill-rule="evenodd" clip-rule="evenodd" d="M52.009 311.903L51.9939 311.886C51.8508 311.727 51.4749 311.678 51.2346 311.919L48.1688 314.984C47.9473 315.206 47.9473 315.553 48.1688 315.775C48.3904 315.996 48.7377 315.996 48.9593 315.775L52.025 312.709C52.2466 312.488 52.2466 312.14 52.025 311.919L52.009 311.903ZM50.6265 311.311C51.1839 310.753 52.1315 310.753 52.6331 311.311C53.1905 311.868 53.1905 312.76 52.6331 313.317L49.5674 316.383C49.01 316.94 48.1181 316.94 47.5607 316.383C47.0033 315.826 47.0033 314.934 47.5607 314.376L50.6265 311.311Z" fill="url(#paint34_linear)"/>
<path fill-rule="evenodd" clip-rule="evenodd" d="M52.9451 311.014C52.2626 310.267 51.0357 310.293 50.3224 311.007L47.2566 314.072C46.5313 314.798 46.5313 315.962 47.2566 316.687C47.982 317.412 49.1461 317.412 49.8714 316.687L52.9372 313.621C53.6599 312.899 53.6625 311.74 52.9451 311.014ZM51.6447 312.183C51.6019 312.182 51.5654 312.196 51.5386 312.223L48.4729 315.289C48.4435 315.318 48.4327 315.35 48.4327 315.38C48.4327 315.409 48.4435 315.441 48.4729 315.471C48.5023 315.5 48.5348 315.511 48.564 315.511C48.5933 315.511 48.6258 315.5 48.6552 315.471L51.721 312.405C51.7504 312.376 51.7612 312.343 51.7612 312.314C51.7612 312.285 51.7504 312.252 51.721 312.223L51.697 312.199L51.6884 312.189C51.679 312.186 51.6638 312.183 51.6447 312.183Z" fill="url(#paint35_linear)"/>
<path d="M52.6331 289.683L49.5674 286.617C49.01 286.06 48.1181 286.06 47.5607 286.617C47.0033 287.175 47.0033 288.067 47.5607 288.624L50.6265 291.69C51.1839 292.247 52.0757 292.247 52.6331 291.69C53.1905 291.132 53.1905 290.241 52.6331 289.683Z" fill="url(#paint36_linear)"/>
<path fill-rule="evenodd" clip-rule="evenodd" d="M47.2566 286.313C47.982 285.588 49.1461 285.588 49.8714 286.313L52.9372 289.379C53.6625 290.104 53.6625 291.269 52.9372 291.994C52.2119 292.719 51.0477 292.719 50.3224 291.994L47.2566 288.928C46.5313 288.203 46.5313 287.039 47.2566 286.313ZM49.2633 286.921C48.8738 286.532 48.2542 286.532 47.8648 286.921C47.4753 287.311 47.4753 287.931 47.8648 288.32L50.9305 291.386C51.32 291.775 51.9396 291.775 52.3291 291.386C52.7186 290.996 52.7186 290.377 52.3291 289.987L49.2633 286.921Z" fill="url(#paint37_linear)"/>
<path fill-rule="evenodd" clip-rule="evenodd" d="M52.025 290.291L48.9593 287.226C48.7377 287.004 48.3904 287.004 48.1688 287.226C47.9473 287.447 47.9473 287.794 48.1688 288.016L51.2346 291.082C51.4561 291.303 51.8035 291.303 52.025 291.082C52.2466 290.86 52.2466 290.513 52.025 290.291ZM49.5674 286.617L52.6331 289.683C53.1905 290.241 53.1905 291.132 52.6331 291.69C52.0757 292.247 51.1839 292.247 50.6265 291.69L47.5607 288.624C47.0033 288.067 47.0033 287.175 47.5607 286.617C48.1181 286.06 49.01 286.06 49.5674 286.617Z" fill="url(#paint38_linear)"/>
<path fill-rule="evenodd" clip-rule="evenodd" d="M47.2566 286.313C47.982 285.588 49.1461 285.588 49.8714 286.313L52.9372 289.379C53.6625 290.104 53.6625 291.269 52.9372 291.994C52.2119 292.719 51.0477 292.719 50.3224 291.994L47.2566 288.928C46.5313 288.203 46.5313 287.039 47.2566 286.313ZM48.564 287.489C48.5348 287.489 48.5023 287.5 48.4729 287.53C48.4435 287.559 48.4327 287.592 48.4327 287.621C48.4327 287.65 48.4435 287.682 48.4729 287.712L51.5386 290.778C51.568 290.807 51.6006 290.818 51.6298 290.818C51.659 290.818 51.6916 290.807 51.721 290.778C51.7504 290.748 51.7612 290.716 51.7612 290.686C51.7612 290.657 51.7504 290.625 51.721 290.595L48.6552 287.53C48.6258 287.5 48.5933 287.489 48.564 287.489Z" fill="url(#paint39_linear)"/>
<path d="M100.685 208.166C102.233 208.166 103.517 208.55 104.537 209.318C105.557 210.074 106.211 211.1 106.499 212.396H103.835C103.583 211.82 103.181 211.364 102.629 211.028C102.089 210.68 101.447 210.506 100.703 210.506C99.9715 210.506 99.3235 210.674 98.7595 211.01C98.1955 211.346 97.7575 211.826 97.4455 212.45C97.1335 213.074 96.9775 213.806 96.9775 214.646C96.9775 215.978 97.3315 217.016 98.0395 217.76C98.7595 218.504 99.7375 218.876 100.973 218.876C101.885 218.876 102.665 218.606 103.313 218.066C103.973 217.526 104.399 216.776 104.591 215.816H100.289V213.998H106.715V216.446C106.535 217.286 106.181 218.06 105.653 218.768C105.137 219.476 104.453 220.046 103.601 220.478C102.761 220.898 101.795 221.108 100.703 221.108C99.4555 221.108 98.3515 220.838 97.3915 220.298C96.4435 219.746 95.7055 218.984 95.1775 218.012C94.6615 217.028 94.4035 215.906 94.4035 214.646C94.4035 213.386 94.6615 212.27 95.1775 211.298C95.7055 210.314 96.4435 209.546 97.3915 208.994C98.3395 208.442 99.4375 208.166 100.685 208.166ZM117.994 215.636C117.994 215.888 117.964 216.176 117.904 216.5H110.596C110.632 217.388 110.872 218.042 111.316 218.462C111.76 218.882 112.312 219.092 112.972 219.092C113.56 219.092 114.046 218.948 114.43 218.66C114.826 218.372 115.078 217.982 115.186 217.49H117.868C117.736 218.186 117.454 218.81 117.022 219.362C116.59 219.914 116.032 220.346 115.348 220.658C114.676 220.97 113.926 221.126 113.098 221.126C112.126 221.126 111.262 220.922 110.506 220.514C109.75 220.094 109.162 219.5 108.742 218.732C108.322 217.964 108.112 217.058 108.112 216.014C108.112 214.97 108.322 214.064 108.742 213.296C109.162 212.516 109.75 211.922 110.506 211.514C111.262 211.106 112.126 210.902 113.098 210.902C114.082 210.902 114.94 211.106 115.672 211.514C116.416 211.922 116.986 212.486 117.382 213.206C117.79 213.914 117.994 214.724 117.994 215.636ZM115.438 215.384C115.474 214.568 115.258 213.95 114.79 213.53C114.334 213.11 113.77 212.9 113.098 212.9C112.414 212.9 111.838 213.11 111.37 213.53C110.902 213.95 110.644 214.568 110.596 215.384H115.438ZM123.234 210.902C124.446 210.902 125.418 211.208 126.15 211.82C126.882 212.432 127.338 213.248 127.518 214.268H125.142C125.046 213.788 124.83 213.404 124.494 213.116C124.158 212.828 123.72 212.684 123.18 212.684C122.748 212.684 122.412 212.786 122.172 212.99C121.932 213.194 121.812 213.47 121.812 213.818C121.812 214.094 121.908 214.316 122.1 214.484C122.292 214.652 122.532 214.784 122.82 214.88C123.108 214.976 123.522 215.09 124.062 215.222C124.818 215.39 125.43 215.57 125.898 215.762C126.378 215.942 126.786 216.236 127.122 216.644C127.47 217.04 127.644 217.58 127.644 218.264C127.644 219.116 127.308 219.806 126.636 220.334C125.976 220.862 125.082 221.126 123.954 221.126C122.658 221.126 121.62 220.838 120.84 220.262C120.06 219.674 119.586 218.84 119.418 217.76H121.848C121.908 218.252 122.124 218.642 122.496 218.93C122.868 219.206 123.354 219.344 123.954 219.344C124.386 219.344 124.716 219.242 124.944 219.038C125.172 218.822 125.286 218.546 125.286 218.21C125.286 217.922 125.184 217.688 124.98 217.508C124.788 217.328 124.542 217.19 124.242 217.094C123.954 216.998 123.54 216.884 123 216.752C122.256 216.584 121.65 216.416 121.182 216.248C120.726 216.068 120.33 215.786 119.994 215.402C119.67 215.018 119.508 214.49 119.508 213.818C119.508 212.954 119.838 212.252 120.498 211.712C121.158 211.172 122.07 210.902 123.234 210.902ZM139.074 211.028V221H136.536V218.984C136.272 219.656 135.834 220.184 135.222 220.568C134.622 220.94 133.926 221.126 133.134 221.126C131.982 221.126 131.064 220.748 130.38 219.992C129.696 219.236 129.354 218.18 129.354 216.824V211.028H131.874V216.536C131.874 217.328 132.078 217.946 132.486 218.39C132.894 218.822 133.446 219.038 134.142 219.038C134.874 219.038 135.456 218.804 135.888 218.336C136.32 217.868 136.536 217.196 136.536 216.32V211.028H139.074ZM147.321 210.884C148.473 210.884 149.391 211.262 150.075 212.018C150.759 212.774 151.101 213.836 151.101 215.204V221H148.581V215.492C148.581 214.7 148.377 214.088 147.969 213.656C147.561 213.212 147.003 212.99 146.295 212.99C145.575 212.99 144.999 213.224 144.567 213.692C144.135 214.16 143.919 214.832 143.919 215.708V221H141.381V211.028H143.919V213.026C144.183 212.354 144.615 211.832 145.215 211.46C145.827 211.076 146.529 210.884 147.321 210.884ZM157.241 210.902C158.081 210.902 158.795 211.1 159.383 211.496C159.983 211.892 160.415 212.426 160.679 213.098V207.68H163.199V221H160.679V218.912C160.415 219.584 159.983 220.124 159.383 220.532C158.795 220.928 158.081 221.126 157.241 221.126C156.401 221.126 155.645 220.922 154.973 220.514C154.301 220.106 153.773 219.518 153.389 218.75C153.017 217.97 152.831 217.058 152.831 216.014C152.831 214.97 153.017 214.064 153.389 213.296C153.773 212.516 154.301 211.922 154.973 211.514C155.645 211.106 156.401 210.902 157.241 210.902ZM158.033 213.116C157.241 213.116 156.605 213.374 156.125 213.89C155.645 214.406 155.405 215.114 155.405 216.014C155.405 216.914 155.645 217.622 156.125 218.138C156.605 218.642 157.241 218.894 158.033 218.894C158.801 218.894 159.431 218.636 159.923 218.12C160.427 217.592 160.679 216.89 160.679 216.014C160.679 215.126 160.427 214.424 159.923 213.908C159.431 213.38 158.801 213.116 158.033 213.116ZM171.439 210.884C172.591 210.884 173.509 211.262 174.193 212.018C174.877 212.774 175.219 213.836 175.219 215.204V221H172.699V215.492C172.699 214.7 172.495 214.088 172.087 213.656C171.679 213.212 171.121 212.99 170.413 212.99C169.693 212.99 169.117 213.224 168.685 213.692C168.253 214.16 168.037 214.832 168.037 215.708V221H165.499V207.68H168.037V213.026C168.301 212.354 168.733 211.832 169.333 211.46C169.945 211.076 170.647 210.884 171.439 210.884ZM186.83 215.636C186.83 215.888 186.8 216.176 186.74 216.5H179.432C179.468 217.388 179.708 218.042 180.152 218.462C180.596 218.882 181.148 219.092 181.808 219.092C182.396 219.092 182.882 218.948 183.266 218.66C183.662 218.372 183.914 217.982 184.022 217.49H186.704C186.572 218.186 186.29 218.81 185.858 219.362C185.426 219.914 184.868 220.346 184.184 220.658C183.512 220.97 182.762 221.126 181.934 221.126C180.962 221.126 180.098 220.922 179.342 220.514C178.586 220.094 177.998 219.5 177.578 218.732C177.158 217.964 176.948 217.058 176.948 216.014C176.948 214.97 177.158 214.064 177.578 213.296C177.998 212.516 178.586 211.922 179.342 211.514C180.098 211.106 180.962 210.902 181.934 210.902C182.918 210.902 183.776 211.106 184.508 211.514C185.252 211.922 185.822 212.486 186.218 213.206C186.626 213.914 186.83 214.724 186.83 215.636ZM184.274 215.384C184.31 214.568 184.094 213.95 183.626 213.53C183.17 213.11 182.606 212.9 181.934 212.9C181.25 212.9 180.674 213.11 180.206 213.53C179.738 213.95 179.48 214.568 179.432 215.384H184.274ZM188.343 208.166C188.343 207.758 188.487 207.428 188.775 207.176C189.063 206.912 189.441 206.78 189.909 206.78C190.377 206.78 190.755 206.912 191.043 207.176C191.331 207.428 191.475 207.758 191.475 208.166C191.475 208.562 191.331 208.892 191.043 209.156C190.755 209.408 190.377 209.534 189.909 209.534C189.441 209.534 189.063 209.408 188.775 209.156C188.487 208.892 188.343 208.562 188.343 208.166ZM191.169 211.028V221H188.631V211.028H191.169ZM198.793 218.822V221H197.461C196.345 221 195.487 220.73 194.887 220.19C194.299 219.65 194.005 218.75 194.005 217.49V213.17H192.619V211.028H194.005V208.562H196.543V211.028H198.775V213.17H196.543V217.526C196.543 218.006 196.639 218.342 196.831 218.534C197.023 218.726 197.347 218.822 197.803 218.822H198.793ZM214.08 211.028V221H211.542V218.984C211.278 219.656 210.84 220.184 210.228 220.568C209.628 220.94 208.932 221.126 208.14 221.126C206.988 221.126 206.07 220.748 205.386 219.992C204.702 219.236 204.36 218.18 204.36 216.824V211.028H206.88V216.536C206.88 217.328 207.084 217.946 207.492 218.39C207.9 218.822 208.452 219.038 209.148 219.038C209.88 219.038 210.462 218.804 210.894 218.336C211.326 217.868 211.542 217.196 211.542 216.32V211.028H214.08ZM222.327 210.884C223.479 210.884 224.397 211.262 225.081 212.018C225.765 212.774 226.107 213.836 226.107 215.204V221H223.587V215.492C223.587 214.7 223.383 214.088 222.975 213.656C222.567 213.212 222.009 212.99 221.301 212.99C220.581 212.99 220.005 213.224 219.573 213.692C219.141 214.16 218.925 214.832 218.925 215.708V221H216.387V211.028H218.925V213.026C219.189 212.354 219.621 211.832 220.221 211.46C220.833 211.076 221.535 210.884 222.327 210.884ZM232.246 210.902C233.086 210.902 233.8 211.1 234.388 211.496C234.988 211.892 235.42 212.426 235.684 213.098V207.68H238.204V221H235.684V218.912C235.42 219.584 234.988 220.124 234.388 220.532C233.8 220.928 233.086 221.126 232.246 221.126C231.406 221.126 230.65 220.922 229.978 220.514C229.306 220.106 228.778 219.518 228.394 218.75C228.022 217.97 227.836 217.058 227.836 216.014C227.836 214.97 228.022 214.064 228.394 213.296C228.778 212.516 229.306 211.922 229.978 211.514C230.65 211.106 231.406 210.902 232.246 210.902ZM233.038 213.116C232.246 213.116 231.61 213.374 231.13 213.89C230.65 214.406 230.41 215.114 230.41 216.014C230.41 216.914 230.65 217.622 231.13 218.138C231.61 218.642 232.246 218.894 233.038 218.894C233.806 218.894 234.436 218.636 234.928 218.12C235.432 217.592 235.684 216.89 235.684 216.014C235.684 215.126 235.432 214.424 234.928 213.908C234.436 213.38 233.806 213.116 233.038 213.116ZM130.248 244.526C130.248 245.174 130.086 245.774 129.762 246.326C129.438 246.866 128.958 247.304 128.322 247.64C127.686 247.964 126.912 248.126 126 248.126C125.1 248.126 124.296 247.976 123.588 247.676C122.88 247.364 122.31 246.92 121.878 246.344C121.458 245.768 121.218 245.096 121.158 244.328H123.858C123.918 244.844 124.122 245.276 124.47 245.624C124.83 245.96 125.304 246.128 125.892 246.128C126.42 246.128 126.822 245.99 127.098 245.714C127.386 245.426 127.53 245.06 127.53 244.616C127.53 244.22 127.416 243.896 127.188 243.644C126.96 243.38 126.672 243.17 126.324 243.014C125.976 242.858 125.496 242.678 124.884 242.474C124.092 242.21 123.444 241.952 122.94 241.7C122.436 241.436 122.004 241.058 121.644 240.566C121.296 240.074 121.122 239.432 121.122 238.64C121.122 237.548 121.512 236.69 122.292 236.066C123.084 235.43 124.128 235.112 125.424 235.112C126.768 235.112 127.836 235.436 128.628 236.084C129.432 236.732 129.888 237.596 129.996 238.676H127.26C127.188 238.22 126.996 237.848 126.684 237.56C126.372 237.26 125.946 237.11 125.406 237.11C124.938 237.11 124.56 237.236 124.272 237.488C123.984 237.728 123.84 238.082 123.84 238.55C123.84 238.922 123.948 239.234 124.164 239.486C124.392 239.726 124.674 239.924 125.01 240.08C125.358 240.236 125.826 240.41 126.414 240.602C127.23 240.89 127.89 241.16 128.394 241.412C128.91 241.664 129.348 242.042 129.708 242.546C130.068 243.05 130.248 243.71 130.248 244.526ZM131.83 235.166C131.83 234.758 131.974 234.428 132.262 234.176C132.55 233.912 132.928 233.78 133.396 233.78C133.864 233.78 134.242 233.912 134.53 234.176C134.818 234.428 134.962 234.758 134.962 235.166C134.962 235.562 134.818 235.892 134.53 236.156C134.242 236.408 133.864 236.534 133.396 236.534C132.928 236.534 132.55 236.408 132.262 236.156C131.974 235.892 131.83 235.562 131.83 235.166ZM134.656 238.028V248H132.118V238.028H134.656ZM141.434 237.902C142.718 237.902 143.786 238.25 144.638 238.946C145.502 239.642 146.042 240.59 146.258 241.79H143.576C143.468 241.262 143.222 240.848 142.838 240.548C142.454 240.236 141.968 240.08 141.38 240.08C140.708 240.08 140.144 240.332 139.688 240.836C139.244 241.328 139.022 242.054 139.022 243.014C139.022 243.974 139.244 244.706 139.688 245.21C140.144 245.702 140.708 245.948 141.38 245.948C141.968 245.948 142.454 245.798 142.838 245.498C143.222 245.186 143.468 244.766 143.576 244.238H146.258C146.042 245.438 145.502 246.386 144.638 247.082C143.786 247.778 142.718 248.126 141.434 248.126C140.462 248.126 139.598 247.922 138.842 247.514C138.086 247.094 137.498 246.5 137.078 245.732C136.658 244.964 136.448 244.058 136.448 243.014C136.448 241.97 136.658 241.064 137.078 240.296C137.498 239.516 138.086 238.922 138.842 238.514C139.598 238.106 140.462 237.902 141.434 237.902ZM154.001 237.884C155.153 237.884 156.071 238.262 156.755 239.018C157.439 239.774 157.781 240.836 157.781 242.204V248H155.261V242.492C155.261 241.7 155.057 241.088 154.649 240.656C154.241 240.212 153.683 239.99 152.975 239.99C152.255 239.99 151.679 240.224 151.247 240.692C150.815 241.16 150.599 241.832 150.599 242.708V248H148.061V234.68H150.599V240.026C150.863 239.354 151.295 238.832 151.895 238.46C152.507 238.076 153.209 237.884 154.001 237.884ZM169.392 242.636C169.392 242.888 169.362 243.176 169.302 243.5H161.994C162.03 244.388 162.27 245.042 162.714 245.462C163.158 245.882 163.71 246.092 164.37 246.092C164.958 246.092 165.444 245.948 165.828 245.66C166.224 245.372 166.476 244.982 166.584 244.49H169.266C169.134 245.186 168.852 245.81 168.42 246.362C167.988 246.914 167.43 247.346 166.746 247.658C166.074 247.97 165.324 248.126 164.496 248.126C163.524 248.126 162.66 247.922 161.904 247.514C161.148 247.094 160.56 246.5 160.14 245.732C159.72 244.964 159.51 244.058 159.51 243.014C159.51 241.97 159.72 241.064 160.14 240.296C160.56 239.516 161.148 238.922 161.904 238.514C162.66 238.106 163.524 237.902 164.496 237.902C165.48 237.902 166.338 238.106 167.07 238.514C167.814 238.922 168.384 239.486 168.78 240.206C169.188 240.914 169.392 241.724 169.392 242.636ZM166.836 242.384C166.872 241.568 166.656 240.95 166.188 240.53C165.732 240.11 165.168 239.9 164.496 239.9C163.812 239.9 163.236 240.11 162.768 240.53C162.3 240.95 162.042 241.568 161.994 242.384H166.836ZM173.732 239.936C174.104 239.3 174.596 238.802 175.208 238.442C175.82 238.07 176.504 237.884 177.26 237.884V240.602H176.522C174.662 240.602 173.732 241.466 173.732 243.194V248H171.194V238.028H173.732V239.936ZM184.605 237.884C185.757 237.884 186.675 238.262 187.359 239.018C188.043 239.774 188.385 240.836 188.385 242.204V248H185.865V242.492C185.865 241.7 185.661 241.088 185.253 240.656C184.845 240.212 184.287 239.99 183.579 239.99C182.859 239.99 182.283 240.224 181.851 240.692C181.419 241.16 181.203 241.832 181.203 242.708V248H178.665V234.68H181.203V240.026C181.467 239.354 181.899 238.832 182.499 238.46C183.111 238.076 183.813 237.884 184.605 237.884ZM199.996 242.636C199.996 242.888 199.966 243.176 199.906 243.5H192.598C192.634 244.388 192.874 245.042 193.318 245.462C193.762 245.882 194.314 246.092 194.974 246.092C195.562 246.092 196.048 245.948 196.432 245.66C196.828 245.372 197.08 244.982 197.188 244.49H199.87C199.738 245.186 199.456 245.81 199.024 246.362C198.592 246.914 198.034 247.346 197.35 247.658C196.678 247.97 195.928 248.126 195.1 248.126C194.128 248.126 193.264 247.922 192.508 247.514C191.752 247.094 191.164 246.5 190.744 245.732C190.324 244.964 190.114 244.058 190.114 243.014C190.114 241.97 190.324 241.064 190.744 240.296C191.164 239.516 191.752 238.922 192.508 238.514C193.264 238.106 194.128 237.902 195.1 237.902C196.084 237.902 196.942 238.106 197.674 238.514C198.418 238.922 198.988 239.486 199.384 240.206C199.792 240.914 199.996 241.724 199.996 242.636ZM197.44 242.384C197.476 241.568 197.26 240.95 196.792 240.53C196.336 240.11 195.772 239.9 195.1 239.9C194.416 239.9 193.84 240.11 193.372 240.53C192.904 240.95 192.646 241.568 192.598 242.384H197.44ZM201.51 235.166C201.51 234.758 201.654 234.428 201.942 234.176C202.23 233.912 202.608 233.78 203.076 233.78C203.544 233.78 203.922 233.912 204.21 234.176C204.498 234.428 204.642 234.758 204.642 235.166C204.642 235.562 204.498 235.892 204.21 236.156C203.922 236.408 203.544 236.534 203.076 236.534C202.608 236.534 202.23 236.408 201.942 236.156C201.654 235.892 201.51 235.562 201.51 235.166ZM204.336 238.028V248H201.798V238.028H204.336ZM211.959 245.822V248H210.627C209.511 248 208.653 247.73 208.053 247.19C207.465 246.65 207.171 245.75 207.171 244.49V240.17H205.785V238.028H207.171V235.562H209.709V238.028H211.941V240.17H209.709V244.526C209.709 245.006 209.805 245.342 209.997 245.534C210.189 245.726 210.513 245.822 210.969 245.822H211.959Z" fill="#27364D"/>
<path d="M512.571 246.308V249.602H517.071V251.546H512.571V254.966H517.611V257H510.033V244.292H517.611V246.308H512.571ZM525.43 246.884C526.582 246.884 527.5 247.262 528.184 248.018C528.868 248.774 529.21 249.836 529.21 251.204V257H526.69V251.492C526.69 250.7 526.486 250.088 526.078 249.656C525.67 249.212 525.112 248.99 524.404 248.99C523.684 248.99 523.108 249.224 522.676 249.692C522.244 250.16 522.028 250.832 522.028 251.708V257H519.49V247.028H522.028V249.026C522.292 248.354 522.724 247.832 523.324 247.46C523.936 247.076 524.638 246.884 525.43 246.884ZM540.821 251.636C540.821 251.888 540.791 252.176 540.731 252.5H533.423C533.459 253.388 533.699 254.042 534.143 254.462C534.587 254.882 535.139 255.092 535.799 255.092C536.387 255.092 536.873 254.948 537.257 254.66C537.653 254.372 537.905 253.982 538.013 253.49H540.695C540.563 254.186 540.281 254.81 539.849 255.362C539.417 255.914 538.859 256.346 538.175 256.658C537.503 256.97 536.753 257.126 535.925 257.126C534.953 257.126 534.089 256.922 533.333 256.514C532.577 256.094 531.989 255.5 531.569 254.732C531.149 253.964 530.939 253.058 530.939 252.014C530.939 250.97 531.149 250.064 531.569 249.296C531.989 248.516 532.577 247.922 533.333 247.514C534.089 247.106 534.953 246.902 535.925 246.902C536.909 246.902 537.767 247.106 538.499 247.514C539.243 247.922 539.813 248.486 540.209 249.206C540.617 249.914 540.821 250.724 540.821 251.636ZM538.265 251.384C538.301 250.568 538.085 249.95 537.617 249.53C537.161 249.11 536.597 248.9 535.925 248.9C535.241 248.9 534.665 249.11 534.197 249.53C533.729 249.95 533.471 250.568 533.423 251.384H538.265ZM545.161 248.936C545.533 248.3 546.025 247.802 546.637 247.442C547.249 247.07 547.933 246.884 548.689 246.884V249.602H547.951C546.091 249.602 545.161 250.466 545.161 252.194V257H542.623V247.028H545.161V248.936ZM553.999 246.902C554.839 246.902 555.559 247.1 556.159 247.496C556.759 247.892 557.185 248.426 557.437 249.098V247.028H559.957V257.036C559.957 257.96 559.771 258.788 559.399 259.52C559.039 260.264 558.493 260.846 557.761 261.266C557.041 261.686 556.165 261.896 555.133 261.896C553.693 261.896 552.529 261.554 551.641 260.87C550.753 260.186 550.213 259.256 550.021 258.08H552.523C552.667 258.584 552.943 258.974 553.351 259.25C553.771 259.538 554.305 259.682 554.953 259.682C555.697 259.682 556.297 259.46 556.753 259.016C557.209 258.584 557.437 257.924 557.437 257.036V254.912C557.185 255.584 556.759 256.124 556.159 256.532C555.559 256.928 554.839 257.126 553.999 257.126C553.159 257.126 552.403 256.922 551.731 256.514C551.059 256.106 550.531 255.518 550.147 254.75C549.775 253.97 549.589 253.058 549.589 252.014C549.589 250.97 549.775 250.064 550.147 249.296C550.531 248.516 551.059 247.922 551.731 247.514C552.403 247.106 553.159 246.902 553.999 246.902ZM554.791 249.116C553.999 249.116 553.363 249.374 552.883 249.89C552.403 250.406 552.163 251.114 552.163 252.014C552.163 252.914 552.403 253.622 552.883 254.138C553.363 254.642 553.999 254.894 554.791 254.894C555.559 254.894 556.189 254.636 556.681 254.12C557.185 253.592 557.437 252.89 557.437 252.014C557.437 251.126 557.185 250.424 556.681 249.908C556.189 249.38 555.559 249.116 554.791 249.116ZM561.969 244.166C561.969 243.758 562.113 243.428 562.401 243.176C562.689 242.912 563.067 242.78 563.535 242.78C564.003 242.78 564.381 242.912 564.669 243.176C564.957 243.428 565.101 243.758 565.101 244.166C565.101 244.562 564.957 244.892 564.669 245.156C564.381 245.408 564.003 245.534 563.535 245.534C563.067 245.534 562.689 245.408 562.401 245.156C562.113 244.892 561.969 244.562 561.969 244.166ZM564.795 247.028V257H562.257V247.028H564.795ZM576.469 251.636C576.469 251.888 576.439 252.176 576.379 252.5H569.071C569.107 253.388 569.347 254.042 569.791 254.462C570.235 254.882 570.787 255.092 571.447 255.092C572.035 255.092 572.521 254.948 572.905 254.66C573.301 254.372 573.553 253.982 573.661 253.49H576.343C576.211 254.186 575.929 254.81 575.497 255.362C575.065 255.914 574.507 256.346 573.823 256.658C573.151 256.97 572.401 257.126 571.573 257.126C570.601 257.126 569.737 256.922 568.981 256.514C568.225 256.094 567.637 255.5 567.217 254.732C566.797 253.964 566.587 253.058 566.587 252.014C566.587 250.97 566.797 250.064 567.217 249.296C567.637 248.516 568.225 247.922 568.981 247.514C569.737 247.106 570.601 246.902 571.573 246.902C572.557 246.902 573.415 247.106 574.147 247.514C574.891 247.922 575.461 248.486 575.857 249.206C576.265 249.914 576.469 250.724 576.469 251.636ZM573.913 251.384C573.949 250.568 573.733 249.95 573.265 249.53C572.809 249.11 572.245 248.9 571.573 248.9C570.889 248.9 570.313 249.11 569.845 249.53C569.377 249.95 569.119 250.568 569.071 251.384H573.913Z" fill="#27364D"/>
<path d="M599.754 151.292V164H597.198V158.474H591.762V164H589.224V151.292H591.762V156.44H597.198V151.292H599.754ZM603.838 151.292L607.24 161.354L610.66 151.292H613.378L608.878 164H605.62L601.12 151.292H603.838ZM622.488 161.444H617.394L616.494 164H613.812L618.492 151.436H621.39L626.052 164H623.37L622.488 161.444ZM621.804 159.518L619.932 154.154L618.06 159.518H621.804ZM633.164 151.166C634.748 151.166 636.062 151.574 637.106 152.39C638.15 153.206 638.84 154.316 639.176 155.72H636.512C636.236 155.036 635.804 154.496 635.216 154.1C634.64 153.704 633.944 153.506 633.128 153.506C632.456 153.506 631.85 153.674 631.31 154.01C630.77 154.346 630.35 154.826 630.05 155.45C629.75 156.074 629.6 156.806 629.6 157.646C629.6 158.474 629.75 159.2 630.05 159.824C630.35 160.448 630.77 160.928 631.31 161.264C631.85 161.6 632.456 161.768 633.128 161.768C633.944 161.768 634.64 161.57 635.216 161.174C635.804 160.778 636.236 160.238 636.512 159.554H639.176C638.84 160.958 638.15 162.068 637.106 162.884C636.062 163.7 634.748 164.108 633.164 164.108C631.952 164.108 630.878 163.838 629.942 163.298C629.018 162.746 628.298 161.978 627.782 160.994C627.278 160.01 627.026 158.894 627.026 157.646C627.026 156.386 627.278 155.264 627.782 154.28C628.298 153.296 629.018 152.534 629.942 151.994C630.866 151.442 631.94 151.166 633.164 151.166Z" fill="#27364D"/>
<line x1="423" y1="116" x2="581" y2="116" stroke="#2BC47C" stroke-width="2" stroke-dasharray="2 4"/>
<path d="M630.207 120.751C628.231 119.115 626.196 118.771 624.401 118.467C623.209 118.266 622.234 118.099 621.376 117.605C626.177 116.562 629.781 114.084 631.628 110.503C633.399 107.07 633.281 102.967 631.305 99.2461C630.107 96.9872 627.506 95.3387 624.679 95.0463C621.963 94.7656 619.435 95.7705 617.742 97.8074C616.106 99.7834 615.762 101.818 615.458 103.614C615.258 104.797 615.092 105.766 614.606 106.62C613.564 101.816 611.086 98.2104 607.504 96.3625C604.071 94.5916 599.968 94.7092 596.246 96.6849C593.987 97.8832 592.339 100.484 592.046 103.312C591.766 106.028 592.771 108.555 594.807 110.249C596.784 111.885 598.819 112.229 600.614 112.532C601.806 112.734 602.781 112.901 603.639 113.395C598.838 114.438 595.234 116.916 593.387 120.496C591.616 123.93 591.734 128.033 593.709 131.754C594.907 134.013 597.509 135.661 600.336 135.954C600.636 135.985 600.933 136 601.227 136C603.6 136 605.766 135.004 607.273 133.193C608.909 131.217 609.253 129.182 609.556 127.387C609.757 126.203 609.923 125.234 610.408 124.38C611.45 129.184 613.929 132.789 617.51 134.637C619.126 135.471 620.89 135.886 622.693 135.886C624.721 135.886 626.798 135.36 628.768 134.314C631.027 133.116 632.675 130.515 632.968 127.688C633.248 124.972 632.243 122.444 630.207 120.751ZM612.507 120.139C609.949 120.139 607.868 118.058 607.868 115.5C607.868 112.942 609.949 110.861 612.507 110.861C615.065 110.861 617.146 112.942 617.146 115.5C617.146 118.058 615.065 120.139 612.507 120.139ZM619.135 104.235C619.393 102.709 619.616 101.391 620.611 100.189C621.82 98.7355 623.438 98.6669 624.295 98.7556C625.87 98.9185 627.398 99.8386 628.011 100.994C629.426 103.659 629.533 106.429 628.313 108.794C627.008 111.325 624.345 113.114 620.725 113.931C620.335 111.88 619.194 110.093 617.599 108.866C618.614 107.298 618.896 105.646 619.135 104.235ZM597.189 107.379C595.735 106.171 595.667 104.552 595.756 103.695C595.919 102.12 596.839 100.592 597.995 99.9793C600.66 98.5644 603.43 98.457 605.794 99.6767C608.33 100.985 610.12 103.654 610.935 107.282C608.889 107.672 607.106 108.81 605.88 110.399C604.307 109.378 602.65 109.094 601.236 108.855C599.709 108.597 598.391 108.374 597.189 107.379ZM605.879 126.764C605.621 128.29 605.398 129.608 604.403 130.811C603.194 132.264 601.575 132.333 600.719 132.244C599.144 132.081 597.616 131.161 597.003 130.005C595.588 127.341 595.481 124.571 596.701 122.206C598.007 119.675 600.669 117.886 604.289 117.069C604.679 119.12 605.821 120.907 607.415 122.134C606.401 123.702 606.118 125.354 605.879 126.764ZM629.258 127.304C629.096 128.88 628.175 130.407 627.02 131.02C624.355 132.435 621.585 132.543 619.22 131.323C616.684 130.015 614.894 127.346 614.079 123.717C616.125 123.327 617.909 122.189 619.135 120.6C620.707 121.621 622.364 121.905 623.779 122.144C625.305 122.402 626.623 122.625 627.825 123.621C629.278 124.829 629.347 126.447 629.258 127.304Z" fill="url(#paint40_linear)"/>
<path d="M168.423 172.895L163.237 167.958L161.027 170.279L168.603 177.49L180.146 164.638L177.762 162.497L168.423 172.895Z" fill="url(#paint41_linear)" stroke="url(#paint42_linear)" stroke-width="0.5"/>
<path d="M183.315 155.22C179.431 154.524 175.855 152.403 174.068 151.201C172.901 150.415 171.544 150 170.143 150C168.742 150 167.384 150.415 166.217 151.201C164.431 152.403 160.854 154.524 156.97 155.22C154.67 155.633 153 157.623 153 159.953V169.619C153 172.812 153.893 175.925 155.655 178.871C157.034 181.176 158.944 183.379 161.332 185.418C165.348 188.848 169.324 190.636 169.491 190.71L170.143 191L170.794 190.71C170.961 190.636 174.938 188.848 178.953 185.418C181.341 183.379 183.251 181.176 184.63 178.871C186.392 175.925 187.285 172.812 187.285 169.619V159.953C187.285 157.623 185.616 155.633 183.315 155.22ZM184.081 169.619C184.081 174.38 181.676 178.858 176.933 182.93C174.175 185.297 171.376 186.84 170.143 187.466C167.308 186.025 156.204 179.735 156.204 169.619V159.953C156.204 159.177 156.764 158.513 157.535 158.374C161.997 157.575 166.011 155.202 168.006 153.859C168.643 153.431 169.381 153.204 170.143 153.204C170.904 153.204 171.643 153.431 172.279 153.859C174.274 155.202 178.288 157.575 182.75 158.374C183.521 158.513 184.081 159.176 184.081 159.953V169.619V169.619Z" fill="url(#paint43_linear)" stroke="url(#paint44_linear)" stroke-width="0.5"/>
<line x1="494.667" y1="370.027" x2="517.526" y2="378.595" stroke="#00C27D" stroke-width="3"/>
<path d="M582.016 391.154V382.749L537.777 400.09V409.38L582.016 391.154Z" fill="#99B2C5"/>
<path d="M537.158 399.913V409.203L490 393.189V385.58L537.158 399.913Z" fill="#BFEDD8"/>
<path d="M490 385.138L537.158 399.559L581.219 382.395L535.477 367L490 385.138Z" fill="url(#paint45_linear)"/>
<line x1="491.675" y1="350.475" x2="510.359" y2="341.644" stroke="#00C27D" stroke-width="3"/>
<path d="M486.621 327.138L533.779 341.559L577.84 324.395L532.098 309L486.621 327.138Z" fill="url(#paint46_linear)"/>
<path d="M578.016 333.154V324.749L533.777 342.09V351.38L578.016 333.154Z" fill="#99B2C5"/>
<path d="M533.158 341.913V351.203L486 335.189V327.58L533.158 341.913Z" fill="#BFEDD8"/>
<path d="M101.843 32.1546C101.299 31.6105 100.445 31.5303 99.8086 31.9637C97.4121 33.5972 85.3921 41.8108 84.1003 43.1026C82.227 44.976 82.227 48.0241 84.1003 49.8975C85.037 50.8341 86.2675 51.3025 87.4978 51.3025C88.7281 51.3025 89.9585 50.8341 90.8952 49.8975C92.187 48.6057 100.401 36.5857 102.034 34.1892C102.467 33.5532 102.387 32.6989 101.843 32.1546ZM88.6302 47.6325C88.0058 48.257 86.9897 48.257 86.3653 47.6325C85.7409 47.0081 85.7408 45.9923 86.365 45.3679C86.8669 44.8719 90.2796 42.438 94.4784 39.5194C91.5599 43.7182 89.126 47.1307 88.6302 47.6325Z" fill="url(#paint47_linear)"/>
<path d="M74.3857 53.9491L72.4085 54.9136C70.9619 52.3317 70.2031 49.4499 70.2031 46.4999C70.2031 44.3386 70.6017 42.2685 71.329 40.3593L73.5945 41.446C73.8179 41.5531 74.0537 41.6039 74.286 41.6039C74.8829 41.6039 75.4558 41.2688 75.7312 40.6946C76.1137 39.8971 75.7773 38.9404 74.9798 38.5579L72.743 37.485C75.5231 32.951 80.3331 29.7899 85.8985 29.2766V31.6854C85.8985 32.57 86.6155 33.287 87.5 33.287C88.3846 33.287 89.1016 32.57 89.1016 31.6854V29.2754C91.0097 29.4491 92.8559 29.935 94.6086 30.7262C95.4146 31.0902 96.3633 30.7315 96.7272 29.9255C97.0912 29.1193 96.7327 28.1708 95.9265 27.8068C93.2706 26.608 90.4355 26 87.4999 26C82.0242 26 76.8762 28.1323 73.0042 32.0042C69.1324 35.8762 67 41.0242 67 46.4999C67 50.5463 68.201 54.4816 70.4732 57.8802C70.7793 58.3379 71.2853 58.5918 71.8056 58.5918C72.0422 58.5918 72.2818 58.5393 72.5069 58.4295L75.7901 56.828C76.5851 56.4402 76.9152 55.4814 76.5273 54.6864C76.1395 53.8914 75.1807 53.5614 74.3857 53.9491Z" fill="url(#paint48_linear)"/>
<path d="M106.194 38.0735C105.83 37.2673 104.881 36.9086 104.075 37.2727C103.269 37.6366 102.91 38.5852 103.274 39.3913C104.285 41.6301 104.797 44.0218 104.797 46.4999C104.797 49.4543 104.036 52.3407 102.585 54.9255L100.521 53.9426C99.7225 53.5624 98.7668 53.9013 98.3864 54.7C98.0061 55.4986 98.3453 56.4543 99.1439 56.8346L102.507 58.4361C102.728 58.5414 102.963 58.5918 103.195 58.5918C103.715 58.5918 104.221 58.3376 104.527 57.8802C106.799 54.4816 108 50.5462 108 46.4999C108 43.5643 107.392 40.7292 106.194 38.0735Z" fill="url(#paint49_linear)"/>
<path d="M592.141 347.292V360H589.603V347.292H592.141ZM600.377 349.884C601.529 349.884 602.447 350.262 603.131 351.018C603.815 351.774 604.157 352.836 604.157 354.204V360H601.637V354.492C601.637 353.7 601.433 353.088 601.025 352.656C600.617 352.212 600.059 351.99 599.351 351.99C598.631 351.99 598.055 352.224 597.623 352.692C597.191 353.16 596.975 353.832 596.975 354.708V360H594.437V346.68H596.975V352.026C597.239 351.354 597.671 350.832 598.271 350.46C598.883 350.076 599.585 349.884 600.377 349.884ZM608.928 351.936C609.3 351.3 609.792 350.802 610.404 350.442C611.016 350.07 611.7 349.884 612.456 349.884V352.602H611.718C609.858 352.602 608.928 353.466 608.928 355.194V360H606.39V350.028H608.928V351.936ZM623.239 354.636C623.239 354.888 623.209 355.176 623.149 355.5H615.841C615.877 356.388 616.117 357.042 616.561 357.462C617.005 357.882 617.557 358.092 618.217 358.092C618.805 358.092 619.291 357.948 619.675 357.66C620.071 357.372 620.323 356.982 620.431 356.49H623.113C622.981 357.186 622.699 357.81 622.267 358.362C621.835 358.914 621.277 359.346 620.593 359.658C619.921 359.97 619.171 360.126 618.343 360.126C617.371 360.126 616.507 359.922 615.751 359.514C614.995 359.094 614.407 358.5 613.987 357.732C613.567 356.964 613.357 356.058 613.357 355.014C613.357 353.97 613.567 353.064 613.987 352.296C614.407 351.516 614.995 350.922 615.751 350.514C616.507 350.106 617.371 349.902 618.343 349.902C619.327 349.902 620.185 350.106 620.917 350.514C621.661 350.922 622.231 351.486 622.627 352.206C623.035 352.914 623.239 353.724 623.239 354.636ZM620.683 354.384C620.719 353.568 620.503 352.95 620.035 352.53C619.579 352.11 619.015 351.9 618.343 351.9C617.659 351.9 617.083 352.11 616.615 352.53C616.147 352.95 615.889 353.568 615.841 354.384H620.683ZM636.701 357.444H631.607L630.707 360H628.025L632.705 347.436H635.603L640.265 360H637.583L636.701 357.444ZM636.017 355.518L634.145 350.154L632.273 355.518H636.017ZM647.592 349.902C648.432 349.902 649.188 350.106 649.86 350.514C650.532 350.922 651.054 351.516 651.426 352.296C651.81 353.064 652.002 353.97 652.002 355.014C652.002 356.058 651.81 356.97 651.426 357.75C651.054 358.518 650.532 359.106 649.86 359.514C649.188 359.922 648.432 360.126 647.592 360.126C646.752 360.126 646.032 359.928 645.432 359.532C644.844 359.124 644.424 358.584 644.172 357.912V364.752H641.634V350.028H644.172V352.098C644.424 351.426 644.844 350.892 645.432 350.496C646.032 350.1 646.752 349.902 647.592 349.902ZM646.8 352.116C646.032 352.116 645.396 352.38 644.892 352.908C644.4 353.424 644.154 354.126 644.154 355.014C644.154 355.89 644.4 356.592 644.892 357.12C645.396 357.636 646.032 357.894 646.8 357.894C647.592 357.894 648.228 357.642 648.708 357.138C649.188 356.622 649.428 355.914 649.428 355.014C649.428 354.114 649.188 353.406 648.708 352.89C648.228 352.374 647.592 352.116 646.8 352.116ZM659.756 349.902C660.596 349.902 661.352 350.106 662.024 350.514C662.696 350.922 663.218 351.516 663.59 352.296C663.974 353.064 664.166 353.97 664.166 355.014C664.166 356.058 663.974 356.97 663.59 357.75C663.218 358.518 662.696 359.106 662.024 359.514C661.352 359.922 660.596 360.126 659.756 360.126C658.916 360.126 658.196 359.928 657.596 359.532C657.008 359.124 656.588 358.584 656.336 357.912V364.752H653.798V350.028H656.336V352.098C656.588 351.426 657.008 350.892 657.596 350.496C658.196 350.1 658.916 349.902 659.756 349.902ZM658.964 352.116C658.196 352.116 657.56 352.38 657.056 352.908C656.564 353.424 656.318 354.126 656.318 355.014C656.318 355.89 656.564 356.592 657.056 357.12C657.56 357.636 658.196 357.894 658.964 357.894C659.756 357.894 660.392 357.642 660.872 357.138C661.352 356.622 661.592 355.914 661.592 355.014C661.592 354.114 661.352 353.406 660.872 352.89C660.392 352.374 659.756 352.116 658.964 352.116ZM669.401 349.902C670.613 349.902 671.585 350.208 672.317 350.82C673.049 351.432 673.505 352.248 673.685 353.268H671.309C671.213 352.788 670.997 352.404 670.661 352.116C670.325 351.828 669.887 351.684 669.347 351.684C668.915 351.684 668.579 351.786 668.339 351.99C668.099 352.194 667.979 352.47 667.979 352.818C667.979 353.094 668.075 353.316 668.267 353.484C668.459 353.652 668.699 353.784 668.987 353.88C669.275 353.976 669.689 354.09 670.229 354.222C670.985 354.39 671.597 354.57 672.065 354.762C672.545 354.942 672.953 355.236 673.289 355.644C673.637 356.04 673.811 356.58 673.811 357.264C673.811 358.116 673.475 358.806 672.803 359.334C672.143 359.862 671.249 360.126 670.121 360.126C668.825 360.126 667.787 359.838 667.007 359.262C666.227 358.674 665.753 357.84 665.585 356.76H668.015C668.075 357.252 668.291 357.642 668.663 357.93C669.035 358.206 669.521 358.344 670.121 358.344C670.553 358.344 670.883 358.242 671.111 358.038C671.339 357.822 671.453 357.546 671.453 357.21C671.453 356.922 671.351 356.688 671.147 356.508C670.955 356.328 670.709 356.19 670.409 356.094C670.121 355.998 669.707 355.884 669.167 355.752C668.423 355.584 667.817 355.416 667.349 355.248C666.893 355.068 666.497 354.786 666.161 354.402C665.837 354.018 665.675 353.49 665.675 352.818C665.675 351.954 666.005 351.252 666.665 350.712C667.325 350.172 668.237 349.902 669.401 349.902Z" fill="#27364D"/>
<path d="M653.058 290H614.613C612.07 290 610 292.07 610 294.613V326.907C610 329.45 612.07 331.52 614.613 331.52H653.058C655.602 331.52 657.671 329.45 657.671 326.907V294.613C657.671 292.07 655.602 290 653.058 290ZM654.596 326.907C654.596 327.755 653.906 328.444 653.058 328.444H614.613C613.765 328.444 613.076 327.755 613.076 326.907V302.302H651.52C652.369 302.302 653.058 301.614 653.058 300.764C653.058 299.915 652.369 299.227 651.52 299.227H613.076V294.613C613.076 293.765 613.765 293.076 614.613 293.076H653.058C653.906 293.076 654.596 293.765 654.596 294.613V326.907ZM616.452 297.659C615.653 297.813 614.834 297.337 614.643 296.452C614.488 295.647 614.971 294.833 615.85 294.643C616.663 294.487 617.471 294.979 617.659 295.85C617.815 296.661 617.326 297.47 616.452 297.659ZM621.065 297.659C620.259 297.814 619.446 297.33 619.256 296.452C619.101 295.647 619.584 294.833 620.464 294.643C621.276 294.487 622.085 294.979 622.272 295.85C622.428 296.661 621.94 297.47 621.065 297.659ZM625.679 297.659C624.871 297.815 624.059 297.329 623.87 296.452C623.715 295.647 624.198 294.833 625.077 294.643C625.889 294.487 626.698 294.978 626.886 295.85C627.042 296.661 626.553 297.47 625.679 297.659Z" fill="url(#paint50_linear)" stroke="url(#paint51_linear)" stroke-width="0.5"/>
<path d="M646.461 309.019C644.653 309.019 643.125 310.24 642.656 311.901H640.631V308.483C640.631 307.891 640.151 307.411 639.559 307.411C638.967 307.411 638.487 307.891 638.487 308.483V312.973C638.487 313.566 638.967 314.046 639.559 314.046H642.656C643.125 315.707 644.653 316.928 646.461 316.928C648.641 316.928 650.415 315.154 650.415 312.973C650.415 310.793 648.641 309.019 646.461 309.019ZM646.461 314.783C645.464 314.783 644.652 313.971 644.652 312.973C644.652 311.976 645.464 311.164 646.461 311.164C647.459 311.164 648.271 311.976 648.271 312.973C648.271 313.971 647.459 314.783 646.461 314.783ZM634.868 315.2V308.483C634.868 307.891 634.388 307.411 633.795 307.411C633.203 307.411 632.723 307.891 632.723 308.483V315.2C631.063 315.669 629.842 317.197 629.842 319.005C629.842 321.186 631.615 322.96 633.795 322.96C635.976 322.96 637.749 321.186 637.749 319.005C637.749 317.197 636.528 315.669 634.868 315.2ZM633.795 320.815C632.798 320.815 631.986 320.003 631.986 319.005C631.986 318.008 632.798 317.196 633.795 317.196C634.793 317.196 635.605 318.008 635.605 319.005C635.605 320.003 634.793 320.815 633.795 320.815ZM628.032 307.411C627.44 307.411 626.96 307.891 626.96 308.483V311.901H624.935C624.466 310.24 622.938 309.019 621.13 309.019C618.95 309.019 617.176 310.793 617.176 312.973C617.176 315.154 618.95 316.928 621.13 316.928C622.938 316.928 624.466 315.707 624.935 314.046H628.032C628.624 314.046 629.104 313.566 629.104 312.973V308.483C629.104 307.891 628.624 307.411 628.032 307.411ZM621.13 314.783C620.132 314.783 619.32 313.971 619.32 312.973C619.32 311.976 620.132 311.164 621.13 311.164C622.127 311.164 622.939 311.976 622.939 312.973C622.939 313.971 622.127 314.783 621.13 314.783Z" fill="url(#paint52_linear)" stroke="url(#paint53_linear)" stroke-width="1.03"/>
<defs>
<linearGradient id="paint0_linear" x1="249.329" y1="214.836" x2="453.648" y2="214.836" gradientUnits="userSpaceOnUse">
<stop stop-color="white"/>
<stop offset="1" stop-color="white"/>
</linearGradient>
<linearGradient id="paint1_linear" x1="551" y1="207" x2="535" y2="207" gradientUnits="userSpaceOnUse">
<stop stop-color="#06EA84"/>
<stop offset="1" stop-color="#2BC47B"/>
</linearGradient>
<linearGradient id="paint2_linear" x1="551" y1="207" x2="535" y2="207" gradientUnits="userSpaceOnUse">
<stop stop-color="#06EA84"/>
<stop offset="1" stop-color="#2BC47B"/>
</linearGradient>
<linearGradient id="paint3_linear" x1="563" y1="206.5" x2="522" y2="206.5" gradientUnits="userSpaceOnUse">
<stop stop-color="#06EA84"/>
<stop offset="1" stop-color="#2BC47B"/>
</linearGradient>
<linearGradient id="paint4_linear" x1="84" y1="301.5" x2="41" y2="301.5" gradientUnits="userSpaceOnUse">
<stop stop-color="#06EA84"/>
<stop offset="1" stop-color="#2BC47B"/>
</linearGradient>
<linearGradient id="paint5_linear" x1="84" y1="301.5" x2="41" y2="301.5" gradientUnits="userSpaceOnUse">
<stop stop-color="#06EA84"/>
<stop offset="1" stop-color="#2BC47B"/>
</linearGradient>
<linearGradient id="paint6_linear" x1="84" y1="301.5" x2="41" y2="301.5" gradientUnits="userSpaceOnUse">
<stop stop-color="#06EA84"/>
<stop offset="1" stop-color="#2BC47B"/>
</linearGradient>
<linearGradient id="paint7_linear" x1="84" y1="301.5" x2="41" y2="301.5" gradientUnits="userSpaceOnUse">
<stop stop-color="#06EA84"/>
<stop offset="1" stop-color="#2BC47B"/>
</linearGradient>
<linearGradient id="paint8_linear" x1="84" y1="301.5" x2="41" y2="301.5" gradientUnits="userSpaceOnUse">
<stop stop-color="#06EA84"/>
<stop offset="1" stop-color="#2BC47B"/>
</linearGradient>
<linearGradient id="paint9_linear" x1="84" y1="301.5" x2="41" y2="301.5" gradientUnits="userSpaceOnUse">
<stop stop-color="#06EA84"/>
<stop offset="1" stop-color="#2BC47B"/>
</linearGradient>
<linearGradient id="paint10_linear" x1="84" y1="301.5" x2="41" y2="301.5" gradientUnits="userSpaceOnUse">
<stop stop-color="#06EA84"/>
<stop offset="1" stop-color="#2BC47B"/>
</linearGradient>
<linearGradient id="paint11_linear" x1="84" y1="301.5" x2="41" y2="301.5" gradientUnits="userSpaceOnUse">
<stop stop-color="#06EA84"/>
<stop offset="1" stop-color="#2BC47B"/>
</linearGradient>
<linearGradient id="paint12_linear" x1="84" y1="301.5" x2="41" y2="301.5" gradientUnits="userSpaceOnUse">
<stop stop-color="#06EA84"/>
<stop offset="1" stop-color="#2BC47B"/>
</linearGradient>
<linearGradient id="paint13_linear" x1="84" y1="301.5" x2="41" y2="301.5" gradientUnits="userSpaceOnUse">
<stop stop-color="#06EA84"/>
<stop offset="1" stop-color="#2BC47B"/>
</linearGradient>
<linearGradient id="paint14_linear" x1="84" y1="301.5" x2="41" y2="301.5" gradientUnits="userSpaceOnUse">
<stop stop-color="#06EA84"/>
<stop offset="1" stop-color="#2BC47B"/>
</linearGradient>
<linearGradient id="paint15_linear" x1="84" y1="301.5" x2="41" y2="301.5" gradientUnits="userSpaceOnUse">
<stop stop-color="#06EA84"/>
<stop offset="1" stop-color="#2BC47B"/>
</linearGradient>
<linearGradient id="paint16_linear" x1="84" y1="301.5" x2="41" y2="301.5" gradientUnits="userSpaceOnUse">
<stop stop-color="#06EA84"/>
<stop offset="1" stop-color="#2BC47B"/>
</linearGradient>
<linearGradient id="paint17_linear" x1="84" y1="301.5" x2="41" y2="301.5" gradientUnits="userSpaceOnUse">
<stop stop-color="#06EA84"/>
<stop offset="1" stop-color="#2BC47B"/>
</linearGradient>
<linearGradient id="paint18_linear" x1="84" y1="301.5" x2="41" y2="301.5" gradientUnits="userSpaceOnUse">
<stop stop-color="#06EA84"/>
<stop offset="1" stop-color="#2BC47B"/>
</linearGradient>
<linearGradient id="paint19_linear" x1="84" y1="301.5" x2="41" y2="301.5" gradientUnits="userSpaceOnUse">
<stop stop-color="#06EA84"/>
<stop offset="1" stop-color="#2BC47B"/>
</linearGradient>
<linearGradient id="paint20_linear" x1="84" y1="301.5" x2="41" y2="301.5" gradientUnits="userSpaceOnUse">
<stop stop-color="#06EA84"/>
<stop offset="1" stop-color="#2BC47B"/>
</linearGradient>
<linearGradient id="paint21_linear" x1="84" y1="301.5" x2="41" y2="301.5" gradientUnits="userSpaceOnUse">
<stop stop-color="#06EA84"/>
<stop offset="1" stop-color="#2BC47B"/>
</linearGradient>
<linearGradient id="paint22_linear" x1="84" y1="301.5" x2="41" y2="301.5" gradientUnits="userSpaceOnUse">
<stop stop-color="#06EA84"/>
<stop offset="1" stop-color="#2BC47B"/>
</linearGradient>
<linearGradient id="paint23_linear" x1="84" y1="301.5" x2="41" y2="301.5" gradientUnits="userSpaceOnUse">
<stop stop-color="#06EA84"/>
<stop offset="1" stop-color="#2BC47B"/>
</linearGradient>
<linearGradient id="paint24_linear" x1="84" y1="301.5" x2="41" y2="301.5" gradientUnits="userSpaceOnUse">
<stop stop-color="#06EA84"/>
<stop offset="1" stop-color="#2BC47B"/>
</linearGradient>
<linearGradient id="paint25_linear" x1="84" y1="301.5" x2="41" y2="301.5" gradientUnits="userSpaceOnUse">
<stop stop-color="#06EA84"/>
<stop offset="1" stop-color="#2BC47B"/>
</linearGradient>
<linearGradient id="paint26_linear" x1="84" y1="301.5" x2="41" y2="301.5" gradientUnits="userSpaceOnUse">
<stop stop-color="#06EA84"/>
<stop offset="1" stop-color="#2BC47B"/>
</linearGradient>
<linearGradient id="paint27_linear" x1="84" y1="301.5" x2="41" y2="301.5" gradientUnits="userSpaceOnUse">
<stop stop-color="#06EA84"/>
<stop offset="1" stop-color="#2BC47B"/>
</linearGradient>
<linearGradient id="paint28_linear" x1="84" y1="301.5" x2="41" y2="301.5" gradientUnits="userSpaceOnUse">
<stop stop-color="#06EA84"/>
<stop offset="1" stop-color="#2BC47B"/>
</linearGradient>
<linearGradient id="paint29_linear" x1="84" y1="301.5" x2="41" y2="301.5" gradientUnits="userSpaceOnUse">
<stop stop-color="#06EA84"/>
<stop offset="1" stop-color="#2BC47B"/>
</linearGradient>
<linearGradient id="paint30_linear" x1="84" y1="301.5" x2="41" y2="301.5" gradientUnits="userSpaceOnUse">
<stop stop-color="#06EA84"/>
<stop offset="1" stop-color="#2BC47B"/>
</linearGradient>
<linearGradient id="paint31_linear" x1="84" y1="301.5" x2="41" y2="301.5" gradientUnits="userSpaceOnUse">
<stop stop-color="#06EA84"/>
<stop offset="1" stop-color="#2BC47B"/>
</linearGradient>
<linearGradient id="paint32_linear" x1="84" y1="301.5" x2="41" y2="301.5" gradientUnits="userSpaceOnUse">
<stop stop-color="#06EA84"/>
<stop offset="1" stop-color="#2BC47B"/>
</linearGradient>
<linearGradient id="paint33_linear" x1="84" y1="301.5" x2="41" y2="301.5" gradientUnits="userSpaceOnUse">
<stop stop-color="#06EA84"/>
<stop offset="1" stop-color="#2BC47B"/>
</linearGradient>
<linearGradient id="paint34_linear" x1="84" y1="301.5" x2="41" y2="301.5" gradientUnits="userSpaceOnUse">
<stop stop-color="#06EA84"/>
<stop offset="1" stop-color="#2BC47B"/>
</linearGradient>
<linearGradient id="paint35_linear" x1="84" y1="301.5" x2="41" y2="301.5" gradientUnits="userSpaceOnUse">
<stop stop-color="#06EA84"/>
<stop offset="1" stop-color="#2BC47B"/>
</linearGradient>
<linearGradient id="paint36_linear" x1="84" y1="301.5" x2="41" y2="301.5" gradientUnits="userSpaceOnUse">
<stop stop-color="#06EA84"/>
<stop offset="1" stop-color="#2BC47B"/>
</linearGradient>
<linearGradient id="paint37_linear" x1="84" y1="301.5" x2="41" y2="301.5" gradientUnits="userSpaceOnUse">
<stop stop-color="#06EA84"/>
<stop offset="1" stop-color="#2BC47B"/>
</linearGradient>
<linearGradient id="paint38_linear" x1="84" y1="301.5" x2="41" y2="301.5" gradientUnits="userSpaceOnUse">
<stop stop-color="#06EA84"/>
<stop offset="1" stop-color="#2BC47B"/>
</linearGradient>
<linearGradient id="paint39_linear" x1="84" y1="301.5" x2="41" y2="301.5" gradientUnits="userSpaceOnUse">
<stop stop-color="#06EA84"/>
<stop offset="1" stop-color="#2BC47B"/>
</linearGradient>
<linearGradient id="paint40_linear" x1="633.014" y1="115.5" x2="592" y2="115.5" gradientUnits="userSpaceOnUse">
<stop stop-color="#06EA84"/>
<stop offset="1" stop-color="#2BC47B"/>
</linearGradient>
<linearGradient id="paint41_linear" x1="180.146" y1="169.994" x2="161.027" y2="169.994" gradientUnits="userSpaceOnUse">
<stop stop-color="#06EA84"/>
<stop offset="1" stop-color="#2BC47B"/>
</linearGradient>
<linearGradient id="paint42_linear" x1="180.146" y1="169.994" x2="161.027" y2="169.994" gradientUnits="userSpaceOnUse">
<stop stop-color="#06EA84"/>
<stop offset="1" stop-color="#2BC47B"/>
</linearGradient>
<linearGradient id="paint43_linear" x1="187.285" y1="170.5" x2="153" y2="170.5" gradientUnits="userSpaceOnUse">
<stop stop-color="#06EA84"/>
<stop offset="1" stop-color="#2BC47B"/>
</linearGradient>
<linearGradient id="paint44_linear" x1="187.285" y1="170.5" x2="153" y2="170.5" gradientUnits="userSpaceOnUse">
<stop stop-color="#06EA84"/>
<stop offset="1" stop-color="#2BC47B"/>
</linearGradient>
<linearGradient id="paint45_linear" x1="497.379" y1="383" x2="572.879" y2="383" gradientUnits="userSpaceOnUse">
<stop stop-color="#6BD6A3"/>
<stop offset="1" stop-color="#99B2C5"/>
</linearGradient>
<linearGradient id="paint46_linear" x1="494" y1="325" x2="569.5" y2="325" gradientUnits="userSpaceOnUse">
<stop stop-color="#6BD6A3"/>
<stop offset="1" stop-color="#99B2C5"/>
</linearGradient>
<linearGradient id="paint47_linear" x1="102.312" y1="41.494" x2="82.6953" y2="41.494" gradientUnits="userSpaceOnUse">
<stop stop-color="#06EA84"/>
<stop offset="1" stop-color="#2BC47B"/>
</linearGradient>
<linearGradient id="paint48_linear" x1="96.8695" y1="42.2959" x2="67" y2="42.2959" gradientUnits="userSpaceOnUse">
<stop stop-color="#06EA84"/>
<stop offset="1" stop-color="#2BC47B"/>
</linearGradient>
<linearGradient id="paint49_linear" x1="108" y1="47.8611" x2="98.2305" y2="47.8611" gradientUnits="userSpaceOnUse">
<stop stop-color="#06EA84"/>
<stop offset="1" stop-color="#2BC47B"/>
</linearGradient>
<linearGradient id="paint50_linear" x1="657.671" y1="310.76" x2="610" y2="310.76" gradientUnits="userSpaceOnUse">
<stop stop-color="#8AA0B4"/>
<stop offset="1" stop-color="#99B2C5"/>
</linearGradient>
<linearGradient id="paint51_linear" x1="657.671" y1="310.76" x2="610" y2="310.76" gradientUnits="userSpaceOnUse">
<stop stop-color="#8AA0B4"/>
<stop offset="1" stop-color="#99B2C5"/>
</linearGradient>
<linearGradient id="paint52_linear" x1="650.415" y1="315.185" x2="617.176" y2="315.185" gradientUnits="userSpaceOnUse">
<stop stop-color="#8AA0B4"/>
<stop offset="1" stop-color="#99B2C5"/>
</linearGradient>
<linearGradient id="paint53_linear" x1="650.415" y1="315.185" x2="617.176" y2="315.185" gradientUnits="userSpaceOnUse">
<stop stop-color="#8AA0B4"/>
<stop offset="1" stop-color="#99B2C5"/>
</linearGradient>
</defs>
</svg>
