<?xml version="1.0" encoding="utf-8"?>
<!-- Generator: Adobe Illustrator 23.1.1, SVG Export Plug-In . SVG Version: 6.00 Build 0)  -->
<svg version="1.1"
	 id="svg2" xmlns:cc="http://creativecommons.org/ns#" xmlns:dc="http://purl.org/dc/elements/1.1/" xmlns:rdf="http://www.w3.org/1999/02/22-rdf-syntax-ns#" xmlns:svg="http://www.w3.org/2000/svg"
	 xmlns="http://www.w3.org/2000/svg" xmlns:xlink="http://www.w3.org/1999/xlink" x="0px" y="0px" viewBox="0 0 339.3 108.4"
	 width="200" style="enable-background:new 0 0 339.3 108.4;" xml:space="preserve">
<style type="text/css">
	.st0{fill:#99B2C5;stroke:#99B2C5;stroke-miterlimit:10;}
</style>
<g id="g14">
	<g id="g20" transform="translate(284.8184,180.8545)">
		<path id="path22" class="st0" d="M-146.7-107.9c-9,0-15.7-7.2-15.7-16.9c0-9.7,6.8-17,15.7-17c6,0,11.3,3.5,13.8,9h9.7
			c-3-10.5-12.1-17.4-23.6-17.4c-14.6,0-25.6,10.9-25.6,25.3s11,25.3,25.6,25.3c11.7,0,21-7.2,23.8-18.2h-9.8
			C-135-111.6-140.3-107.9-146.7-107.9"/>
	</g>
	<path id="path24" class="st0" d="M168.2,80.1h8.8V44.3h-8.8V80.1z"/>
	<path id="path26" class="st0" d="M176.9,27.2h-8.6v6.7h8.6V27.2z"/>
	<g id="g28" transform="translate(326.6279,186.3926)">
		<path id="path30" class="st0" d="M-132.8-120.8v-13.7h10v-7.6h-10.3v-11l-8.5,4.2v30.6c0,7.6,4.4,12,11.9,12h7.1v-7.1h-2.7
			C-129.8-113.4-132.8-116.4-132.8-120.8"/>
	</g>
	<g id="g32" transform="translate(409.042,203.2803)">
		<path id="path34" class="st0" d="M-105.3-160.2c-4.4,0-11.1,1.2-13.7,4.1v3.5l-0.1-6.4h-8.4v35.7h8.8v-17.9
			c0-6.8,3.7-10.8,9.6-10.8c2.4,0,8,1.3,8,10.1v18.5h8.8v-22.4C-92.1-154.6-97.2-160.2-105.3-160.2"/>
	</g>
	<g id="g36" transform="translate(426.2197,178.9805)">
		<path id="path38" class="st0" d="M-99.6-103.5h-0.9v-1.6h0.9c0.5,0,0.9,0.3,0.9,0.8S-99.1-103.5-99.6-103.5 M-98-104.3
			c0-0.8-0.5-1.3-1.3-1.3h-1.8v3.7h0.7v-1.2h1l0.7,1.2h0.6l-0.7-1.2l0.3-0.2C-98.2-103.5-98-103.9-98-104.3"/>
	</g>
	<g id="g40" transform="translate(426.1279,176.3184)">
		<path id="path42" class="st0" d="M-99.6-97.3c-2.1,0-3.7-1.6-3.7-3.7c0-2.2,1.6-3.7,3.7-3.7c2.2,0,3.7,1.6,3.7,3.7
			C-95.9-98.8-97.4-97.3-99.6-97.3 M-99.6-105.5c-2.6,0-4.4,1.9-4.4,4.4c0,2.6,1.9,4.5,4.4,4.5c2.6,0,4.4-1.9,4.4-4.5
			C-95.2-103.6-97-105.5-99.6-105.5"/>
	</g>
	<g id="g44" transform="translate(353.0312,202.5156)">
		<path id="path46" class="st0" d="M-124-158.4c-6.3,0.3-17.1,2.4-17.1,12.5v23.4h8.8v-18.2c0-6.7,3.3-10.1,9.8-10.1h2.8v-2.7v-4.9
			h-1.1H-124z"/>
	</g>
	<g id="g48" transform="translate(373.2656,181.7119)">
		<path id="path50" class="st0" d="M-117.2-109.9c-5.7,0-10.3-4.6-10.3-10.3c0-5.7,4.6-10.3,10.3-10.3c5.7,0,10.3,4.6,10.3,10.3
			C-106.9-114.5-111.5-109.9-117.2-109.9 M-117.2-138.6c-10.2,0-18.5,8.3-18.5,18.5s8.3,18.4,18.5,18.4s18.5-8.3,18.5-18.5
			C-98.7-130.3-107-138.6-117.2-138.6"/>
	</g>
	<g id="g52" transform="translate(220.2822,176.1846)">
		<path id="path54" class="st0" d="M-168.2-97c-2.2,0-3.9,1.8-3.9,3.9c0,2.2,1.8,3.9,3.9,3.9c2.1,0,3.9-1.8,3.9-3.9
			S-166-97-168.2-97"/>
	</g>
	<g id="g56" transform="translate(220.2822,162.0107)">
		<path id="path58" class="st0" d="M-168.2-63.9c-1.4,0-2.6-1.2-2.6-2.6s1.2-2.6,2.6-2.6c1.4,0,2.6,1.2,2.6,2.6
			C-165.6-65.1-166.8-63.9-168.2-63.9"/>
	</g>
	<g id="g60" transform="translate(220.2822,164.9316)">
		<path id="path62" class="st0" d="M-168.2-70.7c-0.7,0-1.3,0.6-1.3,1.3c0,0.7,0.6,1.3,1.3,1.3s1.3-0.6,1.3-1.3
			S-167.5-70.7-168.2-70.7"/>
	</g>
	<g id="g64" transform="translate(220.2822,185.4375)">
		<path id="path66" class="st0" d="M-168.2-118.6c-2.2,0-3.9,1.8-3.9,3.9c0,2.2,1.8,3.9,3.9,3.9c2.1,0,3.9-1.8,3.9-3.9
			S-166-118.6-168.2-118.6"/>
	</g>
	<g id="g68" transform="translate(220.2822,209.9004)">
		<path id="path70" class="st0" d="M-168.2-175.6c-2.2,0-3.9,1.8-3.9,3.9c0,2.1,1.8,3.9,3.9,3.9c2.1,0,3.9-1.8,3.9-3.9
			S-166-175.6-168.2-175.6"/>
	</g>
	<g id="g72" transform="translate(227.5449,184.6729)">
		<path id="path74" class="st0" d="M-165.8-116.8c0.5,0.5,1.2,0.8,1.8,0.8c0.7,0,1.4-0.3,1.8-0.8c0.5-0.5,0.8-1.2,0.8-1.8
			c0-0.7-0.3-1.4-0.8-1.8c-0.5-0.5-1.1-0.8-1.8-0.8s-1.4,0.3-1.8,0.8c-0.5,0.5-0.8,1.1-0.8,1.8S-166.3-117.3-165.8-116.8"/>
	</g>
	<g id="g76" transform="translate(211.6333,205.3179)">
		<path id="path78" class="st0" d="M-171.1-164.9c-0.7,0-1.4,0.3-1.8,0.8c-1,1-1,2.7,0,3.7c0.5,0.5,1.2,0.8,1.8,0.8s1.4-0.3,1.8-0.8
			c1-1,1-2.7,0-3.7C-169.7-164.7-170.4-164.9-171.1-164.9"/>
	</g>
	<g id="g80" transform="translate(205.0903,194.709)">
		<path id="path82" class="st0" d="M-173.3-140.2c0,2.2,1.8,3.9,3.9,3.9c2.2,0,3.9-1.8,3.9-3.9c0-2.2-1.8-3.9-3.9-3.9
			C-171.5-144.1-173.3-142.4-173.3-140.2"/>
	</g>
	<g id="g84" transform="translate(228.9312,201.397)">
		<path id="path86" class="st0" d="M-165.3-155.8c0.7,0,1.4-0.3,1.8-0.8c1-1,1-2.7,0-3.7c-0.5-0.5-1.1-0.8-1.8-0.8s-1.4,0.3-1.8,0.8
			c-1,1-1,2.7,0,3.7C-166.7-156.1-166-155.8-165.3-155.8"/>
	</g>
	<g id="g88" transform="translate(211.6333,188.0195)">
		<path id="path90" class="st0" d="M-171.1-124.6c-0.7,0-1.4,0.3-1.8,0.8c-0.5,0.5-0.8,1.2-0.8,1.8c0,0.7,0.3,1.4,0.8,1.8
			c0.5,0.5,1.1,0.8,1.8,0.8s1.4-0.3,1.8-0.8c0.5-0.5,0.8-1.2,0.8-1.8c0-0.7-0.3-1.4-0.8-1.8C-169.7-124.3-170.4-124.6-171.1-124.6"
			/>
	</g>
	<g id="g92" transform="translate(220.2822,219.1533)">
		<path id="path94" class="st0" d="M-168.2-197.2c-2.2,0-3.9,1.8-3.9,3.9c0,2.1,1.8,3.9,3.9,3.9c2.1,0,3.9-1.8,3.9-3.9
			S-166-197.2-168.2-197.2"/>
	</g>
	<g id="g96" transform="translate(220.2822,223.4858)">
		<path id="path98" class="st0" d="M-168.2-207.3c-1.4,0-2.6-1.2-2.6-2.6c0-1.4,1.2-2.6,2.6-2.6c1.4,0,2.6,1.2,2.6,2.6
			S-166.8-207.3-168.2-207.3"/>
	</g>
	<g id="g100" transform="translate(220.2822,224.4858)">
		<path id="path102" class="st0" d="M-168.2-209.7c0.7,0,1.3-0.6,1.3-1.3s-0.6-1.3-1.3-1.3s-1.3,0.6-1.3,1.3
			C-169.5-210.2-168.9-209.7-168.2-209.7"/>
	</g>
	<g id="g104" transform="translate(242.0171,171.0137)">
		<path id="path106" class="st0" d="M-161-84.9c-0.7,0-1.4-0.3-1.8-0.8c-0.5-0.5-0.8-1.1-0.8-1.8c0-0.4,0.1-1.2,0.8-1.8
			c0.5-0.5,1.2-0.8,1.8-0.8c0.7,0,1.4,0.3,1.8,0.8c0.7,0.7,0.8,1.4,0.8,1.8c0,0.7-0.3,1.4-0.8,1.8C-159.6-85.2-160.3-84.9-161-84.9"
			/>
	</g>
	<g id="g108" transform="translate(242.6968,173.6523)">
		<path id="path110" class="st0" d="M-160.7-91.1c-0.3-0.3-0.7-0.4-0.9-0.4s-0.6,0-0.9,0.4c-0.3,0.3-0.4,0.7-0.4,0.9
			c0,0.2,0,0.6,0.4,0.9c0.3,0.3,0.7,0.4,0.9,0.4s0.6,0,0.9-0.4c0.3-0.3,0.4-0.7,0.4-0.9C-160.4-90.3-160.4-90.7-160.7-91.1"/>
	</g>
	<g id="g112" transform="translate(198.5479,214.4829)">
		<path id="path114" class="st0" d="M-175.5-186.3c-0.7,0-1.4-0.3-1.8-0.8c-0.5-0.5-0.8-1.2-0.8-1.8s0.3-1.4,0.8-1.8
			c0.5-0.4,1.2-0.8,1.8-0.8s1.4,0.3,1.8,0.8c1,1,1,2.7,0,3.7C-174.3-186.4-175-186.3-175.5-186.3"/>
	</g>
	<g id="g116" transform="translate(198.5479,215.4829)">
		<path id="path118" class="st0" d="M-175.5-188.7c0.2,0,0.6,0,0.9-0.4c0.5-0.5,0.5-1.3,0-1.8c-0.3-0.3-0.7-0.4-0.9-0.4
			s-0.6,0-0.9,0.4c-0.3,0.4-0.4,0.7-0.4,0.9s0,0.6,0.4,0.9C-176-188.7-175.6-188.7-175.5-188.7"/>
	</g>
	<g id="g120" transform="translate(189.5449,192.748)">
		<path id="path122" class="st0" d="M-178.5-135.6c-1.4,0-2.6-1.2-2.6-2.6s1.2-2.6,2.6-2.6c1.4,0,2.6,1.2,2.6,2.6
			S-177-135.6-178.5-135.6"/>
	</g>
	<g id="g124" transform="translate(189.5449,193.748)">
		<path id="path126" class="st0" d="M-178.5-137.9c0.7,0,1.3-0.6,1.3-1.3s-0.6-1.3-1.3-1.3s-1.3,0.6-1.3,1.3
			C-179.7-138.5-179.2-137.9-178.5-137.9"/>
	</g>
	<g id="g128" transform="translate(242.0171,214.4829)">
		<path id="path130" class="st0" d="M-161-186.3c-0.7,0-1.4-0.3-1.8-0.8c-0.5-0.5-0.8-1.2-0.8-1.8s0.3-1.4,0.8-1.8
			c0.5-0.4,1.2-0.8,1.8-0.8s1.4,0.3,1.8,0.8c1,1,1,2.7,0,3.7C-159.8-186.4-160.6-186.3-161-186.3"/>
	</g>
	<g id="g132" transform="translate(242.0171,215.4829)">
		<path id="path134" class="st0" d="M-161-188.7c0.2,0,0.6,0,0.9-0.4c0.5-0.5,0.5-1.3,0-1.8c-0.3-0.3-0.7-0.4-0.9-0.4
			s-0.6,0-0.9,0.4c-0.3,0.4-0.4,0.7-0.4,0.9s0,0.6,0.4,0.9C-161.5-188.7-161.2-188.7-161-188.7"/>
	</g>
	<g id="g136" transform="translate(198.5479,171.0137)">
		<path id="path138" class="st0" d="M-175.5-84.9c-0.7,0-1.4-0.3-1.8-0.8c-0.5-0.5-0.8-1.1-0.8-1.8c0-0.4,0.1-1.2,0.8-1.8
			c0.5-0.5,1.2-0.8,1.8-0.8c0.7,0,1.4,0.3,1.8,0.8c0.7,0.7,0.8,1.4,0.8,1.8c0,0.7-0.3,1.4-0.8,1.8
			C-174.1-85.2-174.8-84.9-175.5-84.9"/>
	</g>
	<g id="g140" transform="translate(198.5479,173.9336)">
		<path id="path142" class="st0" d="M-175.5-91.7c-0.2,0-0.6,0-0.9,0.4c-0.3,0.3-0.4,0.7-0.4,0.9c0,0.2,0,0.6,0.4,0.9
			c0.3,0.3,0.7,0.4,0.9,0.4s0.6,0,0.9-0.4c0.3-0.3,0.4-0.7,0.4-0.9c0-0.2,0-0.6-0.4-0.9C-174.9-91.7-175.3-91.7-175.5-91.7"/>
	</g>
	<g id="g144" transform="translate(231.2876,220.2129)">
		<path id="path146" class="st0" d="M-164.5-199.7c2,0.9,4.3-0.1,5.2-2.1s-0.1-4.3-2.1-5.2s-4.3,0.1-5.2,2.1
			S-166.5-200.6-164.5-199.7"/>
	</g>
	<g id="g148" transform="translate(209.2773,169.2041)">
		<path id="path150" class="st0" d="M-171.9-80.7c-2-0.9-4.3,0.1-5.2,2.1s0.1,4.3,2.1,5.2c2,0.9,4.3-0.1,5.2-2.1
			S-169.9-79.8-171.9-80.7"/>
	</g>
	<g id="g152" transform="translate(230.9932,169.0791)">
		<path id="path154" class="st0" d="M-164.6-80.4c-2,0.8-3,3.2-2.1,5.2c0.8,2,3.2,3,5.2,2.1c2-0.8,3-3.2,2.1-5.2
			S-162.6-81.2-164.6-80.4"/>
	</g>
	<g id="g156" transform="translate(193.2593,209.6519)">
		<path id="path158" class="st0" d="M-177.2-175.1c-2-0.9-4.3,0.1-5.2,2.1s0.1,4.3,2.1,5.2s4.3-0.1,5.2-2.1
			C-174.3-171.9-175.2-174.2-177.2-175.1"/>
	</g>
	<g id="g160" transform="translate(190.6406,186.0518)">
		<path id="path162" class="st0" d="M-178.1-120c-2,0.8-3,3.1-2.2,5.1s3.1,3,5.1,2.2s3-3.1,2.2-5.1S-176.1-120.8-178.1-120"/>
	</g>
	<g id="g164" transform="translate(201.7583,194.709)">
		<path id="path166" class="st0" d="M-174.4-140.2c0-2.2-1.8-3.9-3.9-3.9c-2.2,0-3.9,1.8-3.9,3.9c0,2.2,1.8,3.9,3.9,3.9
			C-176.1-136.2-174.4-138-174.4-140.2"/>
	</g>
	<g id="g168" transform="translate(233.3809,211.9937)">
		<path id="path170" class="st0" d="M-163.8-180.5c-1.5,1.5-1.5,4,0,5.6c1.5,1.5,4,1.5,5.6,0c1.5-1.5,1.5-4,0-5.6
			C-159.8-182.1-162.3-182.1-163.8-180.5"/>
	</g>
	<g id="g172" transform="translate(207.1836,181.6104)">
		<path id="path174" class="st0" d="M-172.6-109.6c-1.5-1.5-4-1.5-5.6,0c-1.5,1.5-1.5,4,0,5.6c1.5,1.5,4,1.5,5.6,0
			C-171-105.6-171-108.1-172.6-109.6"/>
	</g>
	<g id="g176" transform="translate(207.1836,207.8071)">
		<path id="path178" class="st0" d="M-172.6-170.7c1.5-1.5,1.5-4,0-5.6c-1.5-1.5-4-1.5-5.6,0c-1.5,1.5-1.5,4,0,5.6
			C-176.6-169.2-174.1-169.2-172.6-170.7"/>
	</g>
	<g id="g180" transform="translate(233.3809,181.6104)">
		<path id="path182" class="st0" d="M-163.8-109.6c-1.5,1.5-1.5,4,0,5.6c1.5,1.5,4,1.5,5.6,0c1.5-1.5,1.5-4,0-5.6
			C-159.8-111.2-162.3-111.2-163.8-109.6"/>
	</g>
	<g id="g184" transform="translate(197.8794,204.4888)">
		<path id="path186" class="st0" d="M-175.7-163c-0.9,2,0,4.3,2,5.2s4.3,0,5.2-2s0-4.3-2-5.2S-174.8-165-175.7-163"/>
	</g>
	<g id="g188" transform="translate(203.0371,187.9443)">
		<path id="path190" class="st0" d="M-174-124.4c-0.8-2-3.1-3-5.1-2.2s-3,3.1-2.2,5.1s3.1,3,5.1,2.2
			C-174.2-120.1-173.2-122.4-174-124.4"/>
	</g>
	<g id="g192" transform="translate(212.8711,177.7314)">
		<path id="path194" class="st0" d="M-170.7-100.6c-2-0.9-4.3,0-5.2,2s0,4.3,2,5.2c2,0.9,4.3,0,5.2-2S-168.7-99.7-170.7-100.6"/>
	</g>
	<g id="g196" transform="translate(227.6938,211.6855)">
		<path id="path198" class="st0" d="M-165.7-179.8c2,0.9,4.3,0,5.2-2s0-4.3-2-5.2s-4.3,0-5.2,2C-168.6-183-167.7-180.7-165.7-179.8"
			/>
	</g>
	<g id="g200" transform="translate(230.8833,175.7881)">
		<path id="path202" class="st0" d="M-164.7-96c-0.8-2-3.1-3-5.1-2.2s-3,3.1-2.2,5.1s3.1,3,5.1,2.2C-164.9-91.7-163.9-94-164.7-96"
			/>
	</g>
	<g id="g204" transform="translate(211.3564,217.4653)">
		<path id="path206" class="st0" d="M-171.2-193.3c-2,0.8-3,3.1-2.2,5.1s3.1,3,5.1,2.2s3-3.1,2.2-5.1S-169.2-194.1-171.2-193.3"/>
	</g>
	<g id="g208" transform="translate(209.126,225.5977)">
		<path id="path210" class="st0" d="M-171.9-212.3c-1.4-2.1-3.8-3.1-6.1-2.9c-1,2.1-0.9,4.7,0.6,6.7c1.4,2,3.8,3.1,6.1,2.9
			C-170.4-207.6-170.5-210.2-171.9-212.3"/>
	</g>
</g>
</svg>
