<svg width="215" height="47" viewBox="0 0 215 47" fill="none" xmlns="http://www.w3.org/2000/svg">
<g clip-path="url(#clip0)">
<path d="M124.24 28.26L137.11 15.68H124.44V9.76001H146.12V15.78L133.25 28.31H146.36V34.23H124.24V28.26Z" fill="#99B2C5"/>
<path d="M121.8 1.70996H115.1V7.79996H121.8V1.70996Z" fill="#99B2C5"/>
<path d="M121.72 9.84009H115.01V34.3101H121.72V9.84009Z" fill="#99B2C5"/>
<path d="M33.9102 22C33.9102 14.95 39.5402 9.28003 46.5902 9.28003C53.6402 9.28003 59.2602 14.96 59.2602 22C59.2602 29.05 53.6302 34.73 46.5902 34.73C39.5402 34.72 33.9102 29.04 33.9102 22ZM52.7502 22C52.7502 18.53 50.0102 15.64 46.5802 15.64C43.1002 15.64 40.4602 18.53 40.4602 22C40.4602 25.48 43.1002 28.36 46.5802 28.36C50.0102 28.36 52.7502 25.47 52.7502 22Z" fill="#99B2C5"/>
<path d="M89.52 9.76002H96.18V12.5C97.75 10.49 100.14 9.27002 102.93 9.27002C108.71 9.27002 112.18 12.99 112.18 19.3V34.23H105.38V20.19C105.38 16.91 103.86 15 100.88 15C98.34 15 96.23 16.76 96.23 20.87V34.23H89.53V9.76002H89.52Z" fill="#99B2C5"/>
<path d="M146.75 22C146.75 13.34 153.11 9.27002 158.64 9.27002C161.82 9.27002 164.32 10.44 165.93 12.16V9.76002H172.64V34.23H165.93V31.49C164.32 33.4 161.72 34.72 158.54 34.72C153.36 34.72 146.75 30.61 146.75 22ZM166.13 21.95C166.13 18.33 163.49 15.39 159.86 15.39C156.14 15.39 153.3 18.18 153.3 21.95C153.3 25.72 156.14 28.56 159.86 28.56C163.49 28.56 166.13 25.57 166.13 21.95Z" fill="#99B2C5"/>
<path d="M175.35 9.76002H182V12.5C183.57 10.49 185.96 9.27002 188.75 9.27002C194.53 9.27002 198 12.99 198 19.3V34.23H191.2V20.19C191.2 16.91 189.68 15 186.7 15C184.16 15 182.05 16.76 182.05 20.87V34.23H175.35V9.76002Z" fill="#99B2C5"/>
<path d="M124.24 34.23V28.26L137.11 15.68H124.44V9.76001H146.12V15.78L133.25 28.31" fill="#99B2C5"/>
<path d="M26.76 21.78L26.67 21.97C24.82 25.87 21.41 28.11 17.33 28.11C11.41 28.11 6.77 23.43 6.77 17.45C6.77 11.32 11.37 6.7 17.47 6.7C21.42 6.7 24.43 8.55 26.4 12.21L26.5 12.41L32.47 8.59L32.37 8.42C29.27 3.15 23.7 0 17.46 0C7.51 0 0 7.51 0 17.46C0 27.58 7.34 34.92 17.46 34.92C23.98 34.92 29.74 31.3 32.87 25.24L32.96 25.06L26.76 21.78Z" fill="#99B2C5"/>
<path d="M60.9502 22C60.9502 13.34 67.3102 9.27002 72.8402 9.27002C76.0202 9.27002 78.5202 10.59 80.1302 12.4V9.76002H86.8302V33.55C86.8302 40.45 82.4802 46.03 74.2002 46.03C67.9902 46.03 63.4302 42.8 61.4802 38.98L67.4002 35.65C68.6702 38.19 70.9202 39.81 74.2002 39.81C77.8202 39.81 80.1202 36.97 80.1202 33.79V31.49C78.5102 33.4 75.9102 34.72 72.7302 34.72C67.5602 34.72 60.9502 30.61 60.9502 22ZM80.3302 21.95C80.3302 18.33 77.6902 15.39 74.0702 15.39C70.3502 15.39 67.5102 18.18 67.5102 21.95C67.5102 25.72 70.3502 28.56 74.0702 28.56C77.6902 28.56 80.3302 25.57 80.3302 21.95Z" fill="#99B2C5"/>
<path d="M214.52 15.7799V9.75994H209.92V1.68994H203.21V9.75994H199.05V15.7799H203.21V23.6099C203.21 31.5899 205.76 34.2299 213.54 34.2299H214.52V27.9599C210.41 27.9599 209.92 27.3699 209.92 23.5599V15.7799H214.52V15.7799Z" fill="#99B2C5"/>
</g>
<defs>
<clipPath id="clip0">
<rect width="214.52" height="46.03" fill="white"/>
</clipPath>
</defs>
</svg>
