<?xml version="1.0" encoding="utf-8"?>
<!-- Generator: Adobe Illustrator 23.1.1, SVG Export Plug-In . SVG Version: 6.00 Build 0)  -->
<svg version="1.1" id="Calque_1" xmlns="http://www.w3.org/2000/svg" xmlns:xlink="http://www.w3.org/1999/xlink" x="0px" y="0px"
	 viewBox="0 0 158.3 61.4" width="200" style="enable-background:new 0 0 158.3 61.4;" xml:space="preserve">
<style type="text/css">
	.st0{fill-rule:evenodd;clip-rule:evenodd;fill:#9AB3C6;}
</style>
<g>
	<path class="st0" d="M7.2,15.6c12.2-4.5,25.8-7.4,39.9-5.4l1.5-2.5c2.9-0.5,5.9-0.8,8.8-1.1l-3.9,5.9c3.8,1.6,7,5.6,7.3,9.8
		c0,5.6-2.5,10.3-5.5,14.7l4.1-0.5c2.9-4.6,10.8-10.5,14.3-6c0,0-0.5-0.8,0,0l1.2-1.6l5.3-0.7l-6.7,11.4c0,0.2,0,0.5,0.3,0.4
		c1.6-0.7,3-1.9,4.3-3c3.2-3,6-6.2,8.1-9.8l5.1-0.6l-2.8,5c2.4-1.9,4.8-4.6,7.6-5.8c0.8-0.3,1.7-0.1,2.4,0.3
		c0.7,0.6,0.9,1.3,0.9,2.1c-1,3.2-3.3,5.9-4.9,8.9c-0.1,0.2-0.1,0.5,0.2,0.6c4-2.1,8-6,10.9-9.6l-4.7,0.6l1.7-3.2l4.4-0.4
		c5.4-8.5,10.7-17.9,19.5-24.1c1.1-0.5,2.7-1.5,3.8-0.4c1,1.8-0.1,3.8-0.9,5.5c-3.7,6.8-10.9,12.3-17,17.1l-0.5,1.2l10.3-1.1
		c0.2,0.1,0.1,0.5,0.1,0.6c-3.4,2.8-7,6-7.4,10.4c-0.1,0.7,0.4,1.2,0.9,1.5c2.5,0.6,4.1-1.8,5.7-3.5c0.9-1.2,2.2-2.4,2.6-3.8
		c-0.9-0.4-1.4-1.5-1.4-2.3c0.2-1.9,1-3.7,2.7-4.8c0.6-0.4,1.4-0.5,2-0.2c0.5,0.3,1,0.8,1.1,1.4c0.2,1.7-0.5,3.2-1.1,4.6
		c3.4-0.5,6.2-2.9,9-5.3l0.3-0.5c0.1-2.3,0.5-4.6,2.4-6.1c0.9-0.6,2.1-1.5,3.3-0.7c0.8,0.4,0.6,2.2,0.6,2.2
		c-0.5,2.3-4.7,3.8-3.9,7.1c0.1,0.4-0.2,1,0.2,1.2c3.5-0.9,6.8-2.5,10-4.1c0.3-1,0-2,0.3-3c0.5-1.8,1.6-3.7,3.4-4.4
		c0.6-0.2,1.2-0.2,1.7,0.1c0.7,0.6,1,1.4,0.6,2.3c-0.3,2.2-2.2,3.8-3.8,5.4c-0.4,3.7,1,7.5-0.4,10.9c-1.5,3-4.7,4.6-7.9,4.7
		c-1.3-0.1-2.7-0.6-3.2-1.9c-0.8-2.6,1.1-4.8,3.1-6.3c1.7-1.4,3.7-2.3,5.7-3.1c0.7-0.6,0.7-1.9,0.6-2.8c-1.8,0.9-3.9,1.8-5.8,2.6
		l-4.3,1.7c-0.1,3.7-1,7.4-4.3,9.4c-2.1,0.9-5.1,2.1-7.2,0.4c-1-0.8-1-2.2-0.8-3.3c1.2-4.3,5.9-5.7,9.2-7.4c0.5-0.7,0.3-1.6,0.2-2.3
		c-2.9,2.5-6.6,4.7-10.4,5c-2.7,4.2-7.1,10.3-12.8,9.9c-1,0-1.8-0.5-2.5-1.1c-1.6-1.8-0.7-4.6,0.2-6.4c1-1.9,2.8-3.5,4.2-5.1
		c-1.6,0.1-4.8,0.6-4.8,0.6L102,42.3l2.4-0.1l13.5-1.4l16.4-1.1l18.3-0.7c1.4-0.1,2.9,0,4.4,0l-3.3,2.9c1.5,1,3,2.2,4.6,3.1l0,0.1
		l-13.2-0.5l-16.5,0.2l-21.4,0.9c-2.4,0.3-4.9,0.3-7.4,0.5l-4.7,8.5l-5.7,0.4l4.8-8.2l0.1-0.2l-10.7,0.6l-19.5,1.9l-15.9,2.1
		c0.5-0.6,0.6-1.8,1.6-1.8L70.8,46l12.8-1.7L96.4,43l4.1-7.1c-0.2-0.2-0.4,0-0.6,0.2c-2.7,2.3-5.5,4.5-9,5.1
		c-0.7-0.1-1.2-0.3-1.7-0.7c-1.5-2.6,1.6-5.6,2.4-7.2c0,0,0.9-1.4,1.5-2.8c0,0,0.1-0.1,0-0.2c-0.1-0.1-0.3,0-0.3,0
		c-4,3.3-8.1,7.4-10.9,11.7c-1.5,0.1-3.1,0.2-4.5,0.4c0.5-1.4,1.3-3,2.1-4.3c-2.5,1.9-4.9,4.1-7.8,5.2c-0.8,0.3-2.4,0.5-3.4-1.6
		c-2.8,2-5.9,4.5-9.5,3.1c-0.9-0.7-1.2-1.8-1.3-2.9c0-1,0.2-2,0.6-2.9l0,0l-4.4,0.4c-9.6,10.4-21.2,18.4-34.3,21.3
		c-3.6,0.7-7.9,1.3-11.6,0.3c-1.3-0.4-2.6-1.5-2.8-2.8c-0.1-3.3,3-5.9,5.6-7.7c5.9-3.8,12.3-6.3,18.9-8.3l1.1-1.8l13-23.6l0.1,0
		C27.8,15,13.8,20.8,1.1,27.9L0,28.5L7.2,15.6L7.2,15.6z M14.2,55.5c0.2,0.8,1,1.1,1.7,1.3c5.9,1.1,14.9-2.5,21.3-6.4
		c4-2.7,8.4-6.3,11.5-10.3c-5.6,0.9-11.1,2.3-16.3,4.1l-4.3,6.3c-0.8,1.2-1.9,2.9-3.5,2.7c-0.5-0.1-0.7-0.6-0.5-1.2l3.4-6.2
		c-3.5,1.2-7,2.7-10.1,5C15.9,52.1,14.1,53.4,14.2,55.5L14.2,55.5z M35,40.4c5-1.3,10-2.2,15.3-2.7l1.1-1.6c2.2-4.3,5-9.6,2.5-14.6
		c-0.8-1.8-2.7-2.6-4.3-3.3L35,40.4L35,40.4z M64.2,37.2c-0.6,1.3-1.7,2.9-0.7,4.4c0.5,0.3,1,0.1,1.4,0c2.7-1.3,4.9-4.2,6.3-6.7
		c0.4-0.9,1.1-2.4,0.2-3.3c-1.1-0.4-2.1,0.2-3,0.8C66.7,33.6,65.3,35.5,64.2,37.2L64.2,37.2z M114.8,18.9c3.4-2.7,7.3-6.1,9.6-9.8
		c0.7-1.1,1.5-3.1,1.5-3.7c0-0.6,0-0.6-0.2-0.8c-0.2-0.1-0.3-0.2-0.7,0c-0.5,0.2-1.7,1.2-2.5,1.9C119.2,10.3,116.8,14.5,114.8,18.9
		L114.8,18.9z M130,33c0,0.4,0.5,0.6,0.9,0.5c2.2-0.6,3.8-2.7,4.3-4.8c0,0,0.1-0.2,0-0.3c-0.1-0.2-0.4-0.1-0.4-0.1
		C132.8,29.1,130.5,30.6,130,33L130,33z M144.1,30c-0.6,0.8-1.9,1.7-1.3,2.8c0.8,0.5,1.7-0.1,2.4-0.4c1.6-1.2,2.9-2.8,3-4.7l-0.2,0
		C146.6,28.2,145.3,29,144.1,30L144.1,30z"/>
</g>
</svg>
