<svg width="284" height="95" viewBox="0 0 284 95" fill="none" xmlns="http://www.w3.org/2000/svg">
<g clip-path="url(#clip0)">
<path d="M13.1945 42.6348C13.6056 50.139 17.8667 55.0018 24.3575 55.0018C28.6138 55.0018 32.3719 52.8722 33.286 49.4243H46.8819C43.8348 59.6617 35.6173 65.4371 24.9718 65.4371C8.32392 65.4371 0 56.3153 0 38.2791C0 22.8748 8.82694 12.9464 24.1495 12.9464C39.4818 12.9464 47.5977 22.8748 47.5977 42.6348H13.1945V42.6348ZM34.0067 34.329C33.8035 26.9311 28.9185 23.3915 23.7481 23.3915C18.4713 23.3915 14.1134 27.4429 13.6056 34.3339H34.0067V34.329Z" fill="#99B2C5"/>
<path d="M112.511 64.1381V74.1244C112.511 80.7111 110.581 83.3332 106.736 83.3332C102.572 83.3332 100.24 81.1071 100.24 74.3224V14.2647H87.5441L87.4474 20.354C84.2987 15.2788 79.6313 12.9512 73.5371 12.9512C60.9618 12.9512 51.9365 22.8796 51.9365 39.7085C51.9365 54.7893 59.5253 65.4323 72.4199 65.4323C78.5189 65.4323 83.2782 63.0082 87.046 57.9329V74.2307C87.046 86.4865 95.0555 95 105.919 95C116.477 95 124.588 87.2833 124.888 74.8632C124.907 74.6266 124.907 64.1381 124.907 64.1381H112.511V64.1381ZM76.7051 54.1953C68.9713 54.1953 65.3244 49.0187 65.3244 38.7958C65.3244 29.8622 69.987 23.6957 76.5842 23.6957C82.8816 23.6957 87.7618 29.5628 87.7618 37.9797C87.7618 48.8207 83.9989 54.1953 76.7051 54.1953Z" fill="#99B2C5"/>
<path d="M112.516 0H124.878V5.51949H112.516V0ZM112.516 14.2696H124.878V50.4674H112.516V14.2696Z" fill="#99B2C5"/>
<path d="M167.093 64.1237V33.9234C167.093 26.226 164.858 24.0917 158.565 24.0917C151.668 24.0917 148.312 27.9452 148.312 35.5459V64.1188H135.122V14.2647H147.707V21.5613C150.749 15.9887 155.823 12.9464 163.842 12.9464C173.38 12.9464 180.389 18.7315 180.389 29.5677V64.1237H167.093V64.1237Z" fill="#99B2C5"/>
<path d="M184.544 39.1918C184.544 23.3915 194.387 12.9464 210.222 12.9464C225.84 12.9464 235.59 23.2852 235.59 39.1918C235.59 55.0018 225.748 65.4323 210.222 65.4323C194.072 65.4371 184.544 54.6927 184.544 39.1918ZM222.294 39.1918C222.294 29.0558 218.236 24.0917 210.222 24.0917C202.203 24.0917 198.145 29.0558 198.145 39.1918C198.145 49.3229 202.203 54.3933 210.222 54.3933C218.236 54.3933 222.294 49.3278 222.294 39.1918Z" fill="#99B2C5"/>
<path d="M252.233 64.1237L234.366 14.2647H249.089L259.536 47.1982L270.09 14.2647H284L266.032 64.1237H252.233Z" fill="#99B2C5"/>
</g>
<defs>
<clipPath id="clip0">
<rect width="284" height="95" fill="white"/>
</clipPath>
</defs>
</svg>
