<svg width="129" height="49" viewBox="0 0 129 49" fill="none" xmlns="http://www.w3.org/2000/svg">
<path d="M9.13065 1.5979H4.36523V7.73219H9.13065V1.5979Z" fill="#99B2C5"/>
<path d="M9.13065 7.7323H4.36523V17.041H9.13065V7.7323Z" fill="#99B2C5"/>
<path d="M0.852539 15.1234V18.5607H5.37281C5.37281 18.5607 5.38346 43.9822 5.38346 45.0444C5.38346 45.5624 5.6757 46.2254 6.03948 46.6379C6.3836 47.0283 6.87168 47.4102 7.4446 47.4102H13.4682V44.0955H9.19449C9.19449 44.0955 9.19449 16.9599 9.19449 16.5939C9.19449 16.228 8.82843 15.8393 8.5039 15.5868C8.17937 15.3346 7.74629 15.1028 7.25691 15.1028C6.76754 15.1028 0.852539 15.1228 0.852539 15.1228V15.1234Z" fill="#99B2C5"/>
<path d="M44.3077 2.3894C43.8183 2.3894 37.905 2.40942 37.905 2.40942V5.8469H42.4245C42.4245 5.8469 42.4278 13.8399 42.4297 20.6757C41.0591 18.6083 39.3105 16.9361 37.3156 15.7851C35.3207 14.6342 33.1315 14.0344 30.9126 14.0308C28.9861 14.0308 27.0784 14.4804 25.2985 15.3539C23.5186 16.2274 21.9013 17.5078 20.539 19.1218C19.1768 20.7359 18.0962 22.652 17.3589 24.7609C16.6216 26.8697 16.2422 29.1299 16.2422 31.4125C16.2422 33.6952 16.6216 35.9554 17.3589 38.0642C18.0962 40.1731 19.1768 42.0892 20.539 43.7033C21.9013 45.3173 23.5186 46.5977 25.2985 47.4712C27.0784 48.3447 28.9861 48.7943 30.9126 48.7943C33.1311 48.7938 35.3206 48.1973 37.3164 47.0494C39.3121 45.9016 41.0622 44.2324 42.4349 42.1675C42.435 42.646 42.4349 45.0794 42.4349 45.1602C42.4349 45.6782 42.7257 46.3411 43.0895 46.7536C43.4336 47.144 43.9217 47.5243 44.4947 47.5243H50.5182V44.2109H46.2454V3.87857C46.2454 3.51268 45.879 3.12487 45.5545 2.8724C45.2299 2.62013 44.7971 2.38879 44.3077 2.38879V2.3894ZM31.536 17.963C32.9386 17.963 34.3275 18.311 35.6234 18.9869C36.9192 19.6629 38.0966 20.6535 39.0884 21.9025C40.0802 23.1514 40.867 24.6342 41.4037 26.2661C41.9405 27.8979 42.2167 29.6469 42.2167 31.4132C42.2167 34.9804 41.0914 38.4015 39.0884 40.9238C37.0854 43.4462 34.3687 44.8634 31.536 44.8634C28.7033 44.8634 25.9866 43.4462 23.9836 40.9238C21.9806 38.4015 20.8553 34.9804 20.8553 31.4132C20.8553 29.6469 21.1315 27.8979 21.6683 26.2661C22.2051 24.6342 22.9918 23.1514 23.9836 21.9025C24.9754 20.6535 26.1528 19.6629 27.4487 18.9869C28.7445 18.311 30.1334 17.963 31.536 17.963V17.963Z" fill="#99B2C5"/>
<path d="M68.9115 14.4064C53.5768 14.2107 52.9424 31.369 52.9424 31.369C52.9424 31.369 52.9524 48.3762 69.7427 48.5104C74.3763 48.5454 80.4045 45.7451 82.0572 43.9011L80.0026 40.6161C78.5275 41.5933 71.6796 46.4826 64.8517 43.5778C57.6497 40.9212 57.2152 31.369 57.2152 31.369H82.5975C82.5975 31.369 84.2463 14.6022 68.9115 14.4064V14.4064ZM68.4414 17.8387C77.9261 17.8588 78.6234 28.0609 78.6234 28.0609H57.6776C57.6776 28.0609 58.9567 17.8195 68.4414 17.8387Z" fill="#99B2C5"/>
<path d="M85.3711 15.1488V18.6252H87.9322C88.3562 18.6553 88.6126 18.8015 88.8361 19.1426L97.2389 30.914L85.5243 47.4292H90.3608L99.6934 34.3542L109.029 47.4292H113.865L102.151 30.914L110.553 19.1426C110.777 18.8012 111.033 18.656 111.457 18.6252H114.018V15.1488H110.211C109.707 15.1888 109.179 15.199 108.714 15.3972C108.332 15.5598 108.007 15.8452 107.717 16.1421L99.6934 27.4505L91.6725 16.1421C91.3829 15.8453 91.0572 15.5598 90.6751 15.3972C90.2103 15.199 89.6828 15.1888 89.179 15.1488H85.3711Z" fill="#99B2C5"/>
<path d="M119.33 15.1488H114.019V18.6045H119.33V15.1488Z" fill="#99B2C5"/>
<path d="M125.315 15.1488H119.33V18.6045H125.315V15.1488Z" fill="#99B2C5"/>
</svg>
