<svg width="70" viewBox="0 0 87 87" fill="none" xmlns="http://www.w3.org/2000/svg">
<g clip-path="url(#clip0)">
<path d="M45.096 87.0008C73.905 87.0008 86.5294 68.4632 86.5294 45.2604V42.2936C86.5294 17.8632 73.905 0.450928 45.096 0.450928H41.4334C12.6244 0.450928 0 17.7609 0 42.2936V45.2604C0 68.4632 12.6244 87.0008 41.4334 87.0008H45.096Z" fill="#99B2C5"/>
<path d="M41.9447 43.193L36.1338 50.9478H37.9548H39.3666L43.4588 45.3414L47.5305 50.9478H48.8605H50.6815L44.8706 43.193L50.4769 35.377H47.3259L43.4588 40.881L39.4894 35.377H36.3384L41.9447 43.193Z" fill="white"/>
<path d="M31.8372 44.114C34.0674 43.7252 35.1928 42.4976 35.7247 41.5768C36.1135 40.7584 36.2363 40.0423 36.2363 39.7354C36.2363 39.6535 36.2363 39.6535 36.2363 39.5307C36.2363 38.0985 35.4178 36.8708 34.0879 35.9501C32.8602 35.1316 31.2438 34.7224 29.5046 34.7224C27.7654 34.7224 26.2309 35.1112 24.9214 35.9501C23.4891 36.8708 22.7729 38.4872 22.7729 39.8377V46.2624C22.7729 47.6947 23.5914 49.1065 24.9214 50.0272C26.149 50.8457 27.7654 51.2549 29.5046 51.2549C31.2438 51.2549 32.7784 50.8661 34.0879 50.0272C35.0086 49.4134 35.7043 48.7177 36.0112 47.797L36.3181 46.8762L33.6582 46.9581L33.4536 47.3468C33.3717 47.6537 33.0648 47.8584 32.6351 48.1653C31.8167 48.6768 30.7118 48.9837 29.5865 48.9837C28.3588 48.9837 27.2334 48.6768 26.5378 48.1653C26.2309 47.9607 25.9239 47.6537 25.7193 47.4696C25.5147 47.0808 25.5147 46.5489 25.5147 46.3442V44.7278C25.3306 44.7278 28.1746 44.646 31.8372 44.114ZM25.3306 42.8045V40.1446C25.3306 39.8377 25.4124 39.0192 25.6375 38.61C25.8421 38.3031 26.0262 37.9962 26.3332 37.7916C27.1516 37.28 28.2565 36.9731 29.3818 36.9731C30.6095 36.9731 31.7349 37.28 32.4305 37.7916C32.7374 37.9962 33.0444 38.3031 33.1262 38.4872C33.1262 38.4872 33.8219 39.6126 33.1262 41.0244C33.0444 41.3313 32.8193 41.5359 32.5124 41.7201C32.0008 42.027 31.2029 42.1088 31.2029 42.1088C28.7066 42.5999 25.3306 42.8045 25.3306 42.8045Z" fill="white"/>
<path d="M18.5991 36.0726C17.3714 35.2542 15.755 34.845 14.0158 34.845C9.43258 34.845 7.28418 36.7683 7.28418 36.7683V46.4259V50.8864H9.9441V38.1597C11.4787 37.0343 14.0158 37.1571 14.0158 37.1571C15.2435 37.1571 16.3688 37.464 17.0645 37.9755C17.3714 38.1801 17.576 38.487 17.7602 38.7939C17.9443 39.1009 18.0671 39.7147 18.0671 40.0216V50.8455H20.727V46.385V39.8784C20.7475 38.5279 20.0518 36.9934 18.5991 36.0726Z" fill="white"/>
<path d="M64.2266 35.9909H60.9529V31.7146L58.8045 32.6353C58.8045 32.6353 58.293 32.84 58.293 33.331V36.9935V50.9479H58.9886H60.912V38.2212H64.1857V35.9909H64.2266Z" fill="white"/>
<path d="M54.6716 37.5049V34.9678L52.5232 35.8885C52.5232 35.8885 52.0117 36.0931 52.0117 36.5842V38.5075V50.9273H52.7074H54.6307V39.7352V37.5049H54.6716Z" fill="white"/>
<path d="M69.9151 43.4182C69.3013 43.4182 68.7898 43.3364 68.6056 43.2136C68.2168 43.009 68.0941 42.8249 67.9918 42.5998C67.9918 42.5179 67.9099 42.3952 67.9099 42.2929V42.211V36.0114H65.6797V42.3133C65.6797 42.3952 65.6797 43.2341 66.2935 44.0525C66.6004 44.4413 67.112 44.8709 67.7258 45.1779C68.3396 45.4848 69.0353 45.5666 69.956 45.5666C69.956 45.5666 71.7975 45.6485 75.9511 44.7482V47.1012C75.9511 47.183 75.9511 47.6127 75.5623 48.0219C75.3577 48.2266 75.0508 48.4107 74.437 48.6358C73.9255 48.8404 73.1275 48.9427 71.9817 48.9427C70.2425 48.9427 69.0148 48.6358 68.2168 48.4312C67.8281 48.3493 67.603 48.2266 67.3984 48.1242C67.3166 48.1242 67.3166 48.0424 67.1938 48.0424L66.9892 48.4312L65.9866 49.8634C66.1912 49.9453 67.9099 51.1729 71.8794 51.1729C73.1889 51.1729 74.2324 50.9683 75.0303 50.6614C76.258 50.2726 77.1787 49.4337 77.5675 48.7381C77.9563 48.0424 78.079 47.3058 78.079 46.9989V46.917V35.2134H75.8488V42.5589C75.8283 42.7225 73.2912 43.4182 69.9151 43.4182Z" fill="white"/>
</g>
<defs>
<clipPath id="clip0">
<rect width="87" height="87" fill="white"/>
</clipPath>
</defs>
</svg>
