<svg width="80" viewBox="0 0 181 121" fill="none" xmlns="http://www.w3.org/2000/svg">
<path d="M17.1444 5.83297C9.94442 5.83297 6.34442 8.54498 6.34442 13.969C6.34442 16.993 7.17242 19.069 8.82842 20.197C10.4844 21.325 13.8444 22.453 18.9084 23.581C23.9751 24.7096 27.5631 26.1736 29.6724 27.973C31.7818 29.7723 32.8378 32.7363 32.8404 36.865C32.8404 47.0883 27.5364 52.2 16.9284 52.2C12.5122 52.1188 8.10806 51.7097 3.75242 50.976L1.16042 50.616L1.73642 46.008C6.6722 46.7425 11.648 47.1766 16.6364 47.308C23.7424 47.3026 27.2971 43.9666 27.3004 37.3C27.3004 34.612 26.5204 32.6786 24.9604 31.5C23.4004 30.3213 20.4844 29.3253 16.2124 28.512C10.5964 27.312 6.61242 25.764 4.26042 23.868C1.90842 21.972 0.732422 18.792 0.732422 14.328C0.732422 5.39997 6.08442 0.935974 16.7884 0.935974C21.0088 0.995316 25.2195 1.35623 29.3884 2.01597L31.8364 2.37597L31.3364 7.05597C26.6305 6.39945 21.8933 5.99122 17.1444 5.83297V5.83297Z" fill="#99B2C5"/>
<path d="M46.5201 51.5529H41.1201V15.5529H46.4481V18.0729C49.5894 16.0508 53.2255 14.93 56.9601 14.8329C61.4268 14.8329 64.5468 16.0569 66.3201 18.5049C68.2561 17.3968 70.3246 16.538 72.4761 15.9489C74.6322 15.2641 76.8745 14.8883 79.1361 14.8329C83.9361 14.8329 87.1641 16.1169 88.8201 18.6849C90.4761 21.2529 91.3041 25.8729 91.3041 32.5449V51.5529H85.9001V32.6889C85.9001 27.6969 85.4201 24.2769 84.4601 22.4289C83.5001 20.5809 81.4601 19.6569 78.3401 19.6569C76.6837 19.6666 75.0359 19.8966 73.4401 20.3409C72.109 20.6751 70.8085 21.1207 69.5521 21.6729L68.1841 22.3209C68.8074 23.9049 69.1195 27.4089 69.1201 32.8329V51.5529H63.7201V32.9769C63.7201 27.7936 63.2535 24.2776 62.3201 22.4289C61.3868 20.5803 59.3348 19.6563 56.1641 19.6569C54.568 19.6657 52.9809 19.8959 51.4481 20.3409C50.1751 20.6743 48.9343 21.1201 47.7401 21.6729L46.5161 22.3209L46.5201 51.5529Z" fill="#99B2C5"/>
<path d="M126.367 26.4249V44.8569C126.512 46.6336 127.904 47.6896 130.544 48.0249L130.327 52.2729C126.535 52.2729 123.68 51.3129 121.76 49.3929C117.692 51.2576 113.275 52.2391 108.8 52.2729C105.488 52.2729 102.967 51.3369 101.239 49.4649C99.5115 47.5929 98.6475 44.9046 98.6475 41.3999C98.6475 37.8966 99.5355 35.3166 101.311 33.66C103.087 32.0033 105.872 30.9833 109.664 30.5999L120.964 29.5199V26.4199C120.964 23.9719 120.436 22.2199 119.38 21.1639C118.805 20.6212 118.126 20.201 117.383 19.9287C116.64 19.6564 115.85 19.5378 115.06 19.5799C111.066 19.5896 107.075 19.83 103.108 20.2999L100.877 20.5159L100.661 16.4159C105.279 15.4332 109.98 14.903 114.7 14.8329C118.78 14.8329 121.745 15.7689 123.593 17.6409C125.442 19.5129 126.367 22.4409 126.367 26.4249ZM104.191 41.1129C104.191 45.5296 106.016 47.7376 109.664 47.7369C112.951 47.7334 116.212 47.1735 119.311 46.0809L120.967 45.5049V33.6249L110.311 34.6329C108.572 34.6479 106.901 35.316 105.631 36.5049C104.589 37.8051 104.075 39.4505 104.191 41.1129V41.1129Z" fill="#99B2C5"/>
<path d="M136.158 51.553V15.553H141.486V20.453C145.44 17.6691 149.926 15.7326 154.663 14.765V20.237C152.516 20.6587 150.409 21.2608 148.363 22.037C146.652 22.6479 144.981 23.3694 143.363 24.197L141.563 25.133V51.553H136.158Z" fill="#99B2C5"/>
<path d="M179.718 20.233H168.27V37.441C168.27 41.5697 168.57 44.2817 169.17 45.577C169.77 46.8723 171.198 47.5203 173.454 47.521L179.861 47.089L180.221 51.553C177.796 52.0003 175.341 52.2651 172.877 52.345C169.133 52.345 166.541 51.433 165.101 49.609C163.661 47.785 162.941 44.305 162.941 39.169V20.233H157.83V15.553H162.941V4.53699H168.269V15.553H179.717L179.718 20.233Z" fill="#99B2C5"/>
<path d="M54.2241 69.729H59.9841L46.9521 119.553H34.5671L21.5361 69.729H27.3001L38.7481 114.657H42.7801L54.2241 69.729Z" fill="#99B2C5"/>
<path d="M88.7837 115.089L90.8717 114.873L91.0157 119.121C86.3673 119.823 81.6764 120.207 76.9757 120.272C71.7917 120.272 68.1197 118.772 65.9597 115.772C63.7997 112.772 62.7197 108.105 62.7197 101.772C62.7197 89.148 67.7357 82.8356 77.7677 82.835C82.6151 82.835 86.2391 84.191 88.6397 86.903C91.0404 89.615 92.2404 93.875 92.2397 99.683L91.9517 103.783H68.1907C68.1907 107.768 68.9107 110.719 70.3507 112.638C71.7907 114.557 74.2987 115.517 77.8747 115.518C81.4501 115.52 85.0864 115.377 88.7837 115.089ZM86.8397 99.465C86.8397 95.049 86.1317 91.929 84.7157 90.105C83.2997 88.281 80.9947 87.3686 77.8007 87.368C74.6081 87.368 72.2081 88.328 70.6007 90.248C68.9934 92.168 68.1654 95.2403 68.1167 99.465H86.8397Z" fill="#99B2C5"/>
<path d="M105.773 119.553H100.373V83.553H105.7V86.073C109.082 84.0563 112.924 82.9408 116.86 82.833C121.66 82.833 124.888 84.1293 126.545 86.722C128.202 89.3147 129.029 93.9227 129.028 100.546V119.554H123.7V100.688C123.7 95.6967 123.208 92.2767 122.224 90.428C121.24 88.5793 119.14 87.6553 115.924 87.656C114.281 87.671 112.647 87.9013 111.064 88.341C109.72 88.6719 108.408 89.1175 107.14 89.673L105.772 90.32L105.773 119.553Z" fill="#99B2C5"/>
<path d="M157.181 88.232H145.732V105.44C145.732 109.569 146.032 112.281 146.632 113.577C147.232 114.873 148.66 115.521 150.916 115.52L157.323 115.088L157.683 119.552C155.258 119.999 152.803 120.264 150.339 120.344C146.595 120.344 144.003 119.432 142.563 117.608C141.123 115.784 140.403 112.304 140.403 107.169V88.232H135.292V83.552H140.4V72.536H145.728V83.553H157.176L157.181 88.232Z" fill="#99B2C5"/>
</svg>
