<?xml version="1.0" encoding="utf-8"?>
<!-- Generator: Adobe Illustrator 23.1.1, SVG Export Plug-In . SVG Version: 6.00 Build 0)  -->
<svg version="1.1" id="Calque_1" xmlns="http://www.w3.org/2000/svg" xmlns:xlink="http://www.w3.org/1999/xlink" x="0px" y="0px"
	 width="250" viewBox="0 0 595.3 191.2" style="enable-background:new 0 0 595.3 191.2;" xml:space="preserve">
<style type="text/css">
	.st0{fill:#99B2C5;stroke:#99B2C5;stroke-miterlimit:10;}
	.st1{fill:#FFFFFF;stroke:#FFFFFF;stroke-width:9.375000e-02;stroke-miterlimit:10;}
</style>
<g>
	<path class="st0" d="M519.3,24.5c4-8.1,7.7-16.4,11.8-24.5c1.1,8.3,2.2,16.6,3.4,24.9c8-2.7,15.9-5.9,24-8.2
		c-5.7,7-11.2,14.1-16.7,21.3c6,4.7,12,9.3,17.9,14c-8,0.9-16.1,1.3-24.1,1.9c-0.3,8.5-0.9,17.1-1.4,25.8
		c-4.6-6.2-8.9-12.6-13.4-18.9c-6.7,6.1-13.5,12.2-19.9,18.5c2.5-8.7,5-17.4,7.5-26.1c-7.7-1-15.6-2-23.3-3.1
		c7.6-4.3,15.2-8.6,22.7-13c-3.1-7.5-6.3-14.8-9.3-22.3C505.4,18.2,512.4,21.1,519.3,24.5L519.3,24.5z"/>
	<path class="st0" d="M291.7,72.8c6.8-0.6,13.6-1,20.2-1.5c-4.8,25.8-9.7,51.4-14.6,77.1c-2.3,11.6-7.7,23.4-17.5,30.6
		c-10.4,7.8-24,9.8-36.7,9.2c-11.2-0.6-23-4.4-30.3-13.5c-7.5-9.6-7.8-22.8-4.4-34.1c3.7-13.7,14.2-25.2,27.3-30.6
		c15.6-7.1,33.1-5.9,49.8-5.4C287.6,94,289.7,83.3,291.7,72.8L291.7,72.8z"/>
	<path class="st0" d="M444.7,136.6c20.4-17.4,38.8-37.2,56.1-57.6c-7.8,27-23,51.9-43.6,71.1c-4.8,3.9-9.3,8.4-14.7,11.7
		c-17.7,12-38.6,19.7-60.1,19.9l0.5-0.4c16.9-9.9,33.2-20.8,48.4-33.2C435.8,144.3,440.5,140.8,444.7,136.6L444.7,136.6z"/>
	<path class="st0" d="M149.8,105.6c11.3-1.2,23.6-0.3,33.7,5.6c7.5,4.3,12.9,12,14,20.6c1.5,11.5-2,23.5-8.5,33
		c-9.8,14.2-26.6,22.6-43.6,24c-11.1,0.9-23,0-32.9-5.9c-7.6-4.5-13.1-12.6-13.9-21.5c-1.3-12.6,3.1-25.5,11-35.2
		C119.5,114.2,134.5,107.2,149.8,105.6L149.8,105.6z"/>
	<path class="st0" d="M322.1,120.8c11.8-11.4,28.8-16.2,44.9-15.8c8.5,0.2,17.8,1.5,24.5,7.3s7.6,16.2,3.9,23.8
		c-3.4,6.7-10.1,11-16.8,13.7c-16.2,6.1-34,5.4-50.7,2.4c-1,9.3,3.1,19.3,11.5,23.9c13.3,7.1,29,6.7,43.6,5.1l-0.5,0.4
		c-12.6,8.6-28.7,11.1-43.6,8.6c-9.8-1.5-19.7-6-25.8-14c-5-6.1-7.1-14.2-6.4-22.1C307.3,141.6,312.8,129.3,322.1,120.8L322.1,120.8
		z"/>
	<path class="st0" d="M539.9,105.6c11.6-1.6,24-1.4,34.8,3.8c8.6,3.9,15.4,12,16.9,21.4c2,11.5-1.4,23.6-7.6,33.4
		c-9,14-25,22.8-41.3,25.2c-11.5,1.5-23.7,1-34.4-4.1c-8.2-3.9-14.7-11.4-16.5-20.3c-2.2-10.9,0.6-22.4,6-31.9
		C506.6,117.9,522.9,108.1,539.9,105.6L539.9,105.6z"/>
	<path class="st0" d="M42.5,109.3c8.9-2.4,18.2-3.4,27.4-3.3c10.2-0.1,20.4,0.6,30.4,2.3c-1.5,3.9-2.9,7.6-4.2,11.5
		c-14.4-1.1-29.3-2-43.7,1.3c-4.4,1.2-10,2.9-11.1,8c-0.2,3.9,3.4,6.1,6.7,7.1c10.3,2.8,21.3,2.4,31,7c4.5,2,8.4,6,9.2,11
		c1.3,7.8-1,16.5-6.5,22.4c-6.3,6.8-15.6,9.8-24.4,11.4c-18.3,2.9-37.2,1.4-55-3.2c1-4.1,2.1-8.1,3.1-12.2
		c15.4,1.9,31.2,4.4,46.6,1.2c5.8-1.3,12.4-4.4,13.5-10.8c1.2-4.3-2.6-7.6-6.3-8.7c-9.8-3-20.2-2.3-29.8-5.9
		c-4.2-1.5-8.2-4.4-9.8-8.6c-2.9-7.5-0.2-16.3,5.6-21.5C30.2,113.8,36.2,111,42.5,109.3L42.5,109.3z"/>
	<path class="st0" d="M401.4,106c6.3,0,12.7,0.1,19,0c7.7,10.5,16.1,20.5,24.8,30.1l-0.5,0.5c-4.2,4.2-8.9,7.7-13.4,11.5
		C420.5,134.8,410.5,120.6,401.4,106L401.4,106z"/>
	<path class="st1" d="M245.7,122.8c11.2-5.8,24.3-5.7,36.6-4.4c-2.2,10.3-4.2,20.5-6.3,30.7c-1.2,6.5-3.6,13.2-8.6,17.6
		c-6.2,5.7-15.2,7-23.2,6c-5.6-0.5-11.6-3.2-14.2-8.5c-3.2-6.1-2.1-13.4-0.5-19.7C231.6,135.5,237.2,127.1,245.7,122.8L245.7,122.8z
		"/>
	<path class="st1" d="M348.4,121c6.9-3.1,14.9-4.4,22.4-2.4c3.5,0.9,6.7,3.8,6.9,7.6c0.9,6.1-4.5,10.8-9.7,12.7c-12,4-25,3-37.2,1
		C334.2,131.8,340.3,124.7,348.4,121L348.4,121z"/>
	<path class="st1" d="M147.8,120c7.4-1.7,15.9-1.1,21.9,3.9c4.9,4.4,6.6,11.4,5.8,17.7c-0.9,7.2-3.5,14.3-8,20
		c-6.3,8.1-16.7,13.1-26.9,12.7c-5.6,0-11.6-1.4-15.6-5.5c-2.8-2.9-4.2-6.9-4.4-10.8C119.9,141.3,130.9,123.9,147.8,120L147.8,120z"
		/>
	<path class="st1" d="M541.7,119.8c7-1.5,15-1.2,20.9,3.2c4.6,3.4,7,9.1,7.1,14.7c0.2,14.4-8.2,29.2-21.9,34.8
		c-7.6,3.1-16.6,3.6-24.3,0.5c-5.3-2-9.1-7.4-9.6-13.1C512.3,142.4,524,123.7,541.7,119.8L541.7,119.8z"/>
	<path class="st0" d="M442.6,161.8c5.4-3.3,9.9-7.8,14.7-11.7c11.9,13.1,24,25.9,36.1,38.8c-8.4-0.2-16.9,0.1-25.4-0.1
		c-2.2-1.4-3.7-3.4-5.5-5.1C455.5,176.6,448.7,169.4,442.6,161.8L442.6,161.8z"/>
</g>
</svg>
