<?xml version="1.0" encoding="utf-8"?>
<!-- Generator: Adobe Illustrator 23.1.1, SVG Export Plug-In . SVG Version: 6.00 Build 0)  -->
<svg version="1.1" id="Calque_1" xmlns="http://www.w3.org/2000/svg" xmlns:xlink="http://www.w3.org/1999/xlink" x="0px" y="0px"
	 width="200" viewBox="0 0 292.1 76.7" style="enable-background:new 0 0 292.1 76.7;" xml:space="preserve">
<style type="text/css">
	.st0{clip-path:url(#SVGID_3_);}
	.st1{clip-path:url(#SVGID_4_);fill:#99B2C5;}
	.st2{clip-path:url(#SVGID_7_);}
	.st3{clip-path:url(#SVGID_8_);fill:#99B2C5;}
	.st4{clip-path:url(#SVGID_11_);}
	.st5{clip-path:url(#SVGID_12_);fill:#99B2C5;}
	.st6{clip-path:url(#SVGID_15_);}
	.st7{clip-path:url(#SVGID_16_);fill:#99B2C5;}
	.st8{clip-path:url(#SVGID_19_);}
	.st9{clip-path:url(#SVGID_20_);fill:#99B2C5;}
	.st10{clip-path:url(#SVGID_22_);fill:#99B2C5;}
</style>
<g>
	<defs>
		<rect id="SVGID_1_" x="-2.4" y="-0.3" width="295" height="77"/>
	</defs>
	<defs>
		<path id="SVGID_2_" d="M9.3,43.5c0.1,0,2.5,1,5.1,2.1l7.9,3.2c1.9,0.7,2.9,2.7,2.3,4.7c-0.6,2.5-3.7,4.9-10.1,4
			C12,57.2,6,55.9,5.9,55.9l0,0c-0.1-0.1-3.7-1.3-6-0.2c-0.8,0.4-1.3,1.1-1.5,2c-0.8,3.4,2.6,4.5,2.6,4.5c1.2,0.4,2.6,0.8,3.7,1
			l0.9,0.2c0.1,0,7.9,1.9,14.1,1.8c4.1-0.1,14-1,17.9-8.1c0.6-1,1.4-4.7,1-7c-0.5-2.7-1.3-5.4-6-8.4c-1.2-0.8-4.9-2-8.1-3.1
			c-1.7-0.6-3.4-1.1-4.2-1.5c-5.7-2.3-6.8-4.4-6.8-5.5c-0.1-0.6,0.1-2,1.2-3.2c1.4-1.5,3.7-2.3,6.8-2.3c4.7,0,6.5,0.6,8.5,1.1
			c0.4,0.1,0.7,0.2,1.1,0.4c1.5,0.4,2.6,0.3,3.5-0.2c1-0.6,1.2-1.7,1.3-2c0.1-0.6,0.3-2.8-3.2-4.2c-0.3-0.1-7.3-2.8-18.4-1.3
			c-1.5,0.2-4.6,0.8-7.4,2.4c-4.2,2.3-6.4,5.9-6.3,10.3c0.1,3.2,1.6,6.1,4.3,8.3C7.2,42.7,9.3,43.4,9.3,43.5"/>
	</defs>
	<clipPath id="SVGID_3_">
		<use xlink:href="#SVGID_1_"  style="overflow:visible;"/>
	</clipPath>
	<clipPath id="SVGID_4_" class="st0">
		<use xlink:href="#SVGID_2_"  style="overflow:visible;"/>
	</clipPath>
	<rect x="-6.7" y="14.6" class="st1" width="50.6" height="55.7"/>
</g>
<g>
	<defs>
		<rect id="SVGID_5_" x="-2.4" y="-0.3" width="295" height="77"/>
	</defs>
	<defs>
		<path id="SVGID_6_" d="M79.9,53.6c-6.5,0-11.7-5.3-11.7-11.7c0-6.5,5.3-11.7,11.7-11.7c6.5,0,11.7,5.2,11.7,11.7
			C91.7,48.3,86.4,53.6,79.9,53.6L79.9,53.6z M79.9,9C61.8,9,47.1,23.7,47.1,41.9c0,18.1,14.7,32.8,32.8,32.8
			c18.1,0,32.8-14.7,32.8-32.8C112.8,23.7,98.1,9,79.9,9L79.9,9L79.9,9z"/>
	</defs>
	<clipPath id="SVGID_7_">
		<use xlink:href="#SVGID_5_"  style="overflow:visible;"/>
	</clipPath>
	<clipPath id="SVGID_8_" class="st2">
		<use xlink:href="#SVGID_6_"  style="overflow:visible;"/>
	</clipPath>
	<rect x="42.1" y="4" class="st3" width="75.6" height="75.6"/>
</g>
<g>
	<defs>
		<rect id="SVGID_9_" x="-2.4" y="-0.3" width="295" height="77"/>
	</defs>
	<defs>
		<path id="SVGID_10_" d="M123,26.2c0,0-0.3-5.2,5.3-5.2c3.2,0,5.2,2.9,9,2.9c4.8,0,6.1-2.9,12.6-2.9c7.4,0,7.9,2.9,12.5,2.9
			c4.9,0,5.7-2.9,14.3-2.9c4.5,0,9.5,2.6,9.5,8.3c0,7.8,0,28.3,0,28.5c0,2.9-2.4,5.3-5.3,5.3c-2.9,0-5.3-2.4-5.3-5.3V34.4
			c0-2.6,0-7.8-4.5-7.9c0,0-11.1-1.5-11.1,17.9c0,0.3,0,13.2,0,13.3c0,2.9-2.4,5.3-5.3,5.3c-2.9,0-5.2-2.3-5.3-5.2V34.4
			c0-1.7,0.3-7.9-4.6-7.9c-9.5,0-11,9.7-11,17.6v13.6c0,2.9-2.4,5.3-5.3,5.3c-2.9,0-5.3-2.3-5.3-5.2V26.2"/>
	</defs>
	<clipPath id="SVGID_11_">
		<use xlink:href="#SVGID_9_"  style="overflow:visible;"/>
	</clipPath>
	<clipPath id="SVGID_12_" class="st4">
		<use xlink:href="#SVGID_10_"  style="overflow:visible;"/>
	</clipPath>
	<rect x="118" y="16" class="st5" width="73.2" height="52.1"/>
</g>
<g>
	<defs>
		<rect id="SVGID_13_" x="-2.4" y="-0.3" width="295" height="77"/>
	</defs>
	<defs>
		<path id="SVGID_14_" d="M218,38c0.1-2.5,2.1-4.4,4.5-4.4h0h0.1h-0.1h5.8c1.9,0,3.4-0.5,4.4-1.6c1.7-1.7,1.7-4.1,1.7-4.6
			c0-0.6-0.1-2.7-1.6-4.2c-1-1.1-2.5-1.6-4.4-1.6h-5.9c-4,0-4-0.9-4-3.3c0,0,0.1-5,4.1-6.3c1.2-0.5,2.6-0.7,4.1-0.7h7.1
			c2.5,0,4.7-1.6,5.4-4c0.2-0.5,0.2-1.1,0.2-1.6c0-3.1-2.5-5.6-5.6-5.6c-0.1,0-6.8,0-6.8,0c-0.9,0-1.9,0.1-3,0.2
			c-3.2,0.3-6,1.1-8.4,2.1c-10.3,4.6-10.8,13.9-10.8,14l0,0.1c-0.5,3.2-1.4,5-4.4,5c-1.5,0-2.8,0.5-3.7,1.5
			c-1.6,1.7-1.5,4.3-1.5,4.3v0c0,5.3,5,6.3,5.1,6.3c2.4,0.2,4.2,2.1,4.2,4.5c0,0.1,0,12.1,0,18.4c0,2.2,0.6,3.9,1.8,5.1
			c1.5,1.5,3.5,1.5,3.6,1.5h2.7c0.2,0,1.6,0,3-1c1.1-0.8,2.5-2.4,2.5-5.6V38"/>
	</defs>
	<clipPath id="SVGID_15_">
		<use xlink:href="#SVGID_13_"  style="overflow:visible;"/>
	</clipPath>
	<clipPath id="SVGID_16_" class="st6">
		<use xlink:href="#SVGID_14_"  style="overflow:visible;"/>
	</clipPath>
	<rect x="190.2" y="-5" class="st7" width="54.2" height="73.1"/>
</g>
<g>
	<defs>
		<rect id="SVGID_17_" x="-2.4" y="-0.3" width="295" height="77"/>
	</defs>
	<defs>
		<path id="SVGID_18_" d="M256.6,55.2c0.4,0.9,0.6,1.8,0.6,2.8c0,5.2-2.9,7.5-4.3,8.7c-3.5,2.9-8.6,2.7-8.6,2.7h-2.7
			c-1.7,0-3.6,1.4-3.6,3.5c0,2.2,1.5,3.5,3.9,3.5h2.5c0.1,0,3.6,0.1,7.4-1.1c3.8-1.2,9.1-4.1,12.7-10.8c0.9-1.6,8.4-18.5,13.8-30.8
			l4.2-9.3c0.2-0.6,0.3-1.1,0.1-1.7c-0.2-0.6-0.6-1.1-1.2-1.4c-1.1-0.6-2.6-0.6-4.1-0.1c-1.5,0.5-2.8,1.5-3.3,2.6
			c0,0.1-6.2,13.5-6.7,14.4c-1.2,2.4-2.7,3.8-4,3.8c-1.6,0-2.6-0.2-4.8-4c-0.2-0.3-6.9-12.2-8-14.1c-0.6-1.2-1.9-2.2-3.5-2.7
			c-1.6-0.5-3.3-0.5-4.4,0.1c-0.7,0.4-1.2,0.9-1.4,1.5c-0.2,0.6-0.1,1.2,0.1,1.8C241.2,24.9,255.7,53.4,256.6,55.2"/>
	</defs>
	<clipPath id="SVGID_19_">
		<use xlink:href="#SVGID_17_"  style="overflow:visible;"/>
	</clipPath>
	<clipPath id="SVGID_20_" class="st8">
		<use xlink:href="#SVGID_18_"  style="overflow:visible;"/>
	</clipPath>
	<rect x="232.8" y="15.9" class="st9" width="54.7" height="65.5"/>
</g>
<g>
	<defs>
		<path id="SVGID_21_" d="M285.3,54.4h-0.2v1.6h0.2c0.6,0,1.2-0.2,1.2-0.9C286.4,54.6,286,54.4,285.3,54.4L285.3,54.4z M286.8,59.6
			c-0.9-1.5-1.3-2.5-1.6-2.5h-0.1v2.5h-1.4v-6.2h2.1c1.4,0,2.1,0.7,2.1,1.7c0,1-0.9,1.5-1.4,1.7v0c0.3,0,1.2,1.5,1.9,2.8H286.8
			L286.8,59.6z M285.8,51.8c-2.7,0-4.6,2.1-4.6,4.8c0,2.7,1.9,4.8,4.6,4.8c2.6,0,4.6-2.1,4.6-4.8C290.3,53.9,288.4,51.8,285.8,51.8
			L285.8,51.8z M285.8,62.8c-3.7,0-6.2-2.7-6.2-6.2c0-3.6,2.5-6.3,6.2-6.3c3.6,0,6.3,2.7,6.3,6.3C292.1,60.2,289.3,62.8,285.8,62.8
			L285.8,62.8L285.8,62.8z"/>
	</defs>
	<clipPath id="SVGID_22_">
		<use xlink:href="#SVGID_21_"  style="overflow:visible;"/>
	</clipPath>
	<rect x="274.6" y="45.3" class="st10" width="22.5" height="22.5"/>
</g>
</svg>
