<svg width="150" viewBox="0 0 167 72" fill="none" xmlns="http://www.w3.org/2000/svg">
<path d="M77.3032 57.7938C81.8325 57.7938 86.0005 54.8861 86.0005 50.3169C86.0005 45.6923 82.4716 42.5353 77.3032 42.5353H74.3578C67.411 42.5353 61.7147 47.8246 61.7147 55.4953V71.9169H49.8496V55.5507C49.8496 46.4123 59.2138 39.1846 70.5231 39.1846H78.8037C87.3343 39.1846 97.6155 41.9538 97.6155 50.3169C97.6155 58.8461 88.1679 61.4492 78.7759 61.4492H63.0762V57.7938H77.3032" fill="#99B2C5"/>
<path d="M118.234 39.1846H106.369V71.9446H118.234V39.1846Z" fill="#99B2C5"/>
<path d="M160.47 57.2123H139.963C140.797 63.4154 145.687 68.0677 151.467 68.0677H166.861V71.7785H148.132C136.823 71.7785 127.431 64.5508 127.431 55.4123C127.431 46.2738 136.823 39.0461 148.132 39.0461H166.861V42.6738H151.467C145.659 42.6738 140.741 47.3538 139.963 53.6123H160.47V57.2123Z" fill="#99B2C5"/>
<path d="M12.504 46.523C12.504 47.8523 14.0878 49.0153 16.8943 49.7907C19.7286 50.5661 23.2854 51.4523 26.9532 52.3384C34.1779 54.083 41.7637 56.4092 41.7637 61.8092C41.7637 67.8461 30.8434 71.9446 16.0329 71.9446C10.5867 71.9446 5.4183 71.4184 0.194336 69.923L1.86156 66.9876C6.64092 68.7323 13.421 69.0646 18.4504 69.0646C24.5358 69.0646 29.4541 67.1261 29.4541 64.3292C29.4541 62.723 27.8424 61.3384 25.1471 60.6461C22.3962 59.9261 18.8672 59.0123 15.2827 58.2092C8.22478 56.6307 0.750076 54.5538 0.750076 48.8769C0.750076 43.4215 8.64159 39.1846 23.2298 39.1846C27.8146 39.1846 34.5113 39.7938 38.8183 41.483L36.9288 43.8369C32.4829 42.5907 27.4534 42.12 22.8685 42.12C15.1438 42.0923 12.504 44.2523 12.504 46.523Z" fill="#99B2C5"/>
<path d="M96.0039 16.4492C96.0039 7.47692 103.312 0.193848 112.315 0.193848C121.318 0.193848 128.626 7.47692 128.626 16.4492C128.626 25.4215 121.318 32.7046 112.315 32.7046C103.284 32.7046 96.0039 25.4215 96.0039 16.4492Z" fill="white"/>
<path d="M96.0039 16.4492C96.0039 7.47692 103.312 0.193848 112.315 0.193848C119.706 0.193848 125.931 5.09539 127.931 11.7969C126.653 9.91385 125.153 8.16923 123.485 6.61846C123.18 6.75692 122.846 6.89538 122.513 7.03385C124.708 8.72308 126.625 10.7446 128.237 12.9877C128.431 13.8738 128.543 14.76 128.598 15.6738C126.459 12.6277 123.541 9.91385 120.457 8.00308C120.012 8.22462 119.54 8.47385 119.067 8.72308C122.679 10.5231 126.097 13.2923 128.598 16.5046C128.598 17.1969 128.543 17.8892 128.459 18.5815C125.375 14.7877 121.29 11.8523 116.594 10.1631C116.011 10.5508 115.427 10.9385 114.816 11.3538C120.095 12.6277 124.764 15.48 128.32 19.3846C128.209 19.9938 128.07 20.6031 127.876 21.1846C123.763 16.9754 118.234 14.1785 112.037 13.5415C111.37 14.1231 110.703 14.76 110.036 15.4246H110.286C116.928 15.4246 122.985 17.9446 127.57 22.0708C127.348 22.6523 127.098 23.2062 126.82 23.76C122.541 20.3262 117.122 18.2492 111.231 18.2492C109.897 18.2492 108.564 18.36 107.285 18.5538C106.646 19.3846 106.035 20.2431 105.452 21.1569C107.591 20.5477 109.842 20.2431 112.148 20.2431C117.4 20.2431 122.263 21.8769 126.292 24.6738C125.931 25.2554 125.542 25.8092 125.153 26.3631C121.624 24.2862 117.511 23.0954 113.093 23.0954C109.592 23.0954 106.285 23.8431 103.284 25.2C102.84 26.1969 102.395 27.2492 102.034 28.3569C105.563 26.28 109.647 25.0892 114.038 25.0892C117.706 25.0892 121.179 25.92 124.263 27.4154C121.29 30.6277 117.039 32.6492 112.287 32.6492C103.284 32.7046 96.0039 25.4215 96.0039 16.4492Z" fill="#99B2C5"/>
</svg>
