<?xml version="1.0" encoding="utf-8"?>
<!-- Generator: Adobe Illustrator 24.2.0, SVG Export Plug-In . SVG Version: 6.00 Build 0)  -->
<svg version="1.1" id="Calque_1" xmlns="http://www.w3.org/2000/svg" xmlns:xlink="http://www.w3.org/1999/xlink" x="0px" y="0px"
	 viewBox="0 0 189.4 67.6" style="enable-background:new 0 0 189.4 67.6;" xml:space="preserve">
<style type="text/css">
	.st0{display:none;}
	.st1{opacity:0.5;}
	.st2{fill:#99B2C5;}
	.st3{fill:#9AB3C6;}
</style>
<g id="xxxxxxxxx" class="st0">
</g>
<g id="Ebene_1">
	<g>
		<g class="st1">
			<polygon class="st2" points="19.4,21.9 30.9,10.5 26.3,5.8 5,5.8 5,27 19.4,41.5 			"/>
			<polygon class="st2" points="35,57.1 35.4,57.4 39.7,61.8 61,61.8 61,40.5 46.5,26 46.5,45.6 			"/>
			<polygon class="st2" points="9.7,35.8 9.3,36.1 5,40.5 5,61.8 26.3,61.8 43.6,44.4 43.6,19 56.3,31.7 61,27 61,5.8 39.7,5.8 
				22.4,23.1 22.4,48.5 			"/>
		</g>
		<path class="st3" d="M103.6,61.8h5.9v-28h-5.9V61.8z M90.3,49.3L90,50.4l-4.8-16.6h-4.4L76,50.4l-4.1-16.6h-6.1l7.5,28h4.9
			l4.9-16.1L88,61.8h4.8l7.5-28h-6.1L90.3,49.3z M155.1,36c-1.9-1.6-4.6-2.5-8.4-2.5c-4.4,0-7.1,1.3-9.5,3.5l4,4
			c1.3-1.5,2.8-2.1,5.3-2.1c1.9,0,3.2,0.3,4.2,1.1c0.9,0.8,1.3,2.1,1.3,3.7l-0.1,1.7H145c-6.3,0-8.9,3.6-8.9,8
			c0,2.5,0.7,4.6,2.1,6.1c1.6,1.6,3.6,2.7,6.7,2.7c2.8,0,5-0.7,6.7-2.7L152,59v2.7h5.9V43.3C157.9,40,157,37.6,155.1,36z
			 M151.9,51.5c0,2-0.4,3.1-1.4,4.1c-1.2,1.2-2.5,1.7-4.5,1.7l0,0c-1.4,0-2.6-0.4-3.3-1.2c-0.7-0.8-1-1.6-1-2.7s0.4-2,1.2-2.6
			s1.9-0.9,3.2-0.9h5.9L151.9,51.5L151.9,51.5z M125.8,45.2L125.8,45.2l-3.3-0.5c-1.1-0.1-1.9-0.6-2.4-1c-0.5-0.5-0.7-1.2-0.7-1.8
			c0-1.7,1.3-3.2,4-3.2c1.8,0,3.8,0.2,5.5,1.8l0.2,0.2l3.8-3.7l-0.2-0.2c-2.4-2.3-5.2-3.3-9-3.3l0,0c-6.1,0-9.8,3.6-9.8,8.6l0,0
			c0,2.4,0.7,4.2,2,5.6c1.3,1.3,3.1,2,5.5,2.4l3.3,0.5c1.2,0.2,1.8,0.5,2.3,0.9c0.5,0.5,0.8,1.2,0.8,2.1c0,1-0.4,1.8-1.2,2.3
			c-0.8,0.6-1.9,0.8-3.5,0.8c-2.5,0-4.8-0.6-6.4-2.3l-0.2-0.2l-3.8,4l0.1,0.1c2.7,2.8,6,3.7,10.2,3.8h0.1c5.8,0,10.4-3.2,10.4-8.7
			c0-2.5-0.7-4.6-2.2-6C130,46.3,128.4,45.6,125.8,45.2z M173.5,45.5v5.1h4.8c0,0,0,0.6,0,1.2c0,1.3-0.3,2.6-1.2,3.6
			c-0.9,0.9-1.8,1.4-4,1.4c-1.5,0-2.6-0.5-3.4-1.4c-0.5-0.5-0.9-1.4-1.1-2.3c-0.2-1.1-0.3-2.6-0.3-5.3c0-2.7,0.1-4.3,0.3-5.4
			c0.2-0.8,0.6-1.7,1.1-2.2c0.8-0.8,2-1.4,3.5-1.4c2.3,0,3.5,0.7,4.3,2.1c0.1,0.2,0.2,0.5,0.3,0.8h6.4c-0.1-0.7-0.4-1.5-0.7-2.2
			c-1.5-3.4-5-6-10.2-6c0,0-0.1,0-0.2,0l0,0c-3.6,0-6,1.1-8.1,3.1c-2.8,2.8-3,6.1-3,10.5c0,0.2,0,0.5,0,0.8v0.6
			c0,4.4,0.3,8.2,3,10.7c2.1,2,4.9,3.1,8.1,3.1l0,0c3.2,0,6.1-0.9,8.4-3.3c2.4-2.5,2.8-6,2.8-9.6v-3.9L173.5,45.5L173.5,45.5z"/>
	</g>
</g>
</svg>
