<svg width="67" height="67" viewBox="0 0 67 67" fill="none" xmlns="http://www.w3.org/2000/svg">
<path d="M34.0299 66.1245C52.069 66.1245 66.6926 51.5009 66.6926 33.4618C66.6926 15.4227 52.069 0.799072 34.0299 0.799072C15.9908 0.799072 1.36719 15.4227 1.36719 33.4618C1.36719 51.5009 15.9908 66.1245 34.0299 66.1245Z" fill="white"/>
<path d="M66.1926 33.4618C66.1926 51.2248 51.7929 65.6245 34.0299 65.6245C16.2669 65.6245 1.86719 51.2248 1.86719 33.4618C1.86719 15.6988 16.2669 1.29907 34.0299 1.29907C51.7929 1.29907 66.1926 15.6988 66.1926 33.4618Z" stroke="#999BC5" stroke-opacity="0.5"/>
<path d="M50.8071 23.119H14.1885V18.9842C14.1885 18.4323 14.7203 17.9849 15.3764 17.9849H49.6192C50.2753 17.9849 50.8071 18.4323 50.8071 18.9842V23.119Z" fill="#999BC5"/>
<path d="M49.6192 47.013H15.3764C15.2165 47.013 15.0927 46.9582 15.0192 46.8964C14.9474 46.836 14.9385 46.7861 14.9385 46.7637V23.8691H50.0571V46.7637C50.0571 46.7861 50.0482 46.836 49.9764 46.8964C49.9029 46.9582 49.779 47.013 49.6192 47.013Z" fill="white" stroke="#999BC5" stroke-width="1.5"/>
<path d="M17.5258 21.8355C18.2347 21.8355 18.8094 21.2608 18.8094 20.5519C18.8094 19.843 18.2347 19.2683 17.5258 19.2683C16.8169 19.2683 16.2422 19.843 16.2422 20.5519C16.2422 21.2608 16.8169 21.8355 17.5258 21.8355Z" fill="#CCCDE2"/>
<path d="M21.6332 21.8355C22.3421 21.8355 22.9168 21.2608 22.9168 20.5519C22.9168 19.843 22.3421 19.2683 21.6332 19.2683C20.9243 19.2683 20.3496 19.843 20.3496 20.5519C20.3496 21.2608 20.9243 21.8355 21.6332 21.8355Z" fill="#CCCDE2"/>
<path d="M55.8429 45.8314L57.1429 45.5115V43.8738L55.8428 43.5539C55.7078 42.9403 55.4652 42.3681 55.1372 41.8549L55.8314 40.7076L54.6733 39.5495L53.5258 40.2437C53.0127 39.9157 52.4406 39.6732 51.827 39.5382L51.5071 38.238H49.8693L49.5493 39.5382C48.9357 39.6732 48.3636 39.9158 47.8503 40.2438L46.7029 39.5496L45.5448 40.7077L46.239 41.8552C45.9111 42.3683 45.6685 42.9404 45.5335 43.554L44.2334 43.8739V45.5117L45.5335 45.8316C45.6685 46.4452 45.9111 47.0173 46.2391 47.5305L45.5449 48.6779L46.703 49.8359L47.8503 49.1418C48.3636 49.4698 48.9357 49.7124 49.5494 49.8474L49.8693 51.1473H51.5071L51.827 49.8474C52.4407 49.7124 53.0129 49.4698 53.5261 49.1417L54.6734 49.8358L55.8314 48.6777L55.1372 47.5305C55.4652 47.0173 55.7078 46.4451 55.8429 45.8314V45.8314Z" fill="#999BC5"/>
<path d="M50.6886 48.8001C52.9572 48.8001 54.7962 46.9611 54.7962 44.6925C54.7962 42.424 52.9572 40.585 50.6886 40.585C48.4201 40.585 46.5811 42.424 46.5811 44.6925C46.5811 46.9611 48.4201 48.8001 50.6886 48.8001Z" fill="white"/>
<path d="M20.1407 32.5071L19.4694 34.0322H18.2607L21.2147 27.3281H22.4234L25.3774 34.0322H24.1691L23.4975 32.5071H20.1407ZM23.0373 31.462L21.8192 28.6997L20.6011 31.462H23.0373Z" fill="#999BC5"/>
<path d="M30.8357 27.9128C31.3025 28.303 31.5359 28.904 31.5359 29.7158C31.5359 30.5283 31.2974 31.1232 30.8213 31.5001C30.3448 31.8771 29.6141 32.066 28.6295 32.066H27.4404V34.0322H26.3086V27.3281H28.6104C29.627 27.3281 30.3689 27.5232 30.8357 27.9128V27.9128ZM30.0349 30.6798C30.2616 30.4402 30.3752 30.0889 30.3752 29.6253C30.3752 29.1617 30.2311 28.8338 29.9435 28.6419C29.6559 28.4498 29.2051 28.3547 28.5912 28.3547H27.4402V31.0398H28.7543C29.3808 31.0396 29.8077 30.9202 30.0349 30.6798V30.6798Z" fill="#999BC5"/>
<path d="M32.8691 27.3281H34.001V34.0322H32.8691V27.3281Z" fill="#999BC5"/>
</svg>
