<svg width="67" height="67" viewBox="0 0 67 67" fill="none" xmlns="http://www.w3.org/2000/svg">
<path d="M33.5 67C52.0015 67 67 52.0015 67 33.5C67 14.9985 52.0015 0 33.5 0C14.9985 0 0 14.9985 0 33.5C0 52.0015 14.9985 67 33.5 67Z" fill="white"/>
<path d="M66.5 33.5C66.5 51.7254 51.7254 66.5 33.5 66.5C15.2746 66.5 0.5 51.7254 0.5 33.5C0.5 15.2746 15.2746 0.5 33.5 0.5C51.7254 0.5 66.5 15.2746 66.5 33.5Z" stroke="#2DBDFF" stroke-opacity="0.5"/>
<path d="M17.1179 17.7627H17.1094C16.646 17.7627 16.2705 18.1382 16.2705 18.6015C16.2705 19.0649 16.646 19.4404 17.1094 19.4404H17.1179C17.5812 19.4404 17.9567 19.0649 17.9567 18.6015C17.9567 18.1382 17.5812 17.7627 17.1179 17.7627Z" fill="#2DBDFF"/>
<path d="M21.2731 17.7627H21.2646C20.8013 17.7627 20.4258 18.1382 20.4258 18.6015C20.4258 19.0649 20.8013 19.4404 21.2646 19.4404H21.2731C21.7365 19.4404 22.112 19.0649 22.112 18.6015C22.112 18.1382 21.7365 17.7627 21.2731 17.7627Z" fill="#2DBDFF"/>
<path d="M25.4274 17.7627H25.4189C24.9556 17.7627 24.5801 18.1382 24.5801 18.6015C24.5801 19.0649 24.9556 19.4404 25.4189 19.4404H25.4274C25.8908 19.4404 26.2663 19.0649 26.2663 18.6015C26.2663 18.1382 25.8908 17.7627 25.4274 17.7627Z" fill="#2DBDFF"/>
<path d="M48.7531 17.7627H32.5693C32.106 17.7627 31.7305 18.1382 31.7305 18.6015C31.7305 19.0645 32.106 19.4404 32.5693 19.4404H48.7531C49.2165 19.4404 49.592 19.0645 49.592 18.6015C49.592 18.1382 49.2165 17.7627 48.7531 17.7627Z" fill="#2DBDFF"/>
<path d="M33.5351 51.6558C33.3146 51.6558 33.099 51.7455 32.942 51.9015C32.7861 52.0575 32.6963 52.2741 32.6963 52.4946C32.6963 52.7151 32.7861 52.9317 32.942 53.0877C33.099 53.2437 33.3146 53.3334 33.5351 53.3334C33.7557 53.3334 33.9723 53.2437 34.1282 53.0877C34.2849 52.9317 34.374 52.7151 34.374 52.4946C34.374 52.2741 34.2849 52.0575 34.1282 51.9015C33.9723 51.7455 33.7557 51.6558 33.5351 51.6558Z" fill="#2DBDFF"/>
<path d="M51.7663 13.7451H14.1474C12.6781 13.7451 11.4824 14.9408 11.4824 16.4101V50.6684C11.4824 52.138 12.6781 53.3334 14.1474 53.3334H30.0209C30.4842 53.3334 30.8598 52.9579 30.8598 52.4945C30.8598 52.0312 30.4842 51.6557 30.0209 51.6557H14.1474C13.6031 51.6557 13.1601 51.213 13.1601 50.6684V23.458H52.7536V50.6684C52.7536 51.2127 52.3106 51.6557 51.7663 51.6557H36.9555C36.4921 51.6557 36.1166 52.0312 36.1166 52.4945C36.1166 52.9579 36.4921 53.3334 36.9555 53.3334H51.7663C53.2356 53.3334 54.4313 52.138 54.4313 50.6684V16.4101C54.4313 14.9408 53.2356 13.7451 51.7663 13.7451ZM13.1601 21.78V16.4101C13.1601 15.8658 13.6031 15.4228 14.1474 15.4228H51.7663C52.3106 15.4228 52.7536 15.8658 52.7536 16.4101V21.7803H13.1601V21.78Z" fill="#2DBDFF"/>
<path d="M26.4173 33.0386C26.4173 31.3734 25.0627 30.0188 23.3974 30.0188H20.5732C20.1099 30.0188 19.7344 30.3943 19.7344 30.8576V39.5816C19.7344 40.045 20.1099 40.4205 20.5732 40.4205H23.3974C25.0627 40.4205 26.4173 39.0659 26.4173 37.4006C26.4173 36.5438 26.0582 35.7698 25.4828 35.2196C26.0582 34.6695 26.4173 33.8955 26.4173 33.0386ZM24.7396 37.4006C24.7396 38.1405 24.1373 38.7428 23.3974 38.7428H21.4121V36.0585H23.3974C24.1373 36.0585 24.7396 36.6604 24.7396 37.4006ZM21.4121 34.3808V31.6965H23.3974C24.1377 31.6965 24.7396 32.2988 24.7396 33.0386C24.7396 33.7785 24.1377 34.3808 23.3974 34.3808H21.4121Z" fill="#2DBDFF"/>
<path d="M28.8174 30.0188C28.354 30.0188 27.9785 30.3943 27.9785 30.8576V37.6415C27.9785 39.174 29.2253 40.4205 30.7575 40.4205C31.2209 40.4205 31.5964 40.045 31.5964 39.5816C31.5964 39.1183 31.2209 38.7428 30.7575 38.7428C30.1503 38.7428 29.6562 38.2487 29.6562 37.6415V30.8576C29.6562 30.3943 29.2807 30.0188 28.8174 30.0188Z" fill="#2DBDFF"/>
<path d="M38.7343 37.3828C38.7343 35.7078 37.3718 34.345 35.6967 34.345C34.0216 34.345 32.6592 35.7078 32.6592 37.3828C32.6592 39.0579 34.022 40.4204 35.6967 40.4204C37.3718 40.4204 38.7343 39.0579 38.7343 37.3828ZM34.3369 37.3828C34.3369 36.6328 34.947 36.0227 35.6967 36.0227C36.4464 36.0227 37.0566 36.6328 37.0566 37.3828C37.0566 38.1326 36.4468 38.7427 35.6967 38.7427C34.9467 38.7427 34.3369 38.1326 34.3369 37.3828Z" fill="#2DBDFF"/>
<path d="M43.142 42.7691C42.3923 42.7691 41.7822 42.159 41.7822 41.4093C41.7822 40.946 41.4067 40.5704 40.9433 40.5704C40.48 40.5704 40.1045 40.946 40.1045 41.4093C40.1045 43.0844 41.4673 44.4468 43.142 44.4468C44.8171 44.4468 46.1799 43.0844 46.1799 41.4093V37.3828C46.1799 35.7078 44.8171 34.345 43.142 34.345C41.4673 34.345 40.1045 35.7078 40.1045 37.3828C40.1045 39.0579 41.4673 40.4204 43.142 40.4204C43.6309 40.4204 44.0926 40.3037 44.5022 40.0976V41.4093C44.5022 42.159 43.8921 42.7691 43.142 42.7691ZM43.142 38.7427C42.3923 38.7427 41.7822 38.1326 41.7822 37.3828C41.7822 36.6328 42.3923 36.0227 43.142 36.0227C43.8921 36.0227 44.5022 36.6328 44.5022 37.3828C44.5022 38.1326 43.8921 38.7427 43.142 38.7427Z" fill="#2DBDFF"/>
<path d="M20.5732 48.6411H45.3408C45.8041 48.6411 46.1796 48.2656 46.1796 47.8022C46.1796 47.3389 45.8041 46.9634 45.3408 46.9634H20.5732C20.1102 46.9634 19.7344 47.3389 19.7344 47.8022C19.7344 48.2656 20.1102 48.6411 20.5732 48.6411Z" fill="#2DBDFF"/>
</svg>
