<svg width="67" height="67" viewBox="0 0 67 67" fill="none" xmlns="http://www.w3.org/2000/svg">
<path d="M33.5 67C52.0015 67 67 52.0015 67 33.5C67 14.9985 52.0015 0 33.5 0C14.9985 0 0 14.9985 0 33.5C0 52.0015 14.9985 67 33.5 67Z" fill="white"/>
<path d="M66.5 33.5C66.5 51.7254 51.7254 66.5 33.5 66.5C15.2746 66.5 0.5 51.7254 0.5 33.5C0.5 15.2746 15.2746 0.5 33.5 0.5C51.7254 0.5 66.5 15.2746 66.5 33.5Z" stroke="#60D39D" stroke-opacity="0.5"/>
<path d="M47.6832 22.0249H31.789C31.2419 22.0249 30.793 22.4738 30.793 23.0209C30.793 23.568 31.2419 24.0169 31.789 24.0169H47.6973C48.2444 24.0169 48.6933 23.568 48.6933 23.0209C48.6933 22.4738 48.2304 22.0249 47.6832 22.0249Z" fill="#2BC47C"/>
<path d="M25.3779 19.2612L21.0992 22.6842L19.7385 21.3234C19.3457 20.9306 18.7284 20.9306 18.3356 21.3234C17.9428 21.7162 17.9428 22.3335 18.3356 22.7263L20.3277 24.7183C20.5241 24.9147 20.7766 25.0129 21.0291 25.0129C21.2535 25.0129 21.464 24.9428 21.6463 24.7885L26.6124 20.8184C27.0473 20.4677 27.1174 19.8504 26.7667 19.4155C26.43 18.9947 25.7988 18.9245 25.3779 19.2612Z" fill="#2BC47C"/>
<path d="M47.6832 32.967H31.789C31.2419 32.967 30.793 33.416 30.793 33.9631C30.793 34.5102 31.2419 34.9591 31.789 34.9591H47.6973C48.2444 34.9591 48.6933 34.5102 48.6933 33.9631C48.6933 33.416 48.2304 32.967 47.6832 32.967Z" fill="#2BC47C"/>
<path d="M25.3779 30.2034L21.0992 33.6264L19.7385 32.2656C19.3457 31.8728 18.7284 31.8728 18.3356 32.2656C17.9428 32.6584 17.9428 33.2756 18.3356 33.6684L20.3277 35.6605C20.5241 35.8569 20.7766 35.9551 21.0291 35.9551C21.2535 35.9551 21.464 35.8849 21.6463 35.7306L26.6124 31.7606C27.0473 31.4099 27.1174 30.7926 26.7667 30.3577C26.43 29.9228 25.7988 29.8527 25.3779 30.2034Z" fill="#2BC47C"/>
<path d="M47.6832 43.8953H31.789C31.2419 43.8953 30.793 44.3442 30.793 44.8913C30.793 45.4384 31.2419 45.8873 31.789 45.8873H47.6973C48.2444 45.8873 48.6933 45.4384 48.6933 44.8913C48.6933 44.3442 48.2304 43.8953 47.6832 43.8953Z" fill="#2BC47C"/>
<path d="M25.3779 41.1316L21.0992 44.5545L19.7385 43.1938C19.3457 42.801 18.7284 42.801 18.3356 43.1938C17.9428 43.5866 17.9428 44.2038 18.3356 44.5966L20.3277 46.5887C20.5241 46.7851 20.7766 46.8833 21.0291 46.8833C21.2535 46.8833 21.464 46.8131 21.6463 46.6588L26.6124 42.6888C27.0473 42.338 27.1174 41.7208 26.7667 41.2859C26.43 40.865 25.7988 40.7949 25.3779 41.1316Z" fill="#2BC47C"/>
</svg>
