<svg width="67" height="67" viewBox="0 0 67 67" fill="none" xmlns="http://www.w3.org/2000/svg">
<path d="M33.5 67C52.0015 67 67 52.0015 67 33.5C67 14.9985 52.0015 0 33.5 0C14.9985 0 0 14.9985 0 33.5C0 52.0015 14.9985 67 33.5 67Z" fill="white"/>
<path d="M66.5 33.5C66.5 51.7254 51.7254 66.5 33.5 66.5C15.2746 66.5 0.5 51.7254 0.5 33.5C0.5 15.2746 15.2746 0.5 33.5 0.5C51.7254 0.5 66.5 15.2746 66.5 33.5Z" stroke="#2DBDFF" stroke-opacity="0.5"/>
<path d="M36.9895 30.013C37.114 30.2564 37.3616 30.397 37.6176 30.397C37.7245 30.397 37.8342 30.3724 37.9362 30.3204C37.9777 30.2993 42.1175 28.1963 44.1593 27.5514C44.5293 27.4339 44.7346 27.0386 44.6171 26.6687C44.5003 26.2987 44.1079 26.0927 43.7345 26.2095C41.5837 26.8896 37.472 28.9785 37.2976 29.0671C36.9515 29.2429 36.8137 29.6664 36.9895 30.013V30.013Z" fill="#2DBDFF"/>
<path d="M37.6175 21.9569C37.7244 21.9569 37.8341 21.9322 37.9362 21.8802C37.9776 21.8591 42.1175 19.7561 44.1593 19.1112C44.5292 18.9937 44.7346 18.5984 44.6171 18.2285C44.5003 17.8585 44.1079 17.6525 43.7345 17.7693C41.5837 18.4494 37.472 20.5383 37.2976 20.6269C36.9516 20.8027 36.8137 21.2261 36.9895 21.5729C37.1139 21.8162 37.3615 21.9569 37.6175 21.9569V21.9569Z" fill="#2DBDFF"/>
<path d="M54.4966 20.5503C54.1077 20.5503 53.7933 20.8654 53.7933 21.2536V48.6836C53.7933 49.8469 52.8466 50.7936 51.6833 50.7936H34.8033V49.1752C35.8288 48.8165 38.5 47.9803 41.1333 47.9803C47.2601 47.9803 51.4203 49.337 51.4618 49.351C51.6734 49.4213 51.9098 49.3862 52.0948 49.2539C52.2783 49.1217 52.3866 48.9093 52.3866 48.6835V17.737C52.3866 17.4072 52.1581 17.1216 51.8359 17.0505C51.8359 17.0505 51.2845 16.9275 50.342 16.7544C49.9614 16.6841 49.5937 16.9373 49.5233 17.3185C49.453 17.7011 49.7054 18.0675 50.0874 18.1378C50.4468 18.2039 50.7478 18.2623 50.9799 18.3088V47.7488C49.3861 47.331 45.847 46.5736 41.1332 46.5736C38.0688 46.5736 35.0586 47.58 34.1273 47.9212C33.2995 47.5555 30.7971 46.5736 27.7699 46.5736C22.9253 46.5736 18.9346 47.3726 17.2199 47.7784V18.2813C18.6245 17.936 22.7727 17.0336 27.7699 17.0336C30.3343 17.0336 32.5335 17.8319 33.3966 18.1927V45.8703C33.3966 46.1235 33.533 46.3577 33.7531 46.4822C33.9733 46.6074 34.2448 46.6038 34.4621 46.473C34.5318 46.4316 41.5004 42.2692 47.6854 40.2077C47.9731 40.1114 48.1665 39.8434 48.1665 39.5403V10.7036C48.1665 10.4729 48.0533 10.257 47.8634 10.1255C47.6749 9.99399 47.433 9.96374 47.2156 10.0447C41.5883 12.1553 35.8942 15.6987 35.8372 15.7339C35.508 15.94 35.4074 16.3739 35.6135 16.7031C35.8189 17.0323 36.2528 17.1329 36.5827 16.9268C36.6347 16.8938 41.5883 13.8118 46.7598 11.732V39.0368C41.9589 40.7051 36.9462 43.4291 34.8032 44.6486V17.737C34.8032 17.4705 34.6527 17.2271 34.4142 17.1076C34.2932 17.0478 31.411 15.627 27.7699 15.627C21.4146 15.627 16.5286 17.0021 16.3232 17.0611C16.0214 17.1469 15.8132 17.4233 15.8132 17.737V48.6837C15.8132 48.9038 15.9173 49.112 16.0925 49.2449C16.2163 49.3385 16.3654 49.387 16.5166 49.387C16.5813 49.387 16.646 49.3779 16.7093 49.3596C16.7579 49.3462 21.6214 47.9803 27.7699 47.9803C30.3413 47.9803 32.5385 48.7807 33.3966 49.1401V50.7936H16.5166C15.3533 50.7936 14.4066 49.847 14.4066 48.6837V21.2537C14.4066 20.8655 14.0915 20.5504 13.7033 20.5504C13.3151 20.5504 13 20.8655 13 21.2537V48.6837C13 50.6227 14.5776 52.2003 16.5167 52.2003H51.6833C53.6224 52.2003 55.2 50.6228 55.2 48.6837V21.2537C55.1999 20.8654 54.8856 20.5503 54.4966 20.5503V20.5503Z" fill="#2DBDFF"/>
<path d="M36.9895 25.7928C37.114 26.0362 37.3616 26.1768 37.6176 26.1768C37.7245 26.1768 37.8342 26.1522 37.9362 26.1002C37.9777 26.0791 42.1175 23.9761 44.1593 23.3311C44.5293 23.2137 44.7346 22.8184 44.6171 22.4485C44.5003 22.0785 44.1079 21.8724 43.7345 21.9892C41.5837 22.6694 37.472 24.7583 37.2976 24.8469C36.9515 25.0227 36.8137 25.4462 36.9895 25.7928V25.7928Z" fill="#2DBDFF"/>
<path d="M36.9895 34.233C37.114 34.4764 37.3616 34.617 37.6176 34.617C37.7245 34.617 37.8342 34.5924 37.9362 34.5404C37.9777 34.5193 42.1175 32.4163 44.1593 31.7713C44.5293 31.6539 44.7346 31.2586 44.6171 30.8887C44.5003 30.5187 44.1079 30.3126 43.7345 30.4294C41.5837 31.1096 37.472 33.1985 37.2976 33.2871C36.9515 33.4629 36.8137 33.8864 36.9895 34.233V34.233Z" fill="#2DBDFF"/>
<path d="M30.0394 23.0527C25.6964 22.0336 20.7611 23.332 20.5536 23.3875C20.1788 23.4881 19.9558 23.8735 20.0564 24.2491C20.1408 24.5634 20.4249 24.7702 20.7351 24.7702C20.7956 24.7702 20.8568 24.7625 20.918 24.7463C20.9651 24.733 25.7168 23.4831 29.7188 24.4221C30.0951 24.51 30.4756 24.2758 30.5642 23.8974C30.6527 23.5197 30.4178 23.1413 30.0394 23.0527V23.0527Z" fill="#2DBDFF"/>
<path d="M30.0394 27.2726C25.6964 26.2542 20.7611 27.5519 20.5536 27.6074C20.1788 27.708 19.9558 28.0935 20.0564 28.469C20.1408 28.7833 20.4249 28.9901 20.7351 28.9901C20.7956 28.9901 20.8568 28.9824 20.918 28.9662C20.9651 28.9529 25.7168 27.703 29.7188 28.642C30.0951 28.7299 30.4756 28.4957 30.5642 28.1173C30.6527 27.7396 30.4178 27.3612 30.0394 27.2726V27.2726Z" fill="#2DBDFF"/>
<path d="M36.9895 38.4527C37.114 38.6961 37.3616 38.8367 37.6176 38.8367C37.7245 38.8367 37.8342 38.8121 37.9362 38.7601C37.9777 38.739 42.1175 36.636 44.1593 35.9911C44.5293 35.8736 44.7346 35.4783 44.6171 35.1084C44.5003 34.7385 44.1079 34.5324 43.7345 34.6491C41.5837 35.3293 37.472 37.4182 37.2976 37.5068C36.9515 37.6826 36.8137 38.1061 36.9895 38.4527V38.4527Z" fill="#2DBDFF"/>
<path d="M30.0394 31.4927C25.6964 30.4743 20.7611 31.7712 20.5536 31.8275C20.1788 31.9281 19.9558 32.3136 20.0564 32.6891C20.1408 33.0034 20.4249 33.211 20.7351 33.211C20.7956 33.211 20.8568 33.2026 20.918 33.1863C20.9651 33.173 25.7168 31.9231 29.7188 32.8621C30.0951 32.95 30.4756 32.7158 30.5642 32.3374C30.6527 31.9597 30.4178 31.5813 30.0394 31.4927Z" fill="#2DBDFF"/>
<path d="M30.0394 39.9329C25.6964 38.9137 20.7611 40.2121 20.5536 40.2677C20.1788 40.3682 19.9558 40.7537 20.0564 41.1292C20.1408 41.4436 20.4249 41.6511 20.7351 41.6511C20.7956 41.6511 20.8568 41.6427 20.918 41.6265C20.9651 41.6131 25.7168 40.3633 29.7188 41.3022C30.0951 41.3894 30.4756 41.1559 30.5642 40.7775C30.6527 40.3999 30.4178 40.0215 30.0394 39.9329V39.9329Z" fill="#2DBDFF"/>
<path d="M30.0394 35.7128C25.6964 34.6936 20.7611 35.9913 20.5536 36.0476C20.1788 36.1481 19.9558 36.5336 20.0564 36.9091C20.1408 37.2235 20.4249 37.431 20.7351 37.431C20.7956 37.431 20.8568 37.4226 20.918 37.4064C20.9651 37.393 25.7168 36.1432 29.7188 37.0821C30.0951 37.1701 30.4756 36.9358 30.5642 36.5574C30.6527 36.1798 30.4178 35.8014 30.0394 35.7128V35.7128Z" fill="#2DBDFF"/>
</svg>
