<svg width="67" height="67" viewBox="0 0 67 67" fill="none" xmlns="http://www.w3.org/2000/svg">
<path d="M33.5 67C52.0015 67 67 52.0015 67 33.5C67 14.9985 52.0015 0 33.5 0C14.9985 0 0 14.9985 0 33.5C0 52.0015 14.9985 67 33.5 67Z" fill="white"/>
<path d="M66.5 33.5C66.5 51.7254 51.7254 66.5 33.5 66.5C15.2746 66.5 0.5 51.7254 0.5 33.5C0.5 15.2746 15.2746 0.5 33.5 0.5C51.7254 0.5 66.5 15.2746 66.5 33.5Z" stroke="#60D39D" stroke-opacity="0.5"/>
<path d="M46.5739 21.4072H30.6796C30.1325 21.4072 29.6836 21.8561 29.6836 22.4032C29.6836 22.9504 30.1325 23.3993 30.6796 23.3993H46.5879C47.135 23.3993 47.5839 22.9504 47.5839 22.4032C47.5839 21.8561 47.121 21.4072 46.5739 21.4072Z" fill="#2BC47C"/>
<path d="M46.5739 32.3494H30.6796C30.1325 32.3494 29.6836 32.7983 29.6836 33.3454C29.6836 33.8925 30.1325 34.3414 30.6796 34.3414H46.5879C47.135 34.3414 47.5839 33.8925 47.5839 33.3454C47.5839 32.7983 47.121 32.3494 46.5739 32.3494Z" fill="#2BC47C"/>
<path d="M46.5739 43.2776H30.6796C30.1325 43.2776 29.6836 43.7265 29.6836 44.2736C29.6836 44.8207 30.1325 45.2696 30.6796 45.2696H46.5879C47.135 45.2696 47.5839 44.8207 47.5839 44.2736C47.5839 43.7265 47.121 43.2776 46.5739 43.2776Z" fill="#2BC47C"/>
<path d="M22.5013 25.5878C24.1987 25.5878 25.5876 24.199 25.5876 22.5015C25.5876 20.8041 24.1987 19.4153 22.5013 19.4153C20.8039 19.4153 19.415 20.8041 19.415 22.5015C19.415 24.199 20.8039 25.5878 22.5013 25.5878ZM22.5013 20.8462C23.4132 20.8462 24.1567 21.5897 24.1567 22.5015C24.1567 23.4134 23.4132 24.1569 22.5013 24.1569C21.5895 24.1569 20.8459 23.4134 20.8459 22.5015C20.8459 21.5897 21.5895 20.8462 22.5013 20.8462Z" fill="#2BC47C"/>
<path d="M22.5013 36.2355C24.1987 36.2355 25.5876 34.8467 25.5876 33.1493C25.5876 31.4518 24.1987 30.063 22.5013 30.063C20.8039 30.063 19.415 31.4518 19.415 33.1493C19.415 34.8467 20.8039 36.2355 22.5013 36.2355ZM22.5013 31.5079C23.4132 31.5079 24.1567 32.2514 24.1567 33.1633C24.1567 34.0751 23.4132 34.8186 22.5013 34.8186C21.5895 34.8186 20.8459 34.0751 20.8459 33.1633C20.8459 32.2374 21.5895 31.5079 22.5013 31.5079Z" fill="#2BC47C"/>
<path d="M22.5013 47.5985C24.1987 47.5985 25.5876 46.2097 25.5876 44.5123C25.5876 42.8148 24.1987 41.426 22.5013 41.426C20.8039 41.426 19.415 42.8148 19.415 44.5123C19.415 46.2238 20.8039 47.5985 22.5013 47.5985ZM22.5013 42.8569C23.4132 42.8569 24.1567 43.6004 24.1567 44.5123C24.1567 45.4241 23.4132 46.1676 22.5013 46.1676C21.5895 46.1676 20.8459 45.4241 20.8459 44.5123C20.8459 43.6004 21.5895 42.8569 22.5013 42.8569Z" fill="#2BC47C"/>
</svg>
