<?xml version="1.0" encoding="utf-8"?>
<!-- Generator: Adobe Illustrator 24.0.3, SVG Export Plug-In . SVG Version: 6.00 Build 0)  -->
<svg version="1.1" id="Calque_1" xmlns="http://www.w3.org/2000/svg" xmlns:xlink="http://www.w3.org/1999/xlink" x="0px" y="0px"
	 viewBox="0 0 63 63" style="enable-background:new 0 0 63 63;" xml:space="preserve">
<style type="text/css">
	.st0{fill:#FFFFFF;}
	.st1{fill:none;stroke:#60D39D;stroke-opacity:0.5;}
	.st2{fill:#2BC47C;}
</style>
<path class="st0" d="M31.8,62.7c17.4,0,31.5-14.1,31.5-31.5S49.2-0.3,31.8-0.3S0.3,13.8,0.3,31.2S14.4,62.7,31.8,62.7z"/>
<path class="st1" d="M62.8,31.2c0,17.1-13.9,31-31,31s-31-13.9-31-31s13.9-31,31-31S62.8,14.1,62.8,31.2z"/>
<g>
	<path class="st2" d="M31.8,14.6c-4.4,0-8.6,1.7-11.7,4.8c-5.4,5.4-6.3,13.6-2.6,19.9l-2.2,7c-0.2,0.7,0.5,1.5,1.2,1.2l6.8-2.2
		c11,6.6,25-1.4,25-14.2C48.3,22,40.9,14.6,31.8,14.6L31.8,14.6z M24,43.4c-0.2-0.2-0.5-0.2-0.8-0.1l-5.4,1.8l1.7-5.6
		c0.1-0.3,0-0.6-0.1-0.8c-5.9-9.7,1.1-22.2,12.5-22.2c8,0,14.6,6.5,14.6,14.6C46.4,42.6,33.6,49.6,24,43.4L24,43.4z"/>
	<path class="st2" d="M39.6,26.2H27.9c-0.5,0-1,0.4-1,1s0.4,1,1,1h11.6c0.5,0,1-0.4,1-1S40.1,26.2,39.6,26.2z"/>
	<path class="st2" d="M35.7,34H24.1c-0.5,0-1,0.4-1,1c0,0.5,0.4,1,1,1h11.6c0.5,0,1-0.4,1-1C36.6,34.4,36.2,34,35.7,34z"/>
	<path class="st2" d="M39.6,30.1H24.1c-0.5,0-1,0.4-1,1s0.4,1,1,1h15.5c0.5,0,1-0.4,1-1C40.5,30.6,40.1,30.1,39.6,30.1z"/>
	<ellipse class="st2" cx="39.6" cy="35" rx="1" ry="1"/>
	<ellipse class="st2" cx="24.1" cy="27.3" rx="1" ry="1"/>
</g>
</svg>
