<?xml version="1.0" encoding="UTF-8" standalone="no"?>
<!-- Generator: Adobe Illustrator 19.0.0, SVG Export Plug-In . SVG Version: 6.00 Build 0)  -->

<svg
   xmlns:dc="http://purl.org/dc/elements/1.1/"
   xmlns:cc="http://creativecommons.org/ns#"
   xmlns:rdf="http://www.w3.org/1999/02/22-rdf-syntax-ns#"
   xmlns:svg="http://www.w3.org/2000/svg"
   xmlns="http://www.w3.org/2000/svg"
   xmlns:sodipodi="http://sodipodi.sourceforge.net/DTD/sodipodi-0.dtd"
   xmlns:inkscape="http://www.inkscape.org/namespaces/inkscape"
   version="1.1"
   id="Capa_1"
   x="0px"
   y="0px"
   viewBox="0 0 489.888 489.888"
   style="enable-background:new 0 0 489.888 489.888;"
   xml:space="preserve"
   sodipodi:docname="examples.svg"
   inkscape:version="0.92.3 (2405546, 2018-03-11)"><metadata
     id="metadata13"><rdf:RDF><cc:Work
         rdf:about=""><dc:format>image/svg+xml</dc:format><dc:type
           rdf:resource="http://purl.org/dc/dcmitype/StillImage" /><dc:title></dc:title></cc:Work></rdf:RDF></metadata><defs
     id="defs11"><inkscape:perspective
       sodipodi:type="inkscape:persp3d"
       inkscape:vp_x="-34.334861 : 39.692556 : 1"
       inkscape:vp_y="264.4622 : 1245.0008 : 0"
       inkscape:vp_z="78.504168 : 8.1684623 : 1"
       inkscape:persp3d-origin="20.323684 : 15.640445 : 1"
       id="perspective106" /><clipPath
       clipPathUnits="userSpaceOnUse"
       id="clipPath22"><path
         d="M 0,595.276 H 841.89 V 0 H 0 Z"
         id="path20"
         inkscape:connector-curvature="0" /></clipPath><clipPath
       id="clipPath22-92"
       clipPathUnits="userSpaceOnUse"><path
         inkscape:connector-curvature="0"
         id="path20-2"
         d="M 0,595.276 H 841.89 V 0 H 0 Z" /></clipPath><clipPath
       id="clipPath22-5"
       clipPathUnits="userSpaceOnUse"><path
         inkscape:connector-curvature="0"
         id="path20-6"
         d="M 0,595.276 H 841.89 V 0 H 0 Z" /></clipPath><clipPath
       id="clipPath22-9"
       clipPathUnits="userSpaceOnUse"><path
         inkscape:connector-curvature="0"
         id="path20-1"
         d="M 0,595.276 H 841.89 V 0 H 0 Z" /></clipPath><clipPath
       id="clipPath22-9-6"
       clipPathUnits="userSpaceOnUse"><path
         inkscape:connector-curvature="0"
         id="path20-1-1"
         d="M 0,595.276 H 841.89 V 0 H 0 Z" /></clipPath></defs><sodipodi:namedview
     pagecolor="#ffffff"
     bordercolor="#666666"
     borderopacity="1"
     objecttolerance="10"
     gridtolerance="10"
     guidetolerance="10"
     inkscape:pageopacity="0"
     inkscape:pageshadow="2"
     inkscape:window-width="1666"
     inkscape:window-height="899"
     id="namedview9"
     showgrid="false"
     inkscape:zoom="0.48174277"
     inkscape:cx="89.902201"
     inkscape:cy="286.45993"
     inkscape:window-x="0"
     inkscape:window-y="27"
     inkscape:window-maximized="0"
     inkscape:current-layer="Capa_1" /><circle
     r="238.82201"
     cy="244.66435"
     cx="248.81595"
     id="path184"
     style="opacity:1;fill:#eff4f7;fill-opacity:1;fill-rule:nonzero;stroke:none;stroke-width:1.0583334;stroke-linecap:round;stroke-linejoin:bevel;stroke-miterlimit:4;stroke-dasharray:none;stroke-opacity:1;paint-order:fill markers stroke" /><g
     id="g1094"
     transform="matrix(0.59862888,0,0,0.59862888,96.520895,85.507689)"
     style="stroke-width:1.67048407;fill:#99b2c5;fill-opacity:1"><g
       id="g1026"
       style="stroke-width:1.67048407;fill:#99b2c5;fill-opacity:1">
	<g
   id="g1024"
   style="stroke-width:1.67048407;fill:#99b2c5;fill-opacity:1">
		<g
   id="g1022"
   style="stroke-width:1.67048407;fill:#99b2c5;fill-opacity:1">
			<path
   id="path1000"
   d="m 291.057,242.811 c 1.51,2.953 4.514,4.659 7.62,4.659 1.297,0 2.628,-0.299 3.866,-0.93 0.503,-0.256 50.731,-25.771 75.503,-33.596 4.489,-1.425 6.98,-6.221 5.555,-10.709 -1.417,-4.489 -6.178,-6.989 -10.709,-5.572 -26.095,8.252 -75.981,33.596 -78.097,34.671 -4.199,2.133 -5.871,7.271 -3.738,11.477 z"
   inkscape:connector-curvature="0"
   style="stroke-width:1.67048407;fill:#99b2c5;fill-opacity:1" />
			<path
   id="path1002"
   d="m 298.677,145.071 c 1.297,0 2.628,-0.299 3.866,-0.93 0.503,-0.256 50.731,-25.771 75.503,-33.596 4.489,-1.425 6.98,-6.221 5.555,-10.709 -1.417,-4.489 -6.178,-6.989 -10.709,-5.572 -26.095,8.252 -75.981,33.596 -78.097,34.671 -4.198,2.133 -5.871,7.27 -3.738,11.477 1.51,2.952 4.514,4.659 7.62,4.659 z"
   inkscape:connector-curvature="0"
   style="stroke-width:1.67048407;fill:#99b2c5;fill-opacity:1" />
			<path
   id="path1004"
   d="m 503.469,128.004 c -4.719,0 -8.533,3.823 -8.533,8.533 v 332.8 c 0,14.114 -11.486,25.6 -25.6,25.6 h -204.8 v -19.635 c 12.442,-4.352 44.851,-14.498 76.8,-14.498 74.334,0 124.809,16.461 125.312,16.631 2.568,0.853 5.436,0.427 7.68,-1.178 2.227,-1.604 3.541,-4.181 3.541,-6.921 V 93.871 c 0,-4.002 -2.773,-7.467 -6.682,-8.329 0,0 -6.69,-1.493 -18.125,-3.593 -4.617,-0.853 -9.079,2.219 -9.933,6.844 -0.853,4.642 2.21,9.088 6.844,9.941 4.361,0.802 8.013,1.51 10.829,2.074 v 357.188 c -19.337,-5.069 -62.276,-14.259 -119.467,-14.259 -37.18,0 -73.702,12.211 -85.001,16.35 -10.044,-4.437 -40.405,-16.35 -77.133,-16.35 -58.778,0 -107.196,9.694 -128,14.618 v -357.88 c 17.041,-4.19 67.371,-15.138 128,-15.138 31.113,0 57.796,9.685 68.267,14.063 v 335.804 c 0,3.072 1.655,5.914 4.326,7.424 2.671,1.519 5.965,1.476 8.602,-0.111 0.845,-0.503 85.393,-51.004 160.435,-76.015 3.49,-1.169 5.837,-4.42 5.837,-8.098 V 8.537 c 0,-2.799 -1.374,-5.419 -3.678,-7.014 -2.287,-1.596 -5.222,-1.963 -7.859,-0.981 -68.275,25.608 -137.36,68.599 -138.052,69.026 -3.994,2.5 -5.214,7.765 -2.714,11.759 2.492,3.994 7.757,5.214 11.759,2.714 0.631,-0.401 60.732,-37.794 123.477,-63.027 v 331.281 c -58.249,20.241 -119.066,53.291 -145.067,68.087 V 93.871 c 0,-3.234 -1.826,-6.187 -4.719,-7.637 -1.468,-0.725 -36.437,-17.963 -80.614,-17.963 -77.107,0 -136.388,16.683 -138.88,17.399 -3.661,1.041 -6.187,4.395 -6.187,8.201 v 375.467 c 0,2.671 1.263,5.197 3.388,6.81 1.502,1.135 3.311,1.724 5.146,1.724 0.785,0 1.57,-0.111 2.338,-0.333 0.589,-0.162 59.597,-16.734 134.195,-16.734 31.198,0 57.856,9.711 68.267,14.071 v 20.062 h -204.8 c -14.114,0 -25.6,-11.486 -25.6,-25.6 v -332.8 c 0,-4.71 -3.823,-8.533 -8.533,-8.533 -4.71,0 -8.533,3.823 -8.533,8.533 v 332.8 c 0,23.526 19.14,42.667 42.667,42.667 h 426.667 c 23.526,0 42.667,-19.14 42.667,-42.667 v -332.8 c -0.001,-4.711 -3.815,-8.534 -8.534,-8.534 z"
   inkscape:connector-curvature="0"
   style="stroke-width:1.67048407;fill:#99b2c5;fill-opacity:1" />
			<path
   id="path1006"
   d="m 291.057,191.611 c 1.51,2.953 4.514,4.659 7.62,4.659 1.297,0 2.628,-0.299 3.866,-0.93 0.503,-0.256 50.731,-25.771 75.503,-33.596 4.489,-1.425 6.98,-6.221 5.555,-10.709 -1.417,-4.489 -6.178,-6.989 -10.709,-5.572 -26.095,8.252 -75.981,33.596 -78.097,34.671 -4.199,2.133 -5.871,7.271 -3.738,11.477 z"
   inkscape:connector-curvature="0"
   style="stroke-width:1.67048407;fill:#99b2c5;fill-opacity:1" />
			<path
   id="path1008"
   d="m 291.057,294.011 c 1.51,2.953 4.514,4.659 7.62,4.659 1.297,0 2.628,-0.299 3.866,-0.93 0.503,-0.256 50.731,-25.771 75.503,-33.596 4.489,-1.425 6.98,-6.221 5.555,-10.709 -1.417,-4.489 -6.178,-6.989 -10.709,-5.572 -26.095,8.252 -75.981,33.596 -78.097,34.671 -4.199,2.133 -5.871,7.271 -3.738,11.477 z"
   inkscape:connector-curvature="0"
   style="stroke-width:1.67048407;fill:#99b2c5;fill-opacity:1" />
			<path
   id="path1010"
   d="m 206.748,158.366 c -52.693,-12.365 -112.572,3.388 -115.089,4.062 -4.548,1.22 -7.253,5.896 -6.033,10.453 1.024,3.814 4.471,6.323 8.235,6.323 0.734,0 1.476,-0.094 2.219,-0.29 0.572,-0.162 58.223,-15.326 106.778,-3.934 4.565,1.067 9.182,-1.775 10.257,-6.366 1.074,-4.582 -1.776,-9.173 -6.367,-10.248 z"
   inkscape:connector-curvature="0"
   style="stroke-width:1.67048407;fill:#99b2c5;fill-opacity:1" />
			<path
   id="path1012"
   d="m 206.748,209.566 c -52.693,-12.356 -112.572,3.388 -115.089,4.062 -4.548,1.22 -7.253,5.897 -6.033,10.453 1.024,3.814 4.471,6.323 8.235,6.323 0.734,0 1.476,-0.094 2.219,-0.29 0.572,-0.162 58.223,-15.326 106.778,-3.934 4.565,1.067 9.182,-1.775 10.257,-6.366 1.074,-4.582 -1.776,-9.173 -6.367,-10.248 z"
   inkscape:connector-curvature="0"
   style="stroke-width:1.67048407;fill:#99b2c5;fill-opacity:1" />
			<path
   id="path1014"
   d="m 291.057,345.211 c 1.51,2.953 4.514,4.659 7.62,4.659 1.297,0 2.628,-0.299 3.866,-0.93 0.503,-0.256 50.731,-25.771 75.503,-33.596 4.489,-1.425 6.98,-6.221 5.555,-10.709 -1.417,-4.488 -6.178,-6.989 -10.709,-5.572 -26.095,8.252 -75.981,33.596 -78.097,34.671 -4.199,2.133 -5.871,7.271 -3.738,11.477 z"
   inkscape:connector-curvature="0"
   style="stroke-width:1.67048407;fill:#99b2c5;fill-opacity:1" />
			<path
   id="path1016"
   d="m 206.748,260.766 c -52.693,-12.356 -112.572,3.379 -115.089,4.062 -4.548,1.22 -7.253,5.897 -6.033,10.453 1.024,3.814 4.471,6.332 8.235,6.332 0.734,0 1.476,-0.102 2.219,-0.299 0.572,-0.162 58.223,-15.326 106.778,-3.934 4.565,1.067 9.182,-1.775 10.257,-6.366 1.074,-4.582 -1.776,-9.173 -6.367,-10.248 z"
   inkscape:connector-curvature="0"
   style="stroke-width:1.67048407;fill:#99b2c5;fill-opacity:1" />
			<path
   id="path1018"
   d="m 206.748,363.166 c -52.693,-12.365 -112.572,3.388 -115.089,4.062 -4.548,1.22 -7.253,5.897 -6.033,10.453 1.024,3.814 4.471,6.332 8.235,6.332 0.734,0 1.476,-0.102 2.219,-0.299 0.572,-0.162 58.223,-15.326 106.778,-3.934 4.565,1.058 9.182,-1.775 10.257,-6.366 1.074,-4.582 -1.776,-9.173 -6.367,-10.248 z"
   inkscape:connector-curvature="0"
   style="stroke-width:1.67048407;fill:#99b2c5;fill-opacity:1" />
			<path
   id="path1020"
   d="m 206.748,311.966 c -52.693,-12.365 -112.572,3.379 -115.089,4.062 -4.548,1.22 -7.253,5.897 -6.033,10.453 1.024,3.814 4.471,6.332 8.235,6.332 0.734,0 1.476,-0.102 2.219,-0.299 0.572,-0.162 58.223,-15.326 106.778,-3.934 4.565,1.067 9.182,-1.775 10.257,-6.366 1.074,-4.582 -1.776,-9.173 -6.367,-10.248 z"
   inkscape:connector-curvature="0"
   style="stroke-width:1.67048407;fill:#99b2c5;fill-opacity:1" />
		</g>
	</g>
</g><g
       id="g1028"
       style="stroke-width:1.67048407;fill:#99b2c5;fill-opacity:1">
</g><g
       id="g1030"
       style="stroke-width:1.67048407;fill:#99b2c5;fill-opacity:1">
</g><g
       id="g1032"
       style="stroke-width:1.67048407;fill:#99b2c5;fill-opacity:1">
</g><g
       id="g1034"
       style="stroke-width:1.67048407;fill:#99b2c5;fill-opacity:1">
</g><g
       id="g1036"
       style="stroke-width:1.67048407;fill:#99b2c5;fill-opacity:1">
</g><g
       id="g1038"
       style="stroke-width:1.67048407;fill:#99b2c5;fill-opacity:1">
</g><g
       id="g1040"
       style="stroke-width:1.67048407;fill:#99b2c5;fill-opacity:1">
</g><g
       id="g1042"
       style="stroke-width:1.67048407;fill:#99b2c5;fill-opacity:1">
</g><g
       id="g1044"
       style="stroke-width:1.67048407;fill:#99b2c5;fill-opacity:1">
</g><g
       id="g1046"
       style="stroke-width:1.67048407;fill:#99b2c5;fill-opacity:1">
</g><g
       id="g1048"
       style="stroke-width:1.67048407;fill:#99b2c5;fill-opacity:1">
</g><g
       id="g1050"
       style="stroke-width:1.67048407;fill:#99b2c5;fill-opacity:1">
</g><g
       id="g1052"
       style="stroke-width:1.67048407;fill:#99b2c5;fill-opacity:1">
</g><g
       id="g1054"
       style="stroke-width:1.67048407;fill:#99b2c5;fill-opacity:1">
</g><g
       id="g1056"
       style="stroke-width:1.67048407;fill:#99b2c5;fill-opacity:1">
</g></g></svg>