<svg width="67" height="67" viewBox="0 0 67 67" fill="none" xmlns="http://www.w3.org/2000/svg">
<path d="M33.5 67C52.0015 67 67 52.0015 67 33.5C67 14.9985 52.0015 0 33.5 0C14.9985 0 0 14.9985 0 33.5C0 52.0015 14.9985 67 33.5 67Z" fill="white"/>
<path d="M66.5 33.5C66.5 51.7254 51.7254 66.5 33.5 66.5C15.2746 66.5 0.5 51.7254 0.5 33.5C0.5 15.2746 15.2746 0.5 33.5 0.5C51.7254 0.5 66.5 15.2746 66.5 33.5Z" stroke="#60D39D" stroke-opacity="0.5"/>
<path d="M50.7324 23.3652L38.5695 11.2662C38.3955 11.0932 38.168 11 37.9272 11H20.7733C18.686 11 17 12.6904 17 14.7535V53.2465C17 55.3229 18.6993 57 20.7733 57H47.2267C49.314 57 51 55.3096 51 53.2465V24.0041C51 23.7645 50.9063 23.5382 50.7324 23.3652ZM38.8371 14.1013L47.8823 23.099H40.7773C39.7068 23.099 38.8237 22.2338 38.8237 21.1557L38.8371 14.1013ZM49.1802 53.2465C49.1802 54.3113 48.3105 55.1898 47.2267 55.1898H20.7733C19.7029 55.1898 18.8198 54.3247 18.8198 53.2465V14.7535C18.8198 13.6887 19.6895 12.8102 20.7733 12.8102H37.0039V21.1557C37.0039 23.2321 38.7033 24.9091 40.7773 24.9091H49.1802V53.2465Z" fill="#2BC47C"/>
<path d="M41.6335 39.1245H26.3797C25.8579 39.1245 25.4297 39.5504 25.4297 40.0695C25.4297 40.5886 25.8579 41.0146 26.3797 41.0146H41.6335C42.1554 41.0146 42.5836 40.5886 42.5836 40.0695C42.5836 39.5504 42.1554 39.1245 41.6335 39.1245Z" fill="#2BC47C"/>
<path d="M41.6335 43.3704H26.3797C25.8579 43.3704 25.4297 43.7963 25.4297 44.3154C25.4297 44.8345 25.8579 45.2604 26.3797 45.2604H41.6335C42.1554 45.2604 42.5836 44.8345 42.5836 44.3154C42.5836 43.7963 42.1554 43.3704 41.6335 43.3704Z" fill="#2BC47C"/>
<path d="M36.6691 47.603H26.366C25.8442 47.603 25.416 48.029 25.416 48.548C25.416 49.0671 25.8442 49.4931 26.366 49.4931H36.6691C37.1909 49.4931 37.6191 49.0671 37.6191 48.548C37.6191 48.029 37.2043 47.603 36.6691 47.603Z" fill="#2BC47C"/>
<path d="M31.6519 36.0098H30.8758C30.2469 36.0098 29.7385 35.504 29.7385 34.8784V34.6122C29.4709 34.5324 29.2166 34.4259 28.9624 34.2928L28.7751 34.4791C28.3201 34.9317 27.611 34.9184 27.1694 34.4791L26.6208 33.9334C26.1792 33.4942 26.1659 32.7887 26.6208 32.3362L26.8081 32.1498C26.6743 31.8969 26.5673 31.6441 26.487 31.3779H26.2194C25.5905 31.3779 25.082 30.8721 25.082 30.2465V29.4745C25.082 28.8489 25.5905 28.3431 26.2194 28.3431H26.487C26.5673 28.0769 26.6743 27.824 26.8081 27.5711L26.6208 27.3848C26.1659 26.9322 26.1792 26.2268 26.6208 25.7876L27.1694 25.2419C27.611 24.8026 28.3201 24.7893 28.7751 25.2419L28.9624 25.4282C29.2166 25.2951 29.4709 25.1886 29.7385 25.1088V24.8425C29.7385 24.217 30.2469 23.7112 30.8758 23.7112H31.6519C32.2808 23.7112 32.7892 24.217 32.7892 24.8425V25.1088C33.0568 25.1886 33.3111 25.2951 33.5653 25.4282L33.7526 25.2419C34.2076 24.7893 34.9167 24.8026 35.3583 25.2419L35.9069 25.7876C36.3485 26.2268 36.3618 26.9322 35.9069 27.3848L35.7196 27.5711C35.8534 27.824 35.9604 28.0769 36.0407 28.3431H36.3083C36.9372 28.3431 37.4457 28.8489 37.4457 29.4745V30.2465C37.4457 30.8721 36.9372 31.3779 36.3083 31.3779H36.0407C35.9604 31.6441 35.8534 31.8969 35.7196 32.1498L35.9069 32.3362C36.3618 32.7887 36.3485 33.4942 35.9069 33.9334L35.3583 34.4791C34.9167 34.9184 34.2076 34.9317 33.7526 34.4791L33.5653 34.2928C33.3111 34.4259 33.0568 34.5324 32.7892 34.6122V34.8784C32.7892 35.504 32.2808 36.0098 31.6519 36.0098ZM29.0828 33.5474C29.4307 33.7471 29.8054 33.9068 30.18 34C30.3406 34.0399 30.4476 34.1863 30.4476 34.346V34.8784C30.4476 35.1047 30.635 35.291 30.8624 35.291H31.6385C31.866 35.291 32.0533 35.1047 32.0533 34.8784V34.346C32.0533 34.1863 32.1603 34.0399 32.3209 34C32.709 33.9068 33.0836 33.7471 33.4181 33.5474C33.5653 33.4675 33.7393 33.4809 33.8597 33.6007L34.2343 33.9733C34.3949 34.1331 34.6625 34.1331 34.8231 33.9733L35.3717 33.4276C35.5322 33.2679 35.5322 33.015 35.3717 32.842L34.997 32.4693C34.8766 32.3495 34.8632 32.1765 34.9435 32.0301C35.1442 31.684 35.3048 31.3113 35.3984 30.9386C35.4386 30.7789 35.5858 30.6724 35.7463 30.6724H36.2816C36.509 30.6724 36.6964 30.4861 36.6964 30.2598V29.4878C36.6964 29.2615 36.509 29.0752 36.2816 29.0752H35.7463C35.5858 29.0752 35.4386 28.9687 35.3984 28.809C35.3048 28.423 35.1442 28.0503 34.9435 27.7175C34.8632 27.5711 34.8766 27.3981 34.997 27.2783L35.3717 26.9056C35.5322 26.7459 35.5322 26.4797 35.3717 26.32L34.8231 25.7743C34.6625 25.6145 34.4083 25.6145 34.2343 25.7743L33.8597 26.1469C33.7393 26.2667 33.5653 26.28 33.4181 26.2002C33.0702 26.0005 32.6956 25.8408 32.3209 25.7476C32.1603 25.7077 32.0533 25.5613 32.0533 25.4016V24.8692C32.0533 24.6429 31.866 24.4566 31.6385 24.4566H30.8624C30.635 24.4566 30.4476 24.6429 30.4476 24.8692V25.4016C30.4476 25.5613 30.3406 25.7077 30.18 25.7476C29.792 25.8408 29.4173 26.0005 29.0828 26.2002C28.9356 26.28 28.7617 26.2667 28.6413 26.1469L28.2666 25.7743C28.106 25.6145 27.8384 25.6145 27.6779 25.7743L27.1293 26.32C26.9687 26.4797 26.9687 26.7326 27.1293 26.9056L27.5039 27.2783C27.6243 27.3981 27.6377 27.5711 27.5574 27.7175C27.3567 28.0636 27.1962 28.4363 27.1025 28.809C27.0624 28.9687 26.9152 29.0752 26.7546 29.0752H26.2194C25.9919 29.0752 25.8046 29.2615 25.8046 29.4878V30.2598C25.8046 30.4861 25.9919 30.6724 26.2194 30.6724H26.7546C26.9152 30.6724 27.0624 30.7789 27.1025 30.9386C27.1962 31.3246 27.3567 31.6973 27.5574 32.0301C27.6377 32.1765 27.6243 32.3495 27.5039 32.4693L27.1293 32.842C26.9687 33.0017 26.9687 33.2679 27.1293 33.4276L27.6779 33.9733C27.8384 34.1331 28.0927 34.1331 28.2666 33.9733L28.6413 33.6007C28.7349 33.5208 28.9089 33.4409 29.0828 33.5474Z" fill="#2BC47C" stroke="#2BC47C" stroke-width="0.5"/>
<path d="M31.2637 32.5492C29.7785 32.5492 28.5742 31.3513 28.5742 29.8738C28.5742 28.3964 29.7785 27.1985 31.2637 27.1985C32.749 27.1985 33.9532 28.3964 33.9532 29.8738C33.9398 31.3513 32.7356 32.5492 31.2637 32.5492ZM31.2637 27.9305C30.1799 27.9305 29.2968 28.809 29.2968 29.8871C29.2968 30.9653 30.1799 31.8437 31.2637 31.8437C32.3475 31.8437 33.2307 30.9653 33.2307 29.8871C33.2173 28.809 32.3475 27.9305 31.2637 27.9305Z" fill="#2BC47C" stroke="#2BC47C" stroke-width="0.5"/>
</svg>
