<svg width="67" height="67" viewBox="0 0 67 67" fill="none" xmlns="http://www.w3.org/2000/svg">
<path d="M33.5 67C52.0015 67 67 52.0015 67 33.5C67 14.9985 52.0015 0 33.5 0C14.9985 0 0 14.9985 0 33.5C0 52.0015 14.9985 67 33.5 67Z" fill="white"/>
<path d="M66.5 33.5C66.5 51.7254 51.7254 66.5 33.5 66.5C15.2746 66.5 0.5 51.7254 0.5 33.5C0.5 15.2746 15.2746 0.5 33.5 0.5C51.7254 0.5 66.5 15.2746 66.5 33.5Z" stroke="#60D39D" stroke-opacity="0.5"/>
<g clip-path="url(#clip0)">
<path d="M19.5629 45.2535C18.9609 45.2535 18.3822 45.4038 17.8687 45.6859C15.1642 42.219 13.6797 37.9121 13.6797 33.5C13.6797 22.5709 22.5709 13.6797 33.5 13.6797C34.8287 13.6797 36.1567 13.8119 37.4473 14.0727C37.9013 14.1646 38.3448 13.8706 38.4367 13.4159C38.5286 12.9612 38.2346 12.5183 37.7799 12.4262C36.3801 12.1434 34.9402 12 33.5 12C27.7572 12 22.358 14.2364 18.2972 18.2972C14.2364 22.358 12 27.7572 12 33.5C12 38.3307 13.6403 43.045 16.6267 46.8243C16.2422 47.3988 16.0355 48.0739 16.0355 48.7809C16.0355 49.7231 16.4026 50.6089 17.0689 51.2748C17.7349 51.9411 18.6207 52.3082 19.5629 52.3082C20.5051 52.3082 21.3908 51.9411 22.0571 51.2748C22.7234 50.6089 23.0902 49.7228 23.0902 48.7806C23.0902 47.8387 22.7234 46.9526 22.0571 46.2866C21.3908 45.6203 20.5051 45.2535 19.5629 45.2535V45.2535ZM20.8692 50.0872C20.5205 50.4363 20.0563 50.6285 19.5629 50.6285C19.0695 50.6285 18.6056 50.4363 18.2565 50.0872C17.9074 49.7382 17.7152 49.2743 17.7152 48.7809C17.7152 48.2872 17.9074 47.8233 18.2565 47.4742C18.6052 47.1251 19.0695 46.9332 19.5629 46.9332C20.0563 46.9332 20.5201 47.1255 20.8692 47.4742C21.2183 47.8233 21.4105 48.2872 21.4105 48.7809C21.4105 49.2743 21.2183 49.7382 20.8692 50.0872V50.0872Z" fill="#2BC47C"/>
<path d="M50.373 20.1746C51.286 18.8049 51.1394 16.9323 49.9318 15.7247C49.2655 15.0588 48.3797 14.6917 47.4375 14.6917C46.4953 14.6917 45.6095 15.0588 44.9432 15.7247C44.2769 16.391 43.9102 17.2768 43.9102 18.219C43.9102 19.1612 44.2769 20.047 44.9432 20.7133C45.6095 21.3796 46.4953 21.7463 47.4375 21.7463C48.0395 21.7463 48.6182 21.5961 49.1316 21.3139C51.8362 24.7813 53.3207 29.0877 53.3207 33.4999C53.3207 44.429 44.4295 53.3202 33.5004 53.3202C32.1848 53.3202 30.8693 53.1906 29.5908 52.9347C29.1361 52.8438 28.6936 53.1388 28.6024 53.5935C28.5115 54.0485 28.8064 54.4907 29.2611 54.5819C30.6479 54.8591 32.0743 54.9999 33.5004 54.9999C39.2431 54.9999 44.6424 52.7635 48.7032 48.7027C52.764 44.6419 55.0004 39.2426 55.0004 33.4999C55.0004 28.6688 53.3597 23.9542 50.373 20.1746V20.1746ZM46.1312 19.5257C45.7821 19.1766 45.5899 18.7127 45.5899 18.219C45.5899 17.7256 45.7821 17.2617 46.1312 16.9126C46.4799 16.5636 46.9441 16.3713 47.4375 16.3713C47.9309 16.3713 48.3951 16.5636 48.7442 16.9126C49.4643 17.6331 49.4643 18.8052 48.7442 19.5257C48.3951 19.8744 47.9309 20.0666 47.4375 20.0666C46.9438 20.0666 46.4799 19.8744 46.1312 19.5257Z" fill="#2BC47C"/>
<path d="M41.2334 15.1763C41.4545 15.1763 41.671 15.0864 41.8272 14.9302C41.9834 14.7731 42.0732 14.5566 42.0732 14.3354C42.0732 14.1156 41.9837 13.8988 41.8272 13.7417C41.671 13.5855 41.4545 13.4956 41.2334 13.4956C41.0116 13.4956 40.7961 13.5855 40.6399 13.7417C40.4834 13.8988 40.3936 14.1147 40.3936 14.3354C40.3936 14.5572 40.4834 14.7731 40.6399 14.9302C40.7961 15.0864 41.0116 15.1763 41.2334 15.1763Z" fill="#2BC47C"/>
<path d="M25.8037 51.8389C25.5829 51.8389 25.3661 51.9288 25.2099 52.0849C25.0538 52.2411 24.9639 52.4579 24.9639 52.6787C24.9639 52.9005 25.0538 53.1163 25.2099 53.2725C25.3661 53.4287 25.5829 53.5186 25.8037 53.5186C26.0245 53.5186 26.2413 53.4287 26.3975 53.2725C26.5537 53.1163 26.6436 52.8995 26.6436 52.6787C26.6436 52.4579 26.5537 52.2411 26.3975 52.0849C26.2413 51.9288 26.0245 51.8389 25.8037 51.8389Z" fill="#2BC47C"/>
<rect x="25.75" y="21.75" width="15.5" height="24.5" rx="2.25" fill="white" stroke="#2BC47C" stroke-width="1.5"/>
<rect x="29" y="30" width="4" height="4" rx="1" fill="#2BC47C"/>
<rect x="34" y="30" width="4" height="4" rx="1" fill="#2BC47C"/>
<rect x="29" y="25" width="4" height="4" rx="1" fill="#2BC47C"/>
<rect x="34" y="25" width="4" height="4" rx="1" fill="#2BC47C"/>
<rect x="29" y="35" width="4" height="4" rx="1" fill="#2BC47C"/>
<rect x="31" y="41" width="5" height="5" rx="1" fill="#2BC47C"/>
<rect x="34" y="35" width="4" height="4" rx="1" fill="#2BC47C"/>
</g>
<defs>
<clipPath id="clip0">
<rect x="12" y="12" width="43" height="43" fill="white"/>
</clipPath>
</defs>
</svg>
