<svg width="63" height="63" viewBox="0 0 63 63" fill="none" xmlns="http://www.w3.org/2000/svg">
<path d="M31.5 63C48.897 63 63 48.897 63 31.5C63 14.103 48.897 0 31.5 0C14.103 0 0 14.103 0 31.5C0 48.897 14.103 63 31.5 63Z" fill="white"/>
<path d="M62.5 31.5C62.5 48.6208 48.6208 62.5 31.5 62.5C14.3792 62.5 0.5 48.6208 0.5 31.5C0.5 14.3792 14.3792 0.5 31.5 0.5C48.6208 0.5 62.5 14.3792 62.5 31.5Z" stroke="#999BC5" stroke-opacity="0.5"/>
<path d="M49.1499 17.4515C43.2404 15.829 37.2913 13.3096 31.9621 10.1569C31.6851 9.98545 31.329 9.98545 31.0388 10.1569C25.5513 13.4019 19.932 15.7763 13.851 17.4515C13.4552 17.5571 13.1914 17.9132 13.1914 18.3221V27.5558C13.1914 37.0533 17.5708 43.3454 21.2511 46.9597C25.2084 50.8378 29.8252 52.988 31.5005 52.988C33.1757 52.988 37.7925 50.8378 41.7498 46.9597C45.4301 43.3586 49.8095 37.0665 49.8095 27.5558V18.3221C49.8095 17.9132 49.5325 17.5571 49.1499 17.4515ZM48.0023 27.5558C48.0023 36.4333 43.9131 42.3033 40.4835 45.667C36.5922 49.4792 32.4238 51.1808 31.5005 51.1808C30.5771 51.1808 26.4087 49.4923 22.5174 45.667C19.0878 42.3033 14.9986 36.4333 14.9986 27.5558V19.0081C20.8026 17.3592 26.2241 15.0508 31.5005 11.9905C36.6449 14.9848 42.3302 17.3988 48.0023 19.0081V27.5558Z" fill="#999BC5"/>
<path d="M25.3406 29.6663C24.7865 29.1123 24.0478 28.8089 23.2696 28.8089C22.4913 28.8089 21.7526 29.1123 21.1986 29.6663C20.051 30.8139 20.051 32.6739 21.1986 33.8215L26.5277 39.1506C27.0818 39.7046 27.8205 40.008 28.5987 40.008C29.377 40.008 30.1157 39.7046 30.6697 39.1506L41.8029 28.0174C42.9505 26.8698 42.9505 25.0099 41.8029 23.8623C41.2489 23.3083 40.5102 23.0049 39.7319 23.0049C38.9536 23.0049 38.2149 23.3083 37.6609 23.8623L28.5987 32.9245L25.3406 29.6663ZM38.9404 25.1418C39.1515 24.9308 39.4417 24.812 39.7451 24.812C40.0485 24.812 40.3255 24.9308 40.5497 25.1418C40.985 25.5771 40.985 26.3026 40.5497 26.7379L29.4166 37.8711C29.2055 38.0821 28.9153 38.2009 28.6119 38.2009C28.3085 38.2009 28.0315 38.0821 27.8073 37.8711L22.4781 32.5419C22.0428 32.1066 22.0428 31.3811 22.4781 30.9458C22.6892 30.7348 22.9794 30.6161 23.2828 30.6161C23.5862 30.6161 23.8632 30.7348 24.0874 30.9458L27.9788 34.8372C28.1502 35.0087 28.3745 35.101 28.6119 35.101C28.8494 35.101 29.0868 35.0087 29.2451 34.8372L38.9404 25.1418Z" fill="#999BC5"/>
</svg>
