<svg width="67" height="67" viewBox="0 0 67 67" fill="none" xmlns="http://www.w3.org/2000/svg">
<path d="M33.5 67C52.0015 67 67 52.0015 67 33.5C67 14.9985 52.0015 0 33.5 0C14.9985 0 0 14.9985 0 33.5C0 52.0015 14.9985 67 33.5 67Z" fill="white"/>
<path d="M66.5 33.5C66.5 51.7254 51.7254 66.5 33.5 66.5C15.2746 66.5 0.5 51.7254 0.5 33.5C0.5 15.2746 15.2746 0.5 33.5 0.5C51.7254 0.5 66.5 15.2746 66.5 33.5Z" stroke="#60D39D" stroke-opacity="0.5"/>
<rect x="38.3758" y="23.1978" width="5.10834" height="24.0522" rx="1.25" stroke="#2BC47C" stroke-width="1.5"/>
<rect x="46.3058" y="19.2328" width="5.10834" height="28.0172" rx="1.25" stroke="#2BC47C" stroke-width="1.5"/>
<rect x="30.4458" y="27.6033" width="5.10834" height="19.6467" rx="1.25" stroke="#2BC47C" stroke-width="1.5"/>
<rect x="22.5159" y="32.4494" width="5.10834" height="14.8006" rx="1.25" stroke="#2BC47C" stroke-width="1.5"/>
<rect x="14.5858" y="37.2955" width="5.10834" height="9.95445" rx="1.25" stroke="#2BC47C" stroke-width="1.5"/>
</svg>
