<svg width="63" height="66" viewBox="0 0 63 66" fill="none" xmlns="http://www.w3.org/2000/svg">
<path d="M31.5 65.1406C48.897 65.1406 63 50.5584 63 32.5703C63 14.5822 48.897 0 31.5 0C14.103 0 0 14.5822 0 32.5703C0 50.5584 14.103 65.1406 31.5 65.1406Z" fill="white"/>
<path d="M62.5 32.5703C62.5 50.2981 48.6052 64.6406 31.5 64.6406C14.3948 64.6406 0.5 50.2981 0.5 32.5703C0.5 14.8425 14.3948 0.5 31.5 0.5C48.6052 0.5 62.5 14.8425 62.5 32.5703Z" stroke="#999BC5" stroke-opacity="0.5"/>
<path d="M51.9317 26.3268C51.3345 19.7614 46.6763 15 40.846 15C37.3098 15 33.9558 16.7596 31.873 19.7078C31.7108 19.9377 31.5041 19.9729 31.3919 19.9729C31.275 19.9806 31.0721 19.94 30.91 19.7032C28.8571 16.7143 25.6661 15 22.1537 15C16.3234 15 11.6659 19.7614 11.068 26.3268C11.0211 26.6127 10.8274 28.137 11.4169 30.6299C12.2669 34.2226 14.2298 37.4881 17.0935 40.0746L31.3773 53L45.9062 40.0746C46.6409 39.4109 47.315 38.7005 47.9275 37.9533C47.939 37.9418 47.9452 37.928 47.9559 37.9157C49.7152 35.7599 50.9549 33.2846 51.5836 30.6299C52.173 28.137 51.9786 26.6127 51.9317 26.3268ZM31.3873 50.9377L18.1265 38.938C17.8528 38.6913 17.5946 38.4338 17.3394 38.174H19.7212C20.0233 38.174 20.2961 37.9985 20.4206 37.7249L23.5187 30.9288L27.4614 40.7582C27.5721 41.0325 27.8303 41.2195 28.1262 41.2379C28.1424 41.2387 28.1593 41.2394 28.1747 41.2394C28.4521 41.2394 28.7103 41.0892 28.8464 40.8455L32.0405 35.1124L33.6622 37.8291C33.8251 38.1004 34.1402 38.2468 34.4484 38.1931C34.7605 38.1418 35.0087 37.9042 35.0741 37.5946L37.289 27.0832L38.943 37.5272C39.0014 37.8996 39.3234 38.174 39.7016 38.174H45.6602C45.4058 38.433 45.1484 38.689 44.8763 38.935L31.3873 50.9377ZM50.0864 30.2782C49.5415 32.5826 48.4832 34.7376 46.9998 36.6413H40.361L38.1575 22.7272C38.0999 22.3617 37.7894 22.0896 37.4182 22.0804C37.0224 22.0536 36.7234 22.3272 36.6465 22.6889L33.9765 35.3568L32.6792 33.1834C32.5378 32.9482 32.3095 32.8194 32.0075 32.8095C31.7323 32.8133 31.4802 32.9643 31.3473 33.2034L28.2892 38.692L24.278 28.6933C24.1635 28.4082 23.8899 28.219 23.5825 28.2121C23.2866 28.1898 22.9915 28.3814 22.8647 28.6611L19.227 36.6413H16.0021C14.5181 34.7369 13.4597 32.5818 12.9148 30.2766C12.3545 27.9139 12.5843 26.5774 12.5859 26.569L12.5974 26.4916C13.1116 20.7201 17.1312 16.532 22.1545 16.532C25.1511 16.532 27.8803 18.0034 29.6418 20.5684C30.0469 21.1592 30.6802 21.5003 31.378 21.5049C32.0659 21.4926 32.7146 21.1761 33.1296 20.5906C34.9249 18.0501 37.8101 16.5327 40.846 16.5327C45.8693 16.5327 49.8896 20.7216 50.413 26.5659C50.4169 26.5789 50.6467 27.9147 50.0864 30.2782Z" fill="#999BC5" stroke="#999BC5" stroke-width="0.5"/>
</svg>
