<?xml version="1.0" encoding="UTF-8" standalone="no"?>
<!-- Generator: Adobe Illustrator 19.0.0, SVG Export Plug-In . SVG Version: 6.00 Build 0)  -->

<svg
   xmlns:dc="http://purl.org/dc/elements/1.1/"
   xmlns:cc="http://creativecommons.org/ns#"
   xmlns:rdf="http://www.w3.org/1999/02/22-rdf-syntax-ns#"
   xmlns:svg="http://www.w3.org/2000/svg"
   xmlns="http://www.w3.org/2000/svg"
   xmlns:sodipodi="http://sodipodi.sourceforge.net/DTD/sodipodi-0.dtd"
   xmlns:inkscape="http://www.inkscape.org/namespaces/inkscape"
   version="1.1"
   id="Capa_1"
   x="0px"
   y="0px"
   viewBox="0 0 489.888 489.888"
   style="enable-background:new 0 0 489.888 489.888;"
   xml:space="preserve"
   sodipodi:docname="user-guide.svg"
   inkscape:version="0.92.3 (2405546, 2018-03-11)"><metadata
     id="metadata13"><rdf:RDF><cc:Work
         rdf:about=""><dc:format>image/svg+xml</dc:format><dc:type
           rdf:resource="http://purl.org/dc/dcmitype/StillImage" /><dc:title></dc:title></cc:Work></rdf:RDF></metadata><defs
     id="defs11"><inkscape:perspective
       sodipodi:type="inkscape:persp3d"
       inkscape:vp_x="-34.334861 : 39.692556 : 1"
       inkscape:vp_y="264.4622 : 1245.0008 : 0"
       inkscape:vp_z="78.504168 : 8.1684623 : 1"
       inkscape:persp3d-origin="20.323684 : 15.640445 : 1"
       id="perspective106" /><clipPath
       clipPathUnits="userSpaceOnUse"
       id="clipPath22"><path
         d="M 0,595.276 H 841.89 V 0 H 0 Z"
         id="path20"
         inkscape:connector-curvature="0" /></clipPath><clipPath
       id="clipPath22-92"
       clipPathUnits="userSpaceOnUse"><path
         inkscape:connector-curvature="0"
         id="path20-2"
         d="M 0,595.276 H 841.89 V 0 H 0 Z" /></clipPath><clipPath
       id="clipPath22-5"
       clipPathUnits="userSpaceOnUse"><path
         inkscape:connector-curvature="0"
         id="path20-6"
         d="M 0,595.276 H 841.89 V 0 H 0 Z" /></clipPath><clipPath
       id="clipPath22-9"
       clipPathUnits="userSpaceOnUse"><path
         inkscape:connector-curvature="0"
         id="path20-1"
         d="M 0,595.276 H 841.89 V 0 H 0 Z" /></clipPath><clipPath
       id="clipPath22-9-6"
       clipPathUnits="userSpaceOnUse"><path
         inkscape:connector-curvature="0"
         id="path20-1-1"
         d="M 0,595.276 H 841.89 V 0 H 0 Z" /></clipPath></defs><sodipodi:namedview
     pagecolor="#ffffff"
     bordercolor="#666666"
     borderopacity="1"
     objecttolerance="10"
     gridtolerance="10"
     guidetolerance="10"
     inkscape:pageopacity="0"
     inkscape:pageshadow="2"
     inkscape:window-width="1666"
     inkscape:window-height="899"
     id="namedview9"
     showgrid="false"
     inkscape:zoom="0.48174277"
     inkscape:cx="89.902201"
     inkscape:cy="286.45993"
     inkscape:window-x="0"
     inkscape:window-y="27"
     inkscape:window-maximized="0"
     inkscape:current-layer="Capa_1" /><circle
     r="238.82201"
     cy="244.66435"
     cx="248.81595"
     id="path184"
     style="opacity:1;fill:#eff4f7;fill-opacity:1;fill-rule:nonzero;stroke:none;stroke-width:1.0583334;stroke-linecap:round;stroke-linejoin:bevel;stroke-miterlimit:4;stroke-dasharray:none;stroke-opacity:1;paint-order:fill markers stroke" /><g
     id="g932"
     transform="matrix(0.61070513,0,0,0.61070513,90.679858,82.355348)"
     style="stroke-width:1.63745141;fill:#99b2c5;fill-opacity:1"><g
       id="g884"
       style="stroke-width:1.63745141;fill:#99b2c5;fill-opacity:1">
	<g
   id="g882"
   style="stroke-width:1.63745141;fill:#99b2c5;fill-opacity:1">
		<path
   id="path880"
   d="m 447.933,103.629 c -0.034,-3.076 -1.224,-6.09 -3.485,-8.352 L 352.683,3.511 C 352.679,3.507 352.676,3.506 352.672,3.503 350.505,1.338 347.511,0 344.206,0 H 89.278 C 75.361,0 64.04,11.32 64.04,25.237 v 461.525 c 0,13.916 11.32,25.237 25.237,25.237 h 333.444 c 13.916,0 25.237,-11.32 25.237,-25.237 V 103.753 c 0.002,-0.044 -0.021,-0.081 -0.025,-0.124 z m -91.739,-62.698 50.834,50.834 h -49.572 c -0.695,0 -1.262,-0.567 -1.262,-1.262 z m 67.789,445.832 c 0,0.695 -0.566,1.261 -1.261,1.261 H 89.278 c -0.695,0 -1.261,-0.566 -1.261,-1.261 V 25.237 c 0,-0.695 0.566,-1.261 1.261,-1.261 h 242.94 v 66.527 c 0,13.916 11.322,25.239 25.239,25.239 h 66.527 v 371.021 z"
   inkscape:connector-curvature="0"
   style="stroke-width:1.63745141;fill:#99b2c5;fill-opacity:1" />
	</g>
</g><g
       id="g890"
       style="stroke-width:1.63745141;fill:#99b2c5;fill-opacity:1">
	<g
   id="g888"
   style="stroke-width:1.63745141;fill:#99b2c5;fill-opacity:1">
		<path
   id="path886"
   d="M 362.088,164.014 H 149.912 c -6.62,0 -11.988,5.367 -11.988,11.988 0,6.62 5.368,11.988 11.988,11.988 h 212.175 c 6.62,0 11.988,-5.368 11.988,-11.988 0.001,-6.621 -5.368,-11.988 -11.987,-11.988 z"
   inkscape:connector-curvature="0"
   style="stroke-width:1.63745141;fill:#99b2c5;fill-opacity:1" />
	</g>
</g><g
       id="g896"
       style="stroke-width:1.63745141;fill:#99b2c5;fill-opacity:1">
	<g
   id="g894"
   style="stroke-width:1.63745141;fill:#99b2c5;fill-opacity:1">
		<path
   id="path892"
   d="M 362.088,236.353 H 149.912 c -6.62,0 -11.988,5.368 -11.988,11.988 0,6.62 5.368,11.988 11.988,11.988 h 212.175 c 6.62,0 11.988,-5.368 11.988,-11.988 0.001,-6.62 -5.368,-11.988 -11.987,-11.988 z"
   inkscape:connector-curvature="0"
   style="stroke-width:1.63745141;fill:#99b2c5;fill-opacity:1" />
	</g>
</g><g
       id="g902"
       style="stroke-width:1.63745141;fill:#99b2c5;fill-opacity:1">
	<g
   id="g900"
   style="stroke-width:1.63745141;fill:#99b2c5;fill-opacity:1">
		<path
   id="path898"
   d="M 362.088,308.691 H 149.912 c -6.62,0 -11.988,5.368 -11.988,11.988 0,6.621 5.368,11.988 11.988,11.988 h 212.175 c 6.62,0 11.988,-5.367 11.988,-11.988 0.001,-6.619 -5.368,-11.988 -11.987,-11.988 z"
   inkscape:connector-curvature="0"
   style="stroke-width:1.63745141;fill:#99b2c5;fill-opacity:1" />
	</g>
</g><g
       id="g908"
       style="stroke-width:1.63745141;fill:#99b2c5;fill-opacity:1">
	<g
   id="g906"
   style="stroke-width:1.63745141;fill:#99b2c5;fill-opacity:1">
		<path
   id="path904"
   d="M 256,381.031 H 149.912 c -6.62,0 -11.988,5.368 -11.988,11.988 0,6.621 5.368,11.988 11.988,11.988 H 256 c 6.62,0 11.988,-5.367 11.988,-11.988 0,-6.621 -5.368,-11.988 -11.988,-11.988 z"
   inkscape:connector-curvature="0"
   style="stroke-width:1.63745141;fill:#99b2c5;fill-opacity:1" />
	</g>
</g></g></svg>