<svg width="60" height="60" viewBox="0 0 60 60" fill="none" xmlns="http://www.w3.org/2000/svg">
<path d="M27.6542 40.3388C28.0963 39.8958 28.0963 39.1789 27.6542 38.736C27.2117 38.2944 26.4949 38.2944 26.0519 38.736C25.6103 39.1789 25.6103 39.8958 26.0519 40.3388C26.4949 40.7804 27.2117 40.7804 27.6542 40.3388Z" fill="url(#paint0_linear)" stroke="url(#paint1_linear)"/>
<path d="M22.291 13.4574C22.291 20.3264 27.8794 25.9153 34.7484 25.9153C41.6174 25.9153 47.2058 20.3264 47.2058 13.4574C47.2058 6.5884 41.6174 1 34.7484 1C27.8794 1 22.291 6.5884 22.291 13.4574ZM44.9411 13.4574C44.9411 19.0777 40.3687 23.6501 34.7484 23.6501C29.1282 23.6501 24.5558 19.0777 24.5558 13.4574C24.5558 7.8376 29.1282 3.26519 34.7484 3.26519C40.3687 3.26519 44.9411 7.8376 44.9411 13.4574Z" fill="url(#paint2_linear)" stroke="url(#paint3_linear)"/>
<path d="M14.0445 58.6652C14.4835 59.1077 15.1981 59.1125 15.6428 58.6745L21.1334 53.2653C22.0662 52.3325 22.3499 50.9514 21.9397 49.7509L23.1207 48.6119C23.7566 47.9977 24.5938 47.6592 25.4789 47.6592H40.5342C43.2052 47.6592 45.7297 46.6334 47.6435 44.7709C47.7223 44.6944 47.0457 45.4913 57.9145 32.5011C59.5266 30.5939 59.2854 27.73 57.3764 26.1162C55.4794 24.5175 52.6376 24.7471 51.0212 26.6216L44.3384 33.4901C43.4946 32.4516 42.2078 31.8042 40.8174 31.8042H28.1888C26.3917 31.0524 24.485 30.6718 22.5176 30.6718C17.0642 30.6718 12.3024 33.1906 9.7469 37.913C8.67028 37.709 7.53481 38.0347 6.71795 38.8515L1.33044 44.255C0.890591 44.6961 0.889706 45.4099 1.32867 45.8524L14.0445 58.6652ZM22.5172 32.9366C24.2518 32.9366 25.9289 33.2857 27.5029 33.9742C27.6462 34.0371 27.8007 34.0694 27.9569 34.0694H40.8174C42.0454 34.0694 43.0826 35.0708 43.0826 36.3341C43.0826 37.5833 42.0666 38.5993 40.8174 38.5993H31.5775C30.9522 38.5993 30.4451 39.1064 30.4451 39.7317C30.4451 40.3574 30.9522 40.864 31.5775 40.864H40.8174C43.3154 40.864 45.3474 38.8321 45.3474 36.3341C45.3474 36.135 45.3332 35.9376 45.3075 35.742C51.7721 29.0969 52.6837 28.1633 52.7226 28.1168C53.5297 27.1641 54.9626 27.0433 55.9157 27.8469C56.8698 28.6536 56.9906 30.0855 56.1812 31.0435L46.0235 43.1868C44.5402 44.6107 42.5928 45.3944 40.5342 45.3944H25.4789C24.0035 45.3944 22.607 45.9586 21.5476 46.9821L20.5852 47.9109L11.7129 39.0392C13.7865 35.1491 17.6775 32.9366 22.5172 32.9366ZM8.3207 40.4521C8.69418 40.0786 9.26766 40.0113 9.723 40.2928C9.91903 40.4122 9.35616 39.8998 19.532 50.0615C19.9847 50.5142 19.9604 51.2355 19.5382 51.6576L14.8574 56.269L3.72971 45.0563L8.3207 40.4521Z" fill="url(#paint4_linear)" stroke="url(#paint5_linear)"/>
<path d="M33.3895 6.66272V7.9898C32.0712 8.45708 31.1243 9.71601 31.1243 11.1927C31.1243 13.0658 32.6483 14.5902 34.5218 14.5902C35.1462 14.5902 35.6542 15.0982 35.6542 15.7226C35.6542 16.347 35.1462 16.855 34.5218 16.855C34.0382 16.855 33.5156 16.551 33.0514 15.9983C32.6487 15.5195 31.9345 15.458 31.4557 15.8602C30.9769 16.2629 30.915 16.9771 31.3176 17.4559C31.923 18.1758 32.635 18.6776 33.3895 18.9307V20.2525C33.3895 20.8782 33.8966 21.3849 34.5218 21.3849C35.1471 21.3849 35.6542 20.8782 35.6542 20.2525V18.9254C36.9724 18.4577 37.9194 17.1988 37.9194 15.7226C37.9194 13.849 36.3954 12.325 34.5218 12.325C33.8975 12.325 33.3895 11.817 33.3895 11.1927C33.3895 10.5683 33.8975 10.0598 34.5218 10.0598C34.9232 10.0598 35.3467 10.2647 35.7467 10.6519C36.1963 11.0869 36.9131 11.0749 37.3481 10.6258C37.7831 10.1762 37.7711 9.45936 37.322 9.02437C36.7472 8.46814 36.1719 8.15352 35.6542 7.98183V6.66272C35.6542 6.03702 35.1471 5.52991 34.5218 5.52991C33.8966 5.52991 33.3895 6.03702 33.3895 6.66272Z" fill="url(#paint6_linear)" stroke="url(#paint7_linear)"/>
<defs>
<linearGradient id="paint0_linear" x1="27.9858" y1="39.5374" x2="25.7207" y2="39.5374" gradientUnits="userSpaceOnUse">
<stop stop-color="#06EA84"/>
<stop offset="1" stop-color="#2BC47B"/>
</linearGradient>
<linearGradient id="paint1_linear" x1="27.9858" y1="39.5374" x2="25.7207" y2="39.5374" gradientUnits="userSpaceOnUse">
<stop stop-color="#06EA84"/>
<stop offset="1" stop-color="#2BC47B"/>
</linearGradient>
<linearGradient id="paint2_linear" x1="47.2058" y1="13.4576" x2="22.291" y2="13.4576" gradientUnits="userSpaceOnUse">
<stop stop-color="#06EA84"/>
<stop offset="1" stop-color="#2BC47B"/>
</linearGradient>
<linearGradient id="paint3_linear" x1="47.2058" y1="13.4576" x2="22.291" y2="13.4576" gradientUnits="userSpaceOnUse">
<stop stop-color="#06EA84"/>
<stop offset="1" stop-color="#2BC47B"/>
</linearGradient>
<linearGradient id="paint4_linear" x1="58.982" y1="42.026" x2="1" y2="42.026" gradientUnits="userSpaceOnUse">
<stop stop-color="#06EA84"/>
<stop offset="1" stop-color="#2BC47B"/>
</linearGradient>
<linearGradient id="paint5_linear" x1="58.982" y1="42.026" x2="1" y2="42.026" gradientUnits="userSpaceOnUse">
<stop stop-color="#06EA84"/>
<stop offset="1" stop-color="#2BC47B"/>
</linearGradient>
<linearGradient id="paint6_linear" x1="37.9194" y1="13.4574" x2="31.0519" y2="13.4574" gradientUnits="userSpaceOnUse">
<stop stop-color="#06EA84"/>
<stop offset="1" stop-color="#2BC47B"/>
</linearGradient>
<linearGradient id="paint7_linear" x1="37.9194" y1="13.4574" x2="31.0519" y2="13.4574" gradientUnits="userSpaceOnUse">
<stop stop-color="#06EA84"/>
<stop offset="1" stop-color="#2BC47B"/>
</linearGradient>
</defs>
</svg>
