<svg width="57" height="58" viewBox="0 0 57 58" fill="none" xmlns="http://www.w3.org/2000/svg">
<path d="M21.2677 23.4749H28.9226C31.2422 23.4749 31.2457 19.9636 28.9226 19.9636H21.2677C18.949 19.9636 18.9432 23.4749 21.2677 23.4749Z" fill="url(#paint0_linear)"/>
<path d="M33.8021 23.4749H35.1478C37.4674 23.4749 37.4709 19.9636 35.1478 19.9636H33.8021C31.4834 19.9636 31.4776 23.4749 33.8021 23.4749Z" fill="url(#paint1_linear)"/>
<path d="M28.9226 32.9476C31.24 32.9476 31.2378 29.4368 28.9226 29.4368C28.0022 29.4368 22.1536 29.4368 21.2677 29.4368C18.949 29.4368 18.9432 32.9476 21.2677 32.9476H28.9226Z" fill="url(#paint2_linear)"/>
<path d="M33.8021 32.9476H35.1478C37.4674 32.9476 37.4709 29.4368 35.1478 29.4368H33.8021C31.4834 29.4368 31.4776 32.9476 33.8021 32.9476Z" fill="url(#paint3_linear)"/>
<path d="M51.2797 46.9989C48.8609 46.9989 46.8011 48.5693 46.0661 50.7438H39.8046V48.8127C39.8046 47.8427 39.0183 47.0573 38.0492 47.0573H33.6768V42.2844C33.6768 41.3154 32.8901 40.529 31.921 40.529H30.1456V37.451H40.2786C41.2477 37.451 42.034 36.666 42.034 35.6955V28.134H44.5912C49.9469 28.134 54.3042 23.7767 54.3042 18.421C54.3042 11.6857 47.5569 6.95308 41.2114 9.31252C39.2427 3.80112 33.9928 0 27.9668 0C22.2761 0 17.425 3.35728 15.1885 8.18324C8.76912 6.49686 2.47626 11.3693 2.47626 17.994C2.47626 23.5846 7.02432 28.134 12.6163 28.134H14.7465V35.6955C14.7465 36.666 15.5328 37.451 16.5019 37.451H26.6348V40.529H24.8595C23.8904 40.529 23.1036 41.3154 23.1036 42.2844V47.0573H18.7312C17.7621 47.0573 16.9758 47.8427 16.9758 48.8127V50.7438H10.7144C9.97937 48.5693 7.91951 46.9989 5.50078 46.9989C2.46696 46.9989 0 49.4672 0 52.4992C0 55.533 2.46696 58 5.50078 58C7.91951 58 9.97937 56.4304 10.7144 54.2551H16.9758V55.8733C16.9758 56.8424 17.7621 57.6292 18.7312 57.6292H38.0492C39.0183 57.6292 39.8046 56.8424 39.8046 55.8733V54.2551H46.0661C46.8011 56.4304 48.8609 58 51.2797 58C54.3135 58 56.7805 55.533 56.7805 52.4992C56.7805 49.4672 54.3135 46.9989 51.2797 46.9989ZM51.2797 54.4892C50.1973 54.4892 49.2902 53.609 49.2902 52.4992C49.2902 51.3943 50.1933 50.5097 51.2797 50.5097C52.3775 50.5097 53.2696 51.4027 53.2696 52.4992C53.2696 53.5971 52.3775 54.4892 51.2797 54.4892ZM36.2938 54.1179H20.4871V50.5681H24.8595C25.8295 50.5681 26.6149 49.7818 26.6149 48.8127V44.0403H30.1656V48.8127C30.1656 49.7818 30.951 50.5681 31.921 50.5681H36.2938V54.1179ZM12.6163 24.6227C8.96117 24.6227 5.98753 21.6491 5.98753 17.994C5.98753 13.1375 11.071 9.92317 15.4532 12.0021C16.4134 12.4587 17.5652 11.9605 17.8829 10.9356C19.2591 6.4942 23.312 3.51083 27.9668 3.51083C33.0786 3.51083 37.4474 7.1553 38.3532 12.1773C38.5807 13.4296 40.0281 14.0349 41.0782 13.3105C45.1616 10.4953 50.7929 13.4234 50.7929 18.421C50.7929 21.8412 48.0109 24.6227 44.5912 24.6227C44.2323 24.6227 42.2623 24.6227 42.034 24.6227V17.0603C42.034 16.0912 41.2477 15.3045 40.2786 15.3045H16.5019C15.5328 15.3045 14.7465 16.0912 14.7465 17.0603V24.6227C14.7465 24.6227 12.6579 24.6227 12.6163 24.6227ZM38.5231 24.6227H18.2573V18.8158H38.5231V24.6227ZM18.2573 28.134H38.5231V33.9401H18.2573V28.134ZM5.50078 54.4892C4.40292 54.4892 3.51083 53.5971 3.51083 52.4992C3.51083 51.4027 4.40292 50.5097 5.50078 50.5097C6.58669 50.5097 7.49028 51.3938 7.49028 52.4992C7.49028 53.6099 6.58226 54.4892 5.50078 54.4892Z" fill="url(#paint4_linear)"/>
<defs>
<linearGradient id="paint0_linear" x1="30.6636" y1="21.7193" x2="19.5265" y2="21.7193" gradientUnits="userSpaceOnUse">
<stop stop-color="#06EA84"/>
<stop offset="1" stop-color="#2BC47B"/>
</linearGradient>
<linearGradient id="paint1_linear" x1="36.8888" y1="21.7193" x2="32.0609" y2="21.7193" gradientUnits="userSpaceOnUse">
<stop stop-color="#06EA84"/>
<stop offset="1" stop-color="#2BC47B"/>
</linearGradient>
<linearGradient id="paint2_linear" x1="30.6598" y1="31.1922" x2="19.5265" y2="31.1922" gradientUnits="userSpaceOnUse">
<stop stop-color="#06EA84"/>
<stop offset="1" stop-color="#2BC47B"/>
</linearGradient>
<linearGradient id="paint3_linear" x1="36.8888" y1="31.1922" x2="32.0609" y2="31.1922" gradientUnits="userSpaceOnUse">
<stop stop-color="#06EA84"/>
<stop offset="1" stop-color="#2BC47B"/>
</linearGradient>
<linearGradient id="paint4_linear" x1="56.7805" y1="29" x2="9.52131e-07" y2="29" gradientUnits="userSpaceOnUse">
<stop stop-color="#06EA84"/>
<stop offset="1" stop-color="#2BC47B"/>
</linearGradient>
</defs>
</svg>
