<svg width="61" height="61" viewBox="0 0 61 61" fill="none" xmlns="http://www.w3.org/2000/svg">
<path d="M23.9155 30.7228C27.6692 30.7228 30.7224 27.6691 30.7224 23.9158C30.7224 20.1626 27.6692 17.1089 23.9155 17.1089C20.1623 17.1089 17.109 20.1626 17.109 23.9158C17.109 27.6691 20.1623 30.7228 23.9155 30.7228ZM23.9155 19.4136C26.398 19.4136 28.4178 21.4333 28.4178 23.9158C28.4178 26.3983 26.398 28.4176 23.9155 28.4176C21.433 28.4176 19.4137 26.3983 19.4137 23.9158C19.4137 21.4333 21.433 19.4136 23.9155 19.4136Z" fill="url(#paint0_linear)" stroke="url(#paint1_linear)" stroke-width="0.5"/>
<path d="M23.916 25.0684C24.5525 25.0684 25.0683 24.5521 25.0683 23.916C25.0683 23.2795 24.5525 22.7637 23.916 22.7637H23.9155C23.279 22.7637 22.7632 23.2795 22.7632 23.916C22.7632 24.5521 23.2799 25.0684 23.916 25.0684Z" fill="url(#paint2_linear)" stroke="url(#paint3_linear)" stroke-width="0.5"/>
<path d="M56.543 32.3438H40.2522C40.854 31.1811 41.3289 29.9616 41.6683 28.6954H45.679C46.3155 28.6954 46.8313 28.1791 46.8313 27.5431V20.2887C46.8313 19.6522 46.3155 19.1364 45.679 19.1364H41.6696C41.2564 17.5974 40.6465 16.1254 39.8479 14.743L42.6842 11.9063C43.1344 11.4562 43.1344 10.7265 42.6842 10.2768L37.5545 5.14709C37.1048 4.6974 36.3752 4.69695 35.925 5.14709L33.0883 7.98338C31.7055 7.18484 30.234 6.57491 28.695 6.16214V2.15234C28.695 1.51585 28.1791 1 27.5426 1H20.2883C19.6518 1 19.1359 1.51585 19.1359 2.15234V6.16214C17.5974 6.57536 16.1259 7.1853 14.743 7.98383L11.9063 5.14709C11.4566 4.69695 10.7265 4.69695 10.2768 5.14709L5.14709 10.2768C4.69695 10.7265 4.69695 11.4562 5.14709 11.9063L7.98383 14.743C7.18575 16.1259 6.57581 17.5969 6.16304 19.1364H2.15234C1.51585 19.1364 1 19.6522 1 20.2887V27.5431C1 28.1791 1.51585 28.6954 2.15234 28.6954H6.16214C6.57491 30.2344 7.18484 31.7059 7.98338 33.0887L5.14709 35.925C4.93102 36.1411 4.80949 36.4341 4.80949 36.7398C4.80949 37.0454 4.93102 37.3384 5.14709 37.5545L10.2768 42.6842C10.4929 42.9003 10.7859 43.0218 11.0916 43.0218C11.3972 43.0218 11.6902 42.9003 11.9063 42.6842L14.7426 39.8479C16.1254 40.6465 17.5969 41.2569 19.1364 41.6696V45.679C19.1364 46.3155 19.6522 46.8313 20.2887 46.8313H25.4297V56.543C25.4297 58.4493 26.9809 60 28.8867 60H43.8672C44.5037 60 45.0195 59.4841 45.0195 58.8477C45.0195 58.2116 44.5037 57.6953 43.8672 57.6953H28.8867C28.2516 57.6953 27.7344 57.1786 27.7344 56.543V35.8008C27.7344 35.1656 28.2516 34.6484 28.8867 34.6484H56.543C57.1786 34.6484 57.6953 35.1656 57.6953 35.8008V56.543C57.6953 57.1786 57.1786 57.6953 56.543 57.6953H54.2383C53.6018 57.6953 53.0859 58.2116 53.0859 58.8477C53.0859 59.4841 53.6018 60 54.2383 60H56.543C58.4493 60 60 58.4493 60 56.543V35.8008C60 33.8949 58.4493 32.3438 56.543 32.3438ZM21.4406 44.5266V40.7626C21.4406 40.2193 21.0611 39.7494 20.53 39.6355C18.6282 39.2281 16.8335 38.484 15.1954 37.424C14.7394 37.1287 14.139 37.1926 13.7546 37.5766L11.0916 40.24L7.59132 36.7398L10.2548 34.0768C10.6387 33.6924 10.7026 33.0923 10.4074 32.6359C9.34774 30.9978 8.60367 29.2027 8.19585 27.3013C8.08196 26.7702 7.61247 26.3907 7.06916 26.3907H3.30469V21.441H7.07006C7.61337 21.441 8.08286 21.0611 8.19675 20.53C8.60457 18.6282 9.34819 16.8335 10.4078 15.1959C10.7031 14.7399 10.6392 14.1394 10.2552 13.755L7.59132 11.0916L11.0916 7.59177L13.7555 10.2552C14.1394 10.6392 14.7394 10.7031 15.1959 10.4078C16.8344 9.34774 18.6286 8.60367 20.53 8.19585C21.0611 8.08196 21.4406 7.61247 21.4406 7.06916V3.30469H26.3903V7.06916C26.3903 7.61247 26.7697 8.08196 27.3013 8.19585C29.2027 8.60367 30.9974 9.34774 32.6354 10.4074C33.0919 10.7022 33.6919 10.6387 34.0763 10.2548L36.7398 7.59177L40.2396 11.0916L37.5766 13.7546C37.1921 14.139 37.1287 14.7394 37.424 15.1954C38.4836 16.8335 39.2277 18.6286 39.6355 20.53C39.7494 21.0611 40.2188 21.4406 40.7622 21.4406H44.5262V26.3903H40.7608C40.2175 26.3903 39.748 26.7702 39.6341 27.3013C39.2506 29.0906 38.5696 30.7849 37.6076 32.3438H31.6078C33.8945 30.2547 35.3317 27.25 35.3317 23.9154C35.3317 17.6208 30.2106 12.4996 23.9154 12.4996C22.9377 12.4996 21.9655 12.6238 21.026 12.8691C20.4098 13.0298 20.0411 13.6591 20.2018 14.2749C20.3625 14.8907 20.9927 15.2598 21.608 15.0987C22.3575 14.9033 23.134 14.8038 23.9154 14.8038C28.9398 14.8038 33.0271 18.8915 33.0271 23.9154C33.0271 28.9394 28.9398 33.0271 23.9154 33.0271C18.8915 33.0271 14.8038 28.9394 14.8038 23.9154C14.8038 23.1345 14.9033 22.358 15.0987 21.6085C15.2594 20.9923 14.8902 20.363 14.2745 20.2027C13.6591 20.0416 13.0294 20.4107 12.8687 21.0265C12.6238 21.9659 12.4996 22.9382 12.4996 23.9154C12.4996 30.2106 17.6208 35.3317 23.9154 35.3317C24.4457 35.3317 24.9674 35.2944 25.4788 35.2242C25.4472 35.4119 25.4297 35.6041 25.4297 35.8008V44.5266H21.4406Z" fill="url(#paint4_linear)" stroke="url(#paint5_linear)" stroke-width="0.5"/>
<path d="M43.8673 39.4564V38.106C43.8673 37.4695 43.3515 36.9536 42.715 36.9536C42.0789 36.9536 41.5626 37.4695 41.5626 38.106V39.4564C40.2217 39.9322 39.2579 41.2128 39.2579 42.7153V45.02C39.2579 46.5221 40.2217 47.8032 41.5626 48.2786V54.2384C41.5626 54.8744 42.0789 55.3907 42.715 55.3907C43.3515 55.3907 43.8673 54.8744 43.8673 54.2384V48.2786C45.2087 47.8032 46.172 46.5221 46.172 45.02V42.7153C46.172 41.2128 45.2087 39.9322 43.8673 39.4564ZM41.5626 42.7153C41.5626 42.0798 42.0798 41.563 42.715 41.563C43.3506 41.563 43.8673 42.0798 43.8673 42.7153V45.02C43.8673 45.6552 43.3501 46.1724 42.715 46.1724C42.0794 46.1724 41.5626 45.6552 41.5626 45.02V42.7153Z" fill="url(#paint6_linear)" stroke="url(#paint7_linear)" stroke-width="0.5"/>
<path d="M55.3908 49.629V47.3238C55.3908 45.8217 54.427 44.5411 53.0861 44.0653V38.106C53.0861 37.4695 52.5698 36.9536 51.9337 36.9536C51.2972 36.9536 50.7814 37.4695 50.7814 38.106V44.0653C49.44 44.5411 48.4767 45.8217 48.4767 47.3238V49.629C48.4767 51.1311 49.44 52.4122 50.7814 52.8875V54.2384C50.7814 54.8744 51.2972 55.3907 51.9337 55.3907C52.5698 55.3907 53.0861 54.8744 53.0861 54.2384V52.8875C54.427 52.4122 55.3908 51.1311 55.3908 49.629ZM50.7814 47.3238C50.7814 46.6887 51.2981 46.1719 51.9337 46.1719C52.5689 46.1719 53.0861 46.6887 53.0861 47.3238V49.629C53.0861 50.2641 52.5689 50.7813 51.9337 50.7813C51.2981 50.7813 50.7814 50.2641 50.7814 49.629V47.3238Z" fill="url(#paint8_linear)" stroke="url(#paint9_linear)" stroke-width="0.5"/>
<path d="M33.4962 55.3907C34.1327 55.3907 34.6486 54.8744 34.6486 54.2384V52.8875C35.99 52.4122 36.9533 51.1311 36.9533 49.629V47.3238C36.9533 45.8217 35.99 44.5411 34.6486 44.0653V38.106C34.6486 37.4695 34.1327 36.9536 33.4962 36.9536C32.8602 36.9536 32.3439 37.4695 32.3439 38.106V44.0653C31.0029 44.5411 30.0392 45.8217 30.0392 47.3238V49.629C30.0392 51.1311 31.0029 52.4122 32.3439 52.8875V54.2384C32.3439 54.8744 32.8597 55.3907 33.4962 55.3907ZM32.3439 47.3238C32.3439 46.6887 32.8611 46.1719 33.4962 46.1719C34.1318 46.1719 34.6486 46.6887 34.6486 47.3238V49.629C34.6486 50.2641 34.1318 50.7813 33.4962 50.7813C32.8611 50.7813 32.3439 50.2641 32.3439 49.629V47.3238Z" fill="url(#paint10_linear)" stroke="url(#paint11_linear)" stroke-width="0.5"/>
<path d="M16.6575 17.8102C16.9524 17.8102 17.2477 17.6976 17.4727 17.4726C17.9224 17.0224 17.9224 16.2928 17.4727 15.8426C17.0226 15.3929 16.2929 15.3929 15.8428 15.8426L15.8423 15.8435C15.3926 16.2932 15.3926 17.0229 15.8428 17.4726C16.0679 17.6976 16.3627 17.8102 16.6575 17.8102Z" fill="url(#paint12_linear)" stroke="url(#paint13_linear)" stroke-width="0.5"/>
<path d="M49.0533 57.6953H49.0524C48.4159 57.6953 47.9005 58.2116 47.9005 58.8477C47.9005 59.4841 48.4168 60 49.0533 60C49.6893 60 50.2057 59.4841 50.2057 58.8477C50.2057 58.2116 49.6893 57.6953 49.0533 57.6953Z" fill="url(#paint14_linear)" stroke="url(#paint15_linear)" stroke-width="0.5"/>
<defs>
<linearGradient id="paint0_linear" x1="30.7224" y1="23.9158" x2="17.109" y2="23.9158" gradientUnits="userSpaceOnUse">
<stop stop-color="#06EA84"/>
<stop offset="1" stop-color="#2BC47B"/>
</linearGradient>
<linearGradient id="paint1_linear" x1="30.7224" y1="23.9158" x2="17.109" y2="23.9158" gradientUnits="userSpaceOnUse">
<stop stop-color="#06EA84"/>
<stop offset="1" stop-color="#2BC47B"/>
</linearGradient>
<linearGradient id="paint2_linear" x1="25.0683" y1="23.916" x2="22.7632" y2="23.916" gradientUnits="userSpaceOnUse">
<stop stop-color="#06EA84"/>
<stop offset="1" stop-color="#2BC47B"/>
</linearGradient>
<linearGradient id="paint3_linear" x1="25.0683" y1="23.916" x2="22.7632" y2="23.916" gradientUnits="userSpaceOnUse">
<stop stop-color="#06EA84"/>
<stop offset="1" stop-color="#2BC47B"/>
</linearGradient>
<linearGradient id="paint4_linear" x1="60" y1="30.5" x2="1" y2="30.5" gradientUnits="userSpaceOnUse">
<stop stop-color="#06EA84"/>
<stop offset="1" stop-color="#2BC47B"/>
</linearGradient>
<linearGradient id="paint5_linear" x1="60" y1="30.5" x2="1" y2="30.5" gradientUnits="userSpaceOnUse">
<stop stop-color="#06EA84"/>
<stop offset="1" stop-color="#2BC47B"/>
</linearGradient>
<linearGradient id="paint6_linear" x1="46.172" y1="46.1722" x2="39.2579" y2="46.1722" gradientUnits="userSpaceOnUse">
<stop stop-color="#06EA84"/>
<stop offset="1" stop-color="#2BC47B"/>
</linearGradient>
<linearGradient id="paint7_linear" x1="46.172" y1="46.1722" x2="39.2579" y2="46.1722" gradientUnits="userSpaceOnUse">
<stop stop-color="#06EA84"/>
<stop offset="1" stop-color="#2BC47B"/>
</linearGradient>
<linearGradient id="paint8_linear" x1="55.3908" y1="46.1722" x2="48.4767" y2="46.1722" gradientUnits="userSpaceOnUse">
<stop stop-color="#06EA84"/>
<stop offset="1" stop-color="#2BC47B"/>
</linearGradient>
<linearGradient id="paint9_linear" x1="55.3908" y1="46.1722" x2="48.4767" y2="46.1722" gradientUnits="userSpaceOnUse">
<stop stop-color="#06EA84"/>
<stop offset="1" stop-color="#2BC47B"/>
</linearGradient>
<linearGradient id="paint10_linear" x1="36.9533" y1="46.1722" x2="30.0392" y2="46.1722" gradientUnits="userSpaceOnUse">
<stop stop-color="#06EA84"/>
<stop offset="1" stop-color="#2BC47B"/>
</linearGradient>
<linearGradient id="paint11_linear" x1="36.9533" y1="46.1722" x2="30.0392" y2="46.1722" gradientUnits="userSpaceOnUse">
<stop stop-color="#06EA84"/>
<stop offset="1" stop-color="#2BC47B"/>
</linearGradient>
<linearGradient id="paint12_linear" x1="17.81" y1="16.6578" x2="15.5051" y2="16.6578" gradientUnits="userSpaceOnUse">
<stop stop-color="#06EA84"/>
<stop offset="1" stop-color="#2BC47B"/>
</linearGradient>
<linearGradient id="paint13_linear" x1="17.81" y1="16.6578" x2="15.5051" y2="16.6578" gradientUnits="userSpaceOnUse">
<stop stop-color="#06EA84"/>
<stop offset="1" stop-color="#2BC47B"/>
</linearGradient>
<linearGradient id="paint14_linear" x1="50.2057" y1="58.8477" x2="47.9005" y2="58.8477" gradientUnits="userSpaceOnUse">
<stop stop-color="#06EA84"/>
<stop offset="1" stop-color="#2BC47B"/>
</linearGradient>
<linearGradient id="paint15_linear" x1="50.2057" y1="58.8477" x2="47.9005" y2="58.8477" gradientUnits="userSpaceOnUse">
<stop stop-color="#06EA84"/>
<stop offset="1" stop-color="#2BC47B"/>
</linearGradient>
</defs>
</svg>
