<svg width="41" height="41" viewBox="0 0 41 41" fill="none" xmlns="http://www.w3.org/2000/svg">
<path d="M38.3977 26.7482C38.7108 25.3903 38.8791 24.0062 38.8791 22.6207C38.8791 16.1914 35.6054 10.3369 30.1213 6.96078C29.787 6.75578 29.3529 6.85969 29.1486 7.19193C28.9436 7.52488 29.0476 7.95962 29.3798 8.16462C34.4426 11.282 37.4653 16.6856 37.4653 22.6207C37.4653 23.8408 37.3239 25.0602 37.0602 26.2591C36.7343 26.1912 36.3972 26.1551 36.0515 26.1551C33.3229 26.1551 31.1032 28.3755 31.1032 31.1034C31.1032 33.8313 33.3229 36.0517 36.0515 36.0517C38.7801 36.0517 40.9998 33.8313 40.9998 31.1034C40.9998 29.2238 39.9458 27.5859 38.3977 26.7482Z" fill="url(#paint0_linear)"/>
<path d="M26.9829 38.301C24.9223 39.1536 22.7416 39.5862 20.5 39.5862C15.9865 39.5862 11.6447 37.7659 8.47074 34.5729C9.35153 33.6787 9.89655 32.4543 9.89655 31.1034C9.89655 28.3755 7.6769 26.1552 4.94828 26.1552C2.21966 26.1552 0 28.3755 0 31.1034C0 33.8313 2.21966 36.0517 4.94828 36.0517C5.81493 36.0517 6.62928 35.8262 7.33829 35.4332C10.7872 38.9754 15.5475 41 20.5 41C22.9282 41 25.2913 40.5313 27.5237 39.6067C27.8842 39.4575 28.056 39.044 27.9069 38.6828C27.7577 38.323 27.3435 38.1519 26.9829 38.301Z" fill="url(#paint1_linear)"/>
<path d="M2.8275 22.0644C2.84446 22.0658 2.86143 22.0665 2.87769 22.0665C3.24598 22.0665 3.5556 21.7823 3.58246 21.4091C4.08577 14.2772 8.94498 8.31734 15.7552 6.34228C16.3589 8.39369 18.2555 9.89655 20.4999 9.89655C23.2285 9.89655 25.4482 7.67619 25.4482 4.94828C25.4482 2.22036 23.2285 0 20.4999 0C17.7777 0 15.5622 2.21047 15.5523 4.9306C8.07267 7.01383 2.72217 13.5159 2.1722 21.3101C2.14464 21.6989 2.438 22.0375 2.8275 22.0644Z" fill="url(#paint2_linear)"/>
<defs>
<linearGradient id="paint0_linear" x1="40.9998" y1="21.4536" x2="29.0435" y2="21.4536" gradientUnits="userSpaceOnUse">
<stop stop-color="#06EA84"/>
<stop offset="1" stop-color="#2BC47B"/>
</linearGradient>
<linearGradient id="paint1_linear" x1="27.9606" y1="33.5776" x2="4.68862e-07" y2="33.5776" gradientUnits="userSpaceOnUse">
<stop stop-color="#06EA84"/>
<stop offset="1" stop-color="#2BC47B"/>
</linearGradient>
<linearGradient id="paint2_linear" x1="25.4482" y1="11.0332" x2="2.17041" y2="11.0332" gradientUnits="userSpaceOnUse">
<stop stop-color="#06EA84"/>
<stop offset="1" stop-color="#2BC47B"/>
</linearGradient>
</defs>
</svg>
