<svg width="51" height="28" viewBox="0 0 51 28" fill="none" xmlns="http://www.w3.org/2000/svg">
<path d="M49.795 1.20122C49.0316 0.496006 47.9931 0.0604122 46.9456 0.00586554C45.7561 -0.0556942 44.6417 0.36899 43.8118 1.20044L38.141 6.81914C38.029 6.62472 37.901 6.44121 37.7574 6.27094C37.0597 5.44144 36.0395 4.98481 34.885 4.98481H26.9466C25.4498 4.98481 23.9895 4.79039 22.6066 4.40739C19.0012 3.4088 15.5569 4.13817 12.6452 6.51796C11.4612 7.48577 10.5974 8.53852 10.0511 9.30607L8.62777 7.92293C8.44061 7.74097 8.18692 7.63772 7.92583 7.63772C7.92349 7.63772 7.92155 7.63772 7.91921 7.63772C7.64879 7.63967 7.38731 7.75227 7.19977 7.94708L0.280392 15.1398C0.0951806 15.3323 -0.00559641 15.591 0.000240094 15.8583C0.0060766 16.126 0.117748 16.38 0.311131 16.5643L12.0141 27.7226C12.2083 27.9077 12.4573 28 12.7059 28C12.967 28 13.2281 27.8983 13.4246 27.6965L20.2794 20.6545C20.4665 20.462 20.5704 20.199 20.5654 19.9302C20.5603 19.6653 20.4494 19.4097 20.2595 19.225L19.6627 18.6452L21.0288 18.4913C21.8552 18.3951 22.6957 18.3464 23.5276 18.3464H35.6057C37.5683 18.3464 39.2352 17.9167 40.5605 17.0688C40.5714 17.0618 40.5823 17.0544 40.5932 17.047C41.0679 16.7166 41.4986 16.3251 41.8729 15.8836L50.0121 6.29549C51.4051 4.6548 51.3179 2.60735 49.795 1.20122ZM48.4833 4.99416L40.3441 14.5827C40.0858 14.887 39.7897 15.1574 39.4632 15.3865C38.4683 16.0173 37.1706 16.3375 35.6057 16.3375H23.5272C22.6187 16.3375 21.7 16.3909 20.8008 16.4957L17.7977 16.8331L11.5098 10.7231C11.9468 10.0744 12.7503 9.02594 13.9141 8.07449C16.3335 6.09678 19.0782 5.5143 22.0716 6.3438C23.6288 6.77511 25.2688 6.99407 26.9466 6.99407H34.885C36.3107 6.99407 36.6913 8.23073 36.6913 8.96126C36.6913 9.49504 36.5201 10.0031 36.2216 10.3553C35.8979 10.7368 35.4376 10.93 34.8535 10.93H27.9431C27.389 10.93 26.94 11.38 26.94 11.9348C26.94 12.4897 27.389 12.9393 27.9431 12.9393H34.8535C36.0201 12.9393 37.0488 12.4834 37.7508 11.6559C38.3348 10.9678 38.6679 10.0631 38.6959 9.09607L45.227 2.62489C46.1604 1.69019 47.6188 1.92474 48.4347 2.67826C48.8565 3.06788 49.4238 3.88647 48.4833 4.99416Z" fill="url(#paint0_linear)"/>
<defs>
<linearGradient id="paint0_linear" x1="51" y1="14" x2="8.552e-07" y2="14" gradientUnits="userSpaceOnUse">
<stop stop-color="#06EA84"/>
<stop offset="1" stop-color="#2BC47B"/>
</linearGradient>
</defs>
</svg>
