<svg width="100" height="100" viewBox="0 0 100 100" fill="none" xmlns="http://www.w3.org/2000/svg">
<rect width="100" height="100" rx="7" fill="#99B2C5"/>
<path d="M20.132 42.647C22.7107 42.647 24.8012 40.5565 24.8012 37.9779C24.8012 35.3992 22.7107 33.3087 20.132 33.3087C17.5533 33.3087 15.4629 35.3992 15.4629 37.9779C15.4629 40.5565 17.5533 42.647 20.132 42.647Z" stroke="white" stroke-width="3" stroke-miterlimit="10"/>
<path d="M42.4988 80C47.6146 80 51.7618 75.8529 51.7618 70.7371C51.7618 65.6213 47.6146 61.4741 42.4988 61.4741C37.383 61.4741 33.2358 65.6213 33.2358 70.7371C33.2358 75.8529 37.383 80 42.4988 80Z" fill="#2BC47C"/>
<path d="M42.8757 32.4802C45.4544 32.4802 47.5448 30.3898 47.5448 27.8111C47.5448 25.2324 45.4544 23.142 42.8757 23.142C40.297 23.142 38.2065 25.2324 38.2065 27.8111C38.2065 30.3898 40.297 32.4802 42.8757 32.4802Z" stroke="white" stroke-width="3" stroke-miterlimit="10"/>
<path d="M60.4977 49.8013C63.0764 49.8013 65.1669 47.7108 65.1669 45.1322C65.1669 42.5535 63.0764 40.463 60.4977 40.463C57.9191 40.463 55.8286 42.5535 55.8286 45.1322C55.8286 47.7108 57.9191 49.8013 60.4977 49.8013Z" stroke="white" stroke-width="3" stroke-miterlimit="10"/>
<path d="M77.6677 28.3383C80.2464 28.3383 82.3368 26.2478 82.3368 23.6691C82.3368 21.0904 80.2464 19 77.6677 19C75.089 19 72.9985 21.0904 72.9985 23.6691C72.9985 26.2478 75.089 28.3383 77.6677 28.3383Z" stroke="white" stroke-width="3" stroke-miterlimit="10"/>
<path d="M24.8013 36.1704L38.2062 29.6185" stroke="white" stroke-width="3" stroke-miterlimit="10"/>
<path d="M46.6406 31.1246L56.5061 41.8185" stroke="white" stroke-width="3" stroke-miterlimit="10"/>
<path d="M63.6606 41.2914L75.0323 27.4346" stroke="white" stroke-width="3" stroke-miterlimit="10"/>
<path d="M83.542 68.4025H53.042C53.042 68.4025 53.2679 69.9839 53.2679 70.737C53.2679 71.4901 53.042 73.0716 53.042 73.0716H83.542C84.8222 73.0716 85.8766 72.0173 85.8766 70.737C85.8766 69.4568 84.8222 68.4025 83.542 68.4025Z" fill="white"/>
<path d="M42.4988 80C47.6146 80 51.7618 75.8529 51.7618 70.7371C51.7618 65.6213 47.6146 61.4741 42.4988 61.4741C37.383 61.4741 33.2358 65.6213 33.2358 70.7371C33.2358 75.8529 37.383 80 42.4988 80Z" fill="white"/>
<path opacity="0.8" d="M31.8802 68.4025H18.7765C17.4962 68.4025 16.4419 69.4568 16.4419 70.737C16.4419 72.0173 17.4962 73.0716 18.7765 73.0716H31.9555C31.9555 73.0716 31.7296 71.4901 31.7296 70.737C31.7296 69.9839 31.8802 68.4025 31.8802 68.4025Z" fill="white"/>
</svg>
