<svg width="598" height="598" viewBox="0 0 598 598" fill="none" xmlns="http://www.w3.org/2000/svg">
<path d="M596 299C596 463.029 463.029 596 299 596C134.971 596 2 463.029 2 299C2 134.971 134.971 2 299 2C463.029 2 596 134.971 596 299Z" fill="url(#paint0_linear)"/>
<path fill-rule="evenodd" clip-rule="evenodd" d="M299 3.5C135.8 3.5 3.5 135.8 3.5 299C3.5 462.2 135.8 594.5 299 594.5C462.2 594.5 594.5 462.2 594.5 299C594.5 135.8 462.2 3.5 299 3.5ZM0.5 299C0.5 134.143 134.143 0.5 299 0.5C463.857 0.5 597.5 134.143 597.5 299C597.5 463.857 463.857 597.5 299 597.5C134.143 597.5 0.5 463.857 0.5 299Z" fill="url(#paint1_linear)"/>
<defs>
<linearGradient id="paint0_linear" x1="31" y1="157.5" x2="572" y2="391.5" gradientUnits="userSpaceOnUse">
<stop stop-color="#49576E" stop-opacity="0.1"/>
<stop offset="1" stop-color="#C4C4C4" stop-opacity="0"/>
</linearGradient>
<linearGradient id="paint1_linear" x1="2" y1="330" x2="355" y2="330" gradientUnits="userSpaceOnUse">
<stop stop-color="#2BC47C"/>
<stop offset="1" stop-color="white" stop-opacity="0"/>
</linearGradient>
</defs>
</svg>
