<svg width="390" height="261" viewBox="0 0 390 261" fill="none" xmlns="http://www.w3.org/2000/svg">
<g clip-path="url(#clip0)">
<path opacity="0.1" d="M226.597 44.035C201.595 43.1688 177.781 35.097 155.043 26.2661C132.305 17.4351 109.778 7.65852 85.3767 2.97558C69.6798 -0.0336471 51.7291 -0.475368 39.0833 7.95531C26.9102 16.0512 22.9791 30.0414 20.8668 42.9997C19.2757 52.759 18.3404 63.0152 22.6961 72.1637C25.7229 78.5031 31.0967 83.8348 34.8139 89.9085C47.7393 111.049 38.6104 137.114 24.5909 157.751C18.0332 167.434 10.3953 176.669 5.32523 186.977C0.255143 197.285 -2.0918 209.091 2.34323 219.602C6.74375 230.024 17.2222 237.837 28.5772 243.358C51.636 254.54 78.8087 257.742 105.305 259.554C163.958 263.564 222.925 261.828 281.733 260.089C303.498 259.443 325.355 258.791 346.768 255.426C358.654 253.559 370.927 250.595 379.556 243.434C390.514 234.345 393.23 218.953 385.886 207.545C373.571 188.43 339.516 183.681 330.908 163.165C326.17 151.874 331.036 139.295 337.922 128.821C352.694 106.352 377.454 86.6439 378.759 60.9619C379.656 43.3241 367.752 25.6587 349.349 17.3143C330.056 8.56612 303.308 9.66698 289.074 24.1472C274.427 39.0622 248.672 44.8011 226.597 44.035Z" fill="#38D39F"/>
<path d="M44.2287 261L43.6006 260.859C50.6038 229.73 68.2034 201.463 93.1574 181.263C112.024 166.016 134.462 155.818 158.36 151.631C182.257 147.443 206.828 149.403 229.759 157.327C252.689 165.251 273.225 178.877 289.432 196.923C305.639 214.969 316.984 236.841 322.4 260.479L321.772 260.621C306.948 195.563 249.9 150.126 183.043 150.126C117.062 150.126 58.6824 196.755 44.2287 261Z" fill="#3F3D56"/>
<path d="M114.275 67.8049C123.931 67.8049 131.759 59.9809 131.759 50.3296C131.759 40.6784 123.931 32.8544 114.275 32.8544C104.619 32.8544 96.791 40.6784 96.791 50.3296C96.791 59.9809 104.619 67.8049 114.275 67.8049Z" fill="#FF6584"/>
<path d="M202.066 91.2952L190.232 99.1806L171.883 233.172L199.555 260.831H263.866V91.2952C250.106 91.2952 230.983 91.2952 202.066 91.2952Z" fill="#CCCCCC"/>
<path d="M202.066 91.2953H102.134V260.83H202.066V91.2953Z" fill="#F2F2F2"/>
<path d="M159.332 219.432H140.923V260.83H159.332V219.432Z" fill="#CCCCCC"/>
<path d="M121.2 231.26V224.689H113.311V231.26H120.543H121.2Z" fill="#3F3D56"/>
<path d="M120.543 236.517H113.311V243.088H121.2V236.517H120.543Z" fill="#3F3D56"/>
<path d="M134.349 224.689H126.459V231.26H134.349V224.689Z" fill="#3F3D56"/>
<path d="M134.349 236.517H126.459V243.088H134.349V236.517Z" fill="#3F3D56"/>
<path d="M175.11 231.26V224.689H167.221V231.26H174.453H175.11Z" fill="#3F3D56"/>
<path d="M174.453 236.517H167.221V243.088H175.11V236.517H174.453Z" fill="#3F3D56"/>
<path d="M188.259 224.689H180.37V231.26H188.259V224.689Z" fill="#3F3D56"/>
<path d="M188.259 236.517H180.37V243.088H188.259V236.517Z" fill="#3F3D56"/>
<path d="M230.336 119.838V113.267H222.447V119.838H229.679H230.336Z" fill="#3F3D56"/>
<path d="M229.679 125.095H222.447V131.666H230.336V125.095H229.679Z" fill="#3F3D56"/>
<path d="M243.485 113.267H235.596V119.838H243.485V113.267Z" fill="#3F3D56"/>
<path d="M243.485 125.095H235.596V131.666H243.485V125.095Z" fill="#3F3D56"/>
<path d="M230.336 156.636V150.065H222.447V156.636H229.679H230.336Z" fill="#3F3D56"/>
<path d="M229.679 161.893H222.447V168.464H230.336V161.893H229.679Z" fill="#3F3D56"/>
<path d="M243.485 150.065H235.596V156.636H243.485V150.065Z" fill="#3F3D56"/>
<path d="M243.485 161.893H235.596V168.464H243.485V161.893Z" fill="#3F3D56"/>
<path d="M230.336 193.434V186.863H222.447V193.434H229.679H230.336Z" fill="#3F3D56"/>
<path d="M229.679 198.691H222.447V205.262H230.336V198.691H229.679Z" fill="#3F3D56"/>
<path d="M243.485 186.863H235.596V193.434H243.485V186.863Z" fill="#3F3D56"/>
<path d="M243.485 198.691H235.596V205.262H243.485V198.691Z" fill="#3F3D56"/>
<path d="M230.336 230.233V223.662H222.447V230.233H229.679H230.336Z" fill="#3F3D56"/>
<path d="M229.679 235.49H222.447V242.061H230.336V235.49H229.679Z" fill="#3F3D56"/>
<path d="M243.485 223.662H235.596V230.233H243.485V223.662Z" fill="#3F3D56"/>
<path d="M243.485 235.49H235.596V242.061H243.485V235.49Z" fill="#3F3D56"/>
<path d="M189.575 99.8378H113.311V115.608H189.575V99.8378Z" fill="#3F3D56"/>
<path d="M189.575 131.379H113.311V147.15H189.575V131.379Z" fill="#3F3D56"/>
<path d="M189.575 162.921H113.311V178.691H189.575V162.921Z" fill="#3F3D56"/>
<path d="M189.575 194.462H113.311V210.233H189.575V194.462Z" fill="#3F3D56"/>
<path d="M366 260.169H0V260.812H366V260.169Z" fill="#3F3D56"/>
<path d="M63.1821 185.875H61.291V260.536H63.1821V185.875Z" fill="#3F3D56"/>
<path d="M80.6349 195.39C80.7553 221.497 62.3785 242.746 62.3785 242.746C62.3785 242.746 43.8065 221.667 43.6861 195.56C43.5658 169.453 61.9426 148.204 61.9426 148.204C61.9426 148.204 80.5146 169.283 80.6349 195.39Z" fill="#38D39F"/>
<path opacity="0.1" d="M80.6349 195.39C80.7553 221.497 62.3785 242.746 62.3785 242.746C62.3785 242.746 43.8065 221.667 43.6861 195.56C43.5658 169.453 61.9426 148.204 61.9426 148.204C61.9426 148.204 80.5146 169.283 80.6349 195.39Z" fill="black"/>
<path d="M38.5981 185.875H36.707V260.536H38.5981V185.875Z" fill="#3F3D56"/>
<path d="M56.051 195.39C56.1713 221.497 37.7945 242.746 37.7945 242.746C37.7945 242.746 19.2225 221.667 19.1022 195.56C18.9818 169.453 37.3586 148.204 37.3586 148.204C37.3586 148.204 55.9306 169.283 56.051 195.39Z" fill="#38D39F"/>
<path d="M304.374 91.1897C289.477 91.2584 277.352 91.4783 277.352 91.4783C277.352 91.4783 291.765 72.397 304.32 79.4665C316.875 86.536 331.297 91.2298 331.297 91.2298C331.297 91.2298 319.27 91.1211 304.374 91.1897Z" fill="#FDFDFD"/>
<path d="M56.1891 127.868C41.2926 127.936 29.1675 128.156 29.1675 128.156C29.1675 128.156 43.5801 109.075 56.135 116.145C68.6899 123.214 83.1124 127.908 83.1124 127.908C83.1124 127.908 71.0855 127.799 56.1891 127.868Z" fill="#FDFDFD"/>
<path d="M90.2682 41.2943C75.3717 41.3629 63.2466 41.5829 63.2466 41.5829C63.2466 41.5829 77.6592 22.5015 90.2141 29.571C102.769 36.6405 117.191 41.3344 117.191 41.3344C117.191 41.3344 105.165 41.2257 90.2682 41.2943Z" fill="#FDFDFD"/>
<path d="M335.068 185.875H333.177V260.536H335.068V185.875Z" fill="#3F3D56"/>
<path d="M352.521 195.39C352.641 221.497 334.264 242.746 334.264 242.746C334.264 242.746 315.692 221.667 315.572 195.56C315.452 169.453 333.828 148.204 333.828 148.204C333.828 148.204 352.4 169.283 352.521 195.39Z" fill="#38D39F"/>
</g>
<defs>
<clipPath id="clip0">
<rect width="390" height="261" fill="white"/>
</clipPath>
</defs>
</svg>
