<svg width="84" height="58" viewBox="0 0 84 58" fill="none" xmlns="http://www.w3.org/2000/svg">
<path fill-rule="evenodd" clip-rule="evenodd" d="M83.6427 11.744C83.6903 11.9079 83.7201 12.0769 83.7234 12.2516C83.7235 12.2562 83.7245 12.2606 83.7256 12.2649C83.7267 12.2696 83.7278 12.2742 83.7278 12.2791L83.7272 12.2829L83.7278 12.2877V46.1122C83.7278 46.9294 83.2215 47.6608 82.4592 47.944L28.6671 57.6217C28.6594 57.6245 28.6514 57.6253 28.6434 57.6261C28.6358 57.6268 28.6283 57.6275 28.621 57.63C28.4181 57.7001 28.2079 57.7428 27.9939 57.7428C27.78 57.7428 27.5698 57.7001 27.3668 57.63C27.3596 57.6275 27.352 57.6268 27.3445 57.6261C27.3365 57.6253 27.3284 57.6245 27.3207 57.6217L1.26864 47.944C0.506334 47.6608 2.60918e-05 46.9294 2.60918e-05 46.1122V12.2877C2.60918e-05 12.2499 0.00602856 12.2134 0.0120397 12.1768C0.015915 12.1532 0.019794 12.1296 0.0220704 12.1057C0.0204631 12.0821 0.0158845 12.0593 0.0113114 12.0365C0.00543092 12.0073 -0.000440548 11.978 2.60918e-05 11.9472C0.0123518 11.1272 0.532882 10.4015 1.30277 10.1317L55.0948 0.994697C55.5139 0.845942 55.9719 0.848803 56.3928 1.00137L82.4449 10.4502C82.4482 10.4514 82.451 10.4532 82.4538 10.4551C82.4566 10.4569 82.4595 10.4587 82.4627 10.4599C82.6141 10.5166 82.7602 10.5906 82.8963 10.6857C82.9032 10.6906 82.9092 10.6965 82.9151 10.7025C82.9206 10.708 82.9261 10.7135 82.9324 10.7182C82.9605 10.739 82.985 10.7625 83.0096 10.7862C83.0241 10.8001 83.0386 10.8141 83.0539 10.8275C83.1492 10.9113 83.2369 11 83.3133 11.0994C83.3517 11.1494 83.3849 11.2003 83.4183 11.2537C83.4837 11.3583 83.5372 11.4675 83.582 11.5828C83.5878 11.5977 83.5938 11.6124 83.5998 11.6271C83.6155 11.6655 83.6309 11.7034 83.6427 11.744ZM3.88362 44.7515L26.0521 52.9864V23.337L25.212 23.0139L3.88362 15.0911V44.7515ZM26.5309 19.3401L27.9939 19.8835L76.122 12.3098L55.7234 4.91095L7.59844 12.0598L26.5309 19.3401ZM29.9357 52.9864L79.8442 44.7515V15.093L29.9357 23.3515V52.9864ZM48.1326 23.6609L47.1134 25.0882L57.2833 32.4994L50.0992 33.926L63.5181 43.7117L64.5375 42.2834L54.3804 34.8731L61.5412 33.4328L48.1326 23.6609Z" fill="url(#paint0_linear)"/>
<defs>
<linearGradient id="paint0_linear" x1="83.7278" y1="29.3139" x2="1.404e-06" y2="29.3139" gradientUnits="userSpaceOnUse">
<stop stop-color="#06EA84"/>
<stop offset="1" stop-color="#2BC47B"/>
</linearGradient>
</defs>
</svg>
