<svg width="92" height="78" viewBox="0 0 92 78" fill="none" xmlns="http://www.w3.org/2000/svg">
<path d="M7.10739 63.6747H34.569L30.5976 74.2867H26.525V77.8239H65.3602V74.2867H61.2876L57.3161 63.6739H84.7778C88.6773 63.6739 91.8388 60.5062 91.8388 56.599V7.07496C91.8388 3.16774 88.6773 0 84.7778 0H7.10739C3.20715 0 0.0463867 3.16774 0.0463867 7.07496V56.599C0.0463867 60.5069 3.20715 63.6747 7.10739 63.6747ZM57.5168 74.2867H34.3676L38.3399 63.6739H53.5453L57.5168 74.2867ZM88.3079 56.599C88.3079 58.5529 86.7279 60.1368 84.7778 60.1368H7.10739C5.15727 60.1368 3.57653 58.5529 3.57653 56.599V53.0618H88.3086V56.599H88.3079ZM3.57653 7.07496C3.57653 5.12099 5.15727 3.53712 7.10739 3.53712H84.7778C86.7279 3.53712 88.3079 5.12099 88.3079 7.07496V49.524H3.57653V7.07496Z" fill="#BCD2E4"/>
</svg>
