<svg width="76" height="76" viewBox="0 0 76 76" fill="none" xmlns="http://www.w3.org/2000/svg">
<path d="M74.7333 73.4667H67.1333V31.6667C67.1333 30.9672 66.5662 30.4 65.8667 30.4H48.1333V1.26667C48.1333 0.56715 47.5662 0 46.8667 0H13.9333C13.2338 0 12.6667 0.56715 12.6667 1.26667V73.4667H1.26667C0.56715 73.4667 0 74.0338 0 74.7333C0 75.4329 0.56715 76 1.26667 76H74.7333C75.4329 76 76 75.4329 76 74.7333C76 74.0338 75.4329 73.4667 74.7333 73.4667ZM26.6 73.4667H21.5333V62.0667C21.5333 61.3672 22.1005 60.8 22.8 60.8H25.3333C26.0329 60.8 26.6 61.3672 26.6 62.0667V73.4667ZM31.6667 31.6667V73.4667H29.1333V62.0667C29.1333 59.968 27.432 58.2667 25.3333 58.2667H22.8C20.7013 58.2667 19 59.968 19 62.0667V73.4667H15.2V2.53333H45.6V30.4H32.9333C32.2338 30.4 31.6667 30.9672 31.6667 31.6667ZM64.6 73.4667H34.2V32.9333H64.6V73.4667Z" fill="#BCD2E4"/>
<path d="M40.5332 17.7333H32.9332C32.2337 17.7333 31.6665 18.3005 31.6665 19V26.6C31.6665 27.2995 32.2337 27.8667 32.9332 27.8667H40.5332C41.2327 27.8667 41.7998 27.2995 41.7998 26.6V19C41.7998 18.3005 41.2327 17.7333 40.5332 17.7333ZM39.2665 25.3333H34.1998V20.2667H39.2665V25.3333Z" fill="#BCD2E4"/>
<path d="M40.5332 5.06668H32.9332C32.2337 5.06668 31.6665 5.63383 31.6665 6.33335V13.9333C31.6665 14.6329 32.2337 15.2 32.9332 15.2H40.5332C41.2327 15.2 41.7998 14.6329 41.7998 13.9333V6.33335C41.7998 5.63383 41.2327 5.06668 40.5332 5.06668ZM39.2665 12.6667H34.1998V7.60001H39.2665V12.6667Z" fill="#BCD2E4"/>
<path d="M27.8667 17.7333H20.2667C19.5671 17.7333 19 18.3005 19 19V26.6C19 27.2995 19.5671 27.8667 20.2667 27.8667H27.8667C28.5662 27.8667 29.1333 27.2995 29.1333 26.6V19C29.1333 18.3005 28.5662 17.7333 27.8667 17.7333ZM26.6 25.3333H21.5333V20.2667H26.6V25.3333Z" fill="#BCD2E4"/>
<path d="M27.8667 5.06668H20.2667C19.5671 5.06668 19 5.63383 19 6.33335V13.9333C19 14.6329 19.5671 15.2 20.2667 15.2H27.8667C28.5662 15.2 29.1333 14.6329 29.1333 13.9333V6.33335C29.1333 5.63383 28.5662 5.06668 27.8667 5.06668ZM26.6 12.6667H21.5333V7.60001H26.6V12.6667Z" fill="#BCD2E4"/>
<path d="M27.8667 30.4H20.2667C19.5671 30.4 19 30.9671 19 31.6667V39.2667C19 39.9662 19.5671 40.5333 20.2667 40.5333H27.8667C28.5662 40.5333 29.1333 39.9662 29.1333 39.2667V31.6667C29.1333 30.9671 28.5662 30.4 27.8667 30.4ZM26.6 38H21.5333V32.9333H26.6V38Z" fill="#BCD2E4"/>
<path d="M27.8667 43.0667H20.2667C19.5671 43.0667 19 43.6338 19 44.3333V51.9333C19 52.6329 19.5671 53.2 20.2667 53.2H27.8667C28.5662 53.2 29.1333 52.6329 29.1333 51.9333V44.3333C29.1333 43.6338 28.5662 43.0667 27.8667 43.0667ZM26.6 50.6667H21.5333V45.6H26.6V50.6667Z" fill="#BCD2E4"/>
<path d="M51.9332 58.2667H59.5332C60.2327 58.2667 60.7998 57.6995 60.7998 57V49.4C60.7998 48.7005 60.2327 48.1333 59.5332 48.1333H51.9332C51.2337 48.1333 50.6665 48.7005 50.6665 49.4V57C50.6665 57.6995 51.2337 58.2667 51.9332 58.2667ZM53.1998 50.6667H58.2665V55.7333H53.1998V50.6667Z" fill="#BCD2E4"/>
<path d="M51.9332 45.6H59.5332C60.2327 45.6 60.7998 45.0329 60.7998 44.3333V36.7333C60.7998 36.0338 60.2327 35.4667 59.5332 35.4667H51.9332C51.2337 35.4667 50.6665 36.0338 50.6665 36.7333V44.3333C50.6665 45.0329 51.2337 45.6 51.9332 45.6ZM53.1998 38H58.2665V43.0667H53.1998V38Z" fill="#BCD2E4"/>
<path d="M51.9332 70.9333H59.5332C60.2327 70.9333 60.7998 70.3662 60.7998 69.6667V62.0667C60.7998 61.3671 60.2327 60.8 59.5332 60.8H51.9332C51.2337 60.8 50.6665 61.3671 50.6665 62.0667V69.6667C50.6665 70.3662 51.2337 70.9333 51.9332 70.9333ZM53.1998 63.3333H58.2665V68.4H53.1998V63.3333Z" fill="#BCD2E4"/>
<path d="M39.2667 58.2667H46.8667C47.5662 58.2667 48.1333 57.6995 48.1333 57V49.4C48.1333 48.7005 47.5662 48.1333 46.8667 48.1333H39.2667C38.5671 48.1333 38 48.7005 38 49.4V57C38 57.6995 38.5671 58.2667 39.2667 58.2667ZM40.5333 50.6667H45.6V55.7333H40.5333V50.6667Z" fill="#BCD2E4"/>
<path d="M39.2667 45.6H46.8667C47.5662 45.6 48.1333 45.0329 48.1333 44.3333V36.7333C48.1333 36.0338 47.5662 35.4667 46.8667 35.4667H39.2667C38.5671 35.4667 38 36.0338 38 36.7333V44.3333C38 45.0329 38.5671 45.6 39.2667 45.6ZM40.5333 38H45.6V43.0667H40.5333V38Z" fill="#BCD2E4"/>
<path d="M39.2667 70.9333H46.8667C47.5662 70.9333 48.1333 70.3662 48.1333 69.6667V62.0667C48.1333 61.3671 47.5662 60.8 46.8667 60.8H39.2667C38.5671 60.8 38 61.3671 38 62.0667V69.6667C38 70.3662 38.5671 70.9333 39.2667 70.9333ZM40.5333 63.3333H45.6V68.4H40.5333V63.3333Z" fill="#BCD2E4"/>
</svg>
