<svg width="81" height="50" viewBox="0 0 81 50" fill="none" xmlns="http://www.w3.org/2000/svg">
<path d="M50.625 5C58.9405 5 65.7136 11.6309 65.8125 19.8145C65.7729 20.1173 65.7432 20.42 65.7334 20.7325L65.6049 24.4044L69.125 25.6153C73.1987 27.0166 75.9375 30.7909 75.9375 35C75.9375 40.5175 71.399 45 65.8125 45H15.1875C9.60594 45 5.0625 40.5175 5.0625 35C5.0625 29.5409 9.52193 25.0878 15.0293 25C15.2666 25.0342 15.5139 25.0634 15.761 25.0781L19.6074 25.3272L20.873 21.7383C22.2968 17.7052 26.1135 15 30.375 15C30.8694 15 31.4133 15.0586 32.145 15.1856L35.6897 15.8155L37.4546 12.7148C40.1638 7.95906 45.2065 5 50.625 5ZM50.625 0C43.0411 0 36.5103 4.17 33.0398 10.2638C32.1746 10.1123 31.2896 10 30.375 10C23.7403 10 18.1587 14.2286 16.0923 20.088C15.7907 20.0684 15.499 20 15.1875 20C6.80273 20 0 26.7188 0 35C0 43.2812 6.80273 50 15.1875 50H65.8125C74.1973 50 81 43.2812 81 35C81 28.4472 76.7187 22.9297 70.7861 20.8886C70.7959 20.5859 70.875 20.3028 70.875 20C70.875 8.95516 61.8081 0 50.625 0Z" fill="url(#paint0_linear)"/>
<defs>
<linearGradient id="paint0_linear" x1="81" y1="25" x2="1.35826e-06" y2="25" gradientUnits="userSpaceOnUse">
<stop stop-color="#06EA84"/>
<stop offset="1" stop-color="#2BC47B"/>
</linearGradient>
</defs>
</svg>
