<svg width="55" height="73" viewBox="0 0 55 73" fill="none" xmlns="http://www.w3.org/2000/svg">
<path d="M23.5345 11.9425C23.5345 11.014 22.7749 10.2542 21.8466 10.2542H12.2254C11.2971 10.2542 10.5375 11.014 10.5375 11.9425V21.5661C10.5375 22.4946 11.2971 23.2544 12.2254 23.2544H21.8466C22.7749 23.2544 23.5345 22.4946 23.5345 21.5661V11.9425ZM13.9133 13.6309H20.1586V19.8777H13.9133V13.6309Z" fill="url(#paint0_linear)"/>
<path d="M43.6207 11.9425C43.6207 11.014 42.8611 10.2542 41.9328 10.2542H32.3116C31.3833 10.2542 30.6237 11.014 30.6237 11.9425V21.5661C30.6237 22.4946 31.3833 23.2544 32.3116 23.2544H41.9328C42.8611 23.2544 43.6207 22.4946 43.6207 21.5661V11.9425ZM33.9996 13.6309H40.4136V19.8777H33.9996V13.6309Z" fill="url(#paint1_linear)"/>
<path d="M23.5345 30.1766C23.5345 29.248 22.7749 28.4882 21.8466 28.4882H12.2254C11.2971 28.4882 10.5375 29.248 10.5375 30.1766V39.8001C10.5375 40.7287 11.2971 41.4884 12.2254 41.4884H21.8466C22.7749 41.4884 23.5345 40.7287 23.5345 39.8001V30.1766ZM13.9133 31.8649H20.1586V38.1118H13.9133V31.8649Z" fill="url(#paint2_linear)"/>
<path d="M43.6197 30.1766C43.6197 29.248 42.8602 28.4882 41.9318 28.4882H32.3107C31.3823 28.4882 30.6228 29.248 30.6228 30.1766V39.8001C30.6228 40.7287 31.3823 41.4884 32.3107 41.4884H41.9318C42.8602 41.4884 43.6197 40.7287 43.6197 39.8001V30.1766ZM33.9986 31.8649H40.4127V38.1118H33.9986V31.8649Z" fill="url(#paint3_linear)"/>
<path d="M54.2546 62.0861V5.5944C54.2208 2.77487 51.9421 0.49562 49.1064 0.461853H5.98013C3.19507 0.461853 0.916382 2.79176 0.916382 5.5944V62.0861H54.2546ZM4.29222 62.0861V5.5944C4.29222 4.66581 5.05178 3.83853 5.98013 3.83853H49.1064C50.0685 3.85541 50.845 4.63204 50.8787 5.5944V62.0861" fill="url(#paint4_linear)"/>
<path d="M30.86 48.5288C30.86 46.6885 29.3746 45.2028 27.5348 45.2028C25.6949 45.2028 24.2096 46.6885 24.2096 48.5288C24.2096 49.66 24.7666 50.6561 25.6443 51.2639V65.9862C24.7835 66.594 24.2096 67.5901 24.2096 68.7213C24.2096 70.5616 25.6949 72.0473 27.5348 72.0473C29.3746 72.0473 30.86 70.5616 30.86 68.7213C30.86 67.5901 30.3029 66.594 29.4252 65.9862V51.2639C30.2861 50.673 30.86 49.66 30.86 48.5288ZM19.0614 50.9093C17.2216 50.9093 15.7362 52.3951 15.7362 54.2354C15.7362 55.3665 16.2932 56.3627 17.171 56.9705V66.8135H12.6473C12.0397 65.9524 11.0438 65.3784 9.91291 65.3784C8.07308 65.3784 6.58772 66.8641 6.58772 68.7044C6.58772 70.5447 8.07308 72.0304 9.91291 72.0304C11.0438 72.0304 12.0397 71.4733 12.6473 70.5953H20.9519V56.9536C21.8127 56.3458 22.3866 55.3497 22.3866 54.2185C22.3866 52.412 20.9013 50.9093 19.0614 50.9093ZM45.4267 65.3784C44.2958 65.3784 43.2999 65.9355 42.6923 66.8135H38.1011V58.8783C38.962 58.2705 39.5359 57.2744 39.5359 56.1432C39.5359 54.3029 38.0505 52.8172 36.2107 52.8172C34.3708 52.8172 32.8855 54.3029 32.8855 56.1432C32.8855 57.2744 33.4425 58.2705 34.3202 58.8783V70.6122H42.726C43.3337 71.4733 44.3295 72.0473 45.4604 72.0473C47.3003 72.0473 48.7856 70.5616 48.7856 68.7213C48.7519 66.881 47.2665 65.3784 45.4267 65.3784Z" fill="url(#paint5_linear)"/>
<defs>
<linearGradient id="paint0_linear" x1="54.2546" y1="36.2546" x2="0.916383" y2="36.2546" gradientUnits="userSpaceOnUse">
<stop stop-color="#06EA84"/>
<stop offset="1" stop-color="#2BC47B"/>
</linearGradient>
<linearGradient id="paint1_linear" x1="54.2546" y1="36.2546" x2="0.916383" y2="36.2546" gradientUnits="userSpaceOnUse">
<stop stop-color="#06EA84"/>
<stop offset="1" stop-color="#2BC47B"/>
</linearGradient>
<linearGradient id="paint2_linear" x1="54.2546" y1="36.2546" x2="0.916383" y2="36.2546" gradientUnits="userSpaceOnUse">
<stop stop-color="#06EA84"/>
<stop offset="1" stop-color="#2BC47B"/>
</linearGradient>
<linearGradient id="paint3_linear" x1="54.2546" y1="36.2546" x2="0.916383" y2="36.2546" gradientUnits="userSpaceOnUse">
<stop stop-color="#06EA84"/>
<stop offset="1" stop-color="#2BC47B"/>
</linearGradient>
<linearGradient id="paint4_linear" x1="54.2546" y1="36.2546" x2="0.916383" y2="36.2546" gradientUnits="userSpaceOnUse">
<stop stop-color="#06EA84"/>
<stop offset="1" stop-color="#2BC47B"/>
</linearGradient>
<linearGradient id="paint5_linear" x1="54.2546" y1="36.2546" x2="0.916383" y2="36.2546" gradientUnits="userSpaceOnUse">
<stop stop-color="#06EA84"/>
<stop offset="1" stop-color="#2BC47B"/>
</linearGradient>
</defs>
</svg>
