<svg width="63" height="54" viewBox="0 0 63 54" fill="none" xmlns="http://www.w3.org/2000/svg">
<path d="M60.5564 24.8369C61.904 24.8369 62.9964 23.7511 62.9964 22.4117V10.2861C62.9964 4.93717 58.6182 0.58551 53.2367 0.58551H10.2942C4.91273 0.58551 0.534546 4.93717 0.534546 10.2861V34.5374C0.534546 39.8863 4.91273 44.2379 10.2942 44.2379H29.3255V49.0734H20.7858C19.4383 49.0734 18.3459 50.1592 18.3459 51.4986C18.3459 52.838 19.4383 53.9237 20.7858 53.9237H42.7451C44.0926 53.9237 45.185 52.838 45.185 51.4986C45.185 50.1592 44.0926 49.0734 42.7451 49.0734H34.2054V44.2379H53.2367C58.6182 44.2379 62.9964 39.8863 62.9964 34.5374C62.9964 33.198 61.904 32.1123 60.5564 32.1123C59.2089 32.1123 58.1165 33.198 58.1165 34.5374C58.1165 37.2118 55.9274 39.3877 53.2367 39.3877H10.2942C7.60347 39.3877 5.41438 37.2118 5.41438 34.5374V10.2861C5.41438 7.61161 7.60347 5.43578 10.2942 5.43578H53.2367C55.9274 5.43578 58.1165 7.61161 58.1165 10.2861V22.4117C58.1165 23.7511 59.2089 24.8369 60.5564 24.8369Z" fill="url(#paint0_linear)"/>
<path d="M46.1527 17.5517V24.5005C46.1527 25.6082 45.2469 26.5146 44.1399 26.5146C43.0328 26.5146 42.127 25.6082 42.127 24.5005V19.6162L35.243 26.4944C33.4918 28.2367 30.704 28.2971 28.8823 26.6354L27.8558 25.6989C27.6243 25.4874 27.262 25.4974 27.0405 25.7291L20.851 32.2448C20.4585 32.6577 19.9251 32.8691 19.3917 32.8691C18.8985 32.8691 18.3953 32.6879 18.0028 32.3153C17.1976 31.5499 17.1674 30.2709 17.9323 29.4653L24.132 22.9395C24.9774 22.0634 26.1046 21.5498 27.3123 21.5095C28.52 21.4692 29.6875 21.8922 30.5731 22.718L31.5997 23.6545C31.8312 23.866 32.1834 23.8559 32.4048 23.6344L39.5002 16.5447H34.4781C33.371 16.5447 32.4652 15.6383 32.4652 14.5305C32.4652 13.4228 33.371 12.5164 34.4781 12.5164H41.1206C43.8983 12.5164 46.1527 14.7722 46.1527 17.5517Z" fill="url(#paint1_linear)"/>
<defs>
<linearGradient id="paint0_linear" x1="62.9964" y1="27.2546" x2="0.534547" y2="27.2546" gradientUnits="userSpaceOnUse">
<stop stop-color="#06EA84"/>
<stop offset="1" stop-color="#2BC47B"/>
</linearGradient>
<linearGradient id="paint1_linear" x1="46.1527" y1="22.6928" x2="17.3782" y2="22.6928" gradientUnits="userSpaceOnUse">
<stop stop-color="#06EA84"/>
<stop offset="1" stop-color="#2BC47B"/>
</linearGradient>
</defs>
</svg>
