<svg width="43" height="39" viewBox="0 0 43 39" fill="none" xmlns="http://www.w3.org/2000/svg">
<path d="M10.2372 31.4992C5.89349 28.0381 3.40234 22.8699 3.40234 17.3198C3.40234 11.7699 5.89333 6.60177 10.2368 3.14063C10.7557 2.72719 10.841 1.97141 10.4276 1.45266C10.0142 0.933837 9.25846 0.848394 8.73963 1.26184C3.82099 5.18142 1 11.0343 1 17.3198C1 23.6056 3.82107 29.4585 8.74003 33.3781C9.25853 33.7914 10.0144 33.7063 10.428 33.1873C10.8414 32.6684 10.756 31.9127 10.2372 31.4992Z" fill="url(#paint0_linear)"/>
<path d="M34.2605 1.26184C33.7416 0.848479 32.986 0.933842 32.5726 1.45267C32.1591 1.97149 32.2445 2.72719 32.7633 3.14063C37.1067 6.60185 39.5977 11.7699 39.5977 17.3198C39.5977 22.8697 37.1067 28.0378 32.7632 31.4989C32.2444 31.9124 32.159 32.6682 32.5725 33.1869C32.9861 33.7061 33.7419 33.7909 34.2604 33.3777C39.179 29.4581 42 23.6052 42 17.3198C42 11.0344 39.179 5.18151 34.2605 1.26184Z" fill="url(#paint1_linear)"/>
<path d="M14.2397 26.4854C11.4237 24.2455 9.80859 20.9048 9.80859 17.3198C9.80859 13.7348 11.4237 10.394 14.2398 8.15408C14.7589 7.74112 14.8451 6.9855 14.4321 6.46627C14.019 5.94705 13.2634 5.86096 12.7443 6.27393C9.35191 8.97232 7.40625 12.9983 7.40625 17.3198C7.40625 21.6412 9.35191 25.6672 12.7442 28.3656C13.2637 28.7787 14.0192 28.6922 14.432 28.1732C14.8449 27.6541 14.7589 26.8984 14.2397 26.4854Z" fill="url(#paint2_linear)"/>
<path d="M30.2558 6.27409C29.7366 5.86121 28.981 5.94721 28.568 6.46644C28.155 6.98558 28.2411 7.74128 28.7603 8.15424C31.5763 10.3941 33.1914 13.7348 33.1914 17.3198C33.1914 20.9048 31.5763 24.2456 28.7602 26.4855C28.241 26.8984 28.1549 27.6541 28.5679 28.1733C28.9811 28.6928 29.7369 28.7784 30.2557 28.3656C33.6481 25.6672 35.5937 21.6412 35.5937 17.3198C35.5937 12.9984 33.6481 8.9724 30.2558 6.27409Z" fill="url(#paint3_linear)"/>
<path d="M21.5 11.3301C18.1884 11.3301 15.4941 14.0243 15.4941 17.3359C15.4941 20.2363 17.5608 22.6629 20.2988 23.2209V36.6347C20.2988 37.2981 20.8366 37.8359 21.5 37.8359C22.1634 37.8359 22.7012 37.2981 22.7012 36.6347V23.2209C25.4392 22.663 27.5059 20.2363 27.5059 17.3359C27.5059 14.0243 24.8116 11.3301 21.5 11.3301Z" fill="url(#paint4_linear)"/>
<path d="M10.2372 31.4992C5.89349 28.0381 3.40234 22.8699 3.40234 17.3198C3.40234 11.7699 5.89333 6.60177 10.2368 3.14063C10.7557 2.72719 10.841 1.97141 10.4276 1.45266C10.0142 0.933837 9.25846 0.848394 8.73963 1.26184C3.82099 5.18142 1 11.0343 1 17.3198C1 23.6056 3.82107 29.4585 8.74003 33.3781C9.25853 33.7914 10.0144 33.7063 10.428 33.1873C10.8414 32.6684 10.756 31.9127 10.2372 31.4992Z" stroke="url(#paint5_linear)"/>
<path d="M34.2605 1.26184C33.7416 0.848479 32.986 0.933842 32.5726 1.45267C32.1591 1.97149 32.2445 2.72719 32.7633 3.14063C37.1067 6.60185 39.5977 11.7699 39.5977 17.3198C39.5977 22.8697 37.1067 28.0378 32.7632 31.4989C32.2444 31.9124 32.159 32.6682 32.5725 33.1869C32.9861 33.7061 33.7419 33.7909 34.2604 33.3777C39.179 29.4581 42 23.6052 42 17.3198C42 11.0344 39.179 5.18151 34.2605 1.26184Z" stroke="url(#paint6_linear)"/>
<path d="M14.2397 26.4854C11.4237 24.2455 9.80859 20.9048 9.80859 17.3198C9.80859 13.7348 11.4237 10.394 14.2398 8.15408C14.7589 7.74112 14.8451 6.9855 14.4321 6.46627C14.019 5.94705 13.2634 5.86096 12.7443 6.27393C9.35191 8.97232 7.40625 12.9983 7.40625 17.3198C7.40625 21.6412 9.35191 25.6672 12.7442 28.3656C13.2637 28.7787 14.0192 28.6922 14.432 28.1732C14.8449 27.6541 14.7589 26.8984 14.2397 26.4854Z" stroke="url(#paint7_linear)"/>
<path d="M30.2558 6.27409C29.7366 5.86121 28.981 5.94721 28.568 6.46644C28.155 6.98558 28.2411 7.74128 28.7603 8.15424C31.5763 10.3941 33.1914 13.7348 33.1914 17.3198C33.1914 20.9048 31.5763 24.2456 28.7602 26.4855C28.241 26.8984 28.1549 27.6541 28.5679 28.1733C28.9811 28.6928 29.7369 28.7784 30.2557 28.3656C33.6481 25.6672 35.5937 21.6412 35.5937 17.3198C35.5937 12.9984 33.6481 8.9724 30.2558 6.27409Z" stroke="url(#paint8_linear)"/>
<path d="M21.5 11.3301C18.1884 11.3301 15.4941 14.0243 15.4941 17.3359C15.4941 20.2363 17.5608 22.6629 20.2988 23.2209V36.6347C20.2988 37.2981 20.8366 37.8359 21.5 37.8359C22.1634 37.8359 22.7012 37.2981 22.7012 36.6347V23.2209C25.4392 22.663 27.5059 20.2363 27.5059 17.3359C27.5059 14.0243 24.8116 11.3301 21.5 11.3301Z" stroke="url(#paint9_linear)"/>
<defs>
<linearGradient id="paint0_linear" x1="42" y1="19.418" x2="1" y2="19.418" gradientUnits="userSpaceOnUse">
<stop stop-color="#06EA84"/>
<stop offset="1" stop-color="#2BC47B"/>
</linearGradient>
<linearGradient id="paint1_linear" x1="42" y1="19.418" x2="1" y2="19.418" gradientUnits="userSpaceOnUse">
<stop stop-color="#06EA84"/>
<stop offset="1" stop-color="#2BC47B"/>
</linearGradient>
<linearGradient id="paint2_linear" x1="42" y1="19.418" x2="1" y2="19.418" gradientUnits="userSpaceOnUse">
<stop stop-color="#06EA84"/>
<stop offset="1" stop-color="#2BC47B"/>
</linearGradient>
<linearGradient id="paint3_linear" x1="42" y1="19.418" x2="1" y2="19.418" gradientUnits="userSpaceOnUse">
<stop stop-color="#06EA84"/>
<stop offset="1" stop-color="#2BC47B"/>
</linearGradient>
<linearGradient id="paint4_linear" x1="42" y1="19.418" x2="1" y2="19.418" gradientUnits="userSpaceOnUse">
<stop stop-color="#06EA84"/>
<stop offset="1" stop-color="#2BC47B"/>
</linearGradient>
<linearGradient id="paint5_linear" x1="42" y1="19.418" x2="1" y2="19.418" gradientUnits="userSpaceOnUse">
<stop stop-color="#06EA84"/>
<stop offset="1" stop-color="#2BC47B"/>
</linearGradient>
<linearGradient id="paint6_linear" x1="42" y1="19.418" x2="1" y2="19.418" gradientUnits="userSpaceOnUse">
<stop stop-color="#06EA84"/>
<stop offset="1" stop-color="#2BC47B"/>
</linearGradient>
<linearGradient id="paint7_linear" x1="42" y1="19.418" x2="1" y2="19.418" gradientUnits="userSpaceOnUse">
<stop stop-color="#06EA84"/>
<stop offset="1" stop-color="#2BC47B"/>
</linearGradient>
<linearGradient id="paint8_linear" x1="42" y1="19.418" x2="1" y2="19.418" gradientUnits="userSpaceOnUse">
<stop stop-color="#06EA84"/>
<stop offset="1" stop-color="#2BC47B"/>
</linearGradient>
<linearGradient id="paint9_linear" x1="42" y1="19.418" x2="1" y2="19.418" gradientUnits="userSpaceOnUse">
<stop stop-color="#06EA84"/>
<stop offset="1" stop-color="#2BC47B"/>
</linearGradient>
</defs>
</svg>
