<?xml version="1.0" encoding="UTF-8" standalone="no"?>
<svg
   xmlns:dc="http://purl.org/dc/elements/1.1/"
   xmlns:cc="http://creativecommons.org/ns#"
   xmlns:rdf="http://www.w3.org/1999/02/22-rdf-syntax-ns#"
   xmlns:svg="http://www.w3.org/2000/svg"
   xmlns="http://www.w3.org/2000/svg"
   xmlns:sodipodi="http://sodipodi.sourceforge.net/DTD/sodipodi-0.dtd"
   xmlns:inkscape="http://www.inkscape.org/namespaces/inkscape"
   width="14"
   height="15"
   viewBox="0 0 14 15"
   fill="none"
   version="1.1"
   id="svg11"
   sodipodi:docname="4g.svg"
   inkscape:version="0.92.4 (unknown)">
  <metadata
     id="metadata15">
    <rdf:RDF>
      <cc:Work
         rdf:about="">
        <dc:format>image/svg+xml</dc:format>
        <dc:type
           rdf:resource="http://purl.org/dc/dcmitype/StillImage" />
      </cc:Work>
    </rdf:RDF>
  </metadata>
  <sodipodi:namedview
     pagecolor="#ffffff"
     bordercolor="#666666"
     borderopacity="1"
     objecttolerance="10"
     gridtolerance="10"
     guidetolerance="10"
     inkscape:pageopacity="0"
     inkscape:pageshadow="2"
     inkscape:window-width="1259"
     inkscape:window-height="855"
     id="namedview13"
     showgrid="false"
     inkscape:zoom="22.250293"
     inkscape:cx="4.5793564"
     inkscape:cy="6.7380289"
     inkscape:window-x="286"
     inkscape:window-y="84"
     inkscape:window-maximized="0"
     inkscape:current-layer="svg11" />
  <g
     clip-path="url(#clip0)"
     fill="#2BEC94"
     id="g4">
    <path
       d="M3.245 9.69a.415.415 0 0 0-.467.07l-1.75 1.603a.484.484 0 0 0-.153.356v2.812c0 .259.196.469.438.469h1.75c.241 0 .437-.21.437-.469v-4.415c0-.183-.1-.35-.255-.426zm-.62 4.373H1.75v-2.129l.875-.801v2.93zM6.939 6.676c-.008-.016-.014-.03-.024-.044-.008-.011-.011-.025-.02-.037a.44.44 0 0 0-.145-.117c-.002 0-.003-.003-.005-.004-.006-.002-.012 0-.018-.002a.403.403 0 0 0-.246-.025.417.417 0 0 0-.203.097l-1.75 1.603a.5.5 0 0 0-.153.356v6.028c0 .259.196.469.438.469h1.75c.241 0 .437-.21.437-.469V6.9a.488.488 0 0 0-.061-.224zm-.814 7.386H5.25V8.72l.875-.802v6.146zM10.245 3.259a.416.416 0 0 0-.467.07L8.028 4.93a.484.484 0 0 0-.153.356v9.244c0 .259.196.469.438.469h1.75c.241 0 .437-.21.437-.469V3.684c0-.182-.1-.35-.255-.425zm-.62 10.804H8.75V5.504l.875-.801v9.36zM13.745.043a.417.417 0 0 0-.467.07l-1.75 1.603a.484.484 0 0 0-.153.356v12.46c0 .258.196.468.438.468h1.75c.241 0 .437-.21.437-.469V.47c0-.183-.1-.35-.255-.426zm-.62 14.02h-.875V2.287l.875-.801v12.577z"
       id="path2" />
  </g>
  <defs
     id="defs9">
    <clipPath
       id="clip0">
      <path
         fill="#fff"
         d="M0 0h14v15H0z"
         id="path6" />
    </clipPath>
  </defs>
</svg>
