<svg width="159" height="155" viewBox="0 0 159 155" fill="none" xmlns="http://www.w3.org/2000/svg"><path d="M0 2.705A2.504 2.504 0 0 1 2.504.2h153.992A2.504 2.504 0 0 1 159 2.705v148.984a2.504 2.504 0 0 1-2.504 2.504H2.504A2.504 2.504 0 0 1 0 151.689V2.705z" fill="#27364D"/><path d="M60.612 93.338H35.768l-5.645 15.158h-2.056l18.99-50.734h2.3l18.99 50.734h-2.055l-5.68-15.157zm-24.147-1.881h23.45l-11.707-31.43-11.743 31.43zM78.418 87.067v21.429h-1.882V57.762h15.855c5.18 0 9.199 1.313 12.056 3.937 2.881 2.602 4.321 6.226 4.321 10.872 0 4.6-1.406 8.154-4.216 10.663-2.788 2.508-6.76 3.786-11.917 3.833H78.418zm0-1.882h13.973c4.576 0 8.13-1.104 10.662-3.31 2.556-2.207 3.833-5.285 3.833-9.234 0-4.089-1.277-7.271-3.833-9.548-2.532-2.3-6.086-3.45-10.662-3.45H78.418v25.542zM122.671 108.496h-1.882V57.762h1.882v50.734z" fill="#fff"/><path d="M0 2.705A2.504 2.504 0 0 1 2.504.2h153.992A2.504 2.504 0 0 1 159 2.705v18.153H0V2.705z" fill="#212F44"/><path d="M12.52 10.217a3.13 3.13 0 1 1-6.26 0 3.13 3.13 0 0 1 6.26 0z" fill="#C43E2B"/><path d="M22.535 10.217a3.13 3.13 0 1 1-6.26 0 3.13 3.13 0 0 1 6.26 0z" fill="#FFCD38"/><path d="M33.177 10.217a3.13 3.13 0 1 1-6.26 0 3.13 3.13 0 0 1 6.26 0z" fill="#2BC47C"/></svg>