<svg width="70" height="71" viewBox="0 0 70 71" fill="none" xmlns="http://www.w3.org/2000/svg"><path fill-rule="evenodd" clip-rule="evenodd" d="M69.866 8.424a1.405 1.405 0 0 0-.058-.366.841.841 0 0 0-.03-.085h-.001l-.013-.032a1.4 1.4 0 0 0-.193-.348 1.392 1.392 0 0 0-.187-.196l-.032-.03c-.018-.017-.036-.034-.056-.049a.078.078 0 0 1-.006-.005l-.007-.006a1.399 1.399 0 0 0-.326-.175l-.006-.004-.006-.003L50.16.312a1.384 1.384 0 0 0-.935-.004L30.442 6.895c-.555.195-.93.718-.939 1.31a.3.3 0 0 0 .008.064.374.374 0 0 1 .008.05.728.728 0 0 1-.007.05c-.004.027-.009.053-.009.08v24.388c0 .589.365 1.116.915 1.32L49.2 41.135c.005.002.011.002.017.003.005 0 .011.001.016.003.146.05.298.081.452.081a1.386 1.386 0 0 0 .46-.083l.009-.001.017-.003 18.783-6.978c.55-.204.914-.731.914-1.32V8.446v-.003l-.001-.01a.051.051 0 0 1-.002-.01zm-21.58 29.369l-15.983-5.937V10.47l15.378 5.712.605.233v21.377zm1.4-23.867l-1.054-.392-13.65-5.249 14.697-5.154 14.707 5.335-14.7 5.46zm17.383 17.93l-15.983 5.937V16.427l15.983-5.955v21.384zM1.4 70.629h9.726c.773 0 1.4-.63 1.4-1.408v-6.143c1.672.15 3.327.677 4.837 1.592l3.563 2.163c4.094 2.483 8.676 3.796 13.252 3.796h11.99c5.735 0 11.313-1.998 16.132-5.779l6.018-4.722C69.371 59.3 70 57.927 70 56.452c0-1.782-.918-3.387-2.339-4.089-1.22-.603-2.605-.452-3.706.403l-4.12 3.2c-4.296 3.336-9.242 5.1-14.302 5.1h-8.587c-.871 0-1.607-1.05-1.607-2.293 0-1.242.736-2.292 1.607-2.292h8.233c1.888 0 3.423-1.748 3.423-3.897 0-1.52-.778-2.91-1.983-3.54l-1.393-.73c-1.63-.854-3.358-1.287-5.137-1.287h-8.416c-2.272 0-4.427-1.111-6.067-3.13-2.149-2.645-5.15-4.162-8.235-4.162h-4.845v-4.904c0-.778-.627-1.409-1.4-1.409H1.4c-.773 0-1.4.63-1.4 1.409v34.39C0 70 .627 70.63 1.4 70.63zm11.126-28.078h4.845c2.273 0 4.428 1.111 6.067 3.129 2.15 2.645 5.151 4.163 8.235 4.163h8.416c1.324 0 2.617.326 3.842.968l1.395.731c.236.124.476.521.476 1.042 0 .66-.369 1.081-.623 1.081h-8.233c-2.43 0-4.407 2.292-4.407 5.108 0 2.817 1.977 5.108 4.407 5.108h8.587c5.685 0 11.222-1.966 16.014-5.687l4.119-3.2c.257-.2.498-.234.76-.104.386.19.774.748.774 1.562 0 .605-.232 1.163-.604 1.455l-6.019 4.723c-4.321 3.391-9.304 5.183-14.41 5.183h-11.99c-4.065 0-8.148-1.173-11.805-3.391l-3.563-2.163a14.015 14.015 0 0 0-6.283-1.998v-17.71zM2.8 36.238h6.926v31.575H2.8V36.238zM60.405 24.43l.695-2.78v8.259l.978.147 2.157-7.01 1.966-.492-.242-.97-2.24.56-.274.068-.083.27-1.262 4.101V17.59l-.985-.122-1.624 6.497-2.035 1.017-.218.11-.048.24-.489 2.442-.764-6.88-.987-.043-1.072 5.36-2.022 1.011.448.895 2.24-1.12.218-.11.048-.24.489-2.442.764 6.88.987.043 1.072-5.36 2.022-1.011.205-.103.056-.223z" fill="url(#paint0_linear)"/><defs><linearGradient id="paint0_linear" x1="70" y1="35.429" x2="0" y2="35.429" gradientUnits="userSpaceOnUse"><stop stop-color="#06EA84"/><stop offset="1" stop-color="#2BC47B"/></linearGradient></defs></svg>