<svg width="312" height="298" viewBox="0 0 312 298" fill="none" xmlns="http://www.w3.org/2000/svg"><circle cx="147.5" cy="143.5" r="125.5" fill="#F8FCFF"/><g filter="url(#filter0_d)"><path d="M13.022 236.587l-2.5-122.325 86.381 48.924v123.839l-83.881-50.438z" fill="#EFEDEE"/><path d="M213.942 10.976L10.522 114.261l86.381 48.924L301.288 46.239l-87.346-35.264z" fill="#FBFBFB"/><path d="M290.98 163.186L96.903 287.025V163.186l203.3-116.947-9.223 116.947z" fill="url(#paint0_radial)"/><path d="M196.614 152.99l.038 3.008-10.045 6.433.24 18.976 10.079-6.457.037 2.932-14.642 9.378-.314-24.914 14.607-9.356zm33.405 3.719l-.038-3.008 10.044-6.433-.239-18.975-10.08 6.456-.037-2.931 14.643-9.379.314 24.914-14.607 9.356zm-26.339-15.136l3.758-3.759 18.489 12.932-17.095 7.645 13.997 9.814-3.76 3.761-18.496-12.956 17.13-7.629-14.023-9.808z" fill="#2BC47C"/></g><defs><filter id="filter0_d" x=".522" y=".975" width="310.766" height="296.049" filterUnits="userSpaceOnUse" color-interpolation-filters="sRGB"><feFlood flood-opacity="0" result="BackgroundImageFix"/><feColorMatrix in="SourceAlpha" values="0 0 0 0 0 0 0 0 0 0 0 0 0 0 0 0 0 0 127 0"/><feOffset/><feGaussianBlur stdDeviation="5"/><feColorMatrix values="0 0 0 0 0.913026 0 0 0 0 0.961214 0 0 0 0 0.995633 0 0 0 1 0"/><feBlend in2="BackgroundImageFix" result="effect1_dropShadow"/><feBlend in="SourceGraphic" in2="effect1_dropShadow" result="shape"/></filter><radialGradient id="paint0_radial" cx="0" cy="0" r="1" gradientUnits="userSpaceOnUse" gradientTransform="matrix(-26.75492 108.16827 -81.22094 -20.08962 178.698 178.092)"><stop stop-color="#fff"/><stop offset=".994" stop-color="#F4F4F5"/></radialGradient></defs></svg>