<svg width="70" height="63" viewBox="0 0 70 63" fill="none" xmlns="http://www.w3.org/2000/svg"><path fill-rule="evenodd" clip-rule="evenodd" d="M18.74 7.479L35.526.119c.344-.15.614-.167.997 0l16.784 7.36c.398.175.73.734.73 1.24v18.278l15.235 6.681c.398.174.729.734.729 1.24V53.61c-.004.468-.3.921-.73 1.111l-16.693 7.321-.026.013-.064.025a2.372 2.372 0 0 1-.026.018l-.012.008a1.261 1.261 0 0 1-1.369-.205L35 54.85l-16.4 7.192-.008.004-.017.009-.064.025a1.28 1.28 0 0 1-.039.026 1.261 1.261 0 0 1-1.369-.205L.73 54.721A1.257 1.257 0 0 1 0 53.609V34.866c0-.51.175-.945.73-1.188l16.783-7.36c.177-.077.335-.12.499-.12V8.668c0-.51.174-.945.729-1.188zM51.58 26.28l-.09.037-14.237 6.243V16.755l14.327-6.287v15.813zm-12.96 8.683l13.37 5.856 13.738-6.018-13.364-5.866-13.745 6.028zm11.144-26.36l-13.74-6.032-13.739 6.031 13.74 6.018 13.739-6.018zm-14.968 8.15l-14.327-6.286v16.137l14.327 6.287V16.755zm1.638 19.913l14.327 6.286V59.09l-14.327-6.286V36.667zm31.11 0v16.137L53.217 59.09V42.953l14.328-6.286zm-49.531-7.896l13.739 6.03-13.74 6.019-13.738-6.018 13.739-6.03zM2.456 36.667l14.328 6.286V59.09L2.456 52.804V36.667zm31.111 0v16.137L19.24 59.09V42.953l14.327-6.286z" fill="url(#paint0_linear)"/><defs><linearGradient id="paint0_linear" x1="70" y1="31.111" x2="0" y2="31.111" gradientUnits="userSpaceOnUse"><stop stop-color="#06EA84"/><stop offset="1" stop-color="#2BC47B"/></linearGradient></defs></svg>