<svg width="174" height="252" viewBox="0 0 174 252" fill="none" xmlns="http://www.w3.org/2000/svg"><path d="M.659 141.817l86.178 46.115 86.177-46.137-86.177-49.007L.659 141.817z" fill="#99B2C5"/><path d="M.66 141.795l86.177 46.137v26.772l-86.26-46.18.082-26.729z" fill="#C9DBEB"/><path d="M86.837 187.932l86.178-46.137v26.773l-86.26 46.18.082-26.816z" fill="#BCD2E4"/><path d="M.74 111.187l86.178 46.115 86.178-46.137-86.178-49.007L.74 111.187z" fill="#99B2C5"/><path d="M.74 111.165l86.178 46.137v26.772L.66 137.894l.082-26.729z" fill="#C9DBEB"/><path d="M86.918 157.302l86.178-46.137v26.772l-86.26 46.181.082-26.816z" fill="#BCD2E4"/><path d="M.74 80.6l86.178 46.115 86.178-46.136L86.918 31.57.74 80.601z" fill="#99B2C5"/><path d="M.74 80.579l86.178 46.136v26.773L.66 107.307l.082-26.728z" fill="#C9DBEB"/><path d="M86.918 126.715l86.178-46.136v26.772l-86.26 46.18.082-26.816z" fill="#BCD2E4"/><path d="M.822 49.97L87 96.086l86.177-46.137L87 .941.822 49.97z" fill="#DDEAF6"/><path d="M.822 49.948L87 96.085v26.772L.74 76.677l.082-26.729z" fill="#C9DBEB"/><path d="M87 96.085l86.178-46.137v26.773l-86.26 46.18L87 96.085z" fill="#BCD2E4"/><path d="M63 61.875V41.042l14.81 8.245V71.13L63 61.875z" fill="#EFEDEE"/><path d="M97.061 23L63 41.042l14.81 8.245 33.69-18.512L97.061 23z" fill="#FBFBFB"/><path d="M111.5 51.508L77.81 71.13V49.286l33.69-18.511v20.733z" fill="url(#paint0_radial)"/><path d="M93.21 48.686l.008.536-1.79 1.147.042 3.383 1.797-1.151.006.522-2.61 1.672-.056-4.441 2.604-1.668zM99.166 49.35l-.007-.537 1.79-1.147-.042-3.383-1.797 1.151-.007-.522 2.611-1.672.056 4.441-2.604 1.668zM94.47 46.65l.67-.67 3.296 2.306-3.047 1.363 2.495 1.75-.67.67-3.297-2.31 3.053-1.36-2.5-1.748z" fill="#2BC47C"/><defs><radialGradient id="paint0_radial" cx="0" cy="0" r="1" gradientUnits="userSpaceOnUse" gradientTransform="rotate(103.893 25.972 62.602) scale(19.8632 14.9148)"><stop stop-color="#fff"/><stop offset=".994" stop-color="#F4F4F5"/></radialGradient></defs></svg>