<svg width="367" height="290" viewBox="0 0 367 290" fill="none" xmlns="http://www.w3.org/2000/svg"><path d="M84.285 236.641l99.358 53.274L283 236.616 183.643 180l-99.358 56.641z" fill="#F5FAFE"/><path d="M84.09 162.749l99.359 53.274 99.357-53.3-99.357-56.615-99.358 56.641z" fill="#99B2C5"/><path d="M84.094 162.722l99.358 53.299v30.929L84 193.6l.094-30.878z" fill="#C9DBEB"/><path d="M183.45 216.021l99.358-53.299v30.928L183.356 247l.094-30.979z" fill="#BCD2E4"/><path d="M84.19 127.362l99.357 53.273 99.357-53.299-99.357-56.615-99.358 56.641z" fill="#99B2C5"/><path d="M84.185 127.335l99.357 53.299v30.929l-99.451-53.35.094-30.878z" fill="#C9DBEB"/><path d="M183.548 180.634l99.358-53.299v30.929l-99.452 53.349.094-30.979z" fill="#BCD2E4"/><path d="M84.19 92.028l99.357 53.274 99.357-53.3-99.357-56.615-99.358 56.641z" fill="#99B2C5"/><path d="M84.185 92.001l99.357 53.299v30.929l-99.451-53.35.094-30.878z" fill="#C9DBEB"/><path d="M183.548 145.3l99.358-53.299v30.929l-99.452 53.35.094-30.98z" fill="#BCD2E4"/><path d="M84.285 56.642l99.358 53.273L283 56.615 183.643 0 84.285 56.642z" fill="#DDEAF6"/><path d="M84.283 56.614l99.358 53.3v30.928l-99.452-53.35.094-30.878z" fill="#C9DBEB"/><path d="M183.639 109.914l99.358-53.3v30.93l-99.452 53.349.094-30.979z" fill="#BCD2E4"/><path fill-rule="evenodd" clip-rule="evenodd" d="M.5 98.5H54v15H15.5v87H54v15H.5v-117zM366.5 98.5H313v15h38.5v87H313v15h53.5v-117z" fill="#2BC47C"/></svg>