<svg xmlns="http://www.w3.org/2000/svg" width="225" height="225" viewBox="0 0 59.531 59.531" id="svg1005"><defs id="defs999"><clipPath id="clipPath22"><path d="M0 595.276h841.89V0H0z" id="path20"/></clipPath><clipPath id="clipPath22-92"><path id="path20-2" d="M0 595.276h841.89V0H0z"/></clipPath><clipPath id="clipPath22-5"><path id="path20-6" d="M0 595.276h841.89V0H0z"/></clipPath><clipPath id="clipPath22-9"><path id="path20-1" d="M0 595.276h841.89V0H0z"/></clipPath><clipPath id="clipPath22-9-6"><path id="path20-1-1" d="M0 595.276h841.89V0H0z"/></clipPath><style id="style2">.cls-1,.cls-14,.cls-2,.cls-20,.cls-5{fill:#fff}.cls-1,.cls-14,.cls-19,.cls-3{stroke:#45c4ff}.cls-23,.cls-3{fill:none}.cls-14,.cls-3{stroke-miterlimit:10;stroke-width:3.5px}.cls-15,.cls-19,.cls-22,.cls-4{fill:#45c4ff}.cls-5{stroke:#fff;stroke-width:.15px}.cls-7{fill:#9db3c7}.cls-8{fill:#ccdced}.cls-9{fill:#c0d3e6}.cls-10{fill:#4c86bd}.cls-11{fill:#1963aa}.cls-16{clip-path:url(#clip-path)}.cls-20{stroke:#2fde72;stroke-width:.25px}.cls-21,.cls-22{stroke:none}</style><filter filterUnits="userSpaceOnUse" height="56" width="56" y="0" x="369" id="Ellipse_263"><feOffset id="feOffset4" dy="2"/><feGaussianBlur id="feGaussianBlur6" result="blur" stdDeviation="2"/><feFlood id="feFlood8" flood-opacity=".102"/><feComposite result="result1" id="feComposite10" in2="blur" operator="in"/><feComposite id="feComposite12" in2="result1" in="SourceGraphic"/></filter><filter filterUnits="userSpaceOnUse" height="56" width="56" y="171" x="369" id="Ellipse_260"><feOffset id="feOffset15" dy="2"/><feGaussianBlur id="feGaussianBlur17" result="blur-2" stdDeviation="2"/><feFlood id="feFlood19" flood-opacity=".102"/><feComposite result="result1" id="feComposite21" in2="blur-2" operator="in"/><feComposite id="feComposite23" in2="result1" in="SourceGraphic"/></filter><clipPath id="clip-path"><path class="cls-1" data-name="Rectangle 170" id="Rectangle_170" d="M0 0h11.72v19.735H0z"/></clipPath><filter filterUnits="userSpaceOnUse" height="56" width="56" y="114" x="369" id="Path_563"><feOffset id="feOffset28" dy="2"/><feGaussianBlur id="feGaussianBlur30" result="blur-3" stdDeviation="2"/><feFlood id="feFlood32" flood-opacity=".102"/><feComposite result="result1" id="feComposite34" in2="blur-3" operator="in"/><feComposite id="feComposite36" in2="result1" in="SourceGraphic"/></filter><clipPath id="clip-path-3"><path class="cls-2" data-name="Rectangle 172" id="Rectangle_172" d="M0 0h18.257v27.648H0z"/></clipPath><filter filterUnits="userSpaceOnUse" height="56" width="56" y="244" x="369" id="Ellipse_262"><feOffset id="feOffset41" dy="2"/><feGaussianBlur id="feGaussianBlur43" result="blur-4" stdDeviation="2"/><feFlood id="feFlood45" flood-opacity=".102"/><feComposite result="result1" id="feComposite47" in2="blur-4" operator="in"/><feComposite id="feComposite49" in2="result1" in="SourceGraphic"/></filter><clipPath id="clip-path-4"><path class="cls-1" data-name="Rectangle 169" id="Rectangle_169" d="M0 0h21.958v23.815H0z"/></clipPath></defs><circle cy="27.649" cx="29.766" id="path184" r="20.417" fill="#eff4f7" stroke-width="1.058" stroke-linecap="round" stroke-linejoin="bevel" paint-order="fill markers stroke"/><g transform="matrix(.13769 0 0 .13723 -13.367 -86.639)" data-name="Group 454" id="Group_454" stroke-width="1.925"><g transform="translate(0 -3)" data-name="Group 448" id="Group_448"><path class="cls-3" data-name="Line 19" id="Line_19" fill="none" stroke="#45c4ff" stroke-width="6.737" stroke-miterlimit="10" d="M356.105 743.5v-42"/><path class="cls-3" data-name="Line 20" id="Line_20" fill="none" stroke="#45c4ff" stroke-width="6.737" stroke-miterlimit="10" d="M354.771 702.956h124.221"/><g id="g59" transform="translate(101 678)" filter="url(#Ellipse_263)"><circle transform="translate(375 4)" r="22" cy="22" cx="22" class="cls-4" data-name="Ellipse 263" id="Ellipse_263-2" fill="#45c4ff"/></g><g transform="translate(485.231 691.71)" data-name="Group 428" id="Group_428"><g data-name="Group 427" id="Group_427"><path d="M24.454 20.795H.6A.603.603 0 0 0 .6 22h23.851a.589.589 0 0 0 .6-.6.647.647 0 0 0-.6-.6z" class="cls-5" data-name="Path 356" id="Path_356" fill="#fff" stroke="#fff" stroke-width=".289"/><path d="M2.712 7.362h2.971v10.16H2.712zm4.133 5.6h2.971v4.521H6.845v-4.524zm4.176-11.8h2.971v16.317h-2.971zm4.176 7.448h2.971v8.912h-2.971V8.611zm4.133-.6V3.961h2.971v13.518H19.33V8.008zM2.107 18.685h20.881a.589.589 0 0 0 .6-.6V3.4a.589.589 0 0 0-.6-.6h-4.176a.589.589 0 0 0-.6.6v4h-2.971V.6a.589.589 0 0 0-.6-.6h-4.176a.589.589 0 0 0-.6.6v11.2H6.894V6.759a.589.589 0 0 0-.6-.6H2.107a.588.588 0 0 0-.6.6v11.323a.616.616 0 0 0 .6.6z" class="cls-5" data-name="Path 357" id="Path_357" fill="#fff" stroke="#fff" stroke-width=".289"/></g></g></g><g data-name="Group 447" id="Group_447"><g transform="translate(819 4080.68)" data-name="Group 426" id="Group_426"><path transform="translate(-610 -3162.765)" d="M214.934 51.8l-107.742 51.8L0 51.8 107.192 0z" data-name="Path 350" id="Path_350" opacity=".1"/><g transform="translate(-610 -3261.239)" data-name="Group 396" id="Group_396"><g data-name="Group 394" id="Group_394"><path transform="translate(0 -24.6)" d="M214.934 75.938l-107.742 51.8L0 75.938 107.192 24.6z" class="cls-7" data-name="Path 324" id="Path_324" fill="#9db3c7"/><path transform="translate(0 15.538)" d="M107.192 120.6L0 69.261V35.8l107.192 51.8z" class="cls-8" data-name="Path 325" id="Path_325" fill="#ccdced"/><path transform="translate(87.692 15.538)" d="M127.242 69.261L19.5 120.6v-33l107.742-51.8z" class="cls-9" data-name="Path 326" id="Path_326" fill="#c0d3e6"/></g><g transform="translate(76.89 20.169)" data-name="Group 395" id="Group_395"><path transform="translate(-13.988 -17.89)" d="M74.523 49.518V32.1s-61.017.458-60.467.917v16.5c-.55 4.125 2.2 8.251 8.8 11 12.093 5.5 31.333 5.5 42.877 0 6.591-3.206 9.34-7.332 8.79-10.999z" class="cls-10" data-name="Path 327" id="Path_327" fill="#4c86bd"/><ellipse transform="translate(.068)" ry="14.668" rx="30.234" cy="14.668" cx="30.234" class="cls-11" data-name="Ellipse 248" id="Ellipse_248" fill="#1963aa"/></g></g><g transform="translate(-610 -3298.826)" data-name="Group 399" id="Group_399"><g data-name="Group 397" id="Group_397"><path transform="translate(0 -16.4)" d="M214.934 68.2l-107.742 51.335L0 68.2l107.192-51.8z" class="cls-7" data-name="Path 328" id="Path_328" fill="#9db3c7"/><path transform="translate(0 24.097)" d="M107.192 112.041L0 60.7v-33l107.192 51.338z" class="cls-8" data-name="Path 329" id="Path_329" fill="#ccdced"/><path transform="translate(87.692 24.097)" d="M127.242 60.7L19.5 112.041v-33L127.242 27.7z" class="cls-9" data-name="Path 330" id="Path_330" fill="#c0d3e6"/></g><g transform="translate(76.684 20.169)" data-name="Group 398" id="Group_398"><path transform="translate(-13.781 -9.69)" d="M74.523 41.318V23.9s-61.017.458-60.467.917v16.5c-.55 4.125 2.2 8.251 8.8 11 12.093 5.5 31.333 5.5 42.877 0 6.591-3.206 9.34-6.873 8.79-10.999z" class="cls-10" data-name="Path 331" id="Path_331" fill="#4c86bd"/><path transform="translate(-13.95 -20.8)" d="M65.9 24.925c12.093 5.5 12.093 15.126 0 20.627-12.093 5.501-31.333 5.5-42.877 0-12.093-5.5-12.093-15.126 0-20.627 12.093-5.501 31.33-5.5 42.877 0z" class="cls-11" data-name="Path 332" id="Path_332" fill="#1963aa"/></g></g><g transform="translate(-610 -3336.413)" data-name="Group 402" id="Group_402"><g data-name="Group 400" id="Group_400"><path transform="translate(0 -8.2)" d="M214.934 60l-107.742 51.335L0 60 107.192 8.2z" class="cls-7" data-name="Path 333" id="Path_333" fill="#9db3c7"/><path transform="translate(0 32.297)" d="M107.192 104.3L0 52.5v-33l107.192 51.338z" class="cls-8" data-name="Path 334" id="Path_334" fill="#ccdced"/><path transform="translate(87.692 32.297)" d="M127.242 52.5L19.5 104.3V70.838L127.242 19.5z" class="cls-9" data-name="Path 335" id="Path_335" fill="#c0d3e6"/></g><g transform="translate(76.89 20.169)" data-name="Group 401" id="Group_401"><path transform="translate(-13.988 -1.49)" d="M74.523 33.118V15.7s-61.017.458-60.467.917v16.5c-.55 4.125 2.2 8.251 8.8 11 12.093 5.5 31.333 5.5 42.877 0 6.591-2.748 9.34-6.873 8.79-10.999z" class="cls-10" data-name="Path 336" id="Path_336" fill="#4c86bd"/><ellipse transform="translate(.068)" ry="14.668" rx="30.234" cy="14.668" cx="30.234" class="cls-11" data-name="Ellipse 249" id="Ellipse_249" fill="#1963aa"/></g></g><path transform="translate(-610 -3374)" d="M214.934 51.8l-107.742 51.8L0 51.8 107.192 0z" data-name="Path 337" id="Path_337" fill="#dfebf7"/><path transform="translate(-610 -3333.503)" d="M107.192 96.1L0 44.3v-33l107.192 51.8z" class="cls-8" data-name="Path 338" id="Path_338" fill="#ccdced"/><path transform="translate(-522.308 -3333.503)" d="M127.242 44.3L19.5 96.1v-33l107.742-51.8z" class="cls-9" data-name="Path 339" id="Path_339" fill="#c0d3e6"/></g><path d="M380.158 868.565a3.81 3.81 0 1 1-3.81 3.81 3.81 3.81 0 0 1 3.81-3.81z" data-name="Path 564" id="Path_564" fill="#fff" stroke="#45c4ff" stroke-width="6.737"/><circle transform="translate(340.816 851.227)" r="3.81" cy="3.81" cx="3.81" class="cls-14" data-name="Ellipse 254" id="Ellipse_254" fill="#fff" stroke="#45c4ff" stroke-width="6.737" stroke-miterlimit="10"/><circle transform="translate(397.353 815.218)" r="3.81" cy="3.81" cx="3.81" class="cls-14" data-name="Ellipse 255" id="Ellipse_255" fill="#fff" stroke="#45c4ff" stroke-width="6.737" stroke-miterlimit="10"/><circle transform="translate(234.79 766.873)" r="3.81" cy="3.81" cx="3.81" class="cls-14" data-name="Ellipse 256" id="Ellipse_256" fill="#fff" stroke="#45c4ff" stroke-width="6.737" stroke-miterlimit="10"/><circle transform="translate(230.932 803.644)" r="3.81" cy="3.81" cx="3.81" class="cls-14" data-name="Ellipse 257" id="Ellipse_257" fill="#fff" stroke="#45c4ff" stroke-width="6.737" stroke-miterlimit="10"/><circle transform="translate(238.6 864.754)" r="3.81" cy="3.81" cx="3.81" class="cls-14" data-name="Ellipse 258" id="Ellipse_258" fill="#fff" stroke="#45c4ff" stroke-width="6.737" stroke-miterlimit="10"/><path class="cls-3" data-name="Line 21" id="Line_21" fill="none" stroke="#45c4ff" stroke-width="6.737" stroke-miterlimit="10" d="M404.974 819.029h74.018"/><path class="cls-3" data-name="Line 22" id="Line_22" fill="none" stroke="#45c4ff" stroke-width="6.737" stroke-miterlimit="10" d="M344.626 858.848v85.926"/><path class="cls-3" data-name="Line 23" id="Line_23" fill="none" stroke="#45c4ff" stroke-width="6.737" stroke-miterlimit="10" d="M343.816 944.297h135.176"/><path class="cls-3" data-name="Line 24" id="Line_24" fill="none" stroke="#45c4ff" stroke-width="6.737" stroke-miterlimit="10" d="M383.969 872.375h95.023"/><path class="cls-3" data-name="Line 25" id="Line_25" fill="none" stroke="#45c4ff" stroke-width="6.737" stroke-miterlimit="10" d="M238.6 766.826v-31.389"/><path class="cls-3" data-name="Line 26" id="Line_26" fill="none" stroke="#45c4ff" stroke-width="6.737" stroke-miterlimit="10" d="M239.41 735.532h-96.928"/><path class="cls-3" data-name="Line 27" id="Line_27" fill="none" stroke="#45c4ff" stroke-width="6.737" stroke-miterlimit="10" d="M230.932 807.455h-88.45"/><path class="cls-3" data-name="Line 28" id="Line_28" fill="none" stroke="#45c4ff" stroke-width="6.737" stroke-miterlimit="10" d="M238.601 868.565h-96.119"/><g transform="translate(101 713)" class="cls-15" data-name="Path 562" id="Path_562" fill="#45c4ff"><path id="path109" d="M22 43.5a21.429 21.429 0 0 1-15.203-6.297A21.429 21.429 0 0 1 .5 22 21.429 21.429 0 0 1 6.797 6.797 21.429 21.429 0 0 1 22 .5a21.429 21.429 0 0 1 15.203 6.297A21.429 21.429 0 0 1 43.5 22a21.43 21.43 0 0 1-6.297 15.203A21.43 21.43 0 0 1 22 43.5z" class="cls-21"/><path id="path111" d="M22 1A20.931 20.931 0 0 0 7.15 7.15 20.931 20.931 0 0 0 1 22a20.931 20.931 0 0 0 6.15 14.85A20.931 20.931 0 0 0 22 43a20.931 20.931 0 0 0 14.85-6.15A20.931 20.931 0 0 0 43 22a20.931 20.931 0 0 0-6.15-14.85A20.931 20.931 0 0 0 22 1m0-1c12.15 0 22 9.85 22 22s-9.85 22-22 22S0 34.15 0 22 9.85 0 22 0z" class="cls-22"/></g><g transform="translate(3.165 3)" data-name="Group 445" id="Group_445"><g transform="translate(107.236 723.099)" data-name="Group 435" id="Group_435"><g data-name="Group 434" id="Group_434"><path transform="translate(0 -56.531)" d="M4.9 57.5a4.712 4.712 0 0 1 4.9 4.486.535.535 0 0 1-.556.51.5.5 0 0 1-.556-.51A3.64 3.64 0 0 0 4.9 58.52a3.48 3.48 0 1 0 0 6.933h19.521a.512.512 0 1 1 0 1.02H4.9a4.5 4.5 0 1 1 0-8.972z" class="cls-2" data-name="Path 362" id="Path_362" fill="#fff"/><path transform="translate(-9.096 -55.6)" d="M33.517 62.533h-9.234a3.48 3.48 0 1 1 0-6.933 3.674 3.674 0 0 1 3.783 3.467.558.558 0 0 1-1.113 0 2.736 2.736 0 1 0-2.726 2.5h9.234a.537.537 0 0 1 .556.51c.056.255-.223.459-.5.459z" class="cls-2" data-name="Path 363" id="Path_363" fill="#fff"/><path transform="translate(-1.775 -67.071)" d="M7.727 84.964a2.624 2.624 0 0 0 2.726-2.5.535.535 0 0 1 .556-.51.5.5 0 0 1 .556.51 3.64 3.64 0 0 1-3.783 3.467 3.48 3.48 0 1 1 0-6.933h18.47a.512.512 0 1 1 0 1.02H7.727A2.624 2.624 0 0 0 5 82.518a2.583 2.583 0 0 0 2.726 2.447z" class="cls-2" data-name="Path 364" id="Path_364" fill="#fff"/></g></g></g><g id="g121" transform="translate(101 675)" filter="url(#Ellipse_260)"><circle transform="translate(375 175)" r="22" cy="22" cx="22" class="cls-4" data-name="Ellipse 260" id="Ellipse_260-2" fill="#45c4ff"/></g><g transform="translate(3)" data-name="Group 446" id="Group_446"><g transform="translate(482.183 862.659)" data-name="Group 438" id="Group_438"><g clip-path="url(#clip-path)" class="cls-16" data-name="Group 437" id="Group_437"><path transform="translate(-760.4 -341.554)" d="M764.152 351.236l7.273-7.273a1.008 1.008 0 0 0 0-1.39l-.695-.695a1.008 1.008 0 0 0-1.39 0l-8.663 8.663a1.008 1.008 0 0 0 0 1.39l8.663 8.663a1.008 1.008 0 0 0 1.39 0l.695-.695a1.008 1.008 0 0 0 0-1.39zm0 0" class="cls-1" data-name="Path 366" id="Path_366" fill="#fff" stroke="#45c4ff"/></g></g><g transform="translate(496.463 862.659)" data-name="Group 441" id="Group_441"><g data-name="Group 440" id="Group_440"><g clip-path="url(#clip-path)" class="cls-16" data-name="Group 439" id="Group_439"><path transform="translate(-798.129 -341.554)" d="M798.778 358.509a1.008 1.008 0 0 0 0 1.39l.695.695a1.008 1.008 0 0 0 1.39 0l8.663-8.663a1.008 1.008 0 0 0 0-1.39l-8.663-8.663a1.008 1.008 0 0 0-1.39 0l-.695.695a1.008 1.008 0 0 0 0 1.39l7.273 7.273zm7.273-7.273" class="cls-1" data-name="Path 367" id="Path_367" fill="#fff" stroke="#45c4ff"/></g></g></g></g><g id="g136" transform="translate(101 675)" filter="url(#Path_563)"><g transform="translate(375 118)" class="cls-15" data-name="Path 563" id="Path_563-2" fill="#45c4ff"><path id="path131" d="M22 43.5a21.429 21.429 0 0 1-15.203-6.297A21.429 21.429 0 0 1 .5 22 21.429 21.429 0 0 1 6.797 6.797 21.429 21.429 0 0 1 22 .5a21.429 21.429 0 0 1 15.203 6.297A21.429 21.429 0 0 1 43.5 22a21.43 21.43 0 0 1-6.297 15.203A21.43 21.43 0 0 1 22 43.5z" class="cls-21"/><path id="path133" d="M22 1A20.931 20.931 0 0 0 7.15 7.15 20.931 20.931 0 0 0 1 22a20.931 20.931 0 0 0 6.15 14.85A20.931 20.931 0 0 0 22 43a20.931 20.931 0 0 0 14.85-6.15A20.931 20.931 0 0 0 43 22a20.931 20.931 0 0 0-6.15-14.85A20.931 20.931 0 0 0 22 1m0-1c12.15 0 22 9.85 22 22s-9.85 22-22 22S0 34.15 0 22 9.85 0 22 0z" class="cls-22"/></g></g><g transform="translate(488.279 801.977)" data-name="Group 444" id="Group_444"><g data-name="Group 443" id="Group_443"><g clip-path="url(#clip-path-3)" data-name="Group 442" id="Group_442"><path transform="translate(-769.036 -214.016)" d="M775.646 241.3a1.177 1.177 0 0 0 .363.081.98.98 0 0 0 .806-.443l10.116-14.63a1 1 0 0 0 .081-1.008.94.94 0 0 0-.846-.524l-6.287-.04 1.814-9.632a.972.972 0 0 0-.524-1.048.943.943 0 0 0-1.169.282l-10.721 13.5a.924.924 0 0 0-.121 1.008.957.957 0 0 0 .887.524l6.932.04-1.854 10.761a.937.937 0 0 0 .524 1.128zm-3.668-13.784l7.053-8.907-1.33 6.972a1.16 1.16 0 0 0 .2.806 1.054 1.054 0 0 0 .725.363l5.6.04-6.569 9.511 1.29-7.577a1.01 1.01 0 0 0-.2-.766.944.944 0 0 0-.725-.322zm0 0" class="cls-2" data-name="Path 368" id="Path_368" fill="#fff"/></g></g></g><g id="g143" transform="translate(101 675)" filter="url(#Ellipse_262)"><circle transform="translate(375 248)" r="22" cy="22" cx="22" class="cls-4" data-name="Ellipse 262" id="Ellipse_262-2" fill="#45c4ff"/></g><g transform="translate(487.089 932.39)" data-name="Group 433" id="Group_433"><g data-name="Group 432" id="Group_432"><g clip-path="url(#clip-path-4)" data-name="Group 431" id="Group_431"><path transform="translate(-768.6 -487.9)" d="M774.316 511.049s-5.716-.572-5.716-8.335a12.9 12.9 0 0 1 4.525-9.526 15.522 15.522 0 0 0 3.382 2.763c1.477.857 2.048-8.05 2.048-8.05s10.526 5.716 10.526 14.337c0 8.907-5.859 8.621-5.859 8.621a14.466 14.466 0 0 0 2.62-7.621c0-4.382-5.716-9.812-5.716-9.812s-.714 6.43-3.1 7.335a11.8 11.8 0 0 1-3.668-3.382s-5.335 8.526.953 13.67zm0 0" class="cls-1" data-name="Path 360" id="Path_360" fill="#fff" stroke="#45c4ff"/></g></g><path transform="translate(-774.203 -503.349)" d="M784.73 526.926c-2.953-.143-5.43-2.048-5.43-4.668a6.166 6.166 0 0 1 1-3.81 7.467 7.467 0 0 0 1.619 2.191c.857.714 2.62 1.143 3.525.143.857-.857 1.191-3.382 1.191-3.382a5.19 5.19 0 0 1 1.762 4.382c-.143 2.953-1.334 5.144-3.668 5.144zm0 0" class="cls-1" data-name="Path 361" id="Path_361" fill="#fff" stroke="#45c4ff"/></g><g transform="translate(101 784)" class="cls-19" data-name="Ellipse 264" id="Ellipse_264" fill="#45c4ff" stroke="#45c4ff"><circle id="circle150" r="22" cy="22" cx="22" class="cls-21" stroke="none"/><circle id="circle152" r="21.5" cy="22" cx="22" class="cls-23" fill="none"/></g><g transform="translate(116.904 794)" data-name="Group 430" id="Group_430"><g data-name="Group 429" id="Group_429"><path transform="translate(-13.602 -203.206)" d="M18.571 223.418a.724.724 0 1 1 .724-.724.71.71 0 0 1-.724.724zm.724-2.75v-13.844a.724.724 0 0 0-1.447 0v13.844a2.2 2.2 0 0 0-1.447 2.026 2.171 2.171 0 1 0 4.341 0 2.13 2.13 0 0 0-1.447-2.026z" class="cls-20" data-name="Path 358" id="Path_358" fill="#fff" stroke-width=".481"/><path transform="translate(-10.6 -200.1)" d="M15.569 223.206a3.562 3.562 0 0 1-3.57-3.57 3.519 3.519 0 0 1 1.206-2.653.775.775 0 0 0 .241-.531v-12.686a2.171 2.171 0 1 1 4.341 0v12.687a.775.775 0 0 0 .241.531 3.519 3.519 0 0 1 1.206 2.653 3.71 3.71 0 0 1-3.666 3.57zm5.789-18.765a.724.724 0 1 0 0-1.447h-2.22a3.617 3.617 0 0 0-3.521-2.894 3.562 3.562 0 0 0-3.57 3.57v12.4a5.017 5.017 0 1 0 7.139 0v-.1h2.171a.724.724 0 0 0 0-1.447h-2.171v-1.447h.724a.724.724 0 0 0 0-1.447h-.724v-1.447h2.171a.724.724 0 1 0 0-1.447h-2.171v-1.447h.724a.724.724 0 0 0 0-1.447h-.724v-1.5h2.171z" class="cls-20" data-name="Path 359" id="Path_359" fill="#fff" stroke-width=".481"/></g></g><g transform="translate(101 845)" class="cls-19" data-name="Ellipse 265" id="Ellipse_265" fill="#45c4ff" stroke="#45c4ff"><circle id="circle159" r="22" cy="22" cx="22" class="cls-21" stroke="none"/><circle id="circle161" r="21.5" cy="22" cx="22" class="cls-23" fill="none"/></g><g transform="translate(115.048 856.038)" data-name="Group 436" id="Group_436"><path transform="translate(-4.3 -319.8)" d="M17.747 328.454v-2.885a5.769 5.769 0 0 0-11.538 0v2.885a1.9 1.9 0 0 0-1.909 1.908v9.629a1.9 1.9 0 0 0 1.909 1.909h11.538a1.9 1.9 0 0 0 1.909-1.909v-9.629a1.875 1.875 0 0 0-1.909-1.909zm-9.587-2.885a3.86 3.86 0 0 1 7.72 0v2.885H8.16zm9.587 14.423H6.209v-9.629h11.538zm-6.7-4.115v1.23a.976.976 0 0 0 1.951 0v-1.23a1.875 1.875 0 0 0 .976-1.654 1.909 1.909 0 0 0-3.818 0 1.657 1.657 0 0 0 .891 1.654zm0 0" class="cls-2" data-name="Path 365" id="Path_365" fill="#fff"/></g></g></g></svg>