<svg width="70" height="70" viewBox="0 0 70 70" fill="none" xmlns="http://www.w3.org/2000/svg"><path d="M70 65.625V70H0V0h4.375v65.625H70zM31.296 24.297l17.871 4.465 6.187-10.305 5.605 3.367.291-17.449-15.257 8.468 5.605 3.367-4.515 7.528-17.129-4.285-18.376 18.375 3.094 3.094 16.624-16.624zM26.25 61.25H35V29.732l-2.363-.59-6.387 6.388v25.72zM13.125 45.562V61.25h8.75V39.905l-7.203 7.203-1.547-1.546zM52.5 31.719V61.25h8.75V27.1l-4.396-2.636L52.5 31.72zM48.125 61.25V33.013l-8.75-2.187V61.25h8.75z" fill="url(#paint0_linear)"/><defs><linearGradient id="paint0_linear" x1="70" y1="35" x2="0" y2="35" gradientUnits="userSpaceOnUse"><stop stop-color="#06EA84"/><stop offset="1" stop-color="#2BC47B"/></linearGradient></defs></svg>