<?xml version="1.0" encoding="utf-8"?>
<!-- Generator: Adobe Illustrator 23.0.4, SVG Export Plug-In . SVG Version: 6.00 Build 0)  -->
<svg version="1.1" id="Calque_1" xmlns="http://www.w3.org/2000/svg" xmlns:xlink="http://www.w3.org/1999/xlink" x="0px" y="0px"
	 viewBox="0 0 101 101" style="enable-background:new 0 0 101 101;" xml:space="preserve">
<style type="text/css">
	.st0{fill:#FFFFFF;}
	.st1{fill-rule:evenodd;clip-rule:evenodd;fill:#FFFFFF;}
</style>
<path class="st0" d="M66.2,29.6c-0.6,1.5-1.2,2.9-1.9,4.4c-0.6,1.3-1.3,1.7-2.8,1.3c-1.8-0.4-3.5-1-5.3-1.3
	c-3.5-0.7-6.9-0.8-10.3,0.3c-4.3,1.3-6.6,4.4-8,8.4h11.6c0.9,0,1.6,0.7,1.6,1.6V48c0,0.9-0.7,1.6-1.6,1.6H36.8c0,1,0,2,0,3h12.7
	c0.9,0,1.6,0.7,1.6,1.6v3.7c0,0.9-0.7,1.6-1.6,1.6H38.4c0,0,0,0.1,0,0.1c1.3,3,3.3,5.5,6.5,6.7c3.7,1.5,7.5,1.4,11.3,0.6
	c1.8-0.4,3.6-0.9,5.4-1.3c1.3-0.3,2.1,0.1,2.7,1.3c0.7,1.4,1.3,2.9,1.9,4.3c0.6,1.4,0.2,2.3-1.1,3.1c-0.3,0.2-0.7,0.3-1,0.5
	c-5.4,2.1-10.9,2.9-16.6,2c-4-0.6-7.8-2-11-4.5c-4.1-3.2-6.7-7.3-8.2-12.2l-0.2-0.6h-5.7c-0.9,0-1.6-0.7-1.6-1.6v-3.7
	c0-0.9,0.7-1.6,1.6-1.6h4.5c0-1,0-2,0-3h-4.5c-0.9,0-1.6-0.7-1.6-1.6v-3.7c0-0.9,0.7-1.6,1.6-1.6h5.4c0.4-1.3,0.8-2.7,1.3-4
	c2.7-6.6,7.3-11.3,14.3-13.6c5.7-1.9,11.5-1.8,17.2-0.2c1.5,0.4,3,0.9,4.4,1.6C66.3,27.2,66.7,28.2,66.2,29.6z"/>
<path class="st1" d="M50.5,94C74.5,94,94,74.5,94,50.5S74.5,7,50.5,7S7,26.5,7,50.5S26.5,94,50.5,94z M50.5,101
	c27.9,0,50.5-22.6,50.5-50.5S78.4,0,50.5,0S0,22.6,0,50.5S22.6,101,50.5,101z"/>
</svg>
