<svg width="101" height="101" viewBox="0 0 101 101" fill="none" xmlns="http://www.w3.org/2000/svg">
<path d="M66.1551 29.5688C65.5555 31.0344 64.9449 32.5001 64.2787 33.9435C63.6902 35.2315 62.9351 35.6091 61.525 35.2871C59.7374 34.8762 57.983 34.3322 56.1954 33.9657C52.7422 33.244 49.2779 33.1774 45.8692 34.2544C41.5944 35.5979 39.3182 38.6958 37.9192 42.693H49.5111C50.4216 42.693 51.1544 43.4259 51.1544 44.3363V47.9894C51.1544 48.8998 50.4216 49.6327 49.5111 49.6327H36.8088C36.8088 50.6542 36.7977 51.6313 36.8088 52.6084H49.5111C50.4216 52.6084 51.1544 53.3412 51.1544 54.2517V57.9047C51.1544 58.8152 50.4216 59.548 49.5111 59.548H38.4077C38.4077 59.5924 38.4077 59.6368 38.4299 59.659C39.7623 62.6903 41.7054 65.1219 44.8921 66.3877C48.6006 67.8534 52.3869 67.82 56.2065 67.0317C58.0163 66.6653 59.7929 66.1101 61.6027 65.6993C62.924 65.3995 63.6902 65.7881 64.2564 67.0206C64.9115 68.4418 65.5111 69.8853 66.1107 71.3398C66.677 72.7055 66.3439 73.6715 65.0559 74.4266C64.7339 74.6153 64.4008 74.7708 64.0566 74.904C58.7047 76.9915 53.1863 77.7687 47.4903 76.8582C43.482 76.2142 39.7401 74.8374 36.509 72.328C32.4341 69.1747 29.7915 65.0109 28.2592 60.1143L28.0704 59.548H22.3633C21.4528 59.548 20.72 58.8152 20.72 57.9047V54.2517C20.72 53.3412 21.4528 52.6084 22.3633 52.6084H26.8602C26.8602 51.6091 26.8602 50.6431 26.8602 49.6327H22.3633C21.4528 49.6327 20.72 48.8998 20.72 47.9894V44.3363C20.72 43.4259 21.4528 42.693 22.3633 42.693H27.7817C28.1926 41.3606 28.5368 40.006 29.0586 38.7291C31.8012 32.1115 36.398 27.4036 43.3154 25.1607C49.0337 23.3065 54.7963 23.362 60.559 24.9498C62.058 25.3606 63.5458 25.8936 64.9671 26.5487C66.3439 27.1816 66.6992 28.2475 66.1551 29.5688Z" fill="#7995AA"/>
<path fill-rule="evenodd" clip-rule="evenodd" d="M50.5 94C74.5244 94 94 74.5244 94 50.5C94 26.4756 74.5244 7 50.5 7C26.4756 7 7 26.4756 7 50.5C7 74.5244 26.4756 94 50.5 94ZM50.5 101C78.3904 101 101 78.3904 101 50.5C101 22.6096 78.3904 0 50.5 0C22.6096 0 0 22.6096 0 50.5C0 78.3904 22.6096 101 50.5 101Z" fill="#7995AA"/>
</svg>
