<?xml version="1.0" encoding="utf-8"?>
<!-- Generator: Adobe Illustrator 23.0.4, SVG Export Plug-In . SVG Version: 6.00 Build 0)  -->
<svg version="1.1" id="Calque_1" xmlns="http://www.w3.org/2000/svg" xmlns:xlink="http://www.w3.org/1999/xlink" x="0px" y="0px"
	 viewBox="0 0 101 101" style="enable-background:new 0 0 101 101;" xml:space="preserve">
<style type="text/css">
	.st0{fill:#FFFFFF;}
	.st1{fill-rule:evenodd;clip-rule:evenodd;fill:#FFFFFF;}
</style>
<path class="st0" d="M55.6,62.2c0-1.8-0.5-3.2-1.5-4.3c-1-1.1-2.6-2.1-5-3c-2.4-0.9-4.4-1.8-6.1-2.7c-1.7-0.9-3.2-1.9-4.4-3.1
	c-1.2-1.2-2.2-2.5-2.9-4.1c-0.7-1.6-1-3.4-1-5.6c0-3.7,1.2-6.8,3.5-9.2c2.3-2.4,5.4-3.8,9.3-4.2V19h5.2v7.2c3.8,0.6,6.8,2.2,9,4.9
	c2.2,2.7,3.2,6.2,3.2,10.5h-9.4c0-2.6-0.5-4.6-1.6-5.9c-1.1-1.3-2.5-2-4.3-2c-1.8,0-3.1,0.5-4.1,1.6c-1,1-1.5,2.4-1.5,4.2
	c0,1.7,0.5,3,1.4,4c1,1,2.7,2.1,5.3,3.1c2.6,1.1,4.7,2.1,6.4,3c1.7,0.9,3.1,2,4.2,3.2c1.1,1.2,2,2.5,2.6,4c0.6,1.5,0.9,3.3,0.9,5.3
	c0,3.8-1.1,6.8-3.4,9.1c-2.3,2.3-5.4,3.7-9.5,4.1V82h-5.2v-6.6c-4.4-0.5-7.9-2.1-10.3-4.8c-2.4-2.7-3.6-6.4-3.6-10.9h9.4
	c0,2.6,0.6,4.6,1.8,6.1c1.2,1.4,3,2.1,5.3,2.1c1.9,0,3.4-0.5,4.5-1.5C55.1,65.3,55.6,63.9,55.6,62.2z"/>
<path class="st1" d="M50.5,94C74.5,94,94,74.5,94,50.5S74.5,7,50.5,7S7,26.5,7,50.5S26.5,94,50.5,94z M50.5,101
	c27.9,0,50.5-22.6,50.5-50.5S78.4,0,50.5,0S0,22.6,0,50.5S22.6,101,50.5,101z"/>
</svg>
