<svg width="101" height="101" viewBox="0 0 101 101" fill="none" xmlns="http://www.w3.org/2000/svg">
<path d="M55.6302 62.1924C55.6302 60.3817 55.1331 58.9464 54.1388 57.8864C53.1662 56.8044 51.5019 55.8107 49.1459 54.9054C46.7899 54 44.7582 53.1057 43.0507 52.2224C41.3431 51.317 39.8734 50.2902 38.6413 49.142C37.4309 47.9716 36.4799 46.6025 35.7882 45.0347C35.1182 43.4669 34.7832 41.6009 34.7832 39.4369C34.7832 35.705 35.9504 32.6467 38.2847 30.2618C40.619 27.877 43.7207 26.4858 47.5897 26.0883V19H52.7771V26.1877C56.6028 26.7397 59.5964 28.3738 61.7579 31.0899C63.9193 33.7839 65 37.2839 65 41.5899H55.6302C55.6302 38.9401 55.0898 36.9637 54.0091 35.6609C52.95 34.336 51.5235 33.6735 49.7295 33.6735C47.9571 33.6735 46.5846 34.1924 45.612 35.2303C44.6393 36.2461 44.153 37.6593 44.153 39.47C44.153 41.1483 44.6285 42.4953 45.5795 43.511C46.5306 44.5268 48.2921 45.5647 50.8642 46.6246C53.458 47.6845 55.587 48.6893 57.2513 49.6388C58.9156 50.5662 60.3205 51.6262 61.4661 52.8186C62.6116 53.989 63.487 55.336 64.0922 56.8596C64.6974 58.3612 65 60.1167 65 62.1262C65 65.8801 63.8544 68.9274 61.5633 71.2681C59.2722 73.6088 56.1165 74.989 52.0963 75.4085V82H46.9412V75.4416C42.5103 74.9558 39.0736 73.3549 36.6312 70.6388C34.2104 67.9006 33 64.2681 33 59.7413H42.3698C42.3698 62.3691 42.975 64.3896 44.1854 65.8028C45.4174 67.194 47.179 67.8896 49.4701 67.8896C51.3722 67.8896 52.8744 67.3817 53.9767 66.3659C55.079 65.3281 55.6302 63.9369 55.6302 62.1924Z" fill="#7995AA"/>
<path fill-rule="evenodd" clip-rule="evenodd" d="M50.5 94C74.5244 94 94 74.5244 94 50.5C94 26.4756 74.5244 7 50.5 7C26.4756 7 7 26.4756 7 50.5C7 74.5244 26.4756 94 50.5 94ZM50.5 101C78.3904 101 101 78.3904 101 50.5C101 22.6096 78.3904 0 50.5 0C22.6096 0 0 22.6096 0 50.5C0 78.3904 22.6096 101 50.5 101Z" fill="#7995AA"/>
</svg>
