<svg width="43" height="39" viewBox="0 0 43 39" fill="none" xmlns="http://www.w3.org/2000/svg">
<path d="M40.582 30.7356C42.4727 28.845 42.4727 25.7748 40.582 23.8926C38.6914 22.0019 35.6212 22.0019 33.7389 23.8926L31.1707 26.4608C30.4596 27.1719 29.2968 27.1719 28.5857 26.4608L24.0013 21.8681C23.7169 21.5836 23.3321 21.4247 22.9389 21.4247C22.5373 21.4247 22.1525 21.5836 21.8765 21.8681C20.6216 23.1229 18.9568 23.8173 17.175 23.8173C15.3931 23.8173 13.7283 23.1229 12.4735 21.8681L8.32412 17.7187L17.7187 8.32411L21.8681 12.4735C23.0225 13.6279 23.7085 15.1588 23.8005 16.7818C23.8507 17.5849 24.5116 18.2039 25.3064 18.2039C25.3315 18.2039 25.3649 18.2039 25.3984 18.2039C26.2266 18.1537 26.8624 17.4427 26.8122 16.6145C26.6783 14.247 25.6745 12.0217 24.0013 10.3486L19.852 6.19924L20.3121 5.73913C20.8977 5.15354 20.8977 4.19986 20.3121 3.6059C19.7265 3.0203 18.7728 3.0203 18.1788 3.6059L15.2258 6.55896L10.106 1.4392C9.5204 0.853601 8.56672 0.853601 7.97276 1.4392C7.38717 2.02479 7.38717 2.97847 7.97276 3.57243L13.0925 8.6922L8.6922 13.0925L3.57243 7.97276C2.98684 7.38716 2.03316 7.38716 1.4392 7.97276C0.853601 8.55835 0.853601 9.51203 1.4392 10.106L6.56733 15.2258L3.61426 18.1788C3.02867 18.7644 3.02867 19.7181 3.61426 20.3121C3.90706 20.6049 4.29188 20.7554 4.6767 20.7554C5.06152 20.7554 5.44634 20.6049 5.73913 20.3121L6.19924 19.852L10.3486 24.0013C12.1723 25.825 14.5983 26.8289 17.175 26.8289C19.2413 26.8289 21.2156 26.1847 22.8552 24.9801L26.4608 28.5857C27.4061 29.531 28.6443 29.9995 29.8824 29.9995C31.1205 29.9995 32.3586 29.531 33.3039 28.5857L35.8722 26.0174C36.5832 25.3064 37.7461 25.3064 38.4571 26.0174C39.1682 26.7285 39.1682 27.8913 38.4571 28.6024L35.8889 31.1707C34.977 32.0825 34.4751 33.2955 34.4751 34.5922C34.4751 35.8889 34.977 37.1019 35.8889 38.0137C36.1817 38.3065 36.5665 38.4571 36.9513 38.4571C37.3362 38.4571 37.721 38.3065 38.0138 38.0137C38.5994 37.4282 38.5994 36.4745 38.0138 35.8805C37.6708 35.5375 37.4784 35.0774 37.4784 34.5922C37.4784 34.107 37.6708 33.6469 38.0138 33.3039L40.582 30.7356Z" fill="url(#paint0_linear)" stroke="url(#paint1_linear)"/>
<defs>
<linearGradient id="paint0_linear" x1="42" y1="19.7286" x2="1" y2="19.7286" gradientUnits="userSpaceOnUse">
<stop stop-color="#06EA84"/>
<stop offset="1" stop-color="#2BC47B"/>
</linearGradient>
<linearGradient id="paint1_linear" x1="42" y1="19.7286" x2="1" y2="19.7286" gradientUnits="userSpaceOnUse">
<stop stop-color="#06EA84"/>
<stop offset="1" stop-color="#2BC47B"/>
</linearGradient>
</defs>
</svg>
