<svg width="24" height="21" viewBox="0 0 24 21" fill="none" xmlns="http://www.w3.org/2000/svg"><path fill-rule="evenodd" clip-rule="evenodd" d="M21.052 9.903h-.788V2.027c0-.625-.58-1.133-1.293-1.133H4.028c-.713 0-1.293.508-1.293 1.133v7.876h-.788c-.212 0-.385.151-.385.338v.662c0 .918.852 1.665 1.9 1.665h16.076c1.047 0 1.899-.747 1.899-1.665v-.662c0-.187-.172-.338-.385-.338zM3.591 2.027c0-.211.196-.383.437-.383h14.943c.241 0 .438.172.438.383v7.876h-1.014a.479.479 0 0 0 .009-.094V2.977a.44.44 0 0 0-.428-.452H5.023a.44.44 0 0 0-.428.452v6.832a.48.48 0 0 0 .01.094H3.59V2.027zM17.548 9.81c0 .032.004.064.01.094h-3.94a.429.429 0 0 0-.084.006c-.181.03-.312.17-.312.331 0 .285-.265.517-.59.517h-2.265c-.325 0-.59-.232-.59-.517 0-.189-.178-.341-.393-.337H5.442a.48.48 0 0 0 .009-.094v-6.38h12.098v6.38zm3.12 1.094c0 .546-.508.99-1.13.99H3.462c-.623 0-1.13-.444-1.13-.99v-.325h6.731c.167.493.688.854 1.304.854h2.265c.616 0 1.138-.36 1.304-.854h6.731v.325zm-13.62 5.444H.644v3.675h6.404v-3.675zm8 0H8.644v3.675h6.404v-3.675zm1.596 0h6.404v3.675h-6.404v-3.675zm-5.29-2.837v.494h-9.67v1.782h1v-.782h8.67v.782h1v-.782h7.66v.782h1v-1.782h-8.66v-.494h-1z" fill="#2BEC94"/><path fill="#fff" d="M1.729 17.959h1v.877h-1zM3.811 17.959h1v.877h-1zM9.729 17.959h1v.877h-1zM11.811 17.959h1v.877h-1zM17.73 17.959h1v.877h-1zM19.811 17.959h1v.877h-1z"/></svg>