<svg width="72" height="65" viewBox="0 0 72 65" fill="none" xmlns="http://www.w3.org/2000/svg"><path fill-rule="evenodd" clip-rule="evenodd" d="M38.61 6.191A38.165 38.165 0 0 0 26.044 4.07a38.164 38.164 0 0 0-12.56 2.12A12.153 12.153 0 0 1 4.07 16.93v12.45a27.957 27.957 0 0 0 11.406 22.488l10.57 7.928 10.571-7.928a27.99 27.99 0 0 0 1.53-1.208 6.82 6.82 0 0 1-1.758-.822l-1.084.97a.797.797 0 0 1-1.103-.046l-1.076-1.144a.75.75 0 0 1 .047-1.075l1.084-.97a6.48 6.48 0 0 1-.723-1.933l-1.47-.062a.79.79 0 0 1-.542-.246.75.75 0 0 1-.205-.547l.068-1.55a.775.775 0 0 1 .814-.728l1.47.061a6.503 6.503 0 0 1 .89-1.865l-.995-1.057a.748.748 0 0 1 .047-1.075l1.173-1.05a.795.795 0 0 1 1.103.046l.995 1.057a6.86 6.86 0 0 1 1.982-.705l.063-1.434a.776.776 0 0 1 .813-.727l1.591.066a.77.77 0 0 1 .746.793l-.063 1.434c.68.189 1.327.482 1.913.868l1.084-.97a.799.799 0 0 1 1.103.045l.395.42c.995-2.9 1.51-5.952 1.514-9.035V16.932a12.152 12.152 0 0 1-9.413-10.74zM48.8 43.431a32.206 32.206 0 0 0 3.292-14.05V14.755a1.604 1.604 0 0 0-1.578-1.628 8.019 8.019 0 0 1-7.893-8.14v-.505a1.628 1.628 0 0 0-1.018-1.521l-.083-.033A42.411 42.411 0 0 0 26.044 0a42.415 42.415 0 0 0-15.557 2.96 1.628 1.628 0 0 0-1.015 1.521v.507a8.019 8.019 0 0 1-7.893 8.14A1.604 1.604 0 0 0 0 14.756V29.38a32.207 32.207 0 0 0 13.034 25.744l11.984 8.988a1.723 1.723 0 0 0 2.057 0l11.984-8.987a32.206 32.206 0 0 0 4.878-4.458l.492.523a.79.79 0 0 0 1.103.046l1.173-1.05a.748.748 0 0 0 .047-1.075l-.84-.892a32.23 32.23 0 0 0 1.349-2.004l.857.035a.775.775 0 0 0 .813-.727L49 43.972a.75.75 0 0 0-.198-.54zm-5.012.7c-.127-1.777-1.609-3.22-3.475-3.297a3.853 3.853 0 0 0-.16-.004c-1.953 0-3.549 1.492-3.632 3.397-.086 1.955 1.475 3.614 3.48 3.698a3.76 3.76 0 0 0 1.036-.1 27.95 27.95 0 0 0 2.751-3.695zm-11.982-5.869l.926 2.005a.753.753 0 0 1-.391 1.006l-1.994.876a.798.798 0 0 1-.598.018.773.773 0 0 1-.435-.4l-.926-2.004a9.177 9.177 0 0 1-3.258.097l-.799 2.056a.77.77 0 0 1-.41.424.796.796 0 0 1-.596.018l-2.046-.755a.755.755 0 0 1-.453-.982l.799-2.056a8.881 8.881 0 0 1-2.374-2.177l-2.056.903a.798.798 0 0 1-.597.017.773.773 0 0 1-.435-.399l-.899-1.944a.743.743 0 0 1-.018-.583.77.77 0 0 1 .41-.424l2.055-.903a8.535 8.535 0 0 1-.1-3.177l-2.108-.779a.756.756 0 0 1-.453-.981l.775-1.994a.77.77 0 0 1 .41-.425.8.8 0 0 1 .596-.018l2.109.78a8.846 8.846 0 0 1 2.233-2.316l-.926-2.004a.753.753 0 0 1 .391-1.006l1.995-.877a.8.8 0 0 1 .597-.017c.194.071.35.215.435.399l.926 2.004a9.174 9.174 0 0 1 3.258-.097l.8-2.056a.77.77 0 0 1 .409-.424.8.8 0 0 1 .597-.018l2.045.756a.756.756 0 0 1 .453.981l-.799 2.056a8.886 8.886 0 0 1 2.375 2.178l2.055-.903a.789.789 0 0 1 1.033.381l.898 1.945a.743.743 0 0 1 .018.582.77.77 0 0 1-.409.425l-2.056.902a8.535 8.535 0 0 1 .1 3.177l2.108.78c.194.07.35.215.436.399a.743.743 0 0 1 .018.582l-.775 1.994a.787.787 0 0 1-1.007.442l-2.108-.779a8.85 8.85 0 0 1-2.234 2.315zm-5.317-1.896c2.186 0 4.175-1.34 4.95-3.334a5.008 5.008 0 0 0-.124-3.948 5.205 5.205 0 0 0-2.95-2.706 5.394 5.394 0 0 0-1.874-.336c-2.186 0-4.176 1.34-4.95 3.333a5.01 5.01 0 0 0 .123 3.948 5.205 5.205 0 0 0 2.95 2.706 5.393 5.393 0 0 0 1.875.337z" fill="url(#paint0_linear)"/><path d="M50 15l-22 9v24.5L50 58l22-9.5V24l-22-9z" fill="#fff"/><path d="M49.035 17.878l-17.66 7.744c-.584.255-.767.714-.767 1.25v19.721c.004.493.316.97.767 1.17l17.229 7.555c.378.35.976.44 1.44.215a1.29 1.29 0 0 0 .04-.026l.068-.027c.009-.005.018-.01.027-.013l17.565-7.704c.45-.2.763-.677.767-1.17V26.927c0-.532-.349-1.12-.767-1.304l-17.66-7.744c-.403-.177-.687-.158-1.05 0zm.525 2.581l14.456 6.346-14.456 6.331-14.457-6.332L49.56 20.46zm-16.368 8.308l15.075 6.614v16.98l-15.075-6.615V28.767zm32.735 0v16.98L50.852 52.36V35.38l15.075-6.614z" fill="url(#paint1_linear)"/><defs><linearGradient id="paint0_linear" x1="52.093" y1="32.227" x2="0" y2="32.227" gradientUnits="userSpaceOnUse"><stop stop-color="#06EA84"/><stop offset="1" stop-color="#2BC47B"/></linearGradient><linearGradient id="paint1_linear" x1="68.511" y1="36.704" x2="30.608" y2="36.704" gradientUnits="userSpaceOnUse"><stop stop-color="#06EA84"/><stop offset="1" stop-color="#2BC47B"/></linearGradient></defs></svg>