<svg width="41" height="50" viewBox="0 0 41 50" fill="none" xmlns="http://www.w3.org/2000/svg">
<path d="M18.444 27.3793L12.2415 21.4753L9.59961 24.2508L18.659 32.8743L32.4628 17.5051L29.6121 14.9446L18.444 27.3793Z" fill="url(#paint0_linear)"/>
<path d="M36.2527 6.2429C31.6081 5.41054 27.3308 2.874 25.1945 1.43614C23.7987 0.49662 22.1754 0 20.5001 0C18.8247 0 17.2014 0.49662 15.8057 1.43604C13.6694 2.87391 9.39212 5.41054 4.74748 6.2429C1.99663 6.73588 0 9.11594 0 11.9021V23.4615C0 27.2802 1.06841 31.0027 3.17536 34.5257C4.82381 37.2819 7.10772 39.916 9.96372 42.3549C14.7659 46.4559 19.5211 48.5944 19.7211 48.6834L20.5 49.03L21.2789 48.6834C21.479 48.5945 26.2341 46.4559 31.0363 42.3549C33.8922 39.916 36.1763 37.2819 37.8246 34.5257C39.9318 31.0028 41 27.2802 41 23.4615V11.9022C41.0002 9.11594 39.0036 6.73588 36.2527 6.2429ZM37.1684 23.4616C37.1684 29.1547 34.2924 34.5101 28.62 39.3795C25.3228 42.21 21.9751 44.055 20.5003 44.8037C17.1101 43.0812 3.83181 35.559 3.83181 23.4616V11.9022C3.83181 10.9738 4.50118 10.18 5.42347 10.0147C10.7591 9.05849 15.5592 6.22097 17.9454 4.61485C18.7064 4.10253 19.5898 3.83171 20.5001 3.83171C21.4104 3.83171 22.2939 4.10253 23.0548 4.61476C25.4411 6.22097 30.2411 9.05829 35.5767 10.0145C36.4989 10.1798 37.1684 10.9736 37.1684 11.902V23.4616Z" fill="url(#paint1_linear)"/>
<defs>
<linearGradient id="paint0_linear" x1="32.4628" y1="23.9095" x2="9.59961" y2="23.9095" gradientUnits="userSpaceOnUse">
<stop stop-color="#06EA84"/>
<stop offset="1" stop-color="#2BC47B"/>
</linearGradient>
<linearGradient id="paint1_linear" x1="41" y1="24.515" x2="6.87514e-07" y2="24.515" gradientUnits="userSpaceOnUse">
<stop stop-color="#06EA84"/>
<stop offset="1" stop-color="#2BC47B"/>
</linearGradient>
</defs>
</svg>
