<svg width="66" height="117" viewBox="0 0 66 117" fill="none" xmlns="http://www.w3.org/2000/svg"><path d="M50.715 52.815c-4.998-2.521-10.313-4.442-15.574-6.435-3.052-1.153-5.972-2.498-8.55-4.37-5.077-3.698-4.104-9.702 1.841-12.079 1.684-.672 3.447-.889 5.236-.985 6.892-.336 13.443.817 19.678 3.554 3.104 1.37 4.13.937 5.182-2.017 1.105-3.121 2.026-6.291 3.052-9.437.684-2.113-.158-3.506-2.341-4.394-4-1.61-8.103-2.762-12.418-3.386-5.63-.793-5.63-.817-5.656-5.98C41.14.012 41.14.012 33.142.012c-1.158 0-2.316-.024-3.473 0-3.736.096-4.367.696-4.472 4.13-.053 1.537 0 3.074-.027 4.634-.026 4.563-.052 4.49-4.84 6.076C8.755 18.693 1.599 25.897.836 37.423.152 47.629 5.992 54.52 15.174 59.539c5.656 3.098 11.917 4.923 17.915 7.348 2.341.937 4.577 2.017 6.524 3.506 5.761 4.346 4.71 11.574-2.13 14.312-3.657 1.465-7.525 1.825-11.497 1.368-6.13-.696-11.996-2.16-17.52-4.778-3.237-1.537-4.184-1.129-5.289 2.065-.947 2.761-1.788 5.547-2.63 8.333-1.132 3.746-.71 4.634 3.21 6.387 4.998 2.209 10.338 3.338 15.784 4.13 4.261.625 4.393.793 4.446 4.827.026 1.825.026 3.674.052 5.499.026 2.305 1.237 3.65 3.841 3.698 2.947.048 5.92.048 8.866-.024 2.42-.048 3.656-1.249 3.656-3.482 0-2.497.132-5.019.027-7.516-.132-2.545 1.078-3.842 3.762-4.515 6.182-1.536 11.443-4.562 15.495-9.076 11.26-12.487 6.971-30.761-8.971-38.806z" fill="#45556C"/></svg>