<svg width="82" height="82" viewBox="0 0 82 82" fill="none" xmlns="http://www.w3.org/2000/svg"><g clip-path="url(#clip0)"><path d="M52.404 37.25c-3.218-1.779-6.639-3.134-10.026-4.54-1.964-.812-3.844-1.76-5.504-3.082-3.269-2.608-2.642-6.842 1.186-8.518 1.084-.475 2.218-.627 3.37-.695 4.437-.237 8.654.576 12.668 2.507 1.998.965 2.659.66 3.336-1.423.711-2.202 1.304-4.437 1.965-6.656.44-1.49-.102-2.472-1.508-3.099-2.574-1.135-5.216-1.948-7.993-2.388-3.625-.559-3.625-.576-3.642-4.217C46.24.008 46.24.008 41.092.008c-.745 0-1.49-.017-2.235 0-2.405.067-2.812.49-2.88 2.913-.033 1.083 0 2.167-.016 3.268-.017 3.218-.034 3.167-3.117 4.285-7.451 2.71-12.058 7.79-12.549 15.92-.44 7.197 3.32 12.058 9.23 15.597 3.641 2.185 7.672 3.472 11.533 5.183 1.508.66 2.947 1.422 4.2 2.472 3.71 3.066 3.032 8.163-1.371 10.094-2.355 1.033-4.844 1.287-7.401.965-3.946-.49-7.723-1.524-11.28-3.37-2.083-1.084-2.692-.796-3.404 1.456-.61 1.948-1.151 3.913-1.693 5.877-.728 2.642-.457 3.269 2.066 4.505 3.218 1.558 6.656 2.354 10.161 2.913 2.744.44 2.829.559 2.862 3.404.017 1.287.017 2.591.034 3.878.017 1.626.796 2.575 2.473 2.609 1.897.033 3.81.033 5.707-.017 1.558-.034 2.354-.881 2.354-2.456 0-1.761.085-3.54.017-5.301-.084-1.795.695-2.71 2.422-3.184 3.98-1.084 7.367-3.218 9.975-6.402 7.249-8.806 4.488-21.694-5.775-27.368z" fill="url(#paint0_linear)"/></g><defs><linearGradient id="paint0_linear" x1="41" x2="41" y2="82" gradientUnits="userSpaceOnUse"><stop stop-color="#00C27D"/><stop offset="1" stop-color="#00FF8B"/></linearGradient><clipPath id="clip0"><path fill="#fff" transform="matrix(1 0 0 -1 0 82)" d="M0 0h82v82H0z"/></clipPath></defs></svg>