<svg width="71" height="64" viewBox="0 0 71 64" fill="none" xmlns="http://www.w3.org/2000/svg"><path d="M25.525 10.692L1.063 21.42C.254 21.773 0 22.408 0 23.15v27.318a1.832 1.832 0 0 0 1.063 1.62l23.866 10.466a1.838 1.838 0 0 0 1.995.298l.056-.037.093-.037.037-.018 24.332-10.67a1.83 1.83 0 0 0 1.063-1.62V23.225c0-.737-.483-1.552-1.063-1.807L26.98 10.693c-.56-.245-.953-.22-1.455 0zm.728 3.576l20.025 8.79-20.025 8.77-20.025-8.77 20.025-8.79zM3.58 25.776l20.883 9.162v23.52L3.58 49.297v-23.52zm45.345 0v23.52L28.042 58.46v-23.52l20.883-9.163z" fill="url(#paint0_linear)"/><path d="M44.63 12.376l3.937-2.25 3.938-3.938 3.375 3.938 4.5 2.25 1.754 4.259a18.948 18.948 0 0 1 1.06 10.93l.823 1.153c.918 1.285.172 3.088-1.386 3.347h-5.063l-5.063 5.626-5.063-5.626h-5.063c-1.916-.24-2.785-2.522-1.514-3.975l.951-1.088a22.262 22.262 0 0 1 1.133-9.866l1.68-4.76z" fill="#fff"/><path d="M52.505 0c2.914 0 5.295 2.387 5.428 5.382 5.078 2.234 8.498 7.445 8.498 13.344v8.141c2.276.182 4.076 2.164 4.076 4.58 0 2.536-1.982 4.594-4.423 4.594H38.925c-2.442 0-4.422-2.056-4.422-4.594 0-2.415 1.797-4.398 4.076-4.58v-8.14c0-5.901 3.42-11.112 8.497-13.345C47.21 2.387 49.593 0 52.505 0zm-3.218 8.294c-4.322 1.44-7.311 5.635-7.311 10.432v8.48c0 1.756-1.37 3.181-3.056 3.181-.562 0-1.02.477-1.02 1.06 0 .585.458 1.06 1.025 1.06h27.16c.565 0 1.025-.477 1.025-1.06 0-.582-.46-1.06-1.02-1.06-1.69 0-3.056-1.42-3.056-3.181v-8.48c0-4.796-2.99-8.992-7.311-10.432l-1.18-.394V5.647c0-1.165-.913-2.114-2.038-2.114-1.124 0-2.038.95-2.038 2.114V7.9l-1.18.394zM46.05 36.04h3.397c0 1.756 1.369 3.18 3.057 3.18s3.057-1.424 3.057-3.18h3.396c0 3.707-2.889 6.713-6.453 6.713-3.564 0-6.454-3.006-6.454-6.713z" fill="#fff"/><path d="M52.505 4.5c2.368 0 4.302 1.948 4.41 4.39 4.126 1.823 6.905 6.075 6.905 10.887v6.642c1.849.148 3.311 1.765 3.311 3.736 0 2.068-1.61 3.747-3.593 3.747H41.472c-1.985 0-3.593-1.677-3.593-3.747 0-1.97 1.46-3.589 3.311-3.736v-6.642c0-4.813 2.778-9.064 6.904-10.886.109-2.444 2.045-4.39 4.41-4.39zm-2.615 6.766c-3.511 1.175-5.94 4.597-5.94 8.511v6.918c0 1.432-1.113 2.595-2.483 2.595-.457 0-.829.389-.829.865 0 .477.372.864.834.864h22.066c.46 0 .834-.389.834-.864 0-.476-.374-.865-.83-.865-1.372 0-2.482-1.16-2.482-2.595v-6.918c0-3.913-2.43-7.335-5.94-8.51l-.96-.322V9.108c0-.951-.741-1.725-1.655-1.725-.913 0-1.656.774-1.656 1.725v1.837l-.959.321zm-2.629 22.636h2.76c0 1.433 1.112 2.594 2.484 2.594 1.372 0 2.484-1.161 2.484-2.594h2.76c0 3.025-2.348 5.477-5.244 5.477s-5.244-2.452-5.244-5.477z" fill="#08E984"/><defs><linearGradient id="paint0_linear" x1="52.505" y1="36.771" x2="0" y2="36.771" gradientUnits="userSpaceOnUse"><stop stop-color="#06EA84"/><stop offset="1" stop-color="#2BC47B"/></linearGradient></defs></svg>