<svg width="81" height="63" viewBox="0 0 81 63" fill="none" xmlns="http://www.w3.org/2000/svg"><path fill-rule="evenodd" clip-rule="evenodd" d="M49.29.963c-17.103 0-31.018 13.915-31.018 31.019C18.272 49.085 32.186 63 49.29 63s31.019-13.915 31.019-31.018C80.309 14.878 66.394.963 49.29.963zm0 57.331c-14.509 0-26.313-11.803-26.313-26.312 0-14.51 11.804-26.313 26.313-26.313 14.51 0 26.313 11.804 26.313 26.313 0 14.508-11.804 26.312-26.313 26.312zM13.566 20.218H4.343v4.705h9.223v-4.705zm0 18.822H4.343v4.706h9.223V39.04zM0 29.63h13.566v4.705H0V29.63zm50.81-11.677v15.199l10.07 6.862-2.65 3.889-12.126-8.264V17.952h4.705z" fill="url(#paint0_linear)"/><defs><linearGradient id="paint0_linear" x1="80.309" y1="31.982" x2="0" y2="31.982" gradientUnits="userSpaceOnUse"><stop stop-color="#06EA84"/><stop offset="1" stop-color="#2BC47B"/></linearGradient></defs></svg>