<svg width="11" height="11" viewBox="0 0 11 11" fill="none" xmlns="http://www.w3.org/2000/svg">
<g clip-path="url(#clip0)">
<path d="M10.4693 5.05768H0.442369C0.198046 5.05768 0 5.25585 0 5.50005C0 5.74425 0.198024 5.94242 0.442369 5.94242H10.4693C10.7136 5.94242 10.9117 5.7444 10.9117 5.50005C10.9117 5.2557 10.7137 5.05768 10.4693 5.05768Z" fill="#2BC47C" stroke="#2BC47C" stroke-width="0.5"/>
<path d="M10.8704 5.18715L6.5354 0.851947C6.36257 0.679275 6.08271 0.679275 5.90989 0.851947C5.73707 1.02477 5.73707 1.30493 5.90989 1.4776L9.93216 5.50003L5.90989 9.52247C5.73707 9.69514 5.73707 9.9753 5.90989 10.148C5.9963 10.2344 6.1094 10.2776 6.22264 10.2776C6.33589 10.2776 6.44898 10.2344 6.5354 10.148L10.8704 5.8128C11.0432 5.63998 11.0432 5.3598 10.8704 5.18715Z" fill="#2BC47C" stroke="#2BC47C" stroke-width="0.5"/>
</g>
<defs>
<clipPath id="clip0">
<rect width="11" height="11" fill="white"/>
</clipPath>
</defs>
</svg>
