<?xml version="1.0" encoding="utf-8"?>
<!-- Generator: Adobe Illustrator 24.3.0, SVG Export Plug-In . SVG Version: 6.00 Build 0)  -->
<svg version="1.1" id="Calque_1" xmlns="http://www.w3.org/2000/svg" xmlns:xlink="http://www.w3.org/1999/xlink" x="0px" y="0px"
	 viewBox="0 0 11 11" style="enable-background:new 0 0 11 11;" xml:space="preserve">
<style type="text/css">.st0{fill:#FFFFFF;stroke:#FFFFFF;stroke-width:0.7;}</style>
<g>
	<path class="st0" d="M10.5,5.1h-10C0.2,5.1,0,5.3,0,5.5s0.2,0.4,0.4,0.4h10c0.2,0,0.4-0.2,0.4-0.4S10.7,5.1,10.5,5.1z"/>
	<path class="st0" d="M10.9,5.2L6.5,0.9C6.3,0.7,6,0.7,5.9,0.9C5.7,1,5.7,1.3,5.9,1.5l4,4l-4,4c-0.2,0.2-0.2,0.5,0,0.6
		c0.1,0.1,0.2,0.1,0.3,0.1c0.1,0,0.2,0,0.3-0.1l4.3-4.3C11,5.6,11,5.4,10.9,5.2z"/>
</g>
</svg>
