<svg width="42" height="42" viewBox="0 0 42 42" fill="none" xmlns="http://www.w3.org/2000/svg">
<path d="M38.9934 16.7924L36.1794 16.3151C35.8863 15.3687 35.5094 14.4558 35.0488 13.5849L36.707 11.265C37.4105 10.2768 37.3017 8.92841 36.4391 8.07417L33.9433 5.57845C33.4743 5.10946 32.8546 4.84983 32.193 4.84983C31.6737 4.84983 31.1796 5.00896 30.7609 5.31045L28.4326 6.96869C27.5282 6.49132 26.5818 6.0977 25.6019 5.80457L25.1329 3.02411C24.9319 1.8265 23.9018 0.955505 22.6875 0.955505H19.1616C17.9473 0.955505 16.9172 1.8265 16.7162 3.02411L16.2304 5.87157C15.2924 6.16469 14.3796 6.54994 13.5086 7.01893L11.2055 5.3607C10.7867 5.05921 10.2842 4.90008 9.76499 4.90008C9.10337 4.90008 8.47525 5.15971 8.01463 5.6287L5.51054 8.12442C4.6563 8.97866 4.53905 10.327 5.24254 11.3153L6.91752 13.6686C6.4569 14.548 6.08841 15.4608 5.80366 16.4072L3.02319 16.8762C1.82558 17.0772 0.95459 18.1073 0.95459 19.3217V22.8475C0.95459 24.0619 1.82558 25.092 3.02319 25.293L5.87066 25.7787C6.16378 26.7167 6.54902 27.6296 7.01802 28.5006L5.36816 30.7953C4.66467 31.7835 4.77355 33.1319 5.63616 33.9861L8.13188 36.4818C8.60088 36.9508 9.22062 37.2105 9.88224 37.2105C10.4015 37.2105 10.8956 37.0513 11.3143 36.7498L13.6677 35.0749C14.5136 35.5187 15.4013 35.8788 16.3142 36.1636L16.7832 38.9776C16.9842 40.1752 18.0143 41.0462 19.2286 41.0462H22.7628C23.9772 41.0462 25.0073 40.1752 25.2083 38.9776L25.6857 36.1636C26.632 35.8705 27.5449 35.4936 28.4159 35.033L30.7357 36.6912C31.1545 36.9927 31.657 37.1518 32.1762 37.1518C32.8378 37.1518 33.4576 36.8922 33.9266 36.4232L36.4223 33.9275C37.2765 33.0733 37.3938 31.7249 36.6903 30.7367L35.0321 28.4084C35.4927 27.5291 35.8779 26.6162 36.1627 25.6782L38.9766 25.2092C40.1743 25.0082 41.0452 23.9781 41.0452 22.7637V19.2379C41.062 18.0236 40.191 16.9934 38.9934 16.7924ZM38.8008 22.7637C38.8008 22.8726 38.7254 22.9647 38.6165 22.9815L35.0991 23.5677C34.6552 23.6431 34.3035 23.9697 34.1946 24.3969C33.8763 25.628 33.3906 26.8088 32.7373 27.9059C32.5112 28.2912 32.528 28.7686 32.7876 29.137L34.8562 32.0515C34.9148 32.1353 34.9064 32.2609 34.8311 32.3363L32.3353 34.832C32.2767 34.8906 32.2181 34.899 32.1762 34.899C32.126 34.899 32.0841 34.8822 32.0506 34.8571L29.1445 32.7885C28.7844 32.5289 28.2986 32.5121 27.9134 32.7383C26.8163 33.3915 25.6354 33.8772 24.4043 34.1955C23.9688 34.3044 23.6422 34.6645 23.5752 35.1L22.9806 38.6174C22.9638 38.7263 22.8717 38.8017 22.7628 38.8017H19.237C19.1281 38.8017 19.036 38.7263 19.0193 38.6174L18.433 35.1C18.3576 34.6561 18.031 34.3044 17.6039 34.1955C16.4063 33.8856 15.2505 33.4083 14.1702 32.7885C13.9943 32.688 13.7933 32.6378 13.6007 32.6378C13.3746 32.6378 13.1401 32.7048 12.9474 32.8471L10.0162 34.9325C9.97436 34.9576 9.93248 34.9744 9.89061 34.9744C9.85711 34.9744 9.79011 34.966 9.73149 34.9074L7.23577 32.4116C7.16039 32.3363 7.15202 32.219 7.21064 32.1269L9.27087 29.2375C9.53049 28.8691 9.54724 28.3833 9.32112 27.9981C8.66788 26.9093 8.16538 25.7285 7.84713 24.4974C7.72989 24.0702 7.37814 23.7436 6.94265 23.6682L3.40006 23.0652C3.29119 23.0485 3.21581 22.9564 3.21581 22.8475V19.3217C3.21581 19.2128 3.29119 19.1207 3.40006 19.1039L6.8924 18.5177C7.33627 18.4423 7.69639 18.1157 7.80526 17.6802C8.11513 16.4491 8.5925 15.2598 9.23737 14.1627C9.46349 13.7775 9.43837 13.3001 9.17874 12.94L7.09339 10.0088C7.03477 9.92503 7.04314 9.7994 7.11852 9.72403L9.61424 7.22831C9.67286 7.16968 9.73149 7.16131 9.77336 7.16131C9.82361 7.16131 9.86549 7.17806 9.89899 7.20318L12.7883 9.26341C13.1568 9.52303 13.6426 9.53978 14.0278 9.31366C15.1166 8.66042 16.2974 8.15792 17.5285 7.83967C17.9556 7.72243 18.2823 7.37068 18.3576 6.93519L18.9606 3.3926C18.9774 3.28373 19.0695 3.20835 19.1784 3.20835H22.7042C22.8131 3.20835 22.9052 3.28373 22.922 3.3926L23.5082 6.88494C23.5836 7.32881 23.9102 7.68893 24.3457 7.7978C25.6103 8.11605 26.8163 8.61017 27.9385 9.27178C28.3238 9.49791 28.8011 9.48115 29.1696 9.22153L32.059 7.14456C32.1009 7.11943 32.1427 7.10268 32.1846 7.10268C32.2181 7.10268 32.2851 7.11106 32.3437 7.16968L34.8394 9.6654C34.9148 9.74078 34.9232 9.85803 34.8646 9.95015L32.796 12.8562C32.5363 13.2164 32.5196 13.7021 32.7457 14.0874C33.399 15.1845 33.8847 16.3653 34.203 17.5964C34.3118 18.0319 34.6719 18.3586 35.1074 18.4256L38.6249 19.0202C38.7338 19.0369 38.8091 19.129 38.8091 19.2379V22.7637H38.8008Z" fill="url(#paint0_linear)" stroke="url(#paint1_linear)"/>
<path d="M21.0041 12.3445C16.2304 12.3445 12.3528 16.2221 12.3528 20.9958C12.3528 25.7695 16.2304 29.647 21.0041 29.647C25.7778 29.647 29.6553 25.7695 29.6553 20.9958C29.6553 16.2221 25.7778 12.3445 21.0041 12.3445ZM21.0041 27.3858C17.4782 27.3858 14.614 24.5216 14.614 20.9958C14.614 17.4699 17.4782 14.6057 21.0041 14.6057C24.5299 14.6057 27.3941 17.4699 27.3941 20.9958C27.3941 24.5216 24.5299 27.3858 21.0041 27.3858Z" fill="url(#paint2_linear)" stroke="url(#paint3_linear)"/>
<defs>
<linearGradient id="paint0_linear" x1="41.0455" y1="21.0008" x2="0.954591" y2="21.0008" gradientUnits="userSpaceOnUse">
<stop stop-color="#06EA84"/>
<stop offset="1" stop-color="#2BC47B"/>
</linearGradient>
<linearGradient id="paint1_linear" x1="41.0455" y1="21.0008" x2="0.954591" y2="21.0008" gradientUnits="userSpaceOnUse">
<stop stop-color="#06EA84"/>
<stop offset="1" stop-color="#2BC47B"/>
</linearGradient>
<linearGradient id="paint2_linear" x1="29.6553" y1="20.9958" x2="12.3528" y2="20.9958" gradientUnits="userSpaceOnUse">
<stop stop-color="#06EA84"/>
<stop offset="1" stop-color="#2BC47B"/>
</linearGradient>
<linearGradient id="paint3_linear" x1="29.6553" y1="20.9958" x2="12.3528" y2="20.9958" gradientUnits="userSpaceOnUse">
<stop stop-color="#06EA84"/>
<stop offset="1" stop-color="#2BC47B"/>
</linearGradient>
</defs>
</svg>
