<svg width="29" height="29" viewBox="0 0 29 29" fill="none" xmlns="http://www.w3.org/2000/svg"><g clip-path="url(#clip0)"><path d="M29 14.5l-3.925 2.835 1.983 4.418-4.818.486-.487 4.82-4.418-1.985L14.5 29l-2.835-3.926-4.417 1.984-.487-4.819-4.818-.486 1.983-4.418L0 14.5l3.926-2.834-1.984-4.418 4.819-.487.488-4.819 4.416 1.984L14.5.001l2.835 3.925 4.418-1.984.486 4.82 4.819.486-1.983 4.417L29 14.5z" fill="#2BC47C"/><path d="M10.74 12.686c-.282 0-.491.175-.491.489v2.37h-.014l-2.078-2.652a.62.62 0 0 0-.413-.208c-.282 0-.492.175-.492.489v3.561c0 .314.21.489.492.489.282 0 .492-.175.492-.489v-2.337h.013l2.079 2.619a.632.632 0 0 0 .412.207c.283 0 .492-.175.492-.488v-3.561c0-.313-.21-.489-.492-.489zm3.897 3.636h-1.213v-.953H14.5c.315 0 .478-.22.478-.432 0-.22-.158-.433-.478-.433h-1.076v-.916h1.154c.308 0 .465-.22.465-.432 0-.22-.15-.434-.465-.434H12.95c-.347 0-.51.232-.51.546v3.448c0 .282.216.47.505.47h1.691c.309 0 .465-.219.465-.433 0-.218-.15-.431-.465-.431zm6.637-3.636c-.315 0-.466.175-.524.452l-.558 2.664h-.013l-.852-2.746a.521.521 0 0 0-.51-.37.522.522 0 0 0-.512.37l-.852 2.746h-.012l-.558-2.664c-.059-.277-.21-.452-.524-.452-.288 0-.465.213-.465.415l.025.212.833 3.422c.065.263.282.489.649.489.32 0 .57-.202.649-.458l.76-2.42h.014l.76 2.42a.666.666 0 0 0 .65.458c.366 0 .584-.226.65-.489l.831-3.422.026-.212c-.002-.202-.179-.415-.467-.415z" fill="#fff"/></g><defs><clipPath id="clip0"><path fill="#fff" d="M0 0h29v29H0z"/></clipPath></defs></svg>