<svg width="72" height="71" viewBox="0 0 72 71" fill="none" xmlns="http://www.w3.org/2000/svg"><path fill-rule="evenodd" clip-rule="evenodd" d="M30.945 7.675l-.721-.906a3.615 3.615 0 0 1-.004-4.52A1.387 1.387 0 1 0 28.048.525a6.376 6.376 0 0 0 .006 7.972l.722.906a4.724 4.724 0 0 1 .005 5.906l-.74.932a1.387 1.387 0 1 0 2.173 1.724l.74-.932a7.485 7.485 0 0 0-.009-9.358zm39.168 20.96h-11.37v-2.934c0-.766-.622-1.387-1.388-1.387H27.402a1.387 1.387 0 0 0 0 2.773H55.97V37.72c0 9.339-4.986 18.019-13.038 22.742h-26.62C8.26 55.738 3.273 47.058 3.273 37.719V27.087h9.292a1.387 1.387 0 0 0 0-2.773H1.886C1.12 24.314.5 24.934.5 25.7v12.018a29.085 29.085 0 0 0 4.074 14.863 29.278 29.278 0 0 0 6.862 7.879h-9.55c-.765 0-1.386.62-1.386 1.387C.5 66.894 4.606 71 9.652 71h43.266c5.047 0 9.152-4.106 9.152-9.152 0-.766-.62-1.387-1.386-1.387H47.806a29.29 29.29 0 0 0 6.421-7.165h3.914c7.366 0 13.359-5.992 13.359-13.358v-9.916c0-.765-.62-1.386-1.387-1.386zm-10.968 34.6c-.635 2.852-3.186 4.992-6.227 4.992H9.652c-3.04 0-5.592-2.14-6.227-4.993h55.72zm-.403-25.516v-.763h4.438v2.981a5.044 5.044 0 0 1-5.039 5.039h-.315c.606-2.358.916-4.797.916-7.257zm9.985 2.218c0 5.837-4.749 10.586-10.586 10.586h-2.36a28.96 28.96 0 0 0 1.184-2.774h1.176c4.308 0 7.812-3.504 7.812-7.812V35.57c0-.766-.62-1.386-1.387-1.386h-5.824v-2.774h9.985v8.529zM37.91 9.887l.722.905a7.485 7.485 0 0 1 .008 9.36l-.74.93a1.385 1.385 0 0 1-1.948.225c-.6-.476-.7-1.348-.224-1.948l.74-.932a4.724 4.724 0 0 0-.006-5.906l-.721-.906a6.376 6.376 0 0 1-.007-7.972 1.387 1.387 0 1 1 2.172 1.724 3.615 3.615 0 0 0 .004 4.52zm-14.651.906l-.722-.906a3.615 3.615 0 0 1-.003-4.52 1.387 1.387 0 1 0-2.173-1.724 6.376 6.376 0 0 0 .007 7.972l.722.906a4.724 4.724 0 0 1 .005 5.906l-.74.932a1.387 1.387 0 1 0 2.172 1.724l.74-.932a7.485 7.485 0 0 0-.008-9.358zm-2.9 13.52a1.392 1.392 0 0 1 .98 2.368 1.396 1.396 0 0 1-.98.406c-.365 0-.722-.147-.98-.405a1.403 1.403 0 0 1-.407-.982 1.4 1.4 0 0 1 .407-.98c.258-.258.615-.407.98-.407zm30.34 12.02c-.766 0-1.386.62-1.386 1.386 0 5.147-2.088 10.206-5.729 13.878a1.387 1.387 0 0 0 1.97 1.953c4.151-4.188 6.532-9.958 6.532-15.831 0-.766-.621-1.387-1.387-1.387zM39.365 54.834a1.387 1.387 0 1 1 1.362 2.415l-.031.018a1.386 1.386 0 0 1-1.363-2.416l.032-.017z" fill="url(#paint0_linear)"/><defs><linearGradient id="paint0_linear" x1="36" x2="36.5" y2="71" gradientUnits="userSpaceOnUse"><stop stop-color="#00C27D"/><stop offset="1" stop-color="#01EE9A"/></linearGradient></defs></svg>