<svg width="72" height="72" viewBox="0 0 72 72" fill="none" xmlns="http://www.w3.org/2000/svg"><path fill-rule="evenodd" clip-rule="evenodd" d="M4.084 24.914l30.105 14.533a4 4 0 0 0 3.91-.242L67.91 19.946c2.695-1.74 2.346-5.787-.607-7.041L38.019.465a4 4 0 0 0-3.52.192L3.868 17.822c-2.822 1.582-2.697 5.685.217 7.092zm65.015 5.553c3.164-2.045 2.905-6.755-.464-8.44l-.895 1.79c1.985.991 2.138 3.766.274 4.97L37.556 48.463a3 3 0 0 1-2.932.181L3.49 33.614c-.312-.151-.522-.424-.64-.896-.125-.496-.122-1.131-.03-1.813.091-.669.257-1.314.404-1.798a12.727 12.727 0 0 1 .244-.723l.013-.037.003-.007-.929-.37-.93-.368v.002l-.002.005-.006.015-.02.053-.07.188a14.753 14.753 0 0 0-.688 2.772c-.108.798-.142 1.72.07 2.569.22.872.723 1.731 1.712 2.209l31.135 15.03a5 5 0 0 0 4.887-.302l30.457-19.676zm0 10.097c3.164-2.044 2.905-6.754-.464-8.44l-.895 1.79c1.985.992 2.138 3.766.274 4.97L37.556 58.56a3 3 0 0 1-2.932.182L3.49 43.712c-.312-.152-.522-.425-.64-.896-.125-.497-.122-1.132-.03-1.813.091-.67.257-1.314.404-1.799a12.715 12.715 0 0 1 .244-.723l.013-.036.003-.008-.929-.369-.93-.369v.003l-.002.004-.006.015-.02.053-.07.188a14.753 14.753 0 0 0-.688 2.773c-.108.797-.142 1.72.07 2.568.22.873.723 1.732 1.712 2.21l31.135 15.03a5 5 0 0 0 4.887-.303l30.457-19.676zm-.464 1.658c3.37 1.685 3.628 6.395.464 8.44L38.642 70.337a5 5 0 0 1-4.887.302L2.62 55.61c-.99-.478-1.492-1.337-1.711-2.21-.213-.848-.18-1.77-.071-2.568a14.753 14.753 0 0 1 .758-2.96l.02-.053.006-.015.002-.005v-.002l.93.368.93.37-.004.007-.013.037A12.758 12.758 0 0 0 2.82 51.1c-.093.68-.096 1.316.029 1.812.118.472.328.745.64.896l31.135 15.03a3 3 0 0 0 2.932-.181L68.014 48.98c1.864-1.203 1.71-3.978-.274-4.97l.895-1.789z" fill="url(#paint0_linear)"/><defs><linearGradient id="paint0_linear" x1="36.038" y1=".147" x2="36.038" y2="71.138" gradientUnits="userSpaceOnUse"><stop stop-color="#00C27D"/><stop offset=".409" stop-color="#01D489"/><stop offset="1" stop-color="#02EE9A"/></linearGradient></defs></svg>