<svg width="68" height="69" viewBox="0 0 68 69" fill="none" xmlns="http://www.w3.org/2000/svg"><path fill-rule="evenodd" clip-rule="evenodd" d="M34 0a7 7 0 0 1 7 7 7.007 7.007 0 0 1-7 7 7 7 0 1 1 0-14zm0 2.333a4.667 4.667 0 0 0-.538 9.303 5.796 5.796 0 0 0 2.908-1.15 5.793 5.793 0 0 0 2.266-4.026A4.668 4.668 0 0 0 34 2.333zm-12.833 14a1.167 1.167 0 0 1-1.05-1.673l.855-1.786A25.645 25.645 0 0 0 8.333 35 1.167 1.167 0 0 1 6 35a27.974 27.974 0 0 1 14.749-24.676L18.35 9.23a1.167 1.167 0 0 1 .969-2.121l4.58 2.092a1.167 1.167 0 0 1 .626 1.654l-2.308 4.816c-.194.404-.602.66-1.05.662zm38.329 15.68l-1.338-1.338a1.167 1.167 0 0 0-1.65 1.65l3.5 3.5a1.16 1.16 0 0 0 .8.341H60.893a1.16 1.16 0 0 0 .765-.341l3.5-3.5a1.167 1.167 0 0 0-1.65-1.65l-1.635 1.635A27.975 27.975 0 0 0 44.959 9.225a1.167 1.167 0 0 0-.915 2.146 25.645 25.645 0 0 1 15.453 20.642zm-31.003 27.44l-1.14.335a25.878 25.878 0 0 0 16.69-1.16 1.167 1.167 0 0 1 .914 2.147A27.85 27.85 0 0 1 34 63a27.844 27.844 0 0 1-8.08-1.183l.947 1.81a1.166 1.166 0 0 1-1.034 1.706 1.165 1.165 0 0 1-1.036-.626l-2.333-4.465a1.166 1.166 0 0 1 .707-1.66l4.667-1.368a1.167 1.167 0 0 1 .655 2.24zM53.833 45.5a4.668 4.668 0 0 0 4.13 4.636 5.797 5.797 0 0 0 2.907-1.15 5.794 5.794 0 0 0 2.266-4.026 4.668 4.668 0 0 0-9.303.54zm-44.87 4.636a4.668 4.668 0 1 1 5.173-5.176 5.794 5.794 0 0 1-2.266 4.026 5.797 5.797 0 0 1-2.907 1.15zM24.667 28v-7a4.667 4.667 0 0 1 4.666-4.667 10.436 10.436 0 0 0 9.334 0A4.667 4.667 0 0 1 43.333 21v7A2.333 2.333 0 0 1 41 30.333H27A2.333 2.333 0 0 1 24.667 28zM.167 59.5v7A2.333 2.333 0 0 0 2.5 68.833h14a2.333 2.333 0 0 0 2.333-2.333v-7a4.667 4.667 0 0 0-4.666-4.667 10.435 10.435 0 0 1-9.334 0A4.667 4.667 0 0 0 .167 59.5zm49 7v-7a4.667 4.667 0 0 1 4.666-4.667 10.436 10.436 0 0 0 9.334 0 4.667 4.667 0 0 1 4.666 4.667v7a2.333 2.333 0 0 1-2.333 2.333h-14a2.333 2.333 0 0 1-2.333-2.333zm9.333-28a7 7 0 0 0-7 7 7 7 0 0 0 7 7 7 7 0 0 0 7-7 7.007 7.007 0 0 0-7-7zm-56 7a7 7 0 0 1 7-7 7.007 7.007 0 0 1 7 7 7 7 0 1 1-14 0z" fill="url(#paint0_linear)"/><defs><linearGradient id="paint0_linear" x1="67.833" y1="34.417" x2=".167" y2="34.417" gradientUnits="userSpaceOnUse"><stop stop-color="#06EA84"/><stop offset="1" stop-color="#2BC47B"/></linearGradient></defs></svg>