<svg width="50" height="45" viewBox="0 0 50 45" fill="none" xmlns="http://www.w3.org/2000/svg">
<path d="M47.4683 35.6601C49.7356 33.3928 49.7356 29.7109 47.4683 27.4536C45.2009 25.1863 41.519 25.1863 39.2618 27.4536L36.1818 30.5336C35.3291 31.3863 33.9346 31.3863 33.0818 30.5336L27.5841 25.0258C27.243 24.6847 26.7815 24.4941 26.3099 24.4941C25.8284 24.4941 25.3669 24.6847 25.0358 25.0258C23.531 26.5306 21.5345 27.3633 19.3976 27.3633C17.2607 27.3633 15.2643 26.5306 13.7594 25.0258L8.78336 20.0497L20.0497 8.78335L25.0258 13.7594C26.4103 15.1439 27.2329 16.9798 27.3433 18.9261C27.4035 19.8892 28.196 20.6316 29.1491 20.6316C29.1792 20.6316 29.2193 20.6316 29.2595 20.6316C30.2527 20.5714 31.0151 19.7187 30.9549 18.7254C30.7944 15.8863 29.5905 13.2177 27.5841 11.2112L22.608 6.23513L23.1598 5.68335C23.862 4.98108 23.862 3.83739 23.1598 3.12509C22.4575 2.42282 21.3138 2.42282 20.6015 3.12509L17.0601 6.66652L10.9203 0.5267C10.218 -0.175567 9.0743 -0.175567 8.362 0.5267C7.65973 1.22897 7.65973 2.37266 8.362 3.08496L14.5018 9.22478L9.22478 14.5018L3.08496 8.36199C2.38269 7.65973 1.239 7.65973 0.5267 8.36199C-0.175567 9.06426 -0.175567 10.2079 0.5267 10.9202L6.67656 17.0601L3.13512 20.6015C2.43285 21.3038 2.43285 22.4475 3.13512 23.1598C3.48626 23.5109 3.94775 23.6915 4.40924 23.6915C4.87073 23.6915 5.33222 23.5109 5.68335 23.1598L6.23513 22.608L11.2112 27.584C13.3983 29.7711 16.3077 30.975 19.3976 30.975C21.8756 30.975 24.2433 30.2025 26.2096 28.7578L30.5336 33.0818C31.6672 34.2154 33.152 34.7773 34.6368 34.7773C36.1216 34.7773 37.6064 34.2154 38.7401 33.0818L41.82 30.0018C42.6728 29.1491 44.0673 29.1491 44.92 30.0018C45.7728 30.8546 45.7728 32.2491 44.92 33.1019L41.8401 36.1818C40.7466 37.2753 40.1446 38.73 40.1446 40.285C40.1446 41.8401 40.7466 43.2948 41.8401 44.3883C42.1912 44.7394 42.6527 44.92 43.1142 44.92C43.5757 44.92 44.0372 44.7394 44.3883 44.3883C45.0906 43.686 45.0906 42.5423 44.3883 41.83C43.977 41.4187 43.7462 40.8669 43.7462 40.285C43.7462 39.7032 43.977 39.1514 44.3883 38.7401L47.4683 35.6601Z" fill="url(#paint0_linear)"/>
<defs>
<linearGradient id="paint0_linear" x1="49.1687" y1="22.46" x2="8.24493e-07" y2="22.46" gradientUnits="userSpaceOnUse">
<stop stop-color="#06EA84"/>
<stop offset="1" stop-color="#2BC47B"/>
</linearGradient>
</defs>
</svg>
