<svg width="19" height="20" viewBox="0 0 19 20" fill="none" xmlns="http://www.w3.org/2000/svg"><g clip-path="url(#clip0)"><path d="M18.72 12.142l-2.517-8.41c-.354-1.226-1.593-1.918-2.757-1.545a.559.559 0 0 0-.351.688c.086.292.378.46.654.37.612-.197 1.258.168 1.445.811v.004l1.8 6.023a3.764 3.764 0 0 0-1.932-.533c-2.018 0-3.685 1.607-3.91 3.666H7.84c-.257-2.026-1.909-3.592-3.903-3.592-.705 0-1.367.197-1.94.537l1.823-6.1v-.005c.187-.643.834-1.008 1.445-.812a.52.52 0 0 0 .654-.369.557.557 0 0 0-.35-.688c-1.165-.373-2.4.32-2.758 1.545L.304 12.15a.448.448 0 0 0-.016.07A4.35 4.35 0 0 0 0 13.77c0 2.283 1.768 4.144 3.938 4.144 1.994 0 3.646-1.566 3.903-3.591h3.33c.288 1.988 1.924 3.517 3.891 3.517 2.17 0 3.938-1.86 3.938-4.145a4.267 4.267 0 0 0-.28-1.553zM3.941 16.806c-1.593 0-2.886-1.36-2.886-3.038 0-1.677 1.293-3.038 2.886-3.038 1.593 0 2.886 1.361 2.886 3.038 0 1.677-1.297 3.038-2.886 3.038zm11.124-.073c-1.593 0-2.886-1.362-2.886-3.039s1.297-3.038 2.886-3.038c1.59 0 2.886 1.361 2.886 3.038 0 1.677-1.293 3.038-2.886 3.038z" fill="url(#paint0_linear)"/></g><defs><linearGradient id="paint0_linear" x1="9.5" y1="2.086" x2="9.5" y2="17.914" gradientUnits="userSpaceOnUse"><stop stop-color="#2BEC94"/><stop offset="1" stop-color="#03EE9A"/></linearGradient><clipPath id="clip0"><path fill="#fff" d="M0 0h19v20H0z"/></clipPath></defs></svg>