<svg width="70" height="70" viewBox="0 0 70 70" fill="none" xmlns="http://www.w3.org/2000/svg"><path d="M62.913 27.795c-3.464 0-6.299 2.441-7.007 5.67h-6.457c-.473 0-.945.315-1.181.708l-13.307 6.3-13.15-6.22a1.403 1.403 0 0 0-1.26-.788h-6.456c-.71-3.229-3.544-5.67-7.008-5.67C3.15 27.795 0 31.024 0 34.882c0 3.858 3.228 7.087 7.087 7.087 3.464 0 6.299-2.441 7.008-5.67h5.433l14.803 7.008c.157.079.393.158.63.158.236 0 .393-.079.63-.158L50.394 36.3h5.512c.708 3.229 3.543 5.67 7.007 5.67 3.937 0 7.087-3.229 7.087-7.087 0-3.858-3.15-7.087-7.087-7.087zM7.165 39.134a4.234 4.234 0 0 1-4.252-4.252 4.234 4.234 0 0 1 4.252-4.252 4.234 4.234 0 0 1 4.252 4.252 4.234 4.234 0 0 1-4.252 4.252zm55.748 0a4.234 4.234 0 0 1-4.252-4.252 4.234 4.234 0 0 1 4.252-4.252 4.234 4.234 0 0 1 4.252 4.252 4.234 4.234 0 0 1-4.252 4.252z" fill="url(#paint0_linear)"/><path d="M50.866 48.662l-4.41-4.41 4.174-1.968c.709-.315 1.023-1.181.709-1.89-.315-.709-1.181-1.024-1.89-.709l-14.41 6.772-14.33-6.85c-.709-.316-1.575 0-1.89.708-.315.709 0 1.575.709 1.89l4.252 2.047-4.41 4.41a7.005 7.005 0 0 0-3.937-1.181c-1.89 0-3.7.708-5.04 2.047-1.338 1.338-2.047 3.15-2.047 5.04 0 1.889.71 3.7 2.048 5.038 1.338 1.339 3.15 2.126 5.039 2.126 1.89 0 3.7-.708 5.04-2.047 1.338-1.338 2.125-3.15 2.125-5.04a7.005 7.005 0 0 0-1.18-3.936l5.117-5.118 7.166 3.386v6.771c-3.229.709-5.67 3.544-5.67 7.008 0 3.937 3.229 7.087 7.087 7.087 3.858 0 7.087-3.229 7.087-7.087 0-3.465-2.441-6.3-5.67-7.008v-6.85l7.166-3.386 5.118 5.118a7.005 7.005 0 0 0-1.181 3.937c0 1.89.708 3.7 2.047 5.04 1.339 1.338 3.15 2.047 5.04 2.047 1.89 0 3.7-.709 5.039-2.048 1.338-1.338 2.047-3.15 2.047-5.039 0-1.89-.709-3.7-2.047-5.04-2.362-2.44-6.142-2.676-8.898-.865zm-32.52 8.897c-.787.788-1.89 1.26-2.992 1.26s-2.204-.472-2.992-1.26c-.787-.787-1.26-1.89-1.26-2.992s.473-2.205 1.26-2.992c.788-.787 1.89-1.26 2.992-1.26 1.103 0 2.205.473 2.992 1.26.788.787 1.26 1.89 1.26 2.992 0 1.181-.472 2.205-1.26 2.992zm20.945 5.197a4.234 4.234 0 0 1-4.252 4.252 4.234 4.234 0 0 1-4.252-4.252 4.234 4.234 0 0 1 4.252-4.252 4.234 4.234 0 0 1 4.252 4.252zm18.426-5.197c-1.575 1.575-4.41 1.575-5.985 0-.787-.787-1.26-1.89-1.26-2.992s.473-2.205 1.26-2.992c.788-.787 1.89-1.26 2.992-1.26 1.103 0 2.126.394 2.993 1.26.787.787 1.26 1.89 1.26 2.992s-.394 2.205-1.26 2.992z" fill="url(#paint1_linear)"/><path d="M10.315 20.236c1.417 1.418 3.228 2.047 5.04 2.047a7.193 7.193 0 0 0 3.936-1.18l4.488 4.488-4.33 2.047c-.473.236-.788.708-.788 1.338 0 .63.315 1.103.788 1.339l14.96 7.087c.158.078.394.157.63.157.237 0 .394-.079.63-.157l14.96-7.087c.473-.236.788-.709.788-1.339s-.315-1.102-.787-1.338l-4.252-1.969 4.488-4.488a7.005 7.005 0 0 0 3.937 1.181c1.89 0 3.7-.708 5.04-2.047 1.338-1.339 2.047-3.15 2.047-5.04 0-1.89-.709-3.7-2.047-5.039-1.34-1.338-3.15-2.047-5.04-2.126-1.89 0-3.7.709-5.04 2.048-1.338 1.338-2.046 3.15-2.046 5.039 0 1.417.393 2.756 1.18 3.937l-5.196 5.197s0 .078-.079.078l-7.087-3.385v-6.93c3.229-.708 5.67-3.543 5.67-7.007C42.205 3.15 38.976 0 35.118 0c-3.858 0-7.087 3.228-7.087 7.087 0 3.464 2.441 6.299 5.67 7.008v6.929l-7.087 3.385-5.197-5.196c1.811-2.756 1.496-6.536-.945-8.977-1.338-1.338-3.15-2.126-5.039-2.126-1.89 0-3.7.709-5.04 2.126-2.834 2.677-2.834 7.166-.078 10zm41.417-8.031c.788-.788 1.89-1.26 2.992-1.26 1.103 0 2.205.472 2.993 1.26.787.787 1.26 1.89 1.26 2.992s-.473 2.205-1.26 2.992c-1.575 1.575-4.41 1.575-5.985 0-.787-.787-1.26-1.89-1.26-2.992.08-1.181.473-2.205 1.26-2.992zM35.04 34.488l-11.575-5.512 11.575-5.511 11.575 5.511-11.575 5.512zm-4.173-27.48a4.234 4.234 0 0 1 4.252-4.252 4.234 4.234 0 0 1 4.252 4.252 4.234 4.234 0 0 1-4.252 4.252 4.234 4.234 0 0 1-4.252-4.252zm-18.504 5.197c1.575-1.575 4.41-1.575 5.984 0a4.23 4.23 0 0 1 0 5.984 4.23 4.23 0 0 1-5.984 0 4.23 4.23 0 0 1 0-5.984z" fill="url(#paint2_linear)"/><defs><linearGradient id="paint0_linear" x1="70" y1="35.63" x2="0" y2="35.63" gradientUnits="userSpaceOnUse"><stop stop-color="#06EA84"/><stop offset="1" stop-color="#2BC47B"/></linearGradient><linearGradient id="paint1_linear" x1="61.811" y1="54.663" x2="8.346" y2="54.663" gradientUnits="userSpaceOnUse"><stop stop-color="#06EA84"/><stop offset="1" stop-color="#2BC47B"/></linearGradient><linearGradient id="paint2_linear" x1="61.89" y1="18.779" x2="8.258" y2="18.779" gradientUnits="userSpaceOnUse"><stop stop-color="#06EA84"/><stop offset="1" stop-color="#2BC47B"/></linearGradient></defs></svg>