<svg width="189" height="189" viewBox="0 0 189 189" fill="none" xmlns="http://www.w3.org/2000/svg"><path d="M94.5 159.321c35.8 0 64.821-29.021 64.821-64.821S130.3 29.679 94.5 29.679 29.679 58.7 29.679 94.5 58.7 159.321 94.5 159.321z" fill="#F5FAFE"/><path d="M126.28 29.91H62.72v27.296a33.17 33.17 0 0 0 13.678 26.839l11.808 8.575a2.13 2.13 0 0 1 0 3.448l-11.808 8.575a33.171 33.171 0 0 0-13.678 26.839v27.608h63.56v-27.947a33.171 33.171 0 0 0-13.244-26.518l-11.415-8.578a2.131 2.131 0 0 1 0-3.406l11.416-8.578a33.17 33.17 0 0 0 13.243-26.518V29.91z" fill="#EFEFEF"/><path d="M101.621 92.64l11.416-8.577a33.17 33.17 0 0 0 13.243-26.518V29.91h-14.304v27.636a33.169 33.169 0 0 1-13.243 26.518l-10.965 8.24.438.317a2.13 2.13 0 0 1 0 3.448l-.438.318 10.965 8.24a33.168 33.168 0 0 1 13.243 26.517v27.948h14.304v-27.948a33.169 33.169 0 0 0-13.243-26.517l-11.416-8.579a2.131 2.131 0 0 1 0-3.406z" fill="#E2E2E2"/><path d="M131.664 39.916H57.336c-.98 0-1.776-.795-1.776-1.775v-6.456c0-.98.796-1.776 1.776-1.776h74.328c.98 0 1.775.796 1.775 1.776v6.456c0 .98-.795 1.776-1.775 1.776z" fill="#45556C"/><path d="M131.664 29.91h-12.536v10.006h12.536c.98 0 1.775-.795 1.775-1.775v-6.456c0-.98-.795-1.776-1.775-1.776z" fill="#27364D"/><path d="M131.664 159.09H57.336c-.98 0-1.776-.795-1.776-1.776v-6.455c0-.981.796-1.776 1.776-1.776h74.328c.98 0 1.775.795 1.775 1.776v6.455c0 .981-.795 1.776-1.775 1.776z" fill="#45556C"/><path d="M62.72 55.58v1.626a33.17 33.17 0 0 0 13.678 26.839l11.808 8.575c.63.458.918 1.176.87 1.874h11.703a2.12 2.12 0 0 1 .842-1.853l11.416-8.578a33.17 33.17 0 0 0 13.243-26.518v-1.964H62.72z" fill="#00CC82"/><path d="M111.976 57.545a33.169 33.169 0 0 1-13.243 26.518l-10.965 8.24.438.317c.076.056.147.115.213.178.02.018.036.038.055.057.045.046.09.093.13.142.017.02.032.043.049.065.037.05.074.1.107.153.013.02.023.041.036.062.032.057.063.114.09.173l.023.053a2.125 2.125 0 0 1 .137.457l.004.025c.014.08.023.16.027.241v.011c.005.086.004.172-.002.258h11.704a2.138 2.138 0 0 1-.003-.254l.001-.01c.004-.08.012-.16.026-.238l.004-.025c.013-.073.03-.145.05-.217l.012-.04c.02-.065.044-.13.071-.193l.022-.053a1.93 1.93 0 0 1 .088-.17l.034-.062a2.49 2.49 0 0 1 .104-.152l.047-.064c.04-.05.083-.096.127-.142l.052-.056c.064-.062.133-.122.207-.178l11.416-8.578a33.17 33.17 0 0 0 13.243-26.517V55.58h-14.304v1.964z" fill="#00C27D"/><path d="M126.28 137.079H62.72v12.005h63.56v-12.005z" fill="#00CC82"/><circle cx="145.518" cy="131.604" r="25.248" fill="#F5FAFE" stroke="#34455E" stroke-width="4"/><path d="M143.779 117.11v16.06c0 .807.486 1.535 1.231 1.846l12.683 5.285" stroke="#27364D" stroke-width="4"/></svg>