<svg width="72" height="71" viewBox="0 0 72 71" fill="none" xmlns="http://www.w3.org/2000/svg"><path fill-rule="evenodd" clip-rule="evenodd" d="M69.105 1.188c.59.158 1.05.618 1.207 1.207a35.191 35.191 0 0 1 .075 17.851c-.235.912-.512 1.81-.82 2.696a1.79 1.79 0 0 1-.078.227 35.031 35.031 0 0 1-8.207 13.012l-.006.006a.804.804 0 0 0-.015.016l-.013.013-.03.027a.837.837 0 0 0-.02.018c-.015.014-.029.029-.045.042l-6.078 5.223a30.758 30.758 0 0 1-8.978 22.024 30.724 30.724 0 0 1-6.305 4.855 1.704 1.704 0 0 1-2.508-1.054l-2.413-9.478-5.037 1.854a6.841 6.841 0 0 1-7.18-1.578l-9.303-9.302a6.841 6.841 0 0 1-1.577-7.18l1.854-5.037-9.478-2.412a1.704 1.704 0 0 1-1.054-2.508 30.711 30.711 0 0 1 4.855-6.306 30.752 30.752 0 0 1 22.023-8.977l5.223-6.08.025-.026a.82.82 0 0 0 .018-.019l.018-.02a.55.55 0 0 1 .041-.043l.014-.014.007-.006a35.032 35.032 0 0 1 13.012-8.206c.074-.032.15-.058.226-.08a34.738 34.738 0 0 1 2.696-.819 35.186 35.186 0 0 1 17.851.074zM10.362 27.816a27.447 27.447 0 0 0-3.087 3.678l8.002 2.038 11.65-13.558a27.343 27.343 0 0 0-16.565 7.842zm6.199 10.72l-1.588 4.31a3.423 3.423 0 0 0 .463 3.21l3.324-5.321-2.2-2.2zm4.674 4.674l-3.345 5.353 1.318 1.318 4.35-4.35-2.323-2.321zm4.734 4.733l-4.35 4.35 1.319 1.317 5.353-3.345-2.322-2.322zm-.524 8.122a3.423 3.423 0 0 0 3.21.462l4.31-1.587-2.2-2.2-5.32 3.325zm14.562 8.161a27.48 27.48 0 0 0 3.678-3.087 27.347 27.347 0 0 0 7.843-16.565l-13.559 11.65 2.038 8.002zm-3.863-10.93l22.728-19.529a31.63 31.63 0 0 0 7.07-10.844L48.577 5.559a31.637 31.637 0 0 0-10.845 7.07l-5.693 6.626-.025.03L32 19.3 18.205 35.357l17.939 17.938zm16.084-48.91l14.886 14.887A31.779 31.779 0 0 0 67.26 4.24a31.777 31.777 0 0 0-15.03.146zm-.03 14.917a10.446 10.446 0 0 0-7.436-3.08 10.446 10.446 0 0 0-7.435 3.08 10.446 10.446 0 0 0-3.08 7.435c0 2.809 1.094 5.449 3.08 7.435a10.446 10.446 0 0 0 7.435 3.08c2.809 0 5.45-1.094 7.435-3.08 4.1-4.1 4.1-10.77 0-14.87zM49.784 31.76a7.057 7.057 0 0 1-5.023 2.081 7.057 7.057 0 0 1-5.023-2.08 7.057 7.057 0 0 1-2.081-5.024c0-1.898.739-3.682 2.08-5.024a7.057 7.057 0 0 1 5.024-2.08c1.898 0 3.682.738 5.023 2.08 2.77 2.77 2.77 7.277 0 10.047zM10.131 51.46a1.706 1.706 0 0 0-2.411 0l-3.503 3.502a1.705 1.705 0 0 0 2.412 2.412l3.502-3.503a1.705 1.705 0 0 0 0-2.411zm4.954 4.954a1.705 1.705 0 0 0-2.411 0L.999 68.088A1.705 1.705 0 0 0 3.411 70.5l11.674-11.675a1.705 1.705 0 0 0 0-2.411zm2.543 4.954a1.705 1.705 0 1 1 2.411 2.412l-5.837 5.837a1.7 1.7 0 0 1-1.206.5 1.705 1.705 0 0 1-1.206-2.911l5.838-5.838z" fill="url(#paint0_linear)"/><defs><linearGradient id="paint0_linear" x1="36" x2="36" y2="70.999" gradientUnits="userSpaceOnUse"><stop stop-color="#00C27D"/><stop offset="1" stop-color="#02ED9A"/></linearGradient></defs></svg>