<svg width="180" height="172" viewBox="0 0 180 172" fill="none" xmlns="http://www.w3.org/2000/svg"><ellipse cx="85.449" cy="82.862" rx="69.222" ry="69.027" fill="#F8FCFF"/><g filter="url(#filter0_d)"><path d="M11.376 134.228L10 66.872l47.533 26.939V162l-46.157-27.772z" fill="#EFEDEE"/><path d="M121.936 10L10 66.873 57.533 93.81 170 29.417 121.936 10z" fill="#FBFBFB"/><path d="M164.328 93.81L57.533 162V93.81l111.87-64.393-5.075 64.394z" fill="url(#paint0_radial)"/><g clip-path="url(#clip0)" fill="#2BC47C"><path d="M112.401 88.806l.021 1.656-5.527 3.542.131 10.449 5.547-3.555.02 1.614-8.057 5.164-.173-13.718 8.038-5.152zM130.783 90.854l-.021-1.656 5.527-3.543-.132-10.448-5.546 3.555-.021-1.614 8.058-5.164.173 13.718-8.038 5.152zM116.289 82.518l2.068-2.07 10.174 7.121-9.407 4.21 7.702 5.404-2.069 2.07-10.178-7.134 9.426-4.2-7.716-5.401z"/></g></g><defs><filter id="filter0_d" x="0" y="0" width="180" height="172" filterUnits="userSpaceOnUse" color-interpolation-filters="sRGB"><feFlood flood-opacity="0" result="BackgroundImageFix"/><feColorMatrix in="SourceAlpha" values="0 0 0 0 0 0 0 0 0 0 0 0 0 0 0 0 0 0 127 0"/><feOffset/><feGaussianBlur stdDeviation="5"/><feColorMatrix values="0 0 0 0 0.913026 0 0 0 0 0.961214 0 0 0 0 0.995633 0 0 0 1 0"/><feBlend in2="BackgroundImageFix" result="effect1_dropShadow"/><feBlend in="SourceGraphic" in2="effect1_dropShadow" result="shape"/></filter><radialGradient id="paint0_radial" cx="0" cy="0" r="1" gradientUnits="userSpaceOnUse" gradientTransform="rotate(103.885 11.336 91.15) scale(61.3529 46.0421)"><stop stop-color="#fff"/><stop offset=".994" stop-color="#F4F4F5"/></radialGradient><clipPath id="clip0"><path fill="#fff" transform="translate(104.297 67.003)" d="M0 0h34.677v45.657H0z"/></clipPath></defs></svg>