<svg width="41" height="41" viewBox="0 0 41 41" fill="none" xmlns="http://www.w3.org/2000/svg">
<g clip-path="url(#clip0)">
<path d="M34.9936 6.00714C34.3989 5.41245 33.4304 5.41245 32.8272 6.00714L28.1631 10.6713C27.5684 11.2659 27.5684 12.2345 28.1631 12.8376C28.7578 13.4323 29.7263 13.4323 30.3295 12.8376L33.8722 9.29496C39.6152 16.134 39.2754 26.3882 32.8357 32.8279C26.0392 39.6244 14.9778 39.6244 8.18131 32.8279C1.38479 26.0314 1.38479 14.9701 8.18131 8.17353C12.3612 3.99367 18.3166 2.22658 24.1022 3.44146C24.9092 3.61137 25.7248 3.08464 25.8947 2.25207C26.0646 1.42799 25.5379 0.612405 24.7138 0.442492C17.9088 -0.984777 10.9084 1.09666 5.99793 6.00714C2.13241 9.88116 0 15.0295 0 20.5007C0 25.9719 2.13241 31.1203 6.00642 34.9943C9.88044 38.8683 15.0203 41.0007 20.5 41.0007C25.9797 41.0007 31.1196 38.8683 34.9936 34.9943C38.8676 31.1203 41 25.9804 41 20.5007C41 15.021 38.8676 9.88116 34.9936 6.00714Z" fill="url(#paint0_linear)"/>
<path d="M20.4915 6.23553C19.6504 6.23553 18.9623 6.92368 18.9623 7.76475V19.8626L12.8624 25.9624C12.2677 26.5571 12.2677 27.5256 12.8624 28.1288C13.1598 28.4262 13.5506 28.5791 13.9414 28.5791C14.3322 28.5791 14.723 28.4262 15.0203 28.1288L21.5704 21.5787C21.6044 21.5447 21.6384 21.5022 21.6724 21.4682C21.6894 21.4512 21.6979 21.4342 21.7064 21.4173C21.7234 21.3918 21.7404 21.3748 21.7573 21.3493C21.7743 21.3323 21.7828 21.3068 21.7998 21.2813C21.8083 21.2643 21.8253 21.2388 21.8338 21.2134C21.8423 21.1879 21.8593 21.1709 21.8678 21.1454C21.8763 21.1199 21.8933 21.1029 21.9018 21.0774C21.9103 21.0519 21.9188 21.035 21.9273 21.0095C21.9358 20.984 21.9443 20.9585 21.9527 20.933C21.9612 20.9075 21.9612 20.8905 21.9697 20.865C21.9782 20.8396 21.9867 20.8141 21.9867 20.7886C21.9952 20.7631 21.9952 20.7376 21.9952 20.7036C21.9952 20.6781 22.0037 20.6611 22.0037 20.6357C22.0122 20.5847 22.0122 20.5337 22.0122 20.4827V7.76475C22.0207 6.92368 21.3326 6.23553 20.4915 6.23553Z" fill="url(#paint1_linear)"/>
</g>
<defs>
<linearGradient id="paint0_linear" x1="41" y1="20.5009" x2="6.87514e-07" y2="20.5009" gradientUnits="userSpaceOnUse">
<stop stop-color="#06EA84"/>
<stop offset="1" stop-color="#2BC47B"/>
</linearGradient>
<linearGradient id="paint1_linear" x1="22.0123" y1="17.4073" x2="12.4164" y2="17.4073" gradientUnits="userSpaceOnUse">
<stop stop-color="#06EA84"/>
<stop offset="1" stop-color="#2BC47B"/>
</linearGradient>
<clipPath id="clip0">
<rect width="41" height="41" fill="white"/>
</clipPath>
</defs>
</svg>
