<svg width="16" height="16" viewBox="0 0 16 16" fill="none" xmlns="http://www.w3.org/2000/svg"><g clip-path="url(#clip0)"><path d="M14.964 1.037a3.529 3.529 0 0 0-4.995 0L.812 10.191a.458.458 0 0 0-.13.262l-.678 5.025c-.02.143.031.286.13.385A.466.466 0 0 0 .458 16c.02 0 .04 0 .061-.004l3.028-.409a.46.46 0 1 0-.123-.913L.997 15l.473-3.505 3.689 3.689a.452.452 0 0 0 .648 0l9.157-9.154A3.51 3.51 0 0 0 16 3.533c0-.945-.368-1.831-1.036-2.496zm-4.817 1.125L11.684 3.7l-8.356 8.355-1.537-1.537 8.356-8.356zM5.487 14.21l-1.504-1.504 8.356-8.355 1.503 1.503-8.356 8.356zm8.996-9.014l-3.678-3.678A2.604 2.604 0 0 1 12.468.92a2.605 2.605 0 0 1 2.611 2.612c0 .617-.21 1.196-.596 1.663z" fill="#2BEC94"/></g><defs><clipPath id="clip0"><path fill="#fff" d="M0 0h16v16H0z"/></clipPath></defs></svg>