<svg width="51" height="60" viewBox="0 0 51 60" fill="none" xmlns="http://www.w3.org/2000/svg">
<path d="M32.1527 38.6094C31.5275 38.6094 31.0199 39.1169 31.0199 39.7422C31.0199 40.3674 31.5275 40.875 32.1527 40.875C32.778 40.875 33.2855 40.3674 33.2855 39.7422C33.2855 39.1169 32.778 38.6094 32.1527 38.6094Z" fill="url(#paint0_linear)" stroke="url(#paint1_linear)"/>
<path d="M12.9494 34.4945C12.914 34.6043 12.895 34.7215 12.895 34.8428C12.895 39.243 12.2237 43.5924 10.9015 47.7821C9.4718 48.1538 8.36377 49.4605 8.36377 51.0703C8.36377 52.9443 9.8882 54.4688 11.7622 54.4688H19.8056C20.3322 57.0512 22.6204 59 25.356 59C28.0915 59 30.3797 57.0512 30.9058 54.4688H38.9497C40.8273 54.4688 42.3481 52.9479 42.3481 51.0703C42.3481 49.4937 41.2689 48.1648 39.8104 47.7825C38.4882 43.5929 37.8169 39.2435 37.8169 34.8428C37.8169 34.7883 37.8129 34.7344 37.8054 34.6817C37.5775 29.365 34.0313 24.8842 29.1071 23.3261L30.3726 6.73973C30.7828 3.70415 28.4199 1 25.356 1C22.2925 1 19.9286 3.70326 20.3388 6.73973L21.6053 23.3341C16.8687 24.8749 13.4185 29.3331 12.9494 34.4945ZM25.356 56.7344C23.8793 56.7344 22.6199 55.7759 22.1522 54.4572H28.5597C28.092 55.7759 26.8326 56.7344 25.356 56.7344ZM38.9497 52.2031H11.7622C11.1374 52.2031 10.6294 51.6951 10.6294 51.0703C10.6294 50.4451 11.1369 49.9375 11.7622 49.9375H38.9413C38.944 49.9375 38.947 49.9379 38.9497 49.9379H38.9532C39.5763 49.9397 40.0825 50.4468 40.0825 51.0703C40.0825 51.6956 39.575 52.2031 38.9497 52.2031ZM25.356 3.26562C27.0583 3.26562 28.3654 4.77501 28.1247 6.4583C28.1212 6.48308 28.1185 6.50786 28.1163 6.53264L26.872 22.8438C25.9697 22.7341 25.0542 22.7204 24.136 22.8084C24.0373 22.8177 23.9386 22.8297 23.8395 22.8416L22.5952 6.53264C22.5934 6.50742 22.5907 6.48308 22.5872 6.4583C22.346 4.77324 23.6554 3.26562 25.356 3.26562ZM24.3515 25.0639C30.3819 24.4886 35.5513 29.1415 35.5513 35.2109C35.5513 35.2344 35.5517 35.2574 35.5535 35.2804C35.5937 39.4873 36.2177 43.646 37.408 47.6719H13.3048C14.4402 43.8305 15.0598 39.8679 15.1491 35.8588C15.1567 35.8065 15.1606 35.7526 15.1606 35.6981C15.1606 30.3155 19.0839 25.5661 24.3515 25.0639Z" fill="url(#paint2_linear)" stroke="url(#paint3_linear)"/>
<path d="M25.3546 29.5469C28.48 29.5469 31.02 32.0687 31.02 35.2109C31.02 35.8366 31.5271 36.3437 32.1528 36.3437H32.1541C32.7794 36.3437 33.2861 35.8366 33.2861 35.2109C33.2861 35.1981 33.2861 35.1853 33.2856 35.1724C33.2648 30.6589 29.5743 27.2812 25.3546 27.2812C24.7294 27.2812 24.2218 27.7884 24.2218 28.4141C24.2218 29.0398 24.7294 29.5469 25.3546 29.5469Z" fill="url(#paint4_linear)" stroke="url(#paint5_linear)"/>
<path d="M4.65467 36.237C3.12758 33.6072 2.84571 30.4676 3.88073 27.6232C5.00071 24.5452 7.56237 22.1778 10.7329 21.291C11.3352 21.1224 11.687 20.4976 11.5188 19.8949C11.3502 19.2926 10.7249 18.9413 10.1227 19.109C6.25034 20.1922 3.12094 23.0853 1.75183 26.8484C0.486271 30.326 0.830097 34.1626 2.69525 37.3747C3.00988 37.9168 3.70372 38.0995 4.24358 37.7853C4.78476 37.4712 4.96884 36.7782 4.65467 36.237Z" fill="url(#paint6_linear)" stroke="url(#paint7_linear)"/>
<path d="M10.5152 23.7488C8.42299 24.5865 6.78085 26.2808 6.01001 28.3982C5.23917 30.5156 5.40776 32.8697 6.47243 34.8566C6.76846 35.4093 7.45567 35.6155 8.00615 35.3203C8.55751 35.0247 8.76505 34.3384 8.46945 33.787C7.70879 32.367 7.58842 30.6855 8.1389 29.173C8.68982 27.661 9.8629 26.4503 11.3572 25.852C11.9382 25.6197 12.2206 24.9604 11.9878 24.3794C11.7555 23.7988 11.0962 23.5165 10.5152 23.7488Z" fill="url(#paint8_linear)" stroke="url(#paint9_linear)"/>
<path d="M40.5892 19.1091C39.9874 18.9405 39.3617 19.2923 39.1931 19.895C39.0245 20.4972 39.3763 21.1225 39.979 21.2911C43.1495 22.1779 45.7112 24.5453 46.8311 27.6233C47.8662 30.4677 47.5843 33.6073 46.0572 36.2371C45.743 36.7779 45.9267 37.4713 46.4678 37.7854C47.0077 38.0992 47.7016 37.9169 48.0162 37.3748C49.8818 34.1627 50.2256 30.3261 48.96 26.8485C47.5909 23.0854 44.4615 20.1923 40.5892 19.1091Z" fill="url(#paint10_linear)" stroke="url(#paint11_linear)"/>
<path d="M42.7056 35.3204C43.2561 35.6155 43.9433 35.4093 44.2394 34.8566C45.304 32.8698 45.4726 30.5157 44.7018 28.3983C43.9309 26.2809 42.2888 24.5865 40.1962 23.7489C39.6156 23.5166 38.9563 23.7984 38.7235 24.3794C38.4912 24.9605 38.7735 25.6193 39.3546 25.8521C40.8489 26.4504 42.022 27.6611 42.5725 29.1731C43.1229 30.6856 43.0026 32.3671 42.2419 33.7867C41.9467 34.3385 42.1543 35.0248 42.7056 35.3204Z" fill="url(#paint12_linear)" stroke="url(#paint13_linear)"/>
<defs>
<linearGradient id="paint0_linear" x1="33.2855" y1="39.7422" x2="31.0199" y2="39.7422" gradientUnits="userSpaceOnUse">
<stop stop-color="#06EA84"/>
<stop offset="1" stop-color="#2BC47B"/>
</linearGradient>
<linearGradient id="paint1_linear" x1="33.2855" y1="39.7422" x2="31.0199" y2="39.7422" gradientUnits="userSpaceOnUse">
<stop stop-color="#06EA84"/>
<stop offset="1" stop-color="#2BC47B"/>
</linearGradient>
<linearGradient id="paint2_linear" x1="42.3481" y1="30" x2="8.36377" y2="30" gradientUnits="userSpaceOnUse">
<stop stop-color="#06EA84"/>
<stop offset="1" stop-color="#2BC47B"/>
</linearGradient>
<linearGradient id="paint3_linear" x1="42.3481" y1="30" x2="8.36377" y2="30" gradientUnits="userSpaceOnUse">
<stop stop-color="#06EA84"/>
<stop offset="1" stop-color="#2BC47B"/>
</linearGradient>
<linearGradient id="paint4_linear" x1="33.2861" y1="31.8125" x2="24.2218" y2="31.8125" gradientUnits="userSpaceOnUse">
<stop stop-color="#06EA84"/>
<stop offset="1" stop-color="#2BC47B"/>
</linearGradient>
<linearGradient id="paint5_linear" x1="33.2861" y1="31.8125" x2="24.2218" y2="31.8125" gradientUnits="userSpaceOnUse">
<stop stop-color="#06EA84"/>
<stop offset="1" stop-color="#2BC47B"/>
</linearGradient>
<linearGradient id="paint6_linear" x1="11.5608" y1="28.5031" x2="1" y2="28.5031" gradientUnits="userSpaceOnUse">
<stop stop-color="#06EA84"/>
<stop offset="1" stop-color="#2BC47B"/>
</linearGradient>
<linearGradient id="paint7_linear" x1="11.5608" y1="28.5031" x2="1" y2="28.5031" gradientUnits="userSpaceOnUse">
<stop stop-color="#06EA84"/>
<stop offset="1" stop-color="#2BC47B"/>
</linearGradient>
<linearGradient id="paint8_linear" x1="12.0694" y1="29.5612" x2="5.53259" y2="29.5612" gradientUnits="userSpaceOnUse">
<stop stop-color="#06EA84"/>
<stop offset="1" stop-color="#2BC47B"/>
</linearGradient>
<linearGradient id="paint9_linear" x1="12.0694" y1="29.5612" x2="5.53259" y2="29.5612" gradientUnits="userSpaceOnUse">
<stop stop-color="#06EA84"/>
<stop offset="1" stop-color="#2BC47B"/>
</linearGradient>
<linearGradient id="paint10_linear" x1="49.7118" y1="28.5029" x2="39.1509" y2="28.5029" gradientUnits="userSpaceOnUse">
<stop stop-color="#06EA84"/>
<stop offset="1" stop-color="#2BC47B"/>
</linearGradient>
<linearGradient id="paint11_linear" x1="49.7118" y1="28.5029" x2="39.1509" y2="28.5029" gradientUnits="userSpaceOnUse">
<stop stop-color="#06EA84"/>
<stop offset="1" stop-color="#2BC47B"/>
</linearGradient>
<linearGradient id="paint12_linear" x1="45.1792" y1="29.5612" x2="38.6422" y2="29.5612" gradientUnits="userSpaceOnUse">
<stop stop-color="#06EA84"/>
<stop offset="1" stop-color="#2BC47B"/>
</linearGradient>
<linearGradient id="paint13_linear" x1="45.1792" y1="29.5612" x2="38.6422" y2="29.5612" gradientUnits="userSpaceOnUse">
<stop stop-color="#06EA84"/>
<stop offset="1" stop-color="#2BC47B"/>
</linearGradient>
</defs>
</svg>
