<svg width="50" height="50" viewBox="0 0 50 50" fill="none" xmlns="http://www.w3.org/2000/svg">
<path fill-rule="evenodd" clip-rule="evenodd" d="M14.2308 7.61327e-07H14.1485C12.0643 -2.48797e-05 10.3832 -2.48926e-05 9.02187 0.11118C7.62023 0.225719 6.3891 0.467642 5.2501 1.04803C3.44085 1.96987 1.96987 3.44085 1.04803 5.2501C0.467642 6.3891 0.225719 7.62023 0.11118 9.02187C-2.48926e-05 10.3832 -2.48797e-05 12.0643 7.61327e-07 14.1484V14.2308V35.7692V35.8515C-2.48797e-05 37.9356 -2.48926e-05 39.6169 0.11118 40.9782C0.225719 42.3797 0.467642 43.6108 1.04803 44.75C1.96987 46.5592 3.44085 48.03 5.2501 48.9521C6.3891 49.5323 7.62023 49.7744 9.02187 49.8887C10.3832 50 12.0642 50 14.1484 50H14.2308H35.7692H35.8515C37.9359 50 39.6169 50 40.9782 49.8887C42.3797 49.7744 43.6108 49.5323 44.75 48.9521C46.5592 48.03 48.03 46.5592 48.9521 44.75C49.5323 43.6108 49.7744 42.3797 49.8887 40.9782C50 39.6169 50 37.9359 50 35.8515V35.7692V30.1282C50 29.0662 49.139 28.2051 48.0769 28.2051C47.0149 28.2051 46.1538 29.0662 46.1538 30.1282V35.7692C46.1538 37.9551 46.1523 39.4787 46.0554 40.6649C45.9603 41.8287 45.7831 42.4974 45.5251 43.0038C44.9718 44.0892 44.0892 44.9718 43.0038 45.5251C42.4974 45.7831 41.8287 45.9603 40.6649 46.0554C39.4787 46.1523 37.9551 46.1538 35.7692 46.1538H14.2308C12.045 46.1538 10.5213 46.1523 9.33508 46.0554C8.17128 45.9603 7.50267 45.7831 6.99621 45.5251C5.91067 44.9718 5.02808 44.0892 4.47498 43.0038L2.76149 43.8769L4.47498 43.0038C4.21692 42.4974 4.03964 41.8287 3.94456 40.6649C3.84764 39.4787 3.84615 37.9551 3.84615 35.7692V14.2308C3.84615 12.045 3.84764 10.5213 3.94456 9.33508C4.03964 8.17128 4.21692 7.50267 4.47498 6.99621C5.02808 5.91067 5.91067 5.02808 6.99621 4.47498C7.50267 4.21692 8.17128 4.03964 9.33508 3.94456C10.5213 3.84764 12.045 3.84615 14.2308 3.84615H19.8718C20.9338 3.84615 21.7949 2.98515 21.7949 1.92308C21.7949 0.861001 20.9338 7.61327e-07 19.8718 7.61327e-07H14.2308ZM30.7692 1.92308C30.7692 2.98515 31.6303 3.84615 32.6923 3.84615H43.4341L19.2308 28.0495V17.3077C19.2308 16.2456 18.3698 15.3846 17.3077 15.3846C16.2456 15.3846 15.3846 16.2456 15.3846 17.3077V32.6923C15.3846 33.7544 16.2456 34.6154 17.3077 34.6154H32.6923C33.7544 34.6154 34.6154 33.7544 34.6154 32.6923C34.6154 31.6303 33.7544 30.7692 32.6923 30.7692H21.9505L46.1538 6.5658V17.3077C46.1538 18.3698 47.0149 19.2308 48.0769 19.2308C49.139 19.2308 50 18.3698 50 17.3077V1.92308C50 0.861001 49.139 7.61327e-07 48.0769 7.61327e-07H32.6923C31.6303 7.61327e-07 30.7692 0.861001 30.7692 1.92308Z" fill="url(#paint0_linear)"/>
<defs>
<linearGradient id="paint0_linear" x1="50" y1="25" x2="8.38432e-07" y2="25" gradientUnits="userSpaceOnUse">
<stop stop-color="#06EA84"/>
<stop offset="1" stop-color="#2BC47B"/>
</linearGradient>
</defs>
</svg>
