<svg width="58" height="53" viewBox="0 0 58 53" fill="none" xmlns="http://www.w3.org/2000/svg">
<path d="M38.7495 0.000568367C38.7042 -9.54018e-08 38.6596 0 38.615 0C35.5828 0 32.7337 1.17285 30.5794 3.31027C28.3774 5.49441 27.1649 8.41904 27.1649 11.5444V40.4041C27.1649 44.7717 23.6518 48.3252 19.3337 48.3252C15.0155 48.3252 11.5025 44.7994 11.5025 40.4655V31.255H7.83162V40.4655C7.83162 46.8306 12.991 52.0094 19.3337 52.0094C25.6757 52.0094 30.8358 46.8036 30.837 40.4047V11.545C30.837 9.41123 31.6624 7.41752 33.1606 5.93031C34.6223 4.47937 36.5568 3.6842 38.6364 3.6842C38.6664 3.6842 38.6975 3.68477 38.7288 3.68477C43.047 3.68477 46.56 7.2106 46.56 11.5444V20.5093H50.2309V11.5444C50.2308 5.17937 45.0707 0.000568367 38.7495 0.000568367Z" fill="url(#paint0_linear)"/>
<path d="M18.8785 30.8122L11.1085 19.6976C10.7647 19.2063 10.2043 18.9134 9.60592 18.9134C9.00758 18.9134 8.44718 19.2063 8.10326 19.6976L0.333221 30.8122C-0.0602028 31.3747 -0.10914 32.1097 0.20714 32.7194C0.522853 33.3292 1.15111 33.7117 1.83578 33.7117H17.3757C18.0604 33.7117 18.6881 33.3292 19.0044 32.7194C19.3208 32.1097 19.2718 31.3747 18.8785 30.8122ZM5.36606 30.0275L9.60592 23.9627L13.8458 30.0275H5.36606Z" fill="url(#paint1_linear)"/>
<path d="M57.7921 19.9647C57.4759 19.3562 56.8487 18.9742 56.1647 18.9742H40.6254C39.9414 18.9742 39.3148 19.3561 38.998 19.9647C38.6817 20.5732 38.7288 21.3077 39.1203 21.8707L46.8897 33.0461C47.2329 33.5397 47.7951 33.8338 48.3947 33.8338C48.9943 33.8338 49.5565 33.5391 49.8998 33.0461L57.6698 21.8707C58.0607 21.3082 58.1084 20.5732 57.7921 19.9647ZM48.3941 28.7731L44.1433 22.6584H52.645L48.3941 28.7731Z" fill="url(#paint2_linear)"/>
<defs>
<linearGradient id="paint0_linear" x1="58" y1="26.0047" x2="9.72581e-07" y2="26.0047" gradientUnits="userSpaceOnUse">
<stop stop-color="#06EA84"/>
<stop offset="1" stop-color="#2BC47B"/>
</linearGradient>
<linearGradient id="paint1_linear" x1="58" y1="26.0047" x2="9.72581e-07" y2="26.0047" gradientUnits="userSpaceOnUse">
<stop stop-color="#06EA84"/>
<stop offset="1" stop-color="#2BC47B"/>
</linearGradient>
<linearGradient id="paint2_linear" x1="58" y1="26.0047" x2="9.72581e-07" y2="26.0047" gradientUnits="userSpaceOnUse">
<stop stop-color="#06EA84"/>
<stop offset="1" stop-color="#2BC47B"/>
</linearGradient>
</defs>
</svg>
